<?xml version="1.0" encoding="UTF-8" standalone="no"?><svg xmlns="http://www.w3.org/2000/svg" xmlns:xlink="http://www.w3.org/1999/xlink" contentScriptType="application/ecmascript" contentStyleType="text/css" height="955px" preserveAspectRatio="none" style="width:731px;height:955px;" version="1.1" viewBox="0 0 731 955" width="731px" zoomAndPan="magnify"><defs><filter height="300%" id="f1073a3ej1rmvz" width="300%" x="-1" y="-1"><feGaussianBlur result="blurOut" stdDeviation="2.0"/><feColorMatrix in="blurOut" result="blurOut2" type="matrix" values="0 0 0 0 0 0 0 0 0 0 0 0 0 0 0 0 0 0 .4 0"/><feOffset dx="4.0" dy="4.0" in="blurOut2" result="blurOut3"/><feBlend in="SourceGraphic" in2="blurOut3" mode="normal"/></filter></defs><g><text fill="#000000" font-family="sans-serif" font-size="18" lengthAdjust="spacing" textLength="169" x="280" y="26.708">processus d’achat</text><ellipse cx="181" cy="90.6045" fill="#000000" filter="url(#f1073a3ej1rmvz)" rx="10" ry="10" style="stroke:none;stroke-width:1.0;"/><rect fill="#FEFECE" filter="url(#f1073a3ej1rmvz)" height="33.9688" rx="12.5" ry="12.5" style="stroke:#A80036;stroke-width:1.5;" width="79" x="141.5" y="120.6045"/><text fill="#000000" font-family="sans-serif" font-size="12" lengthAdjust="spacing" textLength="59" x="151.5" y="141.7432">catalogue</text><rect fill="#FEFECE" filter="url(#f1073a3ej1rmvz)" height="33.9688" rx="12.5" ry="12.5" style="stroke:#A80036;stroke-width:1.5;" width="108" x="127" y="174.5732"/><text fill="#000000" font-family="sans-serif" font-size="12" lengthAdjust="spacing" textLength="88" x="137" y="195.7119">Choisir produit</text><rect fill="#FEFECE" filter="url(#f1073a3ej1rmvz)" height="33.9688" rx="12.5" ry="12.5" style="stroke:#A80036;stroke-width:1.5;" width="167" x="97.5" y="228.542"/><text fill="#000000" font-family="sans-serif" font-size="12" lengthAdjust="spacing" textLength="147" x="107.5" y="249.6807">achemine sa commande</text><rect fill="#FEFECE" filter="url(#f1073a3ej1rmvz)" height="47.9375" rx="12.5" ry="12.5" style="stroke:#A80036;stroke-width:1.5;" width="142" x="110" y="492.8193"/><text fill="#000000" font-family="sans-serif" font-size="12" lengthAdjust="spacing" textLength="122" x="120" y="513.958">expediercommande</text><text fill="#000000" font-family="sans-serif" font-size="12" lengthAdjust="spacing" textLength="105" x="120" y="527.9268">BondeFacturation</text><rect fill="#FEFECE" filter="url(#f1073a3ej1rmvz)" height="33.9688" rx="12.5" ry="12.5" style="stroke:#A80036;stroke-width:1.5;" width="121" x="120.5" y="560.7568"/><text fill="#000000" font-family="sans-serif" font-size="12" lengthAdjust="spacing" textLength="101" x="130.5" y="581.8955">receptionproduit</text><polygon fill="#FEFECE" filter="url(#f1073a3ej1rmvz)" points="126,614.7256,236,614.7256,248,626.7256,236,638.7256,126,638.7256,114,626.7256,126,614.7256" style="stroke:#A80036;stroke-width:1.5;"/><text fill="#000000" font-family="sans-serif" font-size="11" lengthAdjust="spacing" textLength="110" x="126" y="630.5337">produitpasfectueux</text><text fill="#000000" font-family="sans-serif" font-size="11" lengthAdjust="spacing" textLength="21" x="93" y="624.1313">yes</text><text fill="#000000" font-family="sans-serif" font-size="11" lengthAdjust="spacing" textLength="14" x="248" y="624.1313">no</text><rect fill="#FEFECE" filter="url(#f1073a3ej1rmvz)" height="33.9688" rx="12.5" ry="12.5" style="stroke:#A80036;stroke-width:1.5;" width="132" x="21" y="658.7256"/><text fill="#000000" font-family="sans-serif" font-size="12" lengthAdjust="spacing" textLength="112" x="31" y="679.8643">confirmerPaiement</text><rect fill="#FEFECE" filter="url(#f1073a3ej1rmvz)" height="33.9688" rx="12.5" ry="12.5" style="stroke:#A80036;stroke-width:1.5;" width="204" x="173" y="720.7607"/><text fill="#000000" font-family="sans-serif" font-size="12" lengthAdjust="spacing" textLength="184" x="183" y="741.8994">expedier accusé de réception</text><polygon fill="#FEFECE" filter="url(#f1073a3ej1rmvz)" points="230,774.7295,320,774.7295,332,786.7295,320,798.7295,230,798.7295,218,786.7295,230,774.7295" style="stroke:#A80036;stroke-width:1.5;"/><text fill="#000000" font-family="sans-serif" font-size="11" lengthAdjust="spacing" textLength="21" x="279" y="808.9399">yes</text><text fill="#000000" font-family="sans-serif" font-size="11" lengthAdjust="spacing" textLength="90" x="230" y="790.5376">garderLeproduit</text><text fill="#000000" font-family="sans-serif" font-size="11" lengthAdjust="spacing" textLength="14" x="332" y="784.1353">no</text><ellipse cx="275" cy="888.1006" fill="#FFFFFF" filter="url(#f1073a3ej1rmvz)" rx="11" ry="11" style="stroke:#000000;stroke-width:1.0;"/><ellipse cx="275" cy="888.1006" fill="#000000" rx="6" ry="6" style="stroke:#7F7F7F;stroke-width:1.0;"/><line style="stroke:#000000;stroke-width:2.0;" x1="15" x2="15" y1="33.6982" y2="943.1006"/><rect fill="#FEFECE" filter="url(#f1073a3ej1rmvz)" height="33.9688" rx="12.5" ry="12.5" style="stroke:#A80036;stroke-width:1.5;" width="70" x="445" y="282.5107"/><text fill="#000000" font-family="sans-serif" font-size="12" lengthAdjust="spacing" textLength="50" x="455" y="303.6494">siteWeb</text><rect fill="#FEFECE" filter="url(#f1073a3ej1rmvz)" height="33.9688" rx="12.5" ry="12.5" style="stroke:#A80036;stroke-width:1.5;" width="111" x="424.5" y="336.4795"/><text fill="#000000" font-family="sans-serif" font-size="12" lengthAdjust="spacing" textLength="91" x="434.5" y="357.6182">no Carte Crédit</text><rect fill="#FEFECE" filter="url(#f1073a3ej1rmvz)" height="33.9688" rx="12.5" ry="12.5" style="stroke:#A80036;stroke-width:1.5;" width="171" x="394.5" y="390.4482"/><text fill="#000000" font-family="sans-serif" font-size="12" lengthAdjust="spacing" textLength="151" x="404.5" y="411.5869">analyse des commandes</text><rect fill="#FEFECE" filter="url(#f1073a3ej1rmvz)" height="33.9688" rx="12.5" ry="12.5" style="stroke:#A80036;stroke-width:1.5;" width="132" x="508" y="658.7256"/><text fill="#000000" font-family="sans-serif" font-size="12" lengthAdjust="spacing" textLength="112" x="518" y="679.8643">aviser Fournisseur</text><rect fill="#FEFECE" filter="url(#f1073a3ej1rmvz)" height="33.9688" rx="12.5" ry="12.5" style="stroke:#A80036;stroke-width:1.5;" width="149" x="499.5" y="823.1318"/><text fill="#000000" font-family="sans-serif" font-size="12" lengthAdjust="spacing" textLength="129" x="509.5" y="844.2705">autoriser le paiement</text><ellipse cx="667" cy="786.7295" fill="#FFFFFF" filter="url(#f1073a3ej1rmvz)" rx="11" ry="11" style="stroke:#000000;stroke-width:1.0;"/><ellipse cx="667" cy="786.7295" fill="#000000" rx="6" ry="6" style="stroke:#7F7F7F;stroke-width:1.0;"/><polygon fill="#FEFECE" filter="url(#f1073a3ej1rmvz)" points="414,444.417,546,444.417,558,456.417,546,468.417,414,468.417,402,456.417,414,444.417" style="stroke:#A80036;stroke-width:1.5;"/><text fill="#000000" font-family="sans-serif" font-size="11" lengthAdjust="spacing" textLength="21" x="484" y="478.6274">yes</text><text fill="#000000" font-family="sans-serif" font-size="11" lengthAdjust="spacing" textLength="132" x="414" y="460.2251">dateLivraison=dateJour</text><polygon fill="#FEFECE" filter="url(#f1073a3ej1rmvz)" points="480,919.1006,492,931.1006,480,943.1006,468,931.1006,480,919.1006" style="stroke:#A80036;stroke-width:1.5;"/><line style="stroke:#000000;stroke-width:2.0;" x1="387" x2="387" y1="33.6982" y2="943.1006"/><line style="stroke:#000000;stroke-width:2.0;" x1="711" x2="711" y1="33.6982" y2="943.1006"/><line style="stroke:#A80036;stroke-width:1.5;" x1="181" x2="181" y1="100.6045" y2="120.6045"/><polygon fill="#A80036" points="177,110.6045,181,120.6045,185,110.6045,181,114.6045" style="stroke:#A80036;stroke-width:1.0;"/><line style="stroke:#A80036;stroke-width:1.5;" x1="181" x2="181" y1="154.5732" y2="174.5732"/><polygon fill="#A80036" points="177,164.5732,181,174.5732,185,164.5732,181,168.5732" style="stroke:#A80036;stroke-width:1.0;"/><line style="stroke:#A80036;stroke-width:1.5;" x1="181" x2="181" y1="208.542" y2="228.542"/><polygon fill="#A80036" points="177,218.542,181,228.542,185,218.542,181,222.542" style="stroke:#A80036;stroke-width:1.0;"/><line style="stroke:#A80036;stroke-width:1.5;" x1="181" x2="181" y1="540.7568" y2="560.7568"/><polygon fill="#A80036" points="177,550.7568,181,560.7568,185,550.7568,181,554.7568" style="stroke:#A80036;stroke-width:1.0;"/><line style="stroke:#A80036;stroke-width:1.5;" x1="275" x2="275" y1="754.7295" y2="774.7295"/><polygon fill="#A80036" points="271,764.7295,275,774.7295,279,764.7295,275,768.7295" style="stroke:#A80036;stroke-width:1.0;"/><line style="stroke:#A80036;stroke-width:1.5;" x1="114" x2="87" y1="626.7256" y2="626.7256"/><line style="stroke:#A80036;stroke-width:1.5;" x1="87" x2="87" y1="626.7256" y2="658.7256"/><polygon fill="#A80036" points="83,648.7256,87,658.7256,91,648.7256,87,652.7256" style="stroke:#A80036;stroke-width:1.0;"/><line style="stroke:#A80036;stroke-width:1.5;" x1="87" x2="87" y1="692.6943" y2="906.8994"/><line style="stroke:#A80036;stroke-width:1.5;" x1="87" x2="480" y1="906.8994" y2="906.8994"/><line style="stroke:#A80036;stroke-width:1.5;" x1="480" x2="480" y1="906.8994" y2="919.1006"/><polygon fill="#A80036" points="476,909.1006,480,919.1006,484,909.1006,480,913.1006" style="stroke:#A80036;stroke-width:1.0;"/><line style="stroke:#A80036;stroke-width:1.5;" x1="181" x2="181" y1="594.7256" y2="614.7256"/><polygon fill="#A80036" points="177,604.7256,181,614.7256,185,604.7256,181,608.7256" style="stroke:#A80036;stroke-width:1.0;"/><line style="stroke:#A80036;stroke-width:1.5;" x1="480" x2="480" y1="316.4795" y2="336.4795"/><polygon fill="#A80036" points="476,326.4795,480,336.4795,484,326.4795,480,330.4795" style="stroke:#A80036;stroke-width:1.0;"/><line style="stroke:#A80036;stroke-width:1.5;" x1="480" x2="480" y1="370.4482" y2="390.4482"/><polygon fill="#A80036" points="476,380.4482,480,390.4482,484,380.4482,480,384.4482" style="stroke:#A80036;stroke-width:1.0;"/><line style="stroke:#A80036;stroke-width:1.5;" x1="574" x2="574" y1="857.1006" y2="862.1006"/><line style="stroke:#A80036;stroke-width:1.5;" x1="574" x2="275" y1="862.1006" y2="862.1006"/><line style="stroke:#A80036;stroke-width:1.5;" x1="275" x2="275" y1="862.1006" y2="877.1006"/><polygon fill="#A80036" points="271,867.1006,275,877.1006,279,867.1006,275,871.1006" style="stroke:#A80036;stroke-width:1.0;"/><line style="stroke:#A80036;stroke-width:1.5;" x1="558" x2="692" y1="456.417" y2="456.417"/><polygon fill="#A80036" points="688,702.6943,692,712.6943,696,702.6943,692,706.6943" style="stroke:#A80036;stroke-width:1.5;"/><line style="stroke:#A80036;stroke-width:1.5;" x1="692" x2="692" y1="456.417" y2="931.1006"/><line style="stroke:#A80036;stroke-width:1.5;" x1="692" x2="492" y1="931.1006" y2="931.1006"/><polygon fill="#A80036" points="502,927.1006,492,931.1006,502,935.1006,498,931.1006" style="stroke:#A80036;stroke-width:1.0;"/><line style="stroke:#A80036;stroke-width:1.5;" x1="480" x2="480" y1="424.417" y2="444.417"/><polygon fill="#A80036" points="476,434.417,480,444.417,484,434.417,480,438.417" style="stroke:#A80036;stroke-width:1.0;"/><line style="stroke:#A80036;stroke-width:1.5;" x1="181" x2="181" y1="262.5107" y2="267.5107"/><line style="stroke:#A80036;stroke-width:1.5;" x1="181" x2="480" y1="267.5107" y2="267.5107"/><line style="stroke:#A80036;stroke-width:1.5;" x1="480" x2="480" y1="267.5107" y2="282.5107"/><polygon fill="#A80036" points="476,272.5107,480,282.5107,484,272.5107,480,276.5107" style="stroke:#A80036;stroke-width:1.0;"/><line style="stroke:#A80036;stroke-width:1.5;" x1="574" x2="574" y1="692.6943" y2="703.2607"/><line style="stroke:#A80036;stroke-width:1.5;" x1="574" x2="275" y1="703.2607" y2="703.2607"/><line style="stroke:#A80036;stroke-width:1.5;" x1="275" x2="275" y1="703.2607" y2="720.7607"/><polygon fill="#A80036" points="271,710.7607,275,720.7607,279,710.7607,275,714.7607" style="stroke:#A80036;stroke-width:1.0;"/><line style="stroke:#A80036;stroke-width:1.5;" x1="275" x2="275" y1="798.7295" y2="810.9307"/><line style="stroke:#A80036;stroke-width:1.5;" x1="275" x2="574" y1="810.9307" y2="810.9307"/><line style="stroke:#A80036;stroke-width:1.5;" x1="574" x2="574" y1="810.9307" y2="823.1318"/><polygon fill="#A80036" points="570,813.1318,574,823.1318,578,813.1318,574,817.1318" style="stroke:#A80036;stroke-width:1.0;"/><line style="stroke:#A80036;stroke-width:1.5;" x1="248" x2="574" y1="626.7256" y2="626.7256"/><line style="stroke:#A80036;stroke-width:1.5;" x1="574" x2="574" y1="626.7256" y2="658.7256"/><polygon fill="#A80036" points="570,648.7256,574,658.7256,578,648.7256,574,652.7256" style="stroke:#A80036;stroke-width:1.0;"/><line style="stroke:#A80036;stroke-width:1.5;" x1="480" x2="480" y1="468.417" y2="480.6182"/><line style="stroke:#A80036;stroke-width:1.5;" x1="480" x2="181" y1="480.6182" y2="480.6182"/><line style="stroke:#A80036;stroke-width:1.5;" x1="181" x2="181" y1="480.6182" y2="492.8193"/><polygon fill="#A80036" points="177,482.8193,181,492.8193,185,482.8193,181,486.8193" style="stroke:#A80036;stroke-width:1.0;"/><text fill="#000000" font-family="sans-serif" font-size="18" lengthAdjust="spacing" textLength="53" x="174.5" y="50.4063">Client</text><text fill="#000000" font-family="sans-serif" font-size="18" lengthAdjust="spacing" textLength="112" x="493" y="50.4063">Fournisseur</text><text fill="#000000" font-family="sans-serif" font-size="18" lengthAdjust="spacing" textLength="89" x="493" y="71.3594">(siteWeb)</text><!--MD5=[030ddaa1c3e280476e866b4c7818a92f]
@startuml
title processus d’achat
|Client|
start
:catalogue;
:Choisir produit;
:achemine sa commande;
|Fournisseur\n(siteWeb)|
:siteWeb;
:no Carte Crédit;
:analyse des commandes;
if (dateLivraison=dateJour) then (yes)
|Client|
:expediercommande\nBondeFacturation;
:receptionproduit;
if (produitpasfectueux) then (yes)
:confirmerPaiement;
else (no)
|Fournisseur\n(siteWeb)|
:aviser Fournisseur;
|Client|
:expedier accusé de réception;
if (garderLeproduit) then (yes)
|Fournisseur\n(siteWeb)|
:autoriser le paiement; 
else (no)
stop
endif
|Client|
stop
@enduml

PlantUML version 1.2021.3beta7(Unknown compile time)
(GPL source distribution)
Java Runtime: Java(TM) SE Runtime Environment
JVM: Java HotSpot(TM) 64-Bit Server VM
Default Encoding: UTF-8
Language: en
Country: US
--></g></svg>