<?xml version="1.0" encoding="UTF-8" standalone="no"?><svg xmlns="http://www.w3.org/2000/svg" xmlns:xlink="http://www.w3.org/1999/xlink" contentScriptType="application/ecmascript" contentStyleType="text/css" height="561px" preserveAspectRatio="none" style="width:1113px;height:561px;background:#FFFFFF;" version="1.1" viewBox="0 0 1113 561" width="1113px" zoomAndPan="magnify"><defs><filter height="300%" id="fqs32s9vkjeae" width="300%" x="-1" y="-1"><feGaussianBlur result="blurOut" stdDeviation="2.0"/><feColorMatrix in="blurOut" result="blurOut2" type="matrix" values="0 0 0 0 0 0 0 0 0 0 0 0 0 0 0 0 0 0 .4 0"/><feOffset dx="4.0" dy="4.0" in="blurOut2" result="blurOut3"/><feBlend in="SourceGraphic" in2="blurOut3" mode="normal"/></filter></defs><g><!--MD5=[5d3c9bb25b1b07c105e03cfa5bc0b7ee]
class Note--><rect codeLine="2" fill="#FEFECE" filter="url(#fqs32s9vkjeae)" height="137.6328" id="Note" style="stroke:#A80036;stroke-width:1.5;" width="184" x="248" y="91"/><ellipse cx="321.75" cy="107" fill="#ADD1B2" rx="11" ry="11" style="stroke:#A80036;stroke-width:1.0;"/><path d="M324.0938,102.6719 C323.1563,102.2344 322.5625,102.0938 321.6875,102.0938 C319.0625,102.0938 317.0625,104.1719 317.0625,106.8906 L317.0625,108.0156 C317.0625,110.5938 319.1719,112.4844 322.0625,112.4844 C323.2813,112.4844 324.4375,112.1875 325.1875,111.6406 C325.7656,111.2344 326.0938,110.7813 326.0938,110.3906 C326.0938,109.9375 325.7031,109.5469 325.2344,109.5469 C325.0156,109.5469 324.8125,109.625 324.625,109.8125 C324.1719,110.2969 324.1719,110.2969 323.9844,110.3906 C323.5625,110.6563 322.875,110.7813 322.1094,110.7813 C320.0625,110.7813 318.7656,109.6875 318.7656,107.9844 L318.7656,106.8906 C318.7656,105.1094 320.0156,103.7969 321.75,103.7969 C322.3281,103.7969 322.9375,103.9531 323.4063,104.2031 C323.8906,104.4844 324.0625,104.7031 324.1563,105.1094 C324.2188,105.5156 324.25,105.6406 324.3906,105.7656 C324.5313,105.9063 324.7656,106.0156 324.9844,106.0156 C325.25,106.0156 325.5156,105.875 325.6875,105.6563 C325.7969,105.5 325.8281,105.3125 325.8281,104.8906 L325.8281,103.4688 C325.8281,103.0313 325.8125,102.9063 325.7188,102.75 C325.5625,102.4844 325.2813,102.3438 324.9844,102.3438 C324.6875,102.3438 324.4844,102.4375 324.2656,102.75 L324.0938,102.6719 Z " fill="#000000"/><text fill="#000000" font-family="sans-serif" font-size="12" lengthAdjust="spacing" textLength="28" x="342.25" y="111.1543">Note</text><line style="stroke:#A80036;stroke-width:1.5;" x1="249" x2="431" y1="123" y2="123"/><line style="stroke:#A80036;stroke-width:1.5;" x1="249" x2="431" y1="131" y2="131"/><text fill="#000000" font-family="sans-serif" font-size="11" lengthAdjust="spacing" textLength="83" x="254" y="145.2104">redigerNote(){</text><text fill="#000000" font-family="sans-serif" font-size="11" lengthAdjust="spacing" textLength="160" x="266" y="158.0151">getState().redigerNote(this);</text><text fill="#000000" font-family="sans-serif" font-size="11" lengthAdjust="spacing" textLength="7" x="254" y="170.8198">}</text><text fill="#000000" font-family="sans-serif" font-size="11" lengthAdjust="spacing" textLength="78" x="254" y="183.6245">corrigerNote()</text><text fill="#000000" font-family="sans-serif" font-size="11" lengthAdjust="spacing" textLength="93" x="254" y="196.4292">approuverNote()</text><text fill="#000000" font-family="sans-serif" font-size="11" lengthAdjust="spacing" textLength="113" x="254" y="209.2339">getState():IEtatNote</text><text fill="#000000" font-family="sans-serif" font-size="11" lengthAdjust="spacing" textLength="109" x="254" y="222.0386">setState(IEtatNote)</text><path d="M6,6 L6,31.1328 A0,0 0 0 0 6,31.1328 L336,31.1328 L340,90.952 L344,31.1328 L674,31.1328 A0,0 0 0 0 674,31.1328 L674,16 L664,6 L6,6 A0,0 0 0 0 6,6 " fill="#FBFB77" filter="url(#fqs32s9vkjeae)" style="stroke:#A80036;stroke-width:1.0;"/><path d="M664,6 L664,16 L674,16 L664,6 " fill="#FBFB77" style="stroke:#A80036;stroke-width:1.0;"/><text fill="#000000" font-family="sans-serif" font-size="13" lengthAdjust="spacing" textLength="647" x="12" y="23.0669">https://docs.google.com/document/d/18s-eN0QoqREblJUihUaEC2L7f1hZF82_Jm9PjfL6BuY/edit?pli=1#</text><!--MD5=[b9edaea5ef64d675448e3add6caeefeb]
class IEtatNote--><rect codeLine="11" fill="#FEFECE" filter="url(#fqs32s9vkjeae)" height="86.4141" id="IEtatNote" style="stroke:#A80036;stroke-width:1.5;" width="161" x="603.5" y="117"/><ellipse cx="653.25" cy="133" fill="#ADD1B2" rx="11" ry="11" style="stroke:#A80036;stroke-width:1.0;"/><path d="M655.5938,128.6719 C654.6563,128.2344 654.0625,128.0938 653.1875,128.0938 C650.5625,128.0938 648.5625,130.1719 648.5625,132.8906 L648.5625,134.0156 C648.5625,136.5938 650.6719,138.4844 653.5625,138.4844 C654.7813,138.4844 655.9375,138.1875 656.6875,137.6406 C657.2656,137.2344 657.5938,136.7813 657.5938,136.3906 C657.5938,135.9375 657.2031,135.5469 656.7344,135.5469 C656.5156,135.5469 656.3125,135.625 656.125,135.8125 C655.6719,136.2969 655.6719,136.2969 655.4844,136.3906 C655.0625,136.6563 654.375,136.7813 653.6094,136.7813 C651.5625,136.7813 650.2656,135.6875 650.2656,133.9844 L650.2656,132.8906 C650.2656,131.1094 651.5156,129.7969 653.25,129.7969 C653.8281,129.7969 654.4375,129.9531 654.9063,130.2031 C655.3906,130.4844 655.5625,130.7031 655.6563,131.1094 C655.7188,131.5156 655.75,131.6406 655.8906,131.7656 C656.0313,131.9063 656.2656,132.0156 656.4844,132.0156 C656.75,132.0156 657.0156,131.875 657.1875,131.6563 C657.2969,131.5 657.3281,131.3125 657.3281,130.8906 L657.3281,129.4688 C657.3281,129.0313 657.3125,128.9063 657.2188,128.75 C657.0625,128.4844 656.7813,128.3438 656.4844,128.3438 C656.1875,128.3438 655.9844,128.4375 655.7656,128.75 L655.5938,128.6719 Z " fill="#000000"/><text fill="#000000" font-family="sans-serif" font-size="12" lengthAdjust="spacing" textLength="53" x="673.75" y="137.1543">IEtatNote</text><line style="stroke:#A80036;stroke-width:1.5;" x1="604.5" x2="763.5" y1="149" y2="149"/><line style="stroke:#A80036;stroke-width:1.5;" x1="604.5" x2="763.5" y1="157" y2="157"/><text fill="#000000" font-family="sans-serif" font-size="11" lengthAdjust="spacing" textLength="132" x="609.5" y="171.2104">redigerNote(note:Note)</text><text fill="#000000" font-family="sans-serif" font-size="11" lengthAdjust="spacing" textLength="134" x="609.5" y="184.0151">corrigerNote(note:Note)</text><text fill="#000000" font-family="sans-serif" font-size="11" lengthAdjust="spacing" textLength="149" x="609.5" y="196.8198">approuverNote(note:Note)</text><!--MD5=[4556de3e387b66090e2bf76407348ee1]
class AbstractEtatNote--><rect codeLine="18" fill="#FEFECE" filter="url(#fqs32s9vkjeae)" height="112.0234" id="AbstractEtatNote" style="stroke:#A80036;stroke-width:1.5;" width="188" x="658" y="289"/><ellipse cx="698.2" cy="305" fill="#ADD1B2" rx="11" ry="11" style="stroke:#A80036;stroke-width:1.0;"/><path d="M700.5438,300.6719 C699.6063,300.2344 699.0125,300.0938 698.1375,300.0938 C695.5125,300.0938 693.5125,302.1719 693.5125,304.8906 L693.5125,306.0156 C693.5125,308.5938 695.6219,310.4844 698.5125,310.4844 C699.7313,310.4844 700.8875,310.1875 701.6375,309.6406 C702.2156,309.2344 702.5438,308.7813 702.5438,308.3906 C702.5438,307.9375 702.1531,307.5469 701.6844,307.5469 C701.4656,307.5469 701.2625,307.625 701.075,307.8125 C700.6219,308.2969 700.6219,308.2969 700.4344,308.3906 C700.0125,308.6563 699.325,308.7813 698.5594,308.7813 C696.5125,308.7813 695.2156,307.6875 695.2156,305.9844 L695.2156,304.8906 C695.2156,303.1094 696.4656,301.7969 698.2,301.7969 C698.7781,301.7969 699.3875,301.9531 699.8563,302.2031 C700.3406,302.4844 700.5125,302.7031 700.6063,303.1094 C700.6688,303.5156 700.7,303.6406 700.8406,303.7656 C700.9813,303.9063 701.2156,304.0156 701.4344,304.0156 C701.7,304.0156 701.9656,303.875 702.1375,303.6563 C702.2469,303.5 702.2781,303.3125 702.2781,302.8906 L702.2781,301.4688 C702.2781,301.0313 702.2625,300.9063 702.1688,300.75 C702.0125,300.4844 701.7313,300.3438 701.4344,300.3438 C701.1375,300.3438 700.9344,300.4375 700.7156,300.75 L700.5438,300.6719 Z " fill="#000000"/><text fill="#000000" font-family="sans-serif" font-size="12" lengthAdjust="spacing" textLength="100" x="717.8" y="309.1543">AbstractEtatNote</text><line style="stroke:#A80036;stroke-width:1.5;" x1="659" x2="845" y1="321" y2="321"/><line style="stroke:#A80036;stroke-width:1.5;" x1="659" x2="845" y1="329" y2="329"/><text fill="#000000" font-family="sans-serif" font-size="11" lengthAdjust="spacing" textLength="139" x="664" y="343.2104">redigerNote(note:Note){</text><text fill="#000000" font-family="sans-serif" font-size="11" lengthAdjust="spacing" textLength="168" x="672" y="356.0151">throw new Exception("xxxx");</text><text fill="#000000" font-family="sans-serif" font-size="11" lengthAdjust="spacing" textLength="7" x="664" y="368.8198">}</text><text fill="#000000" font-family="sans-serif" font-size="11" lengthAdjust="spacing" textLength="134" x="664" y="381.6245">corrigerNote(note:Note)</text><text fill="#000000" font-family="sans-serif" font-size="11" lengthAdjust="spacing" textLength="149" x="664" y="394.4292">approuverNote(note:Note)</text><path d="M365.5,332.5 L365.5,357.6328 A0,0 0 0 0 365.5,357.6328 L622.5,357.6328 A0,0 0 0 0 622.5,357.6328 L622.5,350.5 L657.838,345 L622.5,342.5 L622.5,342.5 L612.5,332.5 L365.5,332.5 A0,0 0 0 0 365.5,332.5 " fill="#FBFB77" filter="url(#fqs32s9vkjeae)" style="stroke:#A80036;stroke-width:1.0;"/><path d="M612.5,332.5 L612.5,342.5 L622.5,342.5 L612.5,332.5 " fill="#FBFB77" style="stroke:#A80036;stroke-width:1.0;"/><text fill="#000000" font-family="sans-serif" font-size="13" lengthAdjust="spacing" textLength="236" x="371.5" y="349.5669">Toute les méthodes throw Exception</text><!--MD5=[df67a5b47f2ff6adb89159ff998d6bd9]
class ARediger--><rect codeLine="25" fill="#FEFECE" filter="url(#fqs32s9vkjeae)" height="86.4141" id="ARediger" style="stroke:#A80036;stroke-width:1.5;" width="219" x="277.5" y="461"/><ellipse cx="355.25" cy="477" fill="#ADD1B2" rx="11" ry="11" style="stroke:#A80036;stroke-width:1.0;"/><path d="M357.5938,472.6719 C356.6563,472.2344 356.0625,472.0938 355.1875,472.0938 C352.5625,472.0938 350.5625,474.1719 350.5625,476.8906 L350.5625,478.0156 C350.5625,480.5938 352.6719,482.4844 355.5625,482.4844 C356.7813,482.4844 357.9375,482.1875 358.6875,481.6406 C359.2656,481.2344 359.5938,480.7813 359.5938,480.3906 C359.5938,479.9375 359.2031,479.5469 358.7344,479.5469 C358.5156,479.5469 358.3125,479.625 358.125,479.8125 C357.6719,480.2969 357.6719,480.2969 357.4844,480.3906 C357.0625,480.6563 356.375,480.7813 355.6094,480.7813 C353.5625,480.7813 352.2656,479.6875 352.2656,477.9844 L352.2656,476.8906 C352.2656,475.1094 353.5156,473.7969 355.25,473.7969 C355.8281,473.7969 356.4375,473.9531 356.9063,474.2031 C357.3906,474.4844 357.5625,474.7031 357.6563,475.1094 C357.7188,475.5156 357.75,475.6406 357.8906,475.7656 C358.0313,475.9063 358.2656,476.0156 358.4844,476.0156 C358.75,476.0156 359.0156,475.875 359.1875,475.6563 C359.2969,475.5 359.3281,475.3125 359.3281,474.8906 L359.3281,473.4688 C359.3281,473.0313 359.3125,472.9063 359.2188,472.75 C359.0625,472.4844 358.7813,472.3438 358.4844,472.3438 C358.1875,472.3438 357.9844,472.4375 357.7656,472.75 L357.5938,472.6719 Z " fill="#000000"/><text fill="#000000" font-family="sans-serif" font-size="12" lengthAdjust="spacing" textLength="55" x="375.75" y="481.1543">ARediger</text><line style="stroke:#A80036;stroke-width:1.5;" x1="278.5" x2="495.5" y1="493" y2="493"/><line style="stroke:#A80036;stroke-width:1.5;" x1="278.5" x2="495.5" y1="501" y2="501"/><text fill="#000000" font-family="sans-serif" font-size="11" lengthAdjust="spacing" textLength="139" x="283.5" y="515.2104">redigerNote(note:Note){</text><text fill="#000000" font-family="sans-serif" font-size="11" lengthAdjust="spacing" textLength="195" x="295.5" y="528.0151">note.setState(new EnRedaction());</text><text fill="#000000" font-family="sans-serif" font-size="11" lengthAdjust="spacing" textLength="7" x="283.5" y="540.8198">}</text><!--MD5=[0579041fed4ec945f7b759ed9676a764]
class EnRedaction--><rect codeLine="28" fill="#FEFECE" filter="url(#fqs32s9vkjeae)" height="86.4141" id="EnRedaction" style="stroke:#A80036;stroke-width:1.5;" width="202" x="532" y="461"/><ellipse cx="592.25" cy="477" fill="#ADD1B2" rx="11" ry="11" style="stroke:#A80036;stroke-width:1.0;"/><path d="M594.5938,472.6719 C593.6563,472.2344 593.0625,472.0938 592.1875,472.0938 C589.5625,472.0938 587.5625,474.1719 587.5625,476.8906 L587.5625,478.0156 C587.5625,480.5938 589.6719,482.4844 592.5625,482.4844 C593.7813,482.4844 594.9375,482.1875 595.6875,481.6406 C596.2656,481.2344 596.5938,480.7813 596.5938,480.3906 C596.5938,479.9375 596.2031,479.5469 595.7344,479.5469 C595.5156,479.5469 595.3125,479.625 595.125,479.8125 C594.6719,480.2969 594.6719,480.2969 594.4844,480.3906 C594.0625,480.6563 593.375,480.7813 592.6094,480.7813 C590.5625,480.7813 589.2656,479.6875 589.2656,477.9844 L589.2656,476.8906 C589.2656,475.1094 590.5156,473.7969 592.25,473.7969 C592.8281,473.7969 593.4375,473.9531 593.9063,474.2031 C594.3906,474.4844 594.5625,474.7031 594.6563,475.1094 C594.7188,475.5156 594.75,475.6406 594.8906,475.7656 C595.0313,475.9063 595.2656,476.0156 595.4844,476.0156 C595.75,476.0156 596.0156,475.875 596.1875,475.6563 C596.2969,475.5 596.3281,475.3125 596.3281,474.8906 L596.3281,473.4688 C596.3281,473.0313 596.3125,472.9063 596.2188,472.75 C596.0625,472.4844 595.7813,472.3438 595.4844,472.3438 C595.1875,472.3438 594.9844,472.4375 594.7656,472.75 L594.5938,472.6719 Z " fill="#000000"/><text fill="#000000" font-family="sans-serif" font-size="12" lengthAdjust="spacing" textLength="73" x="612.75" y="481.1543">EnRedaction</text><line style="stroke:#A80036;stroke-width:1.5;" x1="533" x2="733" y1="493" y2="493"/><line style="stroke:#A80036;stroke-width:1.5;" x1="533" x2="733" y1="501" y2="501"/><text fill="#000000" font-family="sans-serif" font-size="11" lengthAdjust="spacing" textLength="141" x="538" y="515.2104">corrigerNote(note:Note){</text><text fill="#000000" font-family="sans-serif" font-size="11" lengthAdjust="spacing" textLength="178" x="550" y="528.0151">note.setState(new ACorriger());</text><text fill="#000000" font-family="sans-serif" font-size="11" lengthAdjust="spacing" textLength="7" x="538" y="540.8198">}</text><!--MD5=[7dd075a2151a8c2acbd849e76da7966f]
class ACorriger--><rect codeLine="31" fill="#FEFECE" filter="url(#fqs32s9vkjeae)" height="86.4141" id="ACorriger" style="stroke:#A80036;stroke-width:1.5;" width="204" x="769" y="461"/><ellipse cx="837.75" cy="477" fill="#ADD1B2" rx="11" ry="11" style="stroke:#A80036;stroke-width:1.0;"/><path d="M840.0938,472.6719 C839.1563,472.2344 838.5625,472.0938 837.6875,472.0938 C835.0625,472.0938 833.0625,474.1719 833.0625,476.8906 L833.0625,478.0156 C833.0625,480.5938 835.1719,482.4844 838.0625,482.4844 C839.2813,482.4844 840.4375,482.1875 841.1875,481.6406 C841.7656,481.2344 842.0938,480.7813 842.0938,480.3906 C842.0938,479.9375 841.7031,479.5469 841.2344,479.5469 C841.0156,479.5469 840.8125,479.625 840.625,479.8125 C840.1719,480.2969 840.1719,480.2969 839.9844,480.3906 C839.5625,480.6563 838.875,480.7813 838.1094,480.7813 C836.0625,480.7813 834.7656,479.6875 834.7656,477.9844 L834.7656,476.8906 C834.7656,475.1094 836.0156,473.7969 837.75,473.7969 C838.3281,473.7969 838.9375,473.9531 839.4063,474.2031 C839.8906,474.4844 840.0625,474.7031 840.1563,475.1094 C840.2188,475.5156 840.25,475.6406 840.3906,475.7656 C840.5313,475.9063 840.7656,476.0156 840.9844,476.0156 C841.25,476.0156 841.5156,475.875 841.6875,475.6563 C841.7969,475.5 841.8281,475.3125 841.8281,474.8906 L841.8281,473.4688 C841.8281,473.0313 841.8125,472.9063 841.7188,472.75 C841.5625,472.4844 841.2813,472.3438 840.9844,472.3438 C840.6875,472.3438 840.4844,472.4375 840.2656,472.75 L840.0938,472.6719 Z " fill="#000000"/><text fill="#000000" font-family="sans-serif" font-size="12" lengthAdjust="spacing" textLength="58" x="858.25" y="481.1543">ACorriger</text><line style="stroke:#A80036;stroke-width:1.5;" x1="770" x2="972" y1="493" y2="493"/><line style="stroke:#A80036;stroke-width:1.5;" x1="770" x2="972" y1="501" y2="501"/><text fill="#000000" font-family="sans-serif" font-size="11" lengthAdjust="spacing" textLength="156" x="775" y="515.2104">approuverNote(note:Note){</text><text fill="#000000" font-family="sans-serif" font-size="11" lengthAdjust="spacing" textLength="180" x="787" y="528.0151">note.setState(new Approuve());</text><text fill="#000000" font-family="sans-serif" font-size="11" lengthAdjust="spacing" textLength="7" x="775" y="540.8198">}</text><!--MD5=[b3ce898b185c7f056a0da66d8ea6cee4]
class Approuve--><rect codeLine="34" fill="#FEFECE" filter="url(#fqs32s9vkjeae)" height="48" id="Approuve" style="stroke:#A80036;stroke-width:1.5;" width="91" x="1008.5" y="480"/><ellipse cx="1023.5" cy="496" fill="#ADD1B2" rx="11" ry="11" style="stroke:#A80036;stroke-width:1.0;"/><path d="M1025.8438,491.6719 C1024.9063,491.2344 1024.3125,491.0938 1023.4375,491.0938 C1020.8125,491.0938 1018.8125,493.1719 1018.8125,495.8906 L1018.8125,497.0156 C1018.8125,499.5938 1020.9219,501.4844 1023.8125,501.4844 C1025.0313,501.4844 1026.1875,501.1875 1026.9375,500.6406 C1027.5156,500.2344 1027.8438,499.7813 1027.8438,499.3906 C1027.8438,498.9375 1027.4531,498.5469 1026.9844,498.5469 C1026.7656,498.5469 1026.5625,498.625 1026.375,498.8125 C1025.9219,499.2969 1025.9219,499.2969 1025.7344,499.3906 C1025.3125,499.6563 1024.625,499.7813 1023.8594,499.7813 C1021.8125,499.7813 1020.5156,498.6875 1020.5156,496.9844 L1020.5156,495.8906 C1020.5156,494.1094 1021.7656,492.7969 1023.5,492.7969 C1024.0781,492.7969 1024.6875,492.9531 1025.1563,493.2031 C1025.6406,493.4844 1025.8125,493.7031 1025.9063,494.1094 C1025.9688,494.5156 1026,494.6406 1026.1406,494.7656 C1026.2813,494.9063 1026.5156,495.0156 1026.7344,495.0156 C1027,495.0156 1027.2656,494.875 1027.4375,494.6563 C1027.5469,494.5 1027.5781,494.3125 1027.5781,493.8906 L1027.5781,492.4688 C1027.5781,492.0313 1027.5625,491.9063 1027.4688,491.75 C1027.3125,491.4844 1027.0313,491.3438 1026.7344,491.3438 C1026.4375,491.3438 1026.2344,491.4375 1026.0156,491.75 L1025.8438,491.6719 Z " fill="#000000"/><text fill="#000000" font-family="sans-serif" font-size="12" lengthAdjust="spacing" textLength="59" x="1037.5" y="500.1543">Approuve</text><line style="stroke:#A80036;stroke-width:1.5;" x1="1009.5" x2="1098.5" y1="512" y2="512"/><line style="stroke:#A80036;stroke-width:1.5;" x1="1009.5" x2="1098.5" y1="520" y2="520"/><!--MD5=[196a8f551103443fe2c5ad30677373a4]
class TempTravaille--><rect codeLine="37" fill="#FEFECE" filter="url(#fqs32s9vkjeae)" height="86.4141" id="TempTravaille" style="stroke:#A80036;stroke-width:1.5;" width="116" x="214" y="302"/><ellipse cx="229" cy="318" fill="#ADD1B2" rx="11" ry="11" style="stroke:#A80036;stroke-width:1.0;"/><path d="M231.3438,313.6719 C230.4063,313.2344 229.8125,313.0938 228.9375,313.0938 C226.3125,313.0938 224.3125,315.1719 224.3125,317.8906 L224.3125,319.0156 C224.3125,321.5938 226.4219,323.4844 229.3125,323.4844 C230.5313,323.4844 231.6875,323.1875 232.4375,322.6406 C233.0156,322.2344 233.3438,321.7813 233.3438,321.3906 C233.3438,320.9375 232.9531,320.5469 232.4844,320.5469 C232.2656,320.5469 232.0625,320.625 231.875,320.8125 C231.4219,321.2969 231.4219,321.2969 231.2344,321.3906 C230.8125,321.6563 230.125,321.7813 229.3594,321.7813 C227.3125,321.7813 226.0156,320.6875 226.0156,318.9844 L226.0156,317.8906 C226.0156,316.1094 227.2656,314.7969 229,314.7969 C229.5781,314.7969 230.1875,314.9531 230.6563,315.2031 C231.1406,315.4844 231.3125,315.7031 231.4063,316.1094 C231.4688,316.5156 231.5,316.6406 231.6406,316.7656 C231.7813,316.9063 232.0156,317.0156 232.2344,317.0156 C232.5,317.0156 232.7656,316.875 232.9375,316.6563 C233.0469,316.5 233.0781,316.3125 233.0781,315.8906 L233.0781,314.4688 C233.0781,314.0313 233.0625,313.9063 232.9688,313.75 C232.8125,313.4844 232.5313,313.3438 232.2344,313.3438 C231.9375,313.3438 231.7344,313.4375 231.5156,313.75 L231.3438,313.6719 Z " fill="#000000"/><text fill="#000000" font-family="sans-serif" font-size="12" lengthAdjust="spacing" textLength="84" x="243" y="322.1543">TempTravaille</text><line style="stroke:#A80036;stroke-width:1.5;" x1="215" x2="329" y1="334" y2="334"/><text fill="#000000" font-family="sans-serif" font-size="11" lengthAdjust="spacing" textLength="93" x="220" y="348.2104">debut:DateTime</text><text fill="#000000" font-family="sans-serif" font-size="11" lengthAdjust="spacing" textLength="74" x="220" y="361.0151">fin:DateTime</text><text fill="#000000" font-family="sans-serif" font-size="11" lengthAdjust="spacing" textLength="87" x="220" y="373.8198">nomEtat: String</text><line style="stroke:#A80036;stroke-width:1.5;" x1="215" x2="329" y1="380.4141" y2="380.4141"/><!--MD5=[ed24e82c9646198fa8df27c9afdcc253]
reverse link IEtatNote to AbstractEtatNote--><path d="M706.801,222.36 C714.804,243.9 723.74,267.949 731.54,288.939 " fill="none" id="IEtatNote-backto-AbstractEtatNote" style="stroke:#A80036;stroke-width:1.0;stroke-dasharray:7.0,7.0;"/><polygon fill="none" points="700.176,224.63,699.771,203.444,713.299,219.753,700.176,224.63" style="stroke:#A80036;stroke-width:1.0;"/><!--MD5=[d4c42f16f3b864592ee90678992f4d29]
reverse link AbstractEtatNote to ARediger--><path d="M639.295,401.126 C583.279,425.939 536.833,444.896 496.388,460.9257 " fill="none" id="AbstractEtatNote-backto-ARediger" style="stroke:#A80036;stroke-width:1.0;"/><polygon fill="none" points="636.706,394.616,657.823,392.86,642.41,407.401,636.706,394.616" style="stroke:#A80036;stroke-width:1.0;"/><!--MD5=[754362158782fbc66d2c091017b436a9]
reverse link AbstractEtatNote to EnRedaction--><path d="M697.946,417.314 C686.629,432.246 675.046,447.5278 664.854,460.9736 " fill="none" id="AbstractEtatNote-backto-EnRedaction" style="stroke:#A80036;stroke-width:1.0;"/><polygon fill="none" points="692.385,413.063,710.045,401.352,703.543,421.52,692.385,413.063" style="stroke:#A80036;stroke-width:1.0;"/><!--MD5=[d69a084e9c0f59fa5f7baeca4e49f0d5]
reverse link AbstractEtatNote to ACorriger--><path d="M806.054,417.314 C817.371,432.246 828.954,447.5278 839.146,460.9736 " fill="none" id="AbstractEtatNote-backto-ACorriger" style="stroke:#A80036;stroke-width:1.0;"/><polygon fill="none" points="800.457,421.52,793.955,401.352,811.615,413.063,800.457,421.52" style="stroke:#A80036;stroke-width:1.0;"/><!--MD5=[ba8018c21226ab531f872f3850775e69]
reverse link AbstractEtatNote to Approuve--><path d="M864.285,396.072 C904.851,415.191 950.589,437.957 991,461 C1001.049,466.7301 1011.63,473.4837 1021.2,479.8799 " fill="none" id="AbstractEtatNote-backto-Approuve" style="stroke:#A80036;stroke-width:1.0;"/><polygon fill="none" points="861.209,402.361,846.049,387.557,867.132,389.676,861.209,402.361" style="stroke:#A80036;stroke-width:1.0;"/><!--MD5=[c53ff87d9646aaa9bc484d73de73a271]
link Note to IEtatNote--><path codeLine="35" d="M432.047,160 C487.458,160 542.868,160 598.279,160 " fill="none" id="Note-to-IEtatNote" style="stroke:#A80036;stroke-width:1.0;"/><polygon fill="#A80036" points="603.296,160,594.296,156,598.296,160,594.296,164,603.296,160" style="stroke:#A80036;stroke-width:1.0;"/><!--MD5=[aa2574be879af2f9d60201d631b3fc42]
link Note to TempTravaille--><path codeLine="43" d="M314.679,229.142 C306.289,251.721 297.144,276.333 289.478,296.962 " fill="none" id="Note-to-TempTravaille" style="stroke:#A80036;stroke-width:1.0;"/><polygon fill="#A80036" points="287.665,301.844,294.549,294.8006,289.4064,297.157,287.0499,292.0144,287.665,301.844" style="stroke:#A80036;stroke-width:1.0;"/><text fill="#000000" font-family="sans-serif" font-size="13" lengthAdjust="spacing" textLength="7" x="282.6038" y="290.8152">*</text><!--MD5=[8d1082629e7f262af1e465b6cec3adc7]
@startuml
note top of Note: https://docs.google.com/document/d/18s-eN0QoqREblJUihUaEC2L7f1hZF82_Jm9PjfL6BuY/edit?pli=1#
class Note{
    redigerNote(){\n   getState().redigerNote(this);\n}
    corrigerNote()
    approuverNote()
    getState():IEtatNote
    setState(IEtatNote)
}


class IEtatNote{
    redigerNote(note:Note)
    corrigerNote(note:Note)
    approuverNote(note:Note)
}

note left of AbstractEtatNote: Toute les méthodes throw Exception
class AbstractEtatNote implements IEtatNote {
    redigerNote(note:Note){\n  throw new Exception("xxxx");\n}
    corrigerNote(note:Note)
    approuverNote(note:Note)
}


class ARediger extends AbstractEtatNote{
    redigerNote(note:Note){\n   note.setState(new EnRedaction());\n}
}
class EnRedaction extends AbstractEtatNote{
    corrigerNote(note:Note){\n   note.setState(new ACorriger());\n}
} 
class ACorriger extends AbstractEtatNote{
    approuverNote(note:Note){\n   note.setState(new Approuve());\n}
}
class Approuve  extends AbstractEtatNote
Note -r-> IEtatNote

class TempTravaille {
    debut:DateTime 
    fin:DateTime 
    nomEtat: String
}

Note - -> "*" TempTravaille
@enduml

PlantUML version 1.2021.8beta3(Unknown compile time)
(GPL source distribution)
Java Runtime: Java(TM) SE Runtime Environment
JVM: Java HotSpot(TM) 64-Bit Server VM
Default Encoding: UTF-8
Language: en
Country: US
--></g></svg>