<?xml version="1.0" encoding="UTF-8" standalone="no"?><svg xmlns="http://www.w3.org/2000/svg" xmlns:xlink="http://www.w3.org/1999/xlink" contentScriptType="application/ecmascript" contentStyleType="text/css" height="611px" preserveAspectRatio="none" style="width:239px;height:611px;background:#FFFFFF;" version="1.1" viewBox="0 0 239 611" width="239px" zoomAndPan="magnify"><defs><filter height="300%" id="fllrrhvp8s5mz" width="300%" x="-1" y="-1"><feGaussianBlur result="blurOut" stdDeviation="2.0"/><feColorMatrix in="blurOut" result="blurOut2" type="matrix" values="0 0 0 0 0 0 0 0 0 0 0 0 0 0 0 0 0 0 .4 0"/><feOffset dx="4.0" dy="4.0" in="blurOut2" result="blurOut3"/><feBlend in="SourceGraphic" in2="blurOut3" mode="normal"/></filter></defs><g><ellipse cx="82.2098" cy="16" fill="#000000" filter="url(#fllrrhvp8s5mz)" rx="10" ry="10" style="stroke:none;stroke-width:1.0;"/><g id="ARediger"><rect fill="#FEFECE" filter="url(#fllrrhvp8s5mz)" height="50" rx="12.5" ry="12.5" style="stroke:#A80036;stroke-width:1.5;" width="86" x="39.2098" y="87"/><line style="stroke:#A80036;stroke-width:1.5;" x1="39.2098" x2="125.2098" y1="113.2969" y2="113.2969"/><text fill="#000000" font-family="sans-serif" font-size="14" lengthAdjust="spacing" textLength="66" x="49.2098" y="104.9951">ARediger</text></g><g id="EnRedaction"><rect fill="#FEFECE" filter="url(#fllrrhvp8s5mz)" height="50" rx="12.5" ry="12.5" style="stroke:#A80036;stroke-width:1.5;" width="111" x="26.7098" y="214"/><line style="stroke:#A80036;stroke-width:1.5;" x1="26.7098" x2="137.7098" y1="240.2969" y2="240.2969"/><text fill="#000000" font-family="sans-serif" font-size="14" lengthAdjust="spacing" textLength="91" x="36.7098" y="231.9951">EnRedaction</text></g><g id="ACorriger"><rect fill="#FEFECE" filter="url(#fllrrhvp8s5mz)" height="50" rx="12.5" ry="12.5" style="stroke:#A80036;stroke-width:1.5;" width="89" x="37.7098" y="341"/><line style="stroke:#A80036;stroke-width:1.5;" x1="37.7098" x2="126.7098" y1="367.2969" y2="367.2969"/><text fill="#000000" font-family="sans-serif" font-size="14" lengthAdjust="spacing" textLength="69" x="47.7098" y="358.9951">ACorriger</text></g><g id="Approuve"><rect fill="#FEFECE" filter="url(#fllrrhvp8s5mz)" height="50" rx="12.5" ry="12.5" style="stroke:#A80036;stroke-width:1.5;" width="90" x="37.2098" y="468"/><line style="stroke:#A80036;stroke-width:1.5;" x1="37.2098" x2="127.2098" y1="494.2969" y2="494.2969"/><text fill="#000000" font-family="sans-serif" font-size="14" lengthAdjust="spacing" textLength="70" x="47.2098" y="485.9951">Approuve</text></g><ellipse cx="82.2098" cy="589" filter="url(#fllrrhvp8s5mz)" rx="10" ry="10" style="stroke:#000000;stroke-width:1.0;fill:none;"/><ellipse cx="82.7098" cy="589.5" fill="#000000" rx="6" ry="6" style="stroke:none;stroke-width:1.0;"/><!--MD5=[010747f5bea122f9b381b589aba9ce1b]
link *start to ARediger--><path d="M82.2098,26.013 C82.2098,38.698 82.2098,62.409 82.2098,81.57 " fill="none" id="*start-to-ARediger" style="stroke:#A80036;stroke-width:1.0;"/><polygon fill="#A80036" points="82.2098,86.84,86.2098,77.84,82.2098,81.84,78.2098,77.84,82.2098,86.84" style="stroke:#A80036;stroke-width:1.0;"/><!--MD5=[a39bf7b0b839d69865f7b337f6a61ad0]
link ARediger to EnRedaction--><path d="M82.2098,137.101 C82.2098,157.593 82.2098,187.076 82.2098,208.884 " fill="none" id="ARediger-to-EnRedaction" style="stroke:#A80036;stroke-width:1.0;"/><polygon fill="#A80036" points="82.2098,213.973,86.2098,204.973,82.2098,208.973,78.2098,204.973,82.2098,213.973" style="stroke:#A80036;stroke-width:1.0;"/><text fill="#000000" font-family="sans-serif" font-size="13" lengthAdjust="spacing" textLength="85" x="83.2098" y="180.0669">redigerNote()</text><!--MD5=[02afb3bc38bf886883177060c84e09e3]
link EnRedaction to ACorriger--><path d="M39.8884,264.087 C29.5927,272.169 19.9125,282.189 14.2098,294 C6,311.003 17.5836,326.569 33.3871,338.765 " fill="none" id="EnRedaction-to-ACorriger" style="stroke:#A80036;stroke-width:1.0;"/><polygon fill="#A80036" points="37.4863,341.792,32.6217,333.2283,33.4638,338.8222,27.87,339.6642,37.4863,341.792" style="stroke:#A80036;stroke-width:1.0;"/><text fill="#000000" font-family="sans-serif" font-size="13" lengthAdjust="spacing" textLength="89" x="15.2098" y="307.0669">corrigerNote()</text><!--MD5=[b04f92450574d7bbd42f8d06bb3e1ac7]
link ACorriger to EnRedaction--><path d="M99.1595,340.855 C106.6486,327.347 112.997,310.044 109.2098,294 C107.1956,285.468 103.6154,276.746 99.7075,268.87 " fill="none" id="ACorriger-to-EnRedaction" style="stroke:#A80036;stroke-width:1.0;"/><polygon fill="#A80036" points="97.243,264.085,97.8063,273.9177,99.5317,268.5304,104.919,270.2558,97.243,264.085" style="stroke:#A80036;stroke-width:1.0;"/><text fill="#000000" font-family="sans-serif" font-size="13" lengthAdjust="spacing" textLength="120" x="111.2098" y="307.0669">réviserCorrection()</text><!--MD5=[f0924108128212b9a5d72402c5d5bb24]
link ACorriger to Approuve--><path d="M82.2098,391.101 C82.2098,411.593 82.2098,441.076 82.2098,462.884 " fill="none" id="ACorriger-to-Approuve" style="stroke:#A80036;stroke-width:1.0;"/><polygon fill="#A80036" points="82.2098,467.973,86.2098,458.973,82.2098,462.973,78.2098,458.973,82.2098,467.973" style="stroke:#A80036;stroke-width:1.0;"/><text fill="#000000" font-family="sans-serif" font-size="13" lengthAdjust="spacing" textLength="106" x="83.2098" y="434.0669">approuverNote()</text><!--MD5=[6ed21118a44a794e04d6077a74e9d271]
link Approuve to *end--><path d="M82.2098,518.2073 C82.2098,535.8423 82.2098,559.1261 82.2098,573.8351 " fill="none" id="Approuve-to-*end" style="stroke:#A80036;stroke-width:1.0;"/><polygon fill="#A80036" points="82.2098,578.8399,86.2098,569.8399,82.2098,573.8399,78.2098,569.8399,82.2098,578.8399" style="stroke:#A80036;stroke-width:1.0;"/><!--MD5=[63d5c43a881ea434d3ee00675ce8e1ac]
@startuml
[*] - -> ARediger
ARediger - -> EnRedaction: redigerNote()
EnRedaction - -> ACorriger: corrigerNote()
ACorriger - -> Approuve: approuverNote()
Approuve - ->[*]
ACorriger - -> EnRedaction: réviserCorrection()
@enduml

PlantUML version 1.2021.8beta3(Unknown compile time)
(GPL source distribution)
Java Runtime: Java(TM) SE Runtime Environment
JVM: Java HotSpot(TM) 64-Bit Server VM
Default Encoding: UTF-8
Language: en
Country: US
--></g></svg>