<?xml version="1.0" encoding="UTF-8" standalone="no"?><svg xmlns="http://www.w3.org/2000/svg" xmlns:xlink="http://www.w3.org/1999/xlink" contentScriptType="application/ecmascript" contentStyleType="text/css" height="1094px" preserveAspectRatio="none" style="width:858px;height:1094px;" version="1.1" viewBox="0 0 858 1094" width="858px" zoomAndPan="magnify"><defs><filter height="300%" id="f13fj89b1yb64j" width="300%" x="-1" y="-1"><feGaussianBlur result="blurOut" stdDeviation="2.0"/><feColorMatrix in="blurOut" result="blurOut2" type="matrix" values="0 0 0 0 0 0 0 0 0 0 0 0 0 0 0 0 0 0 .4 0"/><feOffset dx="4.0" dy="4.0" in="blurOut2" result="blurOut3"/><feBlend in="SourceGraphic" in2="blurOut3" mode="normal"/></filter></defs><g><text fill="#000000" font-family="sans-serif" font-size="18" lengthAdjust="spacing" textLength="349" x="248" y="16.708">Simplification horaire et PlageHoraire</text><!--MD5=[378b18254a1b2429f435e93f5e5cc50c]
class C--><rect codeLine="2" fill="#FEFECE" filter="url(#f13fj89b1yb64j)" height="48" id="C" style="stroke:#A80036;stroke-width:1.5;" width="122" x="443" y="345.9531"/><ellipse cx="458" cy="361.9531" fill="#ADD1B2" rx="11" ry="11" style="stroke:#A80036;stroke-width:1.0;"/><path d="M460.3438,357.625 C459.4063,357.1875 458.8125,357.0469 457.9375,357.0469 C455.3125,357.0469 453.3125,359.125 453.3125,361.8438 L453.3125,362.9688 C453.3125,365.5469 455.4219,367.4375 458.3125,367.4375 C459.5313,367.4375 460.6875,367.1406 461.4375,366.5938 C462.0156,366.1875 462.3438,365.7344 462.3438,365.3438 C462.3438,364.8906 461.9531,364.5 461.4844,364.5 C461.2656,364.5 461.0625,364.5781 460.875,364.7656 C460.4219,365.25 460.4219,365.25 460.2344,365.3438 C459.8125,365.6094 459.125,365.7344 458.3594,365.7344 C456.3125,365.7344 455.0156,364.6406 455.0156,362.9375 L455.0156,361.8438 C455.0156,360.0625 456.2656,358.75 458,358.75 C458.5781,358.75 459.1875,358.9063 459.6563,359.1563 C460.1406,359.4375 460.3125,359.6563 460.4063,360.0625 C460.4688,360.4688 460.5,360.5938 460.6406,360.7188 C460.7813,360.8594 461.0156,360.9688 461.2344,360.9688 C461.5,360.9688 461.7656,360.8281 461.9375,360.6094 C462.0469,360.4531 462.0781,360.2656 462.0781,359.8438 L462.0781,358.4219 C462.0781,357.9844 462.0625,357.8594 461.9688,357.7031 C461.8125,357.4375 461.5313,357.2969 461.2344,357.2969 C460.9375,357.2969 460.7344,357.3906 460.5156,357.7031 L460.3438,357.625 Z " fill="#000000"/><text fill="#000000" font-family="sans-serif" font-size="12" lengthAdjust="spacing" textLength="90" x="472" y="366.1074">Coordonnateur</text><line style="stroke:#A80036;stroke-width:1.5;" x1="444" x2="564" y1="377.9531" y2="377.9531"/><line style="stroke:#A80036;stroke-width:1.5;" x1="444" x2="564" y1="385.9531" y2="385.9531"/><!--MD5=[fda5e595a57073d6f9589a47950fedee]
class VS--><rect codeLine="4" fill="#FEFECE" filter="url(#f13fj89b1yb64j)" height="53.9375" id="VS" style="stroke:#A80036;stroke-width:1.5;" width="155" x="183.5" y="342.9531"/><ellipse cx="198.5" cy="361.9219" fill="#ADD1B2" rx="11" ry="11" style="stroke:#A80036;stroke-width:1.0;"/><path d="M200.8438,357.5938 C199.9063,357.1563 199.3125,357.0156 198.4375,357.0156 C195.8125,357.0156 193.8125,359.0938 193.8125,361.8125 L193.8125,362.9375 C193.8125,365.5156 195.9219,367.4063 198.8125,367.4063 C200.0313,367.4063 201.1875,367.1094 201.9375,366.5625 C202.5156,366.1563 202.8438,365.7031 202.8438,365.3125 C202.8438,364.8594 202.4531,364.4688 201.9844,364.4688 C201.7656,364.4688 201.5625,364.5469 201.375,364.7344 C200.9219,365.2188 200.9219,365.2188 200.7344,365.3125 C200.3125,365.5781 199.625,365.7031 198.8594,365.7031 C196.8125,365.7031 195.5156,364.6094 195.5156,362.9063 L195.5156,361.8125 C195.5156,360.0313 196.7656,358.7188 198.5,358.7188 C199.0781,358.7188 199.6875,358.875 200.1563,359.125 C200.6406,359.4063 200.8125,359.625 200.9063,360.0313 C200.9688,360.4375 201,360.5625 201.1406,360.6875 C201.2813,360.8281 201.5156,360.9375 201.7344,360.9375 C202,360.9375 202.2656,360.7969 202.4375,360.5781 C202.5469,360.4219 202.5781,360.2344 202.5781,359.8125 L202.5781,358.3906 C202.5781,357.9531 202.5625,357.8281 202.4688,357.6719 C202.3125,357.4063 202.0313,357.2656 201.7344,357.2656 C201.4375,357.2656 201.2344,357.3594 201.0156,357.6719 L200.8438,357.5938 Z " fill="#000000"/><text fill="#000000" font-family="sans-serif" font-size="12" lengthAdjust="spacing" textLength="123" x="212.5" y="359.0918">&lt;&lt;Service offert&gt;&gt;</text><text fill="#000000" font-family="sans-serif" font-size="12" lengthAdjust="spacing" textLength="94" x="225" y="373.0605">VisiteSupervise</text><line style="stroke:#A80036;stroke-width:1.5;" x1="184.5" x2="337.5" y1="380.8906" y2="380.8906"/><line style="stroke:#A80036;stroke-width:1.5;" x1="184.5" x2="337.5" y1="388.8906" y2="388.8906"/><!--MD5=[7372bbf51d55cfb0901280a97d9d0909]
class PS--><rect codeLine="5" fill="#FEFECE" filter="url(#f13fj89b1yb64j)" height="53.9375" id="PS" style="stroke:#A80036;stroke-width:1.5;" width="110" x="614" y="47.9531"/><ellipse cx="629" cy="66.9219" fill="#ADD1B2" rx="11" ry="11" style="stroke:#A80036;stroke-width:1.0;"/><path d="M631.3438,62.5938 C630.4063,62.1563 629.8125,62.0156 628.9375,62.0156 C626.3125,62.0156 624.3125,64.0938 624.3125,66.8125 L624.3125,67.9375 C624.3125,70.5156 626.4219,72.4063 629.3125,72.4063 C630.5313,72.4063 631.6875,72.1094 632.4375,71.5625 C633.0156,71.1563 633.3438,70.7031 633.3438,70.3125 C633.3438,69.8594 632.9531,69.4688 632.4844,69.4688 C632.2656,69.4688 632.0625,69.5469 631.875,69.7344 C631.4219,70.2188 631.4219,70.2188 631.2344,70.3125 C630.8125,70.5781 630.125,70.7031 629.3594,70.7031 C627.3125,70.7031 626.0156,69.6094 626.0156,67.9063 L626.0156,66.8125 C626.0156,65.0313 627.2656,63.7188 629,63.7188 C629.5781,63.7188 630.1875,63.875 630.6563,64.125 C631.1406,64.4063 631.3125,64.625 631.4063,65.0313 C631.4688,65.4375 631.5,65.5625 631.6406,65.6875 C631.7813,65.8281 632.0156,65.9375 632.2344,65.9375 C632.5,65.9375 632.7656,65.7969 632.9375,65.5781 C633.0469,65.4219 633.0781,65.2344 633.0781,64.8125 L633.0781,63.3906 C633.0781,62.9531 633.0625,62.8281 632.9688,62.6719 C632.8125,62.4063 632.5313,62.2656 632.2344,62.2656 C631.9375,62.2656 631.7344,62.3594 631.5156,62.6719 L631.3438,62.5938 Z " fill="#000000"/><text fill="#000000" font-family="sans-serif" font-size="12" lengthAdjust="spacing" textLength="64" x="650" y="64.0918">&lt;&lt;Lieu&gt;&gt;</text><text fill="#000000" font-family="sans-serif" font-size="12" lengthAdjust="spacing" textLength="74" x="643" y="78.0605">PointService</text><line style="stroke:#A80036;stroke-width:1.5;" x1="615" x2="723" y1="85.8906" y2="85.8906"/><line style="stroke:#A80036;stroke-width:1.5;" x1="615" x2="723" y1="93.8906" y2="93.8906"/><!--MD5=[c7caf5ef47bfcf7ce2ac54592a280705]
class H--><rect codeLine="6" fill="#FEFECE" filter="url(#f13fj89b1yb64j)" height="93.5156" id="H" style="stroke:#A80036;stroke-width:1.5;" width="141" x="98.5" y="27.9531"/><ellipse cx="113.5" cy="53.9063" fill="#ADD1B2" rx="11" ry="11" style="stroke:#A80036;stroke-width:1.0;"/><path d="M115.8438,49.5781 C114.9063,49.1406 114.3125,49 113.4375,49 C110.8125,49 108.8125,51.0781 108.8125,53.7969 L108.8125,54.9219 C108.8125,57.5 110.9219,59.3906 113.8125,59.3906 C115.0313,59.3906 116.1875,59.0938 116.9375,58.5469 C117.5156,58.1406 117.8438,57.6875 117.8438,57.2969 C117.8438,56.8438 117.4531,56.4531 116.9844,56.4531 C116.7656,56.4531 116.5625,56.5313 116.375,56.7188 C115.9219,57.2031 115.9219,57.2031 115.7344,57.2969 C115.3125,57.5625 114.625,57.6875 113.8594,57.6875 C111.8125,57.6875 110.5156,56.5938 110.5156,54.8906 L110.5156,53.7969 C110.5156,52.0156 111.7656,50.7031 113.5,50.7031 C114.0781,50.7031 114.6875,50.8594 115.1563,51.1094 C115.6406,51.3906 115.8125,51.6094 115.9063,52.0156 C115.9688,52.4219 116,52.5469 116.1406,52.6719 C116.2813,52.8125 116.5156,52.9219 116.7344,52.9219 C117,52.9219 117.2656,52.7813 117.4375,52.5625 C117.5469,52.4063 117.5781,52.2188 117.5781,51.7969 L117.5781,50.375 C117.5781,49.9375 117.5625,49.8125 117.4688,49.6563 C117.3125,49.3906 117.0313,49.25 116.7344,49.25 C116.4375,49.25 116.2344,49.3438 116.0156,49.6563 L115.8438,49.5781 Z " fill="#000000"/><text fill="#000000" font-family="sans-serif" font-size="12" lengthAdjust="spacing" textLength="90" x="137" y="44.0918">&lt;&lt;Abstract&gt;&gt;</text><text fill="#000000" font-family="sans-serif" font-size="12" lengthAdjust="spacing" textLength="109" x="127.5" y="58.0605">&lt;&lt;Planification&gt;&gt;</text><text fill="#000000" font-family="sans-serif" font-size="12" lengthAdjust="spacing" textLength="45" x="159.5" y="72.0293">Horaire</text><line style="stroke:#A80036;stroke-width:1.5;" x1="99.5" x2="238.5" y1="79.8594" y2="79.8594"/><text fill="#000000" font-family="sans-serif" font-size="11" lengthAdjust="spacing" textLength="121" x="104.5" y="94.0698">dateDebut:DateTime</text><text fill="#000000" font-family="sans-serif" font-size="11" lengthAdjust="spacing" textLength="102" x="104.5" y="106.8745">dateFin:DateTime</text><line style="stroke:#A80036;stroke-width:1.5;" x1="99.5" x2="238.5" y1="113.4688" y2="113.4688"/><!--MD5=[aa116959468819569f4ab01e6b42a7b7]
class VR--><rect codeLine="11" fill="#FEFECE" filter="url(#f13fj89b1yb64j)" height="53.9375" id="VR" style="stroke:#A80036;stroke-width:1.5;" width="179" x="171.5" y="488.9531"/><ellipse cx="186.5" cy="507.9219" fill="#ADD1B2" rx="11" ry="11" style="stroke:#A80036;stroke-width:1.0;"/><path d="M188.8438,503.5938 C187.9063,503.1563 187.3125,503.0156 186.4375,503.0156 C183.8125,503.0156 181.8125,505.0938 181.8125,507.8125 L181.8125,508.9375 C181.8125,511.5156 183.9219,513.4063 186.8125,513.4063 C188.0313,513.4063 189.1875,513.1094 189.9375,512.5625 C190.5156,512.1563 190.8438,511.7031 190.8438,511.3125 C190.8438,510.8594 190.4531,510.4688 189.9844,510.4688 C189.7656,510.4688 189.5625,510.5469 189.375,510.7344 C188.9219,511.2188 188.9219,511.2188 188.7344,511.3125 C188.3125,511.5781 187.625,511.7031 186.8594,511.7031 C184.8125,511.7031 183.5156,510.6094 183.5156,508.9063 L183.5156,507.8125 C183.5156,506.0313 184.7656,504.7188 186.5,504.7188 C187.0781,504.7188 187.6875,504.875 188.1563,505.125 C188.6406,505.4063 188.8125,505.625 188.9063,506.0313 C188.9688,506.4375 189,506.5625 189.1406,506.6875 C189.2813,506.8281 189.5156,506.9375 189.7344,506.9375 C190,506.9375 190.2656,506.7969 190.4375,506.5781 C190.5469,506.4219 190.5781,506.2344 190.5781,505.8125 L190.5781,504.3906 C190.5781,503.9531 190.5625,503.8281 190.4688,503.6719 C190.3125,503.4063 190.0313,503.2656 189.7344,503.2656 C189.4375,503.2656 189.2344,503.3594 189.0156,503.6719 L188.8438,503.5938 Z " fill="#000000"/><text fill="#000000" font-family="sans-serif" font-size="12" lengthAdjust="spacing" textLength="147" x="200.5" y="505.0918">&lt;&lt;Service demandé&gt;&gt;</text><text fill="#000000" font-family="sans-serif" font-size="12" lengthAdjust="spacing" textLength="89" x="229.5" y="519.0605">VisiteARealiser</text><line style="stroke:#A80036;stroke-width:1.5;" x1="172.5" x2="349.5" y1="526.8906" y2="526.8906"/><line style="stroke:#A80036;stroke-width:1.5;" x1="172.5" x2="349.5" y1="534.8906" y2="534.8906"/><!--MD5=[54d0f7ca6f9898010b87b67e67e7a5e0]
class E--><rect codeLine="12" fill="#FEFECE" filter="url(#f13fj89b1yb64j)" height="53.9375" id="E" style="stroke:#A80036;stroke-width:1.5;" width="99" x="600.5" y="342.9531"/><ellipse cx="615.5" cy="361.9219" fill="#ADD1B2" rx="11" ry="11" style="stroke:#A80036;stroke-width:1.0;"/><path d="M617.8438,357.5938 C616.9063,357.1563 616.3125,357.0156 615.4375,357.0156 C612.8125,357.0156 610.8125,359.0938 610.8125,361.8125 L610.8125,362.9375 C610.8125,365.5156 612.9219,367.4063 615.8125,367.4063 C617.0313,367.4063 618.1875,367.1094 618.9375,366.5625 C619.5156,366.1563 619.8438,365.7031 619.8438,365.3125 C619.8438,364.8594 619.4531,364.4688 618.9844,364.4688 C618.7656,364.4688 618.5625,364.5469 618.375,364.7344 C617.9219,365.2188 617.9219,365.2188 617.7344,365.3125 C617.3125,365.5781 616.625,365.7031 615.8594,365.7031 C613.8125,365.7031 612.5156,364.6094 612.5156,362.9063 L612.5156,361.8125 C612.5156,360.0313 613.7656,358.7188 615.5,358.7188 C616.0781,358.7188 616.6875,358.875 617.1563,359.125 C617.6406,359.4063 617.8125,359.625 617.9063,360.0313 C617.9688,360.4375 618,360.5625 618.1406,360.6875 C618.2813,360.8281 618.5156,360.9375 618.7344,360.9375 C619,360.9375 619.2656,360.7969 619.4375,360.5781 C619.5469,360.4219 619.5781,360.2344 619.5781,359.8125 L619.5781,358.3906 C619.5781,357.9531 619.5625,357.8281 619.4688,357.6719 C619.3125,357.4063 619.0313,357.2656 618.7344,357.2656 C618.4375,357.2656 618.2344,357.3594 618.0156,357.6719 L617.8438,357.5938 Z " fill="#000000"/><text fill="#000000" font-family="sans-serif" font-size="12" lengthAdjust="spacing" textLength="66" x="630" y="359.0918">&lt;&lt;Role&gt;&gt;</text><text fill="#000000" font-family="sans-serif" font-size="12" lengthAdjust="spacing" textLength="67" x="629.5" y="373.0605">Intervenant</text><line style="stroke:#A80036;stroke-width:1.5;" x1="601.5" x2="698.5" y1="380.8906" y2="380.8906"/><line style="stroke:#A80036;stroke-width:1.5;" x1="601.5" x2="698.5" y1="388.8906" y2="388.8906"/><!--MD5=[8832394f0f955ca405dbc7ff727aede1]
class L--><rect codeLine="13" fill="#FEFECE" filter="url(#f13fj89b1yb64j)" height="53.9375" id="L" style="stroke:#A80036;stroke-width:1.5;" width="96" x="281" y="205.4531"/><ellipse cx="296" cy="224.4219" fill="#ADD1B2" rx="11" ry="11" style="stroke:#A80036;stroke-width:1.0;"/><path d="M298.3438,220.0938 C297.4063,219.6563 296.8125,219.5156 295.9375,219.5156 C293.3125,219.5156 291.3125,221.5938 291.3125,224.3125 L291.3125,225.4375 C291.3125,228.0156 293.4219,229.9063 296.3125,229.9063 C297.5313,229.9063 298.6875,229.6094 299.4375,229.0625 C300.0156,228.6563 300.3438,228.2031 300.3438,227.8125 C300.3438,227.3594 299.9531,226.9688 299.4844,226.9688 C299.2656,226.9688 299.0625,227.0469 298.875,227.2344 C298.4219,227.7188 298.4219,227.7188 298.2344,227.8125 C297.8125,228.0781 297.125,228.2031 296.3594,228.2031 C294.3125,228.2031 293.0156,227.1094 293.0156,225.4063 L293.0156,224.3125 C293.0156,222.5313 294.2656,221.2188 296,221.2188 C296.5781,221.2188 297.1875,221.375 297.6563,221.625 C298.1406,221.9063 298.3125,222.125 298.4063,222.5313 C298.4688,222.9375 298.5,223.0625 298.6406,223.1875 C298.7813,223.3281 299.0156,223.4375 299.2344,223.4375 C299.5,223.4375 299.7656,223.2969 299.9375,223.0781 C300.0469,222.9219 300.0781,222.7344 300.0781,222.3125 L300.0781,220.8906 C300.0781,220.4531 300.0625,220.3281 299.9688,220.1719 C299.8125,219.9063 299.5313,219.7656 299.2344,219.7656 C298.9375,219.7656 298.7344,219.8594 298.5156,220.1719 L298.3438,220.0938 Z " fill="#000000"/><text fill="#000000" font-family="sans-serif" font-size="12" lengthAdjust="spacing" textLength="64" x="310" y="221.5918">&lt;&lt;Lieu&gt;&gt;</text><text fill="#000000" font-family="sans-serif" font-size="12" lengthAdjust="spacing" textLength="31" x="326.5" y="235.5605">Local</text><line style="stroke:#A80036;stroke-width:1.5;" x1="282" x2="376" y1="243.3906" y2="243.3906"/><line style="stroke:#A80036;stroke-width:1.5;" x1="282" x2="376" y1="251.3906" y2="251.3906"/><!--MD5=[3b33aac52bf85bcbfceea1b1d7f3c296]
class P--><rect codeLine="14" fill="#FEFECE" filter="url(#f13fj89b1yb64j)" height="53.9375" id="P" style="stroke:#A80036;stroke-width:1.5;" width="98" x="7" y="1026.9531"/><ellipse cx="22" cy="1045.9219" fill="#ADD1B2" rx="11" ry="11" style="stroke:#A80036;stroke-width:1.0;"/><path d="M24.3438,1041.5938 C23.4063,1041.1563 22.8125,1041.0156 21.9375,1041.0156 C19.3125,1041.0156 17.3125,1043.0938 17.3125,1045.8125 L17.3125,1046.9375 C17.3125,1049.5156 19.4219,1051.4063 22.3125,1051.4063 C23.5313,1051.4063 24.6875,1051.1094 25.4375,1050.5625 C26.0156,1050.1563 26.3438,1049.7031 26.3438,1049.3125 C26.3438,1048.8594 25.9531,1048.4688 25.4844,1048.4688 C25.2656,1048.4688 25.0625,1048.5469 24.875,1048.7344 C24.4219,1049.2188 24.4219,1049.2188 24.2344,1049.3125 C23.8125,1049.5781 23.125,1049.7031 22.3594,1049.7031 C20.3125,1049.7031 19.0156,1048.6094 19.0156,1046.9063 L19.0156,1045.8125 C19.0156,1044.0313 20.2656,1042.7188 22,1042.7188 C22.5781,1042.7188 23.1875,1042.875 23.6563,1043.125 C24.1406,1043.4063 24.3125,1043.625 24.4063,1044.0313 C24.4688,1044.4375 24.5,1044.5625 24.6406,1044.6875 C24.7813,1044.8281 25.0156,1044.9375 25.2344,1044.9375 C25.5,1044.9375 25.7656,1044.7969 25.9375,1044.5781 C26.0469,1044.4219 26.0781,1044.2344 26.0781,1043.8125 L26.0781,1042.3906 C26.0781,1041.9531 26.0625,1041.8281 25.9688,1041.6719 C25.8125,1041.4063 25.5313,1041.2656 25.2344,1041.2656 C24.9375,1041.2656 24.7344,1041.3594 24.5156,1041.6719 L24.3438,1041.5938 Z " fill="#000000"/><text fill="#000000" font-family="sans-serif" font-size="12" lengthAdjust="spacing" textLength="66" x="36" y="1043.0918">&lt;&lt;Role&gt;&gt;</text><text fill="#000000" font-family="sans-serif" font-size="12" lengthAdjust="spacing" textLength="37" x="50.5" y="1057.0605">Parent</text><line style="stroke:#A80036;stroke-width:1.5;" x1="8" x2="104" y1="1064.8906" y2="1064.8906"/><line style="stroke:#A80036;stroke-width:1.5;" x1="8" x2="104" y1="1072.8906" y2="1072.8906"/><!--MD5=[1ae2715697942bd221ebc3232bf48911]
class V--><rect codeLine="15" fill="#FEFECE" filter="url(#f13fj89b1yb64j)" height="53.9375" id="V" style="stroke:#A80036;stroke-width:1.5;" width="98" x="69" y="764.9531"/><ellipse cx="84" cy="783.9219" fill="#ADD1B2" rx="11" ry="11" style="stroke:#A80036;stroke-width:1.0;"/><path d="M86.3438,779.5938 C85.4063,779.1563 84.8125,779.0156 83.9375,779.0156 C81.3125,779.0156 79.3125,781.0938 79.3125,783.8125 L79.3125,784.9375 C79.3125,787.5156 81.4219,789.4063 84.3125,789.4063 C85.5313,789.4063 86.6875,789.1094 87.4375,788.5625 C88.0156,788.1563 88.3438,787.7031 88.3438,787.3125 C88.3438,786.8594 87.9531,786.4688 87.4844,786.4688 C87.2656,786.4688 87.0625,786.5469 86.875,786.7344 C86.4219,787.2188 86.4219,787.2188 86.2344,787.3125 C85.8125,787.5781 85.125,787.7031 84.3594,787.7031 C82.3125,787.7031 81.0156,786.6094 81.0156,784.9063 L81.0156,783.8125 C81.0156,782.0313 82.2656,780.7188 84,780.7188 C84.5781,780.7188 85.1875,780.875 85.6563,781.125 C86.1406,781.4063 86.3125,781.625 86.4063,782.0313 C86.4688,782.4375 86.5,782.5625 86.6406,782.6875 C86.7813,782.8281 87.0156,782.9375 87.2344,782.9375 C87.5,782.9375 87.7656,782.7969 87.9375,782.5781 C88.0469,782.4219 88.0781,782.2344 88.0781,781.8125 L88.0781,780.3906 C88.0781,779.9531 88.0625,779.8281 87.9688,779.6719 C87.8125,779.4063 87.5313,779.2656 87.2344,779.2656 C86.9375,779.2656 86.7344,779.3594 86.5156,779.6719 L86.3438,779.5938 Z " fill="#000000"/><text fill="#000000" font-family="sans-serif" font-size="12" lengthAdjust="spacing" textLength="66" x="98" y="781.0918">&lt;&lt;Role&gt;&gt;</text><text fill="#000000" font-family="sans-serif" font-size="12" lengthAdjust="spacing" textLength="45" x="108.5" y="795.0605">Visiteur</text><line style="stroke:#A80036;stroke-width:1.5;" x1="70" x2="166" y1="802.8906" y2="802.8906"/><line style="stroke:#A80036;stroke-width:1.5;" x1="70" x2="166" y1="810.8906" y2="810.8906"/><!--MD5=[557b4988ec89ca2b1f6072312f82b120]
class CH--><rect codeLine="16" fill="#FEFECE" filter="url(#f13fj89b1yb64j)" height="53.9375" id="CH" style="stroke:#A80036;stroke-width:1.5;" width="98" x="69" y="895.9531"/><ellipse cx="84" cy="914.9219" fill="#ADD1B2" rx="11" ry="11" style="stroke:#A80036;stroke-width:1.0;"/><path d="M86.3438,910.5938 C85.4063,910.1563 84.8125,910.0156 83.9375,910.0156 C81.3125,910.0156 79.3125,912.0938 79.3125,914.8125 L79.3125,915.9375 C79.3125,918.5156 81.4219,920.4063 84.3125,920.4063 C85.5313,920.4063 86.6875,920.1094 87.4375,919.5625 C88.0156,919.1563 88.3438,918.7031 88.3438,918.3125 C88.3438,917.8594 87.9531,917.4688 87.4844,917.4688 C87.2656,917.4688 87.0625,917.5469 86.875,917.7344 C86.4219,918.2188 86.4219,918.2188 86.2344,918.3125 C85.8125,918.5781 85.125,918.7031 84.3594,918.7031 C82.3125,918.7031 81.0156,917.6094 81.0156,915.9063 L81.0156,914.8125 C81.0156,913.0313 82.2656,911.7188 84,911.7188 C84.5781,911.7188 85.1875,911.875 85.6563,912.125 C86.1406,912.4063 86.3125,912.625 86.4063,913.0313 C86.4688,913.4375 86.5,913.5625 86.6406,913.6875 C86.7813,913.8281 87.0156,913.9375 87.2344,913.9375 C87.5,913.9375 87.7656,913.7969 87.9375,913.5781 C88.0469,913.4219 88.0781,913.2344 88.0781,912.8125 L88.0781,911.3906 C88.0781,910.9531 88.0625,910.8281 87.9688,910.6719 C87.8125,910.4063 87.5313,910.2656 87.2344,910.2656 C86.9375,910.2656 86.7344,910.3594 86.5156,910.6719 L86.3438,910.5938 Z " fill="#000000"/><text fill="#000000" font-family="sans-serif" font-size="12" lengthAdjust="spacing" textLength="66" x="98" y="912.0918">&lt;&lt;Role&gt;&gt;</text><text fill="#000000" font-family="sans-serif" font-size="12" lengthAdjust="spacing" textLength="36" x="113" y="926.0605">Enfant</text><line style="stroke:#A80036;stroke-width:1.5;" x1="70" x2="166" y1="933.8906" y2="933.8906"/><line style="stroke:#A80036;stroke-width:1.5;" x1="70" x2="166" y1="941.8906" y2="941.8906"/><!--MD5=[3948de7321e8f5268222a1adac03d41c]
class CL--><rect codeLine="17" fill="#FEFECE" filter="url(#f13fj89b1yb64j)" height="67.9063" id="CL" style="stroke:#A80036;stroke-width:1.5;" width="122" x="57" y="619.9531"/><ellipse cx="72" cy="645.9063" fill="#ADD1B2" rx="11" ry="11" style="stroke:#A80036;stroke-width:1.0;"/><path d="M74.3438,641.5781 C73.4063,641.1406 72.8125,641 71.9375,641 C69.3125,641 67.3125,643.0781 67.3125,645.7969 L67.3125,646.9219 C67.3125,649.5 69.4219,651.3906 72.3125,651.3906 C73.5313,651.3906 74.6875,651.0938 75.4375,650.5469 C76.0156,650.1406 76.3438,649.6875 76.3438,649.2969 C76.3438,648.8438 75.9531,648.4531 75.4844,648.4531 C75.2656,648.4531 75.0625,648.5313 74.875,648.7188 C74.4219,649.2031 74.4219,649.2031 74.2344,649.2969 C73.8125,649.5625 73.125,649.6875 72.3594,649.6875 C70.3125,649.6875 69.0156,648.5938 69.0156,646.8906 L69.0156,645.7969 C69.0156,644.0156 70.2656,642.7031 72,642.7031 C72.5781,642.7031 73.1875,642.8594 73.6563,643.1094 C74.1406,643.3906 74.3125,643.6094 74.4063,644.0156 C74.4688,644.4219 74.5,644.5469 74.6406,644.6719 C74.7813,644.8125 75.0156,644.9219 75.2344,644.9219 C75.5,644.9219 75.7656,644.7813 75.9375,644.5625 C76.0469,644.4063 76.0781,644.2188 76.0781,643.7969 L76.0781,642.375 C76.0781,641.9375 76.0625,641.8125 75.9688,641.6563 C75.8125,641.3906 75.5313,641.25 75.2344,641.25 C74.9375,641.25 74.7344,641.3438 74.5156,641.6563 L74.3438,641.5781 Z " fill="#000000"/><text fill="#000000" font-family="sans-serif" font-size="12" lengthAdjust="spacing" textLength="66" x="98" y="636.0918">&lt;&lt;Role&gt;&gt;</text><text fill="#000000" font-family="sans-serif" font-size="12" lengthAdjust="spacing" textLength="90" x="86" y="650.0605">&lt;&lt;Abstract&gt;&gt;</text><text fill="#000000" font-family="sans-serif" font-size="12" lengthAdjust="spacing" textLength="33" x="114.5" y="664.0293">Client</text><line style="stroke:#A80036;stroke-width:1.5;" x1="58" x2="178" y1="671.8594" y2="671.8594"/><line style="stroke:#A80036;stroke-width:1.5;" x1="58" x2="178" y1="679.8594" y2="679.8594"/><!--MD5=[e423b5bdce70c6eb941fb2176a750d2f]
class EMP--><rect codeLine="18" fill="#FEFECE" filter="url(#f13fj89b1yb64j)" height="66.7422" id="EMP" style="stroke:#A80036;stroke-width:1.5;" width="98" x="550" y="198.9531"/><ellipse cx="565" cy="217.9219" fill="#ADD1B2" rx="11" ry="11" style="stroke:#A80036;stroke-width:1.0;"/><path d="M567.3438,213.5938 C566.4063,213.1563 565.8125,213.0156 564.9375,213.0156 C562.3125,213.0156 560.3125,215.0938 560.3125,217.8125 L560.3125,218.9375 C560.3125,221.5156 562.4219,223.4063 565.3125,223.4063 C566.5313,223.4063 567.6875,223.1094 568.4375,222.5625 C569.0156,222.1563 569.3438,221.7031 569.3438,221.3125 C569.3438,220.8594 568.9531,220.4688 568.4844,220.4688 C568.2656,220.4688 568.0625,220.5469 567.875,220.7344 C567.4219,221.2188 567.4219,221.2188 567.2344,221.3125 C566.8125,221.5781 566.125,221.7031 565.3594,221.7031 C563.3125,221.7031 562.0156,220.6094 562.0156,218.9063 L562.0156,217.8125 C562.0156,216.0313 563.2656,214.7188 565,214.7188 C565.5781,214.7188 566.1875,214.875 566.6563,215.125 C567.1406,215.4063 567.3125,215.625 567.4063,216.0313 C567.4688,216.4375 567.5,216.5625 567.6406,216.6875 C567.7813,216.8281 568.0156,216.9375 568.2344,216.9375 C568.5,216.9375 568.7656,216.7969 568.9375,216.5781 C569.0469,216.4219 569.0781,216.2344 569.0781,215.8125 L569.0781,214.3906 C569.0781,213.9531 569.0625,213.8281 568.9688,213.6719 C568.8125,213.4063 568.5313,213.2656 568.2344,213.2656 C567.9375,213.2656 567.7344,213.3594 567.5156,213.6719 L567.3438,213.5938 Z " fill="#000000"/><text fill="#000000" font-family="sans-serif" font-size="12" lengthAdjust="spacing" textLength="66" x="579" y="215.0918">&lt;&lt;Role&gt;&gt;</text><text fill="#000000" font-family="sans-serif" font-size="12" lengthAdjust="spacing" textLength="52" x="586" y="229.0605">Employe</text><line style="stroke:#A80036;stroke-width:1.5;" x1="551" x2="647" y1="236.8906" y2="236.8906"/><text fill="#000000" font-family="sans-serif" font-size="11" lengthAdjust="spacing" textLength="80" x="556" y="251.1011">courriel: string</text><line style="stroke:#A80036;stroke-width:1.5;" x1="551" x2="647" y1="257.6953" y2="257.6953"/><!--MD5=[b3df23b1fed24f8c3b9d195413c1fe1b]
link PS to VR--><path codeLine="22" d="M687.47,102.0461 C696.36,116.1271 706.127,134.2181 711,151.9531 C739.857,256.9821 783.677,310.8251 717,396.9531 C672.541,454.3811 470.248,488.9241 350.55,504.6931 " fill="none" id="PS-VR" style="stroke:#A80036;stroke-width:1.0;"/><text fill="#000000" font-family="sans-serif" font-size="13" lengthAdjust="spacing" textLength="97" x="753" y="309.02">recoit plusieurs</text><text fill="#000000" font-family="sans-serif" font-size="13" lengthAdjust="spacing" textLength="8" x="682.8162" y="122.1352">1</text><text fill="#000000" font-family="sans-serif" font-size="13" lengthAdjust="spacing" textLength="7" x="358.5465" y="500.1562">*</text><!--MD5=[b6ea7dc281e578d57a2eccd118bd1720]
link PS to EMP--><path codeLine="23" d="M658.511,102.2021 C650.899,120.9371 640.19,146.6601 630,168.9531 C625.518,178.7571 620.406,189.2981 615.643,198.8791 " fill="none" id="PS-EMP" style="stroke:#A80036;stroke-width:1.0;"/><polygon fill="#000000" points="639.9732,165.0903,646.3263,158.013,640.953,155.6304,639.9732,165.0903" style="stroke:#000000;stroke-width:1.0;"/><text fill="#000000" font-family="sans-serif" font-size="13" lengthAdjust="spacing" textLength="51" x="651" y="165.02">emploie</text><text fill="#000000" font-family="sans-serif" font-size="13" lengthAdjust="spacing" textLength="8" x="647.3415" y="121.8917">1</text><text fill="#000000" font-family="sans-serif" font-size="13" lengthAdjust="spacing" textLength="7" x="611.2305" y="187.898">*</text><!--MD5=[c43bdc1fd52b606e1f58b1bbdd111190]
link PS to L--><path codeLine="24" d="M629.742,102.1621 C593.675,125.9541 542.643,158.8201 521,168.9531 C473.854,191.0251 416.799,208.5211 377.195,219.3221 " fill="none" id="PS-L" style="stroke:#A80036;stroke-width:1.0;"/><polygon fill="#000000" points="550.4643,162.6237,559.9062,161.4832,557.4327,156.1512,550.4643,162.6237" style="stroke:#000000;stroke-width:1.0;"/><text fill="#000000" font-family="sans-serif" font-size="13" lengthAdjust="spacing" textLength="54" x="564" y="165.02">possède</text><text fill="#000000" font-family="sans-serif" font-size="13" lengthAdjust="spacing" textLength="8" x="612.2793" y="121.843">1</text><text fill="#000000" font-family="sans-serif" font-size="13" lengthAdjust="spacing" textLength="7" x="385.1108" y="213.2449">*</text><!--MD5=[9d9b671740d724901a47c6552b6adb5d]
link VR to CL--><path codeLine="27" d="M233.428,543.1751 C210.46,565.0191 177.617,596.2541 152.833,619.8251 " fill="none" id="VR-CL" style="stroke:#A80036;stroke-width:1.0;"/><polygon fill="#000000" points="200.3769,584.9653,208.9565,580.8615,204.9058,576.6023,200.3769,584.9653" style="stroke:#000000;stroke-width:1.0;"/><text fill="#000000" font-family="sans-serif" font-size="13" lengthAdjust="spacing" textLength="53" x="213" y="586.02">est pour</text><text fill="#000000" font-family="sans-serif" font-size="13" lengthAdjust="spacing" textLength="8" x="218.5216" y="562.8588">1</text><text fill="#000000" font-family="sans-serif" font-size="13" lengthAdjust="spacing" textLength="23" x="134.2809" y="608.9783">2..*</text><!--MD5=[637f3327edd2f66d6bc8cc38e4b20b01]
link VS to H--><path codeLine="31" d="M222.111,342.8941 C198.404,324.5281 170.205,297.6161 157,265.9531 C137.726,219.7381 145.467,161.6801 154.999,121.9821 " fill="none" id="VS-H" style="stroke:#A80036;stroke-width:1.0;"/><polygon fill="#000000" points="160.5466,227.7354,160.3638,237.2442,165.9878,235.5357,160.5466,227.7354" style="stroke:#000000;stroke-width:1.0;"/><text fill="#000000" font-family="sans-serif" font-size="13" lengthAdjust="spacing" textLength="91" x="171" y="237.02">est fait durant</text><text fill="#000000" font-family="sans-serif" font-size="13" lengthAdjust="spacing" textLength="8" x="204.1929" y="331.9918">1</text><text fill="#000000" font-family="sans-serif" font-size="13" lengthAdjust="spacing" textLength="8" x="144.5801" y="141.4178">1</text><!--MD5=[5b41607cf48cb5ca283d9fdbe4eaaefa]
link VS to VR--><path codeLine="35" d="M261,397.0301 C261,422.9661 261,462.5461 261,488.5831 " fill="none" id="VS-VR" style="stroke:#A80036;stroke-width:1.0;"/><text fill="#000000" font-family="sans-serif" font-size="13" lengthAdjust="spacing" textLength="83" x="262" y="440.02">sont offertes</text><polygon fill="#000000" points="277.5,455.6523,280.4389,446.6073,274.5611,446.6073,277.5,455.6523" style="stroke:#000000;stroke-width:1.0;"/><text fill="#000000" font-family="sans-serif" font-size="13" lengthAdjust="spacing" textLength="49" x="285.5" y="455.1528">selon la</text><text fill="#000000" font-family="sans-serif" font-size="13" lengthAdjust="spacing" textLength="7" x="253.1906" y="417.1155">*</text><text fill="#000000" font-family="sans-serif" font-size="13" lengthAdjust="spacing" textLength="8" x="252.125" y="478.0436">1</text><!--MD5=[946f3a7a06697e18035d1f14111d9b68]
link VS to E--><path codeLine="36" d="M301.228,342.9421 C324.593,328.8971 355.22,313.1851 385,305.9531 C439.418,292.7381 456.298,293.9651 511,305.9531 C543.828,313.1481 578.153,328.8591 604.48,342.9141 " fill="none" id="VS-E" style="stroke:#A80036;stroke-width:1.0;"/><polygon fill="#000000" points="395,304.5191,385.9546,301.581,385.9552,307.4588,395,304.5191" style="stroke:#000000;stroke-width:1.0;"/><text fill="#000000" font-family="sans-serif" font-size="13" lengthAdjust="spacing" textLength="111" x="399" y="309.02">est supervisé par</text><text fill="#000000" font-family="sans-serif" font-size="13" lengthAdjust="spacing" textLength="7" x="302.7214" y="332.0509">*</text><text fill="#000000" font-family="sans-serif" font-size="13" lengthAdjust="spacing" textLength="8" x="585.0285" y="332.0165">1</text><!--MD5=[a1339849c2fb1cb81b3996804970707c]
link L to VS--><path codeLine="37" d="M289.203,259.5551 C277.566,269.4341 266.29,281.7691 260,295.9531 C253.526,310.5521 253.667,328.4641 255.48,342.8921 " fill="none" id="L-VS" style="stroke:#A80036;stroke-width:1.0;"/><polygon fill="#000000" points="266.8756,299.8846,260.7583,307.1668,266.207,309.3717,266.8756,299.8846" style="stroke:#000000;stroke-width:1.0;"/><text fill="#000000" font-family="sans-serif" font-size="13" lengthAdjust="spacing" textLength="102" x="274" y="309.02">se déroule dans</text><text fill="#000000" font-family="sans-serif" font-size="13" lengthAdjust="spacing" textLength="8" x="271.0749" y="279.6463">1</text><text fill="#000000" font-family="sans-serif" font-size="13" lengthAdjust="spacing" textLength="8" x="245.2785" y="331.9894">1</text><!--MD5=[353d58c24978b3323a8ee6d288f05270]
link CH to P--><path codeLine="38" d="M105.4534,950.0581 C94.6967,972.4391 79.2793,1004.5172 68.528,1026.8868 " fill="none" id="CH-P" style="stroke:#A80036;stroke-width:1.0;"/><polygon fill="#000000" points="93.8341,993.0261,100.4011,986.1468,95.1034,983.6006,93.8341,993.0261" style="stroke:#000000;stroke-width:1.0;"/><text fill="#000000" font-family="sans-serif" font-size="13" lengthAdjust="spacing" textLength="92" x="105" y="993.02">est l'enfant de</text><text fill="#000000" font-family="sans-serif" font-size="13" lengthAdjust="spacing" textLength="8" x="93.627" y="970.15">1</text><text fill="#000000" font-family="sans-serif" font-size="13" lengthAdjust="spacing" textLength="7" x="63.6157" y="1015.9828">*</text><!--MD5=[2d1c1a3e1d04e615a34e02947ac67661]
link H to CL--><path codeLine="44" d="M109.472,122.2611 C80.5685,150.2451 52,188.7151 52,231.4531 C52,231.4531 52,231.4531 52,516.9531 C52,555.0081 73.1739,593.5841 91.5356,619.8831 " fill="none" id="H-CL" style="stroke:#A80036;stroke-width:1.0;"/><text fill="#000000" font-family="sans-serif" font-size="13" lengthAdjust="spacing" textLength="88" x="53" y="367.02">est disponible</text><polygon fill="#000000" points="78.6801,372.6556,75.4173,381.5889,81.2913,381.8007,78.6801,372.6556" style="stroke:#000000;stroke-width:1.0;"/><text fill="#000000" font-family="sans-serif" font-size="13" lengthAdjust="spacing" textLength="34" x="86.5" y="382.1528">selon</text><text fill="#000000" font-family="sans-serif" font-size="13" lengthAdjust="spacing" textLength="7" x="94.3962" y="141.3898">*</text><text fill="#000000" font-family="sans-serif" font-size="13" lengthAdjust="spacing" textLength="8" x="77.5379" y="608.7882">1</text><!--MD5=[39217f508beb6b33488b093ba4969edb]
link H to EMP--><path codeLine="45" d="M239.814,106.0981 C270.798,119.6281 307.434,136.0901 340,151.9531 C354.478,159.0051 357.035,163.0021 372,168.9531 C431.443,192.5921 503.043,210.6871 549.72,221.1811 " fill="none" id="H-EMP" style="stroke:#A80036;stroke-width:1.0;"/><polygon fill="#000000" points="372.3128,158.7789,379.769,164.6828,381.8152,159.1726,372.3128,158.7789" style="stroke:#000000;stroke-width:1.0;"/><text fill="#000000" font-family="sans-serif" font-size="13" lengthAdjust="spacing" textLength="126" x="386" y="165.02">est disponible selon</text><text fill="#000000" font-family="sans-serif" font-size="13" lengthAdjust="spacing" textLength="7" x="247.4776" y="105.6352">*</text><text fill="#000000" font-family="sans-serif" font-size="13" lengthAdjust="spacing" textLength="8" x="533.8945" y="215.5196">1</text><!--MD5=[16da8eac73402540b4b0310adbecacd2]
link H to L--><path codeLine="46" d="M173.897,122.2691 C177.564,138.5001 183.938,155.9131 195,168.9531 C198.114,172.6231 243.584,193.4501 280.705,210.0681 " fill="none" id="H-L" style="stroke:#A80036;stroke-width:1.0;"/><polygon fill="#000000" points="196.1375,157.3445,201.2586,165.3585,204.9911,160.8179,196.1375,157.3445" style="stroke:#000000;stroke-width:1.0;"/><text fill="#000000" font-family="sans-serif" font-size="13" lengthAdjust="spacing" textLength="126" x="209" y="165.02">est disponible selon</text><text fill="#000000" font-family="sans-serif" font-size="13" lengthAdjust="spacing" textLength="7" x="167.076" y="141.3989">*</text><text fill="#000000" font-family="sans-serif" font-size="13" lengthAdjust="spacing" textLength="8" x="265.0242" y="202.76">1</text><!--MD5=[9ced6c9454d7795937d9ff8c41b39b5b]
reverse link CL to CH--><path codeLine="47" d="M178.833,701.4441 C227.615,744.5751 282.397,810.3011 246,865.9531 C228.608,892.5461 195.498,906.5871 167.311,913.9581 " fill="none" id="CL-backto-CH" style="stroke:#A80036;stroke-width:1.0;"/><polygon fill="none" points="174.041,706.5591,163.328,688.2761,183.104,695.8881,174.041,706.5591" style="stroke:#A80036;stroke-width:1.0;"/><text fill="#000000" font-family="sans-serif" font-size="13" lengthAdjust="spacing" textLength="40" x="259" y="796.52">est un</text><!--MD5=[0fe5364dfad4e2312a14cbf028e401a4]
reverse link CL to P--><path codeLine="48" d="M79.526,705.0991 C68.0115,723.0041 56.8895,743.9621 51,764.9531 C24.7925,858.3611 41.1771,975.5901 50.6506,1026.8941 " fill="none" id="CL-backto-P" style="stroke:#A80036;stroke-width:1.0;"/><polygon fill="none" points="73.9272,700.8851,90.992,688.3241,85.4854,708.7851,73.9272,700.8851" style="stroke:#A80036;stroke-width:1.0;"/><text fill="#000000" font-family="sans-serif" font-size="13" lengthAdjust="spacing" textLength="40" x="39" y="862.02">est un</text><!--MD5=[d9af5b1966f97b371f89f9cdcf86baa9]
reverse link CL to V--><path codeLine="49" d="M118,708.3161 C118,727.7331 118,748.8211 118,764.8341 " fill="none" id="CL-backto-V" style="stroke:#A80036;stroke-width:1.0;"/><polygon fill="none" points="111,708.2221,118,688.2221,125,708.2221,111,708.2221" style="stroke:#A80036;stroke-width:1.0;"/><text fill="#000000" font-family="sans-serif" font-size="13" lengthAdjust="spacing" textLength="40" x="119" y="731.02">est un</text><!--MD5=[63374531cc527740cb6ec90ace502e29]
link V to CH--><path codeLine="50" d="M110.598,819.2291 C108.323,828.5371 106.1245,839.1361 105,848.9531 C103.2127,864.5561 106.0814,881.8671 109.574,895.7141 " fill="none" id="V-CH" style="stroke:#A80036;stroke-width:1.0;"/><polygon fill="#000000" points="110.0669,852.52,107.0072,861.5249,112.8845,861.6036,110.0669,852.52" style="stroke:#000000;stroke-width:1.0;"/><text fill="#000000" font-family="sans-serif" font-size="13" lengthAdjust="spacing" textLength="122" x="119" y="862.02">peut etre visité par</text><text fill="#000000" font-family="sans-serif" font-size="13" lengthAdjust="spacing" textLength="7" x="101.2127" y="838.9246">*</text><text fill="#000000" font-family="sans-serif" font-size="13" lengthAdjust="spacing" textLength="8" x="98.7007" y="884.7702">1</text><!--MD5=[6ca46dfb720ca5dc57503eedfeee4cb7]
reverse link EMP to E--><path codeLine="51" d="M618.423,285.0571 C625.844,304.7741 633.994,326.4281 640.155,342.7971 " fill="none" id="EMP-backto-E" style="stroke:#A80036;stroke-width:1.0;"/><polygon fill="none" points="611.84,287.4381,611.346,266.2541,624.942,282.5061,611.84,287.4381" style="stroke:#A80036;stroke-width:1.0;"/><polygon fill="#000000" points="631.2387,299.84,631.6743,309.3406,637.1754,307.2701,631.2387,299.84" style="stroke:#000000;stroke-width:1.0;"/><text fill="#000000" font-family="sans-serif" font-size="13" lengthAdjust="spacing" textLength="40" x="642" y="309.02">est un</text><!--MD5=[2c480e515006da9ecb01e17bdd1c2455]
reverse link EMP to C--><path codeLine="52" d="M564.429,282.7621 C549.332,304.2951 532.349,328.5191 520.24,345.7901 " fill="none" id="EMP-backto-C" style="stroke:#A80036;stroke-width:1.0;"/><polygon fill="none" points="558.79,278.6111,576.003,266.2541,570.253,286.6481,558.79,278.6111" style="stroke:#A80036;stroke-width:1.0;"/><polygon fill="#000000" points="562.8703,300.4255,555.2714,306.1445,560.0843,309.5188,562.8703,300.4255" style="stroke:#000000;stroke-width:1.0;"/><text fill="#000000" font-family="sans-serif" font-size="13" lengthAdjust="spacing" textLength="40" x="569" y="309.02">est un</text><!--MD5=[ea6814ca65383a19d381fdb453107451]
link VS to C--><path codeLine="53" d="M338.555,369.9531 C372.307,369.9531 411.288,369.9531 442.932,369.9531 " fill="none" id="VS-C" style="stroke:#A80036;stroke-width:1.0;"/><polygon fill="#000000" points="355.75,358.5195,364.7951,361.4585,364.7951,355.5806,355.75,358.5195" style="stroke:#000000;stroke-width:1.0;"/><text fill="#000000" font-family="sans-serif" font-size="13" lengthAdjust="spacing" textLength="55" x="369.75" y="363.02">organise</text><text fill="#000000" font-family="sans-serif" font-size="13" lengthAdjust="spacing" textLength="7" x="346.5339" y="366.2914">*</text><text fill="#000000" font-family="sans-serif" font-size="13" lengthAdjust="spacing" textLength="8" x="427.0018" y="366.1141">1</text><!--MD5=[9acaffa9ed714cf005efa00f8faef5f4]
@startuml
title Simplification horaire et PlageHoraire
class "Coordonnateur" as C {
}
class "<<Service offert>>\nVisiteSupervise " as VS 
class "<<Lieu>>\nPointService " as PS 
class "<<Abstract>>\n<<Planification>>\nHoraire" as H {
    dateDebut:DateTime 
    dateFin:DateTime
}

class "<<Service demandé>>\nVisiteARealiser" as VR 
class "<<Role>>\nIntervenant" as E 
class "<<Lieu>>\nLocal" as L 
class "<<Role>>\nParent" as P 
class "<<Role>>\nVisiteur" as V 
class "<<Role>>\nEnfant" as CH
class "<<Role>>\n<<Abstract>>\nClient" as CL
class "<<Role>>\nEmploye" as EMP{
    courriel: string
}

PS "1" - - "*" VR: recoit plusieurs
PS "1" - - "*" EMP: emploie >
PS  "1" - - "*" L: possède >


VR "1" - - "2..*" CL: est pour >

'VR "1" - - "*" V: est pour
'VR "1" - - "*" CH: est pour
VS "1" - - "1" H: est fait durant >

'VS "*" - - "2..*" CL: offre un service a >

VS "*" - - "1" VR: sont offertes\nselon la >
VS "*" -r- "1" E: est supervisé par >
VS "1" -u- "1" L: se déroule dans >
CH "1" - - "*" P : est l'enfant de >

'VS "*" -d- "1..*" V: offre un service aux
'VS "*" -d- "1..*" CH: est pour
'C "1" - - "*" VS: organise >

CL "1" -u- "*" H : est disponible\nselon <
EMP "1" -u- "*" H: est disponible selon >
L "1" -u- "*" H : est disponible selon >
CH -u-|> CL : est un
P -u-|> CL : est un
V -u-|> CL: est un
V "*" - - "1" CH : peut etre visité par <
EMP <|- - E: est un <
EMP <|-d- C: est un <
VS "*" -r- "1" C: organise <
@enduml

@startuml
title Simplification horaire et PlageHoraire
class "Coordonnateur" as C {
}
class "<<Service offert>>\nVisiteSupervise " as VS 
class "<<Lieu>>\nPointService " as PS 
class "<<Abstract>>\n<<Planification>>\nHoraire" as H {
    dateDebut:DateTime 
    dateFin:DateTime
}

class "<<Service demandé>>\nVisiteARealiser" as VR 
class "<<Role>>\nIntervenant" as E 
class "<<Lieu>>\nLocal" as L 
class "<<Role>>\nParent" as P 
class "<<Role>>\nVisiteur" as V 
class "<<Role>>\nEnfant" as CH
class "<<Role>>\n<<Abstract>>\nClient" as CL
class "<<Role>>\nEmploye" as EMP{
    courriel: string
}

PS "1" - - "*" VR: recoit plusieurs
PS "1" - - "*" EMP: emploie >
PS  "1" - - "*" L: possède >


VR "1" - - "2..*" CL: est pour >

VS "1" - - "1" H: est fait durant >


VS "*" - - "1" VR: sont offertes\nselon la >
VS "*" -r- "1" E: est supervisé par >
VS "1" -u- "1" L: se déroule dans >
CH "1" - - "*" P : est l'enfant de >


CL "1" -u- "*" H : est disponible\nselon <
EMP "1" -u- "*" H: est disponible selon >
L "1" -u- "*" H : est disponible selon >
CH -u-|> CL : est un
P -u-|> CL : est un
V -u-|> CL: est un
V "*" - - "1" CH : peut etre visité par <
EMP <|- - E: est un <
EMP <|-d- C: est un <
VS "*" -r- "1" C: organise <
@enduml

PlantUML version 1.2021.2beta6(Unknown compile time)
(GPL source distribution)
Java Runtime: Java(TM) SE Runtime Environment
JVM: Java HotSpot(TM) 64-Bit Server VM
Default Encoding: UTF-8
Language: en
Country: US
--></g></svg>