<?xml version="1.0" encoding="UTF-8" standalone="no"?><svg xmlns="http://www.w3.org/2000/svg" xmlns:xlink="http://www.w3.org/1999/xlink" contentScriptType="application/ecmascript" contentStyleType="text/css" height="988px" preserveAspectRatio="none" style="width:1501px;height:988px;" version="1.1" viewBox="0 0 1501 988" width="1501px" zoomAndPan="magnify"><defs><filter height="300%" id="f199u7ug4n8vaw" width="300%" x="-1" y="-1"><feGaussianBlur result="blurOut" stdDeviation="2.0"/><feColorMatrix in="blurOut" result="blurOut2" type="matrix" values="0 0 0 0 0 0 0 0 0 0 0 0 0 0 0 0 0 0 .4 0"/><feOffset dx="4.0" dy="4.0" in="blurOut2" result="blurOut3"/><feBlend in="SourceGraphic" in2="blurOut3" mode="normal"/></filter></defs><g><text fill="#000000" font-family="sans-serif" font-size="18" lengthAdjust="spacing" textLength="227" x="630.8351" y="16.708">Ébauche initiale du MDD</text><!--MD5=[378b18254a1b2429f435e93f5e5cc50c]
class C--><rect codeLine="2" fill="#FEFECE" filter="url(#f199u7ug4n8vaw)" height="48" id="C" style="stroke:#A80036;stroke-width:1.5;" width="122" x="401.6703" y="27.9531"/><ellipse cx="416.6703" cy="43.9531" fill="#ADD1B2" rx="11" ry="11" style="stroke:#A80036;stroke-width:1.0;"/><path d="M419.014,39.625 C418.0765,39.1875 417.4828,39.0469 416.6078,39.0469 C413.9828,39.0469 411.9828,41.125 411.9828,43.8438 L411.9828,44.9688 C411.9828,47.5469 414.0921,49.4375 416.9828,49.4375 C418.2015,49.4375 419.3578,49.1406 420.1078,48.5938 C420.6859,48.1875 421.014,47.7344 421.014,47.3438 C421.014,46.8906 420.6234,46.5 420.1546,46.5 C419.9359,46.5 419.7328,46.5781 419.5453,46.7656 C419.0921,47.25 419.0921,47.25 418.9046,47.3438 C418.4828,47.6094 417.7953,47.7344 417.0296,47.7344 C414.9828,47.7344 413.6859,46.6406 413.6859,44.9375 L413.6859,43.8438 C413.6859,42.0625 414.9359,40.75 416.6703,40.75 C417.2484,40.75 417.8578,40.9063 418.3265,41.1563 C418.8109,41.4375 418.9828,41.6563 419.0765,42.0625 C419.139,42.4688 419.1703,42.5938 419.3109,42.7188 C419.4515,42.8594 419.6859,42.9688 419.9046,42.9688 C420.1703,42.9688 420.4359,42.8281 420.6078,42.6094 C420.7171,42.4531 420.7484,42.2656 420.7484,41.8438 L420.7484,40.4219 C420.7484,39.9844 420.7328,39.8594 420.639,39.7031 C420.4828,39.4375 420.2015,39.2969 419.9046,39.2969 C419.6078,39.2969 419.4046,39.3906 419.1859,39.7031 L419.014,39.625 Z " fill="#000000"/><text fill="#000000" font-family="sans-serif" font-size="12" lengthAdjust="spacing" textLength="90" x="430.6703" y="48.1074">Coordonnateur</text><line style="stroke:#A80036;stroke-width:1.5;" x1="402.6703" x2="522.6703" y1="59.9531" y2="59.9531"/><line style="stroke:#A80036;stroke-width:1.5;" x1="402.6703" x2="522.6703" y1="67.9531" y2="67.9531"/><!--MD5=[fda5e595a57073d6f9589a47950fedee]
class VS--><rect codeLine="5" fill="#FEFECE" filter="url(#f199u7ug4n8vaw)" height="53.9375" id="VS" style="stroke:#A80036;stroke-width:1.5;" width="130" x="702.6703" y="152.9531"/><ellipse cx="717.6703" cy="171.9219" fill="#ADD1B2" rx="11" ry="11" style="stroke:#A80036;stroke-width:1.0;"/><path d="M720.014,167.5938 C719.0765,167.1563 718.4828,167.0156 717.6078,167.0156 C714.9828,167.0156 712.9828,169.0938 712.9828,171.8125 L712.9828,172.9375 C712.9828,175.5156 715.0921,177.4063 717.9828,177.4063 C719.2015,177.4063 720.3578,177.1094 721.1078,176.5625 C721.6859,176.1563 722.014,175.7031 722.014,175.3125 C722.014,174.8594 721.6234,174.4688 721.1546,174.4688 C720.9359,174.4688 720.7328,174.5469 720.5453,174.7344 C720.0921,175.2188 720.0921,175.2188 719.9046,175.3125 C719.4828,175.5781 718.7953,175.7031 718.0296,175.7031 C715.9828,175.7031 714.6859,174.6094 714.6859,172.9063 L714.6859,171.8125 C714.6859,170.0313 715.9359,168.7188 717.6703,168.7188 C718.2484,168.7188 718.8578,168.875 719.3265,169.125 C719.8109,169.4063 719.9828,169.625 720.0765,170.0313 C720.139,170.4375 720.1703,170.5625 720.3109,170.6875 C720.4515,170.8281 720.6859,170.9375 720.9046,170.9375 C721.1703,170.9375 721.4359,170.7969 721.6078,170.5781 C721.7171,170.4219 721.7484,170.2344 721.7484,169.8125 L721.7484,168.3906 C721.7484,167.9531 721.7328,167.8281 721.639,167.6719 C721.4828,167.4063 721.2015,167.2656 720.9046,167.2656 C720.6078,167.2656 720.4046,167.3594 720.1859,167.6719 L720.014,167.5938 Z " fill="#000000"/><text fill="#000000" font-family="sans-serif" font-size="12" lengthAdjust="spacing" textLength="86" x="737.6703" y="169.0918">&lt;&lt;Service&gt;&gt;</text><text fill="#000000" font-family="sans-serif" font-size="12" lengthAdjust="spacing" textLength="94" x="731.6703" y="183.0605">VisiteSupervise</text><line style="stroke:#A80036;stroke-width:1.5;" x1="703.6703" x2="831.6703" y1="190.8906" y2="190.8906"/><line style="stroke:#A80036;stroke-width:1.5;" x1="703.6703" x2="831.6703" y1="198.8906" y2="198.8906"/><!--MD5=[7372bbf51d55cfb0901280a97d9d0909]
class PS--><rect codeLine="6" fill="#FEFECE" filter="url(#f199u7ug4n8vaw)" height="53.9375" id="PS" style="stroke:#A80036;stroke-width:1.5;" width="110" x="156.6703" y="152.9531"/><ellipse cx="171.6703" cy="171.9219" fill="#ADD1B2" rx="11" ry="11" style="stroke:#A80036;stroke-width:1.0;"/><path d="M174.014,167.5938 C173.0765,167.1563 172.4828,167.0156 171.6078,167.0156 C168.9828,167.0156 166.9828,169.0938 166.9828,171.8125 L166.9828,172.9375 C166.9828,175.5156 169.0921,177.4063 171.9828,177.4063 C173.2015,177.4063 174.3578,177.1094 175.1078,176.5625 C175.6859,176.1563 176.014,175.7031 176.014,175.3125 C176.014,174.8594 175.6234,174.4688 175.1546,174.4688 C174.9359,174.4688 174.7328,174.5469 174.5453,174.7344 C174.0921,175.2188 174.0921,175.2188 173.9046,175.3125 C173.4828,175.5781 172.7953,175.7031 172.0296,175.7031 C169.9828,175.7031 168.6859,174.6094 168.6859,172.9063 L168.6859,171.8125 C168.6859,170.0313 169.9359,168.7188 171.6703,168.7188 C172.2484,168.7188 172.8578,168.875 173.3265,169.125 C173.8109,169.4063 173.9828,169.625 174.0765,170.0313 C174.139,170.4375 174.1703,170.5625 174.3109,170.6875 C174.4515,170.8281 174.6859,170.9375 174.9046,170.9375 C175.1703,170.9375 175.4359,170.7969 175.6078,170.5781 C175.7171,170.4219 175.7484,170.2344 175.7484,169.8125 L175.7484,168.3906 C175.7484,167.9531 175.7328,167.8281 175.639,167.6719 C175.4828,167.4063 175.2015,167.2656 174.9046,167.2656 C174.6078,167.2656 174.4046,167.3594 174.1859,167.6719 L174.014,167.5938 Z " fill="#000000"/><text fill="#000000" font-family="sans-serif" font-size="12" lengthAdjust="spacing" textLength="64" x="192.6703" y="169.0918">&lt;&lt;Lieu&gt;&gt;</text><text fill="#000000" font-family="sans-serif" font-size="12" lengthAdjust="spacing" textLength="74" x="185.6703" y="183.0605">PointService</text><line style="stroke:#A80036;stroke-width:1.5;" x1="157.6703" x2="265.6703" y1="190.8906" y2="190.8906"/><line style="stroke:#A80036;stroke-width:1.5;" x1="157.6703" x2="265.6703" y1="198.8906" y2="198.8906"/><!--MD5=[c7caf5ef47bfcf7ce2ac54592a280705]
class H--><rect codeLine="7" fill="#FEFECE" filter="url(#f199u7ug4n8vaw)" height="67.9063" id="H" style="stroke:#A80036;stroke-width:1.5;" width="141" x="634.1703" y="760.9531"/><ellipse cx="649.1703" cy="786.9063" fill="#ADD1B2" rx="11" ry="11" style="stroke:#A80036;stroke-width:1.0;"/><path d="M651.514,782.5781 C650.5765,782.1406 649.9828,782 649.1078,782 C646.4828,782 644.4828,784.0781 644.4828,786.7969 L644.4828,787.9219 C644.4828,790.5 646.5921,792.3906 649.4828,792.3906 C650.7015,792.3906 651.8578,792.0938 652.6078,791.5469 C653.1859,791.1406 653.514,790.6875 653.514,790.2969 C653.514,789.8438 653.1234,789.4531 652.6546,789.4531 C652.4359,789.4531 652.2328,789.5313 652.0453,789.7188 C651.5921,790.2031 651.5921,790.2031 651.4046,790.2969 C650.9828,790.5625 650.2953,790.6875 649.5296,790.6875 C647.4828,790.6875 646.1859,789.5938 646.1859,787.8906 L646.1859,786.7969 C646.1859,785.0156 647.4359,783.7031 649.1703,783.7031 C649.7484,783.7031 650.3578,783.8594 650.8265,784.1094 C651.3109,784.3906 651.4828,784.6094 651.5765,785.0156 C651.639,785.4219 651.6703,785.5469 651.8109,785.6719 C651.9515,785.8125 652.1859,785.9219 652.4046,785.9219 C652.6703,785.9219 652.9359,785.7813 653.1078,785.5625 C653.2171,785.4063 653.2484,785.2188 653.2484,784.7969 L653.2484,783.375 C653.2484,782.9375 653.2328,782.8125 653.139,782.6563 C652.9828,782.3906 652.7015,782.25 652.4046,782.25 C652.1078,782.25 651.9046,782.3438 651.6859,782.6563 L651.514,782.5781 Z " fill="#000000"/><text fill="#000000" font-family="sans-serif" font-size="12" lengthAdjust="spacing" textLength="90" x="672.6703" y="777.0918">&lt;&lt;Abstract&gt;&gt;</text><text fill="#000000" font-family="sans-serif" font-size="12" lengthAdjust="spacing" textLength="109" x="663.1703" y="791.0605">&lt;&lt;Planification&gt;&gt;</text><text fill="#000000" font-family="sans-serif" font-size="12" lengthAdjust="spacing" textLength="45" x="695.1703" y="805.0293">Horaire</text><line style="stroke:#A80036;stroke-width:1.5;" x1="635.1703" x2="774.1703" y1="812.8594" y2="812.8594"/><line style="stroke:#A80036;stroke-width:1.5;" x1="635.1703" x2="774.1703" y1="820.8594" y2="820.8594"/><!--MD5=[47cc33c214268213a11c28dd4581a698]
class PH--><rect codeLine="8" fill="#FEFECE" filter="url(#f199u7ug4n8vaw)" height="86.4141" id="PH" style="stroke:#A80036;stroke-width:1.5;" width="151" x="1035.1703" y="367.9531"/><ellipse cx="1069.0703" cy="383.9531" fill="#ADD1B2" rx="11" ry="11" style="stroke:#A80036;stroke-width:1.0;"/><path d="M1071.414,379.625 C1070.4765,379.1875 1069.8828,379.0469 1069.0078,379.0469 C1066.3828,379.0469 1064.3828,381.125 1064.3828,383.8438 L1064.3828,384.9688 C1064.3828,387.5469 1066.4921,389.4375 1069.3828,389.4375 C1070.6015,389.4375 1071.7578,389.1406 1072.5078,388.5938 C1073.0859,388.1875 1073.414,387.7344 1073.414,387.3438 C1073.414,386.8906 1073.0234,386.5 1072.5546,386.5 C1072.3359,386.5 1072.1328,386.5781 1071.9453,386.7656 C1071.4921,387.25 1071.4921,387.25 1071.3046,387.3438 C1070.8828,387.6094 1070.1953,387.7344 1069.4296,387.7344 C1067.3828,387.7344 1066.0859,386.6406 1066.0859,384.9375 L1066.0859,383.8438 C1066.0859,382.0625 1067.3359,380.75 1069.0703,380.75 C1069.6484,380.75 1070.2578,380.9063 1070.7265,381.1563 C1071.2109,381.4375 1071.3828,381.6563 1071.4765,382.0625 C1071.539,382.4688 1071.5703,382.5938 1071.7109,382.7188 C1071.8515,382.8594 1072.0859,382.9688 1072.3046,382.9688 C1072.5703,382.9688 1072.8359,382.8281 1073.0078,382.6094 C1073.1171,382.4531 1073.1484,382.2656 1073.1484,381.8438 L1073.1484,380.4219 C1073.1484,379.9844 1073.1328,379.8594 1073.039,379.7031 C1072.8828,379.4375 1072.6015,379.2969 1072.3046,379.2969 C1072.0078,379.2969 1071.8046,379.3906 1071.5859,379.7031 L1071.414,379.625 Z " fill="#000000"/><text fill="#000000" font-family="sans-serif" font-size="12" lengthAdjust="spacing" textLength="77" x="1087.2703" y="388.1074">PlageHoraire</text><line style="stroke:#A80036;stroke-width:1.5;" x1="1036.1703" x2="1185.1703" y1="399.9531" y2="399.9531"/><text fill="#000000" font-family="sans-serif" font-size="11" lengthAdjust="spacing" textLength="121" x="1041.1703" y="414.1636">dateDebut:DateTime</text><text fill="#000000" font-family="sans-serif" font-size="11" lengthAdjust="spacing" textLength="102" x="1041.1703" y="426.9683">dateFin:DateTime</text><text fill="#000000" font-family="sans-serif" font-size="11" lengthAdjust="spacing" textLength="139" x="1041.1703" y="439.7729">visiteSupervise:Boolean</text><line style="stroke:#A80036;stroke-width:1.5;" x1="1036.1703" x2="1185.1703" y1="446.3672" y2="446.3672"/><!--MD5=[aa116959468819569f4ab01e6b42a7b7]
class VR--><rect codeLine="13" fill="#FEFECE" filter="url(#f199u7ug4n8vaw)" height="53.9375" id="VR" style="stroke:#A80036;stroke-width:1.5;" width="162" x="481.6703" y="283.9531"/><ellipse cx="496.6703" cy="302.9219" fill="#ADD1B2" rx="11" ry="11" style="stroke:#A80036;stroke-width:1.0;"/><path d="M499.014,298.5938 C498.0765,298.1563 497.4828,298.0156 496.6078,298.0156 C493.9828,298.0156 491.9828,300.0938 491.9828,302.8125 L491.9828,303.9375 C491.9828,306.5156 494.0921,308.4063 496.9828,308.4063 C498.2015,308.4063 499.3578,308.1094 500.1078,307.5625 C500.6859,307.1563 501.014,306.7031 501.014,306.3125 C501.014,305.8594 500.6234,305.4688 500.1546,305.4688 C499.9359,305.4688 499.7328,305.5469 499.5453,305.7344 C499.0921,306.2188 499.0921,306.2188 498.9046,306.3125 C498.4828,306.5781 497.7953,306.7031 497.0296,306.7031 C494.9828,306.7031 493.6859,305.6094 493.6859,303.9063 L493.6859,302.8125 C493.6859,301.0313 494.9359,299.7188 496.6703,299.7188 C497.2484,299.7188 497.8578,299.875 498.3265,300.125 C498.8109,300.4063 498.9828,300.625 499.0765,301.0313 C499.139,301.4375 499.1703,301.5625 499.3109,301.6875 C499.4515,301.8281 499.6859,301.9375 499.9046,301.9375 C500.1703,301.9375 500.4359,301.7969 500.6078,301.5781 C500.7171,301.4219 500.7484,301.2344 500.7484,300.8125 L500.7484,299.3906 C500.7484,298.9531 500.7328,298.8281 500.639,298.6719 C500.4828,298.4063 500.2015,298.2656 499.9046,298.2656 C499.6078,298.2656 499.4046,298.3594 499.1859,298.6719 L499.014,298.5938 Z " fill="#000000"/><text fill="#000000" font-family="sans-serif" font-size="12" lengthAdjust="spacing" textLength="130" x="510.6703" y="300.0918">&lt;&lt;Sercice a offrir&gt;&gt;</text><text fill="#000000" font-family="sans-serif" font-size="12" lengthAdjust="spacing" textLength="89" x="531.1703" y="314.0605">VisiteARealiser</text><line style="stroke:#A80036;stroke-width:1.5;" x1="482.6703" x2="642.6703" y1="321.8906" y2="321.8906"/><line style="stroke:#A80036;stroke-width:1.5;" x1="482.6703" x2="642.6703" y1="329.8906" y2="329.8906"/><!--MD5=[54d0f7ca6f9898010b87b67e67e7a5e0]
class E--><rect codeLine="14" fill="#FEFECE" filter="url(#f199u7ug4n8vaw)" height="53.9375" id="E" style="stroke:#A80036;stroke-width:1.5;" width="99" x="656.1703" y="920.9531"/><ellipse cx="671.1703" cy="939.9219" fill="#ADD1B2" rx="11" ry="11" style="stroke:#A80036;stroke-width:1.0;"/><path d="M673.514,935.5938 C672.5765,935.1563 671.9828,935.0156 671.1078,935.0156 C668.4828,935.0156 666.4828,937.0938 666.4828,939.8125 L666.4828,940.9375 C666.4828,943.5156 668.5921,945.4063 671.4828,945.4063 C672.7015,945.4063 673.8578,945.1094 674.6078,944.5625 C675.1859,944.1563 675.514,943.7031 675.514,943.3125 C675.514,942.8594 675.1234,942.4688 674.6546,942.4688 C674.4359,942.4688 674.2328,942.5469 674.0453,942.7344 C673.5921,943.2188 673.5921,943.2188 673.4046,943.3125 C672.9828,943.5781 672.2953,943.7031 671.5296,943.7031 C669.4828,943.7031 668.1859,942.6094 668.1859,940.9063 L668.1859,939.8125 C668.1859,938.0313 669.4359,936.7188 671.1703,936.7188 C671.7484,936.7188 672.3578,936.875 672.8265,937.125 C673.3109,937.4063 673.4828,937.625 673.5765,938.0313 C673.639,938.4375 673.6703,938.5625 673.8109,938.6875 C673.9515,938.8281 674.1859,938.9375 674.4046,938.9375 C674.6703,938.9375 674.9359,938.7969 675.1078,938.5781 C675.2171,938.4219 675.2484,938.2344 675.2484,937.8125 L675.2484,936.3906 C675.2484,935.9531 675.2328,935.8281 675.139,935.6719 C674.9828,935.4063 674.7015,935.2656 674.4046,935.2656 C674.1078,935.2656 673.9046,935.3594 673.6859,935.6719 L673.514,935.5938 Z " fill="#000000"/><text fill="#000000" font-family="sans-serif" font-size="12" lengthAdjust="spacing" textLength="66" x="685.6703" y="937.0918">&lt;&lt;Role&gt;&gt;</text><text fill="#000000" font-family="sans-serif" font-size="12" lengthAdjust="spacing" textLength="67" x="685.1703" y="951.0605">Intervenant</text><line style="stroke:#A80036;stroke-width:1.5;" x1="657.1703" x2="754.1703" y1="958.8906" y2="958.8906"/><line style="stroke:#A80036;stroke-width:1.5;" x1="657.1703" x2="754.1703" y1="966.8906" y2="966.8906"/><!--MD5=[8832394f0f955ca405dbc7ff727aede1]
class L--><rect codeLine="15" fill="#FEFECE" filter="url(#f199u7ug4n8vaw)" height="53.9375" id="L" style="stroke:#A80036;stroke-width:1.5;" width="96" x="306.6703" y="920.9531"/><ellipse cx="321.6703" cy="939.9219" fill="#ADD1B2" rx="11" ry="11" style="stroke:#A80036;stroke-width:1.0;"/><path d="M324.014,935.5938 C323.0765,935.1563 322.4828,935.0156 321.6078,935.0156 C318.9828,935.0156 316.9828,937.0938 316.9828,939.8125 L316.9828,940.9375 C316.9828,943.5156 319.0921,945.4063 321.9828,945.4063 C323.2015,945.4063 324.3578,945.1094 325.1078,944.5625 C325.6859,944.1563 326.014,943.7031 326.014,943.3125 C326.014,942.8594 325.6234,942.4688 325.1546,942.4688 C324.9359,942.4688 324.7328,942.5469 324.5453,942.7344 C324.0921,943.2188 324.0921,943.2188 323.9046,943.3125 C323.4828,943.5781 322.7953,943.7031 322.0296,943.7031 C319.9828,943.7031 318.6859,942.6094 318.6859,940.9063 L318.6859,939.8125 C318.6859,938.0313 319.9359,936.7188 321.6703,936.7188 C322.2484,936.7188 322.8578,936.875 323.3265,937.125 C323.8109,937.4063 323.9828,937.625 324.0765,938.0313 C324.139,938.4375 324.1703,938.5625 324.3109,938.6875 C324.4515,938.8281 324.6859,938.9375 324.9046,938.9375 C325.1703,938.9375 325.4359,938.7969 325.6078,938.5781 C325.7171,938.4219 325.7484,938.2344 325.7484,937.8125 L325.7484,936.3906 C325.7484,935.9531 325.7328,935.8281 325.639,935.6719 C325.4828,935.4063 325.2015,935.2656 324.9046,935.2656 C324.6078,935.2656 324.4046,935.3594 324.1859,935.6719 L324.014,935.5938 Z " fill="#000000"/><text fill="#000000" font-family="sans-serif" font-size="12" lengthAdjust="spacing" textLength="64" x="335.6703" y="937.0918">&lt;&lt;Lieu&gt;&gt;</text><text fill="#000000" font-family="sans-serif" font-size="12" lengthAdjust="spacing" textLength="31" x="352.1703" y="951.0605">Local</text><line style="stroke:#A80036;stroke-width:1.5;" x1="307.6703" x2="401.6703" y1="958.8906" y2="958.8906"/><line style="stroke:#A80036;stroke-width:1.5;" x1="307.6703" x2="401.6703" y1="966.8906" y2="966.8906"/><!--MD5=[3b33aac52bf85bcbfceea1b1d7f3c296]
class P--><rect codeLine="16" fill="#FEFECE" filter="url(#f199u7ug4n8vaw)" height="53.9375" id="P" style="stroke:#A80036;stroke-width:1.5;" width="98" x="508.6703" y="629.9531"/><ellipse cx="523.6703" cy="648.9219" fill="#ADD1B2" rx="11" ry="11" style="stroke:#A80036;stroke-width:1.0;"/><path d="M526.014,644.5938 C525.0765,644.1563 524.4828,644.0156 523.6078,644.0156 C520.9828,644.0156 518.9828,646.0938 518.9828,648.8125 L518.9828,649.9375 C518.9828,652.5156 521.0921,654.4063 523.9828,654.4063 C525.2015,654.4063 526.3578,654.1094 527.1078,653.5625 C527.6859,653.1563 528.014,652.7031 528.014,652.3125 C528.014,651.8594 527.6234,651.4688 527.1546,651.4688 C526.9359,651.4688 526.7328,651.5469 526.5453,651.7344 C526.0921,652.2188 526.0921,652.2188 525.9046,652.3125 C525.4828,652.5781 524.7953,652.7031 524.0296,652.7031 C521.9828,652.7031 520.6859,651.6094 520.6859,649.9063 L520.6859,648.8125 C520.6859,647.0313 521.9359,645.7188 523.6703,645.7188 C524.2484,645.7188 524.8578,645.875 525.3265,646.125 C525.8109,646.4063 525.9828,646.625 526.0765,647.0313 C526.139,647.4375 526.1703,647.5625 526.3109,647.6875 C526.4515,647.8281 526.6859,647.9375 526.9046,647.9375 C527.1703,647.9375 527.4359,647.7969 527.6078,647.5781 C527.7171,647.4219 527.7484,647.2344 527.7484,646.8125 L527.7484,645.3906 C527.7484,644.9531 527.7328,644.8281 527.639,644.6719 C527.4828,644.4063 527.2015,644.2656 526.9046,644.2656 C526.6078,644.2656 526.4046,644.3594 526.1859,644.6719 L526.014,644.5938 Z " fill="#000000"/><text fill="#000000" font-family="sans-serif" font-size="12" lengthAdjust="spacing" textLength="66" x="537.6703" y="646.0918">&lt;&lt;Role&gt;&gt;</text><text fill="#000000" font-family="sans-serif" font-size="12" lengthAdjust="spacing" textLength="37" x="552.1703" y="660.0605">Parent</text><line style="stroke:#A80036;stroke-width:1.5;" x1="509.6703" x2="605.6703" y1="667.8906" y2="667.8906"/><line style="stroke:#A80036;stroke-width:1.5;" x1="509.6703" x2="605.6703" y1="675.8906" y2="675.8906"/><!--MD5=[1ae2715697942bd221ebc3232bf48911]
class V--><rect codeLine="17" fill="#FEFECE" filter="url(#f199u7ug4n8vaw)" height="53.9375" id="V" style="stroke:#A80036;stroke-width:1.5;" width="98" x="874.6703" y="483.9531"/><ellipse cx="889.6703" cy="502.9219" fill="#ADD1B2" rx="11" ry="11" style="stroke:#A80036;stroke-width:1.0;"/><path d="M892.014,498.5938 C891.0765,498.1563 890.4828,498.0156 889.6078,498.0156 C886.9828,498.0156 884.9828,500.0938 884.9828,502.8125 L884.9828,503.9375 C884.9828,506.5156 887.0921,508.4063 889.9828,508.4063 C891.2015,508.4063 892.3578,508.1094 893.1078,507.5625 C893.6859,507.1563 894.014,506.7031 894.014,506.3125 C894.014,505.8594 893.6234,505.4688 893.1546,505.4688 C892.9359,505.4688 892.7328,505.5469 892.5453,505.7344 C892.0921,506.2188 892.0921,506.2188 891.9046,506.3125 C891.4828,506.5781 890.7953,506.7031 890.0296,506.7031 C887.9828,506.7031 886.6859,505.6094 886.6859,503.9063 L886.6859,502.8125 C886.6859,501.0313 887.9359,499.7188 889.6703,499.7188 C890.2484,499.7188 890.8578,499.875 891.3265,500.125 C891.8109,500.4063 891.9828,500.625 892.0765,501.0313 C892.139,501.4375 892.1703,501.5625 892.3109,501.6875 C892.4515,501.8281 892.6859,501.9375 892.9046,501.9375 C893.1703,501.9375 893.4359,501.7969 893.6078,501.5781 C893.7171,501.4219 893.7484,501.2344 893.7484,500.8125 L893.7484,499.3906 C893.7484,498.9531 893.7328,498.8281 893.639,498.6719 C893.4828,498.4063 893.2015,498.2656 892.9046,498.2656 C892.6078,498.2656 892.4046,498.3594 892.1859,498.6719 L892.014,498.5938 Z " fill="#000000"/><text fill="#000000" font-family="sans-serif" font-size="12" lengthAdjust="spacing" textLength="66" x="903.6703" y="500.0918">&lt;&lt;Role&gt;&gt;</text><text fill="#000000" font-family="sans-serif" font-size="12" lengthAdjust="spacing" textLength="45" x="914.1703" y="514.0605">Visiteur</text><line style="stroke:#A80036;stroke-width:1.5;" x1="875.6703" x2="971.6703" y1="521.8906" y2="521.8906"/><line style="stroke:#A80036;stroke-width:1.5;" x1="875.6703" x2="971.6703" y1="529.8906" y2="529.8906"/><!--MD5=[557b4988ec89ca2b1f6072312f82b120]
class CH--><rect codeLine="18" fill="#FEFECE" filter="url(#f199u7ug4n8vaw)" height="53.9375" id="CH" style="stroke:#A80036;stroke-width:1.5;" width="98" x="627.6703" y="483.9531"/><ellipse cx="642.6703" cy="502.9219" fill="#ADD1B2" rx="11" ry="11" style="stroke:#A80036;stroke-width:1.0;"/><path d="M645.014,498.5938 C644.0765,498.1563 643.4828,498.0156 642.6078,498.0156 C639.9828,498.0156 637.9828,500.0938 637.9828,502.8125 L637.9828,503.9375 C637.9828,506.5156 640.0921,508.4063 642.9828,508.4063 C644.2015,508.4063 645.3578,508.1094 646.1078,507.5625 C646.6859,507.1563 647.014,506.7031 647.014,506.3125 C647.014,505.8594 646.6234,505.4688 646.1546,505.4688 C645.9359,505.4688 645.7328,505.5469 645.5453,505.7344 C645.0921,506.2188 645.0921,506.2188 644.9046,506.3125 C644.4828,506.5781 643.7953,506.7031 643.0296,506.7031 C640.9828,506.7031 639.6859,505.6094 639.6859,503.9063 L639.6859,502.8125 C639.6859,501.0313 640.9359,499.7188 642.6703,499.7188 C643.2484,499.7188 643.8578,499.875 644.3265,500.125 C644.8109,500.4063 644.9828,500.625 645.0765,501.0313 C645.139,501.4375 645.1703,501.5625 645.3109,501.6875 C645.4515,501.8281 645.6859,501.9375 645.9046,501.9375 C646.1703,501.9375 646.4359,501.7969 646.6078,501.5781 C646.7171,501.4219 646.7484,501.2344 646.7484,500.8125 L646.7484,499.3906 C646.7484,498.9531 646.7328,498.8281 646.639,498.6719 C646.4828,498.4063 646.2015,498.2656 645.9046,498.2656 C645.6078,498.2656 645.4046,498.3594 645.1859,498.6719 L645.014,498.5938 Z " fill="#000000"/><text fill="#000000" font-family="sans-serif" font-size="12" lengthAdjust="spacing" textLength="66" x="656.6703" y="500.0918">&lt;&lt;Role&gt;&gt;</text><text fill="#000000" font-family="sans-serif" font-size="12" lengthAdjust="spacing" textLength="36" x="671.6703" y="514.0605">Enfant</text><line style="stroke:#A80036;stroke-width:1.5;" x1="628.6703" x2="724.6703" y1="521.8906" y2="521.8906"/><line style="stroke:#A80036;stroke-width:1.5;" x1="628.6703" x2="724.6703" y1="529.8906" y2="529.8906"/><!--MD5=[b3df23b1fed24f8c3b9d195413c1fe1b]
link PS to VR--><path codeLine="20" d="M267.0733,203.3041 C304.1623,218.0881 354.1563,237.6731 398.6703,253.9531 C426.3613,264.0801 456.8843,274.6601 484.0143,283.8631 " fill="none" id="PS-VR" style="stroke:#A80036;stroke-width:1.0;"/><text fill="#000000" font-family="sans-serif" font-size="13" lengthAdjust="spacing" textLength="171" x="399.6703" y="250.02">doit offrir des services aux</text><text fill="#000000" font-family="sans-serif" font-size="13" lengthAdjust="spacing" textLength="8" x="274.6843" y="202.4144">1</text><text fill="#000000" font-family="sans-serif" font-size="13" lengthAdjust="spacing" textLength="7" x="466.488" y="276.5107">*</text><!--MD5=[9c4674601dcadd07de9940cff96cdee3]
link PS to E--><path codeLine="21" d="M201.4613,207.1051 C198.1903,216.4031 194.8543,227.0261 192.6703,236.9531 C188.1573,257.4691 188.8573,262.9801 187.6703,283.9531 C179.7373,424.1761 138.1953,467.7731 185.6703,599.9531 C242.3393,757.7301 281.8173,804.8651 425.6703,890.9531 C497.7733,934.1023 597.1443,944.6623 656.0663,946.8722 " fill="none" id="PS-E" style="stroke:#A80036;stroke-width:1.0;"/><polygon fill="#000000" points="193.2881,588.2795,191.0563,579.0345,186.0485,582.1119,193.2881,588.2795" style="stroke:#000000;stroke-width:1.0;"/><text fill="#000000" font-family="sans-serif" font-size="13" lengthAdjust="spacing" textLength="51" x="199.6703" y="588.52">emploie</text><text fill="#000000" font-family="sans-serif" font-size="13" lengthAdjust="spacing" textLength="8" x="190.353" y="226.7735">1</text><text fill="#000000" font-family="sans-serif" font-size="13" lengthAdjust="spacing" textLength="7" x="641.2666" y="942.6931">*</text><!--MD5=[c43bdc1fd52b606e1f58b1bbdd111190]
link PS to L--><path codeLine="22" d="M156.5333,192.2011 C98.2533,207.6881 14.6703,241.7831 14.6703,309.9531 C14.6703,309.9531 14.6703,309.9531 14.6703,795.9531 C14.6703,922.0598 212.4493,943.6418 306.3173,946.7834 " fill="none" id="PS-L" style="stroke:#A80036;stroke-width:1.0;"/><polygon fill="#000000" points="20.6438,588.9238,21.7654,579.4796,16,580.6241,20.6438,588.9238" style="stroke:#000000;stroke-width:1.0;"/><text fill="#000000" font-family="sans-serif" font-size="13" lengthAdjust="spacing" textLength="54" x="28.6703" y="588.52">possède</text><text fill="#000000" font-family="sans-serif" font-size="13" lengthAdjust="spacing" textLength="8" x="140.5867" y="189.9192">1</text><text fill="#000000" font-family="sans-serif" font-size="13" lengthAdjust="spacing" textLength="7" x="291.7014" y="942.5913">*</text><!--MD5=[5d187f90a6e39f4895f0937e837872fc]
link C to PS--><path codeLine="24" d="M416.6333,76.0631 C373.3263,97.8031 308.5733,130.3091 263.4783,152.9461 " fill="none" id="C-PS" style="stroke:#A80036;stroke-width:1.0;"/><polygon fill="#000000" points="353.2017,116.7627,362.6039,115.3313,359.9669,110.0782,353.2017,116.7627" style="stroke:#000000;stroke-width:1.0;"/><text fill="#000000" font-family="sans-serif" font-size="13" lengthAdjust="spacing" textLength="51" x="366.6703" y="119.02">travaille</text><text fill="#000000" font-family="sans-serif" font-size="13" lengthAdjust="spacing" textLength="7" x="397.5586" y="95.8511">*</text><text fill="#000000" font-family="sans-serif" font-size="13" lengthAdjust="spacing" textLength="8" x="266.5339" y="142.0559">1</text><!--MD5=[7edbef9b6e0cadb16632aba89b665bdf]
link VR to V--><path codeLine="27" d="M609.2803,337.9771 C623.2133,346.6961 638.1103,357.0071 650.6703,367.9531 C688.4663,400.8931 681.4613,426.8991 723.6703,453.9531 C769.8133,483.5291 831.6693,497.7251 874.3123,504.3791 " fill="none" id="VR-V" style="stroke:#A80036;stroke-width:1.0;"/><text fill="#000000" font-family="sans-serif" font-size="13" lengthAdjust="spacing" textLength="53" x="724.6703" y="415.52">est pour</text><text fill="#000000" font-family="sans-serif" font-size="13" lengthAdjust="spacing" textLength="8" x="611.1338" y="358.0503">1</text><text fill="#000000" font-family="sans-serif" font-size="13" lengthAdjust="spacing" textLength="7" x="859.5487" y="499.3932">*</text><!--MD5=[c90a8ec7798b039eeed1bca57f95ea5e]
link VR to CH--><path codeLine="28" d="M561.1903,338.1111 C560.7563,368.5031 564.1433,418.9451 587.6703,453.9531 C597.4453,468.4991 612.4053,480.0101 627.2863,488.7181 " fill="none" id="VR-CH" style="stroke:#A80036;stroke-width:1.0;"/><text fill="#000000" font-family="sans-serif" font-size="13" lengthAdjust="spacing" textLength="53" x="588.6703" y="415.52">est pour</text><text fill="#000000" font-family="sans-serif" font-size="13" lengthAdjust="spacing" textLength="8" x="551.9915" y="357.7808">1</text><text fill="#000000" font-family="sans-serif" font-size="13" lengthAdjust="spacing" textLength="7" x="612.5189" y="481.432">*</text><!--MD5=[bb60ec8a5956b84045891b9ce6f1e0fd]
link VS to PH--><path codeLine="29" d="M832.7473,186.2471 C900.2053,195.1991 1004.2123,219.2691 1065.6703,283.9531 C1087.4303,306.8551 1098.7703,340.9841 1104.6203,367.9481 " fill="none" id="VS-PH" style="stroke:#A80036;stroke-width:1.0;"/><polygon fill="#000000" points="1038.8273,248.2978,1032.9402,240.8284,1029.6741,245.7153,1038.8273,248.2978" style="stroke:#000000;stroke-width:1.0;"/><text fill="#000000" font-family="sans-serif" font-size="13" lengthAdjust="spacing" textLength="99" x="1043.6703" y="250.02">sont fait durant</text><text fill="#000000" font-family="sans-serif" font-size="13" lengthAdjust="spacing" textLength="7" x="840.6765" y="199.9202">*</text><text fill="#000000" font-family="sans-serif" font-size="13" lengthAdjust="spacing" textLength="8" x="1095.0185" y="356.9434">1</text><!--MD5=[5b41607cf48cb5ca283d9fdbe4eaaefa]
link VS to VR--><path codeLine="32" d="M702.2503,188.2681 C666.0853,195.3711 622.5593,209.3701 592.6703,236.9531 C579.3783,249.2191 571.8183,268.2441 567.6123,283.7971 " fill="none" id="VS-VR" style="stroke:#A80036;stroke-width:1.0;"/><polygon fill="#000000" points="601.7481,242.6262,592.6706,245.4634,596.0719,250.2572,601.7481,242.6262" style="stroke:#000000;stroke-width:1.0;"/><text fill="#000000" font-family="sans-serif" font-size="13" lengthAdjust="spacing" textLength="80" x="606.6703" y="250.02">a lien durant</text><text fill="#000000" font-family="sans-serif" font-size="13" lengthAdjust="spacing" textLength="7" x="687.7121" y="185.4348">*</text><text fill="#000000" font-family="sans-serif" font-size="13" lengthAdjust="spacing" textLength="8" x="559.8301" y="272.8724">1</text><!--MD5=[946f3a7a06697e18035d1f14111d9b68]
link VS to E--><path codeLine="33" d="M832.8453,181.2991 C988.4313,183.8801 1368.6703,201.3021 1368.6703,309.9531 C1368.6703,309.9531 1368.6703,309.9531 1368.6703,795.9531 C1368.6703,921.752 909.1523,942.7472 755.2323,946.2512 " fill="none" id="VS-E" style="stroke:#A80036;stroke-width:1.0;"/><polygon fill="#000000" points="1373.1655,588.994,1377.0025,580.2918,1371.1547,579.6984,1373.1655,588.994" style="stroke:#000000;stroke-width:1.0;"/><text fill="#000000" font-family="sans-serif" font-size="13" lengthAdjust="spacing" textLength="111" x="1382.6703" y="588.52">est supervisé par</text><text fill="#000000" font-family="sans-serif" font-size="13" lengthAdjust="spacing" textLength="7" x="840.7858" y="177.6658">*</text><text fill="#000000" font-family="sans-serif" font-size="13" lengthAdjust="spacing" textLength="8" x="763.0992" y="941.9809">1</text><!--MD5=[441a9ba58e7c8c119ea516c0ca1bf982]
link VS to L--><path codeLine="34" d="M702.5963,183.2511 C631.7453,189.5551 520.9173,211.2921 463.6703,283.9531 C443.3893,309.6951 374.7063,801.2521 358.2403,920.8774 " fill="none" id="VS-L" style="stroke:#A80036;stroke-width:1.0;"/><polygon fill="#000000" points="412.5552,588.5501,419.0444,581.5974,413.7184,579.111,412.5552,588.5501" style="stroke:#000000;stroke-width:1.0;"/><text fill="#000000" font-family="sans-serif" font-size="13" lengthAdjust="spacing" textLength="102" x="423.6703" y="588.52">se déroule dans</text><text fill="#000000" font-family="sans-serif" font-size="13" lengthAdjust="spacing" textLength="7" x="687.6674" y="196.5778">*</text><text fill="#000000" font-family="sans-serif" font-size="13" lengthAdjust="spacing" textLength="8" x="350.1408" y="909.9713">1</text><!--MD5=[353d58c24978b3323a8ee6d288f05270]
link CH to P--><path codeLine="35" d="M627.6693,527.0581 C607.2683,535.8041 585.2213,548.9431 571.6703,567.9531 C558.9193,585.8411 556.0063,610.9601 555.9403,629.7841 " fill="none" id="CH-P" style="stroke:#A80036;stroke-width:1.0;"/><polygon fill="#000000" points="573.8078,588.119,581.3957,582.3855,576.5764,579.0204,573.8078,588.119" style="stroke:#000000;stroke-width:1.0;"/><text fill="#000000" font-family="sans-serif" font-size="13" lengthAdjust="spacing" textLength="92" x="585.6703" y="588.52">est l'enfant de</text><text fill="#000000" font-family="sans-serif" font-size="13" lengthAdjust="spacing" textLength="8" x="611.5535" y="525.4576">1</text><text fill="#000000" font-family="sans-serif" font-size="13" lengthAdjust="spacing" textLength="7" x="556.3496" y="618.8564">*</text><!--MD5=[ce37b64641123db223635a3c55d5094f]
link VS to V--><path codeLine="37" d="M814.0283,207.0151 C826.1063,215.4071 838.3363,225.5331 847.6703,236.9531 C908.5403,311.4241 920.7633,431.3641 923.1413,483.8961 " fill="none" id="VS-V" style="stroke:#A80036;stroke-width:1.0;"/><text fill="#000000" font-family="sans-serif" font-size="13" lengthAdjust="spacing" textLength="129" x="899.6703" y="315.52">offre un service aux</text><text fill="#000000" font-family="sans-serif" font-size="13" lengthAdjust="spacing" textLength="7" x="816.9392" y="227.0971">*</text><text fill="#000000" font-family="sans-serif" font-size="13" lengthAdjust="spacing" textLength="23" x="897.3596" y="472.9943">1..*</text><!--MD5=[114f0b228363b6d16d8efe31e660b910]
link VS to CH--><path codeLine="38" d="M754.0413,207.0611 C736.2363,242.4681 705.5823,308.1671 690.6703,367.9531 C680.7783,407.6121 677.8213,455.1381 676.9703,483.9151 " fill="none" id="VS-CH" style="stroke:#A80036;stroke-width:1.0;"/><text fill="#000000" font-family="sans-serif" font-size="13" lengthAdjust="spacing" textLength="53" x="719.6703" y="315.52">est pour</text><text fill="#000000" font-family="sans-serif" font-size="13" lengthAdjust="spacing" textLength="7" x="743.0802" y="227.1537">*</text><text fill="#000000" font-family="sans-serif" font-size="13" lengthAdjust="spacing" textLength="23" x="651.3803" y="473.0177">1..*</text><!--MD5=[ad3bfa602072f13bd429e32598485f33]
link C to VS--><path codeLine="39" d="M518.6123,76.0631 C571.2363,97.8031 649.9203,130.3091 704.7173,152.9461 " fill="none" id="C-VS" style="stroke:#A80036;stroke-width:1.0;"/><polygon fill="#000000" points="634.2915,116.4286,627.0538,110.2588,624.8095,115.6913,634.2915,116.4286" style="stroke:#000000;stroke-width:1.0;"/><text fill="#000000" font-family="sans-serif" font-size="13" lengthAdjust="spacing" textLength="55" x="638.6703" y="119.02">organise</text><text fill="#000000" font-family="sans-serif" font-size="13" lengthAdjust="spacing" textLength="8" x="523.2731" y="95.8511">1</text><text fill="#000000" font-family="sans-serif" font-size="13" lengthAdjust="spacing" textLength="7" x="687.5416" y="144.7441">*</text><!--MD5=[fc17139ef9a3951c09786ba663e9db0c]
link PH to H--><path codeLine="42" d="M1109.1303,454.2411 C1104.7103,513.3871 1088.1203,620.6541 1026.6703,683.9531 C959.8043,752.8321 848.0843,778.5891 775.3953,788.2151 " fill="none" id="PH-H" style="stroke:#A80036;stroke-width:1.0;"/><text fill="#000000" font-family="sans-serif" font-size="13" lengthAdjust="spacing" textLength="217" x="1090.6703" y="581.02">Permet d'obtenir ou de demander</text><polygon fill="#000000" points="1142.136,595.1891,1150.6084,590.8684,1146.4507,586.7136,1142.136,595.1891" style="stroke:#000000;stroke-width:1.0;"/><text fill="#000000" font-family="sans-serif" font-size="13" lengthAdjust="spacing" textLength="104" x="1153.6703" y="596.1528">un service selon</text><text fill="#000000" font-family="sans-serif" font-size="13" lengthAdjust="spacing" textLength="7" x="1101.327" y="474.3799">*</text><text fill="#000000" font-family="sans-serif" font-size="13" lengthAdjust="spacing" textLength="8" x="783.1013" y="783.8254">1</text><!--MD5=[373aa0661202824a553a66990031500c]
link H to E--><path codeLine="44" d="M704.8893,829.0911 C705.0723,856.6981 705.3293,895.4781 705.4973,920.9026 " fill="none" id="H-E" style="stroke:#A80036;stroke-width:1.0;"/><text fill="#000000" font-family="sans-serif" font-size="13" lengthAdjust="spacing" textLength="64" x="706.6703" y="879.52">possède&gt;</text><!--MD5=[16da8eac73402540b4b0310adbecacd2]
link H to L--><path codeLine="45" d="M634.1213,810.3421 C590.1873,820.7251 533.1913,836.8241 485.6703,858.9531 C449.7803,875.666 412.6693,901.5491 387.1503,920.9252 " fill="none" id="H-L" style="stroke:#A80036;stroke-width:1.0;"/><text fill="#000000" font-family="sans-serif" font-size="13" lengthAdjust="spacing" textLength="123" x="530.1703" y="872.02">possède un horaire</text><polygon fill="#000000" points="487.1068,884.6957,496.5632,883.6816,494.1611,878.317,487.1068,884.6957" style="stroke:#000000;stroke-width:1.0;"/><text fill="#000000" font-family="sans-serif" font-size="13" lengthAdjust="spacing" textLength="197" x="499.6703" y="887.1528">de disponnibilité et réservation</text><text fill="#000000" font-family="sans-serif" font-size="13" lengthAdjust="spacing" textLength="8" x="617.9675" y="808.2843">1</text><text fill="#000000" font-family="sans-serif" font-size="13" lengthAdjust="spacing" textLength="8" x="385.7363" y="910.0301">1</text><!--MD5=[6c64e0b03edaa8d39fc33d7c09d89ee5]
link PS to H--><path codeLine="46" d="M206.4563,207.3521 C195.5903,269.6821 176.4033,428.9261 238.6703,537.9531 C322.6733,685.0391 525.6803,752.7951 633.9263,779.3761 " fill="none" id="PS-H" style="stroke:#A80036;stroke-width:1.0;"/><text fill="#000000" font-family="sans-serif" font-size="13" lengthAdjust="spacing" textLength="97" x="272.1703" y="500.52">contient toutes</text><text fill="#000000" font-family="sans-serif" font-size="13" lengthAdjust="spacing" textLength="106" x="267.6703" y="515.6528">les plage horaire</text><polygon fill="#000000" points="247.6633,530.2904,244.603,521.2856,239.8946,524.8042,247.6633,530.2904" style="stroke:#000000;stroke-width:1.0;"/><text fill="#000000" font-family="sans-serif" font-size="13" lengthAdjust="spacing" textLength="149" x="252.6703" y="530.7856">des visites supervisées</text><text fill="#000000" font-family="sans-serif" font-size="13" lengthAdjust="spacing" textLength="8" x="196.4407" y="227.0745">1</text><text fill="#000000" font-family="sans-serif" font-size="13" lengthAdjust="spacing" textLength="8" x="618.2183" y="774.0749">1</text><!--MD5=[d9df3b8afda0c9771dbd2054a5c780a6]
link P to VS--><path codeLine="47" d="M606.8173,640.2691 C632.0463,630.8621 662.4773,617.3301 686.6703,599.9531 C749.7453,554.6481 765.5553,529.7031 782.6703,453.9531 C802.7033,365.2881 784.3713,256.5101 773.8623,207.3251 " fill="none" id="P-VS" style="stroke:#A80036;stroke-width:1.0;"/><polygon fill="#000000" points="798.4701,406.3547,792.4722,413.7355,797.9561,415.8514,798.4701,406.3547" style="stroke:#000000;stroke-width:1.0;"/><text fill="#000000" font-family="sans-serif" font-size="13" lengthAdjust="spacing" textLength="67" x="805.6703" y="415.52">participe à</text><text fill="#000000" font-family="sans-serif" font-size="13" lengthAdjust="spacing" textLength="8" x="614.6232" y="633.7983">1</text><text fill="#000000" font-family="sans-serif" font-size="13" lengthAdjust="spacing" textLength="7" x="767.4511" y="227.0416">*</text><!--MD5=[3c964b06c7e12b3f5f2f83943d262141]
link P to VR--><path codeLine="48" d="M550.8123,629.9381 C544.9253,606.1811 536.8953,569.9861 533.6703,537.9531 C526.3603,465.3361 544.6503,380.0021 555.4363,338.0001 " fill="none" id="P-VR" style="stroke:#A80036;stroke-width:1.0;"/><polygon fill="#000000" points="538.7494,506.0202,535.6676,515.0176,541.5448,515.1107,538.7494,506.0202" style="stroke:#000000;stroke-width:1.0;"/><text fill="#000000" font-family="sans-serif" font-size="13" lengthAdjust="spacing" textLength="61" x="547.6703" y="515.52">demande</text><text fill="#000000" font-family="sans-serif" font-size="13" lengthAdjust="spacing" textLength="8" x="540.3014" y="619.046">1</text><text fill="#000000" font-family="sans-serif" font-size="13" lengthAdjust="spacing" textLength="7" x="545.954" y="358.0786">*</text><!--MD5=[a8df49c86f7a0cd7d0b9e5e01f4f91ee]
link P to H--><path codeLine="49" d="M540.4953,684.0771 C533.1033,698.8691 528.1033,717.1191 537.6703,730.9531 C559.3493,762.3021 598.7483,778.0701 633.8343,785.9931 " fill="none" id="P-H" style="stroke:#A80036;stroke-width:1.0;"/><polygon fill="#000000" points="546.0472,726.2068,542.1056,717.5515,537.7709,721.5214,546.0472,726.2068" style="stroke:#000000;stroke-width:1.0;"/><text fill="#000000" font-family="sans-serif" font-size="13" lengthAdjust="spacing" textLength="126" x="551.6703" y="727.02">est disponible selon</text><text fill="#000000" font-family="sans-serif" font-size="13" lengthAdjust="spacing" textLength="8" x="527.5985" y="704.1734">1</text><text fill="#000000" font-family="sans-serif" font-size="13" lengthAdjust="spacing" textLength="8" x="618.1168" y="797.9211">1</text><!--MD5=[e0f27f310e31ab85cf20ff613506ba0c]
link CH to H--><path codeLine="50" d="M679.5313,538.1581 C680.5423,547.5531 681.6753,558.2261 682.6703,567.9531 C689.6673,636.3871 697.3473,716.5331 701.5283,760.6281 " fill="none" id="CH-H" style="stroke:#A80036;stroke-width:1.0;"/><polygon fill="#000000" points="700.1622,661.9953,702.1969,652.7049,696.3476,653.2833,700.1622,661.9953" style="stroke:#000000;stroke-width:1.0;"/><text fill="#000000" font-family="sans-serif" font-size="13" lengthAdjust="spacing" textLength="126" x="708.6703" y="661.52">est disponible selon</text><text fill="#000000" font-family="sans-serif" font-size="13" lengthAdjust="spacing" textLength="8" x="671.2821" y="557.8381">1</text><text fill="#000000" font-family="sans-serif" font-size="13" lengthAdjust="spacing" textLength="8" x="692.2115" y="750.0044">1</text><!--MD5=[2e605f4ab7892c2b126fa04efe11e0ea]
link V to H--><path codeLine="51" d="M915.7383,538.2141 C904.0703,573.8591 879.6913,638.3321 843.6703,683.9531 C819.8323,714.1441 786.1333,741.0781 757.8863,760.7371 " fill="none" id="V-H" style="stroke:#A80036;stroke-width:1.0;"/><polygon fill="#000000" points="879.7774,661.0977,887.4077,655.4207,882.6136,652.0199,879.7774,661.0977" style="stroke:#000000;stroke-width:1.0;"/><text fill="#000000" font-family="sans-serif" font-size="13" lengthAdjust="spacing" textLength="126" x="891.6703" y="661.52">est disponible selon</text><text fill="#000000" font-family="sans-serif" font-size="13" lengthAdjust="spacing" textLength="8" x="905.1281" y="557.9064">1</text><text fill="#000000" font-family="sans-serif" font-size="13" lengthAdjust="spacing" textLength="8" x="759.2681" y="749.8735">1</text><!--MD5=[64037bcf04f2f6b5bf2f56f873a1319a]
@startuml
title Ébauche initiale du MDD
class "Coordonnateur" as C {

}
class "<<Service>>\nVisiteSupervise " as VS 
class "<<Lieu>>\nPointService " as PS 
class "<<Abstract>>\n<<Planification>>\nHoraire" as H 
class "PlageHoraire" as PH {
    dateDebut:DateTime 
    dateFin:DateTime
    visiteSupervise:Boolean
}
class "<<Sercice a offrir>>\nVisiteARealiser" as VR 
class "<<Role>>\nIntervenant" as E 
class "<<Lieu>>\nLocal" as L 
class "<<Role>>\nParent" as P 
class "<<Role>>\nVisiteur" as V 
class "<<Role>>\nEnfant" as CH

PS "1" - - "*" VR: doit offrir des services aux 
PS "1" - - "*" E: emploie >
PS  "1" - - "*" L: possède >

C "*" - - "1" PS: travaille >


VR "1" - - "*" V: est pour
VR "1" - - "*" CH: est pour
VS "*" - - "1" PH: sont fait durant >


VS "*" - - "1" VR: a lien durant <
VS "*" - - "1" E: est supervisé par >
VS "*" - - "1" L: se déroule dans >
CH "1" - - "*" P : est l'enfant de >

VS "*" -d- "1..*" V: offre un service aux
VS "*" -d- "1..*" CH: est pour
C "1" - - "*" VS: organise >


H "1" -u- "*" PH: Permet d'obtenir ou de demander\nun service selon >

E  -u-  H: possède>
L "1" -u- "1" H : possède un horaire\nde disponnibilité et réservation >
PS "1" - - "1" H: contient toutes\nles plage horaire\ndes visites supervisées >
P "1" - - "*" VS: participe à >
P "1" - - "*" VR: demande >
P "1" - - "1" H: est disponible selon >
CH "1" - - "1" H: est disponible selon >
V "1" - - "1" H: est disponible selon >
@enduml

PlantUML version 1.2021.2beta6(Unknown compile time)
(GPL source distribution)
Java Runtime: Java(TM) SE Runtime Environment
JVM: Java HotSpot(TM) 64-Bit Server VM
Default Encoding: UTF-8
Language: en
Country: US
--></g></svg>