<?xml version="1.0" encoding="UTF-8" standalone="no"?><svg xmlns="http://www.w3.org/2000/svg" xmlns:xlink="http://www.w3.org/1999/xlink" contentScriptType="application/ecmascript" contentStyleType="text/css" height="497px" preserveAspectRatio="none" style="width:1293px;height:497px;" version="1.1" viewBox="0 0 1293 497" width="1293px" zoomAndPan="magnify"><defs/><g><rect fill="#FFFFFF" height="28" style="stroke:#A80036;stroke-width:1.0;" width="10" x="335" y="430.2891"/><rect fill="#FFFFFF" height="384.8594" style="stroke:#000000;stroke-width:2.0;" width="1284" x="3" y="88.4297"/><rect fill="#FFFFFF" height="237.3281" style="stroke:#000000;stroke-width:2.0;" width="1005.5" x="271.5" y="141.6953"/><rect fill="#FFFFFF" height="111.6641" style="stroke:#000000;stroke-width:2.0;" width="496" x="771" y="260.3594"/><line style="stroke:#A80036;stroke-width:1.0;stroke-dasharray:5.0,5.0;" x1="339.5" x2="339.5" y1="36.2969" y2="490.2891"/><line style="stroke:#A80036;stroke-width:1.0;stroke-dasharray:5.0,5.0;" x1="644" x2="644" y1="36.2969" y2="490.2891"/><line style="stroke:#A80036;stroke-width:1.0;stroke-dasharray:5.0,5.0;" x1="884" x2="884" y1="36.2969" y2="490.2891"/><line style="stroke:#A80036;stroke-width:1.0;stroke-dasharray:5.0,5.0;" x1="1156" x2="1156" y1="36.2969" y2="490.2891"/><rect fill="#FEFECE" height="30.2969" style="stroke:#A80036;stroke-width:1.5;" width="117" x="281.5" y="5"/><text fill="#000000" font-family="sans-serif" font-size="14" lengthAdjust="spacing" textLength="103" x="288.5" y="24.9951">client[i]:Client</text><rect fill="#FEFECE" height="30.2969" style="stroke:#A80036;stroke-width:1.5;" width="254" x="517" y="5"/><text fill="#000000" font-family="sans-serif" font-size="14" lengthAdjust="spacing" textLength="240" x="524" y="24.9951">horairesDisponible:List&lt;Horaire&gt;</text><rect fill="#FEFECE" height="30.2969" style="stroke:#A80036;stroke-width:1.5;" width="207" x="781" y="5"/><text fill="#000000" font-family="sans-serif" font-size="14" lengthAdjust="spacing" textLength="193" x="788" y="24.9951">lvr[i]:List&lt;VisiteARealiser&gt;</text><rect fill="#FEFECE" height="30.2969" style="stroke:#A80036;stroke-width:1.5;" width="145" x="1084" y="5"/><text fill="#000000" font-family="sans-serif" font-size="14" lengthAdjust="spacing" textLength="131" x="1091" y="24.9951">vs:VisiteSupervise</text><rect fill="#FFFFFF" height="28" style="stroke:#A80036;stroke-width:1.0;" width="10" x="335" y="430.2891"/><path d="M5,51.2969 L5,76.2969 L335,76.2969 L335,61.2969 L325,51.2969 L5,51.2969 " fill="#FBFB77" style="stroke:#A80036;stroke-width:1.0;"/><path d="M325,51.2969 L325,61.2969 L335,61.2969 L325,51.2969 " fill="#FBFB77" style="stroke:#A80036;stroke-width:1.0;"/><text fill="#000000" font-family="sans-serif" font-size="13" lengthAdjust="spacing" textLength="309" x="11" y="68.3638">client possède une liste d'horaire de disponibilité</text><path d="M3,88.4297 L81,88.4297 L81,95.4297 L71,105.4297 L3,105.4297 L3,88.4297 " fill="#EEEEEE" style="stroke:#000000;stroke-width:1.0;"/><rect fill="none" height="384.8594" style="stroke:#000000;stroke-width:2.0;" width="1284" x="3" y="88.4297"/><text fill="#000000" font-family="sans-serif" font-size="13" font-weight="bold" lengthAdjust="spacing" textLength="33" x="18" y="101.4966">loop</text><polygon fill="#A80036" points="328,122.6953,338,126.6953,328,130.6953" style="stroke:#A80036;stroke-width:1.0;"/><line style="stroke:#A80036;stroke-width:1.0;" x1="0" x2="334" y1="126.6953" y2="126.6953"/><text fill="#000000" font-family="sans-serif" font-size="13" lengthAdjust="spacing" textLength="300" x="7" y="121.6294">horairesDisponible &amp;=  getHorairesDisponible()</text><path d="M271.5,141.6953 L349.5,141.6953 L349.5,148.6953 L339.5,158.6953 L271.5,158.6953 L271.5,141.6953 " fill="#EEEEEE" style="stroke:#000000;stroke-width:1.0;"/><rect fill="none" height="237.3281" style="stroke:#000000;stroke-width:2.0;" width="1005.5" x="271.5" y="141.6953"/><text fill="#000000" font-family="sans-serif" font-size="13" font-weight="bold" lengthAdjust="spacing" textLength="33" x="286.5" y="154.7622">loop</text><path d="M345,163.8281 L345,218.8281 L865,218.8281 L865,173.8281 L855,163.8281 L345,163.8281 " fill="#FBFB77" style="stroke:#A80036;stroke-width:1.0;"/><path d="M855,163.8281 L855,173.8281 L865,173.8281 L855,163.8281 " fill="#FBFB77" style="stroke:#A80036;stroke-width:1.0;"/><text fill="#000000" font-family="sans-serif" font-size="13" lengthAdjust="spacing" textLength="140" x="351" y="180.895">Expert en information</text><text fill="#000000" font-family="sans-serif" font-size="13" lengthAdjust="spacing" textLength="310" x="351" y="196.0278">client à fait plusieurs demande de visiteARealise</text><text fill="#000000" font-family="sans-serif" font-size="13" lengthAdjust="spacing" textLength="499" x="351" y="211.1606">Chaque demande de VisteARealise peut s'être réalisé par une VisiteSupervisé</text><polygon fill="#A80036" points="872.5,241.3594,882.5,245.3594,872.5,249.3594" style="stroke:#A80036;stroke-width:1.0;"/><line style="stroke:#A80036;stroke-width:1.0;" x1="340" x2="878.5" y1="245.3594" y2="245.3594"/><text fill="#000000" font-family="sans-serif" font-size="13" lengthAdjust="spacing" textLength="339" x="347" y="240.2935">horairesNonDisponible &amp;= getHoraireNonDisponible()</text><path d="M771,260.3594 L849,260.3594 L849,267.3594 L839,277.3594 L771,277.3594 L771,260.3594 " fill="#EEEEEE" style="stroke:#000000;stroke-width:1.0;"/><rect fill="none" height="111.6641" style="stroke:#000000;stroke-width:2.0;" width="496" x="771" y="260.3594"/><text fill="#000000" font-family="sans-serif" font-size="13" font-weight="bold" lengthAdjust="spacing" textLength="33" x="786" y="273.4263">loop</text><path d="M889,282.4922 L889,337.4922 L1257,337.4922 L1257,292.4922 L1247,282.4922 L889,282.4922 " fill="#FBFB77" style="stroke:#A80036;stroke-width:1.0;"/><path d="M1247,282.4922 L1247,292.4922 L1257,292.4922 L1247,282.4922 " fill="#FBFB77" style="stroke:#A80036;stroke-width:1.0;"/><text fill="#000000" font-family="sans-serif" font-size="13" lengthAdjust="spacing" textLength="140" x="895" y="299.5591">Expert en information</text><text fill="#000000" font-family="sans-serif" font-size="13" lengthAdjust="spacing" textLength="184" x="895" y="314.6919">lvr est associé à plusieurs vs</text><text fill="#000000" font-family="sans-serif" font-size="13" lengthAdjust="spacing" textLength="347" x="895" y="329.8247">vs possède un horaire qui rend le client non disponible</text><polygon fill="#A80036" points="1144.5,360.0234,1154.5,364.0234,1144.5,368.0234" style="stroke:#A80036;stroke-width:1.0;"/><line style="stroke:#A80036;stroke-width:1.0;" x1="884.5" x2="1150.5" y1="364.0234" y2="364.0234"/><text fill="#000000" font-family="sans-serif" font-size="13" lengthAdjust="spacing" textLength="248" x="891.5" y="358.9575">horairesNonDisponible &amp;= getHoraire()</text><line style="stroke:#A80036;stroke-width:1.0;" x1="345" x2="387" y1="422.2891" y2="422.2891"/><line style="stroke:#A80036;stroke-width:1.0;" x1="387" x2="387" y1="422.2891" y2="435.2891"/><line style="stroke:#A80036;stroke-width:1.0;" x1="346" x2="387" y1="435.2891" y2="435.2891"/><polygon fill="#A80036" points="356,431.2891,346,435.2891,356,439.2891" style="stroke:#A80036;stroke-width:1.0;"/><text fill="#000000" font-family="sans-serif" font-size="13" lengthAdjust="spacing" textLength="290" x="352" y="402.0903">horairedDisponible = calculHoraireDisponible(</text><text fill="#000000" font-family="sans-serif" font-size="13" lengthAdjust="spacing" textLength="270" x="352" y="417.2231">horairesDisponible,horairesNonDisponible)</text><!--MD5=[c58a5e86cf9eb4f76696bffb9a8e43e4]
@startuml
skinparam style strictuml
participant "client[i]:Client" as CL
participant "horairesDisponible:List<Horaire>" as LH
participant "lvr[i]:List<VisiteARealiser>" as LVR
participant "vs:VisiteSupervise" as VS
note left of CL: client possède une liste d'horaire de disponibilité
loop
     -> CL: horairesDisponible &=  getHorairesDisponible()
    loop
        note right of CL: Expert en information\nclient à fait plusieurs demande de visiteARealise\nChaque demande de VisteARealise peut s'être réalisé par une VisiteSupervisé 
        CL -> LVR: horairesNonDisponible &= getHoraireNonDisponible()
        loop
            note right of LVR: Expert en information\nlvr est associé à plusieurs vs\nvs possède un horaire qui rend le client non disponible
            LVR -> VS: horairesNonDisponible &= getHoraire()
        end
    end
    CL->CL: horairedDisponible = calculHoraireDisponible(\nhorairesDisponible,horairesNonDisponible)
    activate CL
    deactivate CL

end
@enduml

PlantUML version 1.2021.2beta6(Unknown compile time)
(GPL source distribution)
Java Runtime: Java(TM) SE Runtime Environment
JVM: Java HotSpot(TM) 64-Bit Server VM
Default Encoding: UTF-8
Language: en
Country: US
--></g></svg>