<?xml version="1.0" encoding="UTF-8" standalone="no"?><svg xmlns="http://www.w3.org/2000/svg" xmlns:xlink="http://www.w3.org/1999/xlink" contentScriptType="application/ecmascript" contentStyleType="text/css" height="936px" preserveAspectRatio="none" style="width:1698px;height:936px;" version="1.1" viewBox="0 0 1698 936" width="1698px" zoomAndPan="magnify"><defs/><g><rect fill="#FFFFFF" height="28" style="stroke:#A80036;stroke-width:1.0;" width="10" x="488" y="772.0156"/><rect fill="#FFFFFF" height="111.6641" style="stroke:#000000;stroke-width:2.0;" width="679.5" x="417" y="196.9609"/><rect fill="#FFFFFF" height="111.6641" style="stroke:#000000;stroke-width:2.0;" width="792.5" x="417" y="322.625"/><rect fill="#FFFFFF" height="237.3281" style="stroke:#000000;stroke-width:2.0;" width="1275.5" x="417" y="448.2891"/><rect fill="#FFFFFF" height="111.6641" style="stroke:#000000;stroke-width:2.0;" width="1194.5" x="488" y="566.9531"/><line style="stroke:#A80036;stroke-width:1.0;stroke-dasharray:5.0,5.0;" x1="210.5" x2="210.5" y1="36.2969" y2="929.8125"/><line style="stroke:#A80036;stroke-width:1.0;stroke-dasharray:5.0,5.0;" x1="493" x2="493" y1="36.2969" y2="929.8125"/><line style="stroke:#A80036;stroke-width:1.0;stroke-dasharray:5.0,5.0;" x1="984.5" x2="984.5" y1="36.2969" y2="929.8125"/><line style="stroke:#A80036;stroke-width:1.0;stroke-dasharray:5.0,5.0;" x1="1147.5" x2="1147.5" y1="36.2969" y2="929.8125"/><line style="stroke:#A80036;stroke-width:1.0;stroke-dasharray:5.0,5.0;" x1="1332.5" x2="1332.5" y1="36.2969" y2="929.8125"/><line style="stroke:#A80036;stroke-width:1.0;stroke-dasharray:5.0,5.0;" x1="1613.5" x2="1613.5" y1="36.2969" y2="929.8125"/><rect fill="#FEFECE" height="30.2969" style="stroke:#A80036;stroke-width:1.5;" width="231" x="95.5" y="5"/><text fill="#000000" font-family="sans-serif" font-size="14" lengthAdjust="spacing" textLength="217" x="102.5" y="24.9951">:ControleurPropositionHoraire</text><rect fill="#FEFECE" height="30.2969" style="stroke:#A80036;stroke-width:1.5;" width="132" x="427" y="5"/><text fill="#000000" font-family="sans-serif" font-size="14" lengthAdjust="spacing" textLength="118" x="434" y="24.9951">:ps:PointService</text><rect fill="#FEFECE" height="30.2969" style="stroke:#A80036;stroke-width:1.5;" width="203" x="883.5" y="5"/><text fill="#000000" font-family="sans-serif" font-size="14" lengthAdjust="spacing" textLength="189" x="890.5" y="24.9951">intervenant[i]:Intervenant</text><rect fill="#FEFECE" height="30.2969" style="stroke:#A80036;stroke-width:1.5;" width="103" x="1096.5" y="5"/><text fill="#000000" font-family="sans-serif" font-size="14" lengthAdjust="spacing" textLength="89" x="1103.5" y="24.9951">local[i]:Local</text><rect fill="#FEFECE" height="30.2969" style="stroke:#A80036;stroke-width:1.5;" width="247" x="1209.5" y="5"/><text fill="#000000" font-family="sans-serif" font-size="14" lengthAdjust="spacing" textLength="233" x="1216.5" y="24.9951">visiteARealiser[i]:VisiteARealiser</text><rect fill="#FEFECE" height="30.2969" style="stroke:#A80036;stroke-width:1.5;" width="117" x="1555.5" y="5"/><text fill="#000000" font-family="sans-serif" font-size="14" lengthAdjust="spacing" textLength="103" x="1562.5" y="24.9951">client[i]:Client</text><rect fill="#FFFFFF" height="28" style="stroke:#A80036;stroke-width:1.0;" width="10" x="488" y="772.0156"/><path d="M46,51.2969 L46,76.2969 L206,76.2969 L206,61.2969 L196,51.2969 L46,51.2969 " fill="#FBFB77" style="stroke:#A80036;stroke-width:1.0;"/><path d="M196,51.2969 L196,61.2969 L206,61.2969 L196,51.2969 " fill="#FBFB77" style="stroke:#A80036;stroke-width:1.0;"/><text fill="#000000" font-family="sans-serif" font-size="13" lengthAdjust="spacing" textLength="139" x="52" y="68.3638">Controleur de session</text><polygon fill="#A80036" points="199,98.5625,209,102.5625,199,106.5625" style="stroke:#A80036;stroke-width:1.0;"/><line style="stroke:#A80036;stroke-width:1.0;" x1="0" x2="205" y1="102.5625" y2="102.5625"/><text fill="#000000" font-family="sans-serif" font-size="13" lengthAdjust="spacing" textLength="187" x="7" y="97.4966">demarrerPropositionHoraire()</text><path d="M216,115.5625 L216,155.5625 L377,155.5625 L377,125.5625 L367,115.5625 L216,115.5625 " fill="#FBFB77" style="stroke:#A80036;stroke-width:1.0;"/><path d="M367,115.5625 L367,125.5625 L377,125.5625 L367,115.5625 " fill="#FBFB77" style="stroke:#A80036;stroke-width:1.0;"/><text fill="#000000" font-family="sans-serif" font-size="13" lengthAdjust="spacing" textLength="140" x="222" y="132.6294">expert en information</text><text fill="#000000" font-family="sans-serif" font-size="13" lengthAdjust="spacing" textLength="58" x="222" y="147.7622">ctrl -&gt; ps</text><polygon fill="#A80036" points="481,177.9609,491,181.9609,481,185.9609" style="stroke:#A80036;stroke-width:1.0;"/><line style="stroke:#A80036;stroke-width:1.0;" x1="211" x2="487" y1="181.9609" y2="181.9609"/><text fill="#000000" font-family="sans-serif" font-size="13" lengthAdjust="spacing" textLength="155" x="218" y="176.895">getPropositionHoraires()</text><path d="M417,196.9609 L495,196.9609 L495,203.9609 L485,213.9609 L417,213.9609 L417,196.9609 " fill="#EEEEEE" style="stroke:#000000;stroke-width:1.0;"/><rect fill="none" height="111.6641" style="stroke:#000000;stroke-width:2.0;" width="679.5" x="417" y="196.9609"/><text fill="#000000" font-family="sans-serif" font-size="13" font-weight="bold" lengthAdjust="spacing" textLength="33" x="432" y="210.0278">loop</text><path d="M498,219.0938 L498,274.0938 L828,274.0938 L828,229.0938 L818,219.0938 L498,219.0938 " fill="#FBFB77" style="stroke:#A80036;stroke-width:1.0;"/><path d="M818,219.0938 L818,229.0938 L828,229.0938 L818,219.0938 " fill="#FBFB77" style="stroke:#A80036;stroke-width:1.0;"/><text fill="#000000" font-family="sans-serif" font-size="13" lengthAdjust="spacing" textLength="140" x="504" y="236.1606">Expert en information</text><text fill="#000000" font-family="sans-serif" font-size="13" lengthAdjust="spacing" textLength="148" x="504" y="251.2935">ps emploie intervenant</text><text fill="#000000" font-family="sans-serif" font-size="13" lengthAdjust="spacing" textLength="309" x="504" y="266.4263">Intevenant posssède des horaire de disponibilité</text><polygon fill="#A80036" points="973,296.625,983,300.625,973,304.625" style="stroke:#A80036;stroke-width:1.0;"/><line style="stroke:#A80036;stroke-width:1.0;" x1="493" x2="979" y1="300.625" y2="300.625"/><text fill="#000000" font-family="sans-serif" font-size="13" lengthAdjust="spacing" textLength="294" x="500" y="295.5591">horaireIntervenants = getHorairesDisponible()</text><path d="M417,322.625 L495,322.625 L495,329.625 L485,339.625 L417,339.625 L417,322.625 " fill="#EEEEEE" style="stroke:#000000;stroke-width:1.0;"/><rect fill="none" height="111.6641" style="stroke:#000000;stroke-width:2.0;" width="792.5" x="417" y="322.625"/><text fill="#000000" font-family="sans-serif" font-size="13" font-weight="bold" lengthAdjust="spacing" textLength="33" x="432" y="335.6919">loop</text><path d="M498,344.7578 L498,399.7578 L792,399.7578 L792,354.7578 L782,344.7578 L498,344.7578 " fill="#FBFB77" style="stroke:#A80036;stroke-width:1.0;"/><path d="M782,344.7578 L782,354.7578 L792,354.7578 L782,344.7578 " fill="#FBFB77" style="stroke:#A80036;stroke-width:1.0;"/><text fill="#000000" font-family="sans-serif" font-size="13" lengthAdjust="spacing" textLength="140" x="504" y="361.8247">Expert en information</text><text fill="#000000" font-family="sans-serif" font-size="13" lengthAdjust="spacing" textLength="106" x="504" y="376.9575">ps possède local</text><text fill="#000000" font-family="sans-serif" font-size="13" lengthAdjust="spacing" textLength="273" x="504" y="392.0903">Local posssède des horaire de disponibilité</text><polygon fill="#A80036" points="1136,422.2891,1146,426.2891,1136,430.2891" style="stroke:#A80036;stroke-width:1.0;"/><line style="stroke:#A80036;stroke-width:1.0;" x1="493" x2="1142" y1="426.2891" y2="426.2891"/><text fill="#000000" font-family="sans-serif" font-size="13" lengthAdjust="spacing" textLength="259" x="500" y="421.2231">horaireLocaux = getHorairesDisponible()</text><path d="M417,448.2891 L495,448.2891 L495,455.2891 L485,465.2891 L417,465.2891 L417,448.2891 " fill="#EEEEEE" style="stroke:#000000;stroke-width:1.0;"/><rect fill="none" height="237.3281" style="stroke:#000000;stroke-width:2.0;" width="1275.5" x="417" y="448.2891"/><text fill="#000000" font-family="sans-serif" font-size="13" font-weight="bold" lengthAdjust="spacing" textLength="33" x="432" y="461.356">loop</text><path d="M498,470.4219 L498,525.4219 L965,525.4219 L965,480.4219 L955,470.4219 L498,470.4219 " fill="#FBFB77" style="stroke:#A80036;stroke-width:1.0;"/><path d="M955,470.4219 L955,480.4219 L965,480.4219 L955,470.4219 " fill="#FBFB77" style="stroke:#A80036;stroke-width:1.0;"/><text fill="#000000" font-family="sans-serif" font-size="13" lengthAdjust="spacing" textLength="140" x="504" y="487.4888">Expert en information</text><text fill="#000000" font-family="sans-serif" font-size="13" lengthAdjust="spacing" textLength="174" x="504" y="502.6216">ps gère les visitesAResliser</text><text fill="#000000" font-family="sans-serif" font-size="13" lengthAdjust="spacing" textLength="446" x="504" y="517.7544">visiteARealiser est pour de clients qui ont des horaires de disponibilité</text><polygon fill="#A80036" points="1321,547.9531,1331,551.9531,1321,555.9531" style="stroke:#A80036;stroke-width:1.0;"/><line style="stroke:#A80036;stroke-width:1.0;" x1="493" x2="1327" y1="551.9531" y2="551.9531"/><text fill="#000000" font-family="sans-serif" font-size="13" lengthAdjust="spacing" textLength="308" x="500" y="546.8872">horaireVisiteARealiser = getHorairesDisponible()</text><path d="M488,566.9531 L566,566.9531 L566,573.9531 L556,583.9531 L488,583.9531 L488,566.9531 " fill="#EEEEEE" style="stroke:#000000;stroke-width:1.0;"/><rect fill="none" height="111.6641" style="stroke:#000000;stroke-width:2.0;" width="1194.5" x="488" y="566.9531"/><text fill="#000000" font-family="sans-serif" font-size="13" font-weight="bold" lengthAdjust="spacing" textLength="33" x="503" y="580.02">loop</text><path d="M498,589.0859 L498,644.0859 L793,644.0859 L793,599.0859 L783,589.0859 L498,589.0859 " fill="#FBFB77" style="stroke:#A80036;stroke-width:1.0;"/><path d="M783,589.0859 L783,599.0859 L793,599.0859 L783,589.0859 " fill="#FBFB77" style="stroke:#A80036;stroke-width:1.0;"/><text fill="#000000" font-family="sans-serif" font-size="13" lengthAdjust="spacing" textLength="140" x="504" y="606.1528">Expert en information</text><text fill="#000000" font-family="sans-serif" font-size="13" lengthAdjust="spacing" textLength="212" x="504" y="621.2856">visiteARealiser connait les clients</text><text fill="#000000" font-family="sans-serif" font-size="13" lengthAdjust="spacing" textLength="274" x="504" y="636.4185">client possède des horaires de disponibilité</text><polygon fill="#A80036" points="1602,666.6172,1612,670.6172,1602,674.6172" style="stroke:#A80036;stroke-width:1.0;"/><line style="stroke:#A80036;stroke-width:1.0;" x1="1333" x2="1608" y1="670.6172" y2="670.6172"/><text fill="#000000" font-family="sans-serif" font-size="13" lengthAdjust="spacing" textLength="257" x="1340" y="665.5513">horaireclient &amp;= getHorairesDisponible()</text><path d="M498,697.6172 L498,737.6172 L1038,737.6172 L1038,707.6172 L1028,697.6172 L498,697.6172 " fill="#FBFB77" style="stroke:#A80036;stroke-width:1.0;"/><path d="M1028,697.6172 L1028,707.6172 L1038,707.6172 L1028,697.6172 " fill="#FBFB77" style="stroke:#A80036;stroke-width:1.0;"/><text fill="#000000" font-family="sans-serif" font-size="13" lengthAdjust="spacing" textLength="140" x="504" y="714.6841">Expert en information</text><text fill="#000000" font-family="sans-serif" font-size="13" lengthAdjust="spacing" textLength="519" x="504" y="729.8169">ps a toute l'information pour s'acquitter de la tâche de faire le calcul des horaires</text><line style="stroke:#A80036;stroke-width:1.0;" x1="498" x2="540" y1="764.0156" y2="764.0156"/><line style="stroke:#A80036;stroke-width:1.0;" x1="540" x2="540" y1="764.0156" y2="777.0156"/><line style="stroke:#A80036;stroke-width:1.0;" x1="499" x2="540" y1="777.0156" y2="777.0156"/><polygon fill="#A80036" points="509,773.0156,499,777.0156,509,781.0156" style="stroke:#A80036;stroke-width:1.0;"/><text fill="#000000" font-family="sans-serif" font-size="13" lengthAdjust="spacing" textLength="478" x="505" y="758.9497">proposerHoraire(horaireIntervenants,horaireLocaux,horaireVisiteARealiser)</text><polygon fill="#A80036" points="222,907.8125,212,911.8125,222,915.8125" style="stroke:#A80036;stroke-width:1.0;"/><line style="stroke:#A80036;stroke-width:1.0;stroke-dasharray:2.0,2.0;" x1="216" x2="492" y1="911.8125" y2="911.8125"/><text fill="#000000" font-family="sans-serif" font-size="13" lengthAdjust="spacing" textLength="258" x="228" y="831.0825">[intervenant[nom:string,prenom:string],</text><text fill="#000000" font-family="sans-serif" font-size="13" lengthAdjust="spacing" textLength="196" x="228" y="846.2153">local[nom:string, capacite:int],</text><text fill="#000000" font-family="sans-serif" font-size="13" lengthAdjust="spacing" textLength="208" x="228" y="861.3481">dateDebut:string, dateFin string,</text><text fill="#000000" font-family="sans-serif" font-size="13" lengthAdjust="spacing" textLength="153" x="228" y="876.481">parents[nom,prenom]?,</text><text fill="#000000" font-family="sans-serif" font-size="13" lengthAdjust="spacing" textLength="158" x="228" y="891.6138">visiteurs[nom,prenom]?,</text><text fill="#000000" font-family="sans-serif" font-size="13" lengthAdjust="spacing" textLength="149" x="228" y="906.7466">visiteARealiser:integer]</text><!--MD5=[9aab8e582886fc5436908c34cb8b2749]
@startuml
skinparam style strictuml
 participant ":ControleurPropositionHoraire" as C
 participant ":ps:PointService" as PS
 participant "intervenant[i]:Intervenant" as I
 participant "local[i]:Local" as L
 participant "visiteARealiser[i]:VisiteARealiser" as VR
 participant "client[i]:Client" as CL

 note left of C: Controleur de session
 -> C: demarrerPropositionHoraire()
 note right of C: expert en information\nctrl -> ps
 C -> PS: getPropositionHoraires()

loop
    note right of PS: Expert en information\nps emploie intervenant\nIntevenant posssède des horaire de disponibilité
    PS -> I: horaireIntervenants = getHorairesDisponible()
end
loop
    note right of PS: Expert en information\nps possède local\nLocal posssède des horaire de disponibilité
    PS -> L: horaireLocaux = getHorairesDisponible()
end
loop
    note right of PS: Expert en information\nps gère les visitesAResliser\nvisiteARealiser est pour de clients qui ont des horaires de disponibilité
    PS -> VR: horaireVisiteARealiser = getHorairesDisponible()
    loop
    
    note right of PS: Expert en information\nvisiteARealiser connait les clients\nclient possède des horaires de disponibilité
    VR -> CL: horaireclient &= getHorairesDisponible()
    end
 end

note right of PS: Expert en information\nps a toute l'information pour s'acquitter de la tâche de faire le calcul des horaires
 PS -> PS: proposerHoraire(horaireIntervenants,horaireLocaux,horaireVisiteARealiser)
 activate PS
 deactivate PS
PS - -> C: [intervenant[nom:string,prenom:string],\nlocal[nom:string, capacite:int], \ndateDebut:string, dateFin string,  \nparents[nom,prenom]?, \nvisiteurs[nom,prenom]?, \nvisiteARealiser:integer]
@enduml

PlantUML version 1.2021.2beta6(Unknown compile time)
(GPL source distribution)
Java Runtime: Java(TM) SE Runtime Environment
JVM: Java HotSpot(TM) 64-Bit Server VM
Default Encoding: UTF-8
Language: en
Country: US
--></g></svg>