<?xml version="1.0" encoding="UTF-8" standalone="no"?><svg xmlns="http://www.w3.org/2000/svg" xmlns:xlink="http://www.w3.org/1999/xlink" contentScriptType="application/ecmascript" contentStyleType="text/css" height="688px" preserveAspectRatio="none" style="width:1170px;height:688px;" version="1.1" viewBox="0 0 1170 688" width="1170px" zoomAndPan="magnify"><defs/><g><rect fill="#FFFFFF" height="422.125" style="stroke:#000000;stroke-width:2.0;" width="847.5" x="316.5" y="242.3594"/><rect fill="#FFFFFF" height="204.0625" style="stroke:#000000;stroke-width:2.0;" width="695.5" x="458.5" y="361.0234"/><line style="stroke:#A80036;stroke-width:1.0;stroke-dasharray:5.0,5.0;" x1="200.5" x2="200.5" y1="36.2969" y2="681.4844"/><line style="stroke:#A80036;stroke-width:1.0;stroke-dasharray:5.0,5.0;" x1="392.5" x2="392.5" y1="36.2969" y2="681.4844"/><line style="stroke:#A80036;stroke-width:1.0;stroke-dasharray:5.0,5.0;" x1="547.5" x2="547.5" y1="36.2969" y2="681.4844"/><line style="stroke:#A80036;stroke-width:1.0;stroke-dasharray:5.0,5.0;" x1="893" x2="893" y1="36.2969" y2="681.4844"/><rect fill="#FEFECE" height="30.2969" style="stroke:#A80036;stroke-width:1.5;" width="231" x="85.5" y="5"/><text fill="#000000" font-family="sans-serif" font-size="14" lengthAdjust="spacing" textLength="217" x="92.5" y="24.9951">:ControleurPropositionHoraire</text><rect fill="#FEFECE" height="30.2969" style="stroke:#A80036;stroke-width:1.5;" width="132" x="326.5" y="5"/><text fill="#000000" font-family="sans-serif" font-size="14" lengthAdjust="spacing" textLength="118" x="333.5" y="24.9951">:ps:PointService</text><rect fill="#FEFECE" height="30.2969" style="stroke:#A80036;stroke-width:1.5;" width="159" x="468.5" y="5"/><text fill="#000000" font-family="sans-serif" font-size="14" lengthAdjust="spacing" textLength="145" x="475.5" y="24.9951">employe[i]:Employe</text><rect fill="#FEFECE" height="30.2969" style="stroke:#A80036;stroke-width:1.5;" width="178" x="804" y="5"/><text fill="#000000" font-family="sans-serif" font-size="14" lengthAdjust="spacing" textLength="164" x="811" y="24.9951">:List&lt;VisiteSupervise&gt;</text><path d="M5,51.2969 L5,91.2969 L196,91.2969 L196,61.2969 L186,51.2969 L5,51.2969 " fill="#FBFB77" style="stroke:#A80036;stroke-width:1.0;"/><path d="M186,51.2969 L186,61.2969 L196,61.2969 L186,51.2969 " fill="#FBFB77" style="stroke:#A80036;stroke-width:1.0;"/><text fill="#000000" font-family="sans-serif" font-size="13" lengthAdjust="spacing" textLength="67" x="11" y="68.3638">Controleur</text><text fill="#000000" font-family="sans-serif" font-size="13" lengthAdjust="spacing" textLength="166" x="15" y="83.4966">voir opération précédente</text><polygon fill="#A80036" points="189,113.6953,199,117.6953,189,121.6953" style="stroke:#A80036;stroke-width:1.0;"/><line style="stroke:#A80036;stroke-width:1.0;" x1="0" x2="195" y1="117.6953" y2="117.6953"/><text fill="#000000" font-family="sans-serif" font-size="13" lengthAdjust="spacing" textLength="118" x="7" y="112.6294">confirmerHoraire()</text><path d="M206,130.6953 L206,200.6953 L554,200.6953 L554,140.6953 L544,130.6953 L206,130.6953 " fill="#FBFB77" style="stroke:#A80036;stroke-width:1.0;"/><path d="M544,130.6953 L544,140.6953 L554,140.6953 L544,130.6953 " fill="#FBFB77" style="stroke:#A80036;stroke-width:1.0;"/><text fill="#000000" font-family="sans-serif" font-size="13" lengthAdjust="spacing" textLength="140" x="212" y="147.7622">Expert en information</text><text fill="#000000" font-family="sans-serif" font-size="13" lengthAdjust="spacing" textLength="327" x="212" y="162.895">ctrl a une visibilité sur l'objet racide ps:PointService</text><text fill="#000000" font-family="sans-serif" font-size="13" lengthAdjust="spacing" textLength="226" x="212" y="178.0278">PointService employe des Employe</text><text fill="#000000" font-family="sans-serif" font-size="13" lengthAdjust="spacing" textLength="251" x="212" y="193.1606">Employé connait son horaire et courriel</text><polygon fill="#A80036" points="380.5,223.3594,390.5,227.3594,380.5,231.3594" style="stroke:#A80036;stroke-width:1.0;"/><line style="stroke:#A80036;stroke-width:1.0;" x1="201" x2="386.5" y1="227.3594" y2="227.3594"/><text fill="#000000" font-family="sans-serif" font-size="13" lengthAdjust="spacing" textLength="118" x="208" y="222.2935">confirmerHoraire()</text><path d="M316.5,242.3594 L394.5,242.3594 L394.5,249.3594 L384.5,259.3594 L316.5,259.3594 L316.5,242.3594 " fill="#EEEEEE" style="stroke:#000000;stroke-width:1.0;"/><rect fill="none" height="422.125" style="stroke:#000000;stroke-width:2.0;" width="847.5" x="316.5" y="242.3594"/><text fill="#000000" font-family="sans-serif" font-size="13" font-weight="bold" lengthAdjust="spacing" textLength="33" x="331.5" y="255.4263">loop</text><path d="M397,264.4922 L397,319.4922 L601,319.4922 L601,274.4922 L591,264.4922 L397,264.4922 " fill="#FBFB77" style="stroke:#A80036;stroke-width:1.0;"/><path d="M591,264.4922 L591,274.4922 L601,274.4922 L591,264.4922 " fill="#FBFB77" style="stroke:#A80036;stroke-width:1.0;"/><text fill="#000000" font-family="sans-serif" font-size="13" lengthAdjust="spacing" textLength="140" x="403" y="281.5591">Expert en information</text><text fill="#000000" font-family="sans-serif" font-size="13" lengthAdjust="spacing" textLength="159" x="403" y="296.6919">ps connait ses employés</text><text fill="#000000" font-family="sans-serif" font-size="13" lengthAdjust="spacing" textLength="183" x="403" y="311.8247">Employe connait son horaire</text><polygon fill="#A80036" points="536,342.0234,546,346.0234,536,350.0234" style="stroke:#A80036;stroke-width:1.0;"/><line style="stroke:#A80036;stroke-width:1.0;" x1="392.5" x2="542" y1="346.0234" y2="346.0234"/><text fill="#000000" font-family="sans-serif" font-size="13" lengthAdjust="spacing" textLength="118" x="399.5" y="340.9575">confirmerHoraire()</text><path d="M458.5,361.0234 L536.5,361.0234 L536.5,368.0234 L526.5,378.0234 L458.5,378.0234 L458.5,361.0234 " fill="#EEEEEE" style="stroke:#000000;stroke-width:1.0;"/><rect fill="none" height="204.0625" style="stroke:#000000;stroke-width:2.0;" width="695.5" x="458.5" y="361.0234"/><text fill="#000000" font-family="sans-serif" font-size="13" font-weight="bold" lengthAdjust="spacing" textLength="33" x="473.5" y="374.0903">loop</text><path d="M553,383.1563 L553,438.1563 L861,438.1563 L861,393.1563 L851,383.1563 L553,383.1563 " fill="#FBFB77" style="stroke:#A80036;stroke-width:1.0;"/><path d="M851,383.1563 L851,393.1563 L861,393.1563 L851,383.1563 " fill="#FBFB77" style="stroke:#A80036;stroke-width:1.0;"/><text fill="#000000" font-family="sans-serif" font-size="13" lengthAdjust="spacing" textLength="140" x="559" y="400.2231">Expert en information</text><text fill="#000000" font-family="sans-serif" font-size="13" lengthAdjust="spacing" textLength="287" x="559" y="415.356">Employe supervise plusieurs visite supervisé</text><text fill="#000000" font-family="sans-serif" font-size="13" lengthAdjust="spacing" textLength="228" x="559" y="430.4888">Visite supervisé connait son horaire</text><polygon fill="#A80036" points="881,460.6875,891,464.6875,881,468.6875" style="stroke:#A80036;stroke-width:1.0;"/><line style="stroke:#A80036;stroke-width:1.0;" x1="548" x2="887" y1="464.6875" y2="464.6875"/><text fill="#000000" font-family="sans-serif" font-size="13" lengthAdjust="spacing" textLength="321" x="555" y="459.6216">horaireDeTravail &amp;= findNewVisiteSupervise(now)</text><path d="M898,477.6875 L898,517.6875 L1144,517.6875 L1144,487.6875 L1134,477.6875 L898,477.6875 " fill="#FBFB77" style="stroke:#A80036;stroke-width:1.0;"/><path d="M1134,477.6875 L1134,487.6875 L1144,487.6875 L1134,477.6875 " fill="#FBFB77" style="stroke:#A80036;stroke-width:1.0;"/><text fill="#000000" font-family="sans-serif" font-size="13" lengthAdjust="spacing" textLength="140" x="904" y="494.7544">Expert en information</text><text fill="#000000" font-family="sans-serif" font-size="13" lengthAdjust="spacing" textLength="225" x="904" y="509.8872">VisiteSupervisé connait son horaire</text><line style="stroke:#A80036;stroke-width:1.0;" x1="893" x2="935" y1="544.0859" y2="544.0859"/><line style="stroke:#A80036;stroke-width:1.0;" x1="935" x2="935" y1="544.0859" y2="557.0859"/><line style="stroke:#A80036;stroke-width:1.0;" x1="894" x2="935" y1="557.0859" y2="557.0859"/><polygon fill="#A80036" points="904,553.0859,894,557.0859,904,561.0859" style="stroke:#A80036;stroke-width:1.0;"/><text fill="#000000" font-family="sans-serif" font-size="13" lengthAdjust="spacing" textLength="140" x="900" y="539.02">horaire = getHoraire()</text><path d="M553,577.0859 L553,617.0859 L852,617.0859 L852,587.0859 L842,577.0859 L553,577.0859 " fill="#FBFB77" style="stroke:#A80036;stroke-width:1.0;"/><path d="M842,577.0859 L842,587.0859 L852,587.0859 L842,577.0859 " fill="#FBFB77" style="stroke:#A80036;stroke-width:1.0;"/><text fill="#000000" font-family="sans-serif" font-size="13" lengthAdjust="spacing" textLength="259" x="559" y="594.1528">Expert en information et faire soi-même</text><text fill="#000000" font-family="sans-serif" font-size="13" lengthAdjust="spacing" textLength="278" x="559" y="609.2856">Employe connait son horaire et son courriel</text><line style="stroke:#A80036;stroke-width:1.0;" x1="548" x2="590" y1="643.4844" y2="643.4844"/><line style="stroke:#A80036;stroke-width:1.0;" x1="590" x2="590" y1="643.4844" y2="656.4844"/><line style="stroke:#A80036;stroke-width:1.0;" x1="549" x2="590" y1="656.4844" y2="656.4844"/><polygon fill="#A80036" points="559,652.4844,549,656.4844,559,660.4844" style="stroke:#A80036;stroke-width:1.0;"/><text fill="#000000" font-family="sans-serif" font-size="13" lengthAdjust="spacing" textLength="264" x="555" y="638.4185">envoyerCourrielHoraire(horaireDeTravail)</text><!--MD5=[3e1fbcbb1a7b61ffb64fe70bd4ace529]
@startuml
skinparam style strictuml
participant ":ControleurPropositionHoraire" as C
participant ":ps:PointService" as PS
participant "employe[i]:Employe" as E
participant ":List<VisiteSupervise>" as LVS

note left of C: Controleur\n voir opération précédente
-> C: confirmerHoraire()
note right of C: Expert en information\nctrl a une visibilité sur l'objet racide ps:PointService\nPointService employe des Employe\nEmployé connait son horaire et courriel
C -> PS: confirmerHoraire()
loop 
note right of PS: Expert en information\nps connait ses employés\nEmploye connait son horaire
    PS -> E: confirmerHoraire()
    loop
        note right of E: Expert en information\nEmploye supervise plusieurs visite supervisé\nVisite supervisé connait son horaire
        E -> LVS: horaireDeTravail &= findNewVisiteSupervise(now)
        note right of LVS: Expert en information\nVisiteSupervisé connait son horaire
        
        LVS -> LVS: horaire = getHoraire()
    end
    note right of E: Expert en information et faire soi-même\nEmploye connait son horaire et son courriel
    E -> E: envoyerCourrielHoraire(horaireDeTravail)
end
@enduml

PlantUML version 1.2021.2beta6(Unknown compile time)
(GPL source distribution)
Java Runtime: Java(TM) SE Runtime Environment
JVM: Java HotSpot(TM) 64-Bit Server VM
Default Encoding: UTF-8
Language: en
Country: US
--></g></svg>