<?xml version="1.0" encoding="UTF-8" standalone="no"?><svg xmlns="http://www.w3.org/2000/svg" xmlns:xlink="http://www.w3.org/1999/xlink" contentScriptType="application/ecmascript" contentStyleType="text/css" height="572px" preserveAspectRatio="none" style="width:702px;height:572px;background:#FFFFFF;" version="1.1" viewBox="0 0 702 572" width="702px" zoomAndPan="magnify"><defs><filter height="300%" id="f16uaw3itmtdas" width="300%" x="-1" y="-1"><feGaussianBlur result="blurOut" stdDeviation="2.0"/><feColorMatrix in="blurOut" result="blurOut2" type="matrix" values="0 0 0 0 0 0 0 0 0 0 0 0 0 0 0 0 0 0 .4 0"/><feOffset dx="4.0" dy="4.0" in="blurOut2" result="blurOut3"/><feBlend in="SourceGraphic" in2="blurOut3" mode="normal"/></filter></defs><g><text fill="#000000" font-family="sans-serif" font-size="18" lengthAdjust="spacing" textLength="147" x="271" y="16.708">Mise en plateau</text><!--MD5=[07a55063f269c7dbdc634b5422273879]
class Caisse--><rect codeLine="2" fill="#FEFECE" filter="url(#f16uaw3itmtdas)" height="169.1797" id="Caisse" style="stroke:#A80036;stroke-width:1.5;" width="255" x="203.5" y="235.9531"/><ellipse cx="284.75" cy="254.9219" fill="#ADD1B2" rx="11" ry="11" style="stroke:#A80036;stroke-width:1.0;"/><path d="M287.0938,250.5938 C286.1563,250.1563 285.5625,250.0156 284.6875,250.0156 C282.0625,250.0156 280.0625,252.0938 280.0625,254.8125 L280.0625,255.9375 C280.0625,258.5156 282.1719,260.4063 285.0625,260.4063 C286.2813,260.4063 287.4375,260.1094 288.1875,259.5625 C288.7656,259.1563 289.0938,258.7031 289.0938,258.3125 C289.0938,257.8594 288.7031,257.4688 288.2344,257.4688 C288.0156,257.4688 287.8125,257.5469 287.625,257.7344 C287.1719,258.2188 287.1719,258.2188 286.9844,258.3125 C286.5625,258.5781 285.875,258.7031 285.1094,258.7031 C283.0625,258.7031 281.7656,257.6094 281.7656,255.9063 L281.7656,254.8125 C281.7656,253.0313 283.0156,251.7188 284.75,251.7188 C285.3281,251.7188 285.9375,251.875 286.4063,252.125 C286.8906,252.4063 287.0625,252.625 287.1563,253.0313 C287.2188,253.4375 287.25,253.5625 287.3906,253.6875 C287.5313,253.8281 287.7656,253.9375 287.9844,253.9375 C288.25,253.9375 288.5156,253.7969 288.6875,253.5781 C288.7969,253.4219 288.8281,253.2344 288.8281,252.8125 L288.8281,251.3906 C288.8281,250.9531 288.8125,250.8281 288.7188,250.6719 C288.5625,250.4063 288.2813,250.2656 287.9844,250.2656 C287.6875,250.2656 287.4844,250.3594 287.2656,250.6719 L287.0938,250.5938 Z " fill="#000000"/><text fill="#000000" font-family="sans-serif" font-size="12" font-style="italic" lengthAdjust="spacing" textLength="88" x="303.25" y="252.0918">«Equipement»</text><text fill="#000000" font-family="sans-serif" font-size="12" lengthAdjust="spacing" textLength="40" x="327.25" y="266.0605">Caisse</text><line style="stroke:#A80036;stroke-width:1.5;" x1="204.5" x2="457.5" y1="273.8906" y2="273.8906"/><text fill="#000000" font-family="sans-serif" font-size="11" lengthAdjust="spacing" textLength="241" x="209.5" y="288.1011">plateaux: Map&lt;identifiant:string, :Plateau&gt;</text><text fill="#000000" font-family="sans-serif" font-size="11" lengthAdjust="spacing" textLength="243" x="209.5" y="300.9058">caissiers: Map&lt;identifiant:string, :Caissier&gt;</text><line style="stroke:#A80036;stroke-width:1.5;" x1="204.5" x2="457.5" y1="307.5" y2="307.5"/><text fill="#000000" font-family="sans-serif" font-size="11" lengthAdjust="spacing" textLength="143" x="223.5" y="321.7104">demarrerMiseEnPlateau()</text><text fill="#000000" font-family="sans-serif" font-size="11" lengthAdjust="spacing" textLength="228" x="223.5" y="334.5151">authetifier(identifiant: string, mdp:string)</text><text fill="#000000" font-family="sans-serif" font-size="11" lengthAdjust="spacing" textLength="173" x="223.5" y="347.3198">poserPlateau(identifiant:string)</text><text fill="#000000" font-family="sans-serif" font-size="11" lengthAdjust="spacing" textLength="169" x="223.5" y="360.1245">crediterPlateau(montant:float)</text><text fill="#000000" font-family="sans-serif" font-size="11" lengthAdjust="spacing" textLength="113" x="223.5" y="372.9292">fermerTiroirCaisse()</text><rect fill="#F24D5C" height="6" style="stroke:#C82930;stroke-width:1.0;" width="6" x="211.5" y="379.5234"/><text fill="#000000" font-family="sans-serif" font-size="11" lengthAdjust="spacing" textLength="148" x="223.5" y="385.7339">fermetureDuTiroirCaisse()</text><rect fill="#F24D5C" height="6" style="stroke:#C82930;stroke-width:1.0;" width="6" x="211.5" y="392.3281"/><text fill="#000000" font-family="sans-serif" font-size="11" lengthAdjust="spacing" textLength="108" x="223.5" y="398.5386">OuvrirTiroirCaisse()</text><!--MD5=[712b49a80551510261ad10524cc74d81]
class Plateau--><rect codeLine="13" fill="#FEFECE" filter="url(#f16uaw3itmtdas)" height="66.7422" id="Plateau" style="stroke:#A80036;stroke-width:1.5;" width="292" x="7" y="478.4531"/><ellipse cx="22" cy="497.4219" fill="#ADD1B2" rx="11" ry="11" style="stroke:#A80036;stroke-width:1.0;"/><path d="M24.3438,493.0938 C23.4063,492.6563 22.8125,492.5156 21.9375,492.5156 C19.3125,492.5156 17.3125,494.5938 17.3125,497.3125 L17.3125,498.4375 C17.3125,501.0156 19.4219,502.9063 22.3125,502.9063 C23.5313,502.9063 24.6875,502.6094 25.4375,502.0625 C26.0156,501.6563 26.3438,501.2031 26.3438,500.8125 C26.3438,500.3594 25.9531,499.9688 25.4844,499.9688 C25.2656,499.9688 25.0625,500.0469 24.875,500.2344 C24.4219,500.7188 24.4219,500.7188 24.2344,500.8125 C23.8125,501.0781 23.125,501.2031 22.3594,501.2031 C20.3125,501.2031 19.0156,500.1094 19.0156,498.4063 L19.0156,497.3125 C19.0156,495.5313 20.2656,494.2188 22,494.2188 C22.5781,494.2188 23.1875,494.375 23.6563,494.625 C24.1406,494.9063 24.3125,495.125 24.4063,495.5313 C24.4688,495.9375 24.5,496.0625 24.6406,496.1875 C24.7813,496.3281 25.0156,496.4375 25.2344,496.4375 C25.5,496.4375 25.7656,496.2969 25.9375,496.0781 C26.0469,495.9219 26.0781,495.7344 26.0781,495.3125 L26.0781,493.8906 C26.0781,493.4531 26.0625,493.3281 25.9688,493.1719 C25.8125,492.9063 25.5313,492.7656 25.2344,492.7656 C24.9375,492.7656 24.7344,492.8594 24.5156,493.1719 L24.3438,493.0938 Z " fill="#000000"/><text fill="#000000" font-family="sans-serif" font-size="12" font-style="italic" lengthAdjust="spacing" textLength="264" x="34" y="494.5918">«ObjectPhysique,Contenue de TirroirCaisse»</text><text fill="#000000" font-family="sans-serif" font-size="12" lengthAdjust="spacing" textLength="42" x="145" y="508.5605">Plateau</text><line style="stroke:#A80036;stroke-width:1.5;" x1="8" x2="298" y1="516.3906" y2="516.3906"/><text fill="#000000" font-family="sans-serif" font-size="11" lengthAdjust="spacing" textLength="115" x="13" y="530.6011">identificateur: String</text><line style="stroke:#A80036;stroke-width:1.5;" x1="8" x2="298" y1="537.1953" y2="537.1953"/><!--MD5=[98eeb74eaf23105b6735feaa9bb105de]
class Caissier--><rect codeLine="16" fill="#FEFECE" filter="url(#f16uaw3itmtdas)" height="92.3516" id="Caissier" style="stroke:#A80036;stroke-width:1.5;" width="342" x="346" y="465.9531"/><ellipse cx="488.75" cy="484.9219" fill="#ADD1B2" rx="11" ry="11" style="stroke:#A80036;stroke-width:1.0;"/><path d="M491.0938,480.5938 C490.1563,480.1563 489.5625,480.0156 488.6875,480.0156 C486.0625,480.0156 484.0625,482.0938 484.0625,484.8125 L484.0625,485.9375 C484.0625,488.5156 486.1719,490.4063 489.0625,490.4063 C490.2813,490.4063 491.4375,490.1094 492.1875,489.5625 C492.7656,489.1563 493.0938,488.7031 493.0938,488.3125 C493.0938,487.8594 492.7031,487.4688 492.2344,487.4688 C492.0156,487.4688 491.8125,487.5469 491.625,487.7344 C491.1719,488.2188 491.1719,488.2188 490.9844,488.3125 C490.5625,488.5781 489.875,488.7031 489.1094,488.7031 C487.0625,488.7031 485.7656,487.6094 485.7656,485.9063 L485.7656,484.8125 C485.7656,483.0313 487.0156,481.7188 488.75,481.7188 C489.3281,481.7188 489.9375,481.875 490.4063,482.125 C490.8906,482.4063 491.0625,482.625 491.1563,483.0313 C491.2188,483.4375 491.25,483.5625 491.3906,483.6875 C491.5313,483.8281 491.7656,483.9375 491.9844,483.9375 C492.25,483.9375 492.5156,483.7969 492.6875,483.5781 C492.7969,483.4219 492.8281,483.2344 492.8281,482.8125 L492.8281,481.3906 C492.8281,480.9531 492.8125,480.8281 492.7188,480.6719 C492.5625,480.4063 492.2813,480.2656 491.9844,480.2656 C491.6875,480.2656 491.4844,480.3594 491.2656,480.6719 L491.0938,480.5938 Z " fill="#000000"/><text fill="#000000" font-family="sans-serif" font-size="12" font-style="italic" lengthAdjust="spacing" textLength="39" x="513.75" y="482.0918">«Role»</text><text fill="#000000" font-family="sans-serif" font-size="12" lengthAdjust="spacing" textLength="48" x="509.25" y="496.0605">Caissier</text><line style="stroke:#A80036;stroke-width:1.5;" x1="347" x2="687" y1="503.8906" y2="503.8906"/><text fill="#000000" font-family="sans-serif" font-size="11" lengthAdjust="spacing" textLength="97" x="352" y="518.1011">identifiant: String</text><text fill="#000000" font-family="sans-serif" font-size="11" lengthAdjust="spacing" textLength="108" x="352" y="530.9058">motDePasse:String</text><line style="stroke:#A80036;stroke-width:1.5;" x1="347" x2="687" y1="537.5" y2="537.5"/><text fill="#000000" font-family="sans-serif" font-size="11" lengthAdjust="spacing" textLength="330" x="352" y="551.7104">authentifier(identifiant:string, motDePasse:string): Caissier</text><!--MD5=[032ef2127df1a6ed428e1fd9d2a5706b]
class MiseEnPlateau--><rect codeLine="23" fill="#FEFECE" filter="url(#f16uaw3itmtdas)" height="130.7656" id="MiseEnPlateau" style="stroke:#A80036;stroke-width:1.5;" width="375" x="143.5" y="27.9531"/><ellipse cx="284.75" cy="46.9219" fill="#ADD1B2" rx="11" ry="11" style="stroke:#A80036;stroke-width:1.0;"/><path d="M287.0938,42.5938 C286.1563,42.1563 285.5625,42.0156 284.6875,42.0156 C282.0625,42.0156 280.0625,44.0938 280.0625,46.8125 L280.0625,47.9375 C280.0625,50.5156 282.1719,52.4063 285.0625,52.4063 C286.2813,52.4063 287.4375,52.1094 288.1875,51.5625 C288.7656,51.1563 289.0938,50.7031 289.0938,50.3125 C289.0938,49.8594 288.7031,49.4688 288.2344,49.4688 C288.0156,49.4688 287.8125,49.5469 287.625,49.7344 C287.1719,50.2188 287.1719,50.2188 286.9844,50.3125 C286.5625,50.5781 285.875,50.7031 285.1094,50.7031 C283.0625,50.7031 281.7656,49.6094 281.7656,47.9063 L281.7656,46.8125 C281.7656,45.0313 283.0156,43.7188 284.75,43.7188 C285.3281,43.7188 285.9375,43.875 286.4063,44.125 C286.8906,44.4063 287.0625,44.625 287.1563,45.0313 C287.2188,45.4375 287.25,45.5625 287.3906,45.6875 C287.5313,45.8281 287.7656,45.9375 287.9844,45.9375 C288.25,45.9375 288.5156,45.7969 288.6875,45.5781 C288.7969,45.4219 288.8281,45.2344 288.8281,44.8125 L288.8281,43.3906 C288.8281,42.9531 288.8125,42.8281 288.7188,42.6719 C288.5625,42.4063 288.2813,42.2656 287.9844,42.2656 C287.6875,42.2656 287.4844,42.3594 287.2656,42.6719 L287.0938,42.5938 Z " fill="#000000"/><text fill="#000000" font-family="sans-serif" font-size="12" font-style="italic" lengthAdjust="spacing" textLength="84" x="305.25" y="44.0918">«Transaction»</text><text fill="#000000" font-family="sans-serif" font-size="12" lengthAdjust="spacing" textLength="84" x="305.25" y="58.0605">MiseEnPlateau</text><line style="stroke:#A80036;stroke-width:1.5;" x1="144.5" x2="517.5" y1="65.8906" y2="65.8906"/><text fill="#000000" font-family="sans-serif" font-size="11" lengthAdjust="spacing" textLength="93" x="149.5" y="80.1011">Montant: Double</text><text fill="#000000" font-family="sans-serif" font-size="11" lengthAdjust="spacing" textLength="130" x="149.5" y="92.9058">heureDebut: Datetime</text><text fill="#000000" font-family="sans-serif" font-size="11" lengthAdjust="spacing" textLength="110" x="149.5" y="105.7104">heureFin:DateTime</text><line style="stroke:#A80036;stroke-width:1.5;" x1="144.5" x2="517.5" y1="112.3047" y2="112.3047"/><rect fill="#F24D5C" height="6" style="stroke:#C82930;stroke-width:1.0;" width="6" x="151.5" y="120.3047"/><text fill="#000000" font-family="sans-serif" font-size="11" lengthAdjust="spacing" textLength="88" x="163.5" y="126.5151">setDateArrive()</text><text fill="#000000" font-family="sans-serif" font-size="11" lengthAdjust="spacing" textLength="177" x="163.5" y="139.3198">setMontant(montant:float): void</text><text fill="#000000" font-family="sans-serif" font-size="11" lengthAdjust="spacing" textLength="349" x="163.5" y="152.1245">MiseEnPlateau(c:Caisse, ca:Caissier,p:Plateau): MiseEnPlateau</text><!--MD5=[b06d5ed97b600417b84cc2cdc5e77a35]
link MiseEnPlateau to Plateau--><path codeLine="33" d="M213.684,159.1221 C186.907,179.9121 161.955,205.5861 147,235.9531 C107.757,315.6371 128.706,424.7011 143.097,478.3873 " fill="none" id="MiseEnPlateau-Plateau" style="stroke:#A80036;stroke-width:1.0;"/><text fill="#000000" font-family="sans-serif" font-size="13" lengthAdjust="spacing" textLength="37" x="148" y="325.02">utilise</text><text fill="#000000" font-family="sans-serif" font-size="13" lengthAdjust="spacing" textLength="7" x="194.2249" y="178.7535">*</text><text fill="#000000" font-family="sans-serif" font-size="13" lengthAdjust="spacing" textLength="8" x="132.3598" y="467.4078">1</text><!--MD5=[9bd4b1680024e41a74a5316a1d8cf16d]
link MiseEnPlateau to Caissier--><path codeLine="34" d="M415.732,159.0411 C438.866,180.9381 461.519,207.2111 476,235.9531 C513.357,310.1001 519.023,408.7511 518.72,465.5083 " fill="none" id="MiseEnPlateau-Caissier" style="stroke:#A80036;stroke-width:1.0;"/><text fill="#000000" font-family="sans-serif" font-size="13" lengthAdjust="spacing" textLength="91" x="517" y="325.02">est réalisé par</text><text fill="#000000" font-family="sans-serif" font-size="13" lengthAdjust="spacing" textLength="7" x="417.1091" y="178.6642">*</text><text fill="#000000" font-family="sans-serif" font-size="13" lengthAdjust="spacing" textLength="8" x="510.3994" y="454.9736">1</text><!--MD5=[7cc9deed6936eb2bfc8d97e7c5878126]
link MiseEnPlateau to Caisse--><path codeLine="35" d="M331,159.2301 C331,183.1181 331,210.5291 331,235.8461 " fill="none" id="MiseEnPlateau-Caisse" style="stroke:#A80036;stroke-width:1.0;"/><text fill="#000000" font-family="sans-serif" font-size="13" lengthAdjust="spacing" textLength="88" x="332" y="202.02">s'effectue sur</text><text fill="#000000" font-family="sans-serif" font-size="13" lengthAdjust="spacing" textLength="7" x="323.6391" y="178.8726">*</text><text fill="#000000" font-family="sans-serif" font-size="13" lengthAdjust="spacing" textLength="8" x="322.6563" y="224.9956">1</text><!--MD5=[a593612b4a21b728322c5edf45c2e216]
link Caisse to Plateau--><path codeLine="36" d="M252.408,405.1221 C229.707,429.2901 206.091,454.4321 187.575,474.1443 " fill="none" id="Caisse-to-Plateau" style="stroke:#A80036;stroke-width:1.0;"/><polygon fill="#A80036" points="183.942,478.0124,193.0194,474.1913,187.3653,474.3681,187.1885,468.714,183.942,478.0124" style="stroke:#A80036;stroke-width:1.0;"/><text fill="#000000" font-family="sans-serif" font-size="13" lengthAdjust="spacing" textLength="7" x="182.0016" y="467.4747">*</text><!--MD5=[68345e7eaa3e96fab5177f64f53b174f]
link Caisse to Caissier--><path codeLine="37" d="M413.124,405.1221 C432.214,424.5721 451.924,444.6531 468.977,462.0263 " fill="none" id="Caisse-to-Caissier" style="stroke:#A80036;stroke-width:1.0;"/><polygon fill="#A80036" points="472.799,465.9204,469.3476,456.6961,469.2959,462.3527,463.6393,462.3011,472.799,465.9204" style="stroke:#A80036;stroke-width:1.0;"/><text fill="#000000" font-family="sans-serif" font-size="13" lengthAdjust="spacing" textLength="7" x="458.4948" y="454.773">*</text><!--MD5=[183058f988e1202897bcc8f6cbcc3f7b]
@startuml
title Mise en plateau
class Caisse <<Equipement>> {
  plateaux: Map<identifiant:string, :Plateau>
  caissiers: Map<identifiant:string, :Caissier>
  demarrerMiseEnPlateau()
  authetifier(identifiant: string, mdp:string)
  poserPlateau(identifiant:string)
  crediterPlateau(montant:float)
  fermerTiroirCaisse() 
  - fermetureDuTiroirCaisse() 
  - OuvrirTiroirCaisse()
}
class Plateau <<ObjectPhysique,Contenue de TirroirCaisse>> {
  identificateur: String
}
class Caissier <<Role>> {
identifiant: String
motDePasse:String
authentifier(identifiant:string, motDePasse:string): Caissier
}


class MiseEnPlateau<<Transaction>> {
    Montant: Double
    heureDebut: Datetime
    heureFin:DateTime
    - setDateArrive()
    setMontant(montant:float): void
    MiseEnPlateau(c:Caisse, ca:Caissier,p:Plateau): MiseEnPlateau
}


MiseEnPlateau "*" - - "1" Plateau: utilise
MiseEnPlateau "*" - - "1" Caissier: est réalisé par
MiseEnPlateau "*" - - "1" Caisse: s'effectue sur 
Caisse - -> "*" Plateau
Caisse - -> "*" Caissier
@enduml

PlantUML version 1.2021.9beta2(Unknown compile time)
(GPL source distribution)
Java Runtime: Java(TM) SE Runtime Environment
JVM: Java HotSpot(TM) 64-Bit Server VM
Default Encoding: UTF-8
Language: en
Country: US
--></g></svg>