<?xml version="1.0" encoding="UTF-8" standalone="no"?><svg xmlns="http://www.w3.org/2000/svg" xmlns:xlink="http://www.w3.org/1999/xlink" contentScriptType="application/ecmascript" contentStyleType="text/css" height="591px" preserveAspectRatio="none" style="width:676px;height:591px;background:#FFFFFF;" version="1.1" viewBox="0 0 676 591" width="676px" zoomAndPan="magnify"><defs><filter height="300%" id="f1swjcsl65aj83" width="300%" x="-1" y="-1"><feGaussianBlur result="blurOut" stdDeviation="2.0"/><feColorMatrix in="blurOut" result="blurOut2" type="matrix" values="0 0 0 0 0 0 0 0 0 0 0 0 0 0 0 0 0 0 .4 0"/><feOffset dx="4.0" dy="4.0" in="blurOut2" result="blurOut3"/><feBlend in="SourceGraphic" in2="blurOut3" mode="normal"/></filter></defs><g><!--MD5=[8ae77ada6169822435c3d3bcb01b6727]
cluster system--><polygon fill="#FFFFFF" filter="url(#f1swjcsl65aj83)" points="212,94,277,94,284,116.2969,413,116.2969,413,544,212,544,212,94" style="stroke:#000000;stroke-width:1.5;"/><line style="stroke:#000000;stroke-width:1.5;" x1="212" x2="284" y1="116.2969" y2="116.2969"/><text fill="#000000" font-family="sans-serif" font-size="14" font-weight="bold" lengthAdjust="spacing" textLength="59" x="216" y="108.9951">system</text><ellipse cx="312.712" cy="218.9424" fill="#FEFECE" filter="url(#f1swjcsl65aj83)" rx="82.712" ry="18.9424" style="stroke:#A80036;stroke-width:1.5;"/><text fill="#000000" font-family="sans-serif" font-size="14" lengthAdjust="spacing" textLength="125" x="249.5208" y="222.0215">Traiter une vente</text><ellipse cx="312.4263" cy="292.7853" fill="#FEFECE" filter="url(#f1swjcsl65aj83)" rx="84.4263" ry="19.2853" style="stroke:#A80036;stroke-width:1.5;"/><text fill="#000000" font-family="sans-serif" font-size="14" lengthAdjust="spacing" textLength="129" x="247.805" y="295.6739">Traiter les retours</text><ellipse cx="312.3536" cy="146.8707" fill="#FEFECE" filter="url(#f1swjcsl65aj83)" rx="77.3536" ry="17.8707" style="stroke:#A80036;stroke-width:1.5;"/><text fill="#000000" font-family="sans-serif" font-size="14" lengthAdjust="spacing" textLength="112" x="253.6333" y="150.5454">Mise en plateau</text><ellipse cx="312.6551" cy="366.031" fill="#FEFECE" filter="url(#f1swjcsl65aj83)" rx="78.1551" ry="18.031" style="stroke:#A80036;stroke-width:1.5;"/><text fill="#000000" font-family="sans-serif" font-size="14" lengthAdjust="spacing" textLength="114" x="253.2659" y="369.6166">Analyse activité</text><ellipse cx="312.6963" cy="437.9393" fill="#FEFECE" filter="url(#f1swjcsl65aj83)" rx="80.1963" ry="18.4393" style="stroke:#A80036;stroke-width:1.5;"/><text fill="#000000" font-family="sans-serif" font-size="14" lengthAdjust="spacing" textLength="119" x="251.6039" y="441.2979">Gérer la sécurité</text><ellipse cx="312.4652" cy="510.193" fill="#FEFECE" filter="url(#f1swjcsl65aj83)" rx="78.9652" ry="18.193" style="stroke:#A80036;stroke-width:1.5;"/><text fill="#000000" font-family="sans-serif" font-size="14" lengthAdjust="spacing" textLength="116" x="252.4" y="513.6886">Gérer les usager</text><!--MD5=[0ba5ee7700168656dc1b457c6fe9fdac]
entity Client--><ellipse cx="87" cy="167" fill="#FEFECE" filter="url(#f1swjcsl65aj83)" rx="8" ry="8" style="stroke:#A80036;stroke-width:1.5;"/><path d="M87,175 L87,202 M74,183 L100,183 M87,202 L74,217 M87,202 L100,217 " fill="none" filter="url(#f1swjcsl65aj83)" style="stroke:#A80036;stroke-width:1.5;"/><text fill="#000000" font-family="sans-serif" font-size="14" lengthAdjust="spacing" textLength="43" x="65.5" y="235.4951">Client</text><!--MD5=[84eb184a08144e15816666ccc309fe96]
entity Caissier--><ellipse cx="87" cy="51" fill="#FEFECE" filter="url(#f1swjcsl65aj83)" rx="8" ry="8" style="stroke:#A80036;stroke-width:1.5;"/><path d="M87,59 L87,86 M74,67 L100,67 M87,86 L74,101 M87,86 L100,101 " fill="none" filter="url(#f1swjcsl65aj83)" style="stroke:#A80036;stroke-width:1.5;"/><text fill="#000000" font-family="sans-serif" font-size="14" lengthAdjust="spacing" textLength="55" x="59.5" y="119.4951">Caissier</text><!--MD5=[d593fa3034f64f3da088f84882465b42]
entity Gérant--><ellipse cx="87" cy="283" fill="#FEFECE" filter="url(#f1swjcsl65aj83)" rx="8" ry="8" style="stroke:#A80036;stroke-width:1.5;"/><path d="M87,291 L87,318 M74,299 L100,299 M87,318 L74,333 M87,318 L100,333 " fill="none" filter="url(#f1swjcsl65aj83)" style="stroke:#A80036;stroke-width:1.5;"/><text fill="#000000" font-family="sans-serif" font-size="14" lengthAdjust="spacing" textLength="50" x="62" y="351.4951">Gérant</text><!--MD5=[8657b86f1e395551e23c1ddefbf321e8]
entity SystemVente--><ellipse cx="87" cy="399" fill="#FEFECE" filter="url(#f1swjcsl65aj83)" rx="8" ry="8" style="stroke:#A80036;stroke-width:1.5;"/><path d="M87,407 L87,434 M74,415 L100,415 M87,434 L74,449 M87,434 L100,449 " fill="none" filter="url(#f1swjcsl65aj83)" style="stroke:#A80036;stroke-width:1.5;"/><text fill="#000000" font-family="sans-serif" font-size="14" lengthAdjust="spacing" textLength="98" x="38" y="467.4951">SystemVente</text><!--MD5=[2061cc636a14b31aecf6129c67adb80d]
entity AdministrateurSystem--><ellipse cx="87" cy="515" fill="#FEFECE" filter="url(#f1swjcsl65aj83)" rx="8" ry="8" style="stroke:#A80036;stroke-width:1.5;"/><path d="M87,523 L87,550 M74,531 L100,531 M87,550 L74,565 M87,550 L100,565 " fill="none" filter="url(#f1swjcsl65aj83)" style="stroke:#A80036;stroke-width:1.5;"/><text fill="#000000" font-family="sans-serif" font-size="14" lengthAdjust="spacing" textLength="162" x="6" y="583.4951">AdministrateurSystem</text><!--MD5=[fc42f151ee805f27f1f8e3760db70d9e]
entity ServiceAutorisationPaiement--><ellipse cx="563" cy="362" fill="#FEFECE" filter="url(#f1swjcsl65aj83)" rx="8" ry="8" style="stroke:#A80036;stroke-width:1.5;"/><path d="M563,370 L563,397 M550,378 L576,378 M563,397 L550,412 M563,397 L576,412 " fill="none" filter="url(#f1swjcsl65aj83)" style="stroke:#A80036;stroke-width:1.5;"/><text fill="#000000" font-family="sans-serif" font-size="14" lengthAdjust="spacing" textLength="210" x="458" y="430.4951">ServiceAutorisationPaiement</text><!--MD5=[a631bbe280ba81d177f1f66b78330646]
entity CalculateurTaxe--><ellipse cx="563" cy="130" fill="#FEFECE" filter="url(#f1swjcsl65aj83)" rx="8" ry="8" style="stroke:#A80036;stroke-width:1.5;"/><path d="M563,138 L563,165 M550,146 L576,146 M563,165 L550,180 M563,165 L576,180 " fill="none" filter="url(#f1swjcsl65aj83)" style="stroke:#A80036;stroke-width:1.5;"/><text fill="#000000" font-family="sans-serif" font-size="14" lengthAdjust="spacing" textLength="114" x="506" y="198.4951">CalculateurTaxe</text><!--MD5=[fb72e74ee456a354abd2818f223f1619]
entity SystemeCompatabilité--><ellipse cx="563" cy="246" fill="#FEFECE" filter="url(#f1swjcsl65aj83)" rx="8" ry="8" style="stroke:#A80036;stroke-width:1.5;"/><path d="M563,254 L563,281 M550,262 L576,262 M563,281 L550,296 M563,281 L576,296 " fill="none" filter="url(#f1swjcsl65aj83)" style="stroke:#A80036;stroke-width:1.5;"/><text fill="#000000" font-family="sans-serif" font-size="14" lengthAdjust="spacing" textLength="167" x="479.5" y="314.4951">SystemeCompatabilité</text><!--MD5=[d6f5835e22b901bf2579082021bda828]
entity SystemeRessourcesHumaines--><ellipse cx="563" cy="14" fill="#FEFECE" filter="url(#f1swjcsl65aj83)" rx="8" ry="8" style="stroke:#A80036;stroke-width:1.5;"/><path d="M563,22 L563,49 M550,30 L576,30 M563,49 L550,64 M563,49 L576,64 " fill="none" filter="url(#f1swjcsl65aj83)" style="stroke:#A80036;stroke-width:1.5;"/><text fill="#000000" font-family="sans-serif" font-size="14" lengthAdjust="spacing" textLength="212" x="457" y="82.4951">SystemeRessourcesHumaines</text><!--MD5=[8cb71162046bee43450bb578e8345823]
link Client to V--><path d="M108.626,199.938 C136.304,202.539 187.06,207.308 230.878,211.425 " fill="none" id="Client-to-V" style="stroke:#A80036;stroke-width:1.0;"/><polygon fill="#A80036" points="235.911,211.898,227.3255,207.072,230.933,211.4293,226.5757,215.0368,235.911,211.898" style="stroke:#A80036;stroke-width:1.0;"/><!--MD5=[b41ba39de52632cb613adcca37599617]
link Client to R--><path d="M108.567,209.323 C131.459,221.679 169.746,241.616 204,256 C220.967,263.125 239.834,269.968 256.967,275.789 " fill="none" id="Client-to-R" style="stroke:#A80036;stroke-width:1.0;"/><polygon fill="#A80036" points="261.75,277.403,254.5014,270.7353,257.0125,275.8043,251.9435,278.3154,261.75,277.403" style="stroke:#A80036;stroke-width:1.0;"/><!--MD5=[166b8de4d04045e47da80773539d34cd]
link Caissier to V--><path d="M114.839,99.018 C131.002,109.844 151.565,124.673 168,140 C186.228,156.999 183.407,168.958 204,183 C217.149,191.966 232.716,198.859 247.862,204.095 " fill="none" id="Caissier-to-V" style="stroke:#A80036;stroke-width:1.0;"/><polygon fill="#A80036" points="252.979,205.808,245.7142,199.158,248.2376,204.2209,243.1747,206.7443,252.979,205.808" style="stroke:#A80036;stroke-width:1.0;"/><!--MD5=[582e2ad44410a3dcfd2243371707763f]
link Caissier to R--><path d="M114.527,95.347 C132.033,105.411 154.202,120.763 168,140 C199.462,183.865 166.417,217.251 204,256 C214.036,266.347 227.094,273.802 240.634,279.173 " fill="none" id="Caissier-to-R" style="stroke:#A80036;stroke-width:1.0;"/><polygon fill="#A80036" points="245.64,281.058,238.6284,274.1415,240.9611,279.295,235.8076,281.6278,245.64,281.058" style="stroke:#A80036;stroke-width:1.0;"/><!--MD5=[c5ed215ed4e7d1d4042184274a877c6d]
link Caissier to MP--><path d="M114.516,89.712 C149.882,99.997 213.29,118.438 258.615,131.62 " fill="none" id="Caissier-to-MP" style="stroke:#A80036;stroke-width:1.0;"/><polygon fill="#A80036" points="263.496,133.039,255.9703,126.6858,258.6947,131.6433,253.7372,134.3678,263.496,133.039" style="stroke:#A80036;stroke-width:1.0;"/><!--MD5=[1caf9f49d3ff764792912ed9977f1c13]
link Gérant to V--><path d="M112.003,300.827 C135.162,288.4 171.407,269.687 204,256 C221.3,248.735 240.575,241.764 257.973,235.87 " fill="none" id="Gérant-to-V" style="stroke:#A80036;stroke-width:1.0;"/><polygon fill="#A80036" points="262.827,234.237,253.0213,233.3158,258.088,235.8314,255.5724,240.8981,262.827,234.237" style="stroke:#A80036;stroke-width:1.0;"/><!--MD5=[83468c3bac36630a7811c077e0f32089]
link Gérant to R--><path d="M112.344,311.713 C140.176,309.098 187.238,304.676 228.627,300.787 " fill="none" id="Gérant-to-R" style="stroke:#A80036;stroke-width:1.0;"/><polygon fill="#A80036" points="233.644,300.315,224.3087,297.1762,228.666,300.7837,225.0585,305.141,233.644,300.315" style="stroke:#A80036;stroke-width:1.0;"/><!--MD5=[c431d9daaae429aa0c2b3ed06471c487]
link SystemVente to A--><path d="M136.221,416.192 C171.959,405.958 220.678,392.007 257.683,381.411 " fill="none" id="SystemVente-to-A" style="stroke:#A80036;stroke-width:1.0;"/><polygon fill="#A80036" points="262.594,380.004,252.8403,378.6381,257.7875,381.3814,255.0441,386.3285,262.594,380.004" style="stroke:#A80036;stroke-width:1.0;"/><!--MD5=[7f5607e7dc5c487c809fb6b29b6e60ed]
link AdministrateurSystem to S--><path d="M148.619,505.4752 C166.068,494.7614 185.418,483.757 204,475 C220.891,467.04 239.98,459.911 257.334,454.084 " fill="none" id="AdministrateurSystem-to-S" style="stroke:#A80036;stroke-width:1.0;"/><polygon fill="#A80036" points="262.179,452.476,252.3773,451.5131,257.4333,454.0503,254.8962,459.1063,262.179,452.476" style="stroke:#A80036;stroke-width:1.0;"/><!--MD5=[60cdcd2b5475812a74ea44d9ed848919]
link AdministrateurSystem to U--><path d="M168.057,533.1049 C192.38,529.187 218.887,524.9175 242.423,521.1266 " fill="none" id="AdministrateurSystem-to-U" style="stroke:#A80036;stroke-width:1.0;"/><polygon fill="#A80036" points="247.398,520.3252,237.8761,517.8085,242.4617,521.1209,239.1493,525.7065,247.398,520.3252" style="stroke:#A80036;stroke-width:1.0;"/><!--MD5=[9f2e749c848acdb5e1bc6d67a24475fa]
link V to ServiceAutorisationPaiement--><path d="M376.132,231.181 C392.18,236.667 408.435,244.588 421,256 C449.563,281.942 430.788,306.685 457,335 C461.679,340.054 466.901,344.77 472.448,349.151 " fill="none" id="V-to-ServiceAutorisationPaiement" style="stroke:#A80036;stroke-width:1.0;"/><polygon fill="#A80036" points="476.749,352.436,472.0263,343.7933,472.7761,349.4002,467.1691,350.15,476.749,352.436" style="stroke:#A80036;stroke-width:1.0;"/><!--MD5=[42fd3e28e5d76e6e804a87d0a179c200]
link V to CalculateurTaxe--><path d="M371.135,205.548 C409.968,196.484 461.125,184.544 500.702,175.307 " fill="none" id="V-to-CalculateurTaxe" style="stroke:#A80036;stroke-width:1.0;"/><polygon fill="#A80036" points="505.961,174.08,496.2876,172.2292,501.0917,175.2159,498.105,180.02,505.961,174.08" style="stroke:#A80036;stroke-width:1.0;"/><!--MD5=[b47d72fa8ed3d3211a6b95d74c360a07]
link V to SystemeCompatabilité--><path d="M371.135,232.452 C401.747,239.597 440.017,248.529 474.235,256.516 " fill="none" id="V-to-SystemeCompatabilité" style="stroke:#A80036;stroke-width:1.0;"/><polygon fill="#A80036" points="479.253,257.687,471.3983,251.7453,474.384,256.5501,469.5792,259.5358,479.253,257.687" style="stroke:#A80036;stroke-width:1.0;"/><!--MD5=[020b01b4e4c462265d29836bb6f2dde6]
link MP to SystemeRessourcesHumaines--><path d="M351.512,131.397 C379.943,119.727 420.262,103.178 458.015,87.682 " fill="none" id="MP-to-SystemeRessourcesHumaines" style="stroke:#A80036;stroke-width:1.0;"/><polygon fill="#A80036" points="463.083,85.602,453.2382,85.3189,458.4575,87.5005,456.2758,92.7197,463.083,85.602" style="stroke:#A80036;stroke-width:1.0;"/><!--MD5=[3314076f6dac400e964bf58e94f1dddd]
@startuml
left to right direction
package system {
 usecase "Traiter une vente" as V
 usecase "Traiter les retours" as R
 usecase "Mise en plateau" as MP
 usecase "Analyse activité" as A
 usecase "Gérer la sécurité" as S
 usecase "Gérer les usager" as U
}
Client - -> V
Client - -> R
Caissier - -> V
Caissier - -> R
Caissier - -> MP
Gérant - -> V
Gérant - -> R
SystemVente - -> A
AdministrateurSystem - -> S
AdministrateurSystem - -> U

V - -> ServiceAutorisationPaiement
V - -> CalculateurTaxe
V - -> SystemeCompatabilité
MP - -> SystemeRessourcesHumaines
@enduml

PlantUML version 1.2021.9beta2(Unknown compile time)
(GPL source distribution)
Java Runtime: Java(TM) SE Runtime Environment
JVM: Java HotSpot(TM) 64-Bit Server VM
Default Encoding: UTF-8
Language: en
Country: US
--></g></svg>