<?xml version="1.0" encoding="UTF-8" standalone="no"?><svg xmlns="http://www.w3.org/2000/svg" xmlns:xlink="http://www.w3.org/1999/xlink" contentScriptType="application/ecmascript" contentStyleType="text/css" height="434px" preserveAspectRatio="none" style="width:402px;height:434px;background:#FFFFFF;" version="1.1" viewBox="0 0 402 434" width="402px" zoomAndPan="magnify"><defs><filter height="300%" id="f1e82lcl1gkze5" width="300%" x="-1" y="-1"><feGaussianBlur result="blurOut" stdDeviation="2.0"/><feColorMatrix in="blurOut" result="blurOut2" type="matrix" values="0 0 0 0 0 0 0 0 0 0 0 0 0 0 0 0 0 0 .4 0"/><feOffset dx="4.0" dy="4.0" in="blurOut2" result="blurOut3"/><feBlend in="SourceGraphic" in2="blurOut3" mode="normal"/></filter></defs><g><text fill="#000000" font-family="sans-serif" font-size="18" lengthAdjust="spacing" textLength="277" x="56" y="16.708">MDD avec catégorie de classe</text><!--MD5=[98eeb74eaf23105b6735feaa9bb105de]
class Caissier--><rect codeLine="4" fill="#FEFECE" filter="url(#f1e82lcl1gkze5)" height="79.5469" id="Caissier" style="stroke:#A80036;stroke-width:1.5;" width="118" x="158.5" y="27.9531"/><ellipse cx="190.6" cy="46.9219" fill="#ADD1B2" rx="11" ry="11" style="stroke:#A80036;stroke-width:1.0;"/><path d="M192.9438,42.5938 C192.0063,42.1563 191.4125,42.0156 190.5375,42.0156 C187.9125,42.0156 185.9125,44.0938 185.9125,46.8125 L185.9125,47.9375 C185.9125,50.5156 188.0219,52.4063 190.9125,52.4063 C192.1313,52.4063 193.2875,52.1094 194.0375,51.5625 C194.6156,51.1563 194.9438,50.7031 194.9438,50.3125 C194.9438,49.8594 194.5531,49.4688 194.0844,49.4688 C193.8656,49.4688 193.6625,49.5469 193.475,49.7344 C193.0219,50.2188 193.0219,50.2188 192.8344,50.3125 C192.4125,50.5781 191.725,50.7031 190.9594,50.7031 C188.9125,50.7031 187.6156,49.6094 187.6156,47.9063 L187.6156,46.8125 C187.6156,45.0313 188.8656,43.7188 190.6,43.7188 C191.1781,43.7188 191.7875,43.875 192.2563,44.125 C192.7406,44.4063 192.9125,44.625 193.0063,45.0313 C193.0688,45.4375 193.1,45.5625 193.2406,45.6875 C193.3813,45.8281 193.6156,45.9375 193.8344,45.9375 C194.1,45.9375 194.3656,45.7969 194.5375,45.5781 C194.6469,45.4219 194.6781,45.2344 194.6781,44.8125 L194.6781,43.3906 C194.6781,42.9531 194.6625,42.8281 194.5688,42.6719 C194.4125,42.4063 194.1313,42.2656 193.8344,42.2656 C193.5375,42.2656 193.3344,42.3594 193.1156,42.6719 L192.9438,42.5938 Z " fill="#000000"/><text fill="#000000" font-family="sans-serif" font-size="12" font-style="italic" lengthAdjust="spacing" textLength="39" x="212.9" y="44.0918">«Role»</text><text fill="#000000" font-family="sans-serif" font-size="12" lengthAdjust="spacing" textLength="48" x="208.4" y="58.0605">Caissier</text><line style="stroke:#A80036;stroke-width:1.5;" x1="159.5" x2="275.5" y1="65.8906" y2="65.8906"/><text fill="#000000" font-family="sans-serif" font-size="11" lengthAdjust="spacing" textLength="105" x="164.5" y="80.1011">identifiant: integer</text><text fill="#000000" font-family="sans-serif" font-size="11" lengthAdjust="spacing" textLength="106" x="164.5" y="92.9058">motDePasse:string</text><line style="stroke:#A80036;stroke-width:1.5;" x1="159.5" x2="275.5" y1="99.5" y2="99.5"/><!--MD5=[07a55063f269c7dbdc634b5422273879]
class Caisse--><rect codeLine="9" fill="#FEFECE" filter="url(#f1e82lcl1gkze5)" height="66.7422" id="Caisse" style="stroke:#A80036;stroke-width:1.5;" width="213" x="7" y="353.9531"/><ellipse cx="22" cy="372.9219" fill="#ADD1B2" rx="11" ry="11" style="stroke:#A80036;stroke-width:1.0;"/><path d="M24.3438,368.5938 C23.4063,368.1563 22.8125,368.0156 21.9375,368.0156 C19.3125,368.0156 17.3125,370.0938 17.3125,372.8125 L17.3125,373.9375 C17.3125,376.5156 19.4219,378.4063 22.3125,378.4063 C23.5313,378.4063 24.6875,378.1094 25.4375,377.5625 C26.0156,377.1563 26.3438,376.7031 26.3438,376.3125 C26.3438,375.8594 25.9531,375.4688 25.4844,375.4688 C25.2656,375.4688 25.0625,375.5469 24.875,375.7344 C24.4219,376.2188 24.4219,376.2188 24.2344,376.3125 C23.8125,376.5781 23.125,376.7031 22.3594,376.7031 C20.3125,376.7031 19.0156,375.6094 19.0156,373.9063 L19.0156,372.8125 C19.0156,371.0313 20.2656,369.7188 22,369.7188 C22.5781,369.7188 23.1875,369.875 23.6563,370.125 C24.1406,370.4063 24.3125,370.625 24.4063,371.0313 C24.4688,371.4375 24.5,371.5625 24.6406,371.6875 C24.7813,371.8281 25.0156,371.9375 25.2344,371.9375 C25.5,371.9375 25.7656,371.7969 25.9375,371.5781 C26.0469,371.4219 26.0781,371.2344 26.0781,370.8125 L26.0781,369.3906 C26.0781,368.9531 26.0625,368.8281 25.9688,368.6719 C25.8125,368.4063 25.5313,368.2656 25.2344,368.2656 C24.9375,368.2656 24.7344,368.3594 24.5156,368.6719 L24.3438,368.5938 Z " fill="#000000"/><text fill="#000000" font-family="sans-serif" font-size="12" font-style="italic" lengthAdjust="spacing" textLength="185" x="34" y="370.0918">«Equipement, objet physique»</text><text fill="#000000" font-family="sans-serif" font-size="12" lengthAdjust="spacing" textLength="40" x="106.5" y="384.0605">Caisse</text><line style="stroke:#A80036;stroke-width:1.5;" x1="8" x2="219" y1="391.8906" y2="391.8906"/><text fill="#000000" font-family="sans-serif" font-size="11" lengthAdjust="spacing" textLength="136" x="13" y="406.1011">tirroirCaisseFermer:Bool</text><line style="stroke:#A80036;stroke-width:1.5;" x1="8" x2="219" y1="412.6953" y2="412.6953"/><!--MD5=[712b49a80551510261ad10524cc74d81]
class Plateau--><rect codeLine="12" fill="#FEFECE" filter="url(#f1e82lcl1gkze5)" height="66.7422" id="Plateau" style="stroke:#A80036;stroke-width:1.5;" width="133" x="255" y="353.9531"/><ellipse cx="270" cy="372.9219" fill="#ADD1B2" rx="11" ry="11" style="stroke:#A80036;stroke-width:1.0;"/><path d="M272.3438,368.5938 C271.4063,368.1563 270.8125,368.0156 269.9375,368.0156 C267.3125,368.0156 265.3125,370.0938 265.3125,372.8125 L265.3125,373.9375 C265.3125,376.5156 267.4219,378.4063 270.3125,378.4063 C271.5313,378.4063 272.6875,378.1094 273.4375,377.5625 C274.0156,377.1563 274.3438,376.7031 274.3438,376.3125 C274.3438,375.8594 273.9531,375.4688 273.4844,375.4688 C273.2656,375.4688 273.0625,375.5469 272.875,375.7344 C272.4219,376.2188 272.4219,376.2188 272.2344,376.3125 C271.8125,376.5781 271.125,376.7031 270.3594,376.7031 C268.3125,376.7031 267.0156,375.6094 267.0156,373.9063 L267.0156,372.8125 C267.0156,371.0313 268.2656,369.7188 270,369.7188 C270.5781,369.7188 271.1875,369.875 271.6563,370.125 C272.1406,370.4063 272.3125,370.625 272.4063,371.0313 C272.4688,371.4375 272.5,371.5625 272.6406,371.6875 C272.7813,371.8281 273.0156,371.9375 273.2344,371.9375 C273.5,371.9375 273.7656,371.7969 273.9375,371.5781 C274.0469,371.4219 274.0781,371.2344 274.0781,370.8125 L274.0781,369.3906 C274.0781,368.9531 274.0625,368.8281 273.9688,368.6719 C273.8125,368.4063 273.5313,368.2656 273.2344,368.2656 C272.9375,368.2656 272.7344,368.3594 272.5156,368.6719 L272.3438,368.5938 Z " fill="#000000"/><text fill="#000000" font-family="sans-serif" font-size="12" font-style="italic" lengthAdjust="spacing" textLength="105" x="282" y="370.0918">«Objet physique»</text><text fill="#000000" font-family="sans-serif" font-size="12" lengthAdjust="spacing" textLength="42" x="313.5" y="384.0605">Plateau</text><line style="stroke:#A80036;stroke-width:1.5;" x1="256" x2="387" y1="391.8906" y2="391.8906"/><text fill="#000000" font-family="sans-serif" font-size="11" lengthAdjust="spacing" textLength="78" x="261" y="406.1011">identifiant: int</text><line style="stroke:#A80036;stroke-width:1.5;" x1="256" x2="387" y1="412.6953" y2="412.6953"/><!--MD5=[032ef2127df1a6ed428e1fd9d2a5706b]
class MiseEnPlateau--><rect codeLine="16" fill="#FEFECE" filter="url(#f1e82lcl1gkze5)" height="92.3516" id="MiseEnPlateau" style="stroke:#A80036;stroke-width:1.5;" width="138" x="148.5" y="184.9531"/><ellipse cx="173.4" cy="203.9219" fill="#ADD1B2" rx="11" ry="11" style="stroke:#A80036;stroke-width:1.0;"/><path d="M175.7438,199.5938 C174.8063,199.1563 174.2125,199.0156 173.3375,199.0156 C170.7125,199.0156 168.7125,201.0938 168.7125,203.8125 L168.7125,204.9375 C168.7125,207.5156 170.8219,209.4063 173.7125,209.4063 C174.9313,209.4063 176.0875,209.1094 176.8375,208.5625 C177.4156,208.1563 177.7438,207.7031 177.7438,207.3125 C177.7438,206.8594 177.3531,206.4688 176.8844,206.4688 C176.6656,206.4688 176.4625,206.5469 176.275,206.7344 C175.8219,207.2188 175.8219,207.2188 175.6344,207.3125 C175.2125,207.5781 174.525,207.7031 173.7594,207.7031 C171.7125,207.7031 170.4156,206.6094 170.4156,204.9063 L170.4156,203.8125 C170.4156,202.0313 171.6656,200.7188 173.4,200.7188 C173.9781,200.7188 174.5875,200.875 175.0563,201.125 C175.5406,201.4063 175.7125,201.625 175.8063,202.0313 C175.8688,202.4375 175.9,202.5625 176.0406,202.6875 C176.1813,202.8281 176.4156,202.9375 176.6344,202.9375 C176.9,202.9375 177.1656,202.7969 177.3375,202.5781 C177.4469,202.4219 177.4781,202.2344 177.4781,201.8125 L177.4781,200.3906 C177.4781,199.9531 177.4625,199.8281 177.3688,199.6719 C177.2125,199.4063 176.9313,199.2656 176.6344,199.2656 C176.3375,199.2656 176.1344,199.3594 175.9156,199.6719 L175.7438,199.5938 Z " fill="#000000"/><text fill="#000000" font-family="sans-serif" font-size="12" font-style="italic" lengthAdjust="spacing" textLength="84" x="189.6" y="201.0918">«Transaction»</text><text fill="#000000" font-family="sans-serif" font-size="12" lengthAdjust="spacing" textLength="84" x="189.6" y="215.0605">MiseEnPlateau</text><line style="stroke:#A80036;stroke-width:1.5;" x1="149.5" x2="285.5" y1="222.8906" y2="222.8906"/><text fill="#000000" font-family="sans-serif" font-size="11" lengthAdjust="spacing" textLength="121" x="154.5" y="237.1011">dateArrive: Datetime</text><text fill="#000000" font-family="sans-serif" font-size="11" lengthAdjust="spacing" textLength="126" x="154.5" y="249.9058">dateDepart: Datetime</text><text fill="#000000" font-family="sans-serif" font-size="11" lengthAdjust="spacing" textLength="79" x="154.5" y="262.7104">montant: float</text><line style="stroke:#A80036;stroke-width:1.5;" x1="149.5" x2="285.5" y1="269.3047" y2="269.3047"/><!--MD5=[ccd775a78599e372587dab63fa56ed5f]
link Caissier to MiseEnPlateau--><path codeLine="22" d="M217.5,108.3381 C217.5,131.4251 217.5,160.6801 217.5,184.7111 " fill="none" id="Caissier-MiseEnPlateau" style="stroke:#A80036;stroke-width:1.0;"/><text fill="#000000" font-family="sans-serif" font-size="13" lengthAdjust="spacing" textLength="54" x="218.5" y="151.02">effectue</text><text fill="#000000" font-family="sans-serif" font-size="13" lengthAdjust="spacing" textLength="7" x="209.9859" y="173.8686">*</text><!--MD5=[b06d5ed97b600417b84cc2cdc5e77a35]
link MiseEnPlateau to Plateau--><path codeLine="23" d="M247.861,277.0561 C264.408,301.6391 284.514,331.5079 299.534,353.8204 " fill="none" id="MiseEnPlateau-Plateau" style="stroke:#A80036;stroke-width:1.0;"/><text fill="#000000" font-family="sans-serif" font-size="13" lengthAdjust="spacing" textLength="100" x="279.5" y="320.02">est fait dans un</text><!--MD5=[7cc9deed6936eb2bfc8d97e7c5878126]
link MiseEnPlateau to Caisse--><path codeLine="24" d="M172.31,277.3151 C164.162,286.6931 156.155,296.8151 149.5,306.9531 C139.939,321.5195 131.703,339.0418 125.531,353.9248 " fill="none" id="MiseEnPlateau-Caisse" style="stroke:#A80036;stroke-width:1.0;"/><text fill="#000000" font-family="sans-serif" font-size="13" lengthAdjust="spacing" textLength="110" x="150.5" y="320.02">est réalisé sur un</text><!--MD5=[39b43d95cd23f6f7bc28f860608e41e0]
@startuml
title MDD avec catégorie de classe
top to bottom direction

class Caissier <<Role>> {
  identifiant: integer
  motDePasse:string
}

class Caisse <<Equipement, objet physique>> {
  tirroirCaisseFermer:Bool
}
class Plateau <<Objet physique>> {
  identifiant: int
}

class MiseEnPlateau <<Transaction>> {
  dateArrive: Datetime
  dateDepart: Datetime
  montant: float
} 

Caissier - - "*" MiseEnPlateau : effectue
MiseEnPlateau - - Plateau: est fait dans un
MiseEnPlateau - - Caisse: est réalisé sur un
@enduml

PlantUML version 1.2021.9beta2(Unknown compile time)
(GPL source distribution)
Java Runtime: Java(TM) SE Runtime Environment
JVM: Java HotSpot(TM) 64-Bit Server VM
Default Encoding: UTF-8
Language: en
Country: US
--></g></svg>