<?xml version="1.0" encoding="UTF-8" standalone="no"?><svg xmlns="http://www.w3.org/2000/svg" xmlns:xlink="http://www.w3.org/1999/xlink" contentScriptType="application/ecmascript" contentStyleType="text/css" height="169px" preserveAspectRatio="none" style="width:460px;height:169px;background:#FFFFFF;" version="1.1" viewBox="0 0 460 169" width="460px" zoomAndPan="magnify"><defs/><g><line style="stroke:#A80036;stroke-width:1.0;stroke-dasharray:5.0,5.0;" x1="157" x2="157" y1="36.2969" y2="162.6953"/><rect fill="#FEFECE" height="30.2969" style="stroke:#A80036;stroke-width:1.5;" width="72" x="121" y="5"/><text fill="#000000" font-family="sans-serif" font-size="14" lengthAdjust="spacing" textLength="58" x="128" y="24.9951">c:Caisse</text><polygon fill="#A80036" points="145,63.4297,155,67.4297,145,71.4297" style="stroke:#A80036;stroke-width:1.0;"/><line style="stroke:#A80036;stroke-width:1.0;" x1="0" x2="151" y1="67.4297" y2="67.4297"/><text fill="#000000" font-family="sans-serif" font-size="13" lengthAdjust="spacing" textLength="133" x="7" y="62.3638">fermerTirroirCaisse()</text><path d="M162,80.4297 L162,105.4297 L453,105.4297 L453,90.4297 L443,80.4297 L162,80.4297 " fill="#FBFB77" style="stroke:#A80036;stroke-width:1.0;"/><path d="M443,80.4297 L443,90.4297 L453,90.4297 L443,80.4297 " fill="#FBFB77" style="stroke:#A80036;stroke-width:1.0;"/><text fill="#000000" font-family="sans-serif" font-size="13" lengthAdjust="spacing" textLength="270" x="168" y="97.4966">expert en information, mutateur d'attribut</text><line style="stroke:#A80036;stroke-width:1.0;" x1="157" x2="199" y1="131.6953" y2="131.6953"/><line style="stroke:#A80036;stroke-width:1.0;" x1="199" x2="199" y1="131.6953" y2="144.6953"/><line style="stroke:#A80036;stroke-width:1.0;" x1="158" x2="199" y1="144.6953" y2="144.6953"/><polygon fill="#A80036" points="168,140.6953,158,144.6953,168,148.6953" style="stroke:#A80036;stroke-width:1.0;"/><text fill="#000000" font-family="sans-serif" font-size="13" lengthAdjust="spacing" textLength="167" x="164" y="126.6294">fermetureDuTiroirCaisse()</text><!--MD5=[c9e11c0dfb801fb6828dc960b7163021]
@startuml
skinparam style strictuml
Participant "c:Caisse" as C


->C: fermerTirroirCaisse()
note right of C: expert en information, mutateur d'attribut
C->C: fermetureDuTiroirCaisse()
@enduml

PlantUML version 1.2021.9beta2(Unknown compile time)
(GPL source distribution)
Java Runtime: Java(TM) SE Runtime Environment
JVM: Java HotSpot(TM) 64-Bit Server VM
Default Encoding: UTF-8
Language: en
Country: US
--></g></svg>