<?xml version="1.0" encoding="UTF-8" standalone="no"?><svg xmlns="http://www.w3.org/2000/svg" xmlns:xlink="http://www.w3.org/1999/xlink" contentScriptType="application/ecmascript" contentStyleType="text/css" height="259px" preserveAspectRatio="none" style="width:732px;height:259px;background:#FFFFFF;" version="1.1" viewBox="0 0 732 259" width="732px" zoomAndPan="magnify"><defs/><g><rect fill="#FFFFFF" height="94.3984" style="stroke:#000000;stroke-width:2.0;" width="352" x="245" y="140.6953"/><line style="stroke:#A80036;stroke-width:1.0;stroke-dasharray:5.0,5.0;" x1="291" x2="291" y1="36.2969" y2="252.0938"/><line style="stroke:#A80036;stroke-width:1.0;stroke-dasharray:5.0,5.0;" x1="484" x2="484" y1="36.2969" y2="252.0938"/><line style="stroke:#A80036;stroke-width:1.0;stroke-dasharray:5.0,5.0;" x1="681" x2="681" y1="36.2969" y2="252.0938"/><rect fill="#FEFECE" height="30.2969" style="stroke:#A80036;stroke-width:1.5;" width="72" x="255" y="5"/><text fill="#000000" font-family="sans-serif" font-size="14" lengthAdjust="spacing" textLength="58" x="262" y="24.9951">c:Caisse</text><rect fill="#FEFECE" height="30.2969" style="stroke:#A80036;stroke-width:1.5;" width="284" x="342" y="5"/><text fill="#000000" font-family="sans-serif" font-size="14" lengthAdjust="spacing" textLength="270" x="349" y="24.9951">MC:Map&lt;identifiant:string, :Caissier&gt;</text><rect fill="#FEFECE" height="30.2969" style="stroke:#A80036;stroke-width:1.5;" width="90" x="636" y="5"/><text fill="#000000" font-family="sans-serif" font-size="14" lengthAdjust="spacing" textLength="76" x="643" y="24.9951">ca:Caissier</text><polygon fill="#A80036" points="279,63.4297,289,67.4297,279,71.4297" style="stroke:#A80036;stroke-width:1.0;"/><line style="stroke:#A80036;stroke-width:1.0;" x1="0" x2="285" y1="67.4297" y2="67.4297"/><text fill="#000000" font-family="sans-serif" font-size="13" lengthAdjust="spacing" textLength="267" x="7" y="62.3638">authentifier(identifiant:string, mdp:string)</text><polygon fill="#A80036" points="472,92.5625,482,96.5625,472,100.5625" style="stroke:#A80036;stroke-width:1.0;"/><line style="stroke:#A80036;stroke-width:1.0;" x1="291" x2="478" y1="96.5625" y2="96.5625"/><text fill="#000000" font-family="sans-serif" font-size="13" lengthAdjust="spacing" textLength="169" x="298" y="91.4966">ca = get(identifiant:string)</text><polygon fill="#A80036" points="669,121.6953,679,125.6953,669,129.6953" style="stroke:#A80036;stroke-width:1.0;"/><line style="stroke:#A80036;stroke-width:1.0;" x1="291" x2="675" y1="125.6953" y2="125.6953"/><text fill="#000000" font-family="sans-serif" font-size="13" lengthAdjust="spacing" textLength="220" x="298" y="120.6294">caissier = authentifier(mpd:string)</text><path d="M245,140.6953 L317,140.6953 L317,147.6953 L307,157.6953 L245,157.6953 L245,140.6953 " fill="#EEEEEE" style="stroke:#000000;stroke-width:1.0;"/><rect fill="none" height="94.3984" style="stroke:#000000;stroke-width:2.0;" width="352" x="245" y="140.6953"/><text fill="#000000" font-family="sans-serif" font-size="13" font-weight="bold" lengthAdjust="spacing" textLength="27" x="260" y="153.7622">opt</text><text fill="#000000" font-family="sans-serif" font-size="11" font-weight="bold" lengthAdjust="spacing" textLength="118" x="332" y="152.9058">["caissier != null"]</text><path d="M296,162.8281 L296,187.8281 L587,187.8281 L587,172.8281 L577,162.8281 L296,162.8281 " fill="#FBFB77" style="stroke:#A80036;stroke-width:1.0;"/><path d="M577,162.8281 L577,172.8281 L587,172.8281 L577,162.8281 " fill="#FBFB77" style="stroke:#A80036;stroke-width:1.0;"/><text fill="#000000" font-family="sans-serif" font-size="13" lengthAdjust="spacing" textLength="270" x="302" y="179.895">expert en information, mutateur d'attribut</text><line style="stroke:#A80036;stroke-width:1.0;" x1="291" x2="333" y1="214.0938" y2="214.0938"/><line style="stroke:#A80036;stroke-width:1.0;" x1="333" x2="333" y1="214.0938" y2="227.0938"/><line style="stroke:#A80036;stroke-width:1.0;" x1="292" x2="333" y1="227.0938" y2="227.0938"/><polygon fill="#A80036" points="302,223.0938,292,227.0938,302,231.0938" style="stroke:#A80036;stroke-width:1.0;"/><text fill="#000000" font-family="sans-serif" font-size="13" lengthAdjust="spacing" textLength="128" x="298" y="209.0278">OuvrirTirroirCaisse()</text><!--MD5=[4ada4836f0081cf21323d644cd0f6d28]
@startuml
skinparam style strictuml
Participant "c:Caisse" as C
Participant "MC:Map<identifiant:string, :Caissier>" as MC
Participant "ca:Caissier" as CA
 
-> C: authentifier(identifiant:string, mdp:string)

C -> MC: ca = get(identifiant:string)
C -> CA: caissier = authentifier(mpd:string)
opt "caissier != null"

note right of C: expert en information, mutateur d'attribut
C->C: OuvrirTirroirCaisse()
end
@enduml

PlantUML version 1.2021.9beta2(Unknown compile time)
(GPL source distribution)
Java Runtime: Java(TM) SE Runtime Environment
JVM: Java HotSpot(TM) 64-Bit Server VM
Default Encoding: UTF-8
Language: en
Country: US
--></g></svg>