<?xml version="1.0" encoding="UTF-8" standalone="no"?><svg xmlns="http://www.w3.org/2000/svg" xmlns:xlink="http://www.w3.org/1999/xlink" contentStyleType="text/css" height="1057px" preserveAspectRatio="none" style="width:1311px;height:1057px;background:#FFFFFF;" version="1.1" viewBox="0 0 1311 1057" width="1311px" zoomAndPan="magnify"><defs/><g><!--MD5=[ed6624c6556d5e7b1bd23032162d20b7]
class Client--><g id="elem_Client"><rect codeLine="1" fill="#F1F1F1" height="64.2969" id="Client" rx="2.5" ry="2.5" style="stroke:#181818;stroke-width:0.5;" width="95" x="849" y="520.5"/><ellipse cx="873" cy="536.5" fill="#ADD1B2" rx="11" ry="11" style="stroke:#181818;stroke-width:1.0;"/><path d="M875.3438,532.1719 C874.4063,531.7344 873.8125,531.5938 872.9375,531.5938 C870.3125,531.5938 868.3125,533.6719 868.3125,536.3906 L868.3125,537.5156 C868.3125,540.0938 870.4219,541.9844 873.3125,541.9844 C874.5313,541.9844 875.6875,541.6875 876.4375,541.1406 C877.0156,540.7344 877.3438,540.2813 877.3438,539.8906 C877.3438,539.4375 876.9531,539.0469 876.4844,539.0469 C876.2656,539.0469 876.0625,539.125 875.875,539.3125 C875.4219,539.7969 875.4219,539.7969 875.2344,539.8906 C874.8125,540.1563 874.125,540.2813 873.3594,540.2813 C871.3125,540.2813 870.0156,539.1875 870.0156,537.4844 L870.0156,536.3906 C870.0156,534.6094 871.2656,533.2969 873,533.2969 C873.5781,533.2969 874.1875,533.4531 874.6563,533.7031 C875.1406,533.9844 875.3125,534.2031 875.4063,534.6094 C875.4688,535.0156 875.5,535.1406 875.6406,535.2656 C875.7813,535.4063 876.0156,535.5156 876.2344,535.5156 C876.5,535.5156 876.7656,535.375 876.9375,535.1563 C877.0469,535 877.0781,534.8125 877.0781,534.3906 L877.0781,532.9688 C877.0781,532.5313 877.0625,532.4063 876.9688,532.25 C876.8125,531.9844 876.5313,531.8438 876.2344,531.8438 C875.9375,531.8438 875.7344,531.9375 875.5156,532.25 L875.3438,532.1719 Z " fill="#000000"/><text fill="#000000" font-family="sans-serif" font-size="14" lengthAdjust="spacing" textLength="43" x="889" y="541.3467">Client</text><line style="stroke:#181818;stroke-width:0.5;" x1="850" x2="943" y1="552.5" y2="552.5"/><text fill="#000000" font-family="sans-serif" font-size="14" lengthAdjust="spacing" textLength="83" x="855" y="569.4951">nom: string</text><line style="stroke:#181818;stroke-width:0.5;" x1="850" x2="943" y1="576.7969" y2="576.7969"/></g><!--MD5=[911fc20b5d1e1e5281fe7fea600db5f5]
class CarteCredit--><g id="elem_CarteCredit"><rect codeLine="4" fill="#F1F1F1" height="96.8906" id="CarteCredit" rx="2.5" ry="2.5" style="stroke:#181818;stroke-width:0.5;" width="177" x="1041" y="670"/><ellipse cx="1083" cy="686" fill="#ADD1B2" rx="11" ry="11" style="stroke:#181818;stroke-width:1.0;"/><path d="M1085.3438,681.6719 C1084.4063,681.2344 1083.8125,681.0938 1082.9375,681.0938 C1080.3125,681.0938 1078.3125,683.1719 1078.3125,685.8906 L1078.3125,687.0156 C1078.3125,689.5938 1080.4219,691.4844 1083.3125,691.4844 C1084.5313,691.4844 1085.6875,691.1875 1086.4375,690.6406 C1087.0156,690.2344 1087.3438,689.7813 1087.3438,689.3906 C1087.3438,688.9375 1086.9531,688.5469 1086.4844,688.5469 C1086.2656,688.5469 1086.0625,688.625 1085.875,688.8125 C1085.4219,689.2969 1085.4219,689.2969 1085.2344,689.3906 C1084.8125,689.6563 1084.125,689.7813 1083.3594,689.7813 C1081.3125,689.7813 1080.0156,688.6875 1080.0156,686.9844 L1080.0156,685.8906 C1080.0156,684.1094 1081.2656,682.7969 1083,682.7969 C1083.5781,682.7969 1084.1875,682.9531 1084.6563,683.2031 C1085.1406,683.4844 1085.3125,683.7031 1085.4063,684.1094 C1085.4688,684.5156 1085.5,684.6406 1085.6406,684.7656 C1085.7813,684.9063 1086.0156,685.0156 1086.2344,685.0156 C1086.5,685.0156 1086.7656,684.875 1086.9375,684.6563 C1087.0469,684.5 1087.0781,684.3125 1087.0781,683.8906 L1087.0781,682.4688 C1087.0781,682.0313 1087.0625,681.9063 1086.9688,681.75 C1086.8125,681.4844 1086.5313,681.3438 1086.2344,681.3438 C1085.9375,681.3438 1085.7344,681.4375 1085.5156,681.75 L1085.3438,681.6719 Z " fill="#000000"/><text fill="#000000" font-family="sans-serif" font-size="14" lengthAdjust="spacing" textLength="85" x="1103" y="690.8467">CarteCredit</text><line style="stroke:#181818;stroke-width:0.5;" x1="1042" x2="1217" y1="702" y2="702"/><text fill="#000000" font-family="sans-serif" font-size="14" lengthAdjust="spacing" textLength="113" x="1047" y="718.9951">numero:Integer</text><text fill="#000000" font-family="sans-serif" font-size="14" lengthAdjust="spacing" textLength="147" x="1047" y="735.292">dateExpiration:Date</text><text fill="#000000" font-family="sans-serif" font-size="14" lengthAdjust="spacing" textLength="165" x="1047" y="751.5889">typeCredit:TypeCredit</text><line style="stroke:#181818;stroke-width:0.5;" x1="1042" x2="1217" y1="758.8906" y2="758.8906"/></g><!--MD5=[1ad1cf91c1575b6d314e6a97e2a6424c]
class PaiementEmprunt--><g id="elem_PaiementEmprunt"><rect codeLine="10" fill="#F1F1F1" height="80.5938" id="PaiementEmprunt" rx="2.5" ry="2.5" style="stroke:#181818;stroke-width:0.5;" width="164" x="946.5" y="844"/><ellipse cx="961.5" cy="860" fill="#ADD1B2" rx="11" ry="11" style="stroke:#181818;stroke-width:1.0;"/><path d="M963.8438,855.6719 C962.9063,855.2344 962.3125,855.0938 961.4375,855.0938 C958.8125,855.0938 956.8125,857.1719 956.8125,859.8906 L956.8125,861.0156 C956.8125,863.5938 958.9219,865.4844 961.8125,865.4844 C963.0313,865.4844 964.1875,865.1875 964.9375,864.6406 C965.5156,864.2344 965.8438,863.7813 965.8438,863.3906 C965.8438,862.9375 965.4531,862.5469 964.9844,862.5469 C964.7656,862.5469 964.5625,862.625 964.375,862.8125 C963.9219,863.2969 963.9219,863.2969 963.7344,863.3906 C963.3125,863.6563 962.625,863.7813 961.8594,863.7813 C959.8125,863.7813 958.5156,862.6875 958.5156,860.9844 L958.5156,859.8906 C958.5156,858.1094 959.7656,856.7969 961.5,856.7969 C962.0781,856.7969 962.6875,856.9531 963.1563,857.2031 C963.6406,857.4844 963.8125,857.7031 963.9063,858.1094 C963.9688,858.5156 964,858.6406 964.1406,858.7656 C964.2813,858.9063 964.5156,859.0156 964.7344,859.0156 C965,859.0156 965.2656,858.875 965.4375,858.6563 C965.5469,858.5 965.5781,858.3125 965.5781,857.8906 L965.5781,856.4688 C965.5781,856.0313 965.5625,855.9063 965.4688,855.75 C965.3125,855.4844 965.0313,855.3438 964.7344,855.3438 C964.4375,855.3438 964.2344,855.4375 964.0156,855.75 L963.8438,855.6719 Z " fill="#000000"/><text fill="#000000" font-family="sans-serif" font-size="14" lengthAdjust="spacing" textLength="132" x="975.5" y="864.8467">PaiementEmprunt</text><line style="stroke:#181818;stroke-width:0.5;" x1="947.5" x2="1109.5" y1="876" y2="876"/><text fill="#000000" font-family="sans-serif" font-size="14" lengthAdjust="spacing" textLength="139" x="952.5" y="892.9951">approbation:String</text><text fill="#000000" font-family="sans-serif" font-size="14" lengthAdjust="spacing" textLength="108" x="952.5" y="909.292">montant: Float</text><line style="stroke:#181818;stroke-width:0.5;" x1="947.5" x2="1109.5" y1="916.5938" y2="916.5938"/></g><!--MD5=[b8ddcf38788c355aa07c78f43d308e02]
class SystemeAutorisationPaiementACredit--><g id="elem_SystemeAutorisationPaiementACredit"><rect codeLine="15" fill="#F1F1F1" height="48" id="SystemeAutorisationPaiementACredit" rx="2.5" ry="2.5" style="stroke:#181818;stroke-width:0.5;" width="307" x="875" y="1002"/><ellipse cx="890" cy="1018" fill="#ADD1B2" rx="11" ry="11" style="stroke:#181818;stroke-width:1.0;"/><path d="M892.3438,1013.6719 C891.4063,1013.2344 890.8125,1013.0938 889.9375,1013.0938 C887.3125,1013.0938 885.3125,1015.1719 885.3125,1017.8906 L885.3125,1019.0156 C885.3125,1021.5938 887.4219,1023.4844 890.3125,1023.4844 C891.5313,1023.4844 892.6875,1023.1875 893.4375,1022.6406 C894.0156,1022.2344 894.3438,1021.7813 894.3438,1021.3906 C894.3438,1020.9375 893.9531,1020.5469 893.4844,1020.5469 C893.2656,1020.5469 893.0625,1020.625 892.875,1020.8125 C892.4219,1021.2969 892.4219,1021.2969 892.2344,1021.3906 C891.8125,1021.6563 891.125,1021.7813 890.3594,1021.7813 C888.3125,1021.7813 887.0156,1020.6875 887.0156,1018.9844 L887.0156,1017.8906 C887.0156,1016.1094 888.2656,1014.7969 890,1014.7969 C890.5781,1014.7969 891.1875,1014.9531 891.6563,1015.2031 C892.1406,1015.4844 892.3125,1015.7031 892.4063,1016.1094 C892.4688,1016.5156 892.5,1016.6406 892.6406,1016.7656 C892.7813,1016.9063 893.0156,1017.0156 893.2344,1017.0156 C893.5,1017.0156 893.7656,1016.875 893.9375,1016.6563 C894.0469,1016.5 894.0781,1016.3125 894.0781,1015.8906 L894.0781,1014.4688 C894.0781,1014.0313 894.0625,1013.9063 893.9688,1013.75 C893.8125,1013.4844 893.5313,1013.3438 893.2344,1013.3438 C892.9375,1013.3438 892.7344,1013.4375 892.5156,1013.75 L892.3438,1013.6719 Z " fill="#000000"/><text fill="#000000" font-family="sans-serif" font-size="14" lengthAdjust="spacing" textLength="275" x="904" y="1022.8467">SystemeAutorisationPaiementACredit</text><line style="stroke:#181818;stroke-width:0.5;" x1="876" x2="1181" y1="1034" y2="1034"/><line style="stroke:#181818;stroke-width:0.5;" x1="876" x2="1181" y1="1042" y2="1042"/></g><!--MD5=[1814193c9658c6c6dc1906d6f6deeb43]
class ConditionAbonnement--><g id="elem_ConditionAbonnement"><rect codeLine="16" fill="#F1F1F1" height="96.8906" id="ConditionAbonnement" rx="2.5" ry="2.5" style="stroke:#181818;stroke-width:0.5;" width="197" x="148" y="670"/><ellipse cx="163" cy="686" fill="#ADD1B2" rx="11" ry="11" style="stroke:#181818;stroke-width:1.0;"/><path d="M165.3438,681.6719 C164.4063,681.2344 163.8125,681.0938 162.9375,681.0938 C160.3125,681.0938 158.3125,683.1719 158.3125,685.8906 L158.3125,687.0156 C158.3125,689.5938 160.4219,691.4844 163.3125,691.4844 C164.5313,691.4844 165.6875,691.1875 166.4375,690.6406 C167.0156,690.2344 167.3438,689.7813 167.3438,689.3906 C167.3438,688.9375 166.9531,688.5469 166.4844,688.5469 C166.2656,688.5469 166.0625,688.625 165.875,688.8125 C165.4219,689.2969 165.4219,689.2969 165.2344,689.3906 C164.8125,689.6563 164.125,689.7813 163.3594,689.7813 C161.3125,689.7813 160.0156,688.6875 160.0156,686.9844 L160.0156,685.8906 C160.0156,684.1094 161.2656,682.7969 163,682.7969 C163.5781,682.7969 164.1875,682.9531 164.6563,683.2031 C165.1406,683.4844 165.3125,683.7031 165.4063,684.1094 C165.4688,684.5156 165.5,684.6406 165.6406,684.7656 C165.7813,684.9063 166.0156,685.0156 166.2344,685.0156 C166.5,685.0156 166.7656,684.875 166.9375,684.6563 C167.0469,684.5 167.0781,684.3125 167.0781,683.8906 L167.0781,682.4688 C167.0781,682.0313 167.0625,681.9063 166.9688,681.75 C166.8125,681.4844 166.5313,681.3438 166.2344,681.3438 C165.9375,681.3438 165.7344,681.4375 165.5156,681.75 L165.3438,681.6719 Z " fill="#000000"/><text fill="#000000" font-family="sans-serif" font-size="14" lengthAdjust="spacing" textLength="165" x="177" y="690.8467">ConditionAbonnement</text><line style="stroke:#181818;stroke-width:0.5;" x1="149" x2="344" y1="702" y2="702"/><text fill="#000000" font-family="sans-serif" font-size="14" lengthAdjust="spacing" textLength="103" x="154" y="718.9951">duree: Integer</text><text fill="#000000" font-family="sans-serif" font-size="14" lengthAdjust="spacing" textLength="73" x="154" y="735.292">prix: Float</text><text fill="#000000" font-family="sans-serif" font-size="14" lengthAdjust="spacing" textLength="117" x="154" y="751.5889">condition:String</text><line style="stroke:#181818;stroke-width:0.5;" x1="149" x2="344" y1="758.8906" y2="758.8906"/></g><!--MD5=[ff641bcbd232b5539ed472630fe3952a]
class Abonnement--><g id="elem_Abonnement"><rect codeLine="21" fill="#F1F1F1" height="80.5938" id="Abonnement" rx="2.5" ry="2.5" style="stroke:#181818;stroke-width:0.5;" width="130" x="490.5" y="844"/><ellipse cx="506.85" cy="860" fill="#ADD1B2" rx="11" ry="11" style="stroke:#181818;stroke-width:1.0;"/><path d="M509.1938,855.6719 C508.2563,855.2344 507.6625,855.0938 506.7875,855.0938 C504.1625,855.0938 502.1625,857.1719 502.1625,859.8906 L502.1625,861.0156 C502.1625,863.5938 504.2719,865.4844 507.1625,865.4844 C508.3813,865.4844 509.5375,865.1875 510.2875,864.6406 C510.8656,864.2344 511.1938,863.7813 511.1938,863.3906 C511.1938,862.9375 510.8031,862.5469 510.3344,862.5469 C510.1156,862.5469 509.9125,862.625 509.725,862.8125 C509.2719,863.2969 509.2719,863.2969 509.0844,863.3906 C508.6625,863.6563 507.975,863.7813 507.2094,863.7813 C505.1625,863.7813 503.8656,862.6875 503.8656,860.9844 L503.8656,859.8906 C503.8656,858.1094 505.1156,856.7969 506.85,856.7969 C507.4281,856.7969 508.0375,856.9531 508.5063,857.2031 C508.9906,857.4844 509.1625,857.7031 509.2563,858.1094 C509.3188,858.5156 509.35,858.6406 509.4906,858.7656 C509.6313,858.9063 509.8656,859.0156 510.0844,859.0156 C510.35,859.0156 510.6156,858.875 510.7875,858.6563 C510.8969,858.5 510.9281,858.3125 510.9281,857.8906 L510.9281,856.4688 C510.9281,856.0313 510.9125,855.9063 510.8188,855.75 C510.6625,855.4844 510.3813,855.3438 510.0844,855.3438 C509.7875,855.3438 509.5844,855.4375 509.3656,855.75 L509.1938,855.6719 Z " fill="#000000"/><text fill="#000000" font-family="sans-serif" font-size="14" lengthAdjust="spacing" textLength="95" x="521.15" y="864.8467">Abonnement</text><line style="stroke:#181818;stroke-width:0.5;" x1="491.5" x2="619.5" y1="876" y2="876"/><text fill="#000000" font-family="sans-serif" font-size="14" lengthAdjust="spacing" textLength="118" x="496.5" y="892.9951">dateDebut:Date</text><text fill="#000000" font-family="sans-serif" font-size="14" lengthAdjust="spacing" textLength="94" x="496.5" y="909.292">dateFin:Date</text><line style="stroke:#181818;stroke-width:0.5;" x1="491.5" x2="619.5" y1="916.5938" y2="916.5938"/></g><!--MD5=[9f2c519bbfbf122e1f1c431369d406e4]
class EntrepriseVelo--><g id="elem_EntrepriseVelo"><rect codeLine="25" fill="#F1F1F1" height="48" id="EntrepriseVelo" rx="2.5" ry="2.5" style="stroke:#181818;stroke-width:0.5;" width="140" x="404.5" y="23.5"/><ellipse cx="419.5" cy="39.5" fill="#ADD1B2" rx="11" ry="11" style="stroke:#181818;stroke-width:1.0;"/><path d="M421.8438,35.1719 C420.9063,34.7344 420.3125,34.5938 419.4375,34.5938 C416.8125,34.5938 414.8125,36.6719 414.8125,39.3906 L414.8125,40.5156 C414.8125,43.0938 416.9219,44.9844 419.8125,44.9844 C421.0313,44.9844 422.1875,44.6875 422.9375,44.1406 C423.5156,43.7344 423.8438,43.2813 423.8438,42.8906 C423.8438,42.4375 423.4531,42.0469 422.9844,42.0469 C422.7656,42.0469 422.5625,42.125 422.375,42.3125 C421.9219,42.7969 421.9219,42.7969 421.7344,42.8906 C421.3125,43.1563 420.625,43.2813 419.8594,43.2813 C417.8125,43.2813 416.5156,42.1875 416.5156,40.4844 L416.5156,39.3906 C416.5156,37.6094 417.7656,36.2969 419.5,36.2969 C420.0781,36.2969 420.6875,36.4531 421.1563,36.7031 C421.6406,36.9844 421.8125,37.2031 421.9063,37.6094 C421.9688,38.0156 422,38.1406 422.1406,38.2656 C422.2813,38.4063 422.5156,38.5156 422.7344,38.5156 C423,38.5156 423.2656,38.375 423.4375,38.1563 C423.5469,38 423.5781,37.8125 423.5781,37.3906 L423.5781,35.9688 C423.5781,35.5313 423.5625,35.4063 423.4688,35.25 C423.3125,34.9844 423.0313,34.8438 422.7344,34.8438 C422.4375,34.8438 422.2344,34.9375 422.0156,35.25 L421.8438,35.1719 Z " fill="#000000"/><text fill="#000000" font-family="sans-serif" font-size="14" lengthAdjust="spacing" textLength="108" x="433.5" y="44.3467">EntrepriseVelo</text><line style="stroke:#181818;stroke-width:0.5;" x1="405.5" x2="543.5" y1="55.5" y2="55.5"/><line style="stroke:#181818;stroke-width:0.5;" x1="405.5" x2="543.5" y1="63.5" y2="63.5"/></g><!--MD5=[32f8e77670dc7b12ba11221465fb86a4]
class Station--><g id="elem_Station"><rect codeLine="26" fill="#F1F1F1" height="48" id="Station" rx="2.5" ry="2.5" style="stroke:#181818;stroke-width:0.5;" width="85" x="432" y="165"/><ellipse cx="447" cy="181" fill="#ADD1B2" rx="11" ry="11" style="stroke:#181818;stroke-width:1.0;"/><path d="M449.3438,176.6719 C448.4063,176.2344 447.8125,176.0938 446.9375,176.0938 C444.3125,176.0938 442.3125,178.1719 442.3125,180.8906 L442.3125,182.0156 C442.3125,184.5938 444.4219,186.4844 447.3125,186.4844 C448.5313,186.4844 449.6875,186.1875 450.4375,185.6406 C451.0156,185.2344 451.3438,184.7813 451.3438,184.3906 C451.3438,183.9375 450.9531,183.5469 450.4844,183.5469 C450.2656,183.5469 450.0625,183.625 449.875,183.8125 C449.4219,184.2969 449.4219,184.2969 449.2344,184.3906 C448.8125,184.6563 448.125,184.7813 447.3594,184.7813 C445.3125,184.7813 444.0156,183.6875 444.0156,181.9844 L444.0156,180.8906 C444.0156,179.1094 445.2656,177.7969 447,177.7969 C447.5781,177.7969 448.1875,177.9531 448.6563,178.2031 C449.1406,178.4844 449.3125,178.7031 449.4063,179.1094 C449.4688,179.5156 449.5,179.6406 449.6406,179.7656 C449.7813,179.9063 450.0156,180.0156 450.2344,180.0156 C450.5,180.0156 450.7656,179.875 450.9375,179.6563 C451.0469,179.5 451.0781,179.3125 451.0781,178.8906 L451.0781,177.4688 C451.0781,177.0313 451.0625,176.9063 450.9688,176.75 C450.8125,176.4844 450.5313,176.3438 450.2344,176.3438 C449.9375,176.3438 449.7344,176.4375 449.5156,176.75 L449.3438,176.6719 Z " fill="#000000"/><text fill="#000000" font-family="sans-serif" font-size="14" lengthAdjust="spacing" textLength="53" x="461" y="185.8467">Station</text><line style="stroke:#181818;stroke-width:0.5;" x1="433" x2="516" y1="197" y2="197"/><line style="stroke:#181818;stroke-width:0.5;" x1="433" x2="516" y1="205" y2="205"/></g><!--MD5=[3e615bf103844a627b8a12b46d3a2886]
class BorneDePaiement--><g id="elem_BorneDePaiement"><rect codeLine="27" fill="#F1F1F1" height="80.5938" id="BorneDePaiement" rx="2.5" ry="2.5" style="stroke:#181818;stroke-width:0.5;" width="173" x="422" y="401"/><ellipse cx="441.05" cy="417" fill="#ADD1B2" rx="11" ry="11" style="stroke:#181818;stroke-width:1.0;"/><path d="M443.3938,412.6719 C442.4563,412.2344 441.8625,412.0938 440.9875,412.0938 C438.3625,412.0938 436.3625,414.1719 436.3625,416.8906 L436.3625,418.0156 C436.3625,420.5938 438.4719,422.4844 441.3625,422.4844 C442.5813,422.4844 443.7375,422.1875 444.4875,421.6406 C445.0656,421.2344 445.3938,420.7813 445.3938,420.3906 C445.3938,419.9375 445.0031,419.5469 444.5344,419.5469 C444.3156,419.5469 444.1125,419.625 443.925,419.8125 C443.4719,420.2969 443.4719,420.2969 443.2844,420.3906 C442.8625,420.6563 442.175,420.7813 441.4094,420.7813 C439.3625,420.7813 438.0656,419.6875 438.0656,417.9844 L438.0656,416.8906 C438.0656,415.1094 439.3156,413.7969 441.05,413.7969 C441.6281,413.7969 442.2375,413.9531 442.7063,414.2031 C443.1906,414.4844 443.3625,414.7031 443.4563,415.1094 C443.5188,415.5156 443.55,415.6406 443.6906,415.7656 C443.8313,415.9063 444.0656,416.0156 444.2844,416.0156 C444.55,416.0156 444.8156,415.875 444.9875,415.6563 C445.0969,415.5 445.1281,415.3125 445.1281,414.8906 L445.1281,413.4688 C445.1281,413.0313 445.1125,412.9063 445.0188,412.75 C444.8625,412.4844 444.5813,412.3438 444.2844,412.3438 C443.9875,412.3438 443.7844,412.4375 443.5656,412.75 L443.3938,412.6719 Z " fill="#000000"/><text fill="#000000" font-family="sans-serif" font-size="14" lengthAdjust="spacing" textLength="132" x="455.95" y="421.8467">BorneDePaiement</text><line style="stroke:#181818;stroke-width:0.5;" x1="423" x2="594" y1="433" y2="433"/><text fill="#000000" font-family="sans-serif" font-size="14" lengthAdjust="spacing" textLength="134" x="428" y="449.9951">identifiant:integer</text><text fill="#000000" font-family="sans-serif" font-size="14" lengthAdjust="spacing" textLength="161" x="428" y="466.292">/nbPlaceLibre: Integer</text><line style="stroke:#181818;stroke-width:0.5;" x1="423" x2="594" y1="473.5938" y2="473.5938"/></g><!--MD5=[c1b88402bac8fd1ca1e60f9275b9a72e]
class PointAncrage--><g id="elem_PointAncrage"><rect codeLine="31" fill="#F1F1F1" height="80.5938" id="PointAncrage" rx="2.5" ry="2.5" style="stroke:#181818;stroke-width:0.5;" width="146" x="527.5" y="290"/><ellipse cx="550.15" cy="306" fill="#ADD1B2" rx="11" ry="11" style="stroke:#181818;stroke-width:1.0;"/><path d="M552.4938,301.6719 C551.5563,301.2344 550.9625,301.0938 550.0875,301.0938 C547.4625,301.0938 545.4625,303.1719 545.4625,305.8906 L545.4625,307.0156 C545.4625,309.5938 547.5719,311.4844 550.4625,311.4844 C551.6813,311.4844 552.8375,311.1875 553.5875,310.6406 C554.1656,310.2344 554.4938,309.7813 554.4938,309.3906 C554.4938,308.9375 554.1031,308.5469 553.6344,308.5469 C553.4156,308.5469 553.2125,308.625 553.025,308.8125 C552.5719,309.2969 552.5719,309.2969 552.3844,309.3906 C551.9625,309.6563 551.275,309.7813 550.5094,309.7813 C548.4625,309.7813 547.1656,308.6875 547.1656,306.9844 L547.1656,305.8906 C547.1656,304.1094 548.4156,302.7969 550.15,302.7969 C550.7281,302.7969 551.3375,302.9531 551.8063,303.2031 C552.2906,303.4844 552.4625,303.7031 552.5563,304.1094 C552.6188,304.5156 552.65,304.6406 552.7906,304.7656 C552.9313,304.9063 553.1656,305.0156 553.3844,305.0156 C553.65,305.0156 553.9156,304.875 554.0875,304.6563 C554.1969,304.5 554.2281,304.3125 554.2281,303.8906 L554.2281,302.4688 C554.2281,302.0313 554.2125,301.9063 554.1188,301.75 C553.9625,301.4844 553.6813,301.3438 553.3844,301.3438 C553.0875,301.3438 552.8844,301.4375 552.6656,301.75 L552.4938,301.6719 Z " fill="#000000"/><text fill="#000000" font-family="sans-serif" font-size="14" lengthAdjust="spacing" textLength="97" x="565.85" y="310.8467">PointAncrage</text><line style="stroke:#181818;stroke-width:0.5;" x1="528.5" x2="672.5" y1="322" y2="322"/><text fill="#000000" font-family="sans-serif" font-size="14" lengthAdjust="spacing" textLength="134" x="533.5" y="338.9951">identifiant:Integer</text><text fill="#000000" font-family="sans-serif" font-size="14" lengthAdjust="spacing" textLength="132" x="533.5" y="355.292">/estLibre: boolean</text><line style="stroke:#181818;stroke-width:0.5;" x1="528.5" x2="672.5" y1="362.5938" y2="362.5938"/></g><!--MD5=[f7610c36e77f875c1cc843ecc350ddea]
class Velo--><g id="elem_Velo"><rect codeLine="36" fill="#F1F1F1" height="64.2969" id="Velo" rx="2.5" ry="2.5" style="stroke:#181818;stroke-width:0.5;" width="115" x="646" y="520.5"/><ellipse cx="683.95" cy="536.5" fill="#ADD1B2" rx="11" ry="11" style="stroke:#181818;stroke-width:1.0;"/><path d="M686.2938,532.1719 C685.3563,531.7344 684.7625,531.5938 683.8875,531.5938 C681.2625,531.5938 679.2625,533.6719 679.2625,536.3906 L679.2625,537.5156 C679.2625,540.0938 681.3719,541.9844 684.2625,541.9844 C685.4813,541.9844 686.6375,541.6875 687.3875,541.1406 C687.9656,540.7344 688.2938,540.2813 688.2938,539.8906 C688.2938,539.4375 687.9031,539.0469 687.4344,539.0469 C687.2156,539.0469 687.0125,539.125 686.825,539.3125 C686.3719,539.7969 686.3719,539.7969 686.1844,539.8906 C685.7625,540.1563 685.075,540.2813 684.3094,540.2813 C682.2625,540.2813 680.9656,539.1875 680.9656,537.4844 L680.9656,536.3906 C680.9656,534.6094 682.2156,533.2969 683.95,533.2969 C684.5281,533.2969 685.1375,533.4531 685.6063,533.7031 C686.0906,533.9844 686.2625,534.2031 686.3563,534.6094 C686.4188,535.0156 686.45,535.1406 686.5906,535.2656 C686.7313,535.4063 686.9656,535.5156 687.1844,535.5156 C687.45,535.5156 687.7156,535.375 687.8875,535.1563 C687.9969,535 688.0281,534.8125 688.0281,534.3906 L688.0281,532.9688 C688.0281,532.5313 688.0125,532.4063 687.9188,532.25 C687.7625,531.9844 687.4813,531.8438 687.1844,531.8438 C686.8875,531.8438 686.6844,531.9375 686.4656,532.25 L686.2938,532.1719 Z " fill="#000000"/><text fill="#000000" font-family="sans-serif" font-size="14" lengthAdjust="spacing" textLength="32" x="703.05" y="541.3467">Velo</text><line style="stroke:#181818;stroke-width:0.5;" x1="647" x2="760" y1="552.5" y2="552.5"/><text fill="#000000" font-family="sans-serif" font-size="14" lengthAdjust="spacing" textLength="103" x="652" y="569.4951">idVelo:integer</text><line style="stroke:#181818;stroke-width:0.5;" x1="647" x2="760" y1="576.7969" y2="576.7969"/></g><!--MD5=[e4366c919f9a1d20f14e6bc8291e05b5]
class Emprunt--><g id="elem_Emprunt"><rect codeLine="39" fill="#F1F1F1" height="80.5938" id="Emprunt" rx="2.5" ry="2.5" style="stroke:#181818;stroke-width:0.5;" width="208" x="451.5" y="678"/><ellipse cx="519.75" cy="694" fill="#ADD1B2" rx="11" ry="11" style="stroke:#181818;stroke-width:1.0;"/><path d="M522.0938,689.6719 C521.1563,689.2344 520.5625,689.0938 519.6875,689.0938 C517.0625,689.0938 515.0625,691.1719 515.0625,693.8906 L515.0625,695.0156 C515.0625,697.5938 517.1719,699.4844 520.0625,699.4844 C521.2813,699.4844 522.4375,699.1875 523.1875,698.6406 C523.7656,698.2344 524.0938,697.7813 524.0938,697.3906 C524.0938,696.9375 523.7031,696.5469 523.2344,696.5469 C523.0156,696.5469 522.8125,696.625 522.625,696.8125 C522.1719,697.2969 522.1719,697.2969 521.9844,697.3906 C521.5625,697.6563 520.875,697.7813 520.1094,697.7813 C518.0625,697.7813 516.7656,696.6875 516.7656,694.9844 L516.7656,693.8906 C516.7656,692.1094 518.0156,690.7969 519.75,690.7969 C520.3281,690.7969 520.9375,690.9531 521.4063,691.2031 C521.8906,691.4844 522.0625,691.7031 522.1563,692.1094 C522.2188,692.5156 522.25,692.6406 522.3906,692.7656 C522.5313,692.9063 522.7656,693.0156 522.9844,693.0156 C523.25,693.0156 523.5156,692.875 523.6875,692.6563 C523.7969,692.5 523.8281,692.3125 523.8281,691.8906 L523.8281,690.4688 C523.8281,690.0313 523.8125,689.9063 523.7188,689.75 C523.5625,689.4844 523.2813,689.3438 522.9844,689.3438 C522.6875,689.3438 522.4844,689.4375 522.2656,689.75 L522.0938,689.6719 Z " fill="#000000"/><text fill="#000000" font-family="sans-serif" font-size="14" lengthAdjust="spacing" textLength="63" x="540.25" y="698.8467">Emprunt</text><line style="stroke:#181818;stroke-width:0.5;" x1="452.5" x2="658.5" y1="710" y2="710"/><text fill="#000000" font-family="sans-serif" font-size="14" lengthAdjust="spacing" textLength="196" x="457.5" y="726.9951">dateHeureDebut:DateTime</text><text fill="#000000" font-family="sans-serif" font-size="14" lengthAdjust="spacing" textLength="175" x="457.5" y="743.292">dateheureFin: DateTime</text><line style="stroke:#181818;stroke-width:0.5;" x1="452.5" x2="658.5" y1="750.5938" y2="750.5938"/></g><!--MD5=[3d856eaa51983e1ee9b059b2b7f3cada]
class PaiementAbonnement--><g id="elem_PaiementAbonnement"><rect codeLine="43" fill="#F1F1F1" height="80.5938" id="PaiementAbonnement" rx="2.5" ry="2.5" style="stroke:#181818;stroke-width:0.5;" width="196" x="1031.5" y="512"/><ellipse cx="1046.5" cy="528" fill="#ADD1B2" rx="11" ry="11" style="stroke:#181818;stroke-width:1.0;"/><path d="M1048.8438,523.6719 C1047.9063,523.2344 1047.3125,523.0938 1046.4375,523.0938 C1043.8125,523.0938 1041.8125,525.1719 1041.8125,527.8906 L1041.8125,529.0156 C1041.8125,531.5938 1043.9219,533.4844 1046.8125,533.4844 C1048.0313,533.4844 1049.1875,533.1875 1049.9375,532.6406 C1050.5156,532.2344 1050.8438,531.7813 1050.8438,531.3906 C1050.8438,530.9375 1050.4531,530.5469 1049.9844,530.5469 C1049.7656,530.5469 1049.5625,530.625 1049.375,530.8125 C1048.9219,531.2969 1048.9219,531.2969 1048.7344,531.3906 C1048.3125,531.6563 1047.625,531.7813 1046.8594,531.7813 C1044.8125,531.7813 1043.5156,530.6875 1043.5156,528.9844 L1043.5156,527.8906 C1043.5156,526.1094 1044.7656,524.7969 1046.5,524.7969 C1047.0781,524.7969 1047.6875,524.9531 1048.1563,525.2031 C1048.6406,525.4844 1048.8125,525.7031 1048.9063,526.1094 C1048.9688,526.5156 1049,526.6406 1049.1406,526.7656 C1049.2813,526.9063 1049.5156,527.0156 1049.7344,527.0156 C1050,527.0156 1050.2656,526.875 1050.4375,526.6563 C1050.5469,526.5 1050.5781,526.3125 1050.5781,525.8906 L1050.5781,524.4688 C1050.5781,524.0313 1050.5625,523.9063 1050.4688,523.75 C1050.3125,523.4844 1050.0313,523.3438 1049.7344,523.3438 C1049.4375,523.3438 1049.2344,523.4375 1049.0156,523.75 L1048.8438,523.6719 Z " fill="#000000"/><text fill="#000000" font-family="sans-serif" font-size="14" lengthAdjust="spacing" textLength="164" x="1060.5" y="532.8467">PaiementAbonnement</text><line style="stroke:#181818;stroke-width:0.5;" x1="1032.5" x2="1226.5" y1="544" y2="544"/><text fill="#000000" font-family="sans-serif" font-size="14" lengthAdjust="spacing" textLength="139" x="1037.5" y="560.9951">approbation:String</text><text fill="#000000" font-family="sans-serif" font-size="14" lengthAdjust="spacing" textLength="106" x="1037.5" y="577.292">montant: float</text><line style="stroke:#181818;stroke-width:0.5;" x1="1032.5" x2="1226.5" y1="584.5938" y2="584.5938"/></g><!--MD5=[dc34cca03f8f566b9cbbb227ade4db36]
class IDVendeur--><g id="elem_IDVendeur"><rect codeLine="47" fill="#F1F1F1" height="80.5938" id="IDVendeur" rx="2.5" ry="2.5" style="stroke:#181818;stroke-width:0.5;" width="181" x="7" y="7"/><ellipse cx="55.75" cy="23" fill="#ADD1B2" rx="11" ry="11" style="stroke:#181818;stroke-width:1.0;"/><path d="M58.0938,18.6719 C57.1563,18.2344 56.5625,18.0938 55.6875,18.0938 C53.0625,18.0938 51.0625,20.1719 51.0625,22.8906 L51.0625,24.0156 C51.0625,26.5938 53.1719,28.4844 56.0625,28.4844 C57.2813,28.4844 58.4375,28.1875 59.1875,27.6406 C59.7656,27.2344 60.0938,26.7813 60.0938,26.3906 C60.0938,25.9375 59.7031,25.5469 59.2344,25.5469 C59.0156,25.5469 58.8125,25.625 58.625,25.8125 C58.1719,26.2969 58.1719,26.2969 57.9844,26.3906 C57.5625,26.6563 56.875,26.7813 56.1094,26.7813 C54.0625,26.7813 52.7656,25.6875 52.7656,23.9844 L52.7656,22.8906 C52.7656,21.1094 54.0156,19.7969 55.75,19.7969 C56.3281,19.7969 56.9375,19.9531 57.4063,20.2031 C57.8906,20.4844 58.0625,20.7031 58.1563,21.1094 C58.2188,21.5156 58.25,21.6406 58.3906,21.7656 C58.5313,21.9063 58.7656,22.0156 58.9844,22.0156 C59.25,22.0156 59.5156,21.875 59.6875,21.6563 C59.7969,21.5 59.8281,21.3125 59.8281,20.8906 L59.8281,19.4688 C59.8281,19.0313 59.8125,18.9063 59.7188,18.75 C59.5625,18.4844 59.2813,18.3438 58.9844,18.3438 C58.6875,18.3438 58.4844,18.4375 58.2656,18.75 L58.0938,18.6719 Z " fill="#000000"/><text fill="#000000" font-family="sans-serif" font-size="14" lengthAdjust="spacing" textLength="75" x="76.25" y="27.8467">IDVendeur</text><line style="stroke:#181818;stroke-width:0.5;" x1="8" x2="187" y1="39" y2="39"/><text fill="#000000" font-family="sans-serif" font-size="14" lengthAdjust="spacing" textLength="107" x="13" y="55.9951">IDV: idVendeur</text><text fill="#000000" font-family="sans-serif" font-size="14" lengthAdjust="spacing" textLength="169" x="13" y="72.292">typeCredit: TypeCredit</text><line style="stroke:#181818;stroke-width:0.5;" x1="8" x2="187" y1="79.5938" y2="79.5938"/></g><!--MD5=[616ff3862f0377d08f0e83ee2f07b71b]
link PaiementAbonnement to Abonnement--><g id="link_PaiementAbonnement_Abonnement"><path codeLine="52" d="M1046.92,593.089 C1028.46,602.489 1009.13,612.77 991.5,623 C958.766,641.989 946.534,642.535 920.5,670 C886.1,706.29 901.726,734.765 863.5,767 C792.589,826.796 687.843,857.593 620.635,872.13 " fill="none" id="PaiementAbonnement-Abonnement" style="stroke:#181818;stroke-width:1.0;"/><polygon fill="#000000" points="929.6834,715.828,920.5059,718.3229,923.7251,723.2408,929.6834,715.828" style="stroke:#000000;stroke-width:1.0;"/><text fill="#000000" font-family="sans-serif" font-size="13" lengthAdjust="spacing" textLength="88" x="934.5" y="723.0669">est activé par</text><text fill="#000000" font-family="sans-serif" font-size="13" lengthAdjust="spacing" textLength="8" x="1025.6624" y="612.5608">1</text><text fill="#000000" font-family="sans-serif" font-size="13" lengthAdjust="spacing" textLength="8" x="628.6287" y="866.9306">1</text></g><!--MD5=[fbd0ca0a3296f81aa35a4a23340528d0]
link PaiementAbonnement to CarteCredit--><g id="link_PaiementAbonnement_CarteCredit"><path codeLine="53" d="M1129.5,593.2 C1129.5,616.33 1129.5,645.645 1129.5,669.996 " fill="none" id="PaiementAbonnement-CarteCredit" style="stroke:#181818;stroke-width:1.0;"/><polygon fill="#000000" points="1134.5,636.5664,1137.4389,627.5213,1131.5611,627.5213,1134.5,636.5664" style="stroke:#000000;stroke-width:1.0;"/><text fill="#000000" font-family="sans-serif" font-size="13" lengthAdjust="spacing" textLength="57" x="1143.5" y="636.0669">payé par</text><text fill="#000000" font-family="sans-serif" font-size="13" lengthAdjust="spacing" textLength="8" x="1120.8875" y="612.6888">1</text><text fill="#000000" font-family="sans-serif" font-size="13" lengthAdjust="spacing" textLength="8" x="1120.9125" y="658.8551">1</text></g><!--MD5=[dcbe33e3806c0d1a50e8a495cb8d8c79]
link Client to Abonnement--><g id="link_Client_Abonnement"><path codeLine="55" d="M855.244,584.5 C826.398,606.956 787.622,638.741 756.5,670 C717.072,709.601 714.468,725.998 676.5,767 C651.833,793.639 622.54,821.921 598.955,843.948 " fill="none" id="Client-Abonnement" style="stroke:#181818;stroke-width:1.0;"/><polygon fill="#000000" points="757.9862,722.1235,766.4336,717.754,762.2519,713.6233,757.9862,722.1235" style="stroke:#000000;stroke-width:1.0;"/><text fill="#000000" font-family="sans-serif" font-size="13" lengthAdjust="spacing" textLength="88" x="770.5" y="723.0669">souhaite faire</text><text fill="#000000" font-family="sans-serif" font-size="13" lengthAdjust="spacing" textLength="8" x="837.91" y="604.6969">1</text><text fill="#000000" font-family="sans-serif" font-size="13" lengthAdjust="spacing" textLength="7" x="598.8223" y="832.8023">*</text></g><!--MD5=[ca1701c582bf2ef649741eac56c3f7c8]
link Client to CarteCredit--><g id="link_Client_CarteCredit"><path codeLine="56" d="M940.599,584.54 C974.77,608.591 1022.71,642.333 1061.74,669.807 " fill="none" id="Client-CarteCredit" style="stroke:#181818;stroke-width:1.0;"/><polygon fill="#000000" points="1022.5887,634.4443,1016.8837,626.8348,1013.5006,631.6414,1022.5887,634.4443" style="stroke:#000000;stroke-width:1.0;"/><text fill="#000000" font-family="sans-serif" font-size="13" lengthAdjust="spacing" textLength="54" x="1027.5" y="636.0669">possède</text><text fill="#000000" font-family="sans-serif" font-size="13" lengthAdjust="spacing" textLength="8" x="940.8694" y="604.7451">1</text><text fill="#000000" font-family="sans-serif" font-size="13" lengthAdjust="spacing" textLength="8" x="1043.6488" y="658.9888">1</text></g><!--MD5=[2eeaacb68fcfdf4f8cfb87772109c64d]
link CarteCredit to PaiementEmprunt--><g id="link_CarteCredit_PaiementEmprunt"><path codeLine="57" d="M1100.02,767.376 C1085.05,791.674 1067.09,820.838 1052.91,843.86 " fill="none" id="CarteCredit-PaiementEmprunt" style="stroke:#181818;stroke-width:1.0;"/><polygon fill="#000000" points="1081.8778,809.8236,1089.1238,803.6635,1084.1191,800.5809,1081.8778,809.8236" style="stroke:#000000;stroke-width:1.0;"/><text fill="#000000" font-family="sans-serif" font-size="13" lengthAdjust="spacing" textLength="128" x="1093.5" y="810.0669">établit le crédit pour</text><text fill="#000000" font-family="sans-serif" font-size="13" lengthAdjust="spacing" textLength="8" x="1087.5211" y="787.0347">1</text><text fill="#000000" font-family="sans-serif" font-size="13" lengthAdjust="spacing" textLength="7" x="1049.3732" y="832.9983">*</text></g><!--MD5=[a45d2fd73c1f238e98252af482ff5567]
link PaiementEmprunt to SystemeAutorisationPaiementACredit--><g id="link_PaiementEmprunt_SystemeAutorisationPaiementACredit"><path codeLine="58" d="M1028.5,925.102 C1028.5,949.912 1028.5,981.0231 1028.5,1001.8764 " fill="none" id="PaiementEmprunt-SystemeAutorisationPaiementACredit" style="stroke:#181818;stroke-width:1.0;"/><polygon fill="#000000" points="1033.5,958.5664,1030.5611,967.6115,1036.4389,967.6115,1033.5,958.5664" style="stroke:#000000;stroke-width:1.0;"/><text fill="#000000" font-family="sans-serif" font-size="13" lengthAdjust="spacing" textLength="52" x="1042.5" y="968.0669">autorise</text><text fill="#000000" font-family="sans-serif" font-size="13" lengthAdjust="spacing" textLength="7" x="1020.9641" y="944.5758">*</text><text fill="#000000" font-family="sans-serif" font-size="13" lengthAdjust="spacing" textLength="8" x="1019.475" y="990.8568">1</text></g><!--MD5=[32f12eb790cffeeb9b25d28a772e56e4]
link PaiementAbonnement to SystemeAutorisationPaiementACredit--><g id="link_PaiementAbonnement_SystemeAutorisationPaiementACredit"><path codeLine="59" d="M1180.74,593.265 C1190.92,602.423 1201.05,612.56 1209.5,623 C1263.23,689.383 1263.09,735.062 1230.5,814 C1196.12,897.278 1169.15,910.294 1103.5,972 C1092,982.8108 1078.18,993.1863 1065.55,1001.8465 " fill="none" id="PaiementAbonnement-SystemeAutorisationPaiementACredit" style="stroke:#181818;stroke-width:1.0;"/><polygon fill="#000000" points="1243.8567,800.754,1238.5737,808.6622,1244.231,810.2572,1243.8567,800.754" style="stroke:#000000;stroke-width:1.0;"/><text fill="#000000" font-family="sans-serif" font-size="13" lengthAdjust="spacing" textLength="52" x="1251.5" y="810.0669">autorise</text><text fill="#000000" font-family="sans-serif" font-size="13" lengthAdjust="spacing" textLength="7" x="1181.0502" y="612.7637">*</text><text fill="#000000" font-family="sans-serif" font-size="13" lengthAdjust="spacing" textLength="8" x="1066.0191" y="990.8192">1</text></g><!--MD5=[dc8d8aa8b1b94f97068407a60b7496e8]
link EntrepriseVelo to Station--><g id="link_EntrepriseVelo_Station"><path codeLine="60" d="M474.5,71.536 C474.5,97.383 474.5,139.069 474.5,164.93 " fill="none" id="EntrepriseVelo-Station" style="stroke:#181818;stroke-width:1.0;"/><polygon fill="#000000" points="479.5,131.5664,482.4389,122.5213,476.5611,122.5213,479.5,131.5664" style="stroke:#000000;stroke-width:1.0;"/><text fill="#000000" font-family="sans-serif" font-size="13" lengthAdjust="spacing" textLength="54" x="488.5" y="131.0669">possède</text><text fill="#000000" font-family="sans-serif" font-size="13" lengthAdjust="spacing" textLength="8" x="465.475" y="91.701">1</text><text fill="#000000" font-family="sans-serif" font-size="13" lengthAdjust="spacing" textLength="7" x="466.6031" y="153.9241">*</text></g><!--MD5=[eb01511fff8920148093801da127e82e]
link Station to PointAncrage--><g id="link_Station_PointAncrage"><path codeLine="61" d="M515.201,213.032 C527.796,221.403 541.085,231.632 551.5,243 C564.092,256.744 574.78,274.287 582.93,289.977 " fill="none" id="Station-PointAncrage" style="stroke:#181818;stroke-width:1.0;"/><polygon fill="#000000" points="573.8036,255.3196,570.0334,246.5882,565.6213,250.4719,573.8036,255.3196" style="stroke:#000000;stroke-width:1.0;"/><text fill="#000000" font-family="sans-serif" font-size="13" lengthAdjust="spacing" textLength="54" x="579.5" y="256.0669">possède</text><text fill="#000000" font-family="sans-serif" font-size="13" lengthAdjust="spacing" textLength="8" x="516.6056" y="233.196">1</text><text fill="#000000" font-family="sans-serif" font-size="13" lengthAdjust="spacing" textLength="7" x="572.3086" y="278.8363">*</text></g><!--MD5=[6490befe47b3247d60ec9716d3565fbd]
link Station to BorneDePaiement--><g id="link_Station_BorneDePaiement"><path codeLine="62" d="M473.424,213.065 C473.054,226.738 473.043,244.391 474.5,260 C479.065,308.895 490.441,364.282 498.783,400.656 " fill="none" id="Station-BorneDePaiement" style="stroke:#181818;stroke-width:1.0;"/><polygon fill="#000000" points="480.1698,256.5213,481.8705,247.1641,476.0457,247.9515,480.1698,256.5213" style="stroke:#000000;stroke-width:1.0;"/><text fill="#000000" font-family="sans-serif" font-size="13" lengthAdjust="spacing" textLength="54" x="488.5" y="256.0669">possède</text><text fill="#000000" font-family="sans-serif" font-size="13" lengthAdjust="spacing" textLength="8" x="464.1233" y="233.2374">1</text><text fill="#000000" font-family="sans-serif" font-size="13" lengthAdjust="spacing" textLength="8" x="488.5969" y="390.061">1</text></g><!--MD5=[772c81662c124ff46e439ab0dc8bf06e]
link BorneDePaiement to Emprunt--><g id="link_BorneDePaiement_Emprunt"><path codeLine="63" d="M515.284,482.194 C524.207,534.402 539.796,625.616 548.718,677.818 " fill="none" id="BorneDePaiement-Emprunt" style="stroke:#181818;stroke-width:1.0;"/><polygon fill="#000000" points="540.3423,557.4949,541.7155,548.084,535.9216,549.0742,540.3423,557.4949" style="stroke:#000000;stroke-width:1.0;"/><text fill="#000000" font-family="sans-serif" font-size="13" lengthAdjust="spacing" textLength="65" x="548.5" y="557.0669">enregistre</text><text fill="#000000" font-family="sans-serif" font-size="13" lengthAdjust="spacing" textLength="8" x="507.7103" y="501.6819">1</text><text fill="#000000" font-family="sans-serif" font-size="13" lengthAdjust="spacing" textLength="7" x="540.015" y="666.9494">*</text></g><!--MD5=[8902f8c6c80457ca0a25913d567d791f]
link PointAncrage to Velo--><g id="link_PointAncrage_Velo"><path codeLine="64" d="M602.641,371.082 C605.783,402.773 613.514,447.475 632.5,482 C640.313,496.207 651.961,509.352 663.574,520.298 " fill="none" id="PointAncrage-Velo" style="stroke:#181818;stroke-width:1.0;"/><polygon fill="#000000" points="639.3902,446.1953,638.6916,436.7105,633.2499,438.9326,639.3902,446.1953" style="stroke:#000000;stroke-width:1.0;"/><text fill="#000000" font-family="sans-serif" font-size="13" lengthAdjust="spacing" textLength="53" x="646.5" y="446.0669">héberge</text><text fill="#000000" font-family="sans-serif" font-size="13" lengthAdjust="spacing" textLength="8" x="594.3563" y="390.5527">1</text><text fill="#000000" font-family="sans-serif" font-size="13" lengthAdjust="spacing" textLength="24" x="629.3511" y="509.5324">0..1</text></g><!--MD5=[9ac889d6fdb1439ca914a9d491a8cfd9]
link Velo to Emprunt--><g id="link_Velo_Emprunt"><path codeLine="65" d="M672.208,584.523 C660.498,596.381 647.205,610.142 635.5,623 C619.438,640.644 602.264,660.754 587.963,677.874 " fill="none" id="Velo-Emprunt" style="stroke:#181818;stroke-width:1.0;"/><polygon fill="#000000" points="643.8499,627.8545,635.6081,632.6004,639.9717,636.5384,643.8499,627.8545" style="stroke:#000000;stroke-width:1.0;"/><text fill="#000000" font-family="sans-serif" font-size="13" lengthAdjust="spacing" textLength="53" x="649.5" y="636.0669">est pour</text><text fill="#000000" font-family="sans-serif" font-size="13" lengthAdjust="spacing" textLength="8" x="656.929" y="604.7246">1</text><text fill="#000000" font-family="sans-serif" font-size="13" lengthAdjust="spacing" textLength="8" x="584.6772" y="667.0147">1</text></g><!--MD5=[e88cd8c1b162c4f3ad2c47454720dd93]
link Emprunt to PaiementEmprunt--><g id="link_Emprunt_PaiementEmprunt"><path codeLine="66" d="M659.831,757.538 C668.843,760.76 677.827,763.951 686.5,767 C775.114,798.155 877.082,832.725 946.459,856.054 " fill="none" id="Emprunt-PaiementEmprunt" style="stroke:#181818;stroke-width:1.0;"/><polygon fill="#000000" points="828.2285,807.1916,820.6298,801.4722,818.7193,807.0309,828.2285,807.1916" style="stroke:#000000;stroke-width:1.0;"/><text fill="#000000" font-family="sans-serif" font-size="13" lengthAdjust="spacing" textLength="81" x="832.5" y="810.0669">est réglé par</text><text fill="#000000" font-family="sans-serif" font-size="13" lengthAdjust="spacing" textLength="8" x="667.448" y="756.8414">1</text><text fill="#000000" font-family="sans-serif" font-size="13" lengthAdjust="spacing" textLength="24" x="914.3774" y="850.0549">0..1</text></g><!--MD5=[e3885a582c842f707300d7ca88d07ac8]
link Emprunt to Abonnement--><g id="link_Emprunt_Abonnement"><path codeLine="67" d="M555.5,759.2 C555.5,784.89 555.5,818.208 555.5,843.882 " fill="none" id="Emprunt-Abonnement" style="stroke:#181818;stroke-width:1.0;"/><polygon fill="#000000" points="560.5,800.5664,557.5611,809.6115,563.4389,809.6115,560.5,800.5664" style="stroke:#000000;stroke-width:1.0;"/><text fill="#000000" font-family="sans-serif" font-size="13" lengthAdjust="spacing" textLength="47" x="569.5" y="810.0669">permet</text><text fill="#000000" font-family="sans-serif" font-size="13" lengthAdjust="spacing" textLength="7" x="547.9641" y="778.6888">*</text><text fill="#000000" font-family="sans-serif" font-size="13" lengthAdjust="spacing" textLength="8" x="546.8375" y="833.024">1</text></g><!--MD5=[0f4302006bef78c43604275f2ee77bc2]
link ConditionAbonnement to Abonnement--><g id="link_ConditionAbonnement_Abonnement"><path codeLine="68" d="M260.915,767.143 C268.208,784.099 278.734,801.954 293.5,814 C349.565,859.736 432.791,875.604 490.329,880.984 " fill="none" id="ConditionAbonnement-Abonnement" style="stroke:#181818;stroke-width:1.0;"/><polygon fill="#000000" points="302.9789,807.7889,296.1829,801.1357,293.5701,806.401,302.9789,807.7889" style="stroke:#000000;stroke-width:1.0;"/><text fill="#000000" font-family="sans-serif" font-size="13" lengthAdjust="spacing" textLength="64" x="307.5" y="810.0669">s'applique</text><text fill="#000000" font-family="sans-serif" font-size="13" lengthAdjust="spacing" textLength="8" x="254.3796" y="787.122">1</text><text fill="#000000" font-family="sans-serif" font-size="13" lengthAdjust="spacing" textLength="7" x="475.3889" y="876.8083">*</text></g><!--MD5=[449adbb0254ed322470f17e172d92ad5]
link EntrepriseVelo to Velo--><g id="link_EntrepriseVelo_Velo"><path codeLine="69" d="M505.32,71.516 C554.571,110.322 649.619,193.997 690.5,290 C723.446,367.37 715.564,469.48 708.657,520.168 " fill="none" id="EntrepriseVelo-Velo" style="stroke:#181818;stroke-width:1.0;"/><polygon fill="#000000" points="683.564,256.1205,682.507,246.6689,677.1534,249.0952,683.564,256.1205" style="stroke:#000000;stroke-width:1.0;"/><text fill="#000000" font-family="sans-serif" font-size="13" lengthAdjust="spacing" textLength="54" x="690.5" y="256.0669">possède</text><text fill="#000000" font-family="sans-serif" font-size="13" lengthAdjust="spacing" textLength="8" x="504.1926" y="91.6759">1</text><text fill="#000000" font-family="sans-serif" font-size="13" lengthAdjust="spacing" textLength="7" x="701.9832" y="509.3768">*</text></g><!--MD5=[240a9b5ccc3ec28c9b6d9064f17d11f6]
link Station to Abonnement--><g id="link_Station_Abonnement"><path codeLine="70" d="M452.518,213.099 C430.072,239.197 398.5,283.993 398.5,329.5 C398.5,329.5 398.5,329.5 398.5,719.5 C398.5,775.668 447.146,820.12 490.282,848.496 " fill="none" id="Station-Abonnement" style="stroke:#181818;stroke-width:1.0;"/><polygon fill="#000000" points="403.7966,557.5576,406.1938,548.3541,400.3263,548.7028,403.7966,557.5576" style="stroke:#000000;stroke-width:1.0;"/><text fill="#000000" font-family="sans-serif" font-size="13" lengthAdjust="spacing" textLength="47" x="412.5" y="557.0669">permet</text><text fill="#000000" font-family="sans-serif" font-size="13" lengthAdjust="spacing" textLength="8" x="438.1849" y="232.8843">1</text><text fill="#000000" font-family="sans-serif" font-size="13" lengthAdjust="spacing" textLength="7" x="475.3365" y="840.5639">*</text></g><!--MD5=[fb2a3ba860b74e8d6ef5af8660f9e4b1]
link IDVendeur to EntrepriseVelo--><g id="link_IDVendeur_EntrepriseVelo"><path codeLine="71" d="M188.281,47.5 C254.625,47.5 343.291,47.5 404.263,47.5 " fill="none" id="IDVendeur-EntrepriseVelo" style="stroke:#181818;stroke-width:1.0;"/><polygon fill="#000000" points="206.25,36.0664,215.2951,39.0053,215.2951,33.1275,206.25,36.0664" style="stroke:#000000;stroke-width:1.0;"/><text fill="#000000" font-family="sans-serif" font-size="13" lengthAdjust="spacing" textLength="165" x="220.25" y="40.5669">possède plusieurs contrat</text><text fill="#000000" font-family="sans-serif" font-size="13" lengthAdjust="spacing" textLength="7" x="196.0886" y="43.9681">*</text><text fill="#000000" font-family="sans-serif" font-size="13" lengthAdjust="spacing" textLength="8" x="388.6073" y="43.8003">1</text></g><!--MD5=[4bb732499df98217d1f991529850d833]
link IDVendeur to SystemeAutorisationPaiementACredit--><g id="link_IDVendeur_SystemeAutorisationPaiementACredit"><path codeLine="72" d="M96.1929,88.181 C95.3844,116.095 94.5,154.328 94.5,188 C94.5,188 94.5,188 94.5,885.5 C94.5,963.4282 609.664,1002.5492 874.792,1017.5228 " fill="none" id="IDVendeur-SystemeAutorisationPaiementACredit" style="stroke:#181818;stroke-width:1.0;"/><text fill="#000000" font-family="sans-serif" font-size="13" lengthAdjust="spacing" textLength="169" x="95.5" y="549.5669">fait autoriser les paiement</text><polygon fill="#000000" points="112.211,564.0319,108.655,555.2111,104.1494,558.9859,112.211,564.0319" style="stroke:#000000;stroke-width:1.0;"/><text fill="#000000" font-family="sans-serif" font-size="13" lengthAdjust="spacing" textLength="139" x="117" y="564.6997">avec le type de crédit</text></g><!--MD5=[03af1495c55314c8606959ad0ad03bd7]
@startuml
class Client {
    nom: string
}
class CarteCredit {
    numero:Integer
    dateExpiration:Date
    typeCredit:TypeCredit
}

class PaiementEmprunt {
    approbation:String 
    montant: Float
}

class SystemeAutorisationPaiementACredit
class ConditionAbonnement{
    duree: Integer 
    prix: Float 
    condition:String
}
class Abonnement {
    dateDebut:Date
    dateFin:Date
}
class EntrepriseVelo
class Station
class BorneDePaiement {
    identifiant:integer 
    /nbPlaceLibre: Integer
}
class PointAncrage{
    identifiant:Integer
    /estLibre: boolean
}

class Velo{
    idVelo:integer
}
class Emprunt {
    dateHeureDebut:DateTime 
    dateheureFin: DateTime 
}
class PaiementAbonnement {
    approbation:String 
    montant: float
}
class IDVendeur {
    IDV: idVendeur
    typeCredit: TypeCredit
}

PaiementAbonnement "1" - - "1" Abonnement: est activé par <
PaiementAbonnement "1" - - "1" CarteCredit: payé par >

Client "1" - - "*" Abonnement: souhaite faire >
Client "1" - - "1" CarteCredit: possède >
CarteCredit "1" - - "*" PaiementEmprunt: établit le crédit pour >
PaiementEmprunt "*" - - "1" SystemeAutorisationPaiementACredit: autorise <
PaiementAbonnement "*" - - "1" SystemeAutorisationPaiementACredit: autorise <
EntrepriseVelo "1" - - "*" Station: possède >
Station "1" - - "*" PointAncrage: possède >
Station "1" - - "1" BorneDePaiement: possède >
BorneDePaiement "1" - - "*" Emprunt: enregistre >
PointAncrage "1" - - "0..1" Velo: héberge >
Velo "1" - - "1" Emprunt: est pour <
Emprunt "1" - - "0..1" PaiementEmprunt: est réglé par >
Emprunt "*" - - "1" Abonnement: permet <
ConditionAbonnement "1" - - "*" Abonnement: s'applique >
EntrepriseVelo "1" - - "*" Velo: possède >
Station "1" - - "*" Abonnement: permet >
EntrepriseVelo "1" -l- "*" IDVendeur: possède plusieurs contrat >
IDVendeur - - SystemeAutorisationPaiementACredit: fait autoriser les paiement\n avec le type de crédit >
@enduml

PlantUML version 1.2022.14beta6(Unknown compile time)
(GPL source distribution)
Java Runtime: Java(TM) SE Runtime Environment
JVM: Java HotSpot(TM) 64-Bit Server VM
Default Encoding: UTF-8
Language: en
Country: US
--></g></svg>