<?xml version="1.0" encoding="UTF-8" standalone="no"?><svg xmlns="http://www.w3.org/2000/svg" xmlns:xlink="http://www.w3.org/1999/xlink" contentStyleType="text/css" height="587px" preserveAspectRatio="none" style="width:1473px;height:587px;background:#FFFFFF;" version="1.1" viewBox="0 0 1473 587" width="1473px" zoomAndPan="magnify"><defs/><g><!--class Caisse--><g id="elem_Caisse"><rect codeLine="1" fill="#F1F1F1" height="194.6719" id="Caisse" rx="2.5" ry="2.5" style="stroke:#181818;stroke-width:0.5;" width="496" x="7" y="7"/><ellipse cx="228.25" cy="23" fill="#ADD1B2" rx="11" ry="11" style="stroke:#181818;stroke-width:1.0;"/><path d="M230.5938,18.6719 C229.6563,18.2344 229.0625,18.0938 228.1875,18.0938 C225.5625,18.0938 223.5625,20.1719 223.5625,22.8906 L223.5625,24.0156 C223.5625,26.5938 225.6719,28.4844 228.5625,28.4844 C229.7813,28.4844 230.9375,28.1875 231.6875,27.6406 C232.2656,27.2344 232.5938,26.7813 232.5938,26.3906 C232.5938,25.9375 232.2031,25.5469 231.7344,25.5469 C231.5156,25.5469 231.3125,25.625 231.125,25.8125 C230.6719,26.2969 230.6719,26.2969 230.4844,26.3906 C230.0625,26.6563 229.375,26.7813 228.6094,26.7813 C226.5625,26.7813 225.2656,25.6875 225.2656,23.9844 L225.2656,22.8906 C225.2656,21.1094 226.5156,19.7969 228.25,19.7969 C228.8281,19.7969 229.4375,19.9531 229.9063,20.2031 C230.3906,20.4844 230.5625,20.7031 230.6563,21.1094 C230.7188,21.5156 230.75,21.6406 230.8906,21.7656 C231.0313,21.9063 231.2656,22.0156 231.4844,22.0156 C231.75,22.0156 232.0156,21.875 232.1875,21.6563 C232.2969,21.5 232.3281,21.3125 232.3281,20.8906 L232.3281,19.4688 C232.3281,19.0313 232.3125,18.9063 232.2188,18.75 C232.0625,18.4844 231.7813,18.3438 231.4844,18.3438 C231.1875,18.3438 230.9844,18.4375 230.7656,18.75 L230.5938,18.6719 Z " fill="#000000"/><text fill="#000000" font-family="sans-serif" font-size="14" lengthAdjust="spacing" textLength="45" x="248.75" y="27.8467">Caisse</text><line style="stroke:#181818;stroke-width:0.5;" x1="8" x2="502" y1="39" y2="39"/><line style="stroke:#181818;stroke-width:0.5;" x1="8" x2="502" y1="47" y2="47"/><text fill="#000000" font-family="sans-serif" font-size="14" lengthAdjust="spacing" textLength="153" x="13" y="63.9951">creerNouvelleVente()</text><text fill="#000000" font-family="sans-serif" font-size="14" lengthAdjust="spacing" textLength="251" x="13" y="80.292">saisirArtiche(codeArticle, quantite)</text><text fill="#000000" font-family="sans-serif" font-size="14" lengthAdjust="spacing" textLength="118" x="13" y="96.5889">terminerVente()</text><text fill="#000000" font-family="sans-serif" font-size="14" lengthAdjust="spacing" textLength="304" x="13" y="112.8857">creerPaiementenEspeces(montant:string)</text><text fill="#000000" font-family="sans-serif" font-size="14" lengthAdjust="spacing" textLength="370" x="13" y="129.1826">creerPaiementACredit(montant:string, idCC:string)</text><text fill="#000000" font-family="sans-serif" font-size="14" lengthAdjust="spacing" textLength="484" x="13" y="145.4795">creerPaiementParCheque(montant:string, idPermisConcuire:string)</text><text fill="#000000" font-family="sans-serif" font-size="14" lengthAdjust="spacing" textLength="74" x="13" y="161.7764">autoriser()</text><text fill="#000000" font-family="sans-serif" font-size="14" lengthAdjust="spacing" textLength="164" x="13" y="178.0732">getState(): IEtatCaisse</text><text fill="#000000" font-family="sans-serif" font-size="14" lengthAdjust="spacing" textLength="153" x="13" y="194.3701">setState(IEtatCaisse)</text></g><!--class IEtatCaisse--><g id="elem_IEtatCaisse"><rect codeLine="14" fill="#F1F1F1" height="162.0781" id="IEtatCaisse" rx="2.5" ry="2.5" style="stroke:#181818;stroke-width:0.5;" width="496" x="538" y="23.5"/><ellipse cx="742.75" cy="39.5" fill="#B4A7E5" rx="11" ry="11" style="stroke:#181818;stroke-width:1.0;"/><path d="M743.7031,36.2813 L745.4219,36.2813 C745.8125,36.2813 746,36.25 746.125,36.1719 C746.3906,36.0156 746.5313,35.7344 746.5313,35.4375 C746.5313,35.1719 746.4219,34.9063 746.1875,34.7344 C746.0156,34.625 745.875,34.5938 745.4219,34.5938 L740.2813,34.5938 C739.8438,34.5938 739.7188,34.6094 739.5625,34.7031 C739.3125,34.8594 739.1563,35.1563 739.1563,35.4375 C739.1563,35.7188 739.2969,35.9688 739.5156,36.1406 C739.6719,36.25 739.8594,36.2813 740.2813,36.2813 L742,36.2813 L742,42.7969 L740.2813,42.7969 C739.8438,42.7969 739.7188,42.8125 739.5625,42.9219 C739.3125,43.0781 739.1563,43.3594 739.1563,43.6563 C739.1563,43.9063 739.2969,44.1719 739.5156,44.3281 C739.6719,44.4531 739.875,44.5 740.2813,44.5 L745.4219,44.5 C746.1719,44.5 746.5313,44.2188 746.5313,43.6563 C746.5313,43.375 746.4219,43.125 746.1875,42.9531 C746.0156,42.8281 745.875,42.7969 745.4219,42.7969 L743.7031,42.7969 L743.7031,36.2813 Z " fill="#000000"/><text fill="#000000" font-family="sans-serif" font-size="14" font-style="italic" lengthAdjust="spacing" textLength="78" x="763.25" y="44.3467">IEtatCaisse</text><line style="stroke:#181818;stroke-width:0.5;" x1="539" x2="1033" y1="55.5" y2="55.5"/><line style="stroke:#181818;stroke-width:0.5;" x1="539" x2="1033" y1="63.5" y2="63.5"/><text fill="#000000" font-family="sans-serif" font-size="14" lengthAdjust="spacing" textLength="153" x="544" y="80.4951">creerNouvelleVente()</text><text fill="#000000" font-family="sans-serif" font-size="14" lengthAdjust="spacing" textLength="251" x="544" y="96.792">saisirArtiche(codeArticle, quantite)</text><text fill="#000000" font-family="sans-serif" font-size="14" lengthAdjust="spacing" textLength="118" x="544" y="113.0889">terminerVente()</text><text fill="#000000" font-family="sans-serif" font-size="14" lengthAdjust="spacing" textLength="304" x="544" y="129.3857">creerPaiementenEspeces(montant:string)</text><text fill="#000000" font-family="sans-serif" font-size="14" lengthAdjust="spacing" textLength="370" x="544" y="145.6826">creerPaiementACredit(montant:string, idCC:string)</text><text fill="#000000" font-family="sans-serif" font-size="14" lengthAdjust="spacing" textLength="484" x="544" y="161.9795">creerPaiementParCheque(montant:string, idPermisConcuire:string)</text><text fill="#000000" font-family="sans-serif" font-size="14" lengthAdjust="spacing" textLength="74" x="544" y="178.2764">autoriser()</text></g><!--class EtatCaisse--><g id="elem_EtatCaisse"><rect codeLine="25" fill="#F1F1F1" height="162.0781" id="EtatCaisse" rx="2.5" ry="2.5" style="stroke:#181818;stroke-width:0.5;" width="488" x="542" y="262"/><ellipse cx="744.75" cy="278" fill="#A9DCDF" rx="11" ry="11" style="stroke:#181818;stroke-width:1.0;"/><path d="M746.8281,279.8125 L747.2188,280.7969 L746.8281,280.7969 C746.375,280.7969 746.2656,280.8125 746.1094,280.9219 C745.8594,281.0781 745.7031,281.3594 745.7031,281.6563 C745.7031,281.9219 745.8438,282.1719 746.0625,282.3281 C746.2031,282.4531 746.4063,282.5 746.8281,282.5 L749.1875,282.5 C749.5469,282.5 749.7656,282.4688 749.9063,282.375 C750.1563,282.2344 750.3125,281.9375 750.3125,281.6563 C750.3125,281.375 750.1719,281.125 749.9531,280.9688 C749.7813,280.8281 749.625,280.7969 749.1563,280.7969 L745.7656,272.5938 L742.0938,272.5938 C741.6406,272.5938 741.5156,272.6094 741.3594,272.7031 C741.1094,272.875 740.9531,273.1563 740.9531,273.4375 C740.9531,273.7188 741.0938,273.9688 741.3125,274.1406 C741.4844,274.25 741.6563,274.2813 742.0938,274.2813 L743.1719,274.2813 L740.5313,280.7969 C740.1094,280.7969 739.9531,280.8125 739.7969,280.9219 C739.5469,281.0781 739.3906,281.3594 739.3906,281.6563 C739.3906,282.2188 739.7656,282.5 740.5156,282.5 L742.7813,282.5 C743.1406,282.5 743.3594,282.4688 743.4844,282.375 C743.75,282.2344 743.8906,281.9375 743.8906,281.6563 C743.8906,281.375 743.7656,281.125 743.5469,280.9531 C743.375,280.8281 743.2344,280.7969 742.7813,280.7969 L742.3906,280.7969 L742.7813,279.8125 L746.8281,279.8125 Z M746.125,278.1094 L743.4531,278.1094 L744.7969,274.8438 L746.125,278.1094 Z " fill="#000000"/><text fill="#000000" font-family="sans-serif" font-size="14" font-style="italic" lengthAdjust="spacing" textLength="74" x="765.25" y="282.8467">EtatCaisse</text><line style="stroke:#181818;stroke-width:0.5;" x1="543" x2="1029" y1="294" y2="294"/><line style="stroke:#181818;stroke-width:0.5;" x1="543" x2="1029" y1="302" y2="302"/><text fill="#000000" font-family="sans-serif" font-size="14" font-style="italic" lengthAdjust="spacing" textLength="152" x="548" y="318.9951">creerNouvelleVente()</text><text fill="#000000" font-family="sans-serif" font-size="14" font-style="italic" lengthAdjust="spacing" textLength="246" x="548" y="335.292">saisirArtiche(codeArticle, quantite)</text><text fill="#000000" font-family="sans-serif" font-size="14" font-style="italic" lengthAdjust="spacing" textLength="121" x="548" y="351.5889">terminerVente()z</text><text fill="#000000" font-family="sans-serif" font-size="14" font-style="italic" lengthAdjust="spacing" textLength="296" x="548" y="367.8857">creerPaiementenEspeces(montant:string)</text><text fill="#000000" font-family="sans-serif" font-size="14" font-style="italic" lengthAdjust="spacing" textLength="359" x="548" y="384.1826">creerPaiementACredit(montant:string, idCC:string)</text><text fill="#000000" font-family="sans-serif" font-size="14" font-style="italic" lengthAdjust="spacing" textLength="476" x="548" y="400.4795">creerPaiementParCheque(montant:string, idPermisConcuire:string)</text><text fill="#000000" font-family="sans-serif" font-size="14" font-style="italic" lengthAdjust="spacing" textLength="74" x="548" y="416.7764">autoriser()</text></g><!--class AttenteVente--><g id="elem_AttenteVente"><rect codeLine="34" fill="#F1F1F1" height="64.2969" id="AttenteVente" rx="2.5" ry="2.5" style="stroke:#181818;stroke-width:0.5;" width="165" x="247.5" y="500.5"/><ellipse cx="276.45" cy="516.5" fill="#ADD1B2" rx="11" ry="11" style="stroke:#181818;stroke-width:1.0;"/><path d="M278.7938,512.1719 C277.8563,511.7344 277.2625,511.5938 276.3875,511.5938 C273.7625,511.5938 271.7625,513.6719 271.7625,516.3906 L271.7625,517.5156 C271.7625,520.0938 273.8719,521.9844 276.7625,521.9844 C277.9813,521.9844 279.1375,521.6875 279.8875,521.1406 C280.4656,520.7344 280.7938,520.2813 280.7938,519.8906 C280.7938,519.4375 280.4031,519.0469 279.9344,519.0469 C279.7156,519.0469 279.5125,519.125 279.325,519.3125 C278.8719,519.7969 278.8719,519.7969 278.6844,519.8906 C278.2625,520.1563 277.575,520.2813 276.8094,520.2813 C274.7625,520.2813 273.4656,519.1875 273.4656,517.4844 L273.4656,516.3906 C273.4656,514.6094 274.7156,513.2969 276.45,513.2969 C277.0281,513.2969 277.6375,513.4531 278.1063,513.7031 C278.5906,513.9844 278.7625,514.2031 278.8563,514.6094 C278.9188,515.0156 278.95,515.1406 279.0906,515.2656 C279.2313,515.4063 279.4656,515.5156 279.6844,515.5156 C279.95,515.5156 280.2156,515.375 280.3875,515.1563 C280.4969,515 280.5281,514.8125 280.5281,514.3906 L280.5281,512.9688 C280.5281,512.5313 280.5125,512.4063 280.4188,512.25 C280.2625,511.9844 279.9813,511.8438 279.6844,511.8438 C279.3875,511.8438 279.1844,511.9375 278.9656,512.25 L278.7938,512.1719 Z " fill="#000000"/><text fill="#000000" font-family="sans-serif" font-size="14" lengthAdjust="spacing" textLength="102" x="293.55" y="521.3467">AttenteVente</text><line style="stroke:#181818;stroke-width:0.5;" x1="248.5" x2="411.5" y1="532.5" y2="532.5"/><line style="stroke:#181818;stroke-width:0.5;" x1="248.5" x2="411.5" y1="540.5" y2="540.5"/><text fill="#000000" font-family="sans-serif" font-size="14" lengthAdjust="spacing" textLength="153" x="253.5" y="557.4951">creerNouvelleVente()</text></g><!--class SaisieArticle--><g id="elem_SaisieArticle"><rect codeLine="38" fill="#F1F1F1" height="80.5938" id="SaisieArticle" rx="2.5" ry="2.5" style="stroke:#181818;stroke-width:0.5;" width="263" x="447.5" y="492"/><ellipse cx="530.25" cy="508" fill="#ADD1B2" rx="11" ry="11" style="stroke:#181818;stroke-width:1.0;"/><path d="M532.5938,503.6719 C531.6563,503.2344 531.0625,503.0938 530.1875,503.0938 C527.5625,503.0938 525.5625,505.1719 525.5625,507.8906 L525.5625,509.0156 C525.5625,511.5938 527.6719,513.4844 530.5625,513.4844 C531.7813,513.4844 532.9375,513.1875 533.6875,512.6406 C534.2656,512.2344 534.5938,511.7813 534.5938,511.3906 C534.5938,510.9375 534.2031,510.5469 533.7344,510.5469 C533.5156,510.5469 533.3125,510.625 533.125,510.8125 C532.6719,511.2969 532.6719,511.2969 532.4844,511.3906 C532.0625,511.6563 531.375,511.7813 530.6094,511.7813 C528.5625,511.7813 527.2656,510.6875 527.2656,508.9844 L527.2656,507.8906 C527.2656,506.1094 528.5156,504.7969 530.25,504.7969 C530.8281,504.7969 531.4375,504.9531 531.9063,505.2031 C532.3906,505.4844 532.5625,505.7031 532.6563,506.1094 C532.7188,506.5156 532.75,506.6406 532.8906,506.7656 C533.0313,506.9063 533.2656,507.0156 533.4844,507.0156 C533.75,507.0156 534.0156,506.875 534.1875,506.6563 C534.2969,506.5 534.3281,506.3125 534.3281,505.8906 L534.3281,504.4688 C534.3281,504.0313 534.3125,503.9063 534.2188,503.75 C534.0625,503.4844 533.7813,503.3438 533.4844,503.3438 C533.1875,503.3438 532.9844,503.4375 532.7656,503.75 L532.5938,503.6719 Z " fill="#000000"/><text fill="#000000" font-family="sans-serif" font-size="14" lengthAdjust="spacing" textLength="89" x="550.75" y="512.8467">SaisieArticle</text><line style="stroke:#181818;stroke-width:0.5;" x1="448.5" x2="709.5" y1="524" y2="524"/><line style="stroke:#181818;stroke-width:0.5;" x1="448.5" x2="709.5" y1="532" y2="532"/><text fill="#000000" font-family="sans-serif" font-size="14" lengthAdjust="spacing" textLength="251" x="453.5" y="548.9951">saisirArtiche(codeArticle, quantite)</text><text fill="#000000" font-family="sans-serif" font-size="14" lengthAdjust="spacing" textLength="118" x="453.5" y="565.292">terminerVente()</text></g><!--class AttentePaiement--><g id="elem_AttentePaiement"><rect codeLine="43" fill="#F1F1F1" height="96.8906" id="AttentePaiement" rx="2.5" ry="2.5" style="stroke:#181818;stroke-width:0.5;" width="496" x="746" y="484"/><ellipse cx="926.25" cy="500" fill="#ADD1B2" rx="11" ry="11" style="stroke:#181818;stroke-width:1.0;"/><path d="M928.5938,495.6719 C927.6563,495.2344 927.0625,495.0938 926.1875,495.0938 C923.5625,495.0938 921.5625,497.1719 921.5625,499.8906 L921.5625,501.0156 C921.5625,503.5938 923.6719,505.4844 926.5625,505.4844 C927.7813,505.4844 928.9375,505.1875 929.6875,504.6406 C930.2656,504.2344 930.5938,503.7813 930.5938,503.3906 C930.5938,502.9375 930.2031,502.5469 929.7344,502.5469 C929.5156,502.5469 929.3125,502.625 929.125,502.8125 C928.6719,503.2969 928.6719,503.2969 928.4844,503.3906 C928.0625,503.6563 927.375,503.7813 926.6094,503.7813 C924.5625,503.7813 923.2656,502.6875 923.2656,500.9844 L923.2656,499.8906 C923.2656,498.1094 924.5156,496.7969 926.25,496.7969 C926.8281,496.7969 927.4375,496.9531 927.9063,497.2031 C928.3906,497.4844 928.5625,497.7031 928.6563,498.1094 C928.7188,498.5156 928.75,498.6406 928.8906,498.7656 C929.0313,498.9063 929.2656,499.0156 929.4844,499.0156 C929.75,499.0156 930.0156,498.875 930.1875,498.6563 C930.2969,498.5 930.3281,498.3125 930.3281,497.8906 L930.3281,496.4688 C930.3281,496.0313 930.3125,495.9063 930.2188,495.75 C930.0625,495.4844 929.7813,495.3438 929.4844,495.3438 C929.1875,495.3438 928.9844,495.4375 928.7656,495.75 L928.5938,495.6719 Z " fill="#000000"/><text fill="#000000" font-family="sans-serif" font-size="14" lengthAdjust="spacing" textLength="127" x="946.75" y="504.8467">AttentePaiement</text><line style="stroke:#181818;stroke-width:0.5;" x1="747" x2="1241" y1="516" y2="516"/><line style="stroke:#181818;stroke-width:0.5;" x1="747" x2="1241" y1="524" y2="524"/><text fill="#000000" font-family="sans-serif" font-size="14" lengthAdjust="spacing" textLength="304" x="752" y="540.9951">creerPaiementenEspeces(montant:string)</text><text fill="#000000" font-family="sans-serif" font-size="14" lengthAdjust="spacing" textLength="370" x="752" y="557.292">creerPaiementACredit(montant:string, idCC:string)</text><text fill="#000000" font-family="sans-serif" font-size="14" lengthAdjust="spacing" textLength="484" x="752" y="573.5889">creerPaiementParCheque(montant:string, idPermisConcuire:string)</text></g><!--class AutorisationPaiement--><g id="elem_AutorisationPaiement"><rect codeLine="49" fill="#F1F1F1" height="64.2969" id="AutorisationPaiement" rx="2.5" ry="2.5" style="stroke:#181818;stroke-width:0.5;" width="189" x="1277.5" y="500.5"/><ellipse cx="1292.5" cy="516.5" fill="#ADD1B2" rx="11" ry="11" style="stroke:#181818;stroke-width:1.0;"/><path d="M1294.8438,512.1719 C1293.9063,511.7344 1293.3125,511.5938 1292.4375,511.5938 C1289.8125,511.5938 1287.8125,513.6719 1287.8125,516.3906 L1287.8125,517.5156 C1287.8125,520.0938 1289.9219,521.9844 1292.8125,521.9844 C1294.0313,521.9844 1295.1875,521.6875 1295.9375,521.1406 C1296.5156,520.7344 1296.8438,520.2813 1296.8438,519.8906 C1296.8438,519.4375 1296.4531,519.0469 1295.9844,519.0469 C1295.7656,519.0469 1295.5625,519.125 1295.375,519.3125 C1294.9219,519.7969 1294.9219,519.7969 1294.7344,519.8906 C1294.3125,520.1563 1293.625,520.2813 1292.8594,520.2813 C1290.8125,520.2813 1289.5156,519.1875 1289.5156,517.4844 L1289.5156,516.3906 C1289.5156,514.6094 1290.7656,513.2969 1292.5,513.2969 C1293.0781,513.2969 1293.6875,513.4531 1294.1563,513.7031 C1294.6406,513.9844 1294.8125,514.2031 1294.9063,514.6094 C1294.9688,515.0156 1295,515.1406 1295.1406,515.2656 C1295.2813,515.4063 1295.5156,515.5156 1295.7344,515.5156 C1296,515.5156 1296.2656,515.375 1296.4375,515.1563 C1296.5469,515 1296.5781,514.8125 1296.5781,514.3906 L1296.5781,512.9688 C1296.5781,512.5313 1296.5625,512.4063 1296.4688,512.25 C1296.3125,511.9844 1296.0313,511.8438 1295.7344,511.8438 C1295.4375,511.8438 1295.2344,511.9375 1295.0156,512.25 L1294.8438,512.1719 Z " fill="#000000"/><text fill="#000000" font-family="sans-serif" font-size="14" lengthAdjust="spacing" textLength="157" x="1306.5" y="521.3467">AutorisationPaiement</text><line style="stroke:#181818;stroke-width:0.5;" x1="1278.5" x2="1465.5" y1="532.5" y2="532.5"/><line style="stroke:#181818;stroke-width:0.5;" x1="1278.5" x2="1465.5" y1="540.5" y2="540.5"/><text fill="#000000" font-family="sans-serif" font-size="14" lengthAdjust="spacing" textLength="74" x="1283.5" y="557.4951">autoriser()</text></g><g id="elem_GMN15"><path d="M333,315.5 L333,370.8984 A0,0 0 0 0 333,370.8984 L507,370.8984 A0,0 0 0 0 507,370.8984 L507,347 L541.787,343 L507,339 L507,325.5 L497,315.5 L333,315.5 A0,0 0 0 0 333,315.5 " fill="#FEFFDD" style="stroke:#181818;stroke-width:0.5;"/><path d="M497,315.5 L497,325.5 L507,325.5 L497,315.5 " fill="#FEFFDD" style="stroke:#181818;stroke-width:0.5;"/><text fill="#000000" font-family="sans-serif" font-size="13" lengthAdjust="spacing" textLength="142" x="339" y="332.5669">Toutes ces opérations</text><text fill="#000000" font-family="sans-serif" font-size="13" lengthAdjust="spacing" textLength="153" x="339" y="347.6997">génèrent une exception</text><text fill="#000000" font-family="sans-serif" font-size="13" lengthAdjust="spacing" textLength="70" x="339" y="362.8325">par défault</text></g><!--link Caisse to IEtatCaisse--><g id="link_Caisse_IEtatCaisse"><path codeLine="53" d="M503.128,104.5 C514.731,104.5 526.333,104.5 537.935,104.5 " fill="none" id="Caisse-IEtatCaisse" style="stroke:#181818;stroke-width:1.0;"/><text fill="#000000" font-family="sans-serif" font-size="13" lengthAdjust="spacing" textLength="8" x="510.6131" y="101.3511">1</text><text fill="#000000" font-family="sans-serif" font-size="13" lengthAdjust="spacing" textLength="8" x="521.6641" y="101.3217">1</text></g><!--reverse link IEtatCaisse to EtatCaisse--><g id="link_IEtatCaisse_EtatCaisse"><path codeLine="54" d="M786,205.836 C786,224.457 786,243.683 786,261.612 " fill="none" id="IEtatCaisse-backto-EtatCaisse" style="stroke:#181818;stroke-width:1.0;"/><polygon fill="none" points="779,205.568,786,185.568,793,205.568,779,205.568" style="stroke:#181818;stroke-width:1.0;"/></g><!--reverse link EtatCaisse to AttenteVente--><g id="link_EtatCaisse_AttenteVente"><path codeLine="55" d="M556.46,431.585 C514.193,448.472 470.605,466.397 430,484 C418.185,489.122 405.705,494.8166 393.717,500.4332 " fill="none" id="EtatCaisse-backto-AttenteVente" style="stroke:#181818;stroke-width:1.0;"/><polygon fill="none" points="553.952,425.049,575.123,424.161,559.127,438.058,553.952,425.049" style="stroke:#181818;stroke-width:1.0;"/></g><!--reverse link EtatCaisse to AttentePaiement--><g id="link_EtatCaisse_AttentePaiement"><path codeLine="56" d="M889.763,437.537 C907.618,453.631 925.481,469.734 941.249,483.9482 " fill="none" id="EtatCaisse-backto-AttentePaiement" style="stroke:#181818;stroke-width:1.0;"/><polygon fill="none" points="884.982,442.651,874.814,424.061,894.356,432.253,884.982,442.651" style="stroke:#181818;stroke-width:1.0;"/></g><!--reverse link EtatCaisse to SaisieArticle--><g id="link_EtatCaisse_SaisieArticle"><path codeLine="57" d="M682.626,437.636 C661.455,456.812 640.277,475.996 622.635,491.9759 " fill="none" id="EtatCaisse-backto-SaisieArticle" style="stroke:#181818;stroke-width:1.0;"/><polygon fill="none" points="678.09,432.299,697.613,424.061,687.489,442.676,678.09,432.299" style="stroke:#181818;stroke-width:1.0;"/></g><!--reverse link EtatCaisse to AutorisationPaiement--><g id="link_EtatCaisse_AutorisationPaiement"><path codeLine="58" d="M1049.4,416.005 C1118.44,436.451 1192.44,459.786 1260,484 C1273.82,488.9527 1288.39,494.7172 1302.28,500.4876 " fill="none" id="EtatCaisse-backto-AutorisationPaiement" style="stroke:#181818;stroke-width:1.0;"/><polygon fill="none" points="1047.28,422.678,1030.07,410.316,1051.24,409.247,1047.28,422.678" style="stroke:#181818;stroke-width:1.0;"/></g><!--SRC=[vPInRi8m48PtFyM92IGoT4LTKCJGfKAYwiJYEWTO2ZQSBsrLclSfpy6BrGwaE11Kn5IfcKx-_Jl_VJvPvT8vIALs3c4Z527IeorUCS_n6GrZjoUSLpKDYRLQO5VP3Aiwnpwi2sbOC_O48osrGQfDrKbZgN4P5ip8hL2XwowjOMyPE2PjvYVRXYbXflbaKnzqbgRjZh6aT87h0biyuv38fTQeGXF- -6N1bhH3yY7do1EM8Uy07aQ-seCGhbwF5dj2b49etmpDfC9u_x_Z5aZ85wz8nQ2g4JhIy6EqgSKIMib4-bMGelqdl3xE_lKxkqkEgp1UCjz0D3egXbkAFT4XSsYZQXGyLF1VAyqInC4o2J1hWDvoqmIMeXcWxh1-7lxYS1upxq5ArjP4mGEx9cDn6DRENGSIqlC59rKTFmDH3VUVIMRVJ18DkcZAIUF6Bebrg3EzSNVdxfQ-XB5-CdASCTXPb6i0JxPWTE3l1kngjwNAvgPcljkQtHS59eL1m7U5go1DpKeIPBljJ1OvVmC0]--></g></svg>