<?xml version="1.0" encoding="UTF-8" standalone="no"?><svg xmlns="http://www.w3.org/2000/svg" xmlns:xlink="http://www.w3.org/1999/xlink" contentStyleType="text/css" height="304px" preserveAspectRatio="none" style="width:566px;height:304px;background:#FFFFFF;" version="1.1" viewBox="0 0 566 304" width="566px" zoomAndPan="magnify"><defs/><g><ellipse cx="266" cy="16" fill="#222222" rx="10" ry="10" style="stroke:none;stroke-width:1.0;"/><g id="AttenteDeVente"><rect fill="#F1F1F1" height="50" rx="12.5" ry="12.5" style="stroke:#181818;stroke-width:0.5;" width="142" x="195" y="87"/><line style="stroke:#181818;stroke-width:0.5;" x1="195" x2="337" y1="113.2969" y2="113.2969"/><text fill="#000000" font-family="sans-serif" font-size="14" lengthAdjust="spacing" textLength="122" x="205" y="104.9951">AttenteDeVente</text></g><g id="SaisieArticles"><rect fill="#F1F1F1" height="50" rx="12.5" ry="12.5" style="stroke:#181818;stroke-width:0.5;" width="116" x="7" y="167"/><line style="stroke:#181818;stroke-width:0.5;" x1="7" x2="123" y1="193.2969" y2="193.2969"/><text fill="#000000" font-family="sans-serif" font-size="14" lengthAdjust="spacing" textLength="96" x="17" y="184.9951">SaisieArticles</text></g><g id="AttenteDePaiement"><rect fill="#F1F1F1" height="50" rx="12.5" ry="12.5" style="stroke:#181818;stroke-width:0.5;" width="167" x="14.5" y="247"/><line style="stroke:#181818;stroke-width:0.5;" x1="14.5" x2="181.5" y1="273.2969" y2="273.2969"/><text fill="#000000" font-family="sans-serif" font-size="14" lengthAdjust="spacing" textLength="147" x="24.5" y="264.9951">AttenteDePaiement</text></g><g id="AutorisationPaiement"><rect fill="#F1F1F1" height="50" rx="12.5" ry="12.5" style="stroke:#181818;stroke-width:0.5;" width="177" x="382.5" y="247"/><line style="stroke:#181818;stroke-width:0.5;" x1="382.5" x2="559.5" y1="273.2969" y2="273.2969"/><text fill="#000000" font-family="sans-serif" font-size="14" lengthAdjust="spacing" textLength="157" x="392.5" y="264.9951">AutorisationPaiement</text></g><!--link *start to AttenteDeVente--><g id="link_*start_AttenteDeVente"><path d="M266,26.013 C266,38.698 266,62.409 266,81.57 " fill="none" id="*start-to-AttenteDeVente" style="stroke:#181818;stroke-width:1.0;"/><polygon fill="#181818" points="266,86.84,270,77.84,266,81.84,262,77.84,266,86.84" style="stroke:#181818;stroke-width:1.0;"/></g><!--link AttenteDeVente to SaisieArticles--><g id="link_AttenteDeVente_SaisieArticles"><path d="M204.053,137.039 C179.938,146.397 152.332,157.11 128.107,166.511 " fill="none" id="AttenteDeVente-to-SaisieArticles" style="stroke:#181818;stroke-width:1.0;"/><polygon fill="#181818" points="123.309,168.372,133.1465,168.8457,127.9704,166.5634,130.2527,161.3874,123.309,168.372" style="stroke:#181818;stroke-width:1.0;"/></g><!--link SaisieArticles to SaisieArticles--><g id="link_SaisieArticles_SaisieArticles"><path d="M123.125,177 C142.5,177 158,182 158,192 C158,201.0625 145.27,206.0186 128.462,206.8682 " fill="none" id="SaisieArticles-to-SaisieArticles" style="stroke:#181818;stroke-width:1.0;"/><polygon fill="#181818" points="123.125,207,132.2216,210.775,128.1235,206.8757,132.0228,202.7775,123.125,207" style="stroke:#181818;stroke-width:1.0;"/><text fill="#000000" font-family="sans-serif" font-size="13" lengthAdjust="spacing" textLength="73" x="164" y="196.5669">saisirArticle</text></g><!--link SaisieArticles to AttenteDePaiement--><g id="link_SaisieArticles_AttenteDePaiement"><path d="M75.2605,217.2521 C78.5509,225.0294 82.2295,233.7242 85.653,241.8161 " fill="none" id="SaisieArticles-to-AttenteDePaiement" style="stroke:#181818;stroke-width:1.0;"/><polygon fill="#181818" points="87.7458,246.7629,87.9228,236.9156,85.7975,242.1581,80.5551,240.0329,87.7458,246.7629" style="stroke:#181818;stroke-width:1.0;"/></g><!--link AttenteDePaiement to AttenteDeVente--><g id="link_AttenteDePaiement_AttenteDeVente"><path d="M181.663,247.7048 C198.284,240.0474 214.453,230.0286 227,217 C246.648,196.597 256.589,165.368 261.493,142.453 " fill="none" id="AttenteDePaiement-to-AttenteDeVente" style="stroke:#181818;stroke-width:1.0;"/><polygon fill="#181818" points="262.521,137.405,256.8044,145.425,261.5226,142.3043,264.6433,147.0225,262.521,137.405" style="stroke:#181818;stroke-width:1.0;"/><text fill="#000000" font-family="sans-serif" font-size="13" lengthAdjust="spacing" textLength="163" x="256" y="196.5669">creerPaiementEnEspeces</text></g><!--link AttenteDePaiement to AutorisationPaiement--><g id="link_AttenteDePaiement_AutorisationPaiement"><path d="M181.639,288.5424 C191.337,289.963 201.114,291.1722 210.5,292 C273.81,297.5838 290.17,297.3513 353.5,292 C361.269,291.3435 369.297,290.447 377.339,289.3953 " fill="none" id="AttenteDePaiement-to-AutorisationPaiement" style="stroke:#181818;stroke-width:1.0;"/><polygon fill="#181818" points="382.345,288.7212,372.8918,285.9579,377.3897,289.3884,373.9592,293.8863,382.345,288.7212" style="stroke:#181818;stroke-width:1.0;"/><text fill="#000000" font-family="sans-serif" font-size="13" lengthAdjust="spacing" textLength="141" x="211.5" y="288.0669">creerPaiementACredit</text></g><!--link AttenteDePaiement to AutorisationPaiement--><g id="link_AttenteDePaiement_AutorisationPaiement"><path d="M181.708,272 C239.788,272 317.208,272 377.342,272 " fill="none" id="AttenteDePaiement-to-AutorisationPaiement-1" style="stroke:#181818;stroke-width:1.0;"/><polygon fill="#181818" points="382.371,272,373.371,268,377.371,272,373.371,276,382.371,272" style="stroke:#181818;stroke-width:1.0;"/><text fill="#000000" font-family="sans-serif" font-size="13" lengthAdjust="spacing" textLength="164" x="200" y="265.0669">creerPaiementParCheque</text></g><!--link AutorisationPaiement to AttenteDeVente--><g id="link_AutorisationPaiement_AttenteDeVente"><path d="M466.946,246.6441 C461.809,223.17 450.725,188.181 428,167 C404.526,145.121 371.942,132.09 342.148,124.336 " fill="none" id="AutorisationPaiement-to-AttenteDeVente" style="stroke:#181818;stroke-width:1.0;"/><polygon fill="#181818" points="337.008,123.043,344.7582,129.1204,341.8565,124.2644,346.7125,121.3627,337.008,123.043" style="stroke:#181818;stroke-width:1.0;"/><text fill="#000000" font-family="sans-serif" font-size="13" lengthAdjust="spacing" textLength="57" x="459" y="196.5669">autoriser</text></g><!--SRC=[dOz12i8m44NtdY9heHVeGWYrMoa8RiH5g1ySI1ETJ7j-KqtHrAnSJJwyD_DptbvKLUsK5e4Jx76QnoQFAW97Gu6WMQYt2BNg6U237oTOcwGSUQrTMs7EdFAFy5MZCuGXFcibu84SU5Li0GhjKxc5Q5qRxkWHId9qH_5CmGXvzxcQRT0DuqhojzyPRcvuZB5-0Ix-mBn1y1C0]--></g></svg>