<?xml version="1.0" encoding="UTF-8" standalone="no"?><svg xmlns="http://www.w3.org/2000/svg" xmlns:xlink="http://www.w3.org/1999/xlink" contentStyleType="text/css" height="826px" preserveAspectRatio="none" style="width:1001px;height:826px;background:#FFFFFF;" version="1.1" viewBox="0 0 1001 826" width="1001px" zoomAndPan="magnify"><defs/><g><rect fill="#FFFFFF" height="108.5938" style="stroke:#181818;stroke-width:1.0;" width="10" x="172" y="93.7266"/><rect fill="#FFFFFF" height="28" style="stroke:#181818;stroke-width:1.0;" width="10" x="177" y="174.3203"/><rect fill="#FFFFFF" height="315.0938" style="stroke:#181818;stroke-width:1.0;" width="10" x="172" y="238.4531"/><rect fill="#FFFFFF" height="28" style="stroke:#181818;stroke-width:1.0;" width="10" x="177" y="275.5859"/><rect fill="#FFFFFF" height="28" style="stroke:#181818;stroke-width:1.0;" width="10" x="177" y="504.5469"/><rect fill="#FFFFFF" height="218.9297" style="stroke:#181818;stroke-width:1.0;" width="10" x="172" y="582.6797"/><rect fill="#FFFFFF" height="28" style="stroke:#181818;stroke-width:1.0;" width="10" x="177" y="619.8125"/><rect fill="#FFFFFF" height="112.5625" style="stroke:#181818;stroke-width:1.0;" width="10" x="360" y="354.8516"/><rect fill="#FFFFFF" height="34.1328" style="stroke:#181818;stroke-width:1.0;" width="10" x="365" y="407.1172"/><line style="stroke:#181818;stroke-width:0.5;stroke-dasharray:5.0,5.0;" x1="17" x2="17" y1="52.5938" y2="819.6094"/><line style="stroke:#181818;stroke-width:0.5;stroke-dasharray:5.0,5.0;" x1="177" x2="177" y1="93.2422" y2="819.6094"/><line style="stroke:#181818;stroke-width:0.5;stroke-dasharray:5.0,5.0;" x1="364.5" x2="364.5" y1="134.5391" y2="819.6094"/><line style="stroke:#181818;stroke-width:0.5;stroke-dasharray:5.0,5.0;" x1="548" x2="548" y1="450.7656" y2="819.6094"/><line style="stroke:#181818;stroke-width:0.5;stroke-dasharray:5.0,5.0;" x1="730.5" x2="730.5" y1="52.5938" y2="819.6094"/><line style="stroke:#181818;stroke-width:0.5;stroke-dasharray:5.0,5.0;" x1="951" x2="951" y1="783.4766" y2="819.6094"/><rect fill="#E2E2F0" height="30.2969" rx="2.5" ry="2.5" style="stroke:#181818;stroke-width:0.5;" width="24" x="5" y="21.2969"/><text fill="#000000" font-family="sans-serif" font-size="14" lengthAdjust="spacing" textLength="10" x="12" y="41.292">X</text><rect fill="#E2E2F0" height="46.5938" rx="2.5" ry="2.5" style="stroke:#181818;stroke-width:0.5;" width="95" x="683.5" y="5"/><text fill="#000000" font-family="sans-serif" font-size="14" font-style="italic" lengthAdjust="spacing" textLength="77" x="692.5" y="24.9951">«Abstract»</text><text fill="#000000" font-family="sans-serif" font-size="14" lengthAdjust="spacing" textLength="81" x="690.5" y="41.292">:EtatCaisse</text><rect fill="#FFFFFF" height="108.5938" style="stroke:#181818;stroke-width:1.0;" width="10" x="172" y="93.7266"/><rect fill="#FFFFFF" height="28" style="stroke:#181818;stroke-width:1.0;" width="10" x="177" y="174.3203"/><rect fill="#FFFFFF" height="315.0938" style="stroke:#181818;stroke-width:1.0;" width="10" x="172" y="238.4531"/><rect fill="#FFFFFF" height="28" style="stroke:#181818;stroke-width:1.0;" width="10" x="177" y="275.5859"/><rect fill="#FFFFFF" height="28" style="stroke:#181818;stroke-width:1.0;" width="10" x="177" y="504.5469"/><rect fill="#FFFFFF" height="218.9297" style="stroke:#181818;stroke-width:1.0;" width="10" x="172" y="582.6797"/><rect fill="#FFFFFF" height="28" style="stroke:#181818;stroke-width:1.0;" width="10" x="177" y="619.8125"/><rect fill="#FFFFFF" height="112.5625" style="stroke:#181818;stroke-width:1.0;" width="10" x="360" y="354.8516"/><rect fill="#FFFFFF" height="34.1328" style="stroke:#181818;stroke-width:1.0;" width="10" x="365" y="407.1172"/><polygon fill="#181818" points="133,79.7266,143,83.7266,133,87.7266" style="stroke:#181818;stroke-width:1.0;"/><line style="stroke:#181818;stroke-width:1.0;stroke-dasharray:2.0,2.0;" x1="17" x2="139" y1="83.7266" y2="83.7266"/><text fill="#000000" font-family="sans-serif" font-size="13" lengthAdjust="spacing" textLength="51" x="24" y="78.6606">create()</text><rect fill="#E2E2F0" height="30.2969" rx="2.5" ry="2.5" style="stroke:#181818;stroke-width:0.5;" width="64" x="145" y="62.5938"/><text fill="#000000" font-family="sans-serif" font-size="14" lengthAdjust="spacing" textLength="50" x="152" y="82.5889">:Caisse</text><polygon fill="#181818" points="284.5,121.0234,294.5,125.0234,284.5,129.0234" style="stroke:#181818;stroke-width:1.0;"/><line style="stroke:#181818;stroke-width:1.0;stroke-dasharray:2.0,2.0;" x1="182" x2="290.5" y1="125.0234" y2="125.0234"/><text fill="#000000" font-family="sans-serif" font-size="13" lengthAdjust="spacing" textLength="51" x="189" y="119.9575">create()</text><rect fill="#E2E2F0" height="30.2969" rx="2.5" ry="2.5" style="stroke:#181818;stroke-width:0.5;" width="137" x="296.5" y="103.8906"/><text fill="#000000" font-family="sans-serif" font-size="14" lengthAdjust="spacing" textLength="123" x="303.5" y="123.8857">av:AttenteVente</text><line style="stroke:#181818;stroke-width:1.0;" x1="187" x2="229" y1="166.3203" y2="166.3203"/><line style="stroke:#181818;stroke-width:1.0;" x1="229" x2="229" y1="166.3203" y2="179.3203"/><line style="stroke:#181818;stroke-width:1.0;" x1="188" x2="229" y1="179.3203" y2="179.3203"/><polygon fill="#181818" points="198,175.3203,188,179.3203,198,183.3203" style="stroke:#181818;stroke-width:1.0;"/><text fill="#000000" font-family="sans-serif" font-size="13" lengthAdjust="spacing" textLength="80" x="194" y="161.2544">setState(av)</text><polygon fill="#181818" points="160,234.4531,170,238.4531,160,242.4531" style="stroke:#181818;stroke-width:1.0;"/><line style="stroke:#181818;stroke-width:1.0;stroke-dasharray:2.0,2.0;" x1="17" x2="166" y1="238.4531" y2="238.4531"/><text fill="#000000" font-family="sans-serif" font-size="13" lengthAdjust="spacing" textLength="136" x="24" y="233.3872">creerNouvelleVente()</text><line style="stroke:#181818;stroke-width:1.0;" x1="187" x2="229" y1="267.5859" y2="267.5859"/><line style="stroke:#181818;stroke-width:1.0;" x1="229" x2="229" y1="267.5859" y2="280.5859"/><line style="stroke:#181818;stroke-width:1.0;" x1="188" x2="229" y1="280.5859" y2="280.5859"/><polygon fill="#181818" points="198,276.5859,188,280.5859,198,284.5859" style="stroke:#181818;stroke-width:1.0;"/><text fill="#000000" font-family="sans-serif" font-size="13" lengthAdjust="spacing" textLength="104" x="194" y="262.52">av = getState();</text><polygon fill="#181818" points="348,350.8516,358,354.8516,348,358.8516" style="stroke:#181818;stroke-width:1.0;"/><line style="stroke:#181818;stroke-width:1.0;" x1="182" x2="354" y1="354.8516" y2="354.8516"/><text fill="#000000" font-family="sans-serif" font-size="13" lengthAdjust="spacing" textLength="104" x="189" y="334.6528">IEtatCaisse sa =</text><text fill="#000000" font-family="sans-serif" font-size="13" lengthAdjust="spacing" textLength="159" x="189" y="349.7856">creerNouvelleVente(this)</text><line style="stroke:#181818;stroke-width:1.0;" x1="370" x2="417" y1="394.1172" y2="394.1172"/><line style="stroke:#181818;stroke-width:1.0;" x1="417" x2="417" y1="394.1172" y2="407.1172"/><line style="stroke:#181818;stroke-width:1.0;" x1="376" x2="417" y1="407.1172" y2="407.1172"/><polygon fill="#181818" points="386,403.1172,376,407.1172,386,411.1172" style="stroke:#181818;stroke-width:1.0;"/><text fill="#000000" font-family="sans-serif" font-size="13" lengthAdjust="spacing" textLength="104" x="382" y="373.9185">IEtatCaisse sa =</text><text fill="#000000" font-family="sans-serif" font-size="13" lengthAdjust="spacing" textLength="159" x="382" y="389.0513">creerNouvelleVente(this)</text><polygon fill="#181818" points="471,437.25,481,441.25,471,445.25" style="stroke:#181818;stroke-width:1.0;"/><line style="stroke:#181818;stroke-width:1.0;" x1="370" x2="477" y1="441.25" y2="441.25"/><text fill="#000000" font-family="sans-serif" font-size="13" lengthAdjust="spacing" textLength="51" x="377" y="436.1841">create()</text><rect fill="#E2E2F0" height="30.2969" rx="2.5" ry="2.5" style="stroke:#181818;stroke-width:0.5;" width="130" x="483" y="420.1172"/><text fill="#000000" font-family="sans-serif" font-size="14" lengthAdjust="spacing" textLength="116" x="490" y="440.1123">sa:SaisieArticles</text><polygon fill="#181818" points="193,463.4141,183,467.4141,193,471.4141" style="stroke:#181818;stroke-width:1.0;"/><line style="stroke:#181818;stroke-width:1.0;stroke-dasharray:2.0,2.0;" x1="187" x2="364" y1="467.4141" y2="467.4141"/><line style="stroke:#181818;stroke-width:1.0;" x1="187" x2="229" y1="496.5469" y2="496.5469"/><line style="stroke:#181818;stroke-width:1.0;" x1="229" x2="229" y1="496.5469" y2="509.5469"/><line style="stroke:#181818;stroke-width:1.0;" x1="188" x2="229" y1="509.5469" y2="509.5469"/><polygon fill="#181818" points="198,505.5469,188,509.5469,198,513.5469" style="stroke:#181818;stroke-width:1.0;"/><text fill="#000000" font-family="sans-serif" font-size="13" lengthAdjust="spacing" textLength="79" x="194" y="491.481">setState(sa)</text><polygon fill="#181818" points="28,549.5469,18,553.5469,28,557.5469" style="stroke:#181818;stroke-width:1.0;"/><line style="stroke:#181818;stroke-width:1.0;stroke-dasharray:2.0,2.0;" x1="22" x2="176" y1="553.5469" y2="553.5469"/><polygon fill="#181818" points="160,578.6797,170,582.6797,160,586.6797" style="stroke:#181818;stroke-width:1.0;"/><line style="stroke:#181818;stroke-width:1.0;" x1="17" x2="166" y1="582.6797" y2="582.6797"/><text fill="#000000" font-family="sans-serif" font-size="13" lengthAdjust="spacing" textLength="136" x="24" y="577.6138">creerNouvelleVente()</text><line style="stroke:#181818;stroke-width:1.0;" x1="187" x2="229" y1="611.8125" y2="611.8125"/><line style="stroke:#181818;stroke-width:1.0;" x1="229" x2="229" y1="611.8125" y2="624.8125"/><line style="stroke:#181818;stroke-width:1.0;" x1="188" x2="229" y1="624.8125" y2="624.8125"/><polygon fill="#181818" points="198,620.8125,188,624.8125,198,628.8125" style="stroke:#181818;stroke-width:1.0;"/><text fill="#000000" font-family="sans-serif" font-size="13" lengthAdjust="spacing" textLength="103" x="194" y="606.7466">sa = getState();</text><polygon fill="#181818" points="536,695.0781,546,699.0781,536,703.0781" style="stroke:#181818;stroke-width:1.0;"/><line style="stroke:#181818;stroke-width:1.0;" x1="182" x2="542" y1="699.0781" y2="699.0781"/><text fill="#000000" font-family="sans-serif" font-size="13" lengthAdjust="spacing" textLength="113" x="189" y="678.8794">IEtatCaisse av2 =</text><text fill="#000000" font-family="sans-serif" font-size="13" lengthAdjust="spacing" textLength="159" x="189" y="694.0122">creerNouvelleVente(this)</text><polygon fill="#181818" points="719,739.3438,729,743.3438,719,747.3438" style="stroke:#181818;stroke-width:1.0;"/><line style="stroke:#181818;stroke-width:1.0;" x1="548" x2="725" y1="743.3438" y2="743.3438"/><text fill="#000000" font-family="sans-serif" font-size="13" lengthAdjust="spacing" textLength="113" x="555" y="723.145">IEtatCaisse av2 =</text><text fill="#000000" font-family="sans-serif" font-size="13" lengthAdjust="spacing" textLength="159" x="555" y="738.2778">creerNouvelleVente(this)</text><polygon fill="#181818" points="896,783.6094,906,787.6094,896,791.6094" style="stroke:#181818;stroke-width:1.0;"/><line style="stroke:#181818;stroke-width:1.0;stroke-dasharray:2.0,2.0;" x1="731" x2="902" y1="787.6094" y2="787.6094"/><text fill="#000000" font-family="sans-serif" font-size="13" lengthAdjust="spacing" textLength="135" x="738" y="767.4106">throw("Operation not</text><text fill="#000000" font-family="sans-serif" font-size="13" lengthAdjust="spacing" textLength="153" x="738" y="782.5435">available for this state")</text><rect fill="#E2E2F0" height="30.2969" rx="2.5" ry="2.5" style="stroke:#181818;stroke-width:0.5;" width="87" x="908" y="754.3125"/><text fill="#000000" font-family="sans-serif" font-size="14" lengthAdjust="spacing" textLength="73" x="915" y="774.3076">Exception</text><polygon fill="#181818" points="28,797.6094,18,801.6094,28,805.6094" style="stroke:#181818;stroke-width:1.0;"/><line style="stroke:#181818;stroke-width:1.0;stroke-dasharray:2.0,2.0;" x1="22" x2="730" y1="801.6094" y2="801.6094"/><!--SRC=[hLF1JiCm3BtdAwoUraczS2nZKbJji0iWHQfsuE8L0n5TMoLUWB_7APjeW24cSOaIs-yz-ydnpxORqE4E3B-r19wTRNY_QvMICDl63jWnR99NLbPelQSCq4ELfZ2KcfawfZeU6SGQNQT57aiZ39Pq3BRaHoQZGTqcCYj6daYj3ImMUYizOiFBfLAmWQ9OGZMVbz0uGgPPha2IDiXTMgl6lAwJ0WaAfWHFR3Y6CEHg0hgdKmzrq1l9o5tt-q1j-p7fBE4uQc20AtWy2kMN9tL6WAvBM7yE3Hu5VTVz8CPFray4nM1T_m-3qObPaoQbf895KSHB6lvkgSVJbcv6aWg-UAj6UyzoTvpkp-uQdNg3uU9tSsGX1IPRToPE475DLgyD3MpxBXhAJwv_cMKt0pcCCUXw5WuCQ5lSoizxw1r4k7n1wJdB3pO9LpBAEm00]--></g></svg>