<?xml version="1.0" encoding="UTF-8" standalone="no"?><svg xmlns="http://www.w3.org/2000/svg" xmlns:xlink="http://www.w3.org/1999/xlink" contentScriptType="application/ecmascript" contentStyleType="text/css" height="337px" preserveAspectRatio="none" style="width:573px;height:337px;" version="1.1" viewBox="0 0 573 337" width="573px" zoomAndPan="magnify"><defs/><g><text fill="#000000" font-family="sans-serif" font-size="18" lengthAdjust="spacing" textLength="255" x="152.5" y="16.708">Etats - Types de paiements</text><ellipse cx="211" cy="52.9531" fill="#000000" rx="10" ry="10" style="stroke:none;stroke-width:1.0;"/><g id="AttenteVente"><rect fill="#FEFECE" height="50" rx="12.5" ry="12.5" style="stroke:#A80036;stroke-width:1.5;" width="122" x="256" y="27.9531"/><line style="stroke:#A80036;stroke-width:1.5;" x1="256" x2="378" y1="54.25" y2="54.25"/><text fill="#000000" font-family="sans-serif" font-size="14" lengthAdjust="spacing" textLength="102" x="266" y="45.9482">AttenteVente</text></g><g id="CreationVente"><rect fill="#FEFECE" height="50" rx="12.5" ry="12.5" style="stroke:#A80036;stroke-width:1.5;" width="126" x="7" y="154.9531"/><line style="stroke:#A80036;stroke-width:1.5;" x1="7" x2="133" y1="181.25" y2="181.25"/><text fill="#000000" font-family="sans-serif" font-size="14" lengthAdjust="spacing" textLength="106" x="17" y="172.9482">CreationVente</text></g><g id="AttentePaiement"><rect fill="#FEFECE" height="50" rx="12.5" ry="12.5" style="stroke:#A80036;stroke-width:1.5;" width="147" x="251.5" y="281.9531"/><line style="stroke:#A80036;stroke-width:1.5;" x1="251.5" x2="398.5" y1="308.25" y2="308.25"/><text fill="#000000" font-family="sans-serif" font-size="14" lengthAdjust="spacing" textLength="127" x="261.5" y="299.9482">AttentePaiement</text></g><!--MD5=[41aed9abde780f3438e86ea7c9eabac8]
link *start to AttenteVente--><path d="M221.352,52.9531 C231.109,52.9531 240.866,52.9531 250.623,52.9531 " fill="none" id="*start-to-AttenteVente" style="stroke:#A80036;stroke-width:1.0;"/><polygon fill="#A80036" points="255.725,52.9531,246.725,48.9531,250.725,52.9531,246.725,56.9531,255.725,52.9531" style="stroke:#A80036;stroke-width:1.0;"/><!--MD5=[cfc3935be5eae102c8708e2bdd70885e]
link AttenteVente to CreationVente--><path d="M269.376,78.0541 C227.175,99.4111 165.677,130.5331 122.161,152.5561 " fill="none" id="AttenteVente-to-CreationVente" style="stroke:#A80036;stroke-width:1.0;"/><polygon fill="#A80036" points="117.478,154.9261,127.3144,154.4311,121.9392,152.6684,123.702,147.2932,117.478,154.9261" style="stroke:#A80036;stroke-width:1.0;"/><text fill="#000000" font-family="sans-serif" font-size="13" lengthAdjust="spacing" textLength="136" x="210" y="121.02">creerNouvelleVente()</text><!--MD5=[53f1e5887d9f99234bac521836208323]
link CreationVente to CreationVente--><path d="M133.152,168.3391 C152.672,168.5741 168,172.4451 168,179.9531 C168,186.7571 155.411,190.5741 138.522,191.4051 " fill="none" id="CreationVente-to-CreationVente" style="stroke:#A80036;stroke-width:1.0;"/><polygon fill="#A80036" points="133.152,191.5671,142.268,195.2953,138.1497,191.4171,142.0279,187.2989,133.152,191.5671" style="stroke:#A80036;stroke-width:1.0;"/><text fill="#000000" font-family="sans-serif" font-size="13" lengthAdjust="spacing" textLength="125" x="221.5" y="177.02">[reste des artiches]</text><text fill="#000000" font-family="sans-serif" font-size="13" lengthAdjust="spacing" textLength="220" x="174" y="192.1528">saisirArtiche(codeArticle, quantite)</text><!--MD5=[185c2e218d02826f3b3a0b03095ef88e]
link CreationVente to AttentePaiement--><path d="M119.167,205.0541 C162.822,226.4541 226.481,257.6596 271.422,279.6893 " fill="none" id="CreationVente-to-AttentePaiement" style="stroke:#A80036;stroke-width:1.0;"/><polygon fill="#A80036" points="275.984,281.9258,269.6641,274.3721,271.4946,279.7246,266.1421,281.5551,275.984,281.9258" style="stroke:#A80036;stroke-width:1.0;"/><text fill="#000000" font-family="sans-serif" font-size="13" lengthAdjust="spacing" textLength="103" x="214" y="248.02">terminerVente()</text><!--MD5=[f35eb4f95ceb7fdd4bf981dc41eafffc]
link AttentePaiement to AttenteVente--><path d="M350.96,281.9079 C379.111,252.7647 417.912,201.7361 401,154.9531 C390.678,126.4001 368.376,100.2311 349.345,81.6881 " fill="none" id="AttentePaiement-to-AttenteVente" style="stroke:#A80036;stroke-width:1.0;"/><polygon fill="#A80036" points="345.587,78.0821,349.3094,87.2005,349.1939,81.5448,354.8496,81.4294,345.587,78.0821" style="stroke:#A80036;stroke-width:1.0;"/><text fill="#000000" font-family="sans-serif" font-size="13" lengthAdjust="spacing" textLength="159" x="406" y="184.52">creerPaiement(montant)</text><!--MD5=[fa5bf1f74083fac8c3316d73fa07a0e9]
@startuml
skinparam Style strictuml

title Etats - Types de paiements
[*] -> AttenteVente
AttenteVente - -> CreationVente: creerNouvelleVente()
CreationVente - -> CreationVente: [reste des artiches]\nsaisirArtiche(codeArticle, quantite)
CreationVente - -> AttentePaiement: terminerVente()
AttentePaiement - -> AttenteVente: creerPaiement(montant)
@enduml

PlantUML version 1.2021.3beta7(Unknown compile time)
(GPL source distribution)
Java Runtime: Java(TM) SE Runtime Environment
JVM: Java HotSpot(TM) 64-Bit Server VM
Default Encoding: UTF-8
Language: en
Country: US
--></g></svg>