<?xml version="1.0" encoding="UTF-8" standalone="no"?><svg xmlns="http://www.w3.org/2000/svg" xmlns:xlink="http://www.w3.org/1999/xlink" contentScriptType="application/ecmascript" contentStyleType="text/css" height="1093px" preserveAspectRatio="none" style="width:1078px;height:1093px;" version="1.1" viewBox="0 0 1078 1093" width="1078px" zoomAndPan="magnify"><defs><filter height="300%" id="f15nacr3n6x7wc" width="300%" x="-1" y="-1"><feGaussianBlur result="blurOut" stdDeviation="2.0"/><feColorMatrix in="blurOut" result="blurOut2" type="matrix" values="0 0 0 0 0 0 0 0 0 0 0 0 0 0 0 0 0 0 .4 0"/><feOffset dx="4.0" dy="4.0" in="blurOut2" result="blurOut3"/><feBlend in="SourceGraphic" in2="blurOut3" mode="normal"/></filter></defs><g><!--MD5=[e1d3770cbd048901ea869e126190a56e]
class ControleurReservation--><rect codeLine="1" fill="#FEFECE" filter="url(#f15nacr3n6x7wc)" height="124.8281" id="ControleurReservation" style="stroke:#A80036;stroke-width:1.5;" width="539" x="7" y="10"/><ellipse cx="171.75" cy="26" fill="#ADD1B2" rx="11" ry="11" style="stroke:#A80036;stroke-width:1.0;"/><path d="M174.0938,21.6719 C173.1563,21.2344 172.5625,21.0938 171.6875,21.0938 C169.0625,21.0938 167.0625,23.1719 167.0625,25.8906 L167.0625,27.0156 C167.0625,29.5938 169.1719,31.4844 172.0625,31.4844 C173.2813,31.4844 174.4375,31.1875 175.1875,30.6406 C175.7656,30.2344 176.0938,29.7813 176.0938,29.3906 C176.0938,28.9375 175.7031,28.5469 175.2344,28.5469 C175.0156,28.5469 174.8125,28.625 174.625,28.8125 C174.1719,29.2969 174.1719,29.2969 173.9844,29.3906 C173.5625,29.6563 172.875,29.7813 172.1094,29.7813 C170.0625,29.7813 168.7656,28.6875 168.7656,26.9844 L168.7656,25.8906 C168.7656,24.1094 170.0156,22.7969 171.75,22.7969 C172.3281,22.7969 172.9375,22.9531 173.4063,23.2031 C173.8906,23.4844 174.0625,23.7031 174.1563,24.1094 C174.2188,24.5156 174.25,24.6406 174.3906,24.7656 C174.5313,24.9063 174.7656,25.0156 174.9844,25.0156 C175.25,25.0156 175.5156,24.875 175.6875,24.6563 C175.7969,24.5 175.8281,24.3125 175.8281,23.8906 L175.8281,22.4688 C175.8281,22.0313 175.8125,21.9063 175.7188,21.75 C175.5625,21.4844 175.2813,21.3438 174.9844,21.3438 C174.6875,21.3438 174.4844,21.4375 174.2656,21.75 L174.0938,21.6719 Z " fill="#000000"/><text fill="#000000" font-family="sans-serif" font-size="12" lengthAdjust="spacing" textLength="134" x="192.25" y="30.1543">ControleurReservation</text><rect fill="#FFFFFF" height="15.9688" style="stroke:#000000;stroke-width:1.0;stroke-dasharray:2.0,2.0;" width="65" x="484" y="7"/><text fill="#000000" font-family="sans-serif" font-size="12" font-style="italic" lengthAdjust="spacing" textLength="63" x="485" y="19.1387">Controleur</text><line style="stroke:#A80036;stroke-width:1.5;" x1="8" x2="545" y1="42" y2="42"/><text fill="#000000" font-family="sans-serif" font-size="11" lengthAdjust="spacing" textLength="218" x="13" y="56.2104">Map&lt;nom:String,categorie:Categorie&gt;</text><line style="stroke:#A80036;stroke-width:1.5;" x1="8" x2="545" y1="62.8047" y2="62.8047"/><ellipse cx="18" cy="73.8047" fill="#84BE84" rx="3" ry="3" style="stroke:#038048;stroke-width:1.0;"/><text fill="#000000" font-family="sans-serif" font-size="11" lengthAdjust="spacing" textLength="129" x="27" y="77.0151">demarrerReservation()</text><ellipse cx="18" cy="86.6094" fill="#84BE84" rx="3" ry="3" style="stroke:#038048;stroke-width:1.0;"/><text fill="#000000" font-family="sans-serif" font-size="11" lengthAdjust="spacing" textLength="410" x="27" y="89.8198">reserverChambre(dateArrive:string, dateDepart:string, categorie: String)</text><ellipse cx="18" cy="99.4141" fill="#84BE84" rx="3" ry="3" style="stroke:#038048;stroke-width:1.0;"/><text fill="#000000" font-family="sans-serif" font-size="11" lengthAdjust="spacing" textLength="513" x="27" y="102.6245">reserverChambres(quantity:Integer,dateArrive:String, dateDepart:String, categorie: String)</text><ellipse cx="18" cy="112.2188" fill="#84BE84" rx="3" ry="3" style="stroke:#038048;stroke-width:1.0;"/><text fill="#000000" font-family="sans-serif" font-size="11" lengthAdjust="spacing" textLength="293" x="27" y="115.4292">confirmerReservation(nom:string, telephone: string)</text><text fill="#000000" font-family="sans-serif" font-size="11" lengthAdjust="spacing" textLength="410" x="27" y="128.2339">transfererChambre(noChambreActuel:string, noNouvelleChambre:string)</text><!--MD5=[3110dbef8258a6b966b2e55d3546d21d]
class Hotel--><rect codeLine="10" fill="#FEFECE" filter="url(#f15nacr3n6x7wc)" height="73.6094" id="Hotel" style="stroke:#A80036;stroke-width:1.5;" width="461" x="603" y="35.5"/><ellipse cx="726.75" cy="51.5" fill="#ADD1B2" rx="11" ry="11" style="stroke:#A80036;stroke-width:1.0;"/><path d="M729.0938,47.1719 C728.1563,46.7344 727.5625,46.5938 726.6875,46.5938 C724.0625,46.5938 722.0625,48.6719 722.0625,51.3906 L722.0625,52.5156 C722.0625,55.0938 724.1719,56.9844 727.0625,56.9844 C728.2813,56.9844 729.4375,56.6875 730.1875,56.1406 C730.7656,55.7344 731.0938,55.2813 731.0938,54.8906 C731.0938,54.4375 730.7031,54.0469 730.2344,54.0469 C730.0156,54.0469 729.8125,54.125 729.625,54.3125 C729.1719,54.7969 729.1719,54.7969 728.9844,54.8906 C728.5625,55.1563 727.875,55.2813 727.1094,55.2813 C725.0625,55.2813 723.7656,54.1875 723.7656,52.4844 L723.7656,51.3906 C723.7656,49.6094 725.0156,48.2969 726.75,48.2969 C727.3281,48.2969 727.9375,48.4531 728.4063,48.7031 C728.8906,48.9844 729.0625,49.2031 729.1563,49.6094 C729.2188,50.0156 729.25,50.1406 729.3906,50.2656 C729.5313,50.4063 729.7656,50.5156 729.9844,50.5156 C730.25,50.5156 730.5156,50.375 730.6875,50.1563 C730.7969,50 730.8281,49.8125 730.8281,49.3906 L730.8281,47.9688 C730.8281,47.5313 730.8125,47.4063 730.7188,47.25 C730.5625,46.9844 730.2813,46.8438 729.9844,46.8438 C729.6875,46.8438 729.4844,46.9375 729.2656,47.25 L729.0938,47.1719 Z " fill="#000000"/><text fill="#000000" font-family="sans-serif" font-size="12" lengthAdjust="spacing" textLength="32" x="747.25" y="55.6543">Hotel</text><rect fill="#FFFFFF" height="15.9688" style="stroke:#000000;stroke-width:1.0;stroke-dasharray:2.0,2.0;" width="171" x="896" y="32.5"/><text fill="#000000" font-family="sans-serif" font-size="12" font-style="italic" lengthAdjust="spacing" textLength="169" x="897" y="44.6387">Conteneur, Object physique</text><line style="stroke:#A80036;stroke-width:1.5;" x1="604" x2="1063" y1="67.5" y2="67.5"/><text fill="#000000" font-family="sans-serif" font-size="11" lengthAdjust="spacing" textLength="227" x="609" y="81.7104">Map&lt;numero:string,chambre:Chambre&gt;</text><line style="stroke:#A80036;stroke-width:1.5;" x1="604" x2="1063" y1="88.3047" y2="88.3047"/><text fill="#000000" font-family="sans-serif" font-size="11" lengthAdjust="spacing" textLength="449" x="609" y="102.5151">[sejour.reservation,category,sejour.dateFin] = TransferChambre(numero:string)</text><!--MD5=[f9ef9660f44628e549271a3193d2c3b4]
class Categorie--><rect codeLine="14" fill="#FEFECE" filter="url(#f15nacr3n6x7wc)" height="124.8281" id="Categorie" style="stroke:#A80036;stroke-width:1.5;" width="507" x="68" y="955"/><ellipse cx="190.25" cy="971" fill="#ADD1B2" rx="11" ry="11" style="stroke:#A80036;stroke-width:1.0;"/><path d="M192.5938,966.6719 C191.6563,966.2344 191.0625,966.0938 190.1875,966.0938 C187.5625,966.0938 185.5625,968.1719 185.5625,970.8906 L185.5625,972.0156 C185.5625,974.5938 187.6719,976.4844 190.5625,976.4844 C191.7813,976.4844 192.9375,976.1875 193.6875,975.6406 C194.2656,975.2344 194.5938,974.7813 194.5938,974.3906 C194.5938,973.9375 194.2031,973.5469 193.7344,973.5469 C193.5156,973.5469 193.3125,973.625 193.125,973.8125 C192.6719,974.2969 192.6719,974.2969 192.4844,974.3906 C192.0625,974.6563 191.375,974.7813 190.6094,974.7813 C188.5625,974.7813 187.2656,973.6875 187.2656,971.9844 L187.2656,970.8906 C187.2656,969.1094 188.5156,967.7969 190.25,967.7969 C190.8281,967.7969 191.4375,967.9531 191.9063,968.2031 C192.3906,968.4844 192.5625,968.7031 192.6563,969.1094 C192.7188,969.5156 192.75,969.6406 192.8906,969.7656 C193.0313,969.9063 193.2656,970.0156 193.4844,970.0156 C193.75,970.0156 194.0156,969.875 194.1875,969.6563 C194.2969,969.5 194.3281,969.3125 194.3281,968.8906 L194.3281,967.4688 C194.3281,967.0313 194.3125,966.9063 194.2188,966.75 C194.0625,966.4844 193.7813,966.3438 193.4844,966.3438 C193.1875,966.3438 192.9844,966.4375 192.7656,966.75 L192.5938,966.6719 Z " fill="#000000"/><text fill="#000000" font-family="sans-serif" font-size="12" lengthAdjust="spacing" textLength="59" x="210.75" y="975.1543">Categorie</text><rect fill="#FFFFFF" height="15.9688" style="stroke:#000000;stroke-width:1.0;stroke-dasharray:2.0,2.0;" width="193" x="385" y="952"/><text fill="#000000" font-family="sans-serif" font-size="12" font-style="italic" lengthAdjust="spacing" textLength="122" x="386" y="964.1387">Description d'entité,</text><text fill="#000000" font-family="sans-serif" font-size="12" font-style="italic" font-weight="bold" lengthAdjust="spacing" textLength="69" x="508" y="964.1387">Catalogue</text><line style="stroke:#A80036;stroke-width:1.5;" x1="69" x2="574" y1="987" y2="987"/><rect fill="none" height="6" style="stroke:#C82930;stroke-width:1.0;" width="6" x="76" y="995"/><text fill="#000000" font-family="sans-serif" font-size="11" lengthAdjust="spacing" textLength="65" x="88" y="1001.2104">nom: String</text><line style="stroke:#A80036;stroke-width:1.5;" x1="69" x2="574" y1="1007.8047" y2="1007.8047"/><ellipse cx="79" cy="1018.8047" fill="#84BE84" rx="3" ry="3" style="stroke:#038048;stroke-width:1.0;"/><text fill="#000000" font-family="sans-serif" font-size="11" lengthAdjust="spacing" textLength="370" x="88" y="1022.0151">getChambreLibre(dateArrivé: String,dateDepart:String): Chambre</text><ellipse cx="79" cy="1031.6094" fill="#84BE84" rx="3" ry="3" style="stroke:#038048;stroke-width:1.0;"/><text fill="#000000" font-family="sans-serif" font-size="11" lengthAdjust="spacing" textLength="481" x="88" y="1034.8198">getChambresLibre(quantity:Integer, dateArrivé: String,dateDepart:String): [Chambre]</text><text fill="#000000" font-family="sans-serif" font-size="11" lengthAdjust="spacing" textLength="165" x="88" y="1047.6245">ch = getChambreDisponible(</text><text fill="#000000" font-family="sans-serif" font-size="11" lengthAdjust="spacing" textLength="102" x="88" y="1060.4292">maintenant:string,</text><text fill="#000000" font-family="sans-serif" font-size="11" lengthAdjust="spacing" textLength="80" x="88" y="1073.2339">dateFin:string)</text><!--MD5=[9c46470aa33a0c75e6d1dfdefc2f9c22]
class Reservation--><rect codeLine="21" fill="#FEFECE" filter="url(#f15nacr3n6x7wc)" height="124.8281" id="Reservation" style="stroke:#A80036;stroke-width:1.5;" width="501" x="285" y="375"/><ellipse cx="458.75" cy="391" fill="#ADD1B2" rx="11" ry="11" style="stroke:#A80036;stroke-width:1.0;"/><path d="M461.0938,386.6719 C460.1563,386.2344 459.5625,386.0938 458.6875,386.0938 C456.0625,386.0938 454.0625,388.1719 454.0625,390.8906 L454.0625,392.0156 C454.0625,394.5938 456.1719,396.4844 459.0625,396.4844 C460.2813,396.4844 461.4375,396.1875 462.1875,395.6406 C462.7656,395.2344 463.0938,394.7813 463.0938,394.3906 C463.0938,393.9375 462.7031,393.5469 462.2344,393.5469 C462.0156,393.5469 461.8125,393.625 461.625,393.8125 C461.1719,394.2969 461.1719,394.2969 460.9844,394.3906 C460.5625,394.6563 459.875,394.7813 459.1094,394.7813 C457.0625,394.7813 455.7656,393.6875 455.7656,391.9844 L455.7656,390.8906 C455.7656,389.1094 457.0156,387.7969 458.75,387.7969 C459.3281,387.7969 459.9375,387.9531 460.4063,388.2031 C460.8906,388.4844 461.0625,388.7031 461.1563,389.1094 C461.2188,389.5156 461.25,389.6406 461.3906,389.7656 C461.5313,389.9063 461.7656,390.0156 461.9844,390.0156 C462.25,390.0156 462.5156,389.875 462.6875,389.6563 C462.7969,389.5 462.8281,389.3125 462.8281,388.8906 L462.8281,387.4688 C462.8281,387.0313 462.8125,386.9063 462.7188,386.75 C462.5625,386.4844 462.2813,386.3438 461.9844,386.3438 C461.6875,386.3438 461.4844,386.4375 461.2656,386.75 L461.0938,386.6719 Z " fill="#000000"/><text fill="#000000" font-family="sans-serif" font-size="12" lengthAdjust="spacing" textLength="71" x="479.25" y="395.1543">Reservation</text><rect fill="#FFFFFF" height="15.9688" style="stroke:#000000;stroke-width:1.0;stroke-dasharray:2.0,2.0;" width="72" x="717" y="372"/><text fill="#000000" font-family="sans-serif" font-size="12" font-style="italic" lengthAdjust="spacing" textLength="70" x="718" y="384.1387">Transaction</text><line style="stroke:#A80036;stroke-width:1.5;" x1="286" x2="785" y1="407" y2="407"/><rect fill="none" height="6" style="stroke:#C82930;stroke-width:1.0;" width="6" x="293" y="415"/><text fill="#000000" font-family="sans-serif" font-size="11" lengthAdjust="spacing" textLength="126" x="305" y="421.2104">noConfirmation: String</text><line style="stroke:#A80036;stroke-width:1.5;" x1="286" x2="785" y1="427.8047" y2="427.8047"/><ellipse cx="296" cy="438.8047" fill="#84BE84" rx="3" ry="3" style="stroke:#038048;stroke-width:1.0;"/><text fill="#000000" font-family="sans-serif" font-size="11" lengthAdjust="spacing" textLength="169" x="305" y="442.0151">Reservation(commis:Commis)</text><ellipse cx="296" cy="451.6094" fill="#84BE84" rx="3" ry="3" style="stroke:#038048;stroke-width:1.0;"/><text fill="#000000" font-family="sans-serif" font-size="11" lengthAdjust="spacing" textLength="413" x="305" y="454.8198">Reservation(ch:Chambre,c:Commis,dateArrive:String, dateDepart: String)</text><ellipse cx="296" cy="464.4141" fill="#84BE84" rx="3" ry="3" style="stroke:#038048;stroke-width:1.0;"/><text fill="#000000" font-family="sans-serif" font-size="11" lengthAdjust="spacing" textLength="475" x="305" y="467.6245">ajouterChambres([ch]:Chambre,dateArrive:String, dateDepart: String): r:Reservation</text><ellipse cx="296" cy="477.2188" fill="#84BE84" rx="3" ry="3" style="stroke:#038048;stroke-width:1.0;"/><text fill="#000000" font-family="sans-serif" font-size="11" lengthAdjust="spacing" textLength="175" x="305" y="480.4292">confirmerReservation(cl:Client)</text><rect fill="#F24D5C" height="6" style="stroke:#C82930;stroke-width:1.0;" width="6" x="293" y="487.0234"/><text fill="#000000" font-family="sans-serif" font-size="11" lengthAdjust="spacing" textLength="113" x="305" y="493.2339">setNoConfirmation()</text><!--MD5=[b9205f29e8b31169249c1c67a324dd73]
class Sejour--><rect codeLine="30" fill="#FEFECE" filter="url(#f15nacr3n6x7wc)" height="163.2422" id="Sejour" style="stroke:#A80036;stroke-width:1.5;" width="199" x="436" y="577"/><ellipse cx="451" cy="593" fill="#ADD1B2" rx="11" ry="11" style="stroke:#A80036;stroke-width:1.0;"/><path d="M453.3438,588.6719 C452.4063,588.2344 451.8125,588.0938 450.9375,588.0938 C448.3125,588.0938 446.3125,590.1719 446.3125,592.8906 L446.3125,594.0156 C446.3125,596.5938 448.4219,598.4844 451.3125,598.4844 C452.5313,598.4844 453.6875,598.1875 454.4375,597.6406 C455.0156,597.2344 455.3438,596.7813 455.3438,596.3906 C455.3438,595.9375 454.9531,595.5469 454.4844,595.5469 C454.2656,595.5469 454.0625,595.625 453.875,595.8125 C453.4219,596.2969 453.4219,596.2969 453.2344,596.3906 C452.8125,596.6563 452.125,596.7813 451.3594,596.7813 C449.3125,596.7813 448.0156,595.6875 448.0156,593.9844 L448.0156,592.8906 C448.0156,591.1094 449.2656,589.7969 451,589.7969 C451.5781,589.7969 452.1875,589.9531 452.6563,590.2031 C453.1406,590.4844 453.3125,590.7031 453.4063,591.1094 C453.4688,591.5156 453.5,591.6406 453.6406,591.7656 C453.7813,591.9063 454.0156,592.0156 454.2344,592.0156 C454.5,592.0156 454.7656,591.875 454.9375,591.6563 C455.0469,591.5 455.0781,591.3125 455.0781,590.8906 L455.0781,589.4688 C455.0781,589.0313 455.0625,588.9063 454.9688,588.75 C454.8125,588.4844 454.5313,588.3438 454.2344,588.3438 C453.9375,588.3438 453.7344,588.4375 453.5156,588.75 L453.3438,588.6719 Z " fill="#000000"/><text fill="#000000" font-family="sans-serif" font-size="12" lengthAdjust="spacing" textLength="39" x="465" y="597.1543">Sejour</text><rect fill="#FFFFFF" height="15.9688" style="stroke:#000000;stroke-width:1.0;stroke-dasharray:2.0,2.0;" width="126" x="512" y="574"/><text fill="#000000" font-family="sans-serif" font-size="12" font-style="italic" lengthAdjust="spacing" textLength="124" x="513" y="586.1387">Ligne de transaction</text><line style="stroke:#A80036;stroke-width:1.5;" x1="437" x2="634" y1="609" y2="609"/><rect fill="none" height="6" style="stroke:#C82930;stroke-width:1.0;" width="6" x="444" y="617"/><text fill="#000000" font-family="sans-serif" font-size="11" lengthAdjust="spacing" textLength="128" x="456" y="623.2104">reservation_id:number</text><rect fill="none" height="6" style="stroke:#C82930;stroke-width:1.0;" width="6" x="444" y="629.8047"/><text fill="#000000" font-family="sans-serif" font-size="11" lengthAdjust="spacing" textLength="113" x="456" y="636.0151">chambre_id:number</text><rect fill="none" height="6" style="stroke:#C82930;stroke-width:1.0;" width="6" x="444" y="642.6094"/><text fill="#000000" font-family="sans-serif" font-size="11" lengthAdjust="spacing" textLength="95" x="456" y="648.8198">dateArrive: Date</text><rect fill="none" height="6" style="stroke:#C82930;stroke-width:1.0;" width="6" x="444" y="655.4141"/><text fill="#000000" font-family="sans-serif" font-size="11" lengthAdjust="spacing" textLength="100" x="456" y="661.6245">dateDepart: Date</text><line style="stroke:#A80036;stroke-width:1.5;" x1="437" x2="634" y1="668.2188" y2="668.2188"/><ellipse cx="447" cy="679.2188" fill="#84BE84" rx="3" ry="3" style="stroke:#038048;stroke-width:1.0;"/><text fill="#000000" font-family="sans-serif" font-size="11" lengthAdjust="spacing" textLength="121" x="456" y="682.4292">Create(r:Reservation,</text><text fill="#000000" font-family="sans-serif" font-size="11" lengthAdjust="spacing" textLength="97" x="456" y="695.2339">dateArrive:string,</text><text fill="#000000" font-family="sans-serif" font-size="11" lengthAdjust="spacing" textLength="102" x="456" y="708.0386">dateDepart:string,</text><text fill="#000000" font-family="sans-serif" font-size="11" lengthAdjust="spacing" textLength="172" x="456" y="720.8433">noNouvelleChambre:number )</text><ellipse cx="447" cy="730.4375" fill="#84BE84" rx="3" ry="3" style="stroke:#038048;stroke-width:1.0;"/><text fill="#000000" font-family="sans-serif" font-size="11" lengthAdjust="spacing" textLength="94" x="456" y="733.6479">terminerSejour()</text><!--MD5=[aeb2a05b656f26b4e931c999627a7b50]
class Commis--><rect codeLine="39" fill="#FEFECE" filter="url(#f15nacr3n6x7wc)" height="48" id="Commis" style="stroke:#A80036;stroke-width:1.5;" width="109" x="612" y="231"/><ellipse cx="627" cy="247" fill="#ADD1B2" rx="11" ry="11" style="stroke:#A80036;stroke-width:1.0;"/><path d="M629.3438,242.6719 C628.4063,242.2344 627.8125,242.0938 626.9375,242.0938 C624.3125,242.0938 622.3125,244.1719 622.3125,246.8906 L622.3125,248.0156 C622.3125,250.5938 624.4219,252.4844 627.3125,252.4844 C628.5313,252.4844 629.6875,252.1875 630.4375,251.6406 C631.0156,251.2344 631.3438,250.7813 631.3438,250.3906 C631.3438,249.9375 630.9531,249.5469 630.4844,249.5469 C630.2656,249.5469 630.0625,249.625 629.875,249.8125 C629.4219,250.2969 629.4219,250.2969 629.2344,250.3906 C628.8125,250.6563 628.125,250.7813 627.3594,250.7813 C625.3125,250.7813 624.0156,249.6875 624.0156,247.9844 L624.0156,246.8906 C624.0156,245.1094 625.2656,243.7969 627,243.7969 C627.5781,243.7969 628.1875,243.9531 628.6563,244.2031 C629.1406,244.4844 629.3125,244.7031 629.4063,245.1094 C629.4688,245.5156 629.5,245.6406 629.6406,245.7656 C629.7813,245.9063 630.0156,246.0156 630.2344,246.0156 C630.5,246.0156 630.7656,245.875 630.9375,245.6563 C631.0469,245.5 631.0781,245.3125 631.0781,244.8906 L631.0781,243.4688 C631.0781,243.0313 631.0625,242.9063 630.9688,242.75 C630.8125,242.4844 630.5313,242.3438 630.2344,242.3438 C629.9375,242.3438 629.7344,242.4375 629.5156,242.75 L629.3438,242.6719 Z " fill="#000000"/><text fill="#000000" font-family="sans-serif" font-size="12" lengthAdjust="spacing" textLength="48" x="641" y="251.1543">Commis</text><rect fill="#FFFFFF" height="15.9688" style="stroke:#000000;stroke-width:1.0;stroke-dasharray:2.0,2.0;" width="27" x="697" y="228"/><text fill="#000000" font-family="sans-serif" font-size="12" font-style="italic" lengthAdjust="spacing" textLength="25" x="698" y="240.1387">Role</text><line style="stroke:#A80036;stroke-width:1.5;" x1="613" x2="720" y1="263" y2="263"/><line style="stroke:#A80036;stroke-width:1.5;" x1="613" x2="720" y1="271" y2="271"/><!--MD5=[5caef05668a3671b919925ac15293d4d]
class Chambre--><rect codeLine="40" fill="#FEFECE" filter="url(#f15nacr3n6x7wc)" height="60.8047" id="Chambre" style="stroke:#A80036;stroke-width:1.5;" width="474" x="298.5" y="817"/><ellipse cx="313.5" cy="833" fill="#ADD1B2" rx="11" ry="11" style="stroke:#A80036;stroke-width:1.0;"/><path d="M315.8438,828.6719 C314.9063,828.2344 314.3125,828.0938 313.4375,828.0938 C310.8125,828.0938 308.8125,830.1719 308.8125,832.8906 L308.8125,834.0156 C308.8125,836.5938 310.9219,838.4844 313.8125,838.4844 C315.0313,838.4844 316.1875,838.1875 316.9375,837.6406 C317.5156,837.2344 317.8438,836.7813 317.8438,836.3906 C317.8438,835.9375 317.4531,835.5469 316.9844,835.5469 C316.7656,835.5469 316.5625,835.625 316.375,835.8125 C315.9219,836.2969 315.9219,836.2969 315.7344,836.3906 C315.3125,836.6563 314.625,836.7813 313.8594,836.7813 C311.8125,836.7813 310.5156,835.6875 310.5156,833.9844 L310.5156,832.8906 C310.5156,831.1094 311.7656,829.7969 313.5,829.7969 C314.0781,829.7969 314.6875,829.9531 315.1563,830.2031 C315.6406,830.4844 315.8125,830.7031 315.9063,831.1094 C315.9688,831.5156 316,831.6406 316.1406,831.7656 C316.2813,831.9063 316.5156,832.0156 316.7344,832.0156 C317,832.0156 317.2656,831.875 317.4375,831.6563 C317.5469,831.5 317.5781,831.3125 317.5781,830.8906 L317.5781,829.4688 C317.5781,829.0313 317.5625,828.9063 317.4688,828.75 C317.3125,828.4844 317.0313,828.3438 316.7344,828.3438 C316.4375,828.3438 316.2344,828.4375 316.0156,828.75 L315.8438,828.6719 Z " fill="#000000"/><text fill="#000000" font-family="sans-serif" font-size="12" lengthAdjust="spacing" textLength="54" x="327.5" y="837.1543">Chambre</text><rect fill="#FFFFFF" height="15.9688" style="stroke:#000000;stroke-width:1.0;stroke-dasharray:2.0,2.0;" width="386" x="389.5" y="814"/><text fill="#000000" font-family="sans-serif" font-size="12" font-style="italic" lengthAdjust="spacing" textLength="384" x="390.5" y="826.1387">Objet physique, Contenu dans l'hotel, Produit d'une transaction</text><line style="stroke:#A80036;stroke-width:1.5;" x1="299.5" x2="771.5" y1="849" y2="849"/><line style="stroke:#A80036;stroke-width:1.5;" x1="299.5" x2="771.5" y1="857" y2="857"/><text fill="#000000" font-family="sans-serif" font-size="11" lengthAdjust="spacing" textLength="281" x="304.5" y="871.2104">[category,sejour] = TerminerSejourPourTransfer()</text><!--MD5=[ed6624c6556d5e7b1bd23032162d20b7]
class Client--><rect codeLine="43" fill="#FEFECE" filter="url(#f15nacr3n6x7wc)" height="86.4141" id="Client" style="stroke:#A80036;stroke-width:1.5;" width="226" x="350.5" y="212"/><ellipse cx="428.25" cy="228" fill="#ADD1B2" rx="11" ry="11" style="stroke:#A80036;stroke-width:1.0;"/><path d="M430.5938,223.6719 C429.6563,223.2344 429.0625,223.0938 428.1875,223.0938 C425.5625,223.0938 423.5625,225.1719 423.5625,227.8906 L423.5625,229.0156 C423.5625,231.5938 425.6719,233.4844 428.5625,233.4844 C429.7813,233.4844 430.9375,233.1875 431.6875,232.6406 C432.2656,232.2344 432.5938,231.7813 432.5938,231.3906 C432.5938,230.9375 432.2031,230.5469 431.7344,230.5469 C431.5156,230.5469 431.3125,230.625 431.125,230.8125 C430.6719,231.2969 430.6719,231.2969 430.4844,231.3906 C430.0625,231.6563 429.375,231.7813 428.6094,231.7813 C426.5625,231.7813 425.2656,230.6875 425.2656,228.9844 L425.2656,227.8906 C425.2656,226.1094 426.5156,224.7969 428.25,224.7969 C428.8281,224.7969 429.4375,224.9531 429.9063,225.2031 C430.3906,225.4844 430.5625,225.7031 430.6563,226.1094 C430.7188,226.5156 430.75,226.6406 430.8906,226.7656 C431.0313,226.9063 431.2656,227.0156 431.4844,227.0156 C431.75,227.0156 432.0156,226.875 432.1875,226.6563 C432.2969,226.5 432.3281,226.3125 432.3281,225.8906 L432.3281,224.4688 C432.3281,224.0313 432.3125,223.9063 432.2188,223.75 C432.0625,223.4844 431.7813,223.3438 431.4844,223.3438 C431.1875,223.3438 430.9844,223.4375 430.7656,223.75 L430.5938,223.6719 Z " fill="#000000"/><text fill="#000000" font-family="sans-serif" font-size="12" lengthAdjust="spacing" textLength="33" x="448.75" y="232.1543">Client</text><rect fill="#FFFFFF" height="15.9688" style="stroke:#000000;stroke-width:1.0;stroke-dasharray:2.0,2.0;" width="27" x="552.5" y="209"/><text fill="#000000" font-family="sans-serif" font-size="12" font-style="italic" lengthAdjust="spacing" textLength="25" x="553.5" y="221.1387">Role</text><line style="stroke:#A80036;stroke-width:1.5;" x1="351.5" x2="575.5" y1="244" y2="244"/><rect fill="none" height="6" style="stroke:#C82930;stroke-width:1.0;" width="6" x="358.5" y="252"/><text fill="#000000" font-family="sans-serif" font-size="11" lengthAdjust="spacing" textLength="59" x="370.5" y="258.2104">nom:string</text><rect fill="none" height="6" style="stroke:#C82930;stroke-width:1.0;" width="6" x="358.5" y="264.8047"/><text fill="#000000" font-family="sans-serif" font-size="11" lengthAdjust="spacing" textLength="93" x="370.5" y="271.0151">telephone:string</text><line style="stroke:#A80036;stroke-width:1.5;" x1="351.5" x2="575.5" y1="277.6094" y2="277.6094"/><ellipse cx="361.5" cy="288.6094" fill="#84BE84" rx="3" ry="3" style="stroke:#038048;stroke-width:1.0;"/><text fill="#000000" font-family="sans-serif" font-size="11" lengthAdjust="spacing" textLength="200" x="370.5" y="291.8198">Client(nom:string, telephone:string)</text><!--MD5=[1a7731b8f2c930c6d97d17ac0ebde2a8]
link Hotel to Chambre--><path codeLine="49" d="M840.841,109.629 C847.572,145.946 856.5,203.614 856.5,254 C856.5,254 856.5,254 856.5,659.5 C856.5,742.498 775.387,789.305 694.709,815.335 " fill="none" id="Hotel-to-Chambre" style="stroke:#A80036;stroke-width:1.0;"/><polygon fill="#A80036" points="689.889,816.865,699.6777,817.9517,694.6542,815.3509,697.2551,810.3274,689.889,816.865" style="stroke:#A80036;stroke-width:1.0;"/><text fill="#000000" font-family="sans-serif" font-size="13" lengthAdjust="spacing" textLength="54" x="857.5" y="442.0669">possède</text><text fill="#000000" font-family="sans-serif" font-size="13" lengthAdjust="spacing" textLength="7" x="714.0099" y="806.1004">*</text><!--MD5=[0a1ca1dec3496909bbcff8f1a6972e9c]
reverse link Chambre to Categorie--><path codeLine="50" d="M493.543,881.438 C466.957,902.309 431.74,929.957 400.095,954.799 " fill="none" id="Chambre-backto-Categorie" style="stroke:#A80036;stroke-width:1.0;"/><polygon fill="#A80036" points="497.734,878.148,488.1847,880.5587,493.801,881.2353,493.1244,886.8515,497.734,878.148" style="stroke:#A80036;stroke-width:1.0;"/><text fill="#000000" font-family="sans-serif" font-size="13" lengthAdjust="spacing" textLength="66" x="455.5" y="921.0669">appartient</text><text fill="#000000" font-family="sans-serif" font-size="13" lengthAdjust="spacing" textLength="7" x="482.6098" y="897.7576">*</text><!--MD5=[9ee890e3271cd9be3ed17d9ceb0af7d4]
reverse link Client to Reservation--><path codeLine="51" d="M467.265,303.14 C469.333,316.932 472.537,331.834 477.5,345 C481.282,355.031 486.254,365.132 491.701,374.773 " fill="none" id="Client-backto-Reservation" style="stroke:#A80036;stroke-width:1.0;"/><polygon fill="#A80036" points="466.554,298.114,463.8563,307.5862,467.2555,303.0645,471.7771,306.4638,466.554,298.114" style="stroke:#A80036;stroke-width:1.0;"/><text fill="#000000" font-family="sans-serif" font-size="13" lengthAdjust="spacing" textLength="61" x="478.5" y="341.0669">demande</text><!--MD5=[68baab2b76d878f08dc09388ccbc52c4]
reverse link Commis to Reservation--><path codeLine="52" d="M646.681,283.307 C629.101,307.531 602.775,343.805 580.153,374.975 " fill="none" id="Commis-backto-Reservation" style="stroke:#A80036;stroke-width:1.0;"/><polygon fill="#A80036" points="649.642,279.228,641.1185,284.1625,646.7052,283.2746,647.5931,288.8614,649.642,279.228" style="stroke:#A80036;stroke-width:1.0;"/><text fill="#000000" font-family="sans-serif" font-size="13" lengthAdjust="spacing" textLength="28" x="614.5" y="341.0669">cree</text><!--MD5=[6c051db2d685ac22b70f1baef8e033a7]
reverse link Hotel to Commis--><path codeLine="53" d="M791.141,119.283 C758.198,154.89 713.863,202.808 687.914,230.855 " fill="none" id="Hotel-backto-Commis" style="stroke:#A80036;stroke-width:1.0;"/><polygon fill="#A80036" points="800.106,109.593,793.0952,111.2809,791.9568,118.4015,798.9676,116.7137,800.106,109.593" style="stroke:#A80036;stroke-width:1.0;"/><text fill="#000000" font-family="sans-serif" font-size="13" lengthAdjust="spacing" textLength="51" x="745.5" y="178.0669">Emploie</text><text fill="#000000" font-family="sans-serif" font-size="13" lengthAdjust="spacing" textLength="7" x="685.5045" y="219.8299">*</text><!--MD5=[7ee491c9e61831bfd71124da6278b8d9]
link Reservation to Sejour--><path codeLine="54" d="M535.5,500.087 C535.5,522.292 535.5,547.771 535.5,571.671 " fill="none" id="Reservation-to-Sejour" style="stroke:#A80036;stroke-width:1.0;"/><polygon fill="#A80036" points="535.5,576.745,539.5,567.745,535.5,571.745,531.5,567.745,535.5,576.745" style="stroke:#A80036;stroke-width:1.0;"/><text fill="#000000" font-family="sans-serif" font-size="13" lengthAdjust="spacing" textLength="52" x="536.5" y="543.0669">contient</text><text fill="#000000" font-family="sans-serif" font-size="13" lengthAdjust="spacing" textLength="8" x="527.0625" y="519.8363">1</text><text fill="#000000" font-family="sans-serif" font-size="13" lengthAdjust="spacing" textLength="7" x="528.1883" y="565.8578">*</text><!--MD5=[6baaae9d9bab32f78118ff49bc3eea8f]
reverse link Sejour to Chambre--><path codeLine="55" d="M535.5,745.292 C535.5,771.009 535.5,797.509 535.5,816.939 " fill="none" id="Sejour-backto-Chambre" style="stroke:#A80036;stroke-width:1.0;"/><polygon fill="#A80036" points="535.5,740.162,531.5,749.162,535.5,745.162,539.5,749.162,535.5,740.162" style="stroke:#A80036;stroke-width:1.0;"/><polygon fill="#000000" points="540.5,783.5664,543.4389,774.5213,537.5611,774.5213,540.5,783.5664" style="stroke:#000000;stroke-width:1.0;"/><text fill="#000000" font-family="sans-serif" font-size="13" lengthAdjust="spacing" textLength="105" x="549.5" y="783.0669">est résservé par</text><text fill="#000000" font-family="sans-serif" font-size="13" lengthAdjust="spacing" textLength="7" x="528.1773" y="760.4435">*</text><text fill="#000000" font-family="sans-serif" font-size="13" lengthAdjust="spacing" textLength="8" x="526.625" y="805.7159">1</text><!--MD5=[a8407828f39a50610473eaf782cca2cc]
link ControleurReservation to Commis--><path codeLine="56" d="M426.837,135.16 C480.072,158.048 540.007,185.029 593.5,212 C603.463,217.023 613.973,222.784 623.819,228.396 " fill="none" id="ControleurReservation-to-Commis" style="stroke:#A80036;stroke-width:1.0;"/><polygon fill="#A80036" points="628.291,230.961,622.4754,223.0125,623.9542,228.4726,618.494,229.9514,628.291,230.961" style="stroke:#A80036;stroke-width:1.0;"/><!--MD5=[99bb16900e29ad147486046983b0654c]
link ControleurReservation to Categorie--><path codeLine="57" d="M253.209,135.209 C242.229,169.649 231.5,213.63 231.5,254 C231.5,254 231.5,254 231.5,848.5 C231.5,884.926 248.143,921.09 267.115,950.482 " fill="none" id="ControleurReservation-to-Categorie" style="stroke:#A80036;stroke-width:1.0;"/><polygon fill="#A80036" points="269.929,954.769,268.3357,945.0499,267.1859,950.5886,261.6471,949.4388,269.929,954.769" style="stroke:#A80036;stroke-width:1.0;"/><text fill="#000000" font-family="sans-serif" font-size="13" lengthAdjust="spacing" textLength="7" x="256.5614" y="943.733">*</text><!--MD5=[dcf5929ae42c18371cf59f4bc5fbe2e6]
@startuml
class ControleurReservation<Controleur>{
  Map<nom:String,categorie:Categorie>
  +demarrerReservation()
  +reserverChambre(dateArrive:string, dateDepart:string, categorie: String)
  +reserverChambres(quantity:Integer,dateArrive:String, dateDepart:String, categorie: String)
  +confirmerReservation(nom:string, telephone: string)
  transfererChambre(noChambreActuel:string, noNouvelleChambre:string)
}

class Hotel <Conteneur, Object physique>{
  Map<numero:string,chambre:Chambre>
  [sejour.reservation,category,sejour.dateFin] = TransferChambre(numero:string)
}
class Categorie <Description d'entité,**Catalogue**> {
  -nom: String
  +getChambreLibre(dateArrivé: String,dateDepart:String): Chambre
  +getChambresLibre(quantity:Integer, dateArrivé: String,dateDepart:String): [Chambre]
   ch = getChambreDisponible(\nmaintenant:string, \ndateFin:string)

}
class Reservation <Transaction>{
  -noConfirmation: String
  +Reservation(commis:Commis)
  +Reservation(ch:Chambre,c:Commis,dateArrive:String, dateDepart: String)
  +ajouterChambres([ch]:Chambre,dateArrive:String, dateDepart: String): r:Reservation
  +confirmerReservation(cl:Client)
  -setNoConfirmation()
}

class Sejour <Ligne de transaction>{
  -reservation_id:number
  -chambre_id:number
  -dateArrive: Date
  -dateDepart: Date
  +Create(r:Reservation,\ndateArrive:string, \ndateDepart:string, \nnoNouvelleChambre:number )
  +terminerSejour()
}

class Commis <Role>
class Chambre <Objet physique, Contenu dans l'hotel, Produit d'une transaction>{
  [category,sejour] = TerminerSejourPourTransfer()
}
class Client <Role> {
  -nom:string
  -telephone:string
  +Client(nom:string, telephone:string)
}

Hotel - -> "*" Chambre: possède
Chambre "*" <- - Categorie: appartient
Client  <- -  Reservation: demande
Commis  <- -  Reservation: cree
Hotel  *- - "*" Commis : Emploie
Reservation "1" - -> "*" Sejour: contient
Sejour"*" <- - "1" Chambre: est résservé par >
ControleurReservation - -> Commis
ControleurReservation - -> "*" Categorie
@enduml

PlantUML version 1.2021.2beta9(Unknown compile time)
(GPL source distribution)
Java Runtime: Java(TM) SE Runtime Environment
JVM: Java HotSpot(TM) 64-Bit Server VM
Default Encoding: UTF-8
Language: en
Country: US
--></g></svg>