<?xml version="1.0" encoding="UTF-8" standalone="no"?><svg xmlns="http://www.w3.org/2000/svg" xmlns:xlink="http://www.w3.org/1999/xlink" contentStyleType="text/css" height="433px" preserveAspectRatio="none" style="width:558px;height:433px;background:#FFFFFF;" version="1.1" viewBox="0 0 558 433" width="558px" zoomAndPan="magnify"><defs/><g><text fill="#000000" font-family="sans-serif" font-size="14" font-weight="bold" lengthAdjust="spacing" textLength="129" x="207.75" y="22.9951">solution initiale</text><!--class Reservation--><g id="elem_Reservation"><rect codeLine="2" fill="#F1F1F1" height="64.2969" id="Reservation" rx="2.5" ry="2.5" style="stroke:#181818;stroke-width:0.5;" width="192" x="13.5" y="47.2969"/><ellipse cx="28.5" cy="63.2969" fill="#ADD1B2" rx="11" ry="11" style="stroke:#181818;stroke-width:1.0;"/><path d="M30.8438,58.9688 C29.9063,58.5313 29.3125,58.3906 28.4375,58.3906 C25.8125,58.3906 23.8125,60.4688 23.8125,63.1875 L23.8125,64.3125 C23.8125,66.8906 25.9219,68.7813 28.8125,68.7813 C30.0313,68.7813 31.1875,68.4844 31.9375,67.9375 C32.5156,67.5313 32.8438,67.0781 32.8438,66.6875 C32.8438,66.2344 32.4531,65.8438 31.9844,65.8438 C31.7656,65.8438 31.5625,65.9219 31.375,66.1094 C30.9219,66.5938 30.9219,66.5938 30.7344,66.6875 C30.3125,66.9531 29.625,67.0781 28.8594,67.0781 C26.8125,67.0781 25.5156,65.9844 25.5156,64.2813 L25.5156,63.1875 C25.5156,61.4063 26.7656,60.0938 28.5,60.0938 C29.0781,60.0938 29.6875,60.25 30.1563,60.5 C30.6406,60.7813 30.8125,61 30.9063,61.4063 C30.9688,61.8125 31,61.9375 31.1406,62.0625 C31.2813,62.2031 31.5156,62.3125 31.7344,62.3125 C32,62.3125 32.2656,62.1719 32.4375,61.9531 C32.5469,61.7969 32.5781,61.6094 32.5781,61.1875 L32.5781,59.7656 C32.5781,59.3281 32.5625,59.2031 32.4688,59.0469 C32.3125,58.7813 32.0313,58.6406 31.7344,58.6406 C31.4375,58.6406 31.2344,58.7344 31.0156,59.0469 L30.8438,58.9688 Z " fill="#000000"/><text fill="#000000" font-family="sans-serif" font-size="14" lengthAdjust="spacing" textLength="86" x="42.5" y="68.1436">Reservation</text><rect fill="#FFFFFF" height="15.9688" style="stroke:#181818;stroke-width:1.0;stroke-dasharray:2.0,2.0;" width="72" x="136.5" y="44.2969"/><text fill="#000000" font-family="sans-serif" font-size="12" font-style="italic" lengthAdjust="spacing" textLength="70" x="137.5" y="56.4355">Transaction</text><line style="stroke:#181818;stroke-width:0.5;" x1="14.5" x2="204.5" y1="79.2969" y2="79.2969"/><text fill="#000000" font-family="sans-serif" font-size="14" lengthAdjust="spacing" textLength="166" x="19.5" y="96.292">noConfirmation: String</text><line style="stroke:#181818;stroke-width:0.5;" x1="14.5" x2="204.5" y1="103.5938" y2="103.5938"/></g><!--class Sejour--><g id="elem_Sejour"><rect codeLine="6" fill="#F1F1F1" height="96.8906" id="Sejour" rx="2.5" ry="2.5" style="stroke:#181818;stroke-width:0.5;" width="205" x="7" y="188.2969"/><ellipse cx="22" cy="204.2969" fill="#ADD1B2" rx="11" ry="11" style="stroke:#181818;stroke-width:1.0;"/><path d="M24.3438,199.9688 C23.4063,199.5313 22.8125,199.3906 21.9375,199.3906 C19.3125,199.3906 17.3125,201.4688 17.3125,204.1875 L17.3125,205.3125 C17.3125,207.8906 19.4219,209.7813 22.3125,209.7813 C23.5313,209.7813 24.6875,209.4844 25.4375,208.9375 C26.0156,208.5313 26.3438,208.0781 26.3438,207.6875 C26.3438,207.2344 25.9531,206.8438 25.4844,206.8438 C25.2656,206.8438 25.0625,206.9219 24.875,207.1094 C24.4219,207.5938 24.4219,207.5938 24.2344,207.6875 C23.8125,207.9531 23.125,208.0781 22.3594,208.0781 C20.3125,208.0781 19.0156,206.9844 19.0156,205.2813 L19.0156,204.1875 C19.0156,202.4063 20.2656,201.0938 22,201.0938 C22.5781,201.0938 23.1875,201.25 23.6563,201.5 C24.1406,201.7813 24.3125,202 24.4063,202.4063 C24.4688,202.8125 24.5,202.9375 24.6406,203.0625 C24.7813,203.2031 25.0156,203.3125 25.2344,203.3125 C25.5,203.3125 25.7656,203.1719 25.9375,202.9531 C26.0469,202.7969 26.0781,202.6094 26.0781,202.1875 L26.0781,200.7656 C26.0781,200.3281 26.0625,200.2031 25.9688,200.0469 C25.8125,199.7813 25.5313,199.6406 25.2344,199.6406 C24.9375,199.6406 24.7344,199.7344 24.5156,200.0469 L24.3438,199.9688 Z " fill="#000000"/><text fill="#000000" font-family="sans-serif" font-size="14" lengthAdjust="spacing" textLength="45" x="36" y="209.1436">Sejour</text><rect fill="#FFFFFF" height="15.9688" style="stroke:#181818;stroke-width:1.0;stroke-dasharray:2.0,2.0;" width="126" x="89" y="185.2969"/><text fill="#000000" font-family="sans-serif" font-size="12" font-style="italic" lengthAdjust="spacing" textLength="124" x="90" y="197.4355">Ligne de transaction</text><line style="stroke:#181818;stroke-width:0.5;" x1="8" x2="211" y1="220.2969" y2="220.2969"/><text fill="#000000" font-family="sans-serif" font-size="14" lengthAdjust="spacing" text-decoration="line-through" textLength="113" x="13" y="237.292">quantity: String</text><text fill="#000000" font-family="sans-serif" font-size="14" lengthAdjust="spacing" textLength="120" x="13" y="253.5889">dateArrive: Date</text><text fill="#000000" font-family="sans-serif" font-size="14" lengthAdjust="spacing" textLength="128" x="13" y="269.8857">dateDepart: Date</text><line style="stroke:#181818;stroke-width:0.5;" x1="8" x2="211" y1="277.1875" y2="277.1875"/></g><!--class Chambre--><g id="elem_Chambre"><rect codeLine="13" fill="#F1F1F1" height="64.2969" id="Chambre" rx="2.5" ry="2.5" style="stroke:#181818;stroke-width:0.5;" width="486" x="43.5" y="362.2969"/><ellipse cx="58.5" cy="378.2969" fill="#ADD1B2" rx="11" ry="11" style="stroke:#181818;stroke-width:1.0;"/><path d="M60.8438,373.9688 C59.9063,373.5313 59.3125,373.3906 58.4375,373.3906 C55.8125,373.3906 53.8125,375.4688 53.8125,378.1875 L53.8125,379.3125 C53.8125,381.8906 55.9219,383.7813 58.8125,383.7813 C60.0313,383.7813 61.1875,383.4844 61.9375,382.9375 C62.5156,382.5313 62.8438,382.0781 62.8438,381.6875 C62.8438,381.2344 62.4531,380.8438 61.9844,380.8438 C61.7656,380.8438 61.5625,380.9219 61.375,381.1094 C60.9219,381.5938 60.9219,381.5938 60.7344,381.6875 C60.3125,381.9531 59.625,382.0781 58.8594,382.0781 C56.8125,382.0781 55.5156,380.9844 55.5156,379.2813 L55.5156,378.1875 C55.5156,376.4063 56.7656,375.0938 58.5,375.0938 C59.0781,375.0938 59.6875,375.25 60.1563,375.5 C60.6406,375.7813 60.8125,376 60.9063,376.4063 C60.9688,376.8125 61,376.9375 61.1406,377.0625 C61.2813,377.2031 61.5156,377.3125 61.7344,377.3125 C62,377.3125 62.2656,377.1719 62.4375,376.9531 C62.5469,376.7969 62.5781,376.6094 62.5781,376.1875 L62.5781,374.7656 C62.5781,374.3281 62.5625,374.2031 62.4688,374.0469 C62.3125,373.7813 62.0313,373.6406 61.7344,373.6406 C61.4375,373.6406 61.2344,373.7344 61.0156,374.0469 L60.8438,373.9688 Z " fill="#000000"/><text fill="#000000" font-family="sans-serif" font-size="14" lengthAdjust="spacing" textLength="66" x="72.5" y="383.1436">Chambre</text><rect fill="#FFFFFF" height="15.9688" style="stroke:#181818;stroke-width:1.0;stroke-dasharray:2.0,2.0;" width="386" x="146.5" y="359.2969"/><text fill="#000000" font-family="sans-serif" font-size="12" font-style="italic" lengthAdjust="spacing" textLength="384" x="147.5" y="371.4355">Objet physique, Contenu dans l'hotel, Produit d'une transaction</text><line style="stroke:#181818;stroke-width:0.5;" x1="44.5" x2="528.5" y1="394.2969" y2="394.2969"/><text fill="#000000" font-family="sans-serif" font-size="14" lengthAdjust="spacing" textLength="106" x="49.5" y="411.292">numero: string</text><line style="stroke:#181818;stroke-width:0.5;" x1="44.5" x2="528.5" y1="418.5938" y2="418.5938"/></g><g id="elem_GMN5"><path d="M247.5,209.2969 L247.5,264.6953 A0,0 0 0 0 247.5,264.6953 L376.075,264.6953 L309.168,362.1038 L384.075,264.6953 L551.5,264.6953 A0,0 0 0 0 551.5,264.6953 L551.5,219.2969 L541.5,209.2969 L247.5,209.2969 A0,0 0 0 0 247.5,209.2969 " fill="#FEFFDD" style="stroke:#181818;stroke-width:0.5;"/><path d="M541.5,209.2969 L541.5,219.2969 L551.5,219.2969 L541.5,209.2969 " fill="#FEFFDD" style="stroke:#181818;stroke-width:0.5;"/><text fill="#000000" font-family="sans-serif" font-size="13" lengthAdjust="spacing" textLength="219" x="253.5" y="226.3638">La mutiplicité plusieurs à plusieurs</text><text fill="#000000" font-family="sans-serif" font-size="13" lengthAdjust="spacing" textLength="279" x="253.5" y="241.4966">implique une classe d'index ChambreSejour</text><text fill="#000000" font-family="sans-serif" font-size="13" lengthAdjust="spacing" textLength="249" x="253.5" y="256.6294">dans le diagramme de classes logiciels</text></g><!--link Reservation to Sejour--><g id="link_Reservation_Sejour"><path codeLine="17" d="M109.5,111.3909 C109.5,133.3709 109.5,163.2459 109.5,188.2109 " fill="none" id="Reservation-Sejour" style="stroke:#181818;stroke-width:1.0;"/><text fill="#000000" font-family="sans-serif" font-size="13" lengthAdjust="spacing" textLength="52" x="110.5" y="154.3638">contient</text><text fill="#000000" font-family="sans-serif" font-size="13" lengthAdjust="spacing" textLength="8" x="100.675" y="131.6071">1</text><text fill="#000000" font-family="sans-serif" font-size="13" lengthAdjust="spacing" textLength="7" x="101.9859" y="177.0579">*</text></g><!--link Sejour to Chambre--><g id="link_Sejour_Chambre"><path codeLine="18" d="M145.125,285.5739 C158.139,301.4039 173.591,318.4879 189.5,332.2969 C201.97,343.1201 216.55,353.3374 230.561,362.2038 " fill="none" id="Sejour-Chambre" style="stroke:#181818;stroke-width:1.0;"/><polygon fill="#000000" points="190.7778,320.5248,195.549,328.752,199.4736,324.3764,190.7778,320.5248" style="stroke:#000000;stroke-width:1.0;"/><text fill="#000000" font-family="sans-serif" font-size="13" lengthAdjust="spacing" textLength="121" x="203.5" y="328.3638">sont reservées par</text><text fill="#000000" font-family="sans-serif" font-size="13" lengthAdjust="spacing" textLength="7" x="142.4418" y="305.2193">*</text><text fill="#000000" font-family="sans-serif" font-size="13" lengthAdjust="spacing" textLength="7" x="211.3017" y="351.0877">*</text></g><!--SRC=[jL91Ri8m4Bpd5ICkI1MewXL5I1KSaLgL7haOieH5ZXtiDIf2_Kkll8EFTHEIbZwWFdazkpkxCnOMInD4RvEmTs37miPIjh4cHhnHf70qBPI_1-EYsJJ1z9mvF_Dkow5gqGcM4jYLsMVMbIvfxrD0lk3I4Gg2t9NZd05vd1wISS9owilpnpXLf312po7mKKURwnt_V3hAETKco8rI5t5UcSNNy5lCTgPQ1y842uDAjQejRrYk5zGsHQOK8gvVTy7ASQKvXqH8kd-hYSemP5VGHz-kqsZb2fK6Ld4sPJ1LrGfsgz5tNoeNsTXBsm-Jlwpt9AXtfzWGZQ2E2Bc4MxlXJXUm8xm6NoGM9MycaJyk0YvL5Bn-WH__xaqVF0qm7cFmCEWCdM2Z94nEicxw1kjIVbMAceJGDhfUT0SL5lat]--></g></svg>