<?xml version="1.0" encoding="UTF-8" standalone="no"?><svg xmlns="http://www.w3.org/2000/svg" xmlns:xlink="http://www.w3.org/1999/xlink" contentStyleType="text/css" height="820px" preserveAspectRatio="none" style="width:761px;height:820px;background:#FFFFFF;" version="1.1" viewBox="0 0 761 820" width="761px" zoomAndPan="magnify"><defs/><g><!--class Hotel--><g id="elem_Hotel"><rect codeLine="1" fill="#F1F1F1" height="48" id="Hotel" rx="2.5" ry="2.5" style="stroke:#181818;stroke-width:0.5;" width="244" x="192" y="10"/><ellipse cx="207" cy="26" fill="#ADD1B2" rx="11" ry="11" style="stroke:#181818;stroke-width:1.0;"/><path d="M209.3438,21.6719 C208.4063,21.2344 207.8125,21.0938 206.9375,21.0938 C204.3125,21.0938 202.3125,23.1719 202.3125,25.8906 L202.3125,27.0156 C202.3125,29.5938 204.4219,31.4844 207.3125,31.4844 C208.5313,31.4844 209.6875,31.1875 210.4375,30.6406 C211.0156,30.2344 211.3438,29.7813 211.3438,29.3906 C211.3438,28.9375 210.9531,28.5469 210.4844,28.5469 C210.2656,28.5469 210.0625,28.625 209.875,28.8125 C209.4219,29.2969 209.4219,29.2969 209.2344,29.3906 C208.8125,29.6563 208.125,29.7813 207.3594,29.7813 C205.3125,29.7813 204.0156,28.6875 204.0156,26.9844 L204.0156,25.8906 C204.0156,24.1094 205.2656,22.7969 207,22.7969 C207.5781,22.7969 208.1875,22.9531 208.6563,23.2031 C209.1406,23.4844 209.3125,23.7031 209.4063,24.1094 C209.4688,24.5156 209.5,24.6406 209.6406,24.7656 C209.7813,24.9063 210.0156,25.0156 210.2344,25.0156 C210.5,25.0156 210.7656,24.875 210.9375,24.6563 C211.0469,24.5 211.0781,24.3125 211.0781,23.8906 L211.0781,22.4688 C211.0781,22.0313 211.0625,21.9063 210.9688,21.75 C210.8125,21.4844 210.5313,21.3438 210.2344,21.3438 C209.9375,21.3438 209.7344,21.4375 209.5156,21.75 L209.3438,21.6719 Z " fill="#000000"/><text fill="#000000" font-family="sans-serif" font-size="14" lengthAdjust="spacing" textLength="39" x="221" y="30.8467">Hotel</text><rect fill="#FFFFFF" height="15.9688" style="stroke:#181818;stroke-width:1.0;stroke-dasharray:2.0,2.0;" width="171" x="268" y="7"/><text fill="#000000" font-family="sans-serif" font-size="12" font-style="italic" lengthAdjust="spacing" textLength="169" x="269" y="19.1387">Conteneur, Object physique</text><line style="stroke:#181818;stroke-width:0.5;" x1="193" x2="435" y1="42" y2="42"/><line style="stroke:#181818;stroke-width:0.5;" x1="193" x2="435" y1="50" y2="50"/></g><!--class Categorie--><g id="elem_Categorie"><rect codeLine="2" fill="#F1F1F1" height="64.2969" id="Categorie" rx="2.5" ry="2.5" style="stroke:#181818;stroke-width:0.5;" width="293" x="103.5" y="749"/><ellipse cx="118.5" cy="765" fill="#ADD1B2" rx="11" ry="11" style="stroke:#181818;stroke-width:1.0;"/><path d="M120.8438,760.6719 C119.9063,760.2344 119.3125,760.0938 118.4375,760.0938 C115.8125,760.0938 113.8125,762.1719 113.8125,764.8906 L113.8125,766.0156 C113.8125,768.5938 115.9219,770.4844 118.8125,770.4844 C120.0313,770.4844 121.1875,770.1875 121.9375,769.6406 C122.5156,769.2344 122.8438,768.7813 122.8438,768.3906 C122.8438,767.9375 122.4531,767.5469 121.9844,767.5469 C121.7656,767.5469 121.5625,767.625 121.375,767.8125 C120.9219,768.2969 120.9219,768.2969 120.7344,768.3906 C120.3125,768.6563 119.625,768.7813 118.8594,768.7813 C116.8125,768.7813 115.5156,767.6875 115.5156,765.9844 L115.5156,764.8906 C115.5156,763.1094 116.7656,761.7969 118.5,761.7969 C119.0781,761.7969 119.6875,761.9531 120.1563,762.2031 C120.6406,762.4844 120.8125,762.7031 120.9063,763.1094 C120.9688,763.5156 121,763.6406 121.1406,763.7656 C121.2813,763.9063 121.5156,764.0156 121.7344,764.0156 C122,764.0156 122.2656,763.875 122.4375,763.6563 C122.5469,763.5 122.5781,763.3125 122.5781,762.8906 L122.5781,761.4688 C122.5781,761.0313 122.5625,760.9063 122.4688,760.75 C122.3125,760.4844 122.0313,760.3438 121.7344,760.3438 C121.4375,760.3438 121.2344,760.4375 121.0156,760.75 L120.8438,760.6719 Z " fill="#000000"/><text fill="#000000" font-family="sans-serif" font-size="14" lengthAdjust="spacing" textLength="71" x="132.5" y="769.8467">Categorie</text><rect fill="#FFFFFF" height="15.9688" style="stroke:#181818;stroke-width:1.0;stroke-dasharray:2.0,2.0;" width="188" x="211.5" y="746"/><text fill="#000000" font-family="sans-serif" font-size="12" font-style="italic" lengthAdjust="spacing" textLength="186" x="212.5" y="758.1387">Description d'entité, Catalogue</text><line style="stroke:#181818;stroke-width:0.5;" x1="104.5" x2="395.5" y1="781" y2="781"/><text fill="#000000" font-family="sans-serif" font-size="14" lengthAdjust="spacing" textLength="85" x="109.5" y="797.9951">nom: String</text><line style="stroke:#181818;stroke-width:0.5;" x1="104.5" x2="395.5" y1="805.2969" y2="805.2969"/></g><!--class Reservation--><g id="elem_Reservation"><rect codeLine="5" fill="#F1F1F1" height="64.2969" id="Reservation" rx="2.5" ry="2.5" style="stroke:#181818;stroke-width:0.5;" width="192" x="558" y="293"/><ellipse cx="573" cy="309" fill="#ADD1B2" rx="11" ry="11" style="stroke:#181818;stroke-width:1.0;"/><path d="M575.3438,304.6719 C574.4063,304.2344 573.8125,304.0938 572.9375,304.0938 C570.3125,304.0938 568.3125,306.1719 568.3125,308.8906 L568.3125,310.0156 C568.3125,312.5938 570.4219,314.4844 573.3125,314.4844 C574.5313,314.4844 575.6875,314.1875 576.4375,313.6406 C577.0156,313.2344 577.3438,312.7813 577.3438,312.3906 C577.3438,311.9375 576.9531,311.5469 576.4844,311.5469 C576.2656,311.5469 576.0625,311.625 575.875,311.8125 C575.4219,312.2969 575.4219,312.2969 575.2344,312.3906 C574.8125,312.6563 574.125,312.7813 573.3594,312.7813 C571.3125,312.7813 570.0156,311.6875 570.0156,309.9844 L570.0156,308.8906 C570.0156,307.1094 571.2656,305.7969 573,305.7969 C573.5781,305.7969 574.1875,305.9531 574.6563,306.2031 C575.1406,306.4844 575.3125,306.7031 575.4063,307.1094 C575.4688,307.5156 575.5,307.6406 575.6406,307.7656 C575.7813,307.9063 576.0156,308.0156 576.2344,308.0156 C576.5,308.0156 576.7656,307.875 576.9375,307.6563 C577.0469,307.5 577.0781,307.3125 577.0781,306.8906 L577.0781,305.4688 C577.0781,305.0313 577.0625,304.9063 576.9688,304.75 C576.8125,304.4844 576.5313,304.3438 576.2344,304.3438 C575.9375,304.3438 575.7344,304.4375 575.5156,304.75 L575.3438,304.6719 Z " fill="#000000"/><text fill="#000000" font-family="sans-serif" font-size="14" lengthAdjust="spacing" textLength="86" x="587" y="313.8467">Reservation</text><rect fill="#FFFFFF" height="15.9688" style="stroke:#181818;stroke-width:1.0;stroke-dasharray:2.0,2.0;" width="72" x="681" y="290"/><text fill="#000000" font-family="sans-serif" font-size="12" font-style="italic" lengthAdjust="spacing" textLength="70" x="682" y="302.1387">Transaction</text><line style="stroke:#181818;stroke-width:0.5;" x1="559" x2="749" y1="325" y2="325"/><text fill="#000000" font-family="sans-serif" font-size="14" lengthAdjust="spacing" textLength="166" x="564" y="341.9951">noConfirmation: String</text><line style="stroke:#181818;stroke-width:0.5;" x1="559" x2="749" y1="349.2969" y2="349.2969"/></g><!--class LigneReservation--><g id="elem_LigneReservation"><rect codeLine="10" fill="#F1F1F1" height="96.8906" id="LigneReservation" rx="2.5" ry="2.5" style="stroke:#181818;stroke-width:0.5;" width="285" x="255.5" y="434"/><ellipse cx="270.5" cy="450" fill="#ADD1B2" rx="11" ry="11" style="stroke:#181818;stroke-width:1.0;"/><path d="M272.8438,445.6719 C271.9063,445.2344 271.3125,445.0938 270.4375,445.0938 C267.8125,445.0938 265.8125,447.1719 265.8125,449.8906 L265.8125,451.0156 C265.8125,453.5938 267.9219,455.4844 270.8125,455.4844 C272.0313,455.4844 273.1875,455.1875 273.9375,454.6406 C274.5156,454.2344 274.8438,453.7813 274.8438,453.3906 C274.8438,452.9375 274.4531,452.5469 273.9844,452.5469 C273.7656,452.5469 273.5625,452.625 273.375,452.8125 C272.9219,453.2969 272.9219,453.2969 272.7344,453.3906 C272.3125,453.6563 271.625,453.7813 270.8594,453.7813 C268.8125,453.7813 267.5156,452.6875 267.5156,450.9844 L267.5156,449.8906 C267.5156,448.1094 268.7656,446.7969 270.5,446.7969 C271.0781,446.7969 271.6875,446.9531 272.1563,447.2031 C272.6406,447.4844 272.8125,447.7031 272.9063,448.1094 C272.9688,448.5156 273,448.6406 273.1406,448.7656 C273.2813,448.9063 273.5156,449.0156 273.7344,449.0156 C274,449.0156 274.2656,448.875 274.4375,448.6563 C274.5469,448.5 274.5781,448.3125 274.5781,447.8906 L274.5781,446.4688 C274.5781,446.0313 274.5625,445.9063 274.4688,445.75 C274.3125,445.4844 274.0313,445.3438 273.7344,445.3438 C273.4375,445.3438 273.2344,445.4375 273.0156,445.75 L272.8438,445.6719 Z " fill="#000000"/><text fill="#000000" font-family="sans-serif" font-size="14" lengthAdjust="spacing" textLength="125" x="284.5" y="454.8467">LigneReservation</text><rect fill="#FFFFFF" height="15.9688" style="stroke:#181818;stroke-width:1.0;stroke-dasharray:2.0,2.0;" width="126" x="417.5" y="431"/><text fill="#000000" font-family="sans-serif" font-size="12" font-style="italic" lengthAdjust="spacing" textLength="124" x="418.5" y="443.1387">Ligne de transaction</text><line style="stroke:#181818;stroke-width:0.5;" x1="256.5" x2="539.5" y1="466" y2="466"/><text fill="#000000" font-family="sans-serif" font-size="14" lengthAdjust="spacing" text-decoration="line-through" textLength="113" x="261.5" y="482.9951">quantity: String</text><text fill="#000000" font-family="sans-serif" font-size="14" lengthAdjust="spacing" textLength="120" x="261.5" y="499.292">dateArrive: Date</text><text fill="#000000" font-family="sans-serif" font-size="14" lengthAdjust="spacing" textLength="128" x="261.5" y="515.5889">dateDepart: Date</text><line style="stroke:#181818;stroke-width:0.5;" x1="256.5" x2="539.5" y1="522.8906" y2="522.8906"/></g><g id="elem_GMN6"><path d="M273,297.5 L273,352.8984 A0,0 0 0 0 273,352.8984 L394,352.8984 L398,433.788 L402,352.8984 L523,352.8984 A0,0 0 0 0 523,352.8984 L523,307.5 L513,297.5 L273,297.5 A0,0 0 0 0 273,297.5 " fill="#FEFFDD" style="stroke:#181818;stroke-width:0.5;"/><path d="M513,297.5 L513,307.5 L523,307.5 L513,297.5 " fill="#FEFFDD" style="stroke:#181818;stroke-width:0.5;"/><text fill="#000000" font-family="sans-serif" font-size="13" lengthAdjust="spacing" textLength="163" x="279" y="314.5669">La quantité et représenté</text><text fill="#000000" font-family="sans-serif" font-size="13" lengthAdjust="spacing" textLength="211" x="279" y="329.6997">par la multiplicité de l'association</text><text fill="#000000" font-family="sans-serif" font-size="13" lengthAdjust="spacing" textLength="229" x="279" y="344.8325">entre LigneReservation et Chambre</text></g><!--class Commis--><g id="elem_Commis"><rect codeLine="15" fill="#F1F1F1" height="48" id="Commis" rx="2.5" ry="2.5" style="stroke:#181818;stroke-width:0.5;" width="119" x="594.5" y="151.5"/><ellipse cx="609.5" cy="167.5" fill="#ADD1B2" rx="11" ry="11" style="stroke:#181818;stroke-width:1.0;"/><path d="M611.8438,163.1719 C610.9063,162.7344 610.3125,162.5938 609.4375,162.5938 C606.8125,162.5938 604.8125,164.6719 604.8125,167.3906 L604.8125,168.5156 C604.8125,171.0938 606.9219,172.9844 609.8125,172.9844 C611.0313,172.9844 612.1875,172.6875 612.9375,172.1406 C613.5156,171.7344 613.8438,171.2813 613.8438,170.8906 C613.8438,170.4375 613.4531,170.0469 612.9844,170.0469 C612.7656,170.0469 612.5625,170.125 612.375,170.3125 C611.9219,170.7969 611.9219,170.7969 611.7344,170.8906 C611.3125,171.1563 610.625,171.2813 609.8594,171.2813 C607.8125,171.2813 606.5156,170.1875 606.5156,168.4844 L606.5156,167.3906 C606.5156,165.6094 607.7656,164.2969 609.5,164.2969 C610.0781,164.2969 610.6875,164.4531 611.1563,164.7031 C611.6406,164.9844 611.8125,165.2031 611.9063,165.6094 C611.9688,166.0156 612,166.1406 612.1406,166.2656 C612.2813,166.4063 612.5156,166.5156 612.7344,166.5156 C613,166.5156 613.2656,166.375 613.4375,166.1563 C613.5469,166 613.5781,165.8125 613.5781,165.3906 L613.5781,163.9688 C613.5781,163.5313 613.5625,163.4063 613.4688,163.25 C613.3125,162.9844 613.0313,162.8438 612.7344,162.8438 C612.4375,162.8438 612.2344,162.9375 612.0156,163.25 L611.8438,163.1719 Z " fill="#000000"/><text fill="#000000" font-family="sans-serif" font-size="14" lengthAdjust="spacing" textLength="58" x="623.5" y="172.3467">Commis</text><rect fill="#FFFFFF" height="15.9688" style="stroke:#181818;stroke-width:1.0;stroke-dasharray:2.0,2.0;" width="27" x="689.5" y="148.5"/><text fill="#000000" font-family="sans-serif" font-size="12" font-style="italic" lengthAdjust="spacing" textLength="25" x="690.5" y="160.6387">Role</text><line style="stroke:#181818;stroke-width:0.5;" x1="595.5" x2="712.5" y1="183.5" y2="183.5"/><line style="stroke:#181818;stroke-width:0.5;" x1="595.5" x2="712.5" y1="191.5" y2="191.5"/></g><!--class Chambre--><g id="elem_Chambre"><rect codeLine="16" fill="#F1F1F1" height="64.2969" id="Chambre" rx="2.5" ry="2.5" style="stroke:#181818;stroke-width:0.5;" width="486" x="7" y="608"/><ellipse cx="22" cy="624" fill="#ADD1B2" rx="11" ry="11" style="stroke:#181818;stroke-width:1.0;"/><path d="M24.3438,619.6719 C23.4063,619.2344 22.8125,619.0938 21.9375,619.0938 C19.3125,619.0938 17.3125,621.1719 17.3125,623.8906 L17.3125,625.0156 C17.3125,627.5938 19.4219,629.4844 22.3125,629.4844 C23.5313,629.4844 24.6875,629.1875 25.4375,628.6406 C26.0156,628.2344 26.3438,627.7813 26.3438,627.3906 C26.3438,626.9375 25.9531,626.5469 25.4844,626.5469 C25.2656,626.5469 25.0625,626.625 24.875,626.8125 C24.4219,627.2969 24.4219,627.2969 24.2344,627.3906 C23.8125,627.6563 23.125,627.7813 22.3594,627.7813 C20.3125,627.7813 19.0156,626.6875 19.0156,624.9844 L19.0156,623.8906 C19.0156,622.1094 20.2656,620.7969 22,620.7969 C22.5781,620.7969 23.1875,620.9531 23.6563,621.2031 C24.1406,621.4844 24.3125,621.7031 24.4063,622.1094 C24.4688,622.5156 24.5,622.6406 24.6406,622.7656 C24.7813,622.9063 25.0156,623.0156 25.2344,623.0156 C25.5,623.0156 25.7656,622.875 25.9375,622.6563 C26.0469,622.5 26.0781,622.3125 26.0781,621.8906 L26.0781,620.4688 C26.0781,620.0313 26.0625,619.9063 25.9688,619.75 C25.8125,619.4844 25.5313,619.3438 25.2344,619.3438 C24.9375,619.3438 24.7344,619.4375 24.5156,619.75 L24.3438,619.6719 Z " fill="#000000"/><text fill="#000000" font-family="sans-serif" font-size="14" lengthAdjust="spacing" textLength="66" x="36" y="628.8467">Chambre</text><rect fill="#FFFFFF" height="15.9688" style="stroke:#181818;stroke-width:1.0;stroke-dasharray:2.0,2.0;" width="386" x="110" y="605"/><text fill="#000000" font-family="sans-serif" font-size="12" font-style="italic" lengthAdjust="spacing" textLength="384" x="111" y="617.1387">Objet physique, Contenu dans l'hotel, Produit d'une transaction</text><line style="stroke:#181818;stroke-width:0.5;" x1="8" x2="492" y1="640" y2="640"/><text fill="#000000" font-family="sans-serif" font-size="14" lengthAdjust="spacing" textLength="106" x="13" y="656.9951">numero: string</text><line style="stroke:#181818;stroke-width:0.5;" x1="8" x2="492" y1="664.2969" y2="664.2969"/></g><!--class Client--><g id="elem_Client"><rect codeLine="19" fill="#F1F1F1" height="80.5938" id="Client" rx="2.5" ry="2.5" style="stroke:#181818;stroke-width:0.5;" width="138" x="421" y="135"/><ellipse cx="451.3" cy="151" fill="#ADD1B2" rx="11" ry="11" style="stroke:#181818;stroke-width:1.0;"/><path d="M453.6438,146.6719 C452.7063,146.2344 452.1125,146.0938 451.2375,146.0938 C448.6125,146.0938 446.6125,148.1719 446.6125,150.8906 L446.6125,152.0156 C446.6125,154.5938 448.7219,156.4844 451.6125,156.4844 C452.8313,156.4844 453.9875,156.1875 454.7375,155.6406 C455.3156,155.2344 455.6438,154.7813 455.6438,154.3906 C455.6438,153.9375 455.2531,153.5469 454.7844,153.5469 C454.5656,153.5469 454.3625,153.625 454.175,153.8125 C453.7219,154.2969 453.7219,154.2969 453.5344,154.3906 C453.1125,154.6563 452.425,154.7813 451.6594,154.7813 C449.6125,154.7813 448.3156,153.6875 448.3156,151.9844 L448.3156,150.8906 C448.3156,149.1094 449.5656,147.7969 451.3,147.7969 C451.8781,147.7969 452.4875,147.9531 452.9563,148.2031 C453.4406,148.4844 453.6125,148.7031 453.7063,149.1094 C453.7688,149.5156 453.8,149.6406 453.9406,149.7656 C454.0813,149.9063 454.3156,150.0156 454.5344,150.0156 C454.8,150.0156 455.0656,149.875 455.2375,149.6563 C455.3469,149.5 455.3781,149.3125 455.3781,148.8906 L455.3781,147.4688 C455.3781,147.0313 455.3625,146.9063 455.2688,146.75 C455.1125,146.4844 454.8313,146.3438 454.5344,146.3438 C454.2375,146.3438 454.0344,146.4375 453.8156,146.75 L453.6438,146.6719 Z " fill="#000000"/><text fill="#000000" font-family="sans-serif" font-size="14" lengthAdjust="spacing" textLength="43" x="468.7" y="155.8467">Client</text><rect fill="#FFFFFF" height="15.9688" style="stroke:#181818;stroke-width:1.0;stroke-dasharray:2.0,2.0;" width="27" x="535" y="132"/><text fill="#000000" font-family="sans-serif" font-size="12" font-style="italic" lengthAdjust="spacing" textLength="25" x="536" y="144.1387">Role</text><line style="stroke:#181818;stroke-width:0.5;" x1="422" x2="558" y1="167" y2="167"/><text fill="#000000" font-family="sans-serif" font-size="14" lengthAdjust="spacing" textLength="83" x="427" y="183.9951">nom: string</text><text fill="#000000" font-family="sans-serif" font-size="14" lengthAdjust="spacing" textLength="126" x="427" y="200.292">telephone: string</text><line style="stroke:#181818;stroke-width:0.5;" x1="422" x2="558" y1="207.5938" y2="207.5938"/></g><!--link Hotel to Chambre--><g id="link_Hotel_Chambre"><path codeLine="24" d="M269.679,58.191 C231.331,81.803 182,122.319 182,174.5 C182,174.5 182,174.5 182,483.5 C182,529.76 207.576,577.765 227.357,607.975 " fill="none" id="Hotel-Chambre" style="stroke:#181818;stroke-width:1.0;"/><text fill="#000000" font-family="sans-serif" font-size="13" lengthAdjust="spacing" textLength="54" x="183" y="329.5669">possède</text><text fill="#000000" font-family="sans-serif" font-size="13" lengthAdjust="spacing" textLength="8" x="249.9008" y="77.9988">1</text><text fill="#000000" font-family="sans-serif" font-size="13" lengthAdjust="spacing" textLength="7" x="214.965" y="596.8729">*</text></g><!--link Chambre to Categorie--><g id="link_Chambre_Categorie"><path codeLine="25" d="M250,672.194 C250,695.087 250,726.0421 250,748.9098 " fill="none" id="Chambre-Categorie" style="stroke:#181818;stroke-width:1.0;"/><text fill="#000000" font-family="sans-serif" font-size="13" lengthAdjust="spacing" textLength="66" x="251" y="715.0669">appartient</text><text fill="#000000" font-family="sans-serif" font-size="13" lengthAdjust="spacing" textLength="7" x="242.2781" y="692.4309">*</text><text fill="#000000" font-family="sans-serif" font-size="13" lengthAdjust="spacing" textLength="8" x="241.175" y="737.7943">1</text></g><!--link Client to Reservation--><g id="link_Client_Reservation"><path codeLine="26" d="M531.806,216.039 C547.706,230.904 566.068,247.863 583,263 C594.025,272.856 606.183,283.413 617.276,292.927 " fill="none" id="Client-Reservation" style="stroke:#181818;stroke-width:1.0;"/><text fill="#000000" font-family="sans-serif" font-size="13" lengthAdjust="spacing" textLength="61" x="584" y="259.0669">demande</text><text fill="#000000" font-family="sans-serif" font-size="13" lengthAdjust="spacing" textLength="8" x="529.8313" y="235.8051">1</text><text fill="#000000" font-family="sans-serif" font-size="13" lengthAdjust="spacing" textLength="8" x="600.8767" y="281.815">1</text></g><!--link Commis to Reservation--><g id="link_Commis_Reservation"><path codeLine="27" d="M654,199.547 C654,224.664 654,264.99 654,292.899 " fill="none" id="Commis-Reservation" style="stroke:#181818;stroke-width:1.0;"/><text fill="#000000" font-family="sans-serif" font-size="13" lengthAdjust="spacing" textLength="28" x="655" y="259.0669">cree</text><text fill="#000000" font-family="sans-serif" font-size="13" lengthAdjust="spacing" textLength="8" x="644.975" y="219.7148">1</text><text fill="#000000" font-family="sans-serif" font-size="13" lengthAdjust="spacing" textLength="7" x="646.2781" y="281.7813">*</text></g><!--link Reservation to LigneReservation--><g id="link_Reservation_LigneReservation"><path codeLine="28" d="M602.81,357.094 C566.623,379.074 517.44,408.949 476.341,433.914 " fill="none" id="Reservation-LigneReservation" style="stroke:#181818;stroke-width:1.0;"/><text fill="#000000" font-family="sans-serif" font-size="13" lengthAdjust="spacing" textLength="52" x="550" y="400.0669">contient</text><text fill="#000000" font-family="sans-serif" font-size="13" lengthAdjust="spacing" textLength="8" x="583.4271" y="377.3102">1</text><text fill="#000000" font-family="sans-serif" font-size="13" lengthAdjust="spacing" textLength="7" x="480.3333" y="422.761">*</text></g><!--link Hotel to Commis--><g id="link_Hotel_Commis"><path codeLine="29" d="M380.18,58.097 C433.62,77.263 510.443,105.984 576,135 C587.243,139.976 599.18,145.758 610.246,151.337 " fill="none" id="Hotel-Commis" style="stroke:#181818;stroke-width:1.0;"/><text fill="#000000" font-family="sans-serif" font-size="13" lengthAdjust="spacing" textLength="51" x="499" y="101.0669">Emploie</text><text fill="#000000" font-family="sans-serif" font-size="13" lengthAdjust="spacing" textLength="8" x="387.3364" y="77.8818">1</text><text fill="#000000" font-family="sans-serif" font-size="13" lengthAdjust="spacing" textLength="7" x="591.1372" y="140.3073">*</text></g><!--link LigneReservation to Chambre--><g id="link_LigneReservation_Chambre"><path codeLine="31" d="M352.791,531 C328.989,556.008 300.478,585.964 279.528,607.976 " fill="none" id="LigneReservation-Chambre" style="stroke:#181818;stroke-width:1.0;"/><polygon fill="#000000" points="332.4471,565.9446,324.0824,570.4704,328.3401,574.5227,332.4471,565.9446" style="stroke:#000000;stroke-width:1.0;"/><text fill="#000000" font-family="sans-serif" font-size="13" lengthAdjust="spacing" textLength="121" x="338" y="574.0669">sont reservées par</text><text fill="#000000" font-family="sans-serif" font-size="13" lengthAdjust="spacing" textLength="8" x="337.871" y="550.9589">1</text><text fill="#000000" font-family="sans-serif" font-size="13" lengthAdjust="spacing" textLength="7" x="277.8963" y="596.8742">*</text></g><!--SRC=[jLB1Qjmm4BthAuQz1CA6qgiH2y5Rw27GalQOYs9FTbKaZJAI0o7aVxhViJ_MaUpDUkDpVR5blNdpvithd4a9lbD61xgba37Wm6luyVW7kmnn_vhiyu0RrLLWQpBkY2s2tcBgsCPiAK1_XI7RV3oi2y8usaa9l2c0GBw1NvbjsAdtYUGU4_ABgPNwDvkGJ5SEcpSLI3GyMVRrTbOfDnaXKmHwWZkx2pXdQU3EmFDWHX606HWZ7mz9PCdv8KJ3u0pumMKRdUqgh4TmLoA8Ebjf7eB06PVqmjVkZNzad2PO87JzKnZpR9xgW4wRITdhQHxz9MtafXSpRvdj2pQmbM_upy_KSelYHXvRVkoa9Uzj0drFxhpiSMRG9GpdBCYEQqu6OGj9BDoNzApX9rC_s2nX6CAb3pK8WqUc1j9b5bfdnVIfxpan4mf0c37kAU2iKernNNrTmSqDhAvN9wKDH4hf-BT7TT9URWj8i1_PRS34Oa7fh2O19p9vpVRQo4Qz2OLlz6VMymBMCQAQ1s86_1mMGOj_jVboaB5D0zzyT6HHgKNKbcCBF0cZPBwWZWTCKFAk_m40]--></g></svg>