<?xml version="1.0" encoding="UTF-8" standalone="no"?><svg xmlns="http://www.w3.org/2000/svg" xmlns:xlink="http://www.w3.org/1999/xlink" contentStyleType="text/css" height="385px" preserveAspectRatio="none" style="width:562px;height:385px;background:#FFFFFF;" version="1.1" viewBox="0 0 562 385" width="562px" zoomAndPan="magnify"><defs/><g><text fill="#000000" font-family="sans-serif" font-size="14" font-weight="bold" lengthAdjust="spacing" textLength="314" x="117.25" y="22.9951">Solution avec une classe d'association</text><!--class Reservation--><g id="elem_Reservation"><rect codeLine="2" fill="#F1F1F1" height="64.2969" id="Reservation" rx="2.5" ry="2.5" style="stroke:#181818;stroke-width:0.5;" width="192" x="150" y="47.2969"/><ellipse cx="165" cy="63.2969" fill="#ADD1B2" rx="11" ry="11" style="stroke:#181818;stroke-width:1.0;"/><path d="M167.3438,58.9688 C166.4063,58.5313 165.8125,58.3906 164.9375,58.3906 C162.3125,58.3906 160.3125,60.4688 160.3125,63.1875 L160.3125,64.3125 C160.3125,66.8906 162.4219,68.7813 165.3125,68.7813 C166.5313,68.7813 167.6875,68.4844 168.4375,67.9375 C169.0156,67.5313 169.3438,67.0781 169.3438,66.6875 C169.3438,66.2344 168.9531,65.8438 168.4844,65.8438 C168.2656,65.8438 168.0625,65.9219 167.875,66.1094 C167.4219,66.5938 167.4219,66.5938 167.2344,66.6875 C166.8125,66.9531 166.125,67.0781 165.3594,67.0781 C163.3125,67.0781 162.0156,65.9844 162.0156,64.2813 L162.0156,63.1875 C162.0156,61.4063 163.2656,60.0938 165,60.0938 C165.5781,60.0938 166.1875,60.25 166.6563,60.5 C167.1406,60.7813 167.3125,61 167.4063,61.4063 C167.4688,61.8125 167.5,61.9375 167.6406,62.0625 C167.7813,62.2031 168.0156,62.3125 168.2344,62.3125 C168.5,62.3125 168.7656,62.1719 168.9375,61.9531 C169.0469,61.7969 169.0781,61.6094 169.0781,61.1875 L169.0781,59.7656 C169.0781,59.3281 169.0625,59.2031 168.9688,59.0469 C168.8125,58.7813 168.5313,58.6406 168.2344,58.6406 C167.9375,58.6406 167.7344,58.7344 167.5156,59.0469 L167.3438,58.9688 Z " fill="#000000"/><text fill="#000000" font-family="sans-serif" font-size="14" lengthAdjust="spacing" textLength="86" x="179" y="68.1436">Reservation</text><rect fill="#FFFFFF" height="15.9688" style="stroke:#181818;stroke-width:1.0;stroke-dasharray:2.0,2.0;" width="72" x="273" y="44.2969"/><text fill="#000000" font-family="sans-serif" font-size="12" font-style="italic" lengthAdjust="spacing" textLength="70" x="274" y="56.4355">Transaction</text><line style="stroke:#181818;stroke-width:0.5;" x1="151" x2="341" y1="79.2969" y2="79.2969"/><text fill="#000000" font-family="sans-serif" font-size="14" lengthAdjust="spacing" textLength="166" x="156" y="96.292">noConfirmation: String</text><line style="stroke:#181818;stroke-width:0.5;" x1="151" x2="341" y1="103.5938" y2="103.5938"/></g><!--class Sejour--><g id="elem_Sejour"><rect codeLine="7" fill="#F1F1F1" height="80.5938" id="Sejour" rx="2.5" ry="2.5" style="stroke:#181818;stroke-width:0.5;" width="205" x="346.5" y="172.2969"/><ellipse cx="361.5" cy="188.2969" fill="#ADD1B2" rx="11" ry="11" style="stroke:#181818;stroke-width:1.0;"/><path d="M363.8438,183.9688 C362.9063,183.5313 362.3125,183.3906 361.4375,183.3906 C358.8125,183.3906 356.8125,185.4688 356.8125,188.1875 L356.8125,189.3125 C356.8125,191.8906 358.9219,193.7813 361.8125,193.7813 C363.0313,193.7813 364.1875,193.4844 364.9375,192.9375 C365.5156,192.5313 365.8438,192.0781 365.8438,191.6875 C365.8438,191.2344 365.4531,190.8438 364.9844,190.8438 C364.7656,190.8438 364.5625,190.9219 364.375,191.1094 C363.9219,191.5938 363.9219,191.5938 363.7344,191.6875 C363.3125,191.9531 362.625,192.0781 361.8594,192.0781 C359.8125,192.0781 358.5156,190.9844 358.5156,189.2813 L358.5156,188.1875 C358.5156,186.4063 359.7656,185.0938 361.5,185.0938 C362.0781,185.0938 362.6875,185.25 363.1563,185.5 C363.6406,185.7813 363.8125,186 363.9063,186.4063 C363.9688,186.8125 364,186.9375 364.1406,187.0625 C364.2813,187.2031 364.5156,187.3125 364.7344,187.3125 C365,187.3125 365.2656,187.1719 365.4375,186.9531 C365.5469,186.7969 365.5781,186.6094 365.5781,186.1875 L365.5781,184.7656 C365.5781,184.3281 365.5625,184.2031 365.4688,184.0469 C365.3125,183.7813 365.0313,183.6406 364.7344,183.6406 C364.4375,183.6406 364.2344,183.7344 364.0156,184.0469 L363.8438,183.9688 Z " fill="#000000"/><text fill="#000000" font-family="sans-serif" font-size="14" lengthAdjust="spacing" textLength="45" x="375.5" y="193.1436">Sejour</text><rect fill="#FFFFFF" height="15.9688" style="stroke:#181818;stroke-width:1.0;stroke-dasharray:2.0,2.0;" width="126" x="428.5" y="169.2969"/><text fill="#000000" font-family="sans-serif" font-size="12" font-style="italic" lengthAdjust="spacing" textLength="124" x="429.5" y="181.4355">Ligne de transaction</text><line style="stroke:#181818;stroke-width:0.5;" x1="347.5" x2="550.5" y1="204.2969" y2="204.2969"/><text fill="#000000" font-family="sans-serif" font-size="14" lengthAdjust="spacing" textLength="120" x="352.5" y="221.292">dateArrive: Date</text><text fill="#000000" font-family="sans-serif" font-size="14" lengthAdjust="spacing" textLength="128" x="352.5" y="237.5889">dateDepart: Date</text><line style="stroke:#181818;stroke-width:0.5;" x1="347.5" x2="550.5" y1="244.8906" y2="244.8906"/></g><g id="elem_GMN4"><path d="M377,66.7969 L377,91.9297 A0,0 0 0 0 377,91.9297 L447.734,91.9297 L449.901,172.2929 L455.734,91.9297 L527,91.9297 A0,0 0 0 0 527,91.9297 L527,76.7969 L517,66.7969 L377,66.7969 A0,0 0 0 0 377,66.7969 " fill="#FEFFDD" style="stroke:#181818;stroke-width:0.5;"/><path d="M517,66.7969 L517,76.7969 L527,76.7969 L517,66.7969 " fill="#FEFFDD" style="stroke:#181818;stroke-width:0.5;"/><text fill="#000000" font-family="sans-serif" font-size="13" lengthAdjust="spacing" textLength="129" x="383" y="83.8638">Classe d'association</text></g><!--class Chambre--><g id="elem_Chambre"><rect codeLine="12" fill="#F1F1F1" height="64.2969" id="Chambre" rx="2.5" ry="2.5" style="stroke:#181818;stroke-width:0.5;" width="486" x="7" y="314.2969"/><ellipse cx="22" cy="330.2969" fill="#ADD1B2" rx="11" ry="11" style="stroke:#181818;stroke-width:1.0;"/><path d="M24.3438,325.9688 C23.4063,325.5313 22.8125,325.3906 21.9375,325.3906 C19.3125,325.3906 17.3125,327.4688 17.3125,330.1875 L17.3125,331.3125 C17.3125,333.8906 19.4219,335.7813 22.3125,335.7813 C23.5313,335.7813 24.6875,335.4844 25.4375,334.9375 C26.0156,334.5313 26.3438,334.0781 26.3438,333.6875 C26.3438,333.2344 25.9531,332.8438 25.4844,332.8438 C25.2656,332.8438 25.0625,332.9219 24.875,333.1094 C24.4219,333.5938 24.4219,333.5938 24.2344,333.6875 C23.8125,333.9531 23.125,334.0781 22.3594,334.0781 C20.3125,334.0781 19.0156,332.9844 19.0156,331.2813 L19.0156,330.1875 C19.0156,328.4063 20.2656,327.0938 22,327.0938 C22.5781,327.0938 23.1875,327.25 23.6563,327.5 C24.1406,327.7813 24.3125,328 24.4063,328.4063 C24.4688,328.8125 24.5,328.9375 24.6406,329.0625 C24.7813,329.2031 25.0156,329.3125 25.2344,329.3125 C25.5,329.3125 25.7656,329.1719 25.9375,328.9531 C26.0469,328.7969 26.0781,328.6094 26.0781,328.1875 L26.0781,326.7656 C26.0781,326.3281 26.0625,326.2031 25.9688,326.0469 C25.8125,325.7813 25.5313,325.6406 25.2344,325.6406 C24.9375,325.6406 24.7344,325.7344 24.5156,326.0469 L24.3438,325.9688 Z " fill="#000000"/><text fill="#000000" font-family="sans-serif" font-size="14" lengthAdjust="spacing" textLength="66" x="36" y="335.1436">Chambre</text><rect fill="#FFFFFF" height="15.9688" style="stroke:#181818;stroke-width:1.0;stroke-dasharray:2.0,2.0;" width="386" x="110" y="311.2969"/><text fill="#000000" font-family="sans-serif" font-size="12" font-style="italic" lengthAdjust="spacing" textLength="384" x="111" y="323.4355">Objet physique, Contenu dans l'hotel, Produit d'une transaction</text><line style="stroke:#181818;stroke-width:0.5;" x1="8" x2="492" y1="346.2969" y2="346.2969"/><text fill="#000000" font-family="sans-serif" font-size="14" lengthAdjust="spacing" textLength="106" x="13" y="363.292">numero: string</text><line style="stroke:#181818;stroke-width:0.5;" x1="8" x2="492" y1="370.5938" y2="370.5938"/></g><ellipse cx="250" cy="212.7969" fill="#181818" rx="2" ry="2" style="stroke:#181818;stroke-width:1.0;"/><!--link Reservation to apoint8--><g id="link_Reservation_apoint8"><path d="M246.948,111.4609 C248.038,147.3089 249.712,202.3329 249.967,210.7119 " fill="none" id="Reservation-apoint8" style="stroke:#181818;stroke-width:1.0;"/></g><!--link apoint8 to Chambre--><g id="link_apoint8_Chambre"><path d="M250,215.2739 C250,224.8389 250,278.7386 250,314.0707 " fill="none" id="apoint8-Chambre" style="stroke:#181818;stroke-width:1.0;"/></g><!--link apoint8 to Sejour--><g id="link_apoint8_Sejour"><path d="M252.235,212.7969 C262.184,212.7969 303.827,212.7969 346.258,212.7969 " fill="none" id="apoint8-Sejour" style="stroke:#181818;stroke-width:1.0;stroke-dasharray:7.0,7.0;"/><text fill="#000000" font-family="sans-serif" font-size="13" lengthAdjust="spacing" textLength="52" x="273.25" y="205.8638">contient</text></g><!--SRC=[jP11QiCm44NtEiNVfGNJ0nXJACwoqD3q0eeyYHLaoHsD32NqxXtR8QIBBgkDfFaQ_JzFl0IgiK-XY4yHTYA74Waks9m9tKQtvBoTLRCKyKwPU5egQ3xOncpTV7c-c9ZQ58-UXqNLVuLzF9bleueG98r8H-pfd0hNQF_sM9-WUVKd3TDfwvqFBWRehD0Bivyq_bRF-ETrjTpIQ5bMotckDMxRs-70XERjS2R1s7zb_rceWk8GYaLROqROz4eXLDXnweeNdNn6BRyG0h4CnAb6li5xk4DUNRqUyNG3wTJ5KvGV]--></g></svg>