<?xml version="1.0" encoding="UTF-8" standalone="no"?><svg xmlns="http://www.w3.org/2000/svg" xmlns:xlink="http://www.w3.org/1999/xlink" contentStyleType="text/css" height="820px" preserveAspectRatio="none" style="width:873px;height:820px;background:#FFFFFF;" version="1.1" viewBox="0 0 873 820" width="873px" zoomAndPan="magnify"><defs/><g><!--class Hotel--><g id="elem_Hotel"><rect codeLine="1" fill="#F1F1F1" height="48" id="Hotel" rx="2.5" ry="2.5" style="stroke:#181818;stroke-width:0.5;" width="244" x="304.5" y="10"/><ellipse cx="319.5" cy="26" fill="#ADD1B2" rx="11" ry="11" style="stroke:#181818;stroke-width:1.0;"/><path d="M321.8438,21.6719 C320.9063,21.2344 320.3125,21.0938 319.4375,21.0938 C316.8125,21.0938 314.8125,23.1719 314.8125,25.8906 L314.8125,27.0156 C314.8125,29.5938 316.9219,31.4844 319.8125,31.4844 C321.0313,31.4844 322.1875,31.1875 322.9375,30.6406 C323.5156,30.2344 323.8438,29.7813 323.8438,29.3906 C323.8438,28.9375 323.4531,28.5469 322.9844,28.5469 C322.7656,28.5469 322.5625,28.625 322.375,28.8125 C321.9219,29.2969 321.9219,29.2969 321.7344,29.3906 C321.3125,29.6563 320.625,29.7813 319.8594,29.7813 C317.8125,29.7813 316.5156,28.6875 316.5156,26.9844 L316.5156,25.8906 C316.5156,24.1094 317.7656,22.7969 319.5,22.7969 C320.0781,22.7969 320.6875,22.9531 321.1563,23.2031 C321.6406,23.4844 321.8125,23.7031 321.9063,24.1094 C321.9688,24.5156 322,24.6406 322.1406,24.7656 C322.2813,24.9063 322.5156,25.0156 322.7344,25.0156 C323,25.0156 323.2656,24.875 323.4375,24.6563 C323.5469,24.5 323.5781,24.3125 323.5781,23.8906 L323.5781,22.4688 C323.5781,22.0313 323.5625,21.9063 323.4688,21.75 C323.3125,21.4844 323.0313,21.3438 322.7344,21.3438 C322.4375,21.3438 322.2344,21.4375 322.0156,21.75 L321.8438,21.6719 Z " fill="#000000"/><text fill="#000000" font-family="sans-serif" font-size="14" lengthAdjust="spacing" textLength="39" x="333.5" y="30.8467">Hotel</text><rect fill="#FFFFFF" height="15.9688" style="stroke:#181818;stroke-width:1.0;stroke-dasharray:2.0,2.0;" width="171" x="380.5" y="7"/><text fill="#000000" font-family="sans-serif" font-size="12" font-style="italic" lengthAdjust="spacing" textLength="169" x="381.5" y="19.1387">Conteneur, Object physique</text><line style="stroke:#181818;stroke-width:0.5;" x1="305.5" x2="547.5" y1="42" y2="42"/><line style="stroke:#181818;stroke-width:0.5;" x1="305.5" x2="547.5" y1="50" y2="50"/></g><!--class Categorie--><g id="elem_Categorie"><rect codeLine="2" fill="#F1F1F1" height="64.2969" id="Categorie" rx="2.5" ry="2.5" style="stroke:#181818;stroke-width:0.5;" width="293" x="7" y="749"/><ellipse cx="22" cy="765" fill="#ADD1B2" rx="11" ry="11" style="stroke:#181818;stroke-width:1.0;"/><path d="M24.3438,760.6719 C23.4063,760.2344 22.8125,760.0938 21.9375,760.0938 C19.3125,760.0938 17.3125,762.1719 17.3125,764.8906 L17.3125,766.0156 C17.3125,768.5938 19.4219,770.4844 22.3125,770.4844 C23.5313,770.4844 24.6875,770.1875 25.4375,769.6406 C26.0156,769.2344 26.3438,768.7813 26.3438,768.3906 C26.3438,767.9375 25.9531,767.5469 25.4844,767.5469 C25.2656,767.5469 25.0625,767.625 24.875,767.8125 C24.4219,768.2969 24.4219,768.2969 24.2344,768.3906 C23.8125,768.6563 23.125,768.7813 22.3594,768.7813 C20.3125,768.7813 19.0156,767.6875 19.0156,765.9844 L19.0156,764.8906 C19.0156,763.1094 20.2656,761.7969 22,761.7969 C22.5781,761.7969 23.1875,761.9531 23.6563,762.2031 C24.1406,762.4844 24.3125,762.7031 24.4063,763.1094 C24.4688,763.5156 24.5,763.6406 24.6406,763.7656 C24.7813,763.9063 25.0156,764.0156 25.2344,764.0156 C25.5,764.0156 25.7656,763.875 25.9375,763.6563 C26.0469,763.5 26.0781,763.3125 26.0781,762.8906 L26.0781,761.4688 C26.0781,761.0313 26.0625,760.9063 25.9688,760.75 C25.8125,760.4844 25.5313,760.3438 25.2344,760.3438 C24.9375,760.3438 24.7344,760.4375 24.5156,760.75 L24.3438,760.6719 Z " fill="#000000"/><text fill="#000000" font-family="sans-serif" font-size="14" lengthAdjust="spacing" textLength="71" x="36" y="769.8467">Categorie</text><rect fill="#FFFFFF" height="15.9688" style="stroke:#181818;stroke-width:1.0;stroke-dasharray:2.0,2.0;" width="188" x="115" y="746"/><text fill="#000000" font-family="sans-serif" font-size="12" font-style="italic" lengthAdjust="spacing" textLength="186" x="116" y="758.1387">Description d'entité, Catalogue</text><line style="stroke:#181818;stroke-width:0.5;" x1="8" x2="299" y1="781" y2="781"/><text fill="#000000" font-family="sans-serif" font-size="14" lengthAdjust="spacing" textLength="85" x="13" y="797.9951">nom: String</text><line style="stroke:#181818;stroke-width:0.5;" x1="8" x2="299" y1="805.2969" y2="805.2969"/></g><!--class Reservation--><g id="elem_Reservation"><rect codeLine="5" fill="#F1F1F1" height="64.2969" id="Reservation" rx="2.5" ry="2.5" style="stroke:#181818;stroke-width:0.5;" width="192" x="670.5" y="293"/><ellipse cx="685.5" cy="309" fill="#ADD1B2" rx="11" ry="11" style="stroke:#181818;stroke-width:1.0;"/><path d="M687.8438,304.6719 C686.9063,304.2344 686.3125,304.0938 685.4375,304.0938 C682.8125,304.0938 680.8125,306.1719 680.8125,308.8906 L680.8125,310.0156 C680.8125,312.5938 682.9219,314.4844 685.8125,314.4844 C687.0313,314.4844 688.1875,314.1875 688.9375,313.6406 C689.5156,313.2344 689.8438,312.7813 689.8438,312.3906 C689.8438,311.9375 689.4531,311.5469 688.9844,311.5469 C688.7656,311.5469 688.5625,311.625 688.375,311.8125 C687.9219,312.2969 687.9219,312.2969 687.7344,312.3906 C687.3125,312.6563 686.625,312.7813 685.8594,312.7813 C683.8125,312.7813 682.5156,311.6875 682.5156,309.9844 L682.5156,308.8906 C682.5156,307.1094 683.7656,305.7969 685.5,305.7969 C686.0781,305.7969 686.6875,305.9531 687.1563,306.2031 C687.6406,306.4844 687.8125,306.7031 687.9063,307.1094 C687.9688,307.5156 688,307.6406 688.1406,307.7656 C688.2813,307.9063 688.5156,308.0156 688.7344,308.0156 C689,308.0156 689.2656,307.875 689.4375,307.6563 C689.5469,307.5 689.5781,307.3125 689.5781,306.8906 L689.5781,305.4688 C689.5781,305.0313 689.5625,304.9063 689.4688,304.75 C689.3125,304.4844 689.0313,304.3438 688.7344,304.3438 C688.4375,304.3438 688.2344,304.4375 688.0156,304.75 L687.8438,304.6719 Z " fill="#000000"/><text fill="#000000" font-family="sans-serif" font-size="14" lengthAdjust="spacing" textLength="86" x="699.5" y="313.8467">Reservation</text><rect fill="#FFFFFF" height="15.9688" style="stroke:#181818;stroke-width:1.0;stroke-dasharray:2.0,2.0;" width="72" x="793.5" y="290"/><text fill="#000000" font-family="sans-serif" font-size="12" font-style="italic" lengthAdjust="spacing" textLength="70" x="794.5" y="302.1387">Transaction</text><line style="stroke:#181818;stroke-width:0.5;" x1="671.5" x2="861.5" y1="325" y2="325"/><text fill="#000000" font-family="sans-serif" font-size="14" lengthAdjust="spacing" textLength="166" x="676.5" y="341.9951">noConfirmation: String</text><line style="stroke:#181818;stroke-width:0.5;" x1="671.5" x2="861.5" y1="349.2969" y2="349.2969"/></g><!--class Sejour--><g id="elem_Sejour"><rect codeLine="10" fill="#F1F1F1" height="96.8906" id="Sejour" rx="2.5" ry="2.5" style="stroke:#181818;stroke-width:0.5;" width="205" x="408" y="434"/><ellipse cx="423" cy="450" fill="#ADD1B2" rx="11" ry="11" style="stroke:#181818;stroke-width:1.0;"/><path d="M425.3438,445.6719 C424.4063,445.2344 423.8125,445.0938 422.9375,445.0938 C420.3125,445.0938 418.3125,447.1719 418.3125,449.8906 L418.3125,451.0156 C418.3125,453.5938 420.4219,455.4844 423.3125,455.4844 C424.5313,455.4844 425.6875,455.1875 426.4375,454.6406 C427.0156,454.2344 427.3438,453.7813 427.3438,453.3906 C427.3438,452.9375 426.9531,452.5469 426.4844,452.5469 C426.2656,452.5469 426.0625,452.625 425.875,452.8125 C425.4219,453.2969 425.4219,453.2969 425.2344,453.3906 C424.8125,453.6563 424.125,453.7813 423.3594,453.7813 C421.3125,453.7813 420.0156,452.6875 420.0156,450.9844 L420.0156,449.8906 C420.0156,448.1094 421.2656,446.7969 423,446.7969 C423.5781,446.7969 424.1875,446.9531 424.6563,447.2031 C425.1406,447.4844 425.3125,447.7031 425.4063,448.1094 C425.4688,448.5156 425.5,448.6406 425.6406,448.7656 C425.7813,448.9063 426.0156,449.0156 426.2344,449.0156 C426.5,449.0156 426.7656,448.875 426.9375,448.6563 C427.0469,448.5 427.0781,448.3125 427.0781,447.8906 L427.0781,446.4688 C427.0781,446.0313 427.0625,445.9063 426.9688,445.75 C426.8125,445.4844 426.5313,445.3438 426.2344,445.3438 C425.9375,445.3438 425.7344,445.4375 425.5156,445.75 L425.3438,445.6719 Z " fill="#000000"/><text fill="#000000" font-family="sans-serif" font-size="14" lengthAdjust="spacing" textLength="45" x="437" y="454.8467">Sejour</text><rect fill="#FFFFFF" height="15.9688" style="stroke:#181818;stroke-width:1.0;stroke-dasharray:2.0,2.0;" width="126" x="490" y="431"/><text fill="#000000" font-family="sans-serif" font-size="12" font-style="italic" lengthAdjust="spacing" textLength="124" x="491" y="443.1387">Ligne de transaction</text><line style="stroke:#181818;stroke-width:0.5;" x1="409" x2="612" y1="466" y2="466"/><text fill="#000000" font-family="sans-serif" font-size="14" lengthAdjust="spacing" text-decoration="line-through" textLength="113" x="414" y="482.9951">quantity: String</text><text fill="#000000" font-family="sans-serif" font-size="14" lengthAdjust="spacing" textLength="120" x="414" y="499.292">dateArrive: Date</text><text fill="#000000" font-family="sans-serif" font-size="14" lengthAdjust="spacing" textLength="128" x="414" y="515.5889">dateDepart: Date</text><line style="stroke:#181818;stroke-width:0.5;" x1="409" x2="612" y1="522.8906" y2="522.8906"/></g><g id="elem_GMN6"><path d="M385.5,297.5 L385.5,352.8984 A0,0 0 0 0 385.5,352.8984 L506.5,352.8984 L510.5,433.788 L514.5,352.8984 L635.5,352.8984 A0,0 0 0 0 635.5,352.8984 L635.5,307.5 L625.5,297.5 L385.5,297.5 A0,0 0 0 0 385.5,297.5 " fill="#FEFFDD" style="stroke:#181818;stroke-width:0.5;"/><path d="M625.5,297.5 L625.5,307.5 L635.5,307.5 L625.5,297.5 " fill="#FEFFDD" style="stroke:#181818;stroke-width:0.5;"/><text fill="#000000" font-family="sans-serif" font-size="13" lengthAdjust="spacing" textLength="163" x="391.5" y="314.5669">La quantité et représenté</text><text fill="#000000" font-family="sans-serif" font-size="13" lengthAdjust="spacing" textLength="211" x="391.5" y="329.6997">par la multiplicité de l'association</text><text fill="#000000" font-family="sans-serif" font-size="13" lengthAdjust="spacing" textLength="229" x="391.5" y="344.8325">entre LigneReservation et Chambre</text></g><!--class Commis--><g id="elem_Commis"><rect codeLine="15" fill="#F1F1F1" height="48" id="Commis" rx="2.5" ry="2.5" style="stroke:#181818;stroke-width:0.5;" width="119" x="707" y="151.5"/><ellipse cx="722" cy="167.5" fill="#ADD1B2" rx="11" ry="11" style="stroke:#181818;stroke-width:1.0;"/><path d="M724.3438,163.1719 C723.4063,162.7344 722.8125,162.5938 721.9375,162.5938 C719.3125,162.5938 717.3125,164.6719 717.3125,167.3906 L717.3125,168.5156 C717.3125,171.0938 719.4219,172.9844 722.3125,172.9844 C723.5313,172.9844 724.6875,172.6875 725.4375,172.1406 C726.0156,171.7344 726.3438,171.2813 726.3438,170.8906 C726.3438,170.4375 725.9531,170.0469 725.4844,170.0469 C725.2656,170.0469 725.0625,170.125 724.875,170.3125 C724.4219,170.7969 724.4219,170.7969 724.2344,170.8906 C723.8125,171.1563 723.125,171.2813 722.3594,171.2813 C720.3125,171.2813 719.0156,170.1875 719.0156,168.4844 L719.0156,167.3906 C719.0156,165.6094 720.2656,164.2969 722,164.2969 C722.5781,164.2969 723.1875,164.4531 723.6563,164.7031 C724.1406,164.9844 724.3125,165.2031 724.4063,165.6094 C724.4688,166.0156 724.5,166.1406 724.6406,166.2656 C724.7813,166.4063 725.0156,166.5156 725.2344,166.5156 C725.5,166.5156 725.7656,166.375 725.9375,166.1563 C726.0469,166 726.0781,165.8125 726.0781,165.3906 L726.0781,163.9688 C726.0781,163.5313 726.0625,163.4063 725.9688,163.25 C725.8125,162.9844 725.5313,162.8438 725.2344,162.8438 C724.9375,162.8438 724.7344,162.9375 724.5156,163.25 L724.3438,163.1719 Z " fill="#000000"/><text fill="#000000" font-family="sans-serif" font-size="14" lengthAdjust="spacing" textLength="58" x="736" y="172.3467">Commis</text><rect fill="#FFFFFF" height="15.9688" style="stroke:#181818;stroke-width:1.0;stroke-dasharray:2.0,2.0;" width="27" x="802" y="148.5"/><text fill="#000000" font-family="sans-serif" font-size="12" font-style="italic" lengthAdjust="spacing" textLength="25" x="803" y="160.6387">Role</text><line style="stroke:#181818;stroke-width:0.5;" x1="708" x2="825" y1="183.5" y2="183.5"/><line style="stroke:#181818;stroke-width:0.5;" x1="708" x2="825" y1="191.5" y2="191.5"/></g><!--class Chambre--><g id="elem_Chambre"><rect codeLine="16" fill="#F1F1F1" height="64.2969" id="Chambre" rx="2.5" ry="2.5" style="stroke:#181818;stroke-width:0.5;" width="486" x="119.5" y="608"/><ellipse cx="134.5" cy="624" fill="#ADD1B2" rx="11" ry="11" style="stroke:#181818;stroke-width:1.0;"/><path d="M136.8438,619.6719 C135.9063,619.2344 135.3125,619.0938 134.4375,619.0938 C131.8125,619.0938 129.8125,621.1719 129.8125,623.8906 L129.8125,625.0156 C129.8125,627.5938 131.9219,629.4844 134.8125,629.4844 C136.0313,629.4844 137.1875,629.1875 137.9375,628.6406 C138.5156,628.2344 138.8438,627.7813 138.8438,627.3906 C138.8438,626.9375 138.4531,626.5469 137.9844,626.5469 C137.7656,626.5469 137.5625,626.625 137.375,626.8125 C136.9219,627.2969 136.9219,627.2969 136.7344,627.3906 C136.3125,627.6563 135.625,627.7813 134.8594,627.7813 C132.8125,627.7813 131.5156,626.6875 131.5156,624.9844 L131.5156,623.8906 C131.5156,622.1094 132.7656,620.7969 134.5,620.7969 C135.0781,620.7969 135.6875,620.9531 136.1563,621.2031 C136.6406,621.4844 136.8125,621.7031 136.9063,622.1094 C136.9688,622.5156 137,622.6406 137.1406,622.7656 C137.2813,622.9063 137.5156,623.0156 137.7344,623.0156 C138,623.0156 138.2656,622.875 138.4375,622.6563 C138.5469,622.5 138.5781,622.3125 138.5781,621.8906 L138.5781,620.4688 C138.5781,620.0313 138.5625,619.9063 138.4688,619.75 C138.3125,619.4844 138.0313,619.3438 137.7344,619.3438 C137.4375,619.3438 137.2344,619.4375 137.0156,619.75 L136.8438,619.6719 Z " fill="#000000"/><text fill="#000000" font-family="sans-serif" font-size="14" lengthAdjust="spacing" textLength="66" x="148.5" y="628.8467">Chambre</text><rect fill="#FFFFFF" height="15.9688" style="stroke:#181818;stroke-width:1.0;stroke-dasharray:2.0,2.0;" width="386" x="222.5" y="605"/><text fill="#000000" font-family="sans-serif" font-size="12" font-style="italic" lengthAdjust="spacing" textLength="384" x="223.5" y="617.1387">Objet physique, Contenu dans l'hotel, Produit d'une transaction</text><line style="stroke:#181818;stroke-width:0.5;" x1="120.5" x2="604.5" y1="640" y2="640"/><text fill="#000000" font-family="sans-serif" font-size="14" lengthAdjust="spacing" textLength="106" x="125.5" y="656.9951">numero: string</text><line style="stroke:#181818;stroke-width:0.5;" x1="120.5" x2="604.5" y1="664.2969" y2="664.2969"/></g><!--class Client--><g id="elem_Client"><rect codeLine="19" fill="#F1F1F1" height="80.5938" id="Client" rx="2.5" ry="2.5" style="stroke:#181818;stroke-width:0.5;" width="138" x="533.5" y="135"/><ellipse cx="563.8" cy="151" fill="#ADD1B2" rx="11" ry="11" style="stroke:#181818;stroke-width:1.0;"/><path d="M566.1438,146.6719 C565.2063,146.2344 564.6125,146.0938 563.7375,146.0938 C561.1125,146.0938 559.1125,148.1719 559.1125,150.8906 L559.1125,152.0156 C559.1125,154.5938 561.2219,156.4844 564.1125,156.4844 C565.3313,156.4844 566.4875,156.1875 567.2375,155.6406 C567.8156,155.2344 568.1438,154.7813 568.1438,154.3906 C568.1438,153.9375 567.7531,153.5469 567.2844,153.5469 C567.0656,153.5469 566.8625,153.625 566.675,153.8125 C566.2219,154.2969 566.2219,154.2969 566.0344,154.3906 C565.6125,154.6563 564.925,154.7813 564.1594,154.7813 C562.1125,154.7813 560.8156,153.6875 560.8156,151.9844 L560.8156,150.8906 C560.8156,149.1094 562.0656,147.7969 563.8,147.7969 C564.3781,147.7969 564.9875,147.9531 565.4563,148.2031 C565.9406,148.4844 566.1125,148.7031 566.2063,149.1094 C566.2688,149.5156 566.3,149.6406 566.4406,149.7656 C566.5813,149.9063 566.8156,150.0156 567.0344,150.0156 C567.3,150.0156 567.5656,149.875 567.7375,149.6563 C567.8469,149.5 567.8781,149.3125 567.8781,148.8906 L567.8781,147.4688 C567.8781,147.0313 567.8625,146.9063 567.7688,146.75 C567.6125,146.4844 567.3313,146.3438 567.0344,146.3438 C566.7375,146.3438 566.5344,146.4375 566.3156,146.75 L566.1438,146.6719 Z " fill="#000000"/><text fill="#000000" font-family="sans-serif" font-size="14" lengthAdjust="spacing" textLength="43" x="581.2" y="155.8467">Client</text><rect fill="#FFFFFF" height="15.9688" style="stroke:#181818;stroke-width:1.0;stroke-dasharray:2.0,2.0;" width="27" x="647.5" y="132"/><text fill="#000000" font-family="sans-serif" font-size="12" font-style="italic" lengthAdjust="spacing" textLength="25" x="648.5" y="144.1387">Role</text><line style="stroke:#181818;stroke-width:0.5;" x1="534.5" x2="670.5" y1="167" y2="167"/><text fill="#000000" font-family="sans-serif" font-size="14" lengthAdjust="spacing" textLength="83" x="539.5" y="183.9951">nom: string</text><text fill="#000000" font-family="sans-serif" font-size="14" lengthAdjust="spacing" textLength="126" x="539.5" y="200.292">telephone: string</text><line style="stroke:#181818;stroke-width:0.5;" x1="534.5" x2="670.5" y1="207.5938" y2="207.5938"/></g><!--class Clé--><g id="elem_Clé"><rect fill="#F1F1F1" height="48" id="Clé" rx="2.5" ry="2.5" style="stroke:#181818;stroke-width:0.5;" width="55" x="335" y="757"/><ellipse cx="350" cy="773" fill="#ADD1B2" rx="11" ry="11" style="stroke:#181818;stroke-width:1.0;"/><path d="M352.3438,768.6719 C351.4063,768.2344 350.8125,768.0938 349.9375,768.0938 C347.3125,768.0938 345.3125,770.1719 345.3125,772.8906 L345.3125,774.0156 C345.3125,776.5938 347.4219,778.4844 350.3125,778.4844 C351.5313,778.4844 352.6875,778.1875 353.4375,777.6406 C354.0156,777.2344 354.3438,776.7813 354.3438,776.3906 C354.3438,775.9375 353.9531,775.5469 353.4844,775.5469 C353.2656,775.5469 353.0625,775.625 352.875,775.8125 C352.4219,776.2969 352.4219,776.2969 352.2344,776.3906 C351.8125,776.6563 351.125,776.7813 350.3594,776.7813 C348.3125,776.7813 347.0156,775.6875 347.0156,773.9844 L347.0156,772.8906 C347.0156,771.1094 348.2656,769.7969 350,769.7969 C350.5781,769.7969 351.1875,769.9531 351.6563,770.2031 C352.1406,770.4844 352.3125,770.7031 352.4063,771.1094 C352.4688,771.5156 352.5,771.6406 352.6406,771.7656 C352.7813,771.9063 353.0156,772.0156 353.2344,772.0156 C353.5,772.0156 353.7656,771.875 353.9375,771.6563 C354.0469,771.5 354.0781,771.3125 354.0781,770.8906 L354.0781,769.4688 C354.0781,769.0313 354.0625,768.9063 353.9688,768.75 C353.8125,768.4844 353.5313,768.3438 353.2344,768.3438 C352.9375,768.3438 352.7344,768.4375 352.5156,768.75 L352.3438,768.6719 Z " fill="#000000"/><text fill="#000000" font-family="sans-serif" font-size="14" lengthAdjust="spacing" textLength="23" x="364" y="777.8467">Clé</text><line style="stroke:#181818;stroke-width:0.5;" x1="336" x2="389" y1="789" y2="789"/><line style="stroke:#181818;stroke-width:0.5;" x1="336" x2="389" y1="797" y2="797"/></g><!--class Emplacement--><g id="elem_Emplacement"><rect fill="#F1F1F1" height="48" id="Emplacement" rx="2.5" ry="2.5" style="stroke:#181818;stroke-width:0.5;" width="133" x="441" y="757"/><ellipse cx="456" cy="773" fill="#ADD1B2" rx="11" ry="11" style="stroke:#181818;stroke-width:1.0;"/><path d="M458.3438,768.6719 C457.4063,768.2344 456.8125,768.0938 455.9375,768.0938 C453.3125,768.0938 451.3125,770.1719 451.3125,772.8906 L451.3125,774.0156 C451.3125,776.5938 453.4219,778.4844 456.3125,778.4844 C457.5313,778.4844 458.6875,778.1875 459.4375,777.6406 C460.0156,777.2344 460.3438,776.7813 460.3438,776.3906 C460.3438,775.9375 459.9531,775.5469 459.4844,775.5469 C459.2656,775.5469 459.0625,775.625 458.875,775.8125 C458.4219,776.2969 458.4219,776.2969 458.2344,776.3906 C457.8125,776.6563 457.125,776.7813 456.3594,776.7813 C454.3125,776.7813 453.0156,775.6875 453.0156,773.9844 L453.0156,772.8906 C453.0156,771.1094 454.2656,769.7969 456,769.7969 C456.5781,769.7969 457.1875,769.9531 457.6563,770.2031 C458.1406,770.4844 458.3125,770.7031 458.4063,771.1094 C458.4688,771.5156 458.5,771.6406 458.6406,771.7656 C458.7813,771.9063 459.0156,772.0156 459.2344,772.0156 C459.5,772.0156 459.7656,771.875 459.9375,771.6563 C460.0469,771.5 460.0781,771.3125 460.0781,770.8906 L460.0781,769.4688 C460.0781,769.0313 460.0625,768.9063 459.9688,768.75 C459.8125,768.4844 459.5313,768.3438 459.2344,768.3438 C458.9375,768.3438 458.7344,768.4375 458.5156,768.75 L458.3438,768.6719 Z " fill="#000000"/><text fill="#000000" font-family="sans-serif" font-size="14" lengthAdjust="spacing" textLength="101" x="470" y="777.8467">Emplacement</text><line style="stroke:#181818;stroke-width:0.5;" x1="442" x2="573" y1="789" y2="789"/><line style="stroke:#181818;stroke-width:0.5;" x1="442" x2="573" y1="797" y2="797"/></g><!--link Chambre to Clé--><g id="link_Chambre_Clé"><path codeLine="23" d="M360.679,672.021 C360.195,681.627 359.74,692.248 359.5,702 C359.047,720.4247 359.922,741.2868 360.842,756.7967 " fill="none" id="Chambre-Clé" style="stroke:#181818;stroke-width:1.0;"/><text fill="#000000" font-family="sans-serif" font-size="13" lengthAdjust="spacing" textLength="103" x="360.5" y="715.0669">est-ouverte*par</text><text fill="#000000" font-family="sans-serif" font-size="13" lengthAdjust="spacing" textLength="8" x="351.4784" y="692.2222">1</text><text fill="#000000" font-family="sans-serif" font-size="13" lengthAdjust="spacing" textLength="7" x="352.5203" y="745.7566">*</text></g><!--link Chambre to Emplacement--><g id="link_Chambre_Emplacement"><path codeLine="24" d="M430.427,672.155 C444.134,680.516 457.647,690.492 468.5,702 C483.251,717.6404 493.637,739.9286 499.962,756.6775 " fill="none" id="Chambre-Emplacement" style="stroke:#181818;stroke-width:1.0;"/><text fill="#000000" font-family="sans-serif" font-size="13" lengthAdjust="spacing" textLength="77" x="482.5" y="715.0669">sont-situé-à</text><text fill="#000000" font-family="sans-serif" font-size="13" lengthAdjust="spacing" textLength="7" x="436.7151" y="692.3838">*</text><text fill="#000000" font-family="sans-serif" font-size="13" lengthAdjust="spacing" textLength="8" x="489.1496" y="746.0038">1</text></g><!--link Hotel to Chambre--><g id="link_Hotel_Chambre"><path codeLine="26" d="M382.179,58.191 C343.831,81.803 294.5,122.319 294.5,174.5 C294.5,174.5 294.5,174.5 294.5,483.5 C294.5,529.76 320.076,577.765 339.857,607.975 " fill="none" id="Hotel-Chambre" style="stroke:#181818;stroke-width:1.0;"/><text fill="#000000" font-family="sans-serif" font-size="13" lengthAdjust="spacing" textLength="54" x="295.5" y="329.5669">possède</text><text fill="#000000" font-family="sans-serif" font-size="13" lengthAdjust="spacing" textLength="8" x="362.4008" y="77.9988">1</text><text fill="#000000" font-family="sans-serif" font-size="13" lengthAdjust="spacing" textLength="7" x="327.465" y="596.8729">*</text></g><!--link Chambre to Categorie--><g id="link_Chambre_Categorie"><path codeLine="27" d="M315.856,672.021 C281.449,694.905 234.821,725.9155 200.362,748.8334 " fill="none" id="Chambre-Categorie" style="stroke:#181818;stroke-width:1.0;"/><text fill="#000000" font-family="sans-serif" font-size="13" lengthAdjust="spacing" textLength="66" x="272.5" y="715.0669">appartient</text><text fill="#000000" font-family="sans-serif" font-size="13" lengthAdjust="spacing" textLength="7" x="298.5138" y="692.2222">*</text><text fill="#000000" font-family="sans-serif" font-size="13" lengthAdjust="spacing" textLength="8" x="201.2023" y="737.7021">1</text></g><!--link Client to Reservation--><g id="link_Client_Reservation"><path codeLine="28" d="M644.306,216.039 C660.206,230.904 678.568,247.863 695.5,263 C706.525,272.856 718.683,283.413 729.776,292.927 " fill="none" id="Client-Reservation" style="stroke:#181818;stroke-width:1.0;"/><text fill="#000000" font-family="sans-serif" font-size="13" lengthAdjust="spacing" textLength="61" x="696.5" y="259.0669">demande</text><text fill="#000000" font-family="sans-serif" font-size="13" lengthAdjust="spacing" textLength="8" x="642.3313" y="235.8051">1</text><text fill="#000000" font-family="sans-serif" font-size="13" lengthAdjust="spacing" textLength="8" x="713.3767" y="281.815">1</text></g><!--link Commis to Reservation--><g id="link_Commis_Reservation"><path codeLine="29" d="M766.5,199.547 C766.5,224.664 766.5,264.99 766.5,292.899 " fill="none" id="Commis-Reservation" style="stroke:#181818;stroke-width:1.0;"/><text fill="#000000" font-family="sans-serif" font-size="13" lengthAdjust="spacing" textLength="28" x="767.5" y="259.0669">cree</text><text fill="#000000" font-family="sans-serif" font-size="13" lengthAdjust="spacing" textLength="8" x="757.475" y="219.7148">1</text><text fill="#000000" font-family="sans-serif" font-size="13" lengthAdjust="spacing" textLength="7" x="758.7781" y="281.7813">*</text></g><!--link Reservation to Sejour--><g id="link_Reservation_Sejour"><path codeLine="30" d="M715.31,357.094 C679.123,379.074 629.94,408.949 588.841,433.914 " fill="none" id="Reservation-Sejour" style="stroke:#181818;stroke-width:1.0;"/><text fill="#000000" font-family="sans-serif" font-size="13" lengthAdjust="spacing" textLength="52" x="662.5" y="400.0669">contient</text><text fill="#000000" font-family="sans-serif" font-size="13" lengthAdjust="spacing" textLength="8" x="695.9271" y="377.3102">1</text><text fill="#000000" font-family="sans-serif" font-size="13" lengthAdjust="spacing" textLength="7" x="592.8333" y="422.761">*</text></g><!--link Hotel to Commis--><g id="link_Hotel_Commis"><path codeLine="31" d="M492.68,58.097 C546.12,77.263 622.943,105.984 688.5,135 C699.743,139.976 711.68,145.758 722.746,151.337 " fill="none" id="Hotel-Commis" style="stroke:#181818;stroke-width:1.0;"/><text fill="#000000" font-family="sans-serif" font-size="13" lengthAdjust="spacing" textLength="51" x="611.5" y="101.0669">Emploie</text><text fill="#000000" font-family="sans-serif" font-size="13" lengthAdjust="spacing" textLength="8" x="499.8364" y="77.8818">1</text><text fill="#000000" font-family="sans-serif" font-size="13" lengthAdjust="spacing" textLength="7" x="703.6372" y="140.3073">*</text></g><!--link Sejour to Chambre--><g id="link_Sejour_Chambre"><path codeLine="32" d="M465.291,531 C441.489,556.008 412.978,585.964 392.028,607.976 " fill="none" id="Sejour-Chambre" style="stroke:#181818;stroke-width:1.0;"/><polygon fill="#000000" points="444.9471,565.9446,436.5824,570.4704,440.8401,574.5227,444.9471,565.9446" style="stroke:#000000;stroke-width:1.0;"/><text fill="#000000" font-family="sans-serif" font-size="13" lengthAdjust="spacing" textLength="121" x="450.5" y="574.0669">sont reservées par</text><text fill="#000000" font-family="sans-serif" font-size="13" lengthAdjust="spacing" textLength="7" x="451.4413" y="550.9589">*</text><text fill="#000000" font-family="sans-serif" font-size="13" lengthAdjust="spacing" textLength="7" x="390.3963" y="596.8742">*</text></g><!--SRC=[jLDDQ-Cm4BtxLmov54BCibTZ0iLPs4DXbtQFlQZsD56HDAe-0gNql-nnyplynpgIbTgXlQuljj6RzzxCFFLAU0y_AQ22jYCJq61q6_Zry8Hz07juyV8vuhRgCx0J0VVa94AxGzyxQOCa0yCLcY33UDeaX52qvn9uhG0CwGRkWfDcNxqLablqw8uYLxP_d31UzEbd-rePOW-FqkbykgZaau0Go08zmXq-KNJGm8s0voWcQS003gqRJvxDyF-ziSA14g2Z2j8gsMVOWA2ks0RrCelS6uOxX1kvDxYqndpTGUW7XyLtaMqpCl64XVVSRUktnS_BsNlxpM_vPE31NJidZzZ0Zh_XFpz5SeSyWp19Vio_8wsbX_QMrBpOgLDeq-BdlVC-SoOYindFWpkaf6pWjwCXoi2BZ-Po3ddfKQEZ1lpbtZibUTH5Tqv7GG4mCze36LnKddsjlg-Whc6rNZ4DRx41zA6cU4GNSCrDpiZrXEI27zegqQDEgip9dTHUXZYUwl5lLKsXNn9F30rOydxyD-1Nd1yte05Xqt1JJrLfxKp6hqMI6iwA5YRnJPDVQ5x0UeTOBIEu04xXOmntaIK_sv_8czmsIQnANi_cvmxBCFYw9AdnX1xILMdV0G00]--></g></svg>