<?xml version="1.0" encoding="UTF-8" standalone="no"?><svg xmlns="http://www.w3.org/2000/svg" xmlns:xlink="http://www.w3.org/1999/xlink" contentScriptType="application/ecmascript" contentStyleType="text/css" height="782px" preserveAspectRatio="none" style="width:778px;height:782px;" version="1.1" viewBox="0 0 778 782" width="778px" zoomAndPan="magnify"><defs><filter height="300%" id="f1ln9pse0gploz" width="300%" x="-1" y="-1"><feGaussianBlur result="blurOut" stdDeviation="2.0"/><feColorMatrix in="blurOut" result="blurOut2" type="matrix" values="0 0 0 0 0 0 0 0 0 0 0 0 0 0 0 0 0 0 .4 0"/><feOffset dx="4.0" dy="4.0" in="blurOut2" result="blurOut3"/><feBlend in="SourceGraphic" in2="blurOut3" mode="normal"/></filter></defs><g><!--MD5=[e1d3770cbd048901ea869e126190a56e]
class ControleurReservation--><rect codeLine="1" fill="#FEFECE" filter="url(#f1ln9pse0gploz)" height="99.2188" id="ControleurReservation" style="stroke:#A80036;stroke-width:1.5;" width="436" x="46" y="10"/><ellipse cx="126.75" cy="26" fill="#ADD1B2" rx="11" ry="11" style="stroke:#A80036;stroke-width:1.0;"/><path d="M129.0938,21.6719 C128.1563,21.2344 127.5625,21.0938 126.6875,21.0938 C124.0625,21.0938 122.0625,23.1719 122.0625,25.8906 L122.0625,27.0156 C122.0625,29.5938 124.1719,31.4844 127.0625,31.4844 C128.2813,31.4844 129.4375,31.1875 130.1875,30.6406 C130.7656,30.2344 131.0938,29.7813 131.0938,29.3906 C131.0938,28.9375 130.7031,28.5469 130.2344,28.5469 C130.0156,28.5469 129.8125,28.625 129.625,28.8125 C129.1719,29.2969 129.1719,29.2969 128.9844,29.3906 C128.5625,29.6563 127.875,29.7813 127.1094,29.7813 C125.0625,29.7813 123.7656,28.6875 123.7656,26.9844 L123.7656,25.8906 C123.7656,24.1094 125.0156,22.7969 126.75,22.7969 C127.3281,22.7969 127.9375,22.9531 128.4063,23.2031 C128.8906,23.4844 129.0625,23.7031 129.1563,24.1094 C129.2188,24.5156 129.25,24.6406 129.3906,24.7656 C129.5313,24.9063 129.7656,25.0156 129.9844,25.0156 C130.25,25.0156 130.5156,24.875 130.6875,24.6563 C130.7969,24.5 130.8281,24.3125 130.8281,23.8906 L130.8281,22.4688 C130.8281,22.0313 130.8125,21.9063 130.7188,21.75 C130.5625,21.4844 130.2813,21.3438 129.9844,21.3438 C129.6875,21.3438 129.4844,21.4375 129.2656,21.75 L129.0938,21.6719 Z " fill="#000000"/><text fill="#000000" font-family="sans-serif" font-size="12" lengthAdjust="spacing" textLength="134" x="147.25" y="30.1543">ControleurReservation</text><rect fill="#FFFFFF" height="15.9688" style="stroke:#000000;stroke-width:1.0;stroke-dasharray:2.0,2.0;" width="130" x="355" y="7"/><text fill="#000000" font-family="sans-serif" font-size="12" font-style="italic" lengthAdjust="spacing" textLength="128" x="356" y="19.1387">controleur de session</text><line style="stroke:#A80036;stroke-width:1.5;" x1="47" x2="481" y1="42" y2="42"/><text fill="#000000" font-family="sans-serif" font-size="11" lengthAdjust="spacing" textLength="214" x="52" y="56.2104">Map«nom:String,categorie:Categorie»</text><line style="stroke:#A80036;stroke-width:1.5;" x1="47" x2="481" y1="62.8047" y2="62.8047"/><ellipse cx="57" cy="73.8047" fill="#84BE84" rx="3" ry="3" style="stroke:#038048;stroke-width:1.0;"/><text fill="#000000" font-family="sans-serif" font-size="11" lengthAdjust="spacing" textLength="129" x="66" y="77.0151">demarrerReservation()</text><ellipse cx="57" cy="86.6094" fill="#84BE84" rx="3" ry="3" style="stroke:#038048;stroke-width:1.0;"/><text fill="#000000" font-family="sans-serif" font-size="11" lengthAdjust="spacing" textLength="410" x="66" y="89.8198">reserverChambre(dateArrive:string, dateDepart:string, categorie: String)</text><ellipse cx="57" cy="99.4141" fill="#84BE84" rx="3" ry="3" style="stroke:#038048;stroke-width:1.0;"/><text fill="#000000" font-family="sans-serif" font-size="11" lengthAdjust="spacing" textLength="289" x="66" y="102.6245">confirmerReservation(nom:string, telephone:string)</text><!--MD5=[3110dbef8258a6b966b2e55d3546d21d]
class Hotel--><rect codeLine="9" fill="#FEFECE" filter="url(#f1ln9pse0gploz)" height="48" id="Hotel" style="stroke:#A80036;stroke-width:1.5;" width="237" x="527.5" y="35.5"/><ellipse cx="542.5" cy="51.5" fill="#ADD1B2" rx="11" ry="11" style="stroke:#A80036;stroke-width:1.0;"/><path d="M544.8438,47.1719 C543.9063,46.7344 543.3125,46.5938 542.4375,46.5938 C539.8125,46.5938 537.8125,48.6719 537.8125,51.3906 L537.8125,52.5156 C537.8125,55.0938 539.9219,56.9844 542.8125,56.9844 C544.0313,56.9844 545.1875,56.6875 545.9375,56.1406 C546.5156,55.7344 546.8438,55.2813 546.8438,54.8906 C546.8438,54.4375 546.4531,54.0469 545.9844,54.0469 C545.7656,54.0469 545.5625,54.125 545.375,54.3125 C544.9219,54.7969 544.9219,54.7969 544.7344,54.8906 C544.3125,55.1563 543.625,55.2813 542.8594,55.2813 C540.8125,55.2813 539.5156,54.1875 539.5156,52.4844 L539.5156,51.3906 C539.5156,49.6094 540.7656,48.2969 542.5,48.2969 C543.0781,48.2969 543.6875,48.4531 544.1563,48.7031 C544.6406,48.9844 544.8125,49.2031 544.9063,49.6094 C544.9688,50.0156 545,50.1406 545.1406,50.2656 C545.2813,50.4063 545.5156,50.5156 545.7344,50.5156 C546,50.5156 546.2656,50.375 546.4375,50.1563 C546.5469,50 546.5781,49.8125 546.5781,49.3906 L546.5781,47.9688 C546.5781,47.5313 546.5625,47.4063 546.4688,47.25 C546.3125,46.9844 546.0313,46.8438 545.7344,46.8438 C545.4375,46.8438 545.2344,46.9375 545.0156,47.25 L544.8438,47.1719 Z " fill="#000000"/><text fill="#000000" font-family="sans-serif" font-size="12" lengthAdjust="spacing" textLength="32" x="556.5" y="55.6543">Hotel</text><rect fill="#FFFFFF" height="15.9688" style="stroke:#000000;stroke-width:1.0;stroke-dasharray:2.0,2.0;" width="171" x="596.5" y="32.5"/><text fill="#000000" font-family="sans-serif" font-size="12" font-style="italic" lengthAdjust="spacing" textLength="169" x="597.5" y="44.6387">Conteneur, Object physique</text><line style="stroke:#A80036;stroke-width:1.5;" x1="528.5" x2="763.5" y1="67.5" y2="67.5"/><line style="stroke:#A80036;stroke-width:1.5;" x1="528.5" x2="763.5" y1="75.5" y2="75.5"/><!--MD5=[f9ef9660f44628e549271a3193d2c3b4]
class Categorie--><rect codeLine="32" fill="#FEFECE" filter="url(#f1ln9pse0gploz)" height="79.5469" id="Categorie" style="stroke:#A80036;stroke-width:1.5;" width="448" x="7" y="689"/><ellipse cx="22" cy="707.9688" fill="#ADD1B2" rx="11" ry="11" style="stroke:#A80036;stroke-width:1.0;"/><path d="M24.3438,703.6406 C23.4063,703.2031 22.8125,703.0625 21.9375,703.0625 C19.3125,703.0625 17.3125,705.1406 17.3125,707.8594 L17.3125,708.9844 C17.3125,711.5625 19.4219,713.4531 22.3125,713.4531 C23.5313,713.4531 24.6875,713.1563 25.4375,712.6094 C26.0156,712.2031 26.3438,711.75 26.3438,711.3594 C26.3438,710.9063 25.9531,710.5156 25.4844,710.5156 C25.2656,710.5156 25.0625,710.5938 24.875,710.7813 C24.4219,711.2656 24.4219,711.2656 24.2344,711.3594 C23.8125,711.625 23.125,711.75 22.3594,711.75 C20.3125,711.75 19.0156,710.6563 19.0156,708.9531 L19.0156,707.8594 C19.0156,706.0781 20.2656,704.7656 22,704.7656 C22.5781,704.7656 23.1875,704.9219 23.6563,705.1719 C24.1406,705.4531 24.3125,705.6719 24.4063,706.0781 C24.4688,706.4844 24.5,706.6094 24.6406,706.7344 C24.7813,706.875 25.0156,706.9844 25.2344,706.9844 C25.5,706.9844 25.7656,706.8438 25.9375,706.625 C26.0469,706.4688 26.0781,706.2813 26.0781,705.8594 L26.0781,704.4375 C26.0781,704 26.0625,703.875 25.9688,703.7188 C25.8125,703.4531 25.5313,703.3125 25.2344,703.3125 C24.9375,703.3125 24.7344,703.4063 24.5156,703.7188 L24.3438,703.6406 Z " fill="#000000"/><text fill="#000000" font-family="sans-serif" font-size="12" font-style="italic" lengthAdjust="spacing" textLength="132" x="34" y="705.1387">«Description d'entité»</text><text fill="#000000" font-family="sans-serif" font-size="12" lengthAdjust="spacing" textLength="59" x="70.5" y="719.1074">Categorie</text><rect fill="#FFFFFF" height="15.9688" style="stroke:#000000;stroke-width:1.0;stroke-dasharray:2.0,2.0;" width="286" x="172" y="686"/><text fill="#000000" font-family="sans-serif" font-size="12" font-style="italic" lengthAdjust="spacing" textLength="284" x="173" y="698.1387">Catalogue de chambres ou Description d'entité</text><line style="stroke:#A80036;stroke-width:1.5;" x1="8" x2="454" y1="726.9375" y2="726.9375"/><rect fill="none" height="6" style="stroke:#C82930;stroke-width:1.0;" width="6" x="15" y="734.9375"/><text fill="#000000" font-family="sans-serif" font-size="11" lengthAdjust="spacing" textLength="65" x="27" y="741.1479">nom: String</text><line style="stroke:#A80036;stroke-width:1.5;" x1="8" x2="454" y1="747.7422" y2="747.7422"/><ellipse cx="18" cy="758.7422" fill="#84BE84" rx="3" ry="3" style="stroke:#038048;stroke-width:1.0;"/><text fill="#000000" font-family="sans-serif" font-size="11" lengthAdjust="spacing" textLength="370" x="27" y="761.9526">getChambreLibre(dateArrivé: String,dateDepart:String): Chambre</text><!--MD5=[9c46470aa33a0c75e6d1dfdefc2f9c22]
class Reservation--><rect codeLine="14" fill="#FEFECE" filter="url(#f1ln9pse0gploz)" height="124.8281" id="Reservation" style="stroke:#A80036;stroke-width:1.5;" width="439" x="197.5" y="349"/><ellipse cx="340.25" cy="365" fill="#ADD1B2" rx="11" ry="11" style="stroke:#A80036;stroke-width:1.0;"/><path d="M342.5938,360.6719 C341.6563,360.2344 341.0625,360.0938 340.1875,360.0938 C337.5625,360.0938 335.5625,362.1719 335.5625,364.8906 L335.5625,366.0156 C335.5625,368.5938 337.6719,370.4844 340.5625,370.4844 C341.7813,370.4844 342.9375,370.1875 343.6875,369.6406 C344.2656,369.2344 344.5938,368.7813 344.5938,368.3906 C344.5938,367.9375 344.2031,367.5469 343.7344,367.5469 C343.5156,367.5469 343.3125,367.625 343.125,367.8125 C342.6719,368.2969 342.6719,368.2969 342.4844,368.3906 C342.0625,368.6563 341.375,368.7813 340.6094,368.7813 C338.5625,368.7813 337.2656,367.6875 337.2656,365.9844 L337.2656,364.8906 C337.2656,363.1094 338.5156,361.7969 340.25,361.7969 C340.8281,361.7969 341.4375,361.9531 341.9063,362.2031 C342.3906,362.4844 342.5625,362.7031 342.6563,363.1094 C342.7188,363.5156 342.75,363.6406 342.8906,363.7656 C343.0313,363.9063 343.2656,364.0156 343.4844,364.0156 C343.75,364.0156 344.0156,363.875 344.1875,363.6563 C344.2969,363.5 344.3281,363.3125 344.3281,362.8906 L344.3281,361.4688 C344.3281,361.0313 344.3125,360.9063 344.2188,360.75 C344.0625,360.4844 343.7813,360.3438 343.4844,360.3438 C343.1875,360.3438 342.9844,360.4375 342.7656,360.75 L342.5938,360.6719 Z " fill="#000000"/><text fill="#000000" font-family="sans-serif" font-size="12" lengthAdjust="spacing" textLength="71" x="360.75" y="369.1543">Reservation</text><rect fill="#FFFFFF" height="15.9688" style="stroke:#000000;stroke-width:1.0;stroke-dasharray:2.0,2.0;" width="72" x="567.5" y="346"/><text fill="#000000" font-family="sans-serif" font-size="12" font-style="italic" lengthAdjust="spacing" textLength="70" x="568.5" y="358.1387">Transaction</text><line style="stroke:#A80036;stroke-width:1.5;" x1="198.5" x2="635.5" y1="381" y2="381"/><rect fill="none" height="6" style="stroke:#C82930;stroke-width:1.0;" width="6" x="205.5" y="389"/><text fill="#000000" font-family="sans-serif" font-size="11" lengthAdjust="spacing" textLength="124" x="217.5" y="395.2104">noConfirmation: string</text><rect fill="none" height="6" style="stroke:#C82930;stroke-width:1.0;" width="6" x="205.5" y="401.8047"/><text fill="#000000" font-family="sans-serif" font-size="11" lengthAdjust="spacing" textLength="93" x="217.5" y="408.0151">dateArrive: date</text><rect fill="none" height="6" style="stroke:#C82930;stroke-width:1.0;" width="6" x="205.5" y="414.6094"/><text fill="#000000" font-family="sans-serif" font-size="11" lengthAdjust="spacing" textLength="98" x="217.5" y="420.8198">dateDepart: date</text><line style="stroke:#A80036;stroke-width:1.5;" x1="198.5" x2="635.5" y1="427.4141" y2="427.4141"/><ellipse cx="208.5" cy="438.4141" fill="#84BE84" rx="3" ry="3" style="stroke:#038048;stroke-width:1.0;"/><text fill="#000000" font-family="sans-serif" font-size="11" lengthAdjust="spacing" textLength="413" x="217.5" y="441.6245">Reservation(ch:Chambre,c:Commis,dateArrive:String, dateDepart: String)</text><ellipse cx="208.5" cy="451.2188" fill="#84BE84" rx="3" ry="3" style="stroke:#038048;stroke-width:1.0;"/><text fill="#000000" font-family="sans-serif" font-size="11" lengthAdjust="spacing" textLength="229" x="217.5" y="454.4292">confirmationReservation(cl:Client): string</text><rect fill="#F24D5C" height="6" style="stroke:#C82930;stroke-width:1.0;" width="6" x="205.5" y="461.0234"/><text fill="#000000" font-family="sans-serif" font-size="11" lengthAdjust="spacing" textLength="113" x="217.5" y="467.2339">setNoConfirmation()</text><!--MD5=[aeb2a05b656f26b4e931c999627a7b50]
class Commis--><rect codeLine="22" fill="#FEFECE" filter="url(#f1ln9pse0gploz)" height="48" id="Commis" style="stroke:#A80036;stroke-width:1.5;" width="109" x="494.5" y="205"/><ellipse cx="509.5" cy="221" fill="#ADD1B2" rx="11" ry="11" style="stroke:#A80036;stroke-width:1.0;"/><path d="M511.8438,216.6719 C510.9063,216.2344 510.3125,216.0938 509.4375,216.0938 C506.8125,216.0938 504.8125,218.1719 504.8125,220.8906 L504.8125,222.0156 C504.8125,224.5938 506.9219,226.4844 509.8125,226.4844 C511.0313,226.4844 512.1875,226.1875 512.9375,225.6406 C513.5156,225.2344 513.8438,224.7813 513.8438,224.3906 C513.8438,223.9375 513.4531,223.5469 512.9844,223.5469 C512.7656,223.5469 512.5625,223.625 512.375,223.8125 C511.9219,224.2969 511.9219,224.2969 511.7344,224.3906 C511.3125,224.6563 510.625,224.7813 509.8594,224.7813 C507.8125,224.7813 506.5156,223.6875 506.5156,221.9844 L506.5156,220.8906 C506.5156,219.1094 507.7656,217.7969 509.5,217.7969 C510.0781,217.7969 510.6875,217.9531 511.1563,218.2031 C511.6406,218.4844 511.8125,218.7031 511.9063,219.1094 C511.9688,219.5156 512,219.6406 512.1406,219.7656 C512.2813,219.9063 512.5156,220.0156 512.7344,220.0156 C513,220.0156 513.2656,219.875 513.4375,219.6563 C513.5469,219.5 513.5781,219.3125 513.5781,218.8906 L513.5781,217.4688 C513.5781,217.0313 513.5625,216.9063 513.4688,216.75 C513.3125,216.4844 513.0313,216.3438 512.7344,216.3438 C512.4375,216.3438 512.2344,216.4375 512.0156,216.75 L511.8438,216.6719 Z " fill="#000000"/><text fill="#000000" font-family="sans-serif" font-size="12" lengthAdjust="spacing" textLength="48" x="523.5" y="225.1543">Commis</text><rect fill="#FFFFFF" height="15.9688" style="stroke:#000000;stroke-width:1.0;stroke-dasharray:2.0,2.0;" width="27" x="579.5" y="202"/><text fill="#000000" font-family="sans-serif" font-size="12" font-style="italic" lengthAdjust="spacing" textLength="25" x="580.5" y="214.1387">Role</text><line style="stroke:#A80036;stroke-width:1.5;" x1="495.5" x2="602.5" y1="237" y2="237"/><line style="stroke:#A80036;stroke-width:1.5;" x1="495.5" x2="602.5" y1="245" y2="245"/><!--MD5=[5caef05668a3671b919925ac15293d4d]
class Chambre--><rect codeLine="24" fill="#FEFECE" filter="url(#f1ln9pse0gploz)" height="60.8047" id="Chambre" style="stroke:#A80036;stroke-width:1.5;" width="474" x="197" y="551"/><ellipse cx="212" cy="567" fill="#ADD1B2" rx="11" ry="11" style="stroke:#A80036;stroke-width:1.0;"/><path d="M214.3438,562.6719 C213.4063,562.2344 212.8125,562.0938 211.9375,562.0938 C209.3125,562.0938 207.3125,564.1719 207.3125,566.8906 L207.3125,568.0156 C207.3125,570.5938 209.4219,572.4844 212.3125,572.4844 C213.5313,572.4844 214.6875,572.1875 215.4375,571.6406 C216.0156,571.2344 216.3438,570.7813 216.3438,570.3906 C216.3438,569.9375 215.9531,569.5469 215.4844,569.5469 C215.2656,569.5469 215.0625,569.625 214.875,569.8125 C214.4219,570.2969 214.4219,570.2969 214.2344,570.3906 C213.8125,570.6563 213.125,570.7813 212.3594,570.7813 C210.3125,570.7813 209.0156,569.6875 209.0156,567.9844 L209.0156,566.8906 C209.0156,565.1094 210.2656,563.7969 212,563.7969 C212.5781,563.7969 213.1875,563.9531 213.6563,564.2031 C214.1406,564.4844 214.3125,564.7031 214.4063,565.1094 C214.4688,565.5156 214.5,565.6406 214.6406,565.7656 C214.7813,565.9063 215.0156,566.0156 215.2344,566.0156 C215.5,566.0156 215.7656,565.875 215.9375,565.6563 C216.0469,565.5 216.0781,565.3125 216.0781,564.8906 L216.0781,563.4688 C216.0781,563.0313 216.0625,562.9063 215.9688,562.75 C215.8125,562.4844 215.5313,562.3438 215.2344,562.3438 C214.9375,562.3438 214.7344,562.4375 214.5156,562.75 L214.3438,562.6719 Z " fill="#000000"/><text fill="#000000" font-family="sans-serif" font-size="12" lengthAdjust="spacing" textLength="54" x="226" y="571.1543">Chambre</text><rect fill="#FFFFFF" height="15.9688" style="stroke:#000000;stroke-width:1.0;stroke-dasharray:2.0,2.0;" width="386" x="288" y="548"/><text fill="#000000" font-family="sans-serif" font-size="12" font-style="italic" lengthAdjust="spacing" textLength="384" x="289" y="560.1387">Objet physique, Contenu dans l'hotel, Produit d'une transaction</text><line style="stroke:#A80036;stroke-width:1.5;" x1="198" x2="670" y1="583" y2="583"/><rect fill="none" height="6" style="stroke:#C82930;stroke-width:1.0;" width="6" x="205" y="591"/><text fill="#000000" font-family="sans-serif" font-size="11" lengthAdjust="spacing" textLength="82" x="217" y="597.2104">numero: string</text><line style="stroke:#A80036;stroke-width:1.5;" x1="198" x2="670" y1="603.8047" y2="603.8047"/><!--MD5=[ed6624c6556d5e7b1bd23032162d20b7]
class Client--><rect codeLine="27" fill="#FEFECE" filter="url(#f1ln9pse0gploz)" height="86.4141" id="Client" style="stroke:#A80036;stroke-width:1.5;" width="227" x="232.5" y="186"/><ellipse cx="310.75" cy="202" fill="#ADD1B2" rx="11" ry="11" style="stroke:#A80036;stroke-width:1.0;"/><path d="M313.0938,197.6719 C312.1563,197.2344 311.5625,197.0938 310.6875,197.0938 C308.0625,197.0938 306.0625,199.1719 306.0625,201.8906 L306.0625,203.0156 C306.0625,205.5938 308.1719,207.4844 311.0625,207.4844 C312.2813,207.4844 313.4375,207.1875 314.1875,206.6406 C314.7656,206.2344 315.0938,205.7813 315.0938,205.3906 C315.0938,204.9375 314.7031,204.5469 314.2344,204.5469 C314.0156,204.5469 313.8125,204.625 313.625,204.8125 C313.1719,205.2969 313.1719,205.2969 312.9844,205.3906 C312.5625,205.6563 311.875,205.7813 311.1094,205.7813 C309.0625,205.7813 307.7656,204.6875 307.7656,202.9844 L307.7656,201.8906 C307.7656,200.1094 309.0156,198.7969 310.75,198.7969 C311.3281,198.7969 311.9375,198.9531 312.4063,199.2031 C312.8906,199.4844 313.0625,199.7031 313.1563,200.1094 C313.2188,200.5156 313.25,200.6406 313.3906,200.7656 C313.5313,200.9063 313.7656,201.0156 313.9844,201.0156 C314.25,201.0156 314.5156,200.875 314.6875,200.6563 C314.7969,200.5 314.8281,200.3125 314.8281,199.8906 L314.8281,198.4688 C314.8281,198.0313 314.8125,197.9063 314.7188,197.75 C314.5625,197.4844 314.2813,197.3438 313.9844,197.3438 C313.6875,197.3438 313.4844,197.4375 313.2656,197.75 L313.0938,197.6719 Z " fill="#000000"/><text fill="#000000" font-family="sans-serif" font-size="12" lengthAdjust="spacing" textLength="33" x="331.25" y="206.1543">Client</text><rect fill="#FFFFFF" height="15.9688" style="stroke:#000000;stroke-width:1.0;stroke-dasharray:2.0,2.0;" width="27" x="435.5" y="183"/><text fill="#000000" font-family="sans-serif" font-size="12" font-style="italic" lengthAdjust="spacing" textLength="25" x="436.5" y="195.1387">Role</text><line style="stroke:#A80036;stroke-width:1.5;" x1="233.5" x2="458.5" y1="218" y2="218"/><rect fill="none" height="6" style="stroke:#C82930;stroke-width:1.0;" width="6" x="240.5" y="226"/><text fill="#000000" font-family="sans-serif" font-size="11" lengthAdjust="spacing" textLength="59" x="252.5" y="232.2104">nom:string</text><rect fill="none" height="6" style="stroke:#C82930;stroke-width:1.0;" width="6" x="240.5" y="238.8047"/><text fill="#000000" font-family="sans-serif" font-size="11" lengthAdjust="spacing" textLength="97" x="252.5" y="245.0151">telephone: string</text><line style="stroke:#A80036;stroke-width:1.5;" x1="233.5" x2="458.5" y1="251.6094" y2="251.6094"/><ellipse cx="243.5" cy="262.6094" fill="#84BE84" rx="3" ry="3" style="stroke:#038048;stroke-width:1.0;"/><text fill="#000000" font-family="sans-serif" font-size="11" lengthAdjust="spacing" textLength="201" x="252.5" y="265.8198">Client(Nom:string, telephone:string)</text><!--MD5=[1a7731b8f2c930c6d97d17ac0ebde2a8]
link Hotel to Chambre--><path codeLine="34" d="M658.5935,95.3105 C658.5935,95.3105 730.693,354.606 654,474 C632.932,506.799 598.654,529.772 563.36,545.748 " fill="none" id="Hotel-Chambre" style="stroke:#A80036;stroke-width:1.0;"/><polygon fill="#A80036" points="551.37,550.902,561.2181,551.0236,555.9638,548.9279,558.0595,543.6736,551.37,550.902" style="stroke:#A80036;stroke-width:1.0;"/><line style="stroke:#A80036;stroke-width:1.0;" x1="555.9638" x2="563.3135" y1="548.9279" y2="545.7685"/><polygon fill="#A80036" points="654.743,83.945,652.8797,90.9112,658.5935,95.3105,660.4567,88.3442,654.743,83.945" style="stroke:#A80036;stroke-width:1.0;"/><text fill="#000000" font-family="sans-serif" font-size="13" lengthAdjust="spacing" textLength="54" x="697" y="315.0669">possède</text><text fill="#000000" font-family="sans-serif" font-size="13" lengthAdjust="spacing" textLength="7" x="567.8557" y="540.145">*</text><!--MD5=[0c645827cdb9f485350039ec8cb49e29]
link Chambre to Categorie--><path codeLine="35" d="M392.43,612.295 C364.829,632.078 328.017,658.463 296.516,681.0414 " fill="none" id="Chambre-to-Categorie" style="stroke:#A80036;stroke-width:1.0;"/><polygon fill="#FFFFFF" points="285.619,688.8517,292.826,688.6077,295.3727,681.8613,288.1657,682.1053,285.619,688.8517" style="stroke:#A80036;stroke-width:1.0;"/><text fill="#000000" font-family="sans-serif" font-size="13" lengthAdjust="spacing" textLength="66" x="352" y="655.0669">appartient</text><text fill="#000000" font-family="sans-serif" font-size="13" lengthAdjust="spacing" textLength="7" x="376.5568" y="631.9335">*</text><!--MD5=[9ee890e3271cd9be3ed17d9ceb0af7d4]
reverse link Client to Reservation--><path codeLine="36" d="M338.77,277.195 C338.289,290.989 339.407,305.878 344,319 C347.625,329.357 352.97,339.417 359.146,348.843 " fill="none" id="Client-backto-Reservation" style="stroke:#A80036;stroke-width:1.0;"/><polygon fill="#A80036" points="339.017,272.168,334.5796,280.9606,338.7713,277.162,342.5699,281.3537,339.017,272.168" style="stroke:#A80036;stroke-width:1.0;"/><text fill="#000000" font-family="sans-serif" font-size="13" lengthAdjust="spacing" textLength="61" x="345" y="315.0669">demande</text><!--MD5=[68baab2b76d878f08dc09388ccbc52c4]
reverse link Commis to Reservation--><path codeLine="37" d="M529.03,257.307 C511.315,281.531 484.788,317.805 461.994,348.975 " fill="none" id="Commis-backto-Reservation" style="stroke:#A80036;stroke-width:1.0;"/><polygon fill="#A80036" points="532.014,253.228,523.4733,258.1328,529.0631,257.2644,529.9315,262.8542,532.014,253.228" style="stroke:#A80036;stroke-width:1.0;"/><text fill="#000000" font-family="sans-serif" font-size="13" lengthAdjust="spacing" textLength="28" x="496" y="315.0669">cree</text><!--MD5=[6c051db2d685ac22b70f1baef8e033a7]
reverse link Hotel to Commis--><path codeLine="38" d="M625.946,95.13 C606.907,128.005 578.824,176.499 562.373,204.908 " fill="none" id="Hotel-backto-Commis" style="stroke:#A80036;stroke-width:1.0;"/><polygon fill="#A80036" points="632.513,83.79,626.0448,86.9779,626.4998,94.1747,632.9679,90.9867,632.513,83.79" style="stroke:#A80036;stroke-width:1.0;"/><text fill="#000000" font-family="sans-serif" font-size="13" lengthAdjust="spacing" textLength="51" x="601" y="152.0669">Emploie</text><text fill="#000000" font-family="sans-serif" font-size="13" lengthAdjust="spacing" textLength="7" x="557.903" y="193.8965">*</text><!--MD5=[1528bbe5b2a142ac6d8a598c4a4727cd]
link Reservation to Chambre--><path codeLine="39" d="M423.234,474.103 C425.68,498.276 428.396,525.118 430.488,545.794 " fill="none" id="Reservation-to-Chambre" style="stroke:#A80036;stroke-width:1.0;"/><polygon fill="#A80036" points="431.006,550.912,434.0781,541.5545,430.5018,545.9375,426.1189,542.3612,431.006,550.912" style="stroke:#A80036;stroke-width:1.0;"/><polygon fill="#000000" points="432.4966,507.5918,430.4832,516.8868,436.3312,516.2951,432.4966,507.5918" style="stroke:#000000;stroke-width:1.0;"/><text fill="#000000" font-family="sans-serif" font-size="13" lengthAdjust="spacing" textLength="98" x="442" y="517.0669">est reservé par</text><text fill="#000000" font-family="sans-serif" font-size="13" lengthAdjust="spacing" textLength="8" x="415.4783" y="493.8541">1</text><text fill="#000000" font-family="sans-serif" font-size="13" lengthAdjust="spacing" textLength="8" x="421.5635" y="540.1571">1</text><!--MD5=[a8407828f39a50610473eaf782cca2cc]
link ControleurReservation to Commis--><path codeLine="40" d="M346.817,109.173 C398.511,139.555 462.995,177.453 505.045,202.167 " fill="none" id="ControleurReservation-to-Commis" style="stroke:#A80036;stroke-width:1.0;"/><polygon fill="#A80036" points="509.551,204.815,503.8183,196.8065,505.2403,202.2817,499.765,203.7037,509.551,204.815" style="stroke:#A80036;stroke-width:1.0;"/><!--MD5=[99bb16900e29ad147486046983b0654c]
link ControleurReservation to Categorie--><path codeLine="41" d="M204.703,109.197 C174.471,139.682 144,181.854 144,228 C144,228 144,228 144,582.5 C144,620.791 166.47,657.742 188.571,684.8245 " fill="none" id="ControleurReservation-to-Categorie" style="stroke:#A80036;stroke-width:1.0;"/><polygon fill="#A80036" points="191.827,688.7478,189.1573,679.2677,188.6338,684.9003,183.0012,684.3768,191.827,688.7478" style="stroke:#A80036;stroke-width:1.0;"/><text fill="#000000" font-family="sans-serif" font-size="13" lengthAdjust="spacing" textLength="7" x="177.7593" y="677.9543">*</text><!--MD5=[167df3c105c3e6067a72ddd4908c9b35]
@startuml
class ControleurReservation<controleur de session> {
  Map<<nom:String,categorie:Categorie>>
  +demarrerReservation()
  +reserverChambre(dateArrive:string, dateDepart:string, categorie: String)
  +confirmerReservation(nom:string, telephone:string)

}

class Hotel <Conteneur, Object physique>
class Categorie <<Description d'entité>> {
  -nom: String
  +getChambreLibre(dateArrivé: String,dateDepart:String): Chambre
}
class Reservation <Transaction>{
  -noConfirmation: string
  -dateArrive: date
  -dateDepart: date
  +Reservation(ch:Chambre,c:Commis,dateArrive:String, dateDepart: String)
  +confirmationReservation(cl:Client): string
  -setNoConfirmation()
}
class Commis <Role>

class Chambre <Objet physique, Contenu dans l'hotel, Produit d'une transaction>{
  -numero: string
}
class Client <Role> {
  -nom:string
  -telephone: string
  +Client(Nom:string, telephone:string)
}
class Categorie <Catalogue de chambres ou Description d'entité>

Hotel  *- -> "*" Chambre: possède
Chambre "*" - -o Categorie: appartient
Client  <- -  Reservation: demande
Commis  <- -  Reservation: cree
Hotel  *- - "*" Commis : Emploie
Reservation "1" - -> "1" Chambre : est reservé par <
ControleurReservation - -> Commis
ControleurReservation - -> "*" Categorie
@enduml

PlantUML version 1.2021.2beta9(Unknown compile time)
(GPL source distribution)
Java Runtime: Java(TM) SE Runtime Environment
JVM: Java HotSpot(TM) 64-Bit Server VM
Default Encoding: UTF-8
Language: en
Country: US
--></g></svg>