<?xml version="1.0" encoding="UTF-8" standalone="no"?><svg xmlns="http://www.w3.org/2000/svg" xmlns:xlink="http://www.w3.org/1999/xlink" contentStyleType="text/css" height="1195px" preserveAspectRatio="none" style="width:1346px;height:1195px;background:#FFFFFF;" version="1.1" viewBox="0 0 1346 1195" width="1346px" zoomAndPan="magnify"><defs/><g><!--class ControleurReservation--><g id="elem_ControleurReservation"><rect codeLine="1" fill="#F1F1F1" height="145.7813" id="ControleurReservation" rx="2.5" ry="2.5" style="stroke:#181818;stroke-width:0.5;" width="687" x="7" y="10"/><ellipse cx="231.25" cy="26" fill="#ADD1B2" rx="11" ry="11" style="stroke:#181818;stroke-width:1.0;"/><path d="M233.5938,21.6719 C232.6563,21.2344 232.0625,21.0938 231.1875,21.0938 C228.5625,21.0938 226.5625,23.1719 226.5625,25.8906 L226.5625,27.0156 C226.5625,29.5938 228.6719,31.4844 231.5625,31.4844 C232.7813,31.4844 233.9375,31.1875 234.6875,30.6406 C235.2656,30.2344 235.5938,29.7813 235.5938,29.3906 C235.5938,28.9375 235.2031,28.5469 234.7344,28.5469 C234.5156,28.5469 234.3125,28.625 234.125,28.8125 C233.6719,29.2969 233.6719,29.2969 233.4844,29.3906 C233.0625,29.6563 232.375,29.7813 231.6094,29.7813 C229.5625,29.7813 228.2656,28.6875 228.2656,26.9844 L228.2656,25.8906 C228.2656,24.1094 229.5156,22.7969 231.25,22.7969 C231.8281,22.7969 232.4375,22.9531 232.9063,23.2031 C233.3906,23.4844 233.5625,23.7031 233.6563,24.1094 C233.7188,24.5156 233.75,24.6406 233.8906,24.7656 C234.0313,24.9063 234.2656,25.0156 234.4844,25.0156 C234.75,25.0156 235.0156,24.875 235.1875,24.6563 C235.2969,24.5 235.3281,24.3125 235.3281,23.8906 L235.3281,22.4688 C235.3281,22.0313 235.3125,21.9063 235.2188,21.75 C235.0625,21.4844 234.7813,21.3438 234.4844,21.3438 C234.1875,21.3438 233.9844,21.4375 233.7656,21.75 L233.5938,21.6719 Z " fill="#000000"/><text fill="#000000" font-family="sans-serif" font-size="14" lengthAdjust="spacing" textLength="163" x="251.75" y="30.8467">ControleurReservation</text><rect fill="#FFFFFF" height="15.9688" style="stroke:#181818;stroke-width:1.0;stroke-dasharray:2.0,2.0;" width="65" x="632" y="7"/><text fill="#000000" font-family="sans-serif" font-size="12" font-style="italic" lengthAdjust="spacing" textLength="63" x="633" y="19.1387">Controleur</text><line style="stroke:#181818;stroke-width:0.5;" x1="8" x2="693" y1="42" y2="42"/><text fill="#000000" font-family="sans-serif" font-size="14" lengthAdjust="spacing" textLength="282" x="13" y="58.9951">Map&lt;nom:String,categorie:Categorie&gt;</text><line style="stroke:#181818;stroke-width:0.5;" x1="8" x2="693" y1="66.2969" y2="66.2969"/><ellipse cx="18" cy="79.9453" fill="#84BE84" rx="3" ry="3" style="stroke:#038048;stroke-width:1.0;"/><text fill="#000000" font-family="sans-serif" font-size="14" lengthAdjust="spacing" textLength="163" x="27" y="83.292">demarrerReservation()</text><ellipse cx="18" cy="96.2422" fill="#84BE84" rx="3" ry="3" style="stroke:#038048;stroke-width:1.0;"/><text fill="#000000" font-family="sans-serif" font-size="14" lengthAdjust="spacing" textLength="528" x="27" y="99.5889">reserverChambre(dateArrive:string, dateDepart:string, categorie: String)</text><ellipse cx="18" cy="112.5391" fill="#84BE84" rx="3" ry="3" style="stroke:#038048;stroke-width:1.0;"/><text fill="#000000" font-family="sans-serif" font-size="14" lengthAdjust="spacing" textLength="661" x="27" y="115.8857">reserverChambres(quantity:Integer,dateArrive:String, dateDepart:String, categorie: String)</text><ellipse cx="18" cy="128.8359" fill="#84BE84" rx="3" ry="3" style="stroke:#038048;stroke-width:1.0;"/><text fill="#000000" font-family="sans-serif" font-size="14" lengthAdjust="spacing" textLength="380" x="27" y="132.1826">confirmerReservation(nom:string, telephone: string)</text><text fill="#000000" font-family="sans-serif" font-size="14" lengthAdjust="spacing" textLength="526" x="27" y="148.4795">transfererChambre(noChambreActuel:string, noNouvelleChambre:string)</text></g><!--class Hotel--><g id="elem_Hotel"><rect codeLine="10" fill="#F1F1F1" height="80.5938" id="Hotel" rx="2.5" ry="2.5" style="stroke:#181818;stroke-width:0.5;" width="583" x="752" y="42.5"/><ellipse cx="933.25" cy="58.5" fill="#ADD1B2" rx="11" ry="11" style="stroke:#181818;stroke-width:1.0;"/><path d="M935.5938,54.1719 C934.6563,53.7344 934.0625,53.5938 933.1875,53.5938 C930.5625,53.5938 928.5625,55.6719 928.5625,58.3906 L928.5625,59.5156 C928.5625,62.0938 930.6719,63.9844 933.5625,63.9844 C934.7813,63.9844 935.9375,63.6875 936.6875,63.1406 C937.2656,62.7344 937.5938,62.2813 937.5938,61.8906 C937.5938,61.4375 937.2031,61.0469 936.7344,61.0469 C936.5156,61.0469 936.3125,61.125 936.125,61.3125 C935.6719,61.7969 935.6719,61.7969 935.4844,61.8906 C935.0625,62.1563 934.375,62.2813 933.6094,62.2813 C931.5625,62.2813 930.2656,61.1875 930.2656,59.4844 L930.2656,58.3906 C930.2656,56.6094 931.5156,55.2969 933.25,55.2969 C933.8281,55.2969 934.4375,55.4531 934.9063,55.7031 C935.3906,55.9844 935.5625,56.2031 935.6563,56.6094 C935.7188,57.0156 935.75,57.1406 935.8906,57.2656 C936.0313,57.4063 936.2656,57.5156 936.4844,57.5156 C936.75,57.5156 937.0156,57.375 937.1875,57.1563 C937.2969,57 937.3281,56.8125 937.3281,56.3906 L937.3281,54.9688 C937.3281,54.5313 937.3125,54.4063 937.2188,54.25 C937.0625,53.9844 936.7813,53.8438 936.4844,53.8438 C936.1875,53.8438 935.9844,53.9375 935.7656,54.25 L935.5938,54.1719 Z " fill="#000000"/><text fill="#000000" font-family="sans-serif" font-size="14" lengthAdjust="spacing" textLength="39" x="953.75" y="63.3467">Hotel</text><rect fill="#FFFFFF" height="15.9688" style="stroke:#181818;stroke-width:1.0;stroke-dasharray:2.0,2.0;" width="171" x="1167" y="39.5"/><text fill="#000000" font-family="sans-serif" font-size="12" font-style="italic" lengthAdjust="spacing" textLength="169" x="1168" y="51.6387">Conteneur, Object physique</text><line style="stroke:#181818;stroke-width:0.5;" x1="753" x2="1334" y1="74.5" y2="74.5"/><text fill="#000000" font-family="sans-serif" font-size="14" lengthAdjust="spacing" textLength="293" x="758" y="91.4951">Map&lt;numero:string,chambre:Chambre&gt;</text><line style="stroke:#181818;stroke-width:0.5;" x1="753" x2="1334" y1="98.7969" y2="98.7969"/><text fill="#000000" font-family="sans-serif" font-size="14" lengthAdjust="spacing" textLength="571" x="758" y="115.792">[sejour.reservation,category,sejour.dateFin] = TransferChambre(numero:string)</text></g><!--class Categorie--><g id="elem_Categorie"><rect codeLine="14" fill="#F1F1F1" height="145.7813" id="Categorie" rx="2.5" ry="2.5" style="stroke:#181818;stroke-width:0.5;" width="648" x="88.5" y="1043"/><ellipse cx="275.25" cy="1059" fill="#ADD1B2" rx="11" ry="11" style="stroke:#181818;stroke-width:1.0;"/><path d="M277.5938,1054.6719 C276.6563,1054.2344 276.0625,1054.0938 275.1875,1054.0938 C272.5625,1054.0938 270.5625,1056.1719 270.5625,1058.8906 L270.5625,1060.0156 C270.5625,1062.5938 272.6719,1064.4844 275.5625,1064.4844 C276.7813,1064.4844 277.9375,1064.1875 278.6875,1063.6406 C279.2656,1063.2344 279.5938,1062.7813 279.5938,1062.3906 C279.5938,1061.9375 279.2031,1061.5469 278.7344,1061.5469 C278.5156,1061.5469 278.3125,1061.625 278.125,1061.8125 C277.6719,1062.2969 277.6719,1062.2969 277.4844,1062.3906 C277.0625,1062.6563 276.375,1062.7813 275.6094,1062.7813 C273.5625,1062.7813 272.2656,1061.6875 272.2656,1059.9844 L272.2656,1058.8906 C272.2656,1057.1094 273.5156,1055.7969 275.25,1055.7969 C275.8281,1055.7969 276.4375,1055.9531 276.9063,1056.2031 C277.3906,1056.4844 277.5625,1056.7031 277.6563,1057.1094 C277.7188,1057.5156 277.75,1057.6406 277.8906,1057.7656 C278.0313,1057.9063 278.2656,1058.0156 278.4844,1058.0156 C278.75,1058.0156 279.0156,1057.875 279.1875,1057.6563 C279.2969,1057.5 279.3281,1057.3125 279.3281,1056.8906 L279.3281,1055.4688 C279.3281,1055.0313 279.3125,1054.9063 279.2188,1054.75 C279.0625,1054.4844 278.7813,1054.3438 278.4844,1054.3438 C278.1875,1054.3438 277.9844,1054.4375 277.7656,1054.75 L277.5938,1054.6719 Z " fill="#000000"/><text fill="#000000" font-family="sans-serif" font-size="14" lengthAdjust="spacing" textLength="71" x="295.75" y="1063.8467">Categorie</text><rect fill="#FFFFFF" height="15.9688" style="stroke:#181818;stroke-width:1.0;stroke-dasharray:2.0,2.0;" width="193" x="546.5" y="1040"/><text fill="#000000" font-family="sans-serif" font-size="12" font-style="italic" lengthAdjust="spacing" textLength="122" x="547.5" y="1052.1387">Description d'entité,</text><text fill="#000000" font-family="sans-serif" font-size="12" font-style="italic" font-weight="bold" lengthAdjust="spacing" textLength="69" x="669.5" y="1052.1387">Catalogue</text><line style="stroke:#181818;stroke-width:0.5;" x1="89.5" x2="735.5" y1="1075" y2="1075"/><rect fill="none" height="6" style="stroke:#C82930;stroke-width:1.0;" width="6" x="96.5" y="1085.6484"/><text fill="#000000" font-family="sans-serif" font-size="14" lengthAdjust="spacing" textLength="85" x="108.5" y="1091.9951">nom: String</text><line style="stroke:#181818;stroke-width:0.5;" x1="89.5" x2="735.5" y1="1099.2969" y2="1099.2969"/><ellipse cx="99.5" cy="1112.9453" fill="#84BE84" rx="3" ry="3" style="stroke:#038048;stroke-width:1.0;"/><text fill="#000000" font-family="sans-serif" font-size="14" lengthAdjust="spacing" textLength="479" x="108.5" y="1116.292">getChambreLibre(dateArrivé: String,dateDepart:String): Chambre</text><ellipse cx="99.5" cy="1129.2422" fill="#84BE84" rx="3" ry="3" style="stroke:#038048;stroke-width:1.0;"/><text fill="#000000" font-family="sans-serif" font-size="14" lengthAdjust="spacing" textLength="622" x="108.5" y="1132.5889">getChambresLibre(quantity:Integer, dateArrivé: String,dateDepart:String): [Chambre]</text><text fill="#000000" font-family="sans-serif" font-size="14" lengthAdjust="spacing" textLength="209" x="108.5" y="1148.8857">ch = getChambreDisponible(</text><text fill="#000000" font-family="sans-serif" font-size="14" lengthAdjust="spacing" textLength="135" x="108.5" y="1165.1826">maintenant:string,</text><text fill="#000000" font-family="sans-serif" font-size="14" lengthAdjust="spacing" textLength="106" x="108.5" y="1181.4795">dateFin:string)</text></g><!--class Reservation--><g id="elem_Reservation"><rect codeLine="21" fill="#F1F1F1" height="145.7813" id="Reservation" rx="2.5" ry="2.5" style="stroke:#181818;stroke-width:0.5;" width="638" x="358.5" y="407"/><ellipse cx="593.25" cy="423" fill="#ADD1B2" rx="11" ry="11" style="stroke:#181818;stroke-width:1.0;"/><path d="M595.5938,418.6719 C594.6563,418.2344 594.0625,418.0938 593.1875,418.0938 C590.5625,418.0938 588.5625,420.1719 588.5625,422.8906 L588.5625,424.0156 C588.5625,426.5938 590.6719,428.4844 593.5625,428.4844 C594.7813,428.4844 595.9375,428.1875 596.6875,427.6406 C597.2656,427.2344 597.5938,426.7813 597.5938,426.3906 C597.5938,425.9375 597.2031,425.5469 596.7344,425.5469 C596.5156,425.5469 596.3125,425.625 596.125,425.8125 C595.6719,426.2969 595.6719,426.2969 595.4844,426.3906 C595.0625,426.6563 594.375,426.7813 593.6094,426.7813 C591.5625,426.7813 590.2656,425.6875 590.2656,423.9844 L590.2656,422.8906 C590.2656,421.1094 591.5156,419.7969 593.25,419.7969 C593.8281,419.7969 594.4375,419.9531 594.9063,420.2031 C595.3906,420.4844 595.5625,420.7031 595.6563,421.1094 C595.7188,421.5156 595.75,421.6406 595.8906,421.7656 C596.0313,421.9063 596.2656,422.0156 596.4844,422.0156 C596.75,422.0156 597.0156,421.875 597.1875,421.6563 C597.2969,421.5 597.3281,421.3125 597.3281,420.8906 L597.3281,419.4688 C597.3281,419.0313 597.3125,418.9063 597.2188,418.75 C597.0625,418.4844 596.7813,418.3438 596.4844,418.3438 C596.1875,418.3438 595.9844,418.4375 595.7656,418.75 L595.5938,418.6719 Z " fill="#000000"/><text fill="#000000" font-family="sans-serif" font-size="14" lengthAdjust="spacing" textLength="86" x="613.75" y="427.8467">Reservation</text><rect fill="#FFFFFF" height="15.9688" style="stroke:#181818;stroke-width:1.0;stroke-dasharray:2.0,2.0;" width="72" x="927.5" y="404"/><text fill="#000000" font-family="sans-serif" font-size="12" font-style="italic" lengthAdjust="spacing" textLength="70" x="928.5" y="416.1387">Transaction</text><line style="stroke:#181818;stroke-width:0.5;" x1="359.5" x2="995.5" y1="439" y2="439"/><rect fill="none" height="6" style="stroke:#C82930;stroke-width:1.0;" width="6" x="366.5" y="449.6484"/><text fill="#000000" font-family="sans-serif" font-size="14" lengthAdjust="spacing" textLength="166" x="378.5" y="455.9951">noConfirmation: String</text><line style="stroke:#181818;stroke-width:0.5;" x1="359.5" x2="995.5" y1="463.2969" y2="463.2969"/><ellipse cx="369.5" cy="476.9453" fill="#84BE84" rx="3" ry="3" style="stroke:#038048;stroke-width:1.0;"/><text fill="#000000" font-family="sans-serif" font-size="14" lengthAdjust="spacing" textLength="215" x="378.5" y="480.292">Reservation(commis:Commis)</text><ellipse cx="369.5" cy="493.2422" fill="#84BE84" rx="3" ry="3" style="stroke:#038048;stroke-width:1.0;"/><text fill="#000000" font-family="sans-serif" font-size="14" lengthAdjust="spacing" textLength="533" x="378.5" y="496.5889">Reservation(ch:Chambre,c:Commis,dateArrive:String, dateDepart: String)</text><ellipse cx="369.5" cy="509.5391" fill="#84BE84" rx="3" ry="3" style="stroke:#038048;stroke-width:1.0;"/><text fill="#000000" font-family="sans-serif" font-size="14" lengthAdjust="spacing" textLength="612" x="378.5" y="512.8857">ajouterChambres([ch]:Chambre,dateArrive:String, dateDepart: String): r:Reservation</text><ellipse cx="369.5" cy="525.8359" fill="#84BE84" rx="3" ry="3" style="stroke:#038048;stroke-width:1.0;"/><text fill="#000000" font-family="sans-serif" font-size="14" lengthAdjust="spacing" textLength="227" x="378.5" y="529.1826">confirmerReservation(cl:Client)</text><rect fill="#F24D5C" height="6" style="stroke:#C82930;stroke-width:1.0;" width="6" x="366.5" y="539.1328"/><text fill="#000000" font-family="sans-serif" font-size="14" lengthAdjust="spacing" textLength="147" x="378.5" y="545.4795">setNoConfirmation()</text></g><!--class Sejour--><g id="elem_Sejour"><rect codeLine="30" fill="#F1F1F1" height="194.6719" id="Sejour" rx="2.5" ry="2.5" style="stroke:#181818;stroke-width:0.5;" width="241" x="557" y="630"/><ellipse cx="588.2" cy="646" fill="#ADD1B2" rx="11" ry="11" style="stroke:#181818;stroke-width:1.0;"/><path d="M590.5438,641.6719 C589.6063,641.2344 589.0125,641.0938 588.1375,641.0938 C585.5125,641.0938 583.5125,643.1719 583.5125,645.8906 L583.5125,647.0156 C583.5125,649.5938 585.6219,651.4844 588.5125,651.4844 C589.7313,651.4844 590.8875,651.1875 591.6375,650.6406 C592.2156,650.2344 592.5438,649.7813 592.5438,649.3906 C592.5438,648.9375 592.1531,648.5469 591.6844,648.5469 C591.4656,648.5469 591.2625,648.625 591.075,648.8125 C590.6219,649.2969 590.6219,649.2969 590.4344,649.3906 C590.0125,649.6563 589.325,649.7813 588.5594,649.7813 C586.5125,649.7813 585.2156,648.6875 585.2156,646.9844 L585.2156,645.8906 C585.2156,644.1094 586.4656,642.7969 588.2,642.7969 C588.7781,642.7969 589.3875,642.9531 589.8563,643.2031 C590.3406,643.4844 590.5125,643.7031 590.6063,644.1094 C590.6688,644.5156 590.7,644.6406 590.8406,644.7656 C590.9813,644.9063 591.2156,645.0156 591.4344,645.0156 C591.7,645.0156 591.9656,644.875 592.1375,644.6563 C592.2469,644.5 592.2781,644.3125 592.2781,643.8906 L592.2781,642.4688 C592.2781,642.0313 592.2625,641.9063 592.1688,641.75 C592.0125,641.4844 591.7313,641.3438 591.4344,641.3438 C591.1375,641.3438 590.9344,641.4375 590.7156,641.75 L590.5438,641.6719 Z " fill="#000000"/><text fill="#000000" font-family="sans-serif" font-size="14" lengthAdjust="spacing" textLength="45" x="605.8" y="650.8467">Sejour</text><rect fill="#FFFFFF" height="15.9688" style="stroke:#181818;stroke-width:1.0;stroke-dasharray:2.0,2.0;" width="126" x="675" y="627"/><text fill="#000000" font-family="sans-serif" font-size="12" font-style="italic" lengthAdjust="spacing" textLength="124" x="676" y="639.1387">Ligne de transaction</text><line style="stroke:#181818;stroke-width:0.5;" x1="558" x2="797" y1="662" y2="662"/><rect fill="none" height="6" style="stroke:#C82930;stroke-width:1.0;" width="6" x="565" y="672.6484"/><text fill="#000000" font-family="sans-serif" font-size="14" lengthAdjust="spacing" textLength="163" x="577" y="678.9951">reservation_id:number</text><rect fill="none" height="6" style="stroke:#C82930;stroke-width:1.0;" width="6" x="565" y="688.9453"/><text fill="#000000" font-family="sans-serif" font-size="14" lengthAdjust="spacing" textLength="145" x="577" y="695.292">chambre_id:number</text><rect fill="none" height="6" style="stroke:#C82930;stroke-width:1.0;" width="6" x="565" y="705.2422"/><text fill="#000000" font-family="sans-serif" font-size="14" lengthAdjust="spacing" textLength="120" x="577" y="711.5889">dateArrive: Date</text><rect fill="none" height="6" style="stroke:#C82930;stroke-width:1.0;" width="6" x="565" y="721.5391"/><text fill="#000000" font-family="sans-serif" font-size="14" lengthAdjust="spacing" textLength="128" x="577" y="727.8857">dateDepart: Date</text><line style="stroke:#181818;stroke-width:0.5;" x1="558" x2="797" y1="735.1875" y2="735.1875"/><ellipse cx="568" cy="773.2813" fill="#84BE84" rx="3" ry="3" style="stroke:#038048;stroke-width:1.0;"/><text fill="#000000" font-family="sans-serif" font-size="14" lengthAdjust="spacing" textLength="155" x="577" y="752.1826">Create(r:Reservation,</text><text fill="#000000" font-family="sans-serif" font-size="14" lengthAdjust="spacing" textLength="127" x="577" y="768.4795">dateArrive:string,</text><text fill="#000000" font-family="sans-serif" font-size="14" lengthAdjust="spacing" textLength="135" x="577" y="784.7764">dateDepart:string,</text><text fill="#000000" font-family="sans-serif" font-size="14" lengthAdjust="spacing" textLength="215" x="577" y="801.0732">noNouvelleChambre:number )</text><ellipse cx="568" cy="814.0234" fill="#84BE84" rx="3" ry="3" style="stroke:#038048;stroke-width:1.0;"/><text fill="#000000" font-family="sans-serif" font-size="14" lengthAdjust="spacing" textLength="119" x="577" y="817.3701">terminerSejour()</text></g><!--class Commis--><g id="elem_Commis"><rect codeLine="39" fill="#F1F1F1" height="48" id="Commis" rx="2.5" ry="2.5" style="stroke:#181818;stroke-width:0.5;" width="119" x="784" y="257.5"/><ellipse cx="799" cy="273.5" fill="#ADD1B2" rx="11" ry="11" style="stroke:#181818;stroke-width:1.0;"/><path d="M801.3438,269.1719 C800.4063,268.7344 799.8125,268.5938 798.9375,268.5938 C796.3125,268.5938 794.3125,270.6719 794.3125,273.3906 L794.3125,274.5156 C794.3125,277.0938 796.4219,278.9844 799.3125,278.9844 C800.5313,278.9844 801.6875,278.6875 802.4375,278.1406 C803.0156,277.7344 803.3438,277.2813 803.3438,276.8906 C803.3438,276.4375 802.9531,276.0469 802.4844,276.0469 C802.2656,276.0469 802.0625,276.125 801.875,276.3125 C801.4219,276.7969 801.4219,276.7969 801.2344,276.8906 C800.8125,277.1563 800.125,277.2813 799.3594,277.2813 C797.3125,277.2813 796.0156,276.1875 796.0156,274.4844 L796.0156,273.3906 C796.0156,271.6094 797.2656,270.2969 799,270.2969 C799.5781,270.2969 800.1875,270.4531 800.6563,270.7031 C801.1406,270.9844 801.3125,271.2031 801.4063,271.6094 C801.4688,272.0156 801.5,272.1406 801.6406,272.2656 C801.7813,272.4063 802.0156,272.5156 802.2344,272.5156 C802.5,272.5156 802.7656,272.375 802.9375,272.1563 C803.0469,272 803.0781,271.8125 803.0781,271.3906 L803.0781,269.9688 C803.0781,269.5313 803.0625,269.4063 802.9688,269.25 C802.8125,268.9844 802.5313,268.8438 802.2344,268.8438 C801.9375,268.8438 801.7344,268.9375 801.5156,269.25 L801.3438,269.1719 Z " fill="#000000"/><text fill="#000000" font-family="sans-serif" font-size="14" lengthAdjust="spacing" textLength="58" x="813" y="278.3467">Commis</text><rect fill="#FFFFFF" height="15.9688" style="stroke:#181818;stroke-width:1.0;stroke-dasharray:2.0,2.0;" width="27" x="879" y="254.5"/><text fill="#000000" font-family="sans-serif" font-size="12" font-style="italic" lengthAdjust="spacing" textLength="25" x="880" y="266.6387">Role</text><line style="stroke:#181818;stroke-width:0.5;" x1="785" x2="902" y1="289.5" y2="289.5"/><line style="stroke:#181818;stroke-width:0.5;" x1="785" x2="902" y1="297.5" y2="297.5"/></g><!--class Chambre--><g id="elem_Chambre"><rect codeLine="40" fill="#F1F1F1" height="64.2969" id="Chambre" rx="2.5" ry="2.5" style="stroke:#181818;stroke-width:0.5;" width="486" x="434.5" y="902"/><ellipse cx="449.5" cy="918" fill="#ADD1B2" rx="11" ry="11" style="stroke:#181818;stroke-width:1.0;"/><path d="M451.8438,913.6719 C450.9063,913.2344 450.3125,913.0938 449.4375,913.0938 C446.8125,913.0938 444.8125,915.1719 444.8125,917.8906 L444.8125,919.0156 C444.8125,921.5938 446.9219,923.4844 449.8125,923.4844 C451.0313,923.4844 452.1875,923.1875 452.9375,922.6406 C453.5156,922.2344 453.8438,921.7813 453.8438,921.3906 C453.8438,920.9375 453.4531,920.5469 452.9844,920.5469 C452.7656,920.5469 452.5625,920.625 452.375,920.8125 C451.9219,921.2969 451.9219,921.2969 451.7344,921.3906 C451.3125,921.6563 450.625,921.7813 449.8594,921.7813 C447.8125,921.7813 446.5156,920.6875 446.5156,918.9844 L446.5156,917.8906 C446.5156,916.1094 447.7656,914.7969 449.5,914.7969 C450.0781,914.7969 450.6875,914.9531 451.1563,915.2031 C451.6406,915.4844 451.8125,915.7031 451.9063,916.1094 C451.9688,916.5156 452,916.6406 452.1406,916.7656 C452.2813,916.9063 452.5156,917.0156 452.7344,917.0156 C453,917.0156 453.2656,916.875 453.4375,916.6563 C453.5469,916.5 453.5781,916.3125 453.5781,915.8906 L453.5781,914.4688 C453.5781,914.0313 453.5625,913.9063 453.4688,913.75 C453.3125,913.4844 453.0313,913.3438 452.7344,913.3438 C452.4375,913.3438 452.2344,913.4375 452.0156,913.75 L451.8438,913.6719 Z " fill="#000000"/><text fill="#000000" font-family="sans-serif" font-size="14" lengthAdjust="spacing" textLength="66" x="463.5" y="922.8467">Chambre</text><rect fill="#FFFFFF" height="15.9688" style="stroke:#181818;stroke-width:1.0;stroke-dasharray:2.0,2.0;" width="386" x="537.5" y="899"/><text fill="#000000" font-family="sans-serif" font-size="12" font-style="italic" lengthAdjust="spacing" textLength="384" x="538.5" y="911.1387">Objet physique, Contenu dans l'hotel, Produit d'une transaction</text><line style="stroke:#181818;stroke-width:0.5;" x1="435.5" x2="919.5" y1="934" y2="934"/><line style="stroke:#181818;stroke-width:0.5;" x1="435.5" x2="919.5" y1="942" y2="942"/><text fill="#000000" font-family="sans-serif" font-size="14" lengthAdjust="spacing" textLength="353" x="440.5" y="958.9951">[category,sejour] = TerminerSejourPourTransfer()</text></g><!--class Client--><g id="elem_Client"><rect codeLine="43" fill="#F1F1F1" height="96.8906" id="Client" rx="2.5" ry="2.5" style="stroke:#181818;stroke-width:0.5;" width="288" x="460.5" y="233"/><ellipse cx="564.25" cy="249" fill="#ADD1B2" rx="11" ry="11" style="stroke:#181818;stroke-width:1.0;"/><path d="M566.5938,244.6719 C565.6563,244.2344 565.0625,244.0938 564.1875,244.0938 C561.5625,244.0938 559.5625,246.1719 559.5625,248.8906 L559.5625,250.0156 C559.5625,252.5938 561.6719,254.4844 564.5625,254.4844 C565.7813,254.4844 566.9375,254.1875 567.6875,253.6406 C568.2656,253.2344 568.5938,252.7813 568.5938,252.3906 C568.5938,251.9375 568.2031,251.5469 567.7344,251.5469 C567.5156,251.5469 567.3125,251.625 567.125,251.8125 C566.6719,252.2969 566.6719,252.2969 566.4844,252.3906 C566.0625,252.6563 565.375,252.7813 564.6094,252.7813 C562.5625,252.7813 561.2656,251.6875 561.2656,249.9844 L561.2656,248.8906 C561.2656,247.1094 562.5156,245.7969 564.25,245.7969 C564.8281,245.7969 565.4375,245.9531 565.9063,246.2031 C566.3906,246.4844 566.5625,246.7031 566.6563,247.1094 C566.7188,247.5156 566.75,247.6406 566.8906,247.7656 C567.0313,247.9063 567.2656,248.0156 567.4844,248.0156 C567.75,248.0156 568.0156,247.875 568.1875,247.6563 C568.2969,247.5 568.3281,247.3125 568.3281,246.8906 L568.3281,245.4688 C568.3281,245.0313 568.3125,244.9063 568.2188,244.75 C568.0625,244.4844 567.7813,244.3438 567.4844,244.3438 C567.1875,244.3438 566.9844,244.4375 566.7656,244.75 L566.5938,244.6719 Z " fill="#000000"/><text fill="#000000" font-family="sans-serif" font-size="14" lengthAdjust="spacing" textLength="43" x="584.75" y="253.8467">Client</text><rect fill="#FFFFFF" height="15.9688" style="stroke:#181818;stroke-width:1.0;stroke-dasharray:2.0,2.0;" width="27" x="724.5" y="230"/><text fill="#000000" font-family="sans-serif" font-size="12" font-style="italic" lengthAdjust="spacing" textLength="25" x="725.5" y="242.1387">Role</text><line style="stroke:#181818;stroke-width:0.5;" x1="461.5" x2="747.5" y1="265" y2="265"/><rect fill="none" height="6" style="stroke:#C82930;stroke-width:1.0;" width="6" x="468.5" y="275.6484"/><text fill="#000000" font-family="sans-serif" font-size="14" lengthAdjust="spacing" textLength="79" x="480.5" y="281.9951">nom:string</text><rect fill="none" height="6" style="stroke:#C82930;stroke-width:1.0;" width="6" x="468.5" y="291.9453"/><text fill="#000000" font-family="sans-serif" font-size="14" lengthAdjust="spacing" textLength="122" x="480.5" y="298.292">telephone:string</text><line style="stroke:#181818;stroke-width:0.5;" x1="461.5" x2="747.5" y1="305.5938" y2="305.5938"/><ellipse cx="471.5" cy="319.2422" fill="#84BE84" rx="3" ry="3" style="stroke:#038048;stroke-width:1.0;"/><text fill="#000000" font-family="sans-serif" font-size="14" lengthAdjust="spacing" textLength="262" x="480.5" y="322.5889">Client(nom:string, telephone:string)</text></g><!--link Hotel to Chambre--><g id="link_Hotel_Chambre"><path codeLine="49" d="M1050.9,123.73 C1057.63,163.31 1066.5,225.888 1066.5,280.5 C1066.5,280.5 1066.5,280.5 1066.5,728.5 C1066.5,822.103 977.166,872.957 884.119,900.538 " fill="none" id="Hotel-to-Chambre" style="stroke:#181818;stroke-width:1.0;"/><polygon fill="#181818" points="879.121,901.996,888.8811,903.3152,883.9209,900.5956,886.6405,895.6354,879.121,901.996" style="stroke:#181818;stroke-width:1.0;"/><text fill="#000000" font-family="sans-serif" font-size="13" lengthAdjust="spacing" textLength="54" x="1067.5" y="484.5669">possède</text><text fill="#000000" font-family="sans-serif" font-size="13" lengthAdjust="spacing" textLength="7" x="912.9835" y="890.8983">*</text></g><!--reverse link Chambre to Categorie--><g id="link_Chambre_Categorie"><path codeLine="50" d="M627.184,969.177 C596.475,990.036 556.032,1017.507 518.536,1042.975 " fill="none" id="Chambre-backto-Categorie" style="stroke:#181818;stroke-width:1.0;"/><polygon fill="#181818" points="631.643,966.148,621.9503,967.8951,627.5066,968.957,626.4448,974.5133,631.643,966.148" style="stroke:#181818;stroke-width:1.0;"/><text fill="#000000" font-family="sans-serif" font-size="13" lengthAdjust="spacing" textLength="66" x="585.5" y="1009.0669">appartient</text><text fill="#000000" font-family="sans-serif" font-size="13" lengthAdjust="spacing" textLength="7" x="614.4631" y="986.3754">*</text></g><!--reverse link Client to Reservation--><g id="link_Client_Reservation"><path codeLine="51" d="M622.507,335.196 C627.28,348.847 632.499,363.503 637.5,377 C641.102,386.721 644.983,396.926 648.861,406.968 " fill="none" id="Client-backto-Reservation" style="stroke:#181818;stroke-width:1.0;"/><polygon fill="#181818" points="620.77,330.215,619.9578,340.0303,622.417,334.936,627.5113,337.3951,620.77,330.215" style="stroke:#181818;stroke-width:1.0;"/><text fill="#000000" font-family="sans-serif" font-size="13" lengthAdjust="spacing" textLength="61" x="638.5" y="373.0669">demande</text></g><!--reverse link Commis to Reservation--><g id="link_Commis_Reservation"><path codeLine="52" d="M820.513,309.71 C799.387,334.718 767.113,372.922 738.568,406.711 " fill="none" id="Commis-backto-Reservation" style="stroke:#181818;stroke-width:1.0;"/><polygon fill="#181818" points="823.806,305.813,814.9424,310.1067,820.5793,309.6325,821.0535,315.2694,823.806,305.813" style="stroke:#181818;stroke-width:1.0;"/><text fill="#000000" font-family="sans-serif" font-size="13" lengthAdjust="spacing" textLength="28" x="775.5" y="373.0669">cree</text></g><!--reverse link Hotel to Commis--><g id="link_Hotel_Commis"><path codeLine="53" d="M993.604,133.02 C953.16,172.76 897.971,226.982 867.025,257.387 " fill="none" id="Hotel-backto-Commis" style="stroke:#181818;stroke-width:1.0;"/><polygon fill="#181818" points="1003.027,123.76,995.9439,125.1126,994.4682,132.1711,1001.5513,130.8185,1003.027,123.76" style="stroke:#181818;stroke-width:1.0;"/><text fill="#000000" font-family="sans-serif" font-size="13" lengthAdjust="spacing" textLength="51" x="938.5" y="199.0669">Emploie</text><text fill="#000000" font-family="sans-serif" font-size="13" lengthAdjust="spacing" textLength="7" x="865.1564" y="246.3701">*</text></g><!--link Reservation to Sejour--><g id="link_Reservation_Sejour"><path codeLine="54" d="M677.5,553.33 C677.5,575.646 677.5,600.653 677.5,624.573 " fill="none" id="Reservation-to-Sejour" style="stroke:#181818;stroke-width:1.0;"/><polygon fill="#181818" points="677.5,629.659,681.5,620.659,677.5,624.659,673.5,620.659,677.5,629.659" style="stroke:#181818;stroke-width:1.0;"/><text fill="#000000" font-family="sans-serif" font-size="13" lengthAdjust="spacing" textLength="52" x="678.5" y="596.0669">contient</text><text fill="#000000" font-family="sans-serif" font-size="13" lengthAdjust="spacing" textLength="8" x="669.1313" y="572.8646">1</text><text fill="#000000" font-family="sans-serif" font-size="13" lengthAdjust="spacing" textLength="7" x="670.243" y="619.0068">*</text></g><!--reverse link Sejour to Chambre--><g id="link_Sejour_Chambre"><path codeLine="55" d="M677.5,830.262 C677.5,856.281 677.5,882.342 677.5,901.706 " fill="none" id="Sejour-backto-Chambre" style="stroke:#181818;stroke-width:1.0;"/><polygon fill="#181818" points="677.5,825.061,673.5,834.061,677.5,830.061,681.5,834.061,677.5,825.061" style="stroke:#181818;stroke-width:1.0;"/><polygon fill="#000000" points="682.5,868.5664,685.4389,859.5213,679.5611,859.5213,682.5,868.5664" style="stroke:#000000;stroke-width:1.0;"/><text fill="#000000" font-family="sans-serif" font-size="13" lengthAdjust="spacing" textLength="105" x="691.5" y="868.0669">est résservé par</text><text fill="#000000" font-family="sans-serif" font-size="13" lengthAdjust="spacing" textLength="7" x="670.243" y="844.8602">*</text><text fill="#000000" font-family="sans-serif" font-size="13" lengthAdjust="spacing" textLength="8" x="668.7125" y="890.9223">1</text></g><!--link ControleurReservation to Commis--><g id="link_ControleurReservation_Commis"><path codeLine="56" d="M578.546,156.02 C640.59,178.2 707.045,204.402 766.5,233 C779.485,239.246 793.051,247.115 805.114,254.641 " fill="none" id="ControleurReservation-to-Commis" style="stroke:#181818;stroke-width:1.0;"/><polygon fill="#181818" points="809.487,257.395,804.0035,249.2139,805.2563,254.7303,799.7399,255.983,809.487,257.395" style="stroke:#181818;stroke-width:1.0;"/></g><!--link ControleurReservation to Categorie--><g id="link_ControleurReservation_Categorie"><path codeLine="57" d="M325.762,156.35 C315.305,193.083 305.5,238.678 305.5,280.5 C305.5,280.5 305.5,280.5 305.5,935 C305.5,972.076 322.481,1008.178 342.914,1038.198 " fill="none" id="ControleurReservation-to-Categorie" style="stroke:#181818;stroke-width:1.0;"/><polygon fill="#181818" points="345.952,1042.583,344.1128,1032.9074,343.1038,1038.4735,337.5377,1037.4645,345.952,1042.583" style="stroke:#181818;stroke-width:1.0;"/><text fill="#000000" font-family="sans-serif" font-size="13" lengthAdjust="spacing" textLength="7" x="332.2756" y="1031.9542">*</text></g><!--SRC=[ZLNRJXin47tFLupoGWYxbVfgRIEXf5KhKOf8tmAgDjuXCTgr5zkBXAh-J_CT-R7wkkiGe3mWbl7u-CmvCmEjIwLWBhYMeiPENgD2-LXg9dWnH6U_Hm3VoxRWeY5BBHdVPBJKk16I8Pd7hvd9EgkmAQN456boQW-a2w2SRyjcBN5IcMldKh979Cf3WWqji2sbxaF3C-0VVWbBJHwwackcdyWtRl9HPWdwyXXz-IOw5VoEoUQm1bjw9AMnndOhkBcc-cjQbbpTeHmgv29ydLFTOTrVv-9IT8zOrnZEIKJvCnfHvyXNOTu0Pm5ouq06FzRtI3MqsoV57ZeSBEaCKH6nQG0CmDQHbS9xqSaFSYWcclUKXJChpHV6R-4J_0nbz4Ma-9QX9zYR3iK25PMijS1GdQ3rOR_BfbEJKjPYq-5qEWDBDxSQ1g6jpXlKuPKBTj0H-rrCouvCEoKGBXr2A8znr0ZmNjHL0Berk42tHee1VC5KApXRrpYvuKt9h2lcdTxH6nuKx7NgXKfw20edRadj7xEWoDmtcqj8nKbxZugcOOhCtQ_JezDjj3kZ8US_xPysUsaQG2UJjABRsnxlVJ0494a8lJf2j2Rpcfa6iG_d2lNbGVMJfF-NhY-Xk60RZb2XdwvKkQITVx6Ac3PTexG7OGGEWqaXi33VCHOh2R6pkKJpDJce9_FkFjjLFlXiMztmuzds9C29ROHk64VfoqiBzhv1SMqMxYp6F08KTlQ7qS_0huNEUC4Lr2TRkomok9AYwfWsCzZnOy5MpsRUpVe1dIlp4wT_aaowiomm6-POnKxDXstOnyxyfLUMPhBj_9xByncCf-DOC85MABN_M-4eIc1FYpmVrWw1ihNIssT6WQBBI0UEWFrln2sEb_U532eH0msOcbF7msSJ-DoqjM0uIeTu_77S4_R26H1ZY6FY0v6jJUrhGgL1xdVA8krtOCZ3RFJYVru7xpcyaU28HZd-0G00]--></g></svg>