<?xml version="1.0" encoding="UTF-8" standalone="no"?><svg xmlns="http://www.w3.org/2000/svg" xmlns:xlink="http://www.w3.org/1999/xlink" contentStyleType="text/css" height="833px" preserveAspectRatio="none" style="width:958px;height:833px;background:#FFFFFF;" version="1.1" viewBox="0 0 958 833" width="958px" zoomAndPan="magnify"><defs/><g><!--class ControleurReservation--><g id="elem_ControleurReservation"><rect codeLine="1" fill="#F1F1F1" height="113.1875" id="ControleurReservation" rx="2.5" ry="2.5" style="stroke:#181818;stroke-width:0.5;" width="554" x="7" y="10"/><ellipse cx="132.25" cy="26" fill="#ADD1B2" rx="11" ry="11" style="stroke:#181818;stroke-width:1.0;"/><path d="M134.5938,21.6719 C133.6563,21.2344 133.0625,21.0938 132.1875,21.0938 C129.5625,21.0938 127.5625,23.1719 127.5625,25.8906 L127.5625,27.0156 C127.5625,29.5938 129.6719,31.4844 132.5625,31.4844 C133.7813,31.4844 134.9375,31.1875 135.6875,30.6406 C136.2656,30.2344 136.5938,29.7813 136.5938,29.3906 C136.5938,28.9375 136.2031,28.5469 135.7344,28.5469 C135.5156,28.5469 135.3125,28.625 135.125,28.8125 C134.6719,29.2969 134.6719,29.2969 134.4844,29.3906 C134.0625,29.6563 133.375,29.7813 132.6094,29.7813 C130.5625,29.7813 129.2656,28.6875 129.2656,26.9844 L129.2656,25.8906 C129.2656,24.1094 130.5156,22.7969 132.25,22.7969 C132.8281,22.7969 133.4375,22.9531 133.9063,23.2031 C134.3906,23.4844 134.5625,23.7031 134.6563,24.1094 C134.7188,24.5156 134.75,24.6406 134.8906,24.7656 C135.0313,24.9063 135.2656,25.0156 135.4844,25.0156 C135.75,25.0156 136.0156,24.875 136.1875,24.6563 C136.2969,24.5 136.3281,24.3125 136.3281,23.8906 L136.3281,22.4688 C136.3281,22.0313 136.3125,21.9063 136.2188,21.75 C136.0625,21.4844 135.7813,21.3438 135.4844,21.3438 C135.1875,21.3438 134.9844,21.4375 134.7656,21.75 L134.5938,21.6719 Z " fill="#000000"/><text fill="#000000" font-family="sans-serif" font-size="14" lengthAdjust="spacing" textLength="163" x="152.75" y="30.8467">ControleurReservation</text><rect fill="#FFFFFF" height="15.9688" style="stroke:#181818;stroke-width:1.0;stroke-dasharray:2.0,2.0;" width="130" x="434" y="7"/><text fill="#000000" font-family="sans-serif" font-size="12" font-style="italic" lengthAdjust="spacing" textLength="128" x="435" y="19.1387">controleur de session</text><line style="stroke:#181818;stroke-width:0.5;" x1="8" x2="560" y1="42" y2="42"/><text fill="#000000" font-family="sans-serif" font-size="14" lengthAdjust="spacing" textLength="276" x="13" y="58.9951">Map«nom:String,categorie:Categorie»</text><line style="stroke:#181818;stroke-width:0.5;" x1="8" x2="560" y1="66.2969" y2="66.2969"/><ellipse cx="18" cy="79.9453" fill="#84BE84" rx="3" ry="3" style="stroke:#038048;stroke-width:1.0;"/><text fill="#000000" font-family="sans-serif" font-size="14" lengthAdjust="spacing" textLength="163" x="27" y="83.292">demarrerReservation()</text><ellipse cx="18" cy="96.2422" fill="#84BE84" rx="3" ry="3" style="stroke:#038048;stroke-width:1.0;"/><text fill="#000000" font-family="sans-serif" font-size="14" lengthAdjust="spacing" textLength="528" x="27" y="99.5889">reserverChambre(dateArrive:string, dateDepart:string, categorie: String)</text><ellipse cx="18" cy="112.5391" fill="#84BE84" rx="3" ry="3" style="stroke:#038048;stroke-width:1.0;"/><text fill="#000000" font-family="sans-serif" font-size="14" lengthAdjust="spacing" textLength="376" x="27" y="115.8857">confirmerReservation(nom:string, telephone:string)</text></g><!--class Hotel--><g id="elem_Hotel"><rect codeLine="9" fill="#F1F1F1" height="48" id="Hotel" rx="2.5" ry="2.5" style="stroke:#181818;stroke-width:0.5;" width="244" x="615" y="42.5"/><ellipse cx="630" cy="58.5" fill="#ADD1B2" rx="11" ry="11" style="stroke:#181818;stroke-width:1.0;"/><path d="M632.3438,54.1719 C631.4063,53.7344 630.8125,53.5938 629.9375,53.5938 C627.3125,53.5938 625.3125,55.6719 625.3125,58.3906 L625.3125,59.5156 C625.3125,62.0938 627.4219,63.9844 630.3125,63.9844 C631.5313,63.9844 632.6875,63.6875 633.4375,63.1406 C634.0156,62.7344 634.3438,62.2813 634.3438,61.8906 C634.3438,61.4375 633.9531,61.0469 633.4844,61.0469 C633.2656,61.0469 633.0625,61.125 632.875,61.3125 C632.4219,61.7969 632.4219,61.7969 632.2344,61.8906 C631.8125,62.1563 631.125,62.2813 630.3594,62.2813 C628.3125,62.2813 627.0156,61.1875 627.0156,59.4844 L627.0156,58.3906 C627.0156,56.6094 628.2656,55.2969 630,55.2969 C630.5781,55.2969 631.1875,55.4531 631.6563,55.7031 C632.1406,55.9844 632.3125,56.2031 632.4063,56.6094 C632.4688,57.0156 632.5,57.1406 632.6406,57.2656 C632.7813,57.4063 633.0156,57.5156 633.2344,57.5156 C633.5,57.5156 633.7656,57.375 633.9375,57.1563 C634.0469,57 634.0781,56.8125 634.0781,56.3906 L634.0781,54.9688 C634.0781,54.5313 634.0625,54.4063 633.9688,54.25 C633.8125,53.9844 633.5313,53.8438 633.2344,53.8438 C632.9375,53.8438 632.7344,53.9375 632.5156,54.25 L632.3438,54.1719 Z " fill="#000000"/><text fill="#000000" font-family="sans-serif" font-size="14" lengthAdjust="spacing" textLength="39" x="644" y="63.3467">Hotel</text><rect fill="#FFFFFF" height="15.9688" style="stroke:#181818;stroke-width:1.0;stroke-dasharray:2.0,2.0;" width="171" x="691" y="39.5"/><text fill="#000000" font-family="sans-serif" font-size="12" font-style="italic" lengthAdjust="spacing" textLength="169" x="692" y="51.6387">Conteneur, Object physique</text><line style="stroke:#181818;stroke-width:0.5;" x1="616" x2="858" y1="74.5" y2="74.5"/><line style="stroke:#181818;stroke-width:0.5;" x1="616" x2="858" y1="82.5" y2="82.5"/></g><!--class Categorie--><g id="elem_Categorie"><rect codeLine="32" fill="#F1F1F1" height="88.8594" id="Categorie" rx="2.5" ry="2.5" style="stroke:#181818;stroke-width:0.5;" width="505" x="71.5" y="738"/><ellipse cx="112.15" cy="758.1328" fill="#ADD1B2" rx="11" ry="11" style="stroke:#181818;stroke-width:1.0;"/><path d="M114.4938,753.8047 C113.5563,753.3672 112.9625,753.2266 112.0875,753.2266 C109.4625,753.2266 107.4625,755.3047 107.4625,758.0234 L107.4625,759.1484 C107.4625,761.7266 109.5719,763.6172 112.4625,763.6172 C113.6813,763.6172 114.8375,763.3203 115.5875,762.7734 C116.1656,762.3672 116.4938,761.9141 116.4938,761.5234 C116.4938,761.0703 116.1031,760.6797 115.6344,760.6797 C115.4156,760.6797 115.2125,760.7578 115.025,760.9453 C114.5719,761.4297 114.5719,761.4297 114.3844,761.5234 C113.9625,761.7891 113.275,761.9141 112.5094,761.9141 C110.4625,761.9141 109.1656,760.8203 109.1656,759.1172 L109.1656,758.0234 C109.1656,756.2422 110.4156,754.9297 112.15,754.9297 C112.7281,754.9297 113.3375,755.0859 113.8063,755.3359 C114.2906,755.6172 114.4625,755.8359 114.5563,756.2422 C114.6188,756.6484 114.65,756.7734 114.7906,756.8984 C114.9313,757.0391 115.1656,757.1484 115.3844,757.1484 C115.65,757.1484 115.9156,757.0078 116.0875,756.7891 C116.1969,756.6328 116.2281,756.4453 116.2281,756.0234 L116.2281,754.6016 C116.2281,754.1641 116.2125,754.0391 116.1188,753.8828 C115.9625,753.6172 115.6813,753.4766 115.3844,753.4766 C115.0875,753.4766 114.8844,753.5703 114.6656,753.8828 L114.4938,753.8047 Z " fill="#000000"/><text fill="#000000" font-family="sans-serif" font-size="12" font-style="italic" lengthAdjust="spacing" textLength="132" x="129.85" y="754.1387">«Description d'entité»</text><text fill="#000000" font-family="sans-serif" font-size="14" lengthAdjust="spacing" textLength="71" x="160.35" y="769.9639">Categorie</text><rect fill="#FFFFFF" height="15.9688" style="stroke:#181818;stroke-width:1.0;stroke-dasharray:2.0,2.0;" width="286" x="293.5" y="735"/><text fill="#000000" font-family="sans-serif" font-size="12" font-style="italic" lengthAdjust="spacing" textLength="284" x="294.5" y="747.1387">Catalogue de chambres ou Description d'entité</text><line style="stroke:#181818;stroke-width:0.5;" x1="72.5" x2="575.5" y1="778.2656" y2="778.2656"/><rect fill="none" height="6" style="stroke:#C82930;stroke-width:1.0;" width="6" x="79.5" y="788.9141"/><text fill="#000000" font-family="sans-serif" font-size="14" lengthAdjust="spacing" textLength="85" x="91.5" y="795.2607">nom: String</text><line style="stroke:#181818;stroke-width:0.5;" x1="72.5" x2="575.5" y1="802.5625" y2="802.5625"/><ellipse cx="82.5" cy="816.2109" fill="#84BE84" rx="3" ry="3" style="stroke:#038048;stroke-width:1.0;"/><text fill="#000000" font-family="sans-serif" font-size="14" lengthAdjust="spacing" textLength="479" x="91.5" y="819.5576">getChambreLibre(dateArrivé: String,dateDepart:String): Chambre</text></g><!--class Reservation--><g id="elem_Reservation"><rect codeLine="14" fill="#F1F1F1" height="145.7813" id="Reservation" rx="2.5" ry="2.5" style="stroke:#181818;stroke-width:0.5;" width="559" x="280.5" y="374"/><ellipse cx="475.75" cy="390" fill="#ADD1B2" rx="11" ry="11" style="stroke:#181818;stroke-width:1.0;"/><path d="M478.0938,385.6719 C477.1563,385.2344 476.5625,385.0938 475.6875,385.0938 C473.0625,385.0938 471.0625,387.1719 471.0625,389.8906 L471.0625,391.0156 C471.0625,393.5938 473.1719,395.4844 476.0625,395.4844 C477.2813,395.4844 478.4375,395.1875 479.1875,394.6406 C479.7656,394.2344 480.0938,393.7813 480.0938,393.3906 C480.0938,392.9375 479.7031,392.5469 479.2344,392.5469 C479.0156,392.5469 478.8125,392.625 478.625,392.8125 C478.1719,393.2969 478.1719,393.2969 477.9844,393.3906 C477.5625,393.6563 476.875,393.7813 476.1094,393.7813 C474.0625,393.7813 472.7656,392.6875 472.7656,390.9844 L472.7656,389.8906 C472.7656,388.1094 474.0156,386.7969 475.75,386.7969 C476.3281,386.7969 476.9375,386.9531 477.4063,387.2031 C477.8906,387.4844 478.0625,387.7031 478.1563,388.1094 C478.2188,388.5156 478.25,388.6406 478.3906,388.7656 C478.5313,388.9063 478.7656,389.0156 478.9844,389.0156 C479.25,389.0156 479.5156,388.875 479.6875,388.6563 C479.7969,388.5 479.8281,388.3125 479.8281,387.8906 L479.8281,386.4688 C479.8281,386.0313 479.8125,385.9063 479.7188,385.75 C479.5625,385.4844 479.2813,385.3438 478.9844,385.3438 C478.6875,385.3438 478.4844,385.4375 478.2656,385.75 L478.0938,385.6719 Z " fill="#000000"/><text fill="#000000" font-family="sans-serif" font-size="14" lengthAdjust="spacing" textLength="86" x="496.25" y="394.8467">Reservation</text><rect fill="#FFFFFF" height="15.9688" style="stroke:#181818;stroke-width:1.0;stroke-dasharray:2.0,2.0;" width="72" x="770.5" y="371"/><text fill="#000000" font-family="sans-serif" font-size="12" font-style="italic" lengthAdjust="spacing" textLength="70" x="771.5" y="383.1387">Transaction</text><line style="stroke:#181818;stroke-width:0.5;" x1="281.5" x2="838.5" y1="406" y2="406"/><rect fill="none" height="6" style="stroke:#C82930;stroke-width:1.0;" width="6" x="288.5" y="416.6484"/><text fill="#000000" font-family="sans-serif" font-size="14" lengthAdjust="spacing" textLength="164" x="300.5" y="422.9951">noConfirmation: string</text><rect fill="none" height="6" style="stroke:#C82930;stroke-width:1.0;" width="6" x="288.5" y="432.9453"/><text fill="#000000" font-family="sans-serif" font-size="14" lengthAdjust="spacing" textLength="118" x="300.5" y="439.292">dateArrive: date</text><rect fill="none" height="6" style="stroke:#C82930;stroke-width:1.0;" width="6" x="288.5" y="449.2422"/><text fill="#000000" font-family="sans-serif" font-size="14" lengthAdjust="spacing" textLength="126" x="300.5" y="455.5889">dateDepart: date</text><line style="stroke:#181818;stroke-width:0.5;" x1="281.5" x2="838.5" y1="462.8906" y2="462.8906"/><ellipse cx="291.5" cy="476.5391" fill="#84BE84" rx="3" ry="3" style="stroke:#038048;stroke-width:1.0;"/><text fill="#000000" font-family="sans-serif" font-size="14" lengthAdjust="spacing" textLength="533" x="300.5" y="479.8857">Reservation(ch:Chambre,c:Commis,dateArrive:String, dateDepart: String)</text><ellipse cx="291.5" cy="492.8359" fill="#84BE84" rx="3" ry="3" style="stroke:#038048;stroke-width:1.0;"/><text fill="#000000" font-family="sans-serif" font-size="14" lengthAdjust="spacing" textLength="300" x="300.5" y="496.1826">confirmationReservation(cl:Client): string</text><rect fill="#F24D5C" height="6" style="stroke:#C82930;stroke-width:1.0;" width="6" x="288.5" y="506.1328"/><text fill="#000000" font-family="sans-serif" font-size="14" lengthAdjust="spacing" textLength="147" x="300.5" y="512.4795">setNoConfirmation()</text></g><!--class Commis--><g id="elem_Commis"><rect codeLine="22" fill="#F1F1F1" height="48" id="Commis" rx="2.5" ry="2.5" style="stroke:#181818;stroke-width:0.5;" width="119" x="673.5" y="224.5"/><ellipse cx="688.5" cy="240.5" fill="#ADD1B2" rx="11" ry="11" style="stroke:#181818;stroke-width:1.0;"/><path d="M690.8438,236.1719 C689.9063,235.7344 689.3125,235.5938 688.4375,235.5938 C685.8125,235.5938 683.8125,237.6719 683.8125,240.3906 L683.8125,241.5156 C683.8125,244.0938 685.9219,245.9844 688.8125,245.9844 C690.0313,245.9844 691.1875,245.6875 691.9375,245.1406 C692.5156,244.7344 692.8438,244.2813 692.8438,243.8906 C692.8438,243.4375 692.4531,243.0469 691.9844,243.0469 C691.7656,243.0469 691.5625,243.125 691.375,243.3125 C690.9219,243.7969 690.9219,243.7969 690.7344,243.8906 C690.3125,244.1563 689.625,244.2813 688.8594,244.2813 C686.8125,244.2813 685.5156,243.1875 685.5156,241.4844 L685.5156,240.3906 C685.5156,238.6094 686.7656,237.2969 688.5,237.2969 C689.0781,237.2969 689.6875,237.4531 690.1563,237.7031 C690.6406,237.9844 690.8125,238.2031 690.9063,238.6094 C690.9688,239.0156 691,239.1406 691.1406,239.2656 C691.2813,239.4063 691.5156,239.5156 691.7344,239.5156 C692,239.5156 692.2656,239.375 692.4375,239.1563 C692.5469,239 692.5781,238.8125 692.5781,238.3906 L692.5781,236.9688 C692.5781,236.5313 692.5625,236.4063 692.4688,236.25 C692.3125,235.9844 692.0313,235.8438 691.7344,235.8438 C691.4375,235.8438 691.2344,235.9375 691.0156,236.25 L690.8438,236.1719 Z " fill="#000000"/><text fill="#000000" font-family="sans-serif" font-size="14" lengthAdjust="spacing" textLength="58" x="702.5" y="245.3467">Commis</text><rect fill="#FFFFFF" height="15.9688" style="stroke:#181818;stroke-width:1.0;stroke-dasharray:2.0,2.0;" width="27" x="768.5" y="221.5"/><text fill="#000000" font-family="sans-serif" font-size="12" font-style="italic" lengthAdjust="spacing" textLength="25" x="769.5" y="233.6387">Role</text><line style="stroke:#181818;stroke-width:0.5;" x1="674.5" x2="791.5" y1="256.5" y2="256.5"/><line style="stroke:#181818;stroke-width:0.5;" x1="674.5" x2="791.5" y1="264.5" y2="264.5"/></g><!--class Chambre--><g id="elem_Chambre"><rect codeLine="24" fill="#F1F1F1" height="64.2969" id="Chambre" rx="2.5" ry="2.5" style="stroke:#181818;stroke-width:0.5;" width="486" x="317" y="597"/><ellipse cx="332" cy="613" fill="#ADD1B2" rx="11" ry="11" style="stroke:#181818;stroke-width:1.0;"/><path d="M334.3438,608.6719 C333.4063,608.2344 332.8125,608.0938 331.9375,608.0938 C329.3125,608.0938 327.3125,610.1719 327.3125,612.8906 L327.3125,614.0156 C327.3125,616.5938 329.4219,618.4844 332.3125,618.4844 C333.5313,618.4844 334.6875,618.1875 335.4375,617.6406 C336.0156,617.2344 336.3438,616.7813 336.3438,616.3906 C336.3438,615.9375 335.9531,615.5469 335.4844,615.5469 C335.2656,615.5469 335.0625,615.625 334.875,615.8125 C334.4219,616.2969 334.4219,616.2969 334.2344,616.3906 C333.8125,616.6563 333.125,616.7813 332.3594,616.7813 C330.3125,616.7813 329.0156,615.6875 329.0156,613.9844 L329.0156,612.8906 C329.0156,611.1094 330.2656,609.7969 332,609.7969 C332.5781,609.7969 333.1875,609.9531 333.6563,610.2031 C334.1406,610.4844 334.3125,610.7031 334.4063,611.1094 C334.4688,611.5156 334.5,611.6406 334.6406,611.7656 C334.7813,611.9063 335.0156,612.0156 335.2344,612.0156 C335.5,612.0156 335.7656,611.875 335.9375,611.6563 C336.0469,611.5 336.0781,611.3125 336.0781,610.8906 L336.0781,609.4688 C336.0781,609.0313 336.0625,608.9063 335.9688,608.75 C335.8125,608.4844 335.5313,608.3438 335.2344,608.3438 C334.9375,608.3438 334.7344,608.4375 334.5156,608.75 L334.3438,608.6719 Z " fill="#000000"/><text fill="#000000" font-family="sans-serif" font-size="14" lengthAdjust="spacing" textLength="66" x="346" y="617.8467">Chambre</text><rect fill="#FFFFFF" height="15.9688" style="stroke:#181818;stroke-width:1.0;stroke-dasharray:2.0,2.0;" width="386" x="420" y="594"/><text fill="#000000" font-family="sans-serif" font-size="12" font-style="italic" lengthAdjust="spacing" textLength="384" x="421" y="606.1387">Objet physique, Contenu dans l'hotel, Produit d'une transaction</text><line style="stroke:#181818;stroke-width:0.5;" x1="318" x2="802" y1="629" y2="629"/><rect fill="none" height="6" style="stroke:#C82930;stroke-width:1.0;" width="6" x="325" y="639.6484"/><text fill="#000000" font-family="sans-serif" font-size="14" lengthAdjust="spacing" textLength="106" x="337" y="645.9951">numero: string</text><line style="stroke:#181818;stroke-width:0.5;" x1="318" x2="802" y1="653.2969" y2="653.2969"/></g><!--class Client--><g id="elem_Client"><rect codeLine="27" fill="#F1F1F1" height="96.8906" id="Client" rx="2.5" ry="2.5" style="stroke:#181818;stroke-width:0.5;" width="289" x="349.5" y="200"/><ellipse cx="453.75" cy="216" fill="#ADD1B2" rx="11" ry="11" style="stroke:#181818;stroke-width:1.0;"/><path d="M456.0938,211.6719 C455.1563,211.2344 454.5625,211.0938 453.6875,211.0938 C451.0625,211.0938 449.0625,213.1719 449.0625,215.8906 L449.0625,217.0156 C449.0625,219.5938 451.1719,221.4844 454.0625,221.4844 C455.2813,221.4844 456.4375,221.1875 457.1875,220.6406 C457.7656,220.2344 458.0938,219.7813 458.0938,219.3906 C458.0938,218.9375 457.7031,218.5469 457.2344,218.5469 C457.0156,218.5469 456.8125,218.625 456.625,218.8125 C456.1719,219.2969 456.1719,219.2969 455.9844,219.3906 C455.5625,219.6563 454.875,219.7813 454.1094,219.7813 C452.0625,219.7813 450.7656,218.6875 450.7656,216.9844 L450.7656,215.8906 C450.7656,214.1094 452.0156,212.7969 453.75,212.7969 C454.3281,212.7969 454.9375,212.9531 455.4063,213.2031 C455.8906,213.4844 456.0625,213.7031 456.1563,214.1094 C456.2188,214.5156 456.25,214.6406 456.3906,214.7656 C456.5313,214.9063 456.7656,215.0156 456.9844,215.0156 C457.25,215.0156 457.5156,214.875 457.6875,214.6563 C457.7969,214.5 457.8281,214.3125 457.8281,213.8906 L457.8281,212.4688 C457.8281,212.0313 457.8125,211.9063 457.7188,211.75 C457.5625,211.4844 457.2813,211.3438 456.9844,211.3438 C456.6875,211.3438 456.4844,211.4375 456.2656,211.75 L456.0938,211.6719 Z " fill="#000000"/><text fill="#000000" font-family="sans-serif" font-size="14" lengthAdjust="spacing" textLength="43" x="474.25" y="220.8467">Client</text><rect fill="#FFFFFF" height="15.9688" style="stroke:#181818;stroke-width:1.0;stroke-dasharray:2.0,2.0;" width="27" x="614.5" y="197"/><text fill="#000000" font-family="sans-serif" font-size="12" font-style="italic" lengthAdjust="spacing" textLength="25" x="615.5" y="209.1387">Role</text><line style="stroke:#181818;stroke-width:0.5;" x1="350.5" x2="637.5" y1="232" y2="232"/><rect fill="none" height="6" style="stroke:#C82930;stroke-width:1.0;" width="6" x="357.5" y="242.6484"/><text fill="#000000" font-family="sans-serif" font-size="14" lengthAdjust="spacing" textLength="79" x="369.5" y="248.9951">nom:string</text><rect fill="none" height="6" style="stroke:#C82930;stroke-width:1.0;" width="6" x="357.5" y="258.9453"/><text fill="#000000" font-family="sans-serif" font-size="14" lengthAdjust="spacing" textLength="126" x="369.5" y="265.292">telephone: string</text><line style="stroke:#181818;stroke-width:0.5;" x1="350.5" x2="637.5" y1="272.5938" y2="272.5938"/><ellipse cx="360.5" cy="286.2422" fill="#84BE84" rx="3" ry="3" style="stroke:#038048;stroke-width:1.0;"/><text fill="#000000" font-family="sans-serif" font-size="14" lengthAdjust="spacing" textLength="263" x="369.5" y="289.5889">Client(Nom:string, telephone:string)</text></g><!--link Hotel to Chambre--><g id="link_Hotel_Chambre"><path codeLine="34" d="M762.5314,100.3759 C762.5314,100.3759 951.105,385.647 857,520 C833.852,553.048 799.494,576.022 762.276,591.981 " fill="none" id="Hotel-Chambre" style="stroke:#181818;stroke-width:1.0;"/><polygon fill="#181818" points="755.366,90.75,755.74,97.9514,762.5314,100.3759,762.1573,93.1745,755.366,90.75" style="stroke:#181818;stroke-width:1.0;"/><polygon fill="#181818" points="750.103,596.92,759.9466,597.243,754.7362,595.0402,756.9389,589.8299,750.103,596.92" style="stroke:#181818;stroke-width:1.0;"/><line style="stroke:#181818;stroke-width:1.0;" x1="754.7362" x2="762.1495" y1="595.0402" y2="592.033"/><text fill="#000000" font-family="sans-serif" font-size="13" lengthAdjust="spacing" textLength="54" x="883" y="340.0669">possède</text><text fill="#000000" font-family="sans-serif" font-size="13" lengthAdjust="spacing" textLength="7" x="781.5899" y="585.8066">*</text></g><!--link Chambre to Categorie--><g id="link_Chambre_Categorie"><path codeLine="35" d="M511.672,661.024 C480.386,681.108 438.92,707.727 402.923,730.8355 " fill="none" id="Chambre-to-Categorie" style="stroke:#181818;stroke-width:1.0;"/><polygon fill="none" points="391.944,737.8832,399.154,738.008,402.0423,731.4006,394.8323,731.2758,391.944,737.8832" style="stroke:#181818;stroke-width:1.0;"/><text fill="#000000" font-family="sans-serif" font-size="13" lengthAdjust="spacing" textLength="66" x="465" y="704.0669">appartient</text><text fill="#000000" font-family="sans-serif" font-size="13" lengthAdjust="spacing" textLength="7" x="493.9825" y="681.2258">*</text></g><!--reverse link Client to Reservation--><g id="link_Client_Reservation"><path codeLine="36" d="M493.729,302.409 C494.788,316.18 496.941,330.839 501,344 C504.105,354.068 508.349,364.212 513.147,373.996 " fill="none" id="Client-backto-Reservation" style="stroke:#181818;stroke-width:1.0;"/><polygon fill="#181818" points="493.386,297.381,490.0072,306.6322,493.726,302.3694,497.9887,306.0882,493.386,297.381" style="stroke:#181818;stroke-width:1.0;"/><text fill="#000000" font-family="sans-serif" font-size="13" lengthAdjust="spacing" textLength="61" x="502" y="340.0669">demande</text></g><!--reverse link Commis to Reservation--><g id="link_Commis_Reservation"><path codeLine="37" d="M709.044,276.71 C687.027,301.718 653.392,339.922 623.643,373.711 " fill="none" id="Commis-backto-Reservation" style="stroke:#181818;stroke-width:1.0;"/><polygon fill="#181818" points="712.475,272.813,703.5254,276.9245,709.1709,276.5657,709.5297,282.2112,712.475,272.813" style="stroke:#181818;stroke-width:1.0;"/><text fill="#000000" font-family="sans-serif" font-size="13" lengthAdjust="spacing" textLength="28" x="662" y="340.0669">cree</text></g><!--reverse link Hotel to Commis--><g id="link_Hotel_Commis"><path codeLine="38" d="M736.19,103.958 C735.389,139.973 734.19,193.959 733.513,224.426 " fill="none" id="Hotel-backto-Commis" style="stroke:#181818;stroke-width:1.0;"/><polygon fill="#181818" points="736.485,90.663,732.3528,96.5727,736.2186,102.66,740.3508,96.7503,736.485,90.663" style="stroke:#181818;stroke-width:1.0;"/><text fill="#000000" font-family="sans-serif" font-size="13" lengthAdjust="spacing" textLength="51" x="736" y="166.0669">Emploie</text><text fill="#000000" font-family="sans-serif" font-size="13" lengthAdjust="spacing" textLength="7" x="725.7476" y="213.4191">*</text></g><!--link Reservation to Chambre--><g id="link_Reservation_Chambre"><path codeLine="39" d="M560,520.176 C560,544.701 560,571.066 560,591.586 " fill="none" id="Reservation-to-Chambre" style="stroke:#181818;stroke-width:1.0;"/><polygon fill="#181818" points="560,596.672,564,587.672,560,591.672,556,587.672,560,596.672" style="stroke:#181818;stroke-width:1.0;"/><polygon fill="#000000" points="565,553.5664,562.0611,562.6115,567.9389,562.6115,565,553.5664" style="stroke:#000000;stroke-width:1.0;"/><text fill="#000000" font-family="sans-serif" font-size="13" lengthAdjust="spacing" textLength="98" x="574" y="563.0669">est reservé par</text><text fill="#000000" font-family="sans-serif" font-size="13" lengthAdjust="spacing" textLength="8" x="551.6188" y="539.9491">1</text><text fill="#000000" font-family="sans-serif" font-size="13" lengthAdjust="spacing" textLength="8" x="551.2125" y="585.8816">1</text></g><!--link ControleurReservation to Commis--><g id="link_ControleurReservation_Commis"><path codeLine="40" d="M464.029,123.069 C526.015,144.432 595.119,170.782 656,200 C668.99,206.234 682.558,214.1 694.621,221.627 " fill="none" id="ControleurReservation-to-Commis" style="stroke:#181818;stroke-width:1.0;"/><polygon fill="#181818" points="698.994,224.381,693.5125,216.1985,694.7639,221.7152,689.2472,222.9667,698.994,224.381" style="stroke:#181818;stroke-width:1.0;"/></g><!--link ControleurReservation to Categorie--><g id="link_ControleurReservation_Categorie"><path codeLine="41" d="M256.669,123.225 C242.04,158.079 227,204.395 227,247.5 C227,247.5 227,247.5 227,630 C227,669.144 250.251,706.274 273.986,733.9783 " fill="none" id="ControleurReservation-to-Categorie" style="stroke:#181818;stroke-width:1.0;"/><polygon fill="#181818" points="277.489,737.9966,274.5899,728.5841,274.2033,734.2277,268.5597,733.8412,277.489,737.9966" style="stroke:#181818;stroke-width:1.0;"/><text fill="#000000" font-family="sans-serif" font-size="13" lengthAdjust="spacing" textLength="7" x="262.5185" y="726.7977">*</text></g><!--SRC=[VLH1Rjim4Bpp5GjVOiVIeLU2450e1NfeqoBf1nXgQx6GI9Ma0XH5_bE_mnyhAP8M3HivMLukTsPsHX83jnPQhPpH0yxc2IsQL-waLaoSgz0XMBJMLnluIm2-yeanfKVwx8nKXqfmXmTj9D8sFpMDxzjtE79Zi9oxtOK3inJGj3qVNmnkEt_lep7o5QcDCo6K7d3YnfrBAmv4v6MM9_fJcl4I9R3BrnmEEFLQvTaxGju84OlspzgV0WihGEMrLl3jvHSA1rF_nyhVCpQfyQmC67j0AuoS0X1qTwYSTATZ4tTJ1-H4Bx0xe4iYlyWBfQTZRgiAgKaNXNJ9CutuXJXWFmnNbelmfqcWRTp2qa31PlowsEooqbnBUBcsBvSdUfhWAq5RFOxILiMSvsk7RlYnZBgOEj1sa7vRkvAVHVTuGTu796kEqC2UV0oRx5XY1YmOjVfKGVHmzhIKXU6k3yvMyDteRfRE-pGh17UrkDa7Hvy9dP4NeWbvzNMblMPgrRAFjxQFxsRlxJfG_f4F-Z1ZUDD4r6T1pt0xQ8J4rC9zNJUmkT_adL2OjBMdVnsIlALmMjTwHQF0fs1PO4gIJ61r3MN2V2pycwl2d6Z1ZGvX40iYaKVifl1fd0OjaPIftNm8L9hbDzEZWDP1_1gSZk290ICtlqVBrJZ_dOQ5H9Rw7m00]--></g></svg>