<?xml version="1.0" encoding="UTF-8" standalone="no"?><svg xmlns="http://www.w3.org/2000/svg" xmlns:xlink="http://www.w3.org/1999/xlink" contentStyleType="text/css" height="717px" preserveAspectRatio="none" style="width:612px;height:717px;background:#FFFFFF;" version="1.1" viewBox="0 0 612 717" width="612px" zoomAndPan="magnify"><defs/><g><!--class Hotel--><g id="elem_Hotel"><rect codeLine="1" fill="#F1F1F1" height="56.2656" id="Hotel" rx="2.5" ry="2.5" style="stroke:#181818;stroke-width:0.5;" width="211" x="54.5" y="7"/><ellipse cx="69.5" cy="27.1328" fill="#ADD1B2" rx="11" ry="11" style="stroke:#181818;stroke-width:1.0;"/><path d="M71.8438,22.8047 C70.9063,22.3672 70.3125,22.2266 69.4375,22.2266 C66.8125,22.2266 64.8125,24.3047 64.8125,27.0234 L64.8125,28.1484 C64.8125,30.7266 66.9219,32.6172 69.8125,32.6172 C71.0313,32.6172 72.1875,32.3203 72.9375,31.7734 C73.5156,31.3672 73.8438,30.9141 73.8438,30.5234 C73.8438,30.0703 73.4531,29.6797 72.9844,29.6797 C72.7656,29.6797 72.5625,29.7578 72.375,29.9453 C71.9219,30.4297 71.9219,30.4297 71.7344,30.5234 C71.3125,30.7891 70.625,30.9141 69.8594,30.9141 C67.8125,30.9141 66.5156,29.8203 66.5156,28.1172 L66.5156,27.0234 C66.5156,25.2422 67.7656,23.9297 69.5,23.9297 C70.0781,23.9297 70.6875,24.0859 71.1563,24.3359 C71.6406,24.6172 71.8125,24.8359 71.9063,25.2422 C71.9688,25.6484 72,25.7734 72.1406,25.8984 C72.2813,26.0391 72.5156,26.1484 72.7344,26.1484 C73,26.1484 73.2656,26.0078 73.4375,25.7891 C73.5469,25.6328 73.5781,25.4453 73.5781,25.0234 L73.5781,23.6016 C73.5781,23.1641 73.5625,23.0391 73.4688,22.8828 C73.3125,22.6172 73.0313,22.4766 72.7344,22.4766 C72.4375,22.4766 72.2344,22.5703 72.0156,22.8828 L71.8438,22.8047 Z " fill="#000000"/><text fill="#000000" font-family="sans-serif" font-size="12" font-style="italic" lengthAdjust="spacing" textLength="183" x="81.5" y="23.1387">«Conteneur, Object physique»</text><text fill="#000000" font-family="sans-serif" font-size="14" lengthAdjust="spacing" textLength="39" x="153.5" y="38.9639">Hotel</text><line style="stroke:#181818;stroke-width:0.5;" x1="55.5" x2="264.5" y1="47.2656" y2="47.2656"/><line style="stroke:#181818;stroke-width:0.5;" x1="55.5" x2="264.5" y1="55.2656" y2="55.2656"/></g><!--class Categorie--><g id="elem_Categorie"><rect codeLine="2" fill="#F1F1F1" height="72.5625" id="Categorie" rx="2.5" ry="2.5" style="stroke:#181818;stroke-width:0.5;" width="160" x="140" y="638"/><ellipse cx="155" cy="658.1328" fill="#ADD1B2" rx="11" ry="11" style="stroke:#181818;stroke-width:1.0;"/><path d="M157.3438,653.8047 C156.4063,653.3672 155.8125,653.2266 154.9375,653.2266 C152.3125,653.2266 150.3125,655.3047 150.3125,658.0234 L150.3125,659.1484 C150.3125,661.7266 152.4219,663.6172 155.3125,663.6172 C156.5313,663.6172 157.6875,663.3203 158.4375,662.7734 C159.0156,662.3672 159.3438,661.9141 159.3438,661.5234 C159.3438,661.0703 158.9531,660.6797 158.4844,660.6797 C158.2656,660.6797 158.0625,660.7578 157.875,660.9453 C157.4219,661.4297 157.4219,661.4297 157.2344,661.5234 C156.8125,661.7891 156.125,661.9141 155.3594,661.9141 C153.3125,661.9141 152.0156,660.8203 152.0156,659.1172 L152.0156,658.0234 C152.0156,656.2422 153.2656,654.9297 155,654.9297 C155.5781,654.9297 156.1875,655.0859 156.6563,655.3359 C157.1406,655.6172 157.3125,655.8359 157.4063,656.2422 C157.4688,656.6484 157.5,656.7734 157.6406,656.8984 C157.7813,657.0391 158.0156,657.1484 158.2344,657.1484 C158.5,657.1484 158.7656,657.0078 158.9375,656.7891 C159.0469,656.6328 159.0781,656.4453 159.0781,656.0234 L159.0781,654.6016 C159.0781,654.1641 159.0625,654.0391 158.9688,653.8828 C158.8125,653.6172 158.5313,653.4766 158.2344,653.4766 C157.9375,653.4766 157.7344,653.5703 157.5156,653.8828 L157.3438,653.8047 Z " fill="#000000"/><text fill="#000000" font-family="sans-serif" font-size="12" font-style="italic" lengthAdjust="spacing" textLength="132" x="167" y="654.1387">«Description d'entité»</text><text fill="#000000" font-family="sans-serif" font-size="14" lengthAdjust="spacing" textLength="71" x="197.5" y="669.9639">Categorie</text><line style="stroke:#181818;stroke-width:0.5;" x1="141" x2="299" y1="678.2656" y2="678.2656"/><text fill="#000000" font-family="sans-serif" font-size="14" lengthAdjust="spacing" textLength="85" x="146" y="695.2607">nom: String</text><line style="stroke:#181818;stroke-width:0.5;" x1="141" x2="299" y1="702.5625" y2="702.5625"/></g><!--class Reservation--><g id="elem_Reservation"><rect codeLine="5" fill="#F1F1F1" height="105.1563" id="Reservation" rx="2.5" ry="2.5" style="stroke:#181818;stroke-width:0.5;" width="176" x="132" y="306"/><ellipse cx="173.1" cy="326.1328" fill="#ADD1B2" rx="11" ry="11" style="stroke:#181818;stroke-width:1.0;"/><path d="M175.4438,321.8047 C174.5063,321.3672 173.9125,321.2266 173.0375,321.2266 C170.4125,321.2266 168.4125,323.3047 168.4125,326.0234 L168.4125,327.1484 C168.4125,329.7266 170.5219,331.6172 173.4125,331.6172 C174.6313,331.6172 175.7875,331.3203 176.5375,330.7734 C177.1156,330.3672 177.4438,329.9141 177.4438,329.5234 C177.4438,329.0703 177.0531,328.6797 176.5844,328.6797 C176.3656,328.6797 176.1625,328.7578 175.975,328.9453 C175.5219,329.4297 175.5219,329.4297 175.3344,329.5234 C174.9125,329.7891 174.225,329.9141 173.4594,329.9141 C171.4125,329.9141 170.1156,328.8203 170.1156,327.1172 L170.1156,326.0234 C170.1156,324.2422 171.3656,322.9297 173.1,322.9297 C173.6781,322.9297 174.2875,323.0859 174.7563,323.3359 C175.2406,323.6172 175.4125,323.8359 175.5063,324.2422 C175.5688,324.6484 175.6,324.7734 175.7406,324.8984 C175.8813,325.0391 176.1156,325.1484 176.3344,325.1484 C176.6,325.1484 176.8656,325.0078 177.0375,324.7891 C177.1469,324.6328 177.1781,324.4453 177.1781,324.0234 L177.1781,322.6016 C177.1781,322.1641 177.1625,322.0391 177.0688,321.8828 C176.9125,321.6172 176.6313,321.4766 176.3344,321.4766 C176.0375,321.4766 175.8344,321.5703 175.6156,321.8828 L175.4438,321.8047 Z " fill="#000000"/><text fill="#000000" font-family="sans-serif" font-size="12" font-style="italic" lengthAdjust="spacing" textLength="84" x="193.9" y="322.1387">«Transaction»</text><text fill="#000000" font-family="sans-serif" font-size="14" lengthAdjust="spacing" textLength="86" x="192.9" y="337.9639">Reservation</text><line style="stroke:#181818;stroke-width:0.5;" x1="133" x2="307" y1="346.2656" y2="346.2656"/><text fill="#000000" font-family="sans-serif" font-size="14" lengthAdjust="spacing" textLength="118" x="138" y="363.2607">dateArrive: date</text><text fill="#000000" font-family="sans-serif" font-size="14" lengthAdjust="spacing" textLength="126" x="138" y="379.5576">dateDepart: date</text><text fill="#000000" font-family="sans-serif" font-size="14" lengthAdjust="spacing" textLength="164" x="138" y="395.8545">noConfirmation: string</text><line style="stroke:#181818;stroke-width:0.5;" x1="133" x2="307" y1="403.1563" y2="403.1563"/></g><!--class Commis--><g id="elem_Commis"><rect codeLine="10" fill="#F1F1F1" height="56.2656" id="Commis" rx="2.5" ry="2.5" style="stroke:#181818;stroke-width:0.5;" width="90" x="301" y="156.5"/><ellipse cx="316" cy="176.6328" fill="#ADD1B2" rx="11" ry="11" style="stroke:#181818;stroke-width:1.0;"/><path d="M318.3438,172.3047 C317.4063,171.8672 316.8125,171.7266 315.9375,171.7266 C313.3125,171.7266 311.3125,173.8047 311.3125,176.5234 L311.3125,177.6484 C311.3125,180.2266 313.4219,182.1172 316.3125,182.1172 C317.5313,182.1172 318.6875,181.8203 319.4375,181.2734 C320.0156,180.8672 320.3438,180.4141 320.3438,180.0234 C320.3438,179.5703 319.9531,179.1797 319.4844,179.1797 C319.2656,179.1797 319.0625,179.2578 318.875,179.4453 C318.4219,179.9297 318.4219,179.9297 318.2344,180.0234 C317.8125,180.2891 317.125,180.4141 316.3594,180.4141 C314.3125,180.4141 313.0156,179.3203 313.0156,177.6172 L313.0156,176.5234 C313.0156,174.7422 314.2656,173.4297 316,173.4297 C316.5781,173.4297 317.1875,173.5859 317.6563,173.8359 C318.1406,174.1172 318.3125,174.3359 318.4063,174.7422 C318.4688,175.1484 318.5,175.2734 318.6406,175.3984 C318.7813,175.5391 319.0156,175.6484 319.2344,175.6484 C319.5,175.6484 319.7656,175.5078 319.9375,175.2891 C320.0469,175.1328 320.0781,174.9453 320.0781,174.5234 L320.0781,173.1016 C320.0781,172.6641 320.0625,172.5391 319.9688,172.3828 C319.8125,172.1172 319.5313,171.9766 319.2344,171.9766 C318.9375,171.9766 318.7344,172.0703 318.5156,172.3828 L318.3438,172.3047 Z " fill="#000000"/><text fill="#000000" font-family="sans-serif" font-size="12" font-style="italic" lengthAdjust="spacing" textLength="39" x="339.5" y="172.6387">«Role»</text><text fill="#000000" font-family="sans-serif" font-size="14" lengthAdjust="spacing" textLength="58" x="330" y="188.4639">Commis</text><line style="stroke:#181818;stroke-width:0.5;" x1="302" x2="390" y1="196.7656" y2="196.7656"/><line style="stroke:#181818;stroke-width:0.5;" x1="302" x2="390" y1="204.7656" y2="204.7656"/></g><!--class Chambre--><g id="elem_Chambre"><rect codeLine="11" fill="#F1F1F1" height="72.5625" id="Chambre" rx="2.5" ry="2.5" style="stroke:#181818;stroke-width:0.5;" width="426" x="7" y="488"/><ellipse cx="22" cy="508.1328" fill="#ADD1B2" rx="11" ry="11" style="stroke:#181818;stroke-width:1.0;"/><path d="M24.3438,503.8047 C23.4063,503.3672 22.8125,503.2266 21.9375,503.2266 C19.3125,503.2266 17.3125,505.3047 17.3125,508.0234 L17.3125,509.1484 C17.3125,511.7266 19.4219,513.6172 22.3125,513.6172 C23.5313,513.6172 24.6875,513.3203 25.4375,512.7734 C26.0156,512.3672 26.3438,511.9141 26.3438,511.5234 C26.3438,511.0703 25.9531,510.6797 25.4844,510.6797 C25.2656,510.6797 25.0625,510.7578 24.875,510.9453 C24.4219,511.4297 24.4219,511.4297 24.2344,511.5234 C23.8125,511.7891 23.125,511.9141 22.3594,511.9141 C20.3125,511.9141 19.0156,510.8203 19.0156,509.1172 L19.0156,508.0234 C19.0156,506.2422 20.2656,504.9297 22,504.9297 C22.5781,504.9297 23.1875,505.0859 23.6563,505.3359 C24.1406,505.6172 24.3125,505.8359 24.4063,506.2422 C24.4688,506.6484 24.5,506.7734 24.6406,506.8984 C24.7813,507.0391 25.0156,507.1484 25.2344,507.1484 C25.5,507.1484 25.7656,507.0078 25.9375,506.7891 C26.0469,506.6328 26.0781,506.4453 26.0781,506.0234 L26.0781,504.6016 C26.0781,504.1641 26.0625,504.0391 25.9688,503.8828 C25.8125,503.6172 25.5313,503.4766 25.2344,503.4766 C24.9375,503.4766 24.7344,503.5703 24.5156,503.8828 L24.3438,503.8047 Z " fill="#000000"/><text fill="#000000" font-family="sans-serif" font-size="12" font-style="italic" lengthAdjust="spacing" textLength="398" x="34" y="504.1387">«Objet physique, Contenu dans l'hotel, Produit d'une transaction»</text><text fill="#000000" font-family="sans-serif" font-size="14" lengthAdjust="spacing" textLength="66" x="200" y="519.9639">Chambre</text><line style="stroke:#181818;stroke-width:0.5;" x1="8" x2="432" y1="528.2656" y2="528.2656"/><text fill="#000000" font-family="sans-serif" font-size="14" lengthAdjust="spacing" textLength="102" x="13" y="545.2607">numero:string</text><line style="stroke:#181818;stroke-width:0.5;" x1="8" x2="432" y1="552.5625" y2="552.5625"/></g><g id="elem_GMN7"><path d="M343,338.5 L343,378.7656 L605,378.7656 L605,348.5 L595,338.5 L343,338.5 " fill="#FEFFDD" style="stroke:#181818;stroke-width:0.5;"/><path d="M595,338.5 L595,348.5 L605,348.5 L595,338.5 " fill="#FEFFDD" style="stroke:#181818;stroke-width:1.0;"/><text fill="#000000" font-family="sans-serif" font-size="13" lengthAdjust="spacing" textLength="210" x="349" y="355.5669">Chambre.numero est nécessaire</text><text fill="#000000" font-family="sans-serif" font-size="13" lengthAdjust="spacing" textLength="241" x="349" y="370.6997">pour savoir quel chambre est réservé</text></g><!--class Client--><g id="elem_Client"><rect codeLine="15" fill="#F1F1F1" height="88.8594" id="Client" rx="2.5" ry="2.5" style="stroke:#181818;stroke-width:0.5;" width="134" x="132" y="140"/><ellipse cx="173.55" cy="160.1328" fill="#ADD1B2" rx="11" ry="11" style="stroke:#181818;stroke-width:1.0;"/><path d="M175.8938,155.8047 C174.9563,155.3672 174.3625,155.2266 173.4875,155.2266 C170.8625,155.2266 168.8625,157.3047 168.8625,160.0234 L168.8625,161.1484 C168.8625,163.7266 170.9719,165.6172 173.8625,165.6172 C175.0813,165.6172 176.2375,165.3203 176.9875,164.7734 C177.5656,164.3672 177.8938,163.9141 177.8938,163.5234 C177.8938,163.0703 177.5031,162.6797 177.0344,162.6797 C176.8156,162.6797 176.6125,162.7578 176.425,162.9453 C175.9719,163.4297 175.9719,163.4297 175.7844,163.5234 C175.3625,163.7891 174.675,163.9141 173.9094,163.9141 C171.8625,163.9141 170.5656,162.8203 170.5656,161.1172 L170.5656,160.0234 C170.5656,158.2422 171.8156,156.9297 173.55,156.9297 C174.1281,156.9297 174.7375,157.0859 175.2063,157.3359 C175.6906,157.6172 175.8625,157.8359 175.9563,158.2422 C176.0188,158.6484 176.05,158.7734 176.1906,158.8984 C176.3313,159.0391 176.5656,159.1484 176.7844,159.1484 C177.05,159.1484 177.3156,159.0078 177.4875,158.7891 C177.5969,158.6328 177.6281,158.4453 177.6281,158.0234 L177.6281,156.6016 C177.6281,156.1641 177.6125,156.0391 177.5188,155.8828 C177.3625,155.6172 177.0813,155.4766 176.7844,155.4766 C176.4875,155.4766 176.2844,155.5703 176.0656,155.8828 L175.8938,155.8047 Z " fill="#000000"/><text fill="#000000" font-family="sans-serif" font-size="12" font-style="italic" lengthAdjust="spacing" textLength="39" x="195.45" y="156.1387">«Role»</text><text fill="#000000" font-family="sans-serif" font-size="14" lengthAdjust="spacing" textLength="43" x="193.45" y="171.9639">Client</text><line style="stroke:#181818;stroke-width:0.5;" x1="133" x2="265" y1="180.2656" y2="180.2656"/><text fill="#000000" font-family="sans-serif" font-size="14" lengthAdjust="spacing" textLength="79" x="138" y="197.2607">nom:string</text><text fill="#000000" font-family="sans-serif" font-size="14" lengthAdjust="spacing" textLength="122" x="138" y="213.5576">telephone:string</text><line style="stroke:#181818;stroke-width:0.5;" x1="133" x2="265" y1="220.8594" y2="220.8594"/></g><!--link GMN7 to Chambre--><g id="link_GMN7_Chambre"><path d="M446.546,378.602 C417.397,398.746 369.849,431.215 328,458 C312.485,467.93 295.524,478.396 279.737,487.976 " fill="none" id="GMN7-Chambre" style="stroke:#181818;stroke-width:1.0;stroke-dasharray:7.0,7.0;"/></g><!--link Hotel to Chambre--><g id="link_Hotel_Chambre"><path codeLine="20" d="M144.547,63.229 C133.891,83.638 120.665,112.644 115,140 C90.5777,257.942 70.8325,298.946 115,411 C126.903,441.199 151.16,468.074 173.362,487.977 " fill="none" id="Hotel-Chambre" style="stroke:#181818;stroke-width:1.0;"/><text fill="#000000" font-family="sans-serif" font-size="13" lengthAdjust="spacing" textLength="54" x="92" y="272.0669">possède</text><text fill="#000000" font-family="sans-serif" font-size="13" lengthAdjust="spacing" textLength="8" x="132.0485" y="83.5429">1</text><text fill="#000000" font-family="sans-serif" font-size="13" lengthAdjust="spacing" textLength="7" x="157.1178" y="476.9797">*</text></g><!--link Chambre to Categorie--><g id="link_Chambre_Categorie"><path codeLine="21" d="M220,561.327 C220,584.51 220,614.5779 220,637.7471 " fill="none" id="Chambre-Categorie" style="stroke:#181818;stroke-width:1.0;"/><text fill="#000000" font-family="sans-serif" font-size="13" lengthAdjust="spacing" textLength="66" x="221" y="604.0669">appartient</text><text fill="#000000" font-family="sans-serif" font-size="13" lengthAdjust="spacing" textLength="7" x="212.4422" y="580.504">*</text><text fill="#000000" font-family="sans-serif" font-size="13" lengthAdjust="spacing" textLength="8" x="211.2875" y="626.9822">1</text></g><!--link Client to Reservation--><g id="link_Client_Reservation"><path codeLine="22" d="M204.354,229.348 C207.197,252.638 210.71,281.407 213.686,305.783 " fill="none" id="Client-Reservation" style="stroke:#181818;stroke-width:1.0;"/><text fill="#000000" font-family="sans-serif" font-size="13" lengthAdjust="spacing" textLength="61" x="210" y="272.0669">demande</text><text fill="#000000" font-family="sans-serif" font-size="13" lengthAdjust="spacing" textLength="8" x="196.5444" y="248.7956">1</text><text fill="#000000" font-family="sans-serif" font-size="13" lengthAdjust="spacing" textLength="8" x="204.3001" y="294.7567">1</text></g><!--link Commis to Reservation--><g id="link_Commis_Reservation"><path codeLine="23" d="M326.104,212.849 C313.022,230.815 295.516,254.824 280,276 C272.938,285.637 265.395,295.905 258.124,305.789 " fill="none" id="Commis-Reservation" style="stroke:#181818;stroke-width:1.0;"/><text fill="#000000" font-family="sans-serif" font-size="13" lengthAdjust="spacing" textLength="28" x="291" y="272.0669">cree</text><text fill="#000000" font-family="sans-serif" font-size="13" lengthAdjust="spacing" textLength="8" x="312.8767" y="232.7433">1</text><text fill="#000000" font-family="sans-serif" font-size="13" lengthAdjust="spacing" textLength="7" x="255.7766" y="294.7635">*</text></g><!--link Hotel to Commis--><g id="link_Hotel_Commis"><path codeLine="24" d="M194.115,63.054 C227.571,89.584 278.297,129.811 311.787,156.368 " fill="none" id="Hotel-Commis" style="stroke:#181818;stroke-width:1.0;"/><text fill="#000000" font-family="sans-serif" font-size="13" lengthAdjust="spacing" textLength="51" x="254" y="106.0669">Emploie</text><text fill="#000000" font-family="sans-serif" font-size="13" lengthAdjust="spacing" textLength="8" x="193.0791" y="83.3274">1</text><text fill="#000000" font-family="sans-serif" font-size="13" lengthAdjust="spacing" textLength="7" x="296.5373" y="145.6259">*</text></g><!--link Reservation to Chambre--><g id="link_Reservation_Chambre"><path codeLine="25" d="M220,411.391 C220,436.259 220,465.417 220,487.763 " fill="none" id="Reservation-Chambre" style="stroke:#181818;stroke-width:1.0;"/><text fill="#000000" font-family="sans-serif" font-size="13" lengthAdjust="spacing" textLength="98" x="221" y="454.0669">est reservé par</text><text fill="#000000" font-family="sans-serif" font-size="13" lengthAdjust="spacing" textLength="8" x="211.4875" y="431.194">1</text><text fill="#000000" font-family="sans-serif" font-size="13" lengthAdjust="spacing" textLength="8" x="211.2875" y="477.001">1</text></g><!--SRC=[RL9BQiCm4Dtx58CtWP8KkXN6K992TorfbzqezYHMiJJgI0wKqllKv_35AlaNftHbMNxpVkEYbix18tci8SksP3mQR7WDJuTtB3pOwjEfZmRpF2bww5PwF14h3F0TkeALzOeCb2iqNlckpNFuIW0CQG4ldfKv9T_Zx1uTybds-2nxPMcSBE9RdiUHCb3VCwipYluyNktGIlRpbQ7WygXOzpm2tBN6bhHMBj3lgLwuhgG-SFGSSrrYhM68t0Hsuw1ULR69DJmpbOto8LLZ4FnVfwRHo2G6QGZQ9eo19mjqdBN4TBeTu83EW-dQ0fsJAW3UZAM6mSapAORWfePYd8rGxjfOLzTE6MeLAfwJJIMF-G62SRGL6HHp9ScmsFGkXSq6qfjqiYJ0adFTJud9P3T-ZQ20dNSiGDfOVXHEHls9B3mM-mphGIrDv1iMiD2yWXMC-8-jOKZ0WxOrAKoMlyf2yT9jtn0E1K7m-0i0]--></g></svg>