<?xml version="1.0" encoding="UTF-8" standalone="no"?><svg xmlns="http://www.w3.org/2000/svg" xmlns:xlink="http://www.w3.org/1999/xlink" contentScriptType="application/ecmascript" contentStyleType="text/css" height="952px" preserveAspectRatio="none" style="width:880px;height:952px;" version="1.1" viewBox="0 0 880 952" width="880px" zoomAndPan="magnify"><defs><filter height="300%" id="f1n8wlwm2o2yvv" width="300%" x="-1" y="-1"><feGaussianBlur result="blurOut" stdDeviation="2.0"/><feColorMatrix in="blurOut" result="blurOut2" type="matrix" values="0 0 0 0 0 0 0 0 0 0 0 0 0 0 0 0 0 0 .4 0"/><feOffset dx="4.0" dy="4.0" in="blurOut2" result="blurOut3"/><feBlend in="SourceGraphic" in2="blurOut3" mode="normal"/></filter></defs><g><!--MD5=[e1d3770cbd048901ea869e126190a56e]
class ControleurReservation--><rect codeLine="1" fill="#FEFECE" filter="url(#f1n8wlwm2o2yvv)" height="112.0234" id="ControleurReservation" style="stroke:#A80036;stroke-width:1.5;" width="539" x="7" y="10"/><ellipse cx="171.75" cy="26" fill="#ADD1B2" rx="11" ry="11" style="stroke:#A80036;stroke-width:1.0;"/><path d="M174.0938,21.6719 C173.1563,21.2344 172.5625,21.0938 171.6875,21.0938 C169.0625,21.0938 167.0625,23.1719 167.0625,25.8906 L167.0625,27.0156 C167.0625,29.5938 169.1719,31.4844 172.0625,31.4844 C173.2813,31.4844 174.4375,31.1875 175.1875,30.6406 C175.7656,30.2344 176.0938,29.7813 176.0938,29.3906 C176.0938,28.9375 175.7031,28.5469 175.2344,28.5469 C175.0156,28.5469 174.8125,28.625 174.625,28.8125 C174.1719,29.2969 174.1719,29.2969 173.9844,29.3906 C173.5625,29.6563 172.875,29.7813 172.1094,29.7813 C170.0625,29.7813 168.7656,28.6875 168.7656,26.9844 L168.7656,25.8906 C168.7656,24.1094 170.0156,22.7969 171.75,22.7969 C172.3281,22.7969 172.9375,22.9531 173.4063,23.2031 C173.8906,23.4844 174.0625,23.7031 174.1563,24.1094 C174.2188,24.5156 174.25,24.6406 174.3906,24.7656 C174.5313,24.9063 174.7656,25.0156 174.9844,25.0156 C175.25,25.0156 175.5156,24.875 175.6875,24.6563 C175.7969,24.5 175.8281,24.3125 175.8281,23.8906 L175.8281,22.4688 C175.8281,22.0313 175.8125,21.9063 175.7188,21.75 C175.5625,21.4844 175.2813,21.3438 174.9844,21.3438 C174.6875,21.3438 174.4844,21.4375 174.2656,21.75 L174.0938,21.6719 Z " fill="#000000"/><text fill="#000000" font-family="sans-serif" font-size="12" lengthAdjust="spacing" textLength="134" x="192.25" y="30.1543">ControleurReservation</text><rect fill="#FFFFFF" height="15.9688" style="stroke:#000000;stroke-width:1.0;stroke-dasharray:2.0,2.0;" width="65" x="484" y="7"/><text fill="#000000" font-family="sans-serif" font-size="12" font-style="italic" lengthAdjust="spacing" textLength="63" x="485" y="19.1387">Controleur</text><line style="stroke:#A80036;stroke-width:1.5;" x1="8" x2="545" y1="42" y2="42"/><text fill="#000000" font-family="sans-serif" font-size="11" lengthAdjust="spacing" textLength="218" x="13" y="56.2104">Map&lt;nom:String,categorie:Categorie&gt;</text><line style="stroke:#A80036;stroke-width:1.5;" x1="8" x2="545" y1="62.8047" y2="62.8047"/><ellipse cx="18" cy="73.8047" fill="#84BE84" rx="3" ry="3" style="stroke:#038048;stroke-width:1.0;"/><text fill="#000000" font-family="sans-serif" font-size="11" lengthAdjust="spacing" textLength="129" x="27" y="77.0151">demarrerReservation()</text><ellipse cx="18" cy="86.6094" fill="#84BE84" rx="3" ry="3" style="stroke:#038048;stroke-width:1.0;"/><text fill="#000000" font-family="sans-serif" font-size="11" lengthAdjust="spacing" textLength="410" x="27" y="89.8198">reserverChambre(dateArrive:string, dateDepart:string, categorie: String)</text><ellipse cx="18" cy="99.4141" fill="#84BE84" rx="3" ry="3" style="stroke:#038048;stroke-width:1.0;"/><text fill="#000000" font-family="sans-serif" font-size="11" lengthAdjust="spacing" textLength="513" x="27" y="102.6245">reserverChambres(quantity:Integer,dateArrive:String, dateDepart:String, categorie: String)</text><ellipse cx="18" cy="112.2188" fill="#84BE84" rx="3" ry="3" style="stroke:#038048;stroke-width:1.0;"/><text fill="#000000" font-family="sans-serif" font-size="11" lengthAdjust="spacing" textLength="293" x="27" y="115.4292">confirmerReservation(nom:string, telephone: string)</text><!--MD5=[3110dbef8258a6b966b2e55d3546d21d]
class Hotel--><rect codeLine="9" fill="#FEFECE" filter="url(#f1n8wlwm2o2yvv)" height="48" id="Hotel" style="stroke:#A80036;stroke-width:1.5;" width="237" x="629" y="42"/><ellipse cx="644" cy="58" fill="#ADD1B2" rx="11" ry="11" style="stroke:#A80036;stroke-width:1.0;"/><path d="M646.3438,53.6719 C645.4063,53.2344 644.8125,53.0938 643.9375,53.0938 C641.3125,53.0938 639.3125,55.1719 639.3125,57.8906 L639.3125,59.0156 C639.3125,61.5938 641.4219,63.4844 644.3125,63.4844 C645.5313,63.4844 646.6875,63.1875 647.4375,62.6406 C648.0156,62.2344 648.3438,61.7813 648.3438,61.3906 C648.3438,60.9375 647.9531,60.5469 647.4844,60.5469 C647.2656,60.5469 647.0625,60.625 646.875,60.8125 C646.4219,61.2969 646.4219,61.2969 646.2344,61.3906 C645.8125,61.6563 645.125,61.7813 644.3594,61.7813 C642.3125,61.7813 641.0156,60.6875 641.0156,58.9844 L641.0156,57.8906 C641.0156,56.1094 642.2656,54.7969 644,54.7969 C644.5781,54.7969 645.1875,54.9531 645.6563,55.2031 C646.1406,55.4844 646.3125,55.7031 646.4063,56.1094 C646.4688,56.5156 646.5,56.6406 646.6406,56.7656 C646.7813,56.9063 647.0156,57.0156 647.2344,57.0156 C647.5,57.0156 647.7656,56.875 647.9375,56.6563 C648.0469,56.5 648.0781,56.3125 648.0781,55.8906 L648.0781,54.4688 C648.0781,54.0313 648.0625,53.9063 647.9688,53.75 C647.8125,53.4844 647.5313,53.3438 647.2344,53.3438 C646.9375,53.3438 646.7344,53.4375 646.5156,53.75 L646.3438,53.6719 Z " fill="#000000"/><text fill="#000000" font-family="sans-serif" font-size="12" lengthAdjust="spacing" textLength="32" x="658" y="62.1543">Hotel</text><rect fill="#FFFFFF" height="15.9688" style="stroke:#000000;stroke-width:1.0;stroke-dasharray:2.0,2.0;" width="171" x="698" y="39"/><text fill="#000000" font-family="sans-serif" font-size="12" font-style="italic" lengthAdjust="spacing" textLength="169" x="699" y="51.1387">Conteneur, Object physique</text><line style="stroke:#A80036;stroke-width:1.5;" x1="630" x2="865" y1="74" y2="74"/><line style="stroke:#A80036;stroke-width:1.5;" x1="630" x2="865" y1="82" y2="82"/><!--MD5=[f9ef9660f44628e549271a3193d2c3b4]
class Categorie--><rect codeLine="10" fill="#FEFECE" filter="url(#f1n8wlwm2o2yvv)" height="86.4141" id="Categorie" style="stroke:#A80036;stroke-width:1.5;" width="507" x="15" y="852"/><ellipse cx="137.25" cy="868" fill="#ADD1B2" rx="11" ry="11" style="stroke:#A80036;stroke-width:1.0;"/><path d="M139.5938,863.6719 C138.6563,863.2344 138.0625,863.0938 137.1875,863.0938 C134.5625,863.0938 132.5625,865.1719 132.5625,867.8906 L132.5625,869.0156 C132.5625,871.5938 134.6719,873.4844 137.5625,873.4844 C138.7813,873.4844 139.9375,873.1875 140.6875,872.6406 C141.2656,872.2344 141.5938,871.7813 141.5938,871.3906 C141.5938,870.9375 141.2031,870.5469 140.7344,870.5469 C140.5156,870.5469 140.3125,870.625 140.125,870.8125 C139.6719,871.2969 139.6719,871.2969 139.4844,871.3906 C139.0625,871.6563 138.375,871.7813 137.6094,871.7813 C135.5625,871.7813 134.2656,870.6875 134.2656,868.9844 L134.2656,867.8906 C134.2656,866.1094 135.5156,864.7969 137.25,864.7969 C137.8281,864.7969 138.4375,864.9531 138.9063,865.2031 C139.3906,865.4844 139.5625,865.7031 139.6563,866.1094 C139.7188,866.5156 139.75,866.6406 139.8906,866.7656 C140.0313,866.9063 140.2656,867.0156 140.4844,867.0156 C140.75,867.0156 141.0156,866.875 141.1875,866.6563 C141.2969,866.5 141.3281,866.3125 141.3281,865.8906 L141.3281,864.4688 C141.3281,864.0313 141.3125,863.9063 141.2188,863.75 C141.0625,863.4844 140.7813,863.3438 140.4844,863.3438 C140.1875,863.3438 139.9844,863.4375 139.7656,863.75 L139.5938,863.6719 Z " fill="#000000"/><text fill="#000000" font-family="sans-serif" font-size="12" lengthAdjust="spacing" textLength="59" x="157.75" y="872.1543">Categorie</text><rect fill="#FFFFFF" height="15.9688" style="stroke:#000000;stroke-width:1.0;stroke-dasharray:2.0,2.0;" width="193" x="332" y="849"/><text fill="#000000" font-family="sans-serif" font-size="12" font-style="italic" lengthAdjust="spacing" textLength="122" x="333" y="861.1387">Description d'entité,</text><text fill="#000000" font-family="sans-serif" font-size="12" font-style="italic" font-weight="bold" lengthAdjust="spacing" textLength="69" x="455" y="861.1387">Catalogue</text><line style="stroke:#A80036;stroke-width:1.5;" x1="16" x2="521" y1="884" y2="884"/><rect fill="none" height="6" style="stroke:#C82930;stroke-width:1.0;" width="6" x="23" y="892"/><text fill="#000000" font-family="sans-serif" font-size="11" lengthAdjust="spacing" textLength="65" x="35" y="898.2104">nom: String</text><line style="stroke:#A80036;stroke-width:1.5;" x1="16" x2="521" y1="904.8047" y2="904.8047"/><ellipse cx="26" cy="915.8047" fill="#84BE84" rx="3" ry="3" style="stroke:#038048;stroke-width:1.0;"/><text fill="#000000" font-family="sans-serif" font-size="11" lengthAdjust="spacing" textLength="370" x="35" y="919.0151">getChambreLibre(dateArrivé: String,dateDepart:String): Chambre</text><ellipse cx="26" cy="928.6094" fill="#84BE84" rx="3" ry="3" style="stroke:#038048;stroke-width:1.0;"/><text fill="#000000" font-family="sans-serif" font-size="11" lengthAdjust="spacing" textLength="481" x="35" y="931.8198">getChambresLibre(quantity:Integer, dateArrivé: String,dateDepart:String): [Chambre]</text><!--MD5=[9c46470aa33a0c75e6d1dfdefc2f9c22]
class Reservation--><rect codeLine="15" fill="#FEFECE" filter="url(#f1n8wlwm2o2yvv)" height="124.8281" id="Reservation" style="stroke:#A80036;stroke-width:1.5;" width="494" x="232.5" y="362"/><ellipse cx="402.75" cy="378" fill="#ADD1B2" rx="11" ry="11" style="stroke:#A80036;stroke-width:1.0;"/><path d="M405.0938,373.6719 C404.1563,373.2344 403.5625,373.0938 402.6875,373.0938 C400.0625,373.0938 398.0625,375.1719 398.0625,377.8906 L398.0625,379.0156 C398.0625,381.5938 400.1719,383.4844 403.0625,383.4844 C404.2813,383.4844 405.4375,383.1875 406.1875,382.6406 C406.7656,382.2344 407.0938,381.7813 407.0938,381.3906 C407.0938,380.9375 406.7031,380.5469 406.2344,380.5469 C406.0156,380.5469 405.8125,380.625 405.625,380.8125 C405.1719,381.2969 405.1719,381.2969 404.9844,381.3906 C404.5625,381.6563 403.875,381.7813 403.1094,381.7813 C401.0625,381.7813 399.7656,380.6875 399.7656,378.9844 L399.7656,377.8906 C399.7656,376.1094 401.0156,374.7969 402.75,374.7969 C403.3281,374.7969 403.9375,374.9531 404.4063,375.2031 C404.8906,375.4844 405.0625,375.7031 405.1563,376.1094 C405.2188,376.5156 405.25,376.6406 405.3906,376.7656 C405.5313,376.9063 405.7656,377.0156 405.9844,377.0156 C406.25,377.0156 406.5156,376.875 406.6875,376.6563 C406.7969,376.5 406.8281,376.3125 406.8281,375.8906 L406.8281,374.4688 C406.8281,374.0313 406.8125,373.9063 406.7188,373.75 C406.5625,373.4844 406.2813,373.3438 405.9844,373.3438 C405.6875,373.3438 405.4844,373.4375 405.2656,373.75 L405.0938,373.6719 Z " fill="#000000"/><text fill="#000000" font-family="sans-serif" font-size="12" lengthAdjust="spacing" textLength="71" x="423.25" y="382.1543">Reservation</text><rect fill="#FFFFFF" height="15.9688" style="stroke:#000000;stroke-width:1.0;stroke-dasharray:2.0,2.0;" width="72" x="657.5" y="359"/><text fill="#000000" font-family="sans-serif" font-size="12" font-style="italic" lengthAdjust="spacing" textLength="70" x="658.5" y="371.1387">Transaction</text><line style="stroke:#A80036;stroke-width:1.5;" x1="233.5" x2="725.5" y1="394" y2="394"/><rect fill="none" height="6" style="stroke:#C82930;stroke-width:1.0;" width="6" x="240.5" y="402"/><text fill="#000000" font-family="sans-serif" font-size="11" lengthAdjust="spacing" textLength="126" x="252.5" y="408.2104">noConfirmation: String</text><line style="stroke:#A80036;stroke-width:1.5;" x1="233.5" x2="725.5" y1="414.8047" y2="414.8047"/><ellipse cx="243.5" cy="425.8047" fill="#84BE84" rx="3" ry="3" style="stroke:#038048;stroke-width:1.0;"/><text fill="#000000" font-family="sans-serif" font-size="11" lengthAdjust="spacing" textLength="169" x="252.5" y="429.0151">Reservation(commis:Commis)</text><ellipse cx="243.5" cy="438.6094" fill="#84BE84" rx="3" ry="3" style="stroke:#038048;stroke-width:1.0;"/><text fill="#000000" font-family="sans-serif" font-size="11" lengthAdjust="spacing" textLength="413" x="252.5" y="441.8198">Reservation(ch:Chambre,c:Commis,dateArrive:String, dateDepart: String)</text><ellipse cx="243.5" cy="451.4141" fill="#84BE84" rx="3" ry="3" style="stroke:#038048;stroke-width:1.0;"/><text fill="#000000" font-family="sans-serif" font-size="11" lengthAdjust="spacing" textLength="468" x="252.5" y="454.6245">ajouterChambres([ch]:Chambre,dateArrive:String, dateDepart: String): String (json)</text><ellipse cx="243.5" cy="464.2188" fill="#84BE84" rx="3" ry="3" style="stroke:#038048;stroke-width:1.0;"/><text fill="#000000" font-family="sans-serif" font-size="11" lengthAdjust="spacing" textLength="175" x="252.5" y="467.4292">confirmerReservation(cl:Client)</text><rect fill="#F24D5C" height="6" style="stroke:#C82930;stroke-width:1.0;" width="6" x="240.5" y="474.0234"/><text fill="#000000" font-family="sans-serif" font-size="11" lengthAdjust="spacing" textLength="113" x="252.5" y="480.2339">setNoConfirmation()</text><!--MD5=[2e4e974c7455092da497cc666bb39ee4]
class LigneReservation--><rect codeLine="24" fill="#FEFECE" filter="url(#f1n8wlwm2o2yvv)" height="86.4141" id="LigneReservation" style="stroke:#A80036;stroke-width:1.5;" width="358" x="300.5" y="564"/><ellipse cx="359.75" cy="580" fill="#ADD1B2" rx="11" ry="11" style="stroke:#A80036;stroke-width:1.0;"/><path d="M362.0938,575.6719 C361.1563,575.2344 360.5625,575.0938 359.6875,575.0938 C357.0625,575.0938 355.0625,577.1719 355.0625,579.8906 L355.0625,581.0156 C355.0625,583.5938 357.1719,585.4844 360.0625,585.4844 C361.2813,585.4844 362.4375,585.1875 363.1875,584.6406 C363.7656,584.2344 364.0938,583.7813 364.0938,583.3906 C364.0938,582.9375 363.7031,582.5469 363.2344,582.5469 C363.0156,582.5469 362.8125,582.625 362.625,582.8125 C362.1719,583.2969 362.1719,583.2969 361.9844,583.3906 C361.5625,583.6563 360.875,583.7813 360.1094,583.7813 C358.0625,583.7813 356.7656,582.6875 356.7656,580.9844 L356.7656,579.8906 C356.7656,578.1094 358.0156,576.7969 359.75,576.7969 C360.3281,576.7969 360.9375,576.9531 361.4063,577.2031 C361.8906,577.4844 362.0625,577.7031 362.1563,578.1094 C362.2188,578.5156 362.25,578.6406 362.3906,578.7656 C362.5313,578.9063 362.7656,579.0156 362.9844,579.0156 C363.25,579.0156 363.5156,578.875 363.6875,578.6563 C363.7969,578.5 363.8281,578.3125 363.8281,577.8906 L363.8281,576.4688 C363.8281,576.0313 363.8125,575.9063 363.7188,575.75 C363.5625,575.4844 363.2813,575.3438 362.9844,575.3438 C362.6875,575.3438 362.4844,575.4375 362.2656,575.75 L362.0938,575.6719 Z " fill="#000000"/><text fill="#000000" font-family="sans-serif" font-size="12" lengthAdjust="spacing" textLength="103" x="380.25" y="584.1543">LigneReservation</text><rect fill="#FFFFFF" height="15.9688" style="stroke:#000000;stroke-width:1.0;stroke-dasharray:2.0,2.0;" width="126" x="535.5" y="561"/><text fill="#000000" font-family="sans-serif" font-size="12" font-style="italic" lengthAdjust="spacing" textLength="124" x="536.5" y="573.1387">Ligne de transaction</text><line style="stroke:#A80036;stroke-width:1.5;" x1="301.5" x2="657.5" y1="596" y2="596"/><rect fill="none" height="6" style="stroke:#C82930;stroke-width:1.0;" width="6" x="308.5" y="604"/><text fill="#000000" font-family="sans-serif" font-size="11" lengthAdjust="spacing" textLength="95" x="320.5" y="610.2104">dateArrive: Date</text><rect fill="none" height="6" style="stroke:#C82930;stroke-width:1.0;" width="6" x="308.5" y="616.8047"/><text fill="#000000" font-family="sans-serif" font-size="11" lengthAdjust="spacing" textLength="100" x="320.5" y="623.0151">dateDepart: Date</text><line style="stroke:#A80036;stroke-width:1.5;" x1="301.5" x2="657.5" y1="629.6094" y2="629.6094"/><ellipse cx="311.5" cy="640.6094" fill="#84BE84" rx="3" ry="3" style="stroke:#038048;stroke-width:1.0;"/><text fill="#000000" font-family="sans-serif" font-size="11" lengthAdjust="spacing" textLength="332" x="320.5" y="643.8198">create([ch]:Chambre,dateArrive:String, dateDepart: String)</text><!--MD5=[aeb2a05b656f26b4e931c999627a7b50]
class Commis--><rect codeLine="30" fill="#FEFECE" filter="url(#f1n8wlwm2o2yvv)" height="48" id="Commis" style="stroke:#A80036;stroke-width:1.5;" width="109" x="569" y="218"/><ellipse cx="584" cy="234" fill="#ADD1B2" rx="11" ry="11" style="stroke:#A80036;stroke-width:1.0;"/><path d="M586.3438,229.6719 C585.4063,229.2344 584.8125,229.0938 583.9375,229.0938 C581.3125,229.0938 579.3125,231.1719 579.3125,233.8906 L579.3125,235.0156 C579.3125,237.5938 581.4219,239.4844 584.3125,239.4844 C585.5313,239.4844 586.6875,239.1875 587.4375,238.6406 C588.0156,238.2344 588.3438,237.7813 588.3438,237.3906 C588.3438,236.9375 587.9531,236.5469 587.4844,236.5469 C587.2656,236.5469 587.0625,236.625 586.875,236.8125 C586.4219,237.2969 586.4219,237.2969 586.2344,237.3906 C585.8125,237.6563 585.125,237.7813 584.3594,237.7813 C582.3125,237.7813 581.0156,236.6875 581.0156,234.9844 L581.0156,233.8906 C581.0156,232.1094 582.2656,230.7969 584,230.7969 C584.5781,230.7969 585.1875,230.9531 585.6563,231.2031 C586.1406,231.4844 586.3125,231.7031 586.4063,232.1094 C586.4688,232.5156 586.5,232.6406 586.6406,232.7656 C586.7813,232.9063 587.0156,233.0156 587.2344,233.0156 C587.5,233.0156 587.7656,232.875 587.9375,232.6563 C588.0469,232.5 588.0781,232.3125 588.0781,231.8906 L588.0781,230.4688 C588.0781,230.0313 588.0625,229.9063 587.9688,229.75 C587.8125,229.4844 587.5313,229.3438 587.2344,229.3438 C586.9375,229.3438 586.7344,229.4375 586.5156,229.75 L586.3438,229.6719 Z " fill="#000000"/><text fill="#000000" font-family="sans-serif" font-size="12" lengthAdjust="spacing" textLength="48" x="598" y="238.1543">Commis</text><rect fill="#FFFFFF" height="15.9688" style="stroke:#000000;stroke-width:1.0;stroke-dasharray:2.0,2.0;" width="27" x="654" y="215"/><text fill="#000000" font-family="sans-serif" font-size="12" font-style="italic" lengthAdjust="spacing" textLength="25" x="655" y="227.1387">Role</text><line style="stroke:#A80036;stroke-width:1.5;" x1="570" x2="677" y1="250" y2="250"/><line style="stroke:#A80036;stroke-width:1.5;" x1="570" x2="677" y1="258" y2="258"/><!--MD5=[5caef05668a3671b919925ac15293d4d]
class Chambre--><rect codeLine="31" fill="#FEFECE" filter="url(#f1n8wlwm2o2yvv)" height="48" id="Chambre" style="stroke:#A80036;stroke-width:1.5;" width="474" x="242.5" y="727"/><ellipse cx="257.5" cy="743" fill="#ADD1B2" rx="11" ry="11" style="stroke:#A80036;stroke-width:1.0;"/><path d="M259.8438,738.6719 C258.9063,738.2344 258.3125,738.0938 257.4375,738.0938 C254.8125,738.0938 252.8125,740.1719 252.8125,742.8906 L252.8125,744.0156 C252.8125,746.5938 254.9219,748.4844 257.8125,748.4844 C259.0313,748.4844 260.1875,748.1875 260.9375,747.6406 C261.5156,747.2344 261.8438,746.7813 261.8438,746.3906 C261.8438,745.9375 261.4531,745.5469 260.9844,745.5469 C260.7656,745.5469 260.5625,745.625 260.375,745.8125 C259.9219,746.2969 259.9219,746.2969 259.7344,746.3906 C259.3125,746.6563 258.625,746.7813 257.8594,746.7813 C255.8125,746.7813 254.5156,745.6875 254.5156,743.9844 L254.5156,742.8906 C254.5156,741.1094 255.7656,739.7969 257.5,739.7969 C258.0781,739.7969 258.6875,739.9531 259.1563,740.2031 C259.6406,740.4844 259.8125,740.7031 259.9063,741.1094 C259.9688,741.5156 260,741.6406 260.1406,741.7656 C260.2813,741.9063 260.5156,742.0156 260.7344,742.0156 C261,742.0156 261.2656,741.875 261.4375,741.6563 C261.5469,741.5 261.5781,741.3125 261.5781,740.8906 L261.5781,739.4688 C261.5781,739.0313 261.5625,738.9063 261.4688,738.75 C261.3125,738.4844 261.0313,738.3438 260.7344,738.3438 C260.4375,738.3438 260.2344,738.4375 260.0156,738.75 L259.8438,738.6719 Z " fill="#000000"/><text fill="#000000" font-family="sans-serif" font-size="12" lengthAdjust="spacing" textLength="54" x="271.5" y="747.1543">Chambre</text><rect fill="#FFFFFF" height="15.9688" style="stroke:#000000;stroke-width:1.0;stroke-dasharray:2.0,2.0;" width="386" x="333.5" y="724"/><text fill="#000000" font-family="sans-serif" font-size="12" font-style="italic" lengthAdjust="spacing" textLength="384" x="334.5" y="736.1387">Objet physique, Contenu dans l'hotel, Produit d'une transaction</text><line style="stroke:#A80036;stroke-width:1.5;" x1="243.5" x2="715.5" y1="759" y2="759"/><line style="stroke:#A80036;stroke-width:1.5;" x1="243.5" x2="715.5" y1="767" y2="767"/><!--MD5=[ed6624c6556d5e7b1bd23032162d20b7]
class Client--><rect codeLine="32" fill="#FEFECE" filter="url(#f1n8wlwm2o2yvv)" height="86.4141" id="Client" style="stroke:#A80036;stroke-width:1.5;" width="226" x="307.5" y="199"/><ellipse cx="385.25" cy="215" fill="#ADD1B2" rx="11" ry="11" style="stroke:#A80036;stroke-width:1.0;"/><path d="M387.5938,210.6719 C386.6563,210.2344 386.0625,210.0938 385.1875,210.0938 C382.5625,210.0938 380.5625,212.1719 380.5625,214.8906 L380.5625,216.0156 C380.5625,218.5938 382.6719,220.4844 385.5625,220.4844 C386.7813,220.4844 387.9375,220.1875 388.6875,219.6406 C389.2656,219.2344 389.5938,218.7813 389.5938,218.3906 C389.5938,217.9375 389.2031,217.5469 388.7344,217.5469 C388.5156,217.5469 388.3125,217.625 388.125,217.8125 C387.6719,218.2969 387.6719,218.2969 387.4844,218.3906 C387.0625,218.6563 386.375,218.7813 385.6094,218.7813 C383.5625,218.7813 382.2656,217.6875 382.2656,215.9844 L382.2656,214.8906 C382.2656,213.1094 383.5156,211.7969 385.25,211.7969 C385.8281,211.7969 386.4375,211.9531 386.9063,212.2031 C387.3906,212.4844 387.5625,212.7031 387.6563,213.1094 C387.7188,213.5156 387.75,213.6406 387.8906,213.7656 C388.0313,213.9063 388.2656,214.0156 388.4844,214.0156 C388.75,214.0156 389.0156,213.875 389.1875,213.6563 C389.2969,213.5 389.3281,213.3125 389.3281,212.8906 L389.3281,211.4688 C389.3281,211.0313 389.3125,210.9063 389.2188,210.75 C389.0625,210.4844 388.7813,210.3438 388.4844,210.3438 C388.1875,210.3438 387.9844,210.4375 387.7656,210.75 L387.5938,210.6719 Z " fill="#000000"/><text fill="#000000" font-family="sans-serif" font-size="12" lengthAdjust="spacing" textLength="33" x="405.75" y="219.1543">Client</text><rect fill="#FFFFFF" height="15.9688" style="stroke:#000000;stroke-width:1.0;stroke-dasharray:2.0,2.0;" width="27" x="509.5" y="196"/><text fill="#000000" font-family="sans-serif" font-size="12" font-style="italic" lengthAdjust="spacing" textLength="25" x="510.5" y="208.1387">Role</text><line style="stroke:#A80036;stroke-width:1.5;" x1="308.5" x2="532.5" y1="231" y2="231"/><rect fill="none" height="6" style="stroke:#C82930;stroke-width:1.0;" width="6" x="315.5" y="239"/><text fill="#000000" font-family="sans-serif" font-size="11" lengthAdjust="spacing" textLength="59" x="327.5" y="245.2104">nom:string</text><rect fill="none" height="6" style="stroke:#C82930;stroke-width:1.0;" width="6" x="315.5" y="251.8047"/><text fill="#000000" font-family="sans-serif" font-size="11" lengthAdjust="spacing" textLength="93" x="327.5" y="258.0151">telephone:string</text><line style="stroke:#A80036;stroke-width:1.5;" x1="308.5" x2="532.5" y1="264.6094" y2="264.6094"/><ellipse cx="318.5" cy="275.6094" fill="#84BE84" rx="3" ry="3" style="stroke:#038048;stroke-width:1.0;"/><text fill="#000000" font-family="sans-serif" font-size="11" lengthAdjust="spacing" textLength="200" x="327.5" y="278.8198">Client(nom:string, telephone:string)</text><!--MD5=[1a7731b8f2c930c6d97d17ac0ebde2a8]
link Hotel to Chambre--><path codeLine="38" d="M763.0824,101.0961 C763.0824,101.0961 796.5,191.466 796.5,241 C796.5,241 796.5,241 796.5,608 C796.5,667.959 748.682,702.763 690.189,722.908 " fill="none" id="Hotel-Chambre" style="stroke:#A80036;stroke-width:1.0;"/><polygon fill="#A80036" points="677.559,726.988,687.3528,728.0279,682.3169,725.4511,684.8938,720.4152,677.559,726.988" style="stroke:#A80036;stroke-width:1.0;"/><line style="stroke:#A80036;stroke-width:1.0;" x1="682.3169" x2="689.9295" y1="725.4511" y2="722.9915"/><polygon fill="#A80036" points="758.375,90.058,757.0494,97.1462,763.0824,101.0961,764.4081,94.0079,758.375,90.058" style="stroke:#A80036;stroke-width:1.0;"/><text fill="#000000" font-family="sans-serif" font-size="13" lengthAdjust="spacing" textLength="54" x="797.5" y="429.0669">possède</text><text fill="#000000" font-family="sans-serif" font-size="13" lengthAdjust="spacing" textLength="7" x="720.4147" y="715.997">*</text><!--MD5=[0c645827cdb9f485350039ec8cb49e29]
link Chambre to Categorie--><path codeLine="39" d="M445.13,775.131 C417.311,793.852 377.143,820.885 342.139,844.4423 " fill="none" id="Chambre-to-Categorie" style="stroke:#A80036;stroke-width:1.0;"/><polygon fill="#FFFFFF" points="330.977,851.9537,338.188,851.9221,340.9323,845.2536,333.7213,845.2852,330.977,851.9537" style="stroke:#A80036;stroke-width:1.0;"/><text fill="#000000" font-family="sans-serif" font-size="13" lengthAdjust="spacing" textLength="66" x="400.5" y="818.0669">appartient</text><text fill="#000000" font-family="sans-serif" font-size="13" lengthAdjust="spacing" textLength="7" x="428.8992" y="794.9241">*</text><!--MD5=[9ee890e3271cd9be3ed17d9ceb0af7d4]
reverse link Client to Reservation--><path codeLine="40" d="M423.846,290.278 C425.622,303.95 428.34,318.752 432.5,332 C435.63,341.967 439.784,352.157 444.33,361.948 " fill="none" id="Client-backto-Reservation" style="stroke:#A80036;stroke-width:1.0;"/><polygon fill="#A80036" points="423.234,285.298,420.3618,294.7188,423.844,290.2607,428.3021,293.7428,423.234,285.298" style="stroke:#A80036;stroke-width:1.0;"/><text fill="#000000" font-family="sans-serif" font-size="13" lengthAdjust="spacing" textLength="61" x="433.5" y="328.0669">demande</text><!--MD5=[68baab2b76d878f08dc09388ccbc52c4]
reverse link Commis to Reservation--><path codeLine="41" d="M601.715,270.307 C582.389,294.531 553.451,330.805 528.584,361.975 " fill="none" id="Commis-backto-Reservation" style="stroke:#A80036;stroke-width:1.0;"/><polygon fill="#A80036" points="604.969,266.228,596.2291,270.7684,601.8506,270.1364,602.4825,275.7578,604.969,266.228" style="stroke:#A80036;stroke-width:1.0;"/><text fill="#000000" font-family="sans-serif" font-size="13" lengthAdjust="spacing" textLength="28" x="564.5" y="328.0669">cree</text><!--MD5=[6c051db2d685ac22b70f1baef8e033a7]
reverse link Hotel to Commis--><path codeLine="42" d="M723.236,101.048 C698.679,135.506 661.376,187.851 640.034,217.799 " fill="none" id="Hotel-backto-Commis" style="stroke:#A80036;stroke-width:1.0;"/><polygon fill="#A80036" points="731.034,90.106,724.2945,92.671,724.0701,99.8786,730.8096,97.3136,731.034,90.106" style="stroke:#A80036;stroke-width:1.0;"/><text fill="#000000" font-family="sans-serif" font-size="13" lengthAdjust="spacing" textLength="51" x="686.5" y="165.0669">Emploie</text><text fill="#000000" font-family="sans-serif" font-size="13" lengthAdjust="spacing" textLength="7" x="636.374" y="206.7595">*</text><!--MD5=[a83f339aa692571e7dde48d7c6cca26c]
link Reservation to LigneReservation--><path codeLine="43" d="M479.5,487.113 C479.5,510.561 479.5,536.886 479.5,558.793 " fill="none" id="Reservation-to-LigneReservation" style="stroke:#A80036;stroke-width:1.0;"/><polygon fill="#A80036" points="479.5,563.973,483.5,554.973,479.5,558.973,475.5,554.973,479.5,563.973" style="stroke:#A80036;stroke-width:1.0;"/><text fill="#000000" font-family="sans-serif" font-size="13" lengthAdjust="spacing" textLength="52" x="480.5" y="530.0669">contient</text><text fill="#000000" font-family="sans-serif" font-size="13" lengthAdjust="spacing" textLength="8" x="471.0625" y="506.8652">1</text><text fill="#000000" font-family="sans-serif" font-size="13" lengthAdjust="spacing" textLength="7" x="471.9422" y="552.9647">*</text><!--MD5=[7f60298d3a5f91db21dff20d03cfc991]
link LigneReservation to Chambre--><path codeLine="44" d="M479.5,650.22 C479.5,673.282 479.5,701.221 479.5,721.662 " fill="none" id="LigneReservation-to-Chambre" style="stroke:#A80036;stroke-width:1.0;"/><polygon fill="#A80036" points="479.5,726.69,483.5,717.69,479.5,721.69,475.5,717.69,479.5,726.69" style="stroke:#A80036;stroke-width:1.0;"/><polygon fill="#000000" points="484.5,683.5664,481.5611,692.6115,487.4389,692.6115,484.5,683.5664" style="stroke:#000000;stroke-width:1.0;"/><text fill="#000000" font-family="sans-serif" font-size="13" lengthAdjust="spacing" textLength="121" x="493.5" y="693.0669">sont reservées par</text><text fill="#000000" font-family="sans-serif" font-size="13" lengthAdjust="spacing" textLength="8" x="470.8625" y="670.348">1</text><text fill="#000000" font-family="sans-serif" font-size="13" lengthAdjust="spacing" textLength="7" x="471.6469" y="716.0194">*</text><!--MD5=[a8407828f39a50610473eaf782cca2cc]
link ControleurReservation to Commis--><path codeLine="45" d="M395.791,122.141 C444.204,145.121 500.415,172.573 550.5,199 C560.144,204.089 570.365,209.777 580.007,215.284 " fill="none" id="ControleurReservation-to-Commis" style="stroke:#A80036;stroke-width:1.0;"/><polygon fill="#A80036" points="584.393,217.798,578.5755,209.8509,580.0556,215.3107,574.5958,216.7908,584.393,217.798" style="stroke:#A80036;stroke-width:1.0;"/><!--MD5=[99bb16900e29ad147486046983b0654c]
link ControleurReservation to Categorie--><path codeLine="46" d="M226.863,122.327 C202.998,154.59 179.5,197.423 179.5,241 C179.5,241 179.5,241 179.5,752 C179.5,787.764 200.02,821.923 221.354,847.7717 " fill="none" id="ControleurReservation-to-Categorie" style="stroke:#A80036;stroke-width:1.0;"/><polygon fill="#A80036" points="224.782,851.8478,222.0495,842.3856,221.5634,848.0215,215.9274,847.5354,224.782,851.8478" style="stroke:#A80036;stroke-width:1.0;"/><text fill="#000000" font-family="sans-serif" font-size="13" lengthAdjust="spacing" textLength="7" x="210.2566" y="840.8198">*</text><!--MD5=[e2349fe5f86195d00487eb78d4d2984b]
@startuml
class ControleurReservation<Controleur>{
  Map<nom:String,categorie:Categorie>
  +demarrerReservation()
  +reserverChambre(dateArrive:string, dateDepart:string, categorie: String)
  +reserverChambres(quantity:Integer,dateArrive:String, dateDepart:String, categorie: String)
  +confirmerReservation(nom:string, telephone: string)
}

class Hotel <Conteneur, Object physique>
class Categorie <Description d'entité,**Catalogue**> {
  -nom: String
  +getChambreLibre(dateArrivé: String,dateDepart:String): Chambre
  +getChambresLibre(quantity:Integer, dateArrivé: String,dateDepart:String): [Chambre]
}
class Reservation <Transaction>{
  -noConfirmation: String
  +Reservation(commis:Commis)
  +Reservation(ch:Chambre,c:Commis,dateArrive:String, dateDepart: String)
  +ajouterChambres([ch]:Chambre,dateArrive:String, dateDepart: String): String (json)
  +confirmerReservation(cl:Client)
  -setNoConfirmation()
}

class LigneReservation <Ligne de transaction>{
  -dateArrive: Date
  -dateDepart: Date
  +create([ch]:Chambre,dateArrive:String, dateDepart: String)
}

class Commis <Role>
class Chambre <Objet physique, Contenu dans l'hotel, Produit d'une transaction>
class Client <Role> {
  -nom:string
  -telephone:string
  +Client(nom:string, telephone:string)
}

Hotel  *- -> "*" Chambre: possède
Chambre "*" - -o Categorie: appartient
Client  <- -  Reservation: demande
Commis  <- -  Reservation: cree
Hotel  *- - "*" Commis : Emploie
Reservation "1" - -> "*" LigneReservation: contient
LigneReservation "1" - -> "*" Chambre : sont reservées par <
ControleurReservation - -> Commis
ControleurReservation - -> "*" Categorie
@enduml

PlantUML version 1.2021.2beta9(Unknown compile time)
(GPL source distribution)
Java Runtime: Java(TM) SE Runtime Environment
JVM: Java HotSpot(TM) 64-Bit Server VM
Default Encoding: UTF-8
Language: en
Country: US
--></g></svg>