<?xml version="1.0" encoding="UTF-8" standalone="no"?><svg xmlns="http://www.w3.org/2000/svg" xmlns:xlink="http://www.w3.org/1999/xlink" contentStyleType="text/css" height="1015px" preserveAspectRatio="none" style="width:1045px;height:1015px;background:#FFFFFF;" version="1.1" viewBox="0 0 1045 1015" width="1045px" zoomAndPan="magnify"><defs/><g><!--class ControleurReservation--><g id="elem_ControleurReservation"><rect codeLine="1" fill="#F1F1F1" height="129.4844" id="ControleurReservation" rx="2.5" ry="2.5" style="stroke:#181818;stroke-width:0.5;" width="687" x="62.5" y="10"/><ellipse cx="286.75" cy="26" fill="#ADD1B2" rx="11" ry="11" style="stroke:#181818;stroke-width:1.0;"/><path d="M289.0938,21.6719 C288.1563,21.2344 287.5625,21.0938 286.6875,21.0938 C284.0625,21.0938 282.0625,23.1719 282.0625,25.8906 L282.0625,27.0156 C282.0625,29.5938 284.1719,31.4844 287.0625,31.4844 C288.2813,31.4844 289.4375,31.1875 290.1875,30.6406 C290.7656,30.2344 291.0938,29.7813 291.0938,29.3906 C291.0938,28.9375 290.7031,28.5469 290.2344,28.5469 C290.0156,28.5469 289.8125,28.625 289.625,28.8125 C289.1719,29.2969 289.1719,29.2969 288.9844,29.3906 C288.5625,29.6563 287.875,29.7813 287.1094,29.7813 C285.0625,29.7813 283.7656,28.6875 283.7656,26.9844 L283.7656,25.8906 C283.7656,24.1094 285.0156,22.7969 286.75,22.7969 C287.3281,22.7969 287.9375,22.9531 288.4063,23.2031 C288.8906,23.4844 289.0625,23.7031 289.1563,24.1094 C289.2188,24.5156 289.25,24.6406 289.3906,24.7656 C289.5313,24.9063 289.7656,25.0156 289.9844,25.0156 C290.25,25.0156 290.5156,24.875 290.6875,24.6563 C290.7969,24.5 290.8281,24.3125 290.8281,23.8906 L290.8281,22.4688 C290.8281,22.0313 290.8125,21.9063 290.7188,21.75 C290.5625,21.4844 290.2813,21.3438 289.9844,21.3438 C289.6875,21.3438 289.4844,21.4375 289.2656,21.75 L289.0938,21.6719 Z " fill="#000000"/><text fill="#000000" font-family="sans-serif" font-size="14" lengthAdjust="spacing" textLength="163" x="307.25" y="30.8467">ControleurReservation</text><rect fill="#FFFFFF" height="15.9688" style="stroke:#181818;stroke-width:1.0;stroke-dasharray:2.0,2.0;" width="65" x="687.5" y="7"/><text fill="#000000" font-family="sans-serif" font-size="12" font-style="italic" lengthAdjust="spacing" textLength="63" x="688.5" y="19.1387">Controleur</text><line style="stroke:#181818;stroke-width:0.5;" x1="63.5" x2="748.5" y1="42" y2="42"/><text fill="#000000" font-family="sans-serif" font-size="14" lengthAdjust="spacing" textLength="282" x="68.5" y="58.9951">Map&lt;nom:String,categorie:Categorie&gt;</text><line style="stroke:#181818;stroke-width:0.5;" x1="63.5" x2="748.5" y1="66.2969" y2="66.2969"/><ellipse cx="73.5" cy="79.9453" fill="#84BE84" rx="3" ry="3" style="stroke:#038048;stroke-width:1.0;"/><text fill="#000000" font-family="sans-serif" font-size="14" lengthAdjust="spacing" textLength="163" x="82.5" y="83.292">demarrerReservation()</text><ellipse cx="73.5" cy="96.2422" fill="#84BE84" rx="3" ry="3" style="stroke:#038048;stroke-width:1.0;"/><text fill="#000000" font-family="sans-serif" font-size="14" lengthAdjust="spacing" textLength="528" x="82.5" y="99.5889">reserverChambre(dateArrive:string, dateDepart:string, categorie: String)</text><ellipse cx="73.5" cy="112.5391" fill="#84BE84" rx="3" ry="3" style="stroke:#038048;stroke-width:1.0;"/><text fill="#000000" font-family="sans-serif" font-size="14" lengthAdjust="spacing" textLength="661" x="82.5" y="115.8857">reserverChambres(quantity:Integer,dateArrive:String, dateDepart:String, categorie: String)</text><ellipse cx="73.5" cy="128.8359" fill="#84BE84" rx="3" ry="3" style="stroke:#038048;stroke-width:1.0;"/><text fill="#000000" font-family="sans-serif" font-size="14" lengthAdjust="spacing" textLength="380" x="82.5" y="132.1826">confirmerReservation(nom:string, telephone: string)</text></g><!--class Hotel--><g id="elem_Hotel"><rect codeLine="9" fill="#F1F1F1" height="48" id="Hotel" rx="2.5" ry="2.5" style="stroke:#181818;stroke-width:0.5;" width="244" x="790" y="50.5"/><ellipse cx="805" cy="66.5" fill="#ADD1B2" rx="11" ry="11" style="stroke:#181818;stroke-width:1.0;"/><path d="M807.3438,62.1719 C806.4063,61.7344 805.8125,61.5938 804.9375,61.5938 C802.3125,61.5938 800.3125,63.6719 800.3125,66.3906 L800.3125,67.5156 C800.3125,70.0938 802.4219,71.9844 805.3125,71.9844 C806.5313,71.9844 807.6875,71.6875 808.4375,71.1406 C809.0156,70.7344 809.3438,70.2813 809.3438,69.8906 C809.3438,69.4375 808.9531,69.0469 808.4844,69.0469 C808.2656,69.0469 808.0625,69.125 807.875,69.3125 C807.4219,69.7969 807.4219,69.7969 807.2344,69.8906 C806.8125,70.1563 806.125,70.2813 805.3594,70.2813 C803.3125,70.2813 802.0156,69.1875 802.0156,67.4844 L802.0156,66.3906 C802.0156,64.6094 803.2656,63.2969 805,63.2969 C805.5781,63.2969 806.1875,63.4531 806.6563,63.7031 C807.1406,63.9844 807.3125,64.2031 807.4063,64.6094 C807.4688,65.0156 807.5,65.1406 807.6406,65.2656 C807.7813,65.4063 808.0156,65.5156 808.2344,65.5156 C808.5,65.5156 808.7656,65.375 808.9375,65.1563 C809.0469,65 809.0781,64.8125 809.0781,64.3906 L809.0781,62.9688 C809.0781,62.5313 809.0625,62.4063 808.9688,62.25 C808.8125,61.9844 808.5313,61.8438 808.2344,61.8438 C807.9375,61.8438 807.7344,61.9375 807.5156,62.25 L807.3438,62.1719 Z " fill="#000000"/><text fill="#000000" font-family="sans-serif" font-size="14" lengthAdjust="spacing" textLength="39" x="819" y="71.3467">Hotel</text><rect fill="#FFFFFF" height="15.9688" style="stroke:#181818;stroke-width:1.0;stroke-dasharray:2.0,2.0;" width="171" x="866" y="47.5"/><text fill="#000000" font-family="sans-serif" font-size="12" font-style="italic" lengthAdjust="spacing" textLength="169" x="867" y="59.6387">Conteneur, Object physique</text><line style="stroke:#181818;stroke-width:0.5;" x1="791" x2="1033" y1="82.5" y2="82.5"/><line style="stroke:#181818;stroke-width:0.5;" x1="791" x2="1033" y1="90.5" y2="90.5"/></g><!--class Categorie--><g id="elem_Categorie"><rect codeLine="10" fill="#F1F1F1" height="96.8906" id="Categorie" rx="2.5" ry="2.5" style="stroke:#181818;stroke-width:0.5;" width="648" x="7" y="912"/><ellipse cx="193.75" cy="928" fill="#ADD1B2" rx="11" ry="11" style="stroke:#181818;stroke-width:1.0;"/><path d="M196.0938,923.6719 C195.1563,923.2344 194.5625,923.0938 193.6875,923.0938 C191.0625,923.0938 189.0625,925.1719 189.0625,927.8906 L189.0625,929.0156 C189.0625,931.5938 191.1719,933.4844 194.0625,933.4844 C195.2813,933.4844 196.4375,933.1875 197.1875,932.6406 C197.7656,932.2344 198.0938,931.7813 198.0938,931.3906 C198.0938,930.9375 197.7031,930.5469 197.2344,930.5469 C197.0156,930.5469 196.8125,930.625 196.625,930.8125 C196.1719,931.2969 196.1719,931.2969 195.9844,931.3906 C195.5625,931.6563 194.875,931.7813 194.1094,931.7813 C192.0625,931.7813 190.7656,930.6875 190.7656,928.9844 L190.7656,927.8906 C190.7656,926.1094 192.0156,924.7969 193.75,924.7969 C194.3281,924.7969 194.9375,924.9531 195.4063,925.2031 C195.8906,925.4844 196.0625,925.7031 196.1563,926.1094 C196.2188,926.5156 196.25,926.6406 196.3906,926.7656 C196.5313,926.9063 196.7656,927.0156 196.9844,927.0156 C197.25,927.0156 197.5156,926.875 197.6875,926.6563 C197.7969,926.5 197.8281,926.3125 197.8281,925.8906 L197.8281,924.4688 C197.8281,924.0313 197.8125,923.9063 197.7188,923.75 C197.5625,923.4844 197.2813,923.3438 196.9844,923.3438 C196.6875,923.3438 196.4844,923.4375 196.2656,923.75 L196.0938,923.6719 Z " fill="#000000"/><text fill="#000000" font-family="sans-serif" font-size="14" lengthAdjust="spacing" textLength="71" x="214.25" y="932.8467">Categorie</text><rect fill="#FFFFFF" height="15.9688" style="stroke:#181818;stroke-width:1.0;stroke-dasharray:2.0,2.0;" width="193" x="465" y="909"/><text fill="#000000" font-family="sans-serif" font-size="12" font-style="italic" lengthAdjust="spacing" textLength="122" x="466" y="921.1387">Description d'entité,</text><text fill="#000000" font-family="sans-serif" font-size="12" font-style="italic" font-weight="bold" lengthAdjust="spacing" textLength="69" x="588" y="921.1387">Catalogue</text><line style="stroke:#181818;stroke-width:0.5;" x1="8" x2="654" y1="944" y2="944"/><rect fill="none" height="6" style="stroke:#C82930;stroke-width:1.0;" width="6" x="15" y="954.6484"/><text fill="#000000" font-family="sans-serif" font-size="14" lengthAdjust="spacing" textLength="85" x="27" y="960.9951">nom: String</text><line style="stroke:#181818;stroke-width:0.5;" x1="8" x2="654" y1="968.2969" y2="968.2969"/><ellipse cx="18" cy="981.9453" fill="#84BE84" rx="3" ry="3" style="stroke:#038048;stroke-width:1.0;"/><text fill="#000000" font-family="sans-serif" font-size="14" lengthAdjust="spacing" textLength="479" x="27" y="985.292">getChambreLibre(dateArrivé: String,dateDepart:String): Chambre</text><ellipse cx="18" cy="998.2422" fill="#84BE84" rx="3" ry="3" style="stroke:#038048;stroke-width:1.0;"/><text fill="#000000" font-family="sans-serif" font-size="14" lengthAdjust="spacing" textLength="622" x="27" y="1001.5889">getChambresLibre(quantity:Integer, dateArrivé: String,dateDepart:String): [Chambre]</text></g><!--class Reservation--><g id="elem_Reservation"><rect codeLine="15" fill="#F1F1F1" height="145.7813" id="Reservation" rx="2.5" ry="2.5" style="stroke:#181818;stroke-width:0.5;" width="628" x="278" y="390"/><ellipse cx="507.75" cy="406" fill="#ADD1B2" rx="11" ry="11" style="stroke:#181818;stroke-width:1.0;"/><path d="M510.0938,401.6719 C509.1563,401.2344 508.5625,401.0938 507.6875,401.0938 C505.0625,401.0938 503.0625,403.1719 503.0625,405.8906 L503.0625,407.0156 C503.0625,409.5938 505.1719,411.4844 508.0625,411.4844 C509.2813,411.4844 510.4375,411.1875 511.1875,410.6406 C511.7656,410.2344 512.0938,409.7813 512.0938,409.3906 C512.0938,408.9375 511.7031,408.5469 511.2344,408.5469 C511.0156,408.5469 510.8125,408.625 510.625,408.8125 C510.1719,409.2969 510.1719,409.2969 509.9844,409.3906 C509.5625,409.6563 508.875,409.7813 508.1094,409.7813 C506.0625,409.7813 504.7656,408.6875 504.7656,406.9844 L504.7656,405.8906 C504.7656,404.1094 506.0156,402.7969 507.75,402.7969 C508.3281,402.7969 508.9375,402.9531 509.4063,403.2031 C509.8906,403.4844 510.0625,403.7031 510.1563,404.1094 C510.2188,404.5156 510.25,404.6406 510.3906,404.7656 C510.5313,404.9063 510.7656,405.0156 510.9844,405.0156 C511.25,405.0156 511.5156,404.875 511.6875,404.6563 C511.7969,404.5 511.8281,404.3125 511.8281,403.8906 L511.8281,402.4688 C511.8281,402.0313 511.8125,401.9063 511.7188,401.75 C511.5625,401.4844 511.2813,401.3438 510.9844,401.3438 C510.6875,401.3438 510.4844,401.4375 510.2656,401.75 L510.0938,401.6719 Z " fill="#000000"/><text fill="#000000" font-family="sans-serif" font-size="14" lengthAdjust="spacing" textLength="86" x="528.25" y="410.8467">Reservation</text><rect fill="#FFFFFF" height="15.9688" style="stroke:#181818;stroke-width:1.0;stroke-dasharray:2.0,2.0;" width="72" x="837" y="387"/><text fill="#000000" font-family="sans-serif" font-size="12" font-style="italic" lengthAdjust="spacing" textLength="70" x="838" y="399.1387">Transaction</text><line style="stroke:#181818;stroke-width:0.5;" x1="279" x2="905" y1="422" y2="422"/><rect fill="none" height="6" style="stroke:#C82930;stroke-width:1.0;" width="6" x="286" y="432.6484"/><text fill="#000000" font-family="sans-serif" font-size="14" lengthAdjust="spacing" textLength="166" x="298" y="438.9951">noConfirmation: String</text><line style="stroke:#181818;stroke-width:0.5;" x1="279" x2="905" y1="446.2969" y2="446.2969"/><ellipse cx="289" cy="459.9453" fill="#84BE84" rx="3" ry="3" style="stroke:#038048;stroke-width:1.0;"/><text fill="#000000" font-family="sans-serif" font-size="14" lengthAdjust="spacing" textLength="215" x="298" y="463.292">Reservation(commis:Commis)</text><ellipse cx="289" cy="476.2422" fill="#84BE84" rx="3" ry="3" style="stroke:#038048;stroke-width:1.0;"/><text fill="#000000" font-family="sans-serif" font-size="14" lengthAdjust="spacing" textLength="533" x="298" y="479.5889">Reservation(ch:Chambre,c:Commis,dateArrive:String, dateDepart: String)</text><ellipse cx="289" cy="492.5391" fill="#84BE84" rx="3" ry="3" style="stroke:#038048;stroke-width:1.0;"/><text fill="#000000" font-family="sans-serif" font-size="14" lengthAdjust="spacing" textLength="602" x="298" y="495.8857">ajouterChambres([ch]:Chambre,dateArrive:String, dateDepart: String): String (json)</text><ellipse cx="289" cy="508.8359" fill="#84BE84" rx="3" ry="3" style="stroke:#038048;stroke-width:1.0;"/><text fill="#000000" font-family="sans-serif" font-size="14" lengthAdjust="spacing" textLength="227" x="298" y="512.1826">confirmerReservation(cl:Client)</text><rect fill="#F24D5C" height="6" style="stroke:#C82930;stroke-width:1.0;" width="6" x="286" y="522.1328"/><text fill="#000000" font-family="sans-serif" font-size="14" lengthAdjust="spacing" textLength="147" x="298" y="528.4795">setNoConfirmation()</text></g><!--class LigneReservation--><g id="elem_LigneReservation"><rect codeLine="24" fill="#F1F1F1" height="96.8906" id="LigneReservation" rx="2.5" ry="2.5" style="stroke:#181818;stroke-width:0.5;" width="455" x="364.5" y="613"/><ellipse cx="461.25" cy="629" fill="#ADD1B2" rx="11" ry="11" style="stroke:#181818;stroke-width:1.0;"/><path d="M463.5938,624.6719 C462.6563,624.2344 462.0625,624.0938 461.1875,624.0938 C458.5625,624.0938 456.5625,626.1719 456.5625,628.8906 L456.5625,630.0156 C456.5625,632.5938 458.6719,634.4844 461.5625,634.4844 C462.7813,634.4844 463.9375,634.1875 464.6875,633.6406 C465.2656,633.2344 465.5938,632.7813 465.5938,632.3906 C465.5938,631.9375 465.2031,631.5469 464.7344,631.5469 C464.5156,631.5469 464.3125,631.625 464.125,631.8125 C463.6719,632.2969 463.6719,632.2969 463.4844,632.3906 C463.0625,632.6563 462.375,632.7813 461.6094,632.7813 C459.5625,632.7813 458.2656,631.6875 458.2656,629.9844 L458.2656,628.8906 C458.2656,627.1094 459.5156,625.7969 461.25,625.7969 C461.8281,625.7969 462.4375,625.9531 462.9063,626.2031 C463.3906,626.4844 463.5625,626.7031 463.6563,627.1094 C463.7188,627.5156 463.75,627.6406 463.8906,627.7656 C464.0313,627.9063 464.2656,628.0156 464.4844,628.0156 C464.75,628.0156 465.0156,627.875 465.1875,627.6563 C465.2969,627.5 465.3281,627.3125 465.3281,626.8906 L465.3281,625.4688 C465.3281,625.0313 465.3125,624.9063 465.2188,624.75 C465.0625,624.4844 464.7813,624.3438 464.4844,624.3438 C464.1875,624.3438 463.9844,624.4375 463.7656,624.75 L463.5938,624.6719 Z " fill="#000000"/><text fill="#000000" font-family="sans-serif" font-size="14" lengthAdjust="spacing" textLength="125" x="481.75" y="633.8467">LigneReservation</text><rect fill="#FFFFFF" height="15.9688" style="stroke:#181818;stroke-width:1.0;stroke-dasharray:2.0,2.0;" width="126" x="696.5" y="610"/><text fill="#000000" font-family="sans-serif" font-size="12" font-style="italic" lengthAdjust="spacing" textLength="124" x="697.5" y="622.1387">Ligne de transaction</text><line style="stroke:#181818;stroke-width:0.5;" x1="365.5" x2="818.5" y1="645" y2="645"/><rect fill="none" height="6" style="stroke:#C82930;stroke-width:1.0;" width="6" x="372.5" y="655.6484"/><text fill="#000000" font-family="sans-serif" font-size="14" lengthAdjust="spacing" textLength="120" x="384.5" y="661.9951">dateArrive: Date</text><rect fill="none" height="6" style="stroke:#C82930;stroke-width:1.0;" width="6" x="372.5" y="671.9453"/><text fill="#000000" font-family="sans-serif" font-size="14" lengthAdjust="spacing" textLength="128" x="384.5" y="678.292">dateDepart: Date</text><line style="stroke:#181818;stroke-width:0.5;" x1="365.5" x2="818.5" y1="685.5938" y2="685.5938"/><ellipse cx="375.5" cy="699.2422" fill="#84BE84" rx="3" ry="3" style="stroke:#038048;stroke-width:1.0;"/><text fill="#000000" font-family="sans-serif" font-size="14" lengthAdjust="spacing" textLength="429" x="384.5" y="702.5889">create([ch]:Chambre,dateArrive:String, dateDepart: String)</text></g><!--class Commis--><g id="elem_Commis"><rect codeLine="30" fill="#F1F1F1" height="48" id="Commis" rx="2.5" ry="2.5" style="stroke:#181818;stroke-width:0.5;" width="119" x="714.5" y="240.5"/><ellipse cx="729.5" cy="256.5" fill="#ADD1B2" rx="11" ry="11" style="stroke:#181818;stroke-width:1.0;"/><path d="M731.8438,252.1719 C730.9063,251.7344 730.3125,251.5938 729.4375,251.5938 C726.8125,251.5938 724.8125,253.6719 724.8125,256.3906 L724.8125,257.5156 C724.8125,260.0938 726.9219,261.9844 729.8125,261.9844 C731.0313,261.9844 732.1875,261.6875 732.9375,261.1406 C733.5156,260.7344 733.8438,260.2813 733.8438,259.8906 C733.8438,259.4375 733.4531,259.0469 732.9844,259.0469 C732.7656,259.0469 732.5625,259.125 732.375,259.3125 C731.9219,259.7969 731.9219,259.7969 731.7344,259.8906 C731.3125,260.1563 730.625,260.2813 729.8594,260.2813 C727.8125,260.2813 726.5156,259.1875 726.5156,257.4844 L726.5156,256.3906 C726.5156,254.6094 727.7656,253.2969 729.5,253.2969 C730.0781,253.2969 730.6875,253.4531 731.1563,253.7031 C731.6406,253.9844 731.8125,254.2031 731.9063,254.6094 C731.9688,255.0156 732,255.1406 732.1406,255.2656 C732.2813,255.4063 732.5156,255.5156 732.7344,255.5156 C733,255.5156 733.2656,255.375 733.4375,255.1563 C733.5469,255 733.5781,254.8125 733.5781,254.3906 L733.5781,252.9688 C733.5781,252.5313 733.5625,252.4063 733.4688,252.25 C733.3125,251.9844 733.0313,251.8438 732.7344,251.8438 C732.4375,251.8438 732.2344,251.9375 732.0156,252.25 L731.8438,252.1719 Z " fill="#000000"/><text fill="#000000" font-family="sans-serif" font-size="14" lengthAdjust="spacing" textLength="58" x="743.5" y="261.3467">Commis</text><rect fill="#FFFFFF" height="15.9688" style="stroke:#181818;stroke-width:1.0;stroke-dasharray:2.0,2.0;" width="27" x="809.5" y="237.5"/><text fill="#000000" font-family="sans-serif" font-size="12" font-style="italic" lengthAdjust="spacing" textLength="25" x="810.5" y="249.6387">Role</text><line style="stroke:#181818;stroke-width:0.5;" x1="715.5" x2="832.5" y1="272.5" y2="272.5"/><line style="stroke:#181818;stroke-width:0.5;" x1="715.5" x2="832.5" y1="280.5" y2="280.5"/></g><!--class Chambre--><g id="elem_Chambre"><rect codeLine="31" fill="#F1F1F1" height="48" id="Chambre" rx="2.5" ry="2.5" style="stroke:#181818;stroke-width:0.5;" width="486" x="349" y="787"/><ellipse cx="364" cy="803" fill="#ADD1B2" rx="11" ry="11" style="stroke:#181818;stroke-width:1.0;"/><path d="M366.3438,798.6719 C365.4063,798.2344 364.8125,798.0938 363.9375,798.0938 C361.3125,798.0938 359.3125,800.1719 359.3125,802.8906 L359.3125,804.0156 C359.3125,806.5938 361.4219,808.4844 364.3125,808.4844 C365.5313,808.4844 366.6875,808.1875 367.4375,807.6406 C368.0156,807.2344 368.3438,806.7813 368.3438,806.3906 C368.3438,805.9375 367.9531,805.5469 367.4844,805.5469 C367.2656,805.5469 367.0625,805.625 366.875,805.8125 C366.4219,806.2969 366.4219,806.2969 366.2344,806.3906 C365.8125,806.6563 365.125,806.7813 364.3594,806.7813 C362.3125,806.7813 361.0156,805.6875 361.0156,803.9844 L361.0156,802.8906 C361.0156,801.1094 362.2656,799.7969 364,799.7969 C364.5781,799.7969 365.1875,799.9531 365.6563,800.2031 C366.1406,800.4844 366.3125,800.7031 366.4063,801.1094 C366.4688,801.5156 366.5,801.6406 366.6406,801.7656 C366.7813,801.9063 367.0156,802.0156 367.2344,802.0156 C367.5,802.0156 367.7656,801.875 367.9375,801.6563 C368.0469,801.5 368.0781,801.3125 368.0781,800.8906 L368.0781,799.4688 C368.0781,799.0313 368.0625,798.9063 367.9688,798.75 C367.8125,798.4844 367.5313,798.3438 367.2344,798.3438 C366.9375,798.3438 366.7344,798.4375 366.5156,798.75 L366.3438,798.6719 Z " fill="#000000"/><text fill="#000000" font-family="sans-serif" font-size="14" lengthAdjust="spacing" textLength="66" x="378" y="807.8467">Chambre</text><rect fill="#FFFFFF" height="15.9688" style="stroke:#181818;stroke-width:1.0;stroke-dasharray:2.0,2.0;" width="386" x="452" y="784"/><text fill="#000000" font-family="sans-serif" font-size="12" font-style="italic" lengthAdjust="spacing" textLength="384" x="453" y="796.1387">Objet physique, Contenu dans l'hotel, Produit d'une transaction</text><line style="stroke:#181818;stroke-width:0.5;" x1="350" x2="834" y1="819" y2="819"/><line style="stroke:#181818;stroke-width:0.5;" x1="350" x2="834" y1="827" y2="827"/></g><!--class Client--><g id="elem_Client"><rect codeLine="32" fill="#F1F1F1" height="96.8906" id="Client" rx="2.5" ry="2.5" style="stroke:#181818;stroke-width:0.5;" width="288" x="391" y="216"/><ellipse cx="494.75" cy="232" fill="#ADD1B2" rx="11" ry="11" style="stroke:#181818;stroke-width:1.0;"/><path d="M497.0938,227.6719 C496.1563,227.2344 495.5625,227.0938 494.6875,227.0938 C492.0625,227.0938 490.0625,229.1719 490.0625,231.8906 L490.0625,233.0156 C490.0625,235.5938 492.1719,237.4844 495.0625,237.4844 C496.2813,237.4844 497.4375,237.1875 498.1875,236.6406 C498.7656,236.2344 499.0938,235.7813 499.0938,235.3906 C499.0938,234.9375 498.7031,234.5469 498.2344,234.5469 C498.0156,234.5469 497.8125,234.625 497.625,234.8125 C497.1719,235.2969 497.1719,235.2969 496.9844,235.3906 C496.5625,235.6563 495.875,235.7813 495.1094,235.7813 C493.0625,235.7813 491.7656,234.6875 491.7656,232.9844 L491.7656,231.8906 C491.7656,230.1094 493.0156,228.7969 494.75,228.7969 C495.3281,228.7969 495.9375,228.9531 496.4063,229.2031 C496.8906,229.4844 497.0625,229.7031 497.1563,230.1094 C497.2188,230.5156 497.25,230.6406 497.3906,230.7656 C497.5313,230.9063 497.7656,231.0156 497.9844,231.0156 C498.25,231.0156 498.5156,230.875 498.6875,230.6563 C498.7969,230.5 498.8281,230.3125 498.8281,229.8906 L498.8281,228.4688 C498.8281,228.0313 498.8125,227.9063 498.7188,227.75 C498.5625,227.4844 498.2813,227.3438 497.9844,227.3438 C497.6875,227.3438 497.4844,227.4375 497.2656,227.75 L497.0938,227.6719 Z " fill="#000000"/><text fill="#000000" font-family="sans-serif" font-size="14" lengthAdjust="spacing" textLength="43" x="515.25" y="236.8467">Client</text><rect fill="#FFFFFF" height="15.9688" style="stroke:#181818;stroke-width:1.0;stroke-dasharray:2.0,2.0;" width="27" x="655" y="213"/><text fill="#000000" font-family="sans-serif" font-size="12" font-style="italic" lengthAdjust="spacing" textLength="25" x="656" y="225.1387">Role</text><line style="stroke:#181818;stroke-width:0.5;" x1="392" x2="678" y1="248" y2="248"/><rect fill="none" height="6" style="stroke:#C82930;stroke-width:1.0;" width="6" x="399" y="258.6484"/><text fill="#000000" font-family="sans-serif" font-size="14" lengthAdjust="spacing" textLength="79" x="411" y="264.9951">nom:string</text><rect fill="none" height="6" style="stroke:#C82930;stroke-width:1.0;" width="6" x="399" y="274.9453"/><text fill="#000000" font-family="sans-serif" font-size="14" lengthAdjust="spacing" textLength="122" x="411" y="281.292">telephone:string</text><line style="stroke:#181818;stroke-width:0.5;" x1="392" x2="678" y1="288.5938" y2="288.5938"/><ellipse cx="402" cy="302.2422" fill="#84BE84" rx="3" ry="3" style="stroke:#038048;stroke-width:1.0;"/><text fill="#000000" font-family="sans-serif" font-size="14" lengthAdjust="spacing" textLength="262" x="411" y="305.5889">Client(nom:string, telephone:string)</text></g><!--link Hotel to Chambre--><g id="link_Hotel_Chambre"><path codeLine="38" d="M931.0035,109.2918 C931.0035,109.2918 976,207.587 976,263.5 C976,263.5 976,263.5 976,662.5 C976,717.113 838.938,759.118 728.586,784.086 " fill="none" id="Hotel-Chambre" style="stroke:#181818;stroke-width:1.0;"/><polygon fill="#181818" points="925.416,98.672,924.6698,105.8444,931.0035,109.2918,931.7497,102.1194,925.416,98.672" style="stroke:#181818;stroke-width:1.0;"/><polygon fill="#181818" points="715.614,786.972,725.2678,788.9223,720.4947,785.8863,723.5307,781.1132,715.614,786.972" style="stroke:#181818;stroke-width:1.0;"/><line style="stroke:#181818;stroke-width:1.0;" x1="720.4947" x2="728.304" y1="785.8863" y2="784.1495"/><text fill="#000000" font-family="sans-serif" font-size="13" lengthAdjust="spacing" textLength="54" x="977" y="467.5669">possède</text><text fill="#000000" font-family="sans-serif" font-size="13" lengthAdjust="spacing" textLength="7" x="739.3932" y="775.9769">*</text></g><!--link Chambre to Categorie--><g id="link_Chambre_Categorie"><path codeLine="39" d="M551.219,835.047 C517.921,853.864 469.52,881.218 426.568,905.491 " fill="none" id="Chambre-to-Categorie" style="stroke:#181818;stroke-width:1.0;"/><polygon fill="none" points="415.199,911.9164,422.3906,912.447,425.6463,906.0127,418.4548,905.4821,415.199,911.9164" style="stroke:#181818;stroke-width:1.0;"/><text fill="#000000" font-family="sans-serif" font-size="13" lengthAdjust="spacing" textLength="66" x="494" y="878.0669">appartient</text><text fill="#000000" font-family="sans-serif" font-size="13" lengthAdjust="spacing" textLength="7" x="532.872" y="855.2148">*</text></g><!--reverse link Client to Reservation--><g id="link_Client_Reservation"><path codeLine="40" d="M535.345,318.231 C536.399,332.003 538.395,346.708 542,360 C544.685,369.898 548.341,379.983 552.465,389.771 " fill="none" id="Client-backto-Reservation" style="stroke:#181818;stroke-width:1.0;"/><polygon fill="#181818" points="534.999,313.203,531.6282,322.457,535.3433,318.1911,539.6092,321.9062,534.999,313.203" style="stroke:#181818;stroke-width:1.0;"/><text fill="#000000" font-family="sans-serif" font-size="13" lengthAdjust="spacing" textLength="61" x="543" y="356.0669">demande</text></g><!--reverse link Commis to Reservation--><g id="link_Commis_Reservation"><path codeLine="41" d="M748.797,292.71 C725.635,317.718 690.251,355.922 658.954,389.711 " fill="none" id="Commis-backto-Reservation" style="stroke:#181818;stroke-width:1.0;"/><polygon fill="#181818" points="752.408,288.813,743.3581,292.6988,749.0108,292.4816,749.2279,298.1343,752.408,288.813" style="stroke:#181818;stroke-width:1.0;"/><text fill="#000000" font-family="sans-serif" font-size="13" lengthAdjust="spacing" textLength="28" x="700" y="356.0669">cree</text></g><!--reverse link Hotel to Commis--><g id="link_Hotel_Commis"><path codeLine="42" d="M887.382,109.037 C859.632,146.842 815.244,207.313 791.06,240.259 " fill="none" id="Hotel-backto-Commis" style="stroke:#181818;stroke-width:1.0;"/><polygon fill="#181818" points="895.078,98.552,888.303,101.0218,887.9771,108.2255,894.7521,105.7557,895.078,98.552" style="stroke:#181818;stroke-width:1.0;"/><text fill="#000000" font-family="sans-serif" font-size="13" lengthAdjust="spacing" textLength="51" x="844" y="182.0669">Emploie</text><text fill="#000000" font-family="sans-serif" font-size="13" lengthAdjust="spacing" textLength="7" x="787.3653" y="229.6052">*</text></g><!--link Reservation to LigneReservation--><g id="link_Reservation_LigneReservation"><path codeLine="43" d="M592,536.054 C592,559.782 592,585.71 592,607.728 " fill="none" id="Reservation-to-LigneReservation" style="stroke:#181818;stroke-width:1.0;"/><polygon fill="#181818" points="592,612.945,596,603.945,592,607.945,588,603.945,592,612.945" style="stroke:#181818;stroke-width:1.0;"/><text fill="#000000" font-family="sans-serif" font-size="13" lengthAdjust="spacing" textLength="52" x="593" y="579.0669">contient</text><text fill="#000000" font-family="sans-serif" font-size="13" lengthAdjust="spacing" textLength="8" x="583.6188" y="555.8155">1</text><text fill="#000000" font-family="sans-serif" font-size="13" lengthAdjust="spacing" textLength="7" x="584.4859" y="601.7966">*</text></g><!--link LigneReservation to Chambre--><g id="link_LigneReservation_Chambre"><path codeLine="44" d="M592,710.389 C592,733.864 592,761.34 592,781.483 " fill="none" id="LigneReservation-to-Chambre" style="stroke:#181818;stroke-width:1.0;"/><polygon fill="#181818" points="592,786.699,596,777.699,592,781.699,588,777.699,592,786.699" style="stroke:#181818;stroke-width:1.0;"/><polygon fill="#000000" points="597,743.5664,594.0611,752.6115,599.9389,752.6115,597,743.5664" style="stroke:#000000;stroke-width:1.0;"/><text fill="#000000" font-family="sans-serif" font-size="13" lengthAdjust="spacing" textLength="121" x="606" y="753.0669">sont reservées par</text><text fill="#000000" font-family="sans-serif" font-size="13" lengthAdjust="spacing" textLength="8" x="583.4625" y="730.0494">1</text><text fill="#000000" font-family="sans-serif" font-size="13" lengthAdjust="spacing" textLength="7" x="584.1469" y="776.0306">*</text></g><!--link ControleurReservation to Commis--><g id="link_ControleurReservation_Commis"><path codeLine="45" d="M545.143,139.101 C593.738,162.252 648.293,189.311 697,216 C709.268,222.722 722.32,230.516 734.125,237.823 " fill="none" id="ControleurReservation-to-Commis" style="stroke:#181818;stroke-width:1.0;"/><polygon fill="#181818" points="738.414,240.49,732.882,232.3416,734.1675,237.8504,728.6587,239.1359,738.414,240.49" style="stroke:#181818;stroke-width:1.0;"/></g><!--link ControleurReservation to Categorie--><g id="link_ControleurReservation_Categorie"><path codeLine="46" d="M298.359,139.078 C259.49,170.618 225,212.869 225,263.5 C225,263.5 225,263.5 225,812 C225,848.518 246.691,882.181 270.448,908.098 " fill="none" id="ControleurReservation-to-Categorie" style="stroke:#181818;stroke-width:1.0;"/><polygon fill="#181818" points="273.966,911.8654,270.7475,902.5573,270.5537,908.2108,264.9002,908.0169,273.966,911.8654" style="stroke:#181818;stroke-width:1.0;"/><text fill="#000000" font-family="sans-serif" font-size="13" lengthAdjust="spacing" textLength="7" x="258.4534" y="901.0549">*</text></g><!--SRC=[dLNBRjim4BphAnQ-n0_fq2iX62Za0YsGFX3t5kJ0K1kBXaGg91KWAFe_zNVunqgAeaN5JXhqP7gvEvmPxbAifbf38OLHiiPEtQ16zKGDbo8Ve-jV2S1NskP2DcHh51Uxb563EwauaYAirZPhLM93bS8OQRvm6weFe2egsjmhd9UsxADI_0c9zf3WGXjigJAdq7WC-8ClOUdvOqU5uUQPV14s7rKQeM_FqRTleZCf7hXgfXgSz43AO8rj9OKjqqFPxoHXlPUVfTs5tZmKrhiKlj_laHbegsVD7plhaayysGRv1ZLJl7NdG7c5Jidna2wNDeNMSjVXSha6TmUPOp5GTKntQ0OBhld4q-CXfALdiXS4Xg8fXFOOPrR2Ur5l1w0xwuRN61a8-Kz5XQRC_LaFOWhlT9yGwugDPx9fk2P5_xCuswt8S6hAXfn_t7ryqtGlEnErqIshxavuxuC92vZljHIlzm-hIL5pUxSk9TDelatKpwCMkkOxWHFh-WYK2EQbXn59sDXrY0MMGsp55DhL_mWSUNbx8R-nZyAfYpqMvAxBnoPFmGz0Pn65XlggScEHmWybouuRs-MTcAe9UBr7mnbZp-lG6jauUwVOoXUzCgBHXFhPX6MMhM6sd0No15gfzV5FYKcGutQpJ8v3Ie2spXPtK3AGX3pB8Evn0kxr4mx7MtKXmru4HaGy3vzDu5FJrf9Z4b_-x8EZuWc_x0mBPstkEPqrJLmNPDdtokQ3VpwF1zHWDK6UNFm0zDMUsXi9FNnmwIy0]--></g></svg>