<?xml version="1.0" encoding="UTF-8" standalone="no"?><svg xmlns="http://www.w3.org/2000/svg" xmlns:xlink="http://www.w3.org/1999/xlink" contentScriptType="application/ecmascript" contentStyleType="text/css" height="367px" preserveAspectRatio="none" style="width:755px;height:367px;" version="1.1" viewBox="0 0 755 367" width="755px" zoomAndPan="magnify"><defs/><g><rect fill="#FFFFFF" height="75.3984" style="stroke:#000000;stroke-width:2.0;" width="739.5" x="10" y="209.8281"/><line style="stroke:#A80036;stroke-width:1.0;stroke-dasharray:5.0,5.0;" x1="54" x2="54" y1="84.2969" y2="360.4922"/><line style="stroke:#A80036;stroke-width:1.0;stroke-dasharray:5.0,5.0;" x1="698.5" x2="698.5" y1="84.2969" y2="360.4922"/><text fill="#000000" font-family="sans-serif" font-size="14" lengthAdjust="spacing" textLength="63" x="20" y="80.9951">:Commis</text><ellipse cx="54.5" cy="15" fill="#FEFECE" rx="8" ry="8" style="stroke:#A80036;stroke-width:2.0;"/><path d="M54.5,23 L54.5,50 M41.5,31 L67.5,31 M54.5,50 L41.5,65 M54.5,50 L67.5,65 " fill="none" style="stroke:#A80036;stroke-width:2.0;"/><rect fill="#FEFECE" height="30.2969" style="stroke:#A80036;stroke-width:1.5;" width="82" x="657.5" y="53"/><text fill="#000000" font-family="sans-serif" font-size="14" lengthAdjust="spacing" textLength="68" x="664.5" y="72.9951">:Systeme</text><polygon fill="#A80036" points="686.5,111.4297,696.5,115.4297,686.5,119.4297" style="stroke:#A80036;stroke-width:1.0;"/><line style="stroke:#A80036;stroke-width:1.0;" x1="54.5" x2="692.5" y1="115.4297" y2="115.4297"/><text fill="#000000" font-family="sans-serif" font-size="13" lengthAdjust="spacing" textLength="147" x="61.5" y="110.3638">demarrerReservation()</text><path d="M59,128.4297 L59,168.4297 L620,168.4297 L620,138.4297 L610,128.4297 L59,128.4297 " fill="#FBFB77" style="stroke:#A80036;stroke-width:1.0;"/><path d="M610,128.4297 L610,138.4297 L620,138.4297 L610,128.4297 " fill="#FBFB77" style="stroke:#A80036;stroke-width:1.0;"/><text fill="#000000" font-family="sans-serif" font-size="13" lengthAdjust="spacing" textLength="145" x="65" y="145.4966">Formulaire réservation</text><text fill="#000000" font-family="sans-serif" font-size="13" lengthAdjust="spacing" textLength="540" x="65" y="160.6294">demander: {quantity,dateArrive,dateDepart, categorie}, retourne: [nomCategorie]]</text><line style="stroke:#A80036;stroke-width:1.0;" x1="54.5" x2="64.5" y1="194.8281" y2="190.8281"/><line style="stroke:#A80036;stroke-width:1.0;" x1="54.5" x2="64.5" y1="194.8281" y2="198.8281"/><line style="stroke:#A80036;stroke-width:1.0;stroke-dasharray:2.0,2.0;" x1="54.5" x2="697.5" y1="194.8281" y2="194.8281"/><text fill="#000000" font-family="sans-serif" font-size="13" lengthAdjust="spacing" textLength="304" x="71.5" y="189.7622">FormulaireReservation, information réservation</text><path d="M10,209.8281 L88,209.8281 L88,216.8281 L78,226.8281 L10,226.8281 L10,209.8281 " fill="#EEEEEE" style="stroke:#000000;stroke-width:1.0;"/><rect fill="none" height="75.3984" style="stroke:#000000;stroke-width:2.0;" width="739.5" x="10" y="209.8281"/><text fill="#000000" font-family="sans-serif" font-size="13" font-weight="bold" lengthAdjust="spacing" textLength="33" x="25" y="222.895">loop</text><a href="client" target="_top" title="client" xlink:actuate="onRequest" xlink:href="client" xlink:show="new" xlink:title="client" xlink:type="simple"><text fill="#0000FF" font-family="sans-serif" font-size="11" font-weight="bold" lengthAdjust="spacing" text-decoration="underline" textLength="103" x="103" y="222.0386">n'a pas terminé</text></a><polygon fill="#A80036" points="686.5,244.0938,696.5,248.0938,686.5,252.0938" style="stroke:#A80036;stroke-width:1.0;"/><line style="stroke:#A80036;stroke-width:1.0;" x1="54.5" x2="692.5" y1="248.0938" y2="248.0938"/><text fill="#000000" font-family="sans-serif" font-size="13" lengthAdjust="spacing" textLength="620" x="61.5" y="243.0278">reserverChambres(quantity: integer, dateArrive:string, dateDepart:string, nomCategorie: String)</text><line style="stroke:#A80036;stroke-width:1.0;" x1="54.5" x2="64.5" y1="277.2266" y2="273.2266"/><line style="stroke:#A80036;stroke-width:1.0;" x1="54.5" x2="64.5" y1="277.2266" y2="281.2266"/><line style="stroke:#A80036;stroke-width:1.0;stroke-dasharray:2.0,2.0;" x1="54.5" x2="697.5" y1="277.2266" y2="277.2266"/><text fill="#000000" font-family="sans-serif" font-size="13" lengthAdjust="spacing" textLength="302" x="71.5" y="272.1606">formulaire réservation, information réservation</text><polygon fill="#A80036" points="686.5,309.3594,696.5,313.3594,686.5,317.3594" style="stroke:#A80036;stroke-width:1.0;"/><line style="stroke:#A80036;stroke-width:1.0;" x1="54.5" x2="692.5" y1="313.3594" y2="313.3594"/><text fill="#000000" font-family="sans-serif" font-size="13" lengthAdjust="spacing" textLength="336" x="61.5" y="308.2935">confirmerReservation(nom:string, telephone: string)</text><line style="stroke:#A80036;stroke-width:1.0;" x1="54.5" x2="64.5" y1="342.4922" y2="338.4922"/><line style="stroke:#A80036;stroke-width:1.0;" x1="54.5" x2="64.5" y1="342.4922" y2="346.4922"/><line style="stroke:#A80036;stroke-width:1.0;stroke-dasharray:2.0,2.0;" x1="54.5" x2="697.5" y1="342.4922" y2="342.4922"/><text fill="#000000" font-family="sans-serif" font-size="13" lengthAdjust="spacing" textLength="420" x="71.5" y="337.4263">Menu principale, noConfirmation, information client et reservation</text><!--MD5=[9ccdaff4e3ed53309866e6616b226c1d]
@startuml
skinparam style strictuml
Actor ":Commis" as Commis
Participant ":Systeme" as Systeme

Commis -> Systeme: demarrerReservation()
note right of Commis: Formulaire réservation\ndemander: {quantity,dateArrive,dateDepart, categorie}, retourne: [nomCategorie]] 
Commis <<- - Systeme: FormulaireReservation, information réservation

loop [client n'a pas terminé]
  Commis -> Systeme: reserverChambres(quantity: integer, dateArrive:string, dateDepart:string, nomCategorie: String)
    Commis <<- - Systeme: formulaire réservation, information réservation
end
 
 Commis -> Systeme: confirmerReservation(nom:string, telephone: string)
 Commis <<- - Systeme: Menu principale, noConfirmation, information client et reservation
@enduml

PlantUML version 1.2021.2beta7(Unknown compile time)
(GPL source distribution)
Java Runtime: Java(TM) SE Runtime Environment
JVM: Java HotSpot(TM) 64-Bit Server VM
Default Encoding: UTF-8
Language: en
Country: US
--></g></svg>