<?xml version="1.0" encoding="UTF-8" standalone="no"?><svg xmlns="http://www.w3.org/2000/svg" xmlns:xlink="http://www.w3.org/1999/xlink" contentScriptType="application/ecmascript" contentStyleType="text/css" height="227px" preserveAspectRatio="none" style="width:572px;height:227px;" version="1.1" viewBox="0 0 572 227" width="572px" zoomAndPan="magnify"><defs/><g><line style="stroke:#A80036;stroke-width:1.0;stroke-dasharray:5.0,5.0;" x1="39" x2="39" y1="84.2969" y2="220.8281"/><line style="stroke:#A80036;stroke-width:1.0;stroke-dasharray:5.0,5.0;" x1="529" x2="529" y1="84.2969" y2="220.8281"/><text fill="#000000" font-family="sans-serif" font-size="14" lengthAdjust="spacing" textLength="63" x="5" y="80.9951">:Commis</text><ellipse cx="39.5" cy="15" fill="#FEFECE" rx="8" ry="8" style="stroke:#A80036;stroke-width:2.0;"/><path d="M39.5,23 L39.5,50 M26.5,31 L52.5,31 M39.5,50 L26.5,65 M39.5,50 L52.5,65 " fill="none" style="stroke:#A80036;stroke-width:2.0;"/><rect fill="#FEFECE" height="30.2969" style="stroke:#A80036;stroke-width:1.5;" width="73" x="493" y="53"/><text fill="#000000" font-family="sans-serif" font-size="14" lengthAdjust="spacing" textLength="59" x="500" y="72.9951">:System</text><polygon fill="#A80036" points="517.5,111.4297,527.5,115.4297,517.5,119.4297" style="stroke:#A80036;stroke-width:1.0;"/><line style="stroke:#A80036;stroke-width:1.0;" x1="39.5" x2="523.5" y1="115.4297" y2="115.4297"/><text fill="#000000" font-family="sans-serif" font-size="13" lengthAdjust="spacing" textLength="293" x="46.5" y="110.3638">demarrerTransferChanbre(string noChambre)</text><line style="stroke:#A80036;stroke-width:1.0;" x1="39.5" x2="49.5" y1="144.5625" y2="140.5625"/><line style="stroke:#A80036;stroke-width:1.0;" x1="39.5" x2="49.5" y1="144.5625" y2="148.5625"/><line style="stroke:#A80036;stroke-width:1.0;stroke-dasharray:2.0,2.0;" x1="39.5" x2="528.5" y1="144.5625" y2="144.5625"/><text fill="#000000" font-family="sans-serif" font-size="13" lengthAdjust="spacing" textLength="284" x="56.5" y="139.4966">information du séjour, chambres disponibles</text><polygon fill="#A80036" points="517.5,169.6953,527.5,173.6953,517.5,177.6953" style="stroke:#A80036;stroke-width:1.0;"/><line style="stroke:#A80036;stroke-width:1.0;" x1="39.5" x2="523.5" y1="173.6953" y2="173.6953"/><text fill="#000000" font-family="sans-serif" font-size="13" lengthAdjust="spacing" textLength="466" x="46.5" y="168.6294">transfererChambre(string noChambreActuel, string noNouvelleChambre)</text><line style="stroke:#A80036;stroke-width:1.0;" x1="39.5" x2="49.5" y1="202.8281" y2="198.8281"/><line style="stroke:#A80036;stroke-width:1.0;" x1="39.5" x2="49.5" y1="202.8281" y2="206.8281"/><line style="stroke:#A80036;stroke-width:1.0;stroke-dasharray:2.0,2.0;" x1="39.5" x2="528.5" y1="202.8281" y2="202.8281"/><text fill="#000000" font-family="sans-serif" font-size="13" lengthAdjust="spacing" textLength="81" x="56.5" y="197.7622">confirmation</text><!--MD5=[1ec3f79ae8b74502d6eb424ef0c3c84b]
@startuml
skinparam style strictuml
Actor ":Commis" as C
participant ":System" as S

C->S: demarrerTransferChanbre(string noChambre)
C<<- -S: information du séjour, chambres disponibles

C->S: transfererChambre(string noChambreActuel, string noNouvelleChambre)
C<<- -S: confirmation
@enduml

PlantUML version 1.2021.2beta7(Unknown compile time)
(GPL source distribution)
Java Runtime: Java(TM) SE Runtime Environment
JVM: Java HotSpot(TM) 64-Bit Server VM
Default Encoding: UTF-8
Language: en
Country: US
--></g></svg>