<?xml version="1.0" encoding="UTF-8" standalone="no"?><svg xmlns="http://www.w3.org/2000/svg" xmlns:xlink="http://www.w3.org/1999/xlink" contentStyleType="text/css" height="535px" preserveAspectRatio="none" style="width:1038px;height:535px;background:#FFFFFF;" version="1.1" viewBox="0 0 1038 535" width="1038px" zoomAndPan="magnify"><defs/><g><line style="stroke:#181818;stroke-width:0.5;stroke-dasharray:5.0,5.0;" x1="179" x2="179" y1="36.2969" y2="528.9531"/><line style="stroke:#181818;stroke-width:0.5;stroke-dasharray:5.0,5.0;" x1="491" x2="491" y1="36.2969" y2="528.9531"/><line style="stroke:#181818;stroke-width:0.5;stroke-dasharray:5.0,5.0;" x1="654" x2="654" y1="36.2969" y2="528.9531"/><line style="stroke:#181818;stroke-width:0.5;stroke-dasharray:5.0,5.0;" x1="830" x2="830" y1="36.2969" y2="528.9531"/><line style="stroke:#181818;stroke-width:0.5;stroke-dasharray:5.0,5.0;" x1="957" x2="957" y1="36.2969" y2="528.9531"/><rect fill="#E2E2F0" height="30.2969" rx="2.5" ry="2.5" style="stroke:#181818;stroke-width:0.5;" width="182" x="88" y="5"/><text fill="#000000" font-family="sans-serif" font-size="14" lengthAdjust="spacing" textLength="168" x="95" y="24.9951">:ControleurReservation</text><rect fill="#E2E2F0" height="30.2969" rx="2.5" ry="2.5" style="stroke:#181818;stroke-width:0.5;" width="58" x="462" y="5"/><text fill="#000000" font-family="sans-serif" font-size="14" lengthAdjust="spacing" textLength="44" x="469" y="24.9951">:Hotel</text><rect fill="#E2E2F0" height="30.2969" rx="2.5" ry="2.5" style="stroke:#181818;stroke-width:0.5;" width="248" x="530" y="5"/><text fill="#000000" font-family="sans-serif" font-size="14" lengthAdjust="spacing" textLength="234" x="537" y="24.9951">:Map&lt;numero:string,:Chambre&gt;</text><rect fill="#E2E2F0" height="30.2969" rx="2.5" ry="2.5" style="stroke:#181818;stroke-width:0.5;" width="85" x="788" y="5"/><text fill="#000000" font-family="sans-serif" font-size="14" lengthAdjust="spacing" textLength="71" x="795" y="24.9951">:Chambre</text><rect fill="#E2E2F0" height="30.2969" rx="2.5" ry="2.5" style="stroke:#181818;stroke-width:0.5;" width="149" x="883" y="5"/><text fill="#000000" font-family="sans-serif" font-size="14" lengthAdjust="spacing" textLength="135" x="890" y="24.9951">category:Category</text><path d="M14,51.2969 L14,76.2969 L174,76.2969 L174,61.2969 L164,51.2969 L14,51.2969 " fill="#FEFFDD" style="stroke:#181818;stroke-width:0.5;"/><path d="M164,51.2969 L164,61.2969 L174,61.2969 L164,51.2969 " fill="#FEFFDD" style="stroke:#181818;stroke-width:0.5;"/><text fill="#000000" font-family="sans-serif" font-size="13" lengthAdjust="spacing" textLength="139" x="20" y="68.3638">Controleur de session</text><polygon fill="#181818" points="167,113.6953,177,117.6953,167,121.6953" style="stroke:#181818;stroke-width:1.0;"/><line style="stroke:#181818;stroke-width:1.0;" x1="0" x2="173" y1="117.6953" y2="117.6953"/><text fill="#000000" font-family="sans-serif" font-size="13" lengthAdjust="spacing" textLength="119" x="7" y="97.4966">demarrerTransfer(</text><text fill="#000000" font-family="sans-serif" font-size="13" lengthAdjust="spacing" textLength="155" x="7" y="112.6294">numeroChambre:string)</text><path d="M184,130.6953 L184,185.6953 L510,185.6953 L510,140.6953 L500,130.6953 L184,130.6953 " fill="#FEFFDD" style="stroke:#181818;stroke-width:0.5;"/><path d="M500,130.6953 L500,140.6953 L510,140.6953 L500,130.6953 " fill="#FEFFDD" style="stroke:#181818;stroke-width:0.5;"/><text fill="#000000" font-family="sans-serif" font-size="13" lengthAdjust="spacing" textLength="140" x="190" y="147.7622">expert en information</text><text fill="#000000" font-family="sans-serif" font-size="13" lengthAdjust="spacing" textLength="305" x="190" y="162.895">controleur a une visibilité sur l'objet racine hotel</text><text fill="#000000" font-family="sans-serif" font-size="13" lengthAdjust="spacing" textLength="176" x="190" y="178.0278">Hotel connais les chambres</text><polygon fill="#181818" points="479,223.3594,489,227.3594,479,231.3594" style="stroke:#181818;stroke-width:1.0;"/><line style="stroke:#181818;stroke-width:1.0;" x1="179" x2="485" y1="227.3594" y2="227.3594"/><text fill="#000000" font-family="sans-serif" font-size="13" lengthAdjust="spacing" textLength="175" x="186" y="207.1606">[category,sejour.dateFin] =</text><text fill="#000000" font-family="sans-serif" font-size="13" lengthAdjust="spacing" textLength="288" x="186" y="222.2935">getInfoPourTransferChambre(numero:string)</text><path d="M496,240.3594 L496,280.3594 L657,280.3594 L657,250.3594 L647,240.3594 L496,240.3594 " fill="#FEFFDD" style="stroke:#181818;stroke-width:0.5;"/><path d="M647,240.3594 L647,250.3594 L657,250.3594 L647,240.3594 " fill="#FEFFDD" style="stroke:#181818;stroke-width:0.5;"/><text fill="#000000" font-family="sans-serif" font-size="13" lengthAdjust="spacing" textLength="140" x="502" y="257.4263">Expert en information</text><text fill="#000000" font-family="sans-serif" font-size="13" lengthAdjust="spacing" textLength="136" x="502" y="272.5591">Hotel possède la Map</text><polygon fill="#181818" points="642,302.7578,652,306.7578,642,310.7578" style="stroke:#181818;stroke-width:1.0;"/><line style="stroke:#181818;stroke-width:1.0;" x1="491" x2="648" y1="306.7578" y2="306.7578"/><text fill="#000000" font-family="sans-serif" font-size="13" lengthAdjust="spacing" textLength="114" x="498" y="301.6919">ch = get(numero)</text><path d="M496,319.7578 L496,359.7578 L874,359.7578 L874,329.7578 L864,319.7578 L496,319.7578 " fill="#FEFFDD" style="stroke:#181818;stroke-width:0.5;"/><path d="M864,319.7578 L864,329.7578 L874,329.7578 L864,319.7578 " fill="#FEFFDD" style="stroke:#181818;stroke-width:0.5;"/><text fill="#000000" font-family="sans-serif" font-size="13" lengthAdjust="spacing" textLength="140" x="502" y="336.8247">Expert en information</text><text fill="#000000" font-family="sans-serif" font-size="13" lengthAdjust="spacing" textLength="357" x="502" y="351.9575">La chambre connais son séjour courrant et sa catégorie</text><polygon fill="#181818" points="818.5,397.2891,828.5,401.2891,818.5,405.2891" style="stroke:#181818;stroke-width:1.0;"/><line style="stroke:#181818;stroke-width:1.0;" x1="491" x2="824.5" y1="401.2891" y2="401.2891"/><text fill="#000000" font-family="sans-serif" font-size="13" lengthAdjust="spacing" textLength="124" x="498" y="381.0903">[category,sejour] =</text><text fill="#000000" font-family="sans-serif" font-size="13" lengthAdjust="spacing" textLength="194" x="498" y="396.2231">getCategoryEtSejourCourant()</text><path d="M184,414.2891 L184,454.2891 L431,454.2891 L431,424.2891 L421,414.2891 L184,414.2891 " fill="#FEFFDD" style="stroke:#181818;stroke-width:0.5;"/><path d="M421,414.2891 L421,424.2891 L431,424.2891 L421,414.2891 " fill="#FEFFDD" style="stroke:#181818;stroke-width:0.5;"/><text fill="#000000" font-family="sans-serif" font-size="13" lengthAdjust="spacing" textLength="140" x="190" y="431.356">Expert en information</text><text fill="#000000" font-family="sans-serif" font-size="13" lengthAdjust="spacing" textLength="226" x="190" y="446.4888">La catégorie connais ses chambres</text><polygon fill="#181818" points="945.5,506.9531,955.5,510.9531,945.5,514.9531" style="stroke:#181818;stroke-width:1.0;"/><line style="stroke:#181818;stroke-width:1.0;" x1="179" x2="951.5" y1="510.9531" y2="510.9531"/><text fill="#000000" font-family="sans-serif" font-size="13" lengthAdjust="spacing" textLength="151" x="186" y="475.6216">getChambreDisponible(</text><text fill="#000000" font-family="sans-serif" font-size="13" lengthAdjust="spacing" textLength="119" x="186" y="490.7544">maintenant:string,</text><text fill="#000000" font-family="sans-serif" font-size="13" lengthAdjust="spacing" textLength="93" x="186" y="505.8872">dateFin:string)</text><!--SRC=[bLBDYjj03BxxASHUDeNDFi3G1egxnOK6IhstfeU9eoJQZZL66Y_TD-e-Hrwiybz2tL3emSOUQVJzINyGDrvy3PfU0jfRg4fj7RBCZXDLr7XESEFoo4bYm5Q-eg8y-qIHRy0hbBFE8YOCVQMOLTQ-USjjZH9TXyE7EvSVVRqLNFNzwtmEEbJxOZwRLlc4XoWlBXy_XgxtZrd6nW02xXF4FPGEBjnXPn9HrRX3jboLu7POUn6KH_6iUvJ5XWUA8_R8zCquLUXmdCRYpmOb0J8GxwFKlIKRhYve7bf6U2QbBGLAfrTGEmstSVk42SHNPELZvzU6Uzl0BhCdDVOArS10inAMAoWSV9iqtoa-nLRkT_R_aVWxl8CD7p1zCXvVh3296JKi_Z3zBoas-U6wb85J4rLFlyovuC4Yp8hbQfqxesUm1ZfE_u-nd_saxQnNBH0zlNQgxAmLwJ8sZzHQlHbdgWcpeZCYl-B4sO5f6HvIsHToUspKubf-_s1tXhmGd0TYc-Ow-QF77qYRoBGDQ1jKU-A4RC3JeXkxCQmfXTy0]--></g></svg>