<?xml version="1.0" encoding="UTF-8" standalone="no"?><svg xmlns="http://www.w3.org/2000/svg" xmlns:xlink="http://www.w3.org/1999/xlink" contentScriptType="application/ecmascript" contentStyleType="text/css" height="352px" preserveAspectRatio="none" style="width:509px;height:352px;" version="1.1" viewBox="0 0 509 352" width="509px" zoomAndPan="magnify"><defs/><g><text fill="#000000" font-family="sans-serif" font-size="18" lengthAdjust="spacing" textLength="365" x="74" y="28.708">DSS CU01 - Ajouter un livre à échanger</text><rect fill="#FFFFFF" height="75.3984" style="stroke:#000000;stroke-width:2.0;" width="493" x="10" y="194.5156"/><line style="stroke:#A80036;stroke-width:1.0;stroke-dasharray:5.0,5.0;" x1="56" x2="56" y1="119.25" y2="345.1797"/><line style="stroke:#A80036;stroke-width:1.0;stroke-dasharray:5.0,5.0;" x1="448.5" x2="448.5" y1="119.25" y2="345.1797"/><text fill="#000000" font-family="sans-serif" font-size="14" lengthAdjust="spacing" textLength="66" x="20" y="115.9482">:Etudiant</text><ellipse cx="56" cy="49.9531" fill="#FEFECE" rx="8" ry="8" style="stroke:#A80036;stroke-width:2.0;"/><path d="M56,57.9531 L56,84.9531 M43,65.9531 L69,65.9531 M56,84.9531 L43,99.9531 M56,84.9531 L69,99.9531 " fill="none" style="stroke:#A80036;stroke-width:2.0;"/><rect fill="#FEFECE" height="30.2969" style="stroke:#A80036;stroke-width:1.5;" width="73" x="412.5" y="87.9531"/><text fill="#000000" font-family="sans-serif" font-size="14" lengthAdjust="spacing" textLength="59" x="419.5" y="107.9482">:System</text><polygon fill="#A80036" points="437,146.3828,447,150.3828,437,154.3828" style="stroke:#A80036;stroke-width:1.0;"/><line style="stroke:#A80036;stroke-width:1.0;" x1="56" x2="443" y1="150.3828" y2="150.3828"/><text fill="#000000" font-family="sans-serif" font-size="13" lengthAdjust="spacing" textLength="134" x="63" y="145.3169">demarrerAjoutLivre()</text><line style="stroke:#A80036;stroke-width:1.0;" x1="56" x2="66" y1="179.5156" y2="175.5156"/><line style="stroke:#A80036;stroke-width:1.0;" x1="56" x2="66" y1="179.5156" y2="183.5156"/><line style="stroke:#A80036;stroke-width:1.0;stroke-dasharray:2.0,2.0;" x1="56" x2="448" y1="179.5156" y2="179.5156"/><text fill="#000000" font-family="sans-serif" font-size="13" lengthAdjust="spacing" textLength="369" x="73" y="174.4497">formulaire pour entrer le code ISBN et la condition du livre</text><path d="M10,194.5156 L88,194.5156 L88,201.5156 L78,211.5156 L10,211.5156 L10,194.5156 " fill="#EEEEEE" style="stroke:#000000;stroke-width:1.0;"/><rect fill="none" height="75.3984" style="stroke:#000000;stroke-width:2.0;" width="493" x="10" y="194.5156"/><text fill="#000000" font-family="sans-serif" font-size="13" font-weight="bold" lengthAdjust="spacing" textLength="33" x="25" y="207.5825">loop</text><text fill="#000000" font-family="sans-serif" font-size="11" font-weight="bold" lengthAdjust="spacing" textLength="395" x="103" y="206.7261">[tant que le client n'a pas entré tous ses livres à échanger]</text><polygon fill="#A80036" points="437,228.7813,447,232.7813,437,236.7813" style="stroke:#A80036;stroke-width:1.0;"/><line style="stroke:#A80036;stroke-width:1.0;" x1="56" x2="443" y1="232.7813" y2="232.7813"/><text fill="#000000" font-family="sans-serif" font-size="13" lengthAdjust="spacing" textLength="293" x="63" y="227.7153">ajouterLivre(isbn:string, codeCondition:string)</text><line style="stroke:#A80036;stroke-width:1.0;" x1="56" x2="66" y1="261.9141" y2="257.9141"/><line style="stroke:#A80036;stroke-width:1.0;" x1="56" x2="66" y1="261.9141" y2="265.9141"/><line style="stroke:#A80036;stroke-width:1.0;stroke-dasharray:2.0,2.0;" x1="56" x2="448" y1="261.9141" y2="261.9141"/><text fill="#000000" font-family="sans-serif" font-size="13" lengthAdjust="spacing" textLength="244" x="73" y="256.8481">description livre, formulaire précédent</text><polygon fill="#A80036" points="437,294.0469,447,298.0469,437,302.0469" style="stroke:#A80036;stroke-width:1.0;"/><line style="stroke:#A80036;stroke-width:1.0;" x1="56" x2="443" y1="298.0469" y2="298.0469"/><text fill="#000000" font-family="sans-serif" font-size="13" lengthAdjust="spacing" textLength="129" x="63" y="292.981">terminerAjoutLivre()</text><line style="stroke:#A80036;stroke-width:1.0;" x1="56" x2="66" y1="327.1797" y2="323.1797"/><line style="stroke:#A80036;stroke-width:1.0;" x1="56" x2="66" y1="327.1797" y2="331.1797"/><line style="stroke:#A80036;stroke-width:1.0;stroke-dasharray:2.0,2.0;" x1="56" x2="448" y1="327.1797" y2="327.1797"/><text fill="#000000" font-family="sans-serif" font-size="13" lengthAdjust="spacing" textLength="95" x="73" y="322.1138">[livre du client]</text><!--MD5=[81491553584b2ed5377da886b8500679]
@startuml
skinparam style strictuml
    title DSS CU01 - Ajouter un livre à échanger

    Actor ":Etudiant" as E
    participant ":System" as S

    E -> S: demarrerAjoutLivre()
    E <<- - S: formulaire pour entrer le code ISBN et la condition du livre

    loop tant que le client n'a pas entré tous ses livres à échanger
    E -> S: ajouterLivre(isbn:string, codeCondition:string)
    E <<- - S: description livre, formulaire précédent
    end

    E -> S: terminerAjoutLivre()
    E <<- - S: [livre du client]
@enduml

PlantUML version 1.2021.01beta3(Unknown compile time)
(GPL source distribution)
Java Runtime: Java(TM) SE Runtime Environment
JVM: Java HotSpot(TM) 64-Bit Server VM
Default Encoding: UTF-8
Language: en
Country: US
--></g></svg>