<?xml version="1.0" encoding="UTF-8" standalone="no"?><svg xmlns="http://www.w3.org/2000/svg" xmlns:xlink="http://www.w3.org/1999/xlink" contentScriptType="application/ecmascript" contentStyleType="text/css" height="586px" preserveAspectRatio="none" style="width:1422px;height:586px;" version="1.1" viewBox="0 0 1422 586" width="1422px" zoomAndPan="magnify"><defs/><g><rect fill="#FFFFFF" height="423.9922" style="stroke:#A80036;stroke-width:1.0;" width="10" x="239" y="137.6953"/><line style="stroke:#A80036;stroke-width:1.0;stroke-dasharray:5.0,5.0;" x1="243.5" x2="243.5" y1="36.2969" y2="579.6875"/><line style="stroke:#A80036;stroke-width:1.0;stroke-dasharray:5.0,5.0;" x1="646" x2="646" y1="36.2969" y2="579.6875"/><line style="stroke:#A80036;stroke-width:1.0;stroke-dasharray:5.0,5.0;" x1="1043" x2="1043" y1="36.2969" y2="579.6875"/><line style="stroke:#A80036;stroke-width:1.0;stroke-dasharray:5.0,5.0;" x1="1230.5" x2="1230.5" y1="36.2969" y2="579.6875"/><line style="stroke:#A80036;stroke-width:1.0;stroke-dasharray:5.0,5.0;" x1="1358.5" x2="1358.5" y1="36.2969" y2="579.6875"/><rect fill="#FEFECE" height="30.2969" style="stroke:#A80036;stroke-width:1.5;" width="79" x="204.5" y="5"/><text fill="#000000" font-family="sans-serif" font-size="14" lengthAdjust="spacing" textLength="65" x="211.5" y="24.9951">bdd:BDD</text><rect fill="#FEFECE" height="30.2969" style="stroke:#A80036;stroke-width:1.5;" width="136" x="578" y="5"/><text fill="#000000" font-family="sans-serif" font-size="14" lengthAdjust="spacing" textLength="122" x="585" y="24.9951">proposeur:Client</text><rect fill="#FEFECE" height="30.2969" style="stroke:#A80036;stroke-width:1.5;" width="182" x="952" y="5"/><text fill="#000000" font-family="sans-serif" font-size="14" lengthAdjust="spacing" textLength="168" x="959" y="24.9951">pe:PropositionEchange</text><rect fill="#FEFECE" height="30.2969" style="stroke:#A80036;stroke-width:1.5;" width="119" x="1171.5" y="5"/><text fill="#000000" font-family="sans-serif" font-size="14" lengthAdjust="spacing" textLength="105" x="1178.5" y="24.9951">llo:List&lt;Livre&gt;</text><rect fill="#FEFECE" height="30.2969" style="stroke:#A80036;stroke-width:1.5;" width="116" x="1300.5" y="5"/><text fill="#000000" font-family="sans-serif" font-size="14" lengthAdjust="spacing" textLength="102" x="1307.5" y="24.9951">llr:List&lt;Livre&gt;</text><rect fill="#FFFFFF" height="423.9922" style="stroke:#A80036;stroke-width:1.0;" width="10" x="239" y="137.6953"/><path d="M6,51.2969 L6,76.2969 L239,76.2969 L239,61.2969 L229,51.2969 L6,51.2969 " fill="#FBFB77" style="stroke:#A80036;stroke-width:1.0;"/><path d="M229,51.2969 L229,61.2969 L239,61.2969 L229,51.2969 " fill="#FBFB77" style="stroke:#A80036;stroke-width:1.0;"/><text fill="#000000" font-family="sans-serif" font-size="13" lengthAdjust="spacing" textLength="212" x="12" y="68.3638">controleur de façade objet racine</text><path d="M313,86.4297 L313,111.4297 L641,111.4297 L641,96.4297 L631,86.4297 L313,86.4297 " fill="#FBFB77" style="stroke:#A80036;stroke-width:1.0;"/><path d="M631,86.4297 L631,96.4297 L641,96.4297 L631,86.4297 " fill="#FBFB77" style="stroke:#A80036;stroke-width:1.0;"/><text fill="#000000" font-family="sans-serif" font-size="13" lengthAdjust="spacing" textLength="307" x="319" y="103.4966">controleur le voit puisque c'est une précondition</text><polygon fill="#A80036" points="227,133.6953,237,137.6953,227,141.6953" style="stroke:#A80036;stroke-width:1.0;"/><line style="stroke:#A80036;stroke-width:1.0;" x1="0" x2="233" y1="137.6953" y2="137.6953"/><text fill="#000000" font-family="sans-serif" font-size="13" lengthAdjust="spacing" textLength="136" x="7" y="132.6294">terminerProposition()</text><path d="M254,150.6953 L254,205.6953 L591,205.6953 L591,160.6953 L581,150.6953 L254,150.6953 " fill="#FBFB77" style="stroke:#A80036;stroke-width:1.0;"/><path d="M581,150.6953 L581,160.6953 L591,160.6953 L581,150.6953 " fill="#FBFB77" style="stroke:#A80036;stroke-width:1.0;"/><text fill="#000000" font-family="sans-serif" font-size="13" lengthAdjust="spacing" textLength="140" x="260" y="167.7622">Expert en information</text><text fill="#000000" font-family="sans-serif" font-size="13" lengthAdjust="spacing" textLength="197" x="260" y="182.895">bdd connait le client proposeur</text><text fill="#000000" font-family="sans-serif" font-size="13" lengthAdjust="spacing" textLength="316" x="260" y="198.0278">Client proposeur connait la proposition d'échange</text><polygon fill="#A80036" points="634,228.2266,644,232.2266,634,236.2266" style="stroke:#A80036;stroke-width:1.0;"/><line style="stroke:#A80036;stroke-width:1.0;" x1="249" x2="640" y1="232.2266" y2="232.2266"/><text fill="#000000" font-family="sans-serif" font-size="13" lengthAdjust="spacing" textLength="373" x="256" y="227.1606">[nbLivreAOffrir, nbLivreARecevoir] = terminerProposition()</text><path d="M651,245.2266 L651,300.2266 L988,300.2266 L988,255.2266 L978,245.2266 L651,245.2266 " fill="#FBFB77" style="stroke:#A80036;stroke-width:1.0;"/><path d="M978,245.2266 L978,255.2266 L988,255.2266 L978,245.2266 " fill="#FBFB77" style="stroke:#A80036;stroke-width:1.0;"/><text fill="#000000" font-family="sans-serif" font-size="13" lengthAdjust="spacing" textLength="140" x="657" y="262.2935">Expert en information</text><text fill="#000000" font-family="sans-serif" font-size="13" lengthAdjust="spacing" textLength="316" x="657" y="277.4263">Client proposeur connait la proposition d'échange</text><text fill="#000000" font-family="sans-serif" font-size="13" lengthAdjust="spacing" textLength="191" x="657" y="292.5591">pe possède les listes de livres</text><polygon fill="#A80036" points="1031,322.7578,1041,326.7578,1031,330.7578" style="stroke:#A80036;stroke-width:1.0;"/><line style="stroke:#A80036;stroke-width:1.0;" x1="646" x2="1037" y1="326.7578" y2="326.7578"/><text fill="#000000" font-family="sans-serif" font-size="13" lengthAdjust="spacing" textLength="373" x="653" y="321.6919">[nbLivreAOffrir, nbLivreARecevoir] = terminerProposition()</text><path d="M1048,339.7578 L1048,364.7578 L1387,364.7578 L1387,349.7578 L1377,339.7578 L1048,339.7578 " fill="#FBFB77" style="stroke:#A80036;stroke-width:1.0;"/><path d="M1377,339.7578 L1377,349.7578 L1387,349.7578 L1377,339.7578 " fill="#FBFB77" style="stroke:#A80036;stroke-width:1.0;"/><text fill="#000000" font-family="sans-serif" font-size="13" lengthAdjust="spacing" textLength="318" x="1054" y="356.8247">Expert en information, pe possède la liste de livre</text><polygon fill="#A80036" points="1346.5,387.0234,1356.5,391.0234,1346.5,395.0234" style="stroke:#A80036;stroke-width:1.0;"/><line style="stroke:#A80036;stroke-width:1.0;" x1="1043" x2="1352.5" y1="391.0234" y2="391.0234"/><text fill="#000000" font-family="sans-serif" font-size="13" lengthAdjust="spacing" textLength="187" x="1050" y="385.9575">nbLivreARecevoir = getSize()</text><path d="M1048,404.0234 L1048,429.0234 L1387,429.0234 L1387,414.0234 L1377,404.0234 L1048,404.0234 " fill="#FBFB77" style="stroke:#A80036;stroke-width:1.0;"/><path d="M1377,404.0234 L1377,414.0234 L1387,414.0234 L1377,404.0234 " fill="#FBFB77" style="stroke:#A80036;stroke-width:1.0;"/><text fill="#000000" font-family="sans-serif" font-size="13" lengthAdjust="spacing" textLength="318" x="1054" y="421.0903">Expert en information, pe possède la liste de livre</text><polygon fill="#A80036" points="1219,451.2891,1229,455.2891,1219,459.2891" style="stroke:#A80036;stroke-width:1.0;"/><line style="stroke:#A80036;stroke-width:1.0;" x1="1043" x2="1225" y1="455.2891" y2="455.2891"/><text fill="#000000" font-family="sans-serif" font-size="13" lengthAdjust="spacing" textLength="164" x="1050" y="450.2231">nbLivreAOffrir = getSize()</text><path d="M1048,468.2891 L1048,493.2891 L1339,493.2891 L1339,478.2891 L1329,468.2891 L1048,468.2891 " fill="#FBFB77" style="stroke:#A80036;stroke-width:1.0;"/><path d="M1329,468.2891 L1329,478.2891 L1339,478.2891 L1329,468.2891 " fill="#FBFB77" style="stroke:#A80036;stroke-width:1.0;"/><text fill="#000000" font-family="sans-serif" font-size="13" lengthAdjust="spacing" textLength="270" x="1054" y="485.356">Expert en information, mutateur d'attribut</text><line style="stroke:#A80036;stroke-width:1.0;" x1="1043" x2="1085" y1="519.5547" y2="519.5547"/><line style="stroke:#A80036;stroke-width:1.0;" x1="1085" x2="1085" y1="519.5547" y2="532.5547"/><line style="stroke:#A80036;stroke-width:1.0;" x1="1044" x2="1085" y1="532.5547" y2="532.5547"/><polygon fill="#A80036" points="1054,528.5547,1044,532.5547,1054,536.5547" style="stroke:#A80036;stroke-width:1.0;"/><text fill="#000000" font-family="sans-serif" font-size="13" lengthAdjust="spacing" textLength="93" x="1050" y="514.4888">setDateTime()</text><line style="stroke:#A80036;stroke-width:1.0;" x1="0" x2="10" y1="561.6875" y2="557.6875"/><line style="stroke:#A80036;stroke-width:1.0;" x1="0" x2="10" y1="561.6875" y2="565.6875"/><line style="stroke:#A80036;stroke-width:1.0;stroke-dasharray:2.0,2.0;" x1="0" x2="243" y1="561.6875" y2="561.6875"/><text fill="#000000" font-family="sans-serif" font-size="13" lengthAdjust="spacing" textLength="220" x="17" y="556.6216">nombre livres a offrir et a recevoir</text><!--MD5=[328309e15d7e9a18ccd17a56fc233f23]
@startuml
skinparam style strictuml
participant "bdd:BDD" as CTRL
note left of CTRL: controleur de façade objet racine
participant "proposeur:Client" as CP
note left of CP: controleur le voit puisque c'est une précondition
participant "pe:PropositionEchange" as PE
participant "llo:List<Livre>" as LLO
participant "llr:List<Livre>" as LLR

->CTRL: terminerProposition()
activate CTRL

note right of CTRL: Expert en information\nbdd connait le client proposeur\nClient proposeur connait la proposition d'échange
CTRL -> CP: [nbLivreAOffrir, nbLivreARecevoir] = terminerProposition()

note right of CP: Expert en information\nClient proposeur connait la proposition d'échange\npe possède les listes de livres
CP->PE:[nbLivreAOffrir, nbLivreARecevoir] = terminerProposition()

note right of PE: Expert en information, pe possède la liste de livre
PE->LLR: nbLivreARecevoir = getSize()

note right of PE: Expert en information, pe possède la liste de livre
PE->LLO: nbLivreAOffrir = getSize()

note right of PE: Expert en information, mutateur d'attribut
PE -> PE: setDateTime()

<<- -CTRL: nombre livres a offrir et a recevoir
deactivate CTRL
@enduml

PlantUML version 1.2021.01beta3(Unknown compile time)
(GPL source distribution)
Java Runtime: Java(TM) SE Runtime Environment
JVM: Java HotSpot(TM) 64-Bit Server VM
Default Encoding: UTF-8
Language: en
Country: US
--></g></svg>