<?xml version="1.0" encoding="UTF-8" standalone="no"?><svg xmlns="http://www.w3.org/2000/svg" xmlns:xlink="http://www.w3.org/1999/xlink" contentScriptType="application/ecmascript" contentStyleType="text/css" height="912px" preserveAspectRatio="none" style="width:1351px;height:912px;" version="1.1" viewBox="0 0 1351 912" width="1351px" zoomAndPan="magnify"><defs/><g><rect fill="#FFFFFF" height="714.2109" style="stroke:#A80036;stroke-width:1.0;" width="10" x="238" y="172.8281"/><rect fill="#FFFFFF" height="111.6641" style="stroke:#000000;stroke-width:2.0;" width="1151.5" x="193.5" y="747.2422"/><line style="stroke:#A80036;stroke-width:1.0;stroke-dasharray:5.0,5.0;" x1="242.5" x2="242.5" y1="36.2969" y2="905.0391"/><line style="stroke:#A80036;stroke-width:1.0;stroke-dasharray:5.0,5.0;" x1="449" x2="449" y1="36.2969" y2="905.0391"/><line style="stroke:#A80036;stroke-width:1.0;stroke-dasharray:5.0,5.0;" x1="618" x2="618" y1="356.2734" y2="905.0391"/><line style="stroke:#A80036;stroke-width:1.0;stroke-dasharray:5.0,5.0;" x1="778" x2="778" y1="569.6641" y2="905.0391"/><line style="stroke:#A80036;stroke-width:1.0;stroke-dasharray:5.0,5.0;" x1="906" x2="906" y1="462.9688" y2="905.0391"/><line style="stroke:#A80036;stroke-width:1.0;stroke-dasharray:5.0,5.0;" x1="1091" x2="1091" y1="36.2969" y2="905.0391"/><line style="stroke:#A80036;stroke-width:1.0;stroke-dasharray:5.0,5.0;" x1="1276" x2="1276" y1="36.2969" y2="905.0391"/><rect fill="#FEFECE" height="30.2969" style="stroke:#A80036;stroke-width:1.5;" width="79" x="203.5" y="5"/><text fill="#000000" font-family="sans-serif" font-size="14" lengthAdjust="spacing" textLength="65" x="210.5" y="24.9951">bdd:BDD</text><rect fill="#FEFECE" height="30.2969" style="stroke:#A80036;stroke-width:1.5;" width="136" x="381" y="5"/><text fill="#000000" font-family="sans-serif" font-size="14" lengthAdjust="spacing" textLength="122" x="388" y="24.9951">proposeur:Client</text><rect fill="#FEFECE" height="30.2969" style="stroke:#A80036;stroke-width:1.5;" width="234" x="974" y="5"/><text fill="#000000" font-family="sans-serif" font-size="14" lengthAdjust="spacing" textLength="220" x="981" y="24.9951">lpe:List&lt;PropositionEchange&gt;</text><rect fill="#FEFECE" height="30.2969" style="stroke:#A80036;stroke-width:1.5;" width="117" x="1218" y="5"/><text fill="#000000" font-family="sans-serif" font-size="14" lengthAdjust="spacing" textLength="103" x="1225" y="24.9951">client[i]:Client</text><rect fill="#FFFFFF" height="714.2109" style="stroke:#A80036;stroke-width:1.0;" width="10" x="238" y="172.8281"/><path d="M5,51.2969 L5,76.2969 L238,76.2969 L238,61.2969 L228,51.2969 L5,51.2969 " fill="#FBFB77" style="stroke:#A80036;stroke-width:1.0;"/><path d="M228,51.2969 L228,61.2969 L238,61.2969 L228,51.2969 " fill="#FBFB77" style="stroke:#A80036;stroke-width:1.0;"/><text fill="#000000" font-family="sans-serif" font-size="13" lengthAdjust="spacing" textLength="212" x="11" y="68.3638">controleur de façade objet racine</text><path d="M116,86.4297 L116,111.4297 L444,111.4297 L444,96.4297 L434,86.4297 L116,86.4297 " fill="#FBFB77" style="stroke:#A80036;stroke-width:1.0;"/><path d="M434,86.4297 L434,96.4297 L444,96.4297 L434,86.4297 " fill="#FBFB77" style="stroke:#A80036;stroke-width:1.0;"/><text fill="#000000" font-family="sans-serif" font-size="13" lengthAdjust="spacing" textLength="307" x="122" y="103.4966">controleur le voit puisque c'est une précondition</text><path d="M794,121.5625 L794,146.5625 L1086,146.5625 L1086,131.5625 L1076,121.5625 L794,121.5625 " fill="#FBFB77" style="stroke:#A80036;stroke-width:1.0;"/><path d="M1076,121.5625 L1076,131.5625 L1086,131.5625 L1076,121.5625 " fill="#FBFB77" style="stroke:#A80036;stroke-width:1.0;"/><text fill="#000000" font-family="sans-serif" font-size="13" lengthAdjust="spacing" textLength="271" x="800" y="138.6294">Client a une liste de proposition d'échange</text><polygon fill="#A80036" points="226,168.8281,236,172.8281,226,176.8281" style="stroke:#A80036;stroke-width:1.0;"/><line style="stroke:#A80036;stroke-width:1.0;" x1="0" x2="232" y1="172.8281" y2="172.8281"/><text fill="#000000" font-family="sans-serif" font-size="13" lengthAdjust="spacing" textLength="196" x="7" y="167.7622">démarrerPropositionÉchange()</text><path d="M253,185.8281 L253,240.8281 L555,240.8281 L555,195.8281 L545,185.8281 L253,185.8281 " fill="#FBFB77" style="stroke:#A80036;stroke-width:1.0;"/><path d="M545,185.8281 L545,195.8281 L555,195.8281 L545,185.8281 " fill="#FBFB77" style="stroke:#A80036;stroke-width:1.0;"/><text fill="#000000" font-family="sans-serif" font-size="13" lengthAdjust="spacing" textLength="186" x="259" y="202.895">patron expert en information</text><text fill="#000000" font-family="sans-serif" font-size="13" lengthAdjust="spacing" textLength="121" x="259" y="218.0278">bdd voit proposeur</text><text fill="#000000" font-family="sans-serif" font-size="13" lengthAdjust="spacing" textLength="281" x="259" y="233.1606">proposteur possède une liste de porposition</text><polygon fill="#A80036" points="437,263.3594,447,267.3594,437,271.3594" style="stroke:#A80036;stroke-width:1.0;"/><line style="stroke:#A80036;stroke-width:1.0;" x1="248" x2="443" y1="267.3594" y2="267.3594"/><text fill="#000000" font-family="sans-serif" font-size="13" lengthAdjust="spacing" textLength="177" x="255" y="262.2935">createPropositionEchange()</text><path d="M454,280.3594 L454,320.3594 L592,320.3594 L592,290.3594 L582,280.3594 L454,280.3594 " fill="#FBFB77" style="stroke:#A80036;stroke-width:1.0;"/><path d="M582,280.3594 L582,290.3594 L592,290.3594 L582,280.3594 " fill="#FBFB77" style="stroke:#A80036;stroke-width:1.0;"/><text fill="#000000" font-family="sans-serif" font-size="13" lengthAdjust="spacing" textLength="102" x="460" y="297.4263">Patron Createur</text><text fill="#000000" font-family="sans-serif" font-size="13" lengthAdjust="spacing" textLength="113" x="464" y="312.5591">bdd enregistre pe</text><polygon fill="#A80036" points="515,342.7578,525,346.7578,515,350.7578" style="stroke:#A80036;stroke-width:1.0;"/><line style="stroke:#A80036;stroke-width:1.0;" x1="449" x2="521" y1="346.7578" y2="346.7578"/><text fill="#000000" font-family="sans-serif" font-size="13" lengthAdjust="spacing" textLength="51" x="456" y="341.6919">create()</text><rect fill="#FEFECE" height="30.2969" style="stroke:#A80036;stroke-width:1.5;" width="182" x="527" y="325.625"/><text fill="#000000" font-family="sans-serif" font-size="14" lengthAdjust="spacing" textLength="168" x="534" y="345.6201">pe:PropositionEchange</text><path d="M623,371.9219 L623,426.9219 L812,426.9219 L812,381.9219 L802,371.9219 L623,371.9219 " fill="#FBFB77" style="stroke:#A80036;stroke-width:1.0;"/><path d="M802,371.9219 L802,381.9219 L812,381.9219 L802,371.9219 " fill="#FBFB77" style="stroke:#A80036;stroke-width:1.0;"/><text fill="#000000" font-family="sans-serif" font-size="13" lengthAdjust="spacing" textLength="145" x="629" y="388.9888">liste de livre a recevoir</text><text fill="#000000" font-family="sans-serif" font-size="13" lengthAdjust="spacing" textLength="100" x="629" y="404.1216">Patron createur</text><text fill="#000000" font-family="sans-serif" font-size="13" lengthAdjust="spacing" textLength="168" x="629" y="419.2544">pe contient la liste de livre</text><polygon fill="#A80036" points="836,449.4531,846,453.4531,836,457.4531" style="stroke:#A80036;stroke-width:1.0;"/><line style="stroke:#A80036;stroke-width:1.0;" x1="618" x2="842" y1="453.4531" y2="453.4531"/><text fill="#000000" font-family="sans-serif" font-size="13" lengthAdjust="spacing" textLength="51" x="625" y="448.3872">create()</text><rect fill="#FEFECE" height="30.2969" style="stroke:#A80036;stroke-width:1.5;" width="116" x="848" y="432.3203"/><text fill="#000000" font-family="sans-serif" font-size="14" lengthAdjust="spacing" textLength="102" x="855" y="452.3154">llr:List&lt;Livre&gt;</text><path d="M623,478.6172 L623,533.6172 L812,533.6172 L812,488.6172 L802,478.6172 L623,478.6172 " fill="#FBFB77" style="stroke:#A80036;stroke-width:1.0;"/><path d="M802,478.6172 L802,488.6172 L812,488.6172 L802,478.6172 " fill="#FBFB77" style="stroke:#A80036;stroke-width:1.0;"/><text fill="#000000" font-family="sans-serif" font-size="13" lengthAdjust="spacing" textLength="124" x="629" y="495.6841">liste de livre a offrir</text><text fill="#000000" font-family="sans-serif" font-size="13" lengthAdjust="spacing" textLength="100" x="629" y="510.8169">Patron createur</text><text fill="#000000" font-family="sans-serif" font-size="13" lengthAdjust="spacing" textLength="168" x="629" y="525.9497">pe contient la liste de livre</text><polygon fill="#A80036" points="707,556.1484,717,560.1484,707,564.1484" style="stroke:#A80036;stroke-width:1.0;"/><line style="stroke:#A80036;stroke-width:1.0;" x1="618" x2="713" y1="560.1484" y2="560.1484"/><text fill="#000000" font-family="sans-serif" font-size="13" lengthAdjust="spacing" textLength="51" x="625" y="555.0825">create()</text><rect fill="#FEFECE" height="30.2969" style="stroke:#A80036;stroke-width:1.5;" width="119" x="719" y="539.0156"/><text fill="#000000" font-family="sans-serif" font-size="14" lengthAdjust="spacing" textLength="105" x="726" y="559.0107">llo:List&lt;Livre&gt;</text><path d="M454,585.3125 L454,655.3125 L974,655.3125 L974,595.3125 L964,585.3125 L454,585.3125 " fill="#FBFB77" style="stroke:#A80036;stroke-width:1.0;"/><path d="M964,585.3125 L964,595.3125 L974,595.3125 L964,585.3125 " fill="#FBFB77" style="stroke:#A80036;stroke-width:1.0;"/><text fill="#000000" font-family="sans-serif" font-size="13" lengthAdjust="spacing" textLength="186" x="460" y="602.3794">Patron expert en information</text><text fill="#000000" font-family="sans-serif" font-size="13" lengthAdjust="spacing" textLength="310" x="460" y="617.5122">Client possède une nouvelle propositionEchange</text><text fill="#000000" font-family="sans-serif" font-size="13" lengthAdjust="spacing" textLength="302" x="460" y="632.645">Client possède une liste de propositionEchange</text><text fill="#000000" font-family="sans-serif" font-size="13" lengthAdjust="spacing" textLength="499" x="460" y="647.7778">PostCondition: une association a été créée entre Client et propositionEchange</text><polygon fill="#A80036" points="1079,677.9766,1089,681.9766,1079,685.9766" style="stroke:#A80036;stroke-width:1.0;"/><line style="stroke:#A80036;stroke-width:1.0;" x1="449" x2="1085" y1="681.9766" y2="681.9766"/><text fill="#000000" font-family="sans-serif" font-size="13" lengthAdjust="spacing" textLength="50" x="456" y="676.9106">add(pe)</text><path d="M253,694.9766 L253,734.9766 L619,734.9766 L619,704.9766 L609,694.9766 L253,694.9766 " fill="#FBFB77" style="stroke:#A80036;stroke-width:1.0;"/><path d="M609,694.9766 L609,704.9766 L619,704.9766 L609,694.9766 " fill="#FBFB77" style="stroke:#A80036;stroke-width:1.0;"/><text fill="#000000" font-family="sans-serif" font-size="13" lengthAdjust="spacing" textLength="220" x="259" y="712.0435">traitement du retour d'information</text><text fill="#000000" font-family="sans-serif" font-size="13" lengthAdjust="spacing" textLength="345" x="259" y="727.1763">Bdd possède une liste de client sur lequel il veut itérer</text><path d="M193.5,747.2422 L271.5,747.2422 L271.5,754.2422 L261.5,764.2422 L193.5,764.2422 L193.5,747.2422 " fill="#EEEEEE" style="stroke:#000000;stroke-width:1.0;"/><rect fill="none" height="111.6641" style="stroke:#000000;stroke-width:2.0;" width="1151.5" x="193.5" y="747.2422"/><text fill="#000000" font-family="sans-serif" font-size="13" font-weight="bold" lengthAdjust="spacing" textLength="33" x="208.5" y="760.3091">loop</text><text fill="#000000" font-family="sans-serif" font-size="11" font-weight="bold" lengthAdjust="spacing" textLength="87" x="286.5" y="759.4526">[i &lt; nbClient]</text><path d="M253,769.375 L253,824.375 L512,824.375 L512,779.375 L502,769.375 L253,769.375 " fill="#FBFB77" style="stroke:#A80036;stroke-width:1.0;"/><path d="M502,769.375 L502,779.375 L512,779.375 L502,769.375 " fill="#FBFB77" style="stroke:#A80036;stroke-width:1.0;"/><text fill="#000000" font-family="sans-serif" font-size="13" lengthAdjust="spacing" textLength="140" x="259" y="786.4419">Expert en information</text><text fill="#000000" font-family="sans-serif" font-size="13" lengthAdjust="spacing" textLength="142" x="259" y="801.5747">bdd connait les clients</text><text fill="#000000" font-family="sans-serif" font-size="13" lengthAdjust="spacing" textLength="238" x="259" y="816.7075">Chaque client connait sa liste de livre</text><polygon fill="#A80036" points="1264.5,846.9063,1274.5,850.9063,1264.5,854.9063" style="stroke:#A80036;stroke-width:1.0;"/><line style="stroke:#A80036;stroke-width:1.0;" x1="248" x2="1270.5" y1="850.9063" y2="850.9063"/><text fill="#000000" font-family="sans-serif" font-size="13" lengthAdjust="spacing" textLength="128" x="255" y="845.8403">[Livre] = getLivres()</text><line style="stroke:#A80036;stroke-width:1.0;" x1="0" x2="10" y1="887.0391" y2="883.0391"/><line style="stroke:#A80036;stroke-width:1.0;" x1="0" x2="10" y1="887.0391" y2="891.0391"/><line style="stroke:#A80036;stroke-width:1.0;stroke-dasharray:2.0,2.0;" x1="0" x2="242" y1="887.0391" y2="887.0391"/><text fill="#000000" font-family="sans-serif" font-size="13" lengthAdjust="spacing" textLength="191" x="17" y="881.9731">étudiants et livres à échanger</text><!--MD5=[2030b4870fc5e8bf1336ab2d4b480ec0]
@startuml
skinparam style strictuml
participant "bdd:BDD" as CTRL
note left of CTRL: controleur de façade objet racine
participant "proposeur:Client" as CP
note left of CP: controleur le voit puisque c'est une précondition
participant "pe:PropositionEchange" as PE
participant "llo:List<Livre>" as LLO
participant "llr:List<Livre>" as LLR
participant "lpe:List<PropositionEchange>" as LPE
note left of LPE: Client a une liste de proposition d'échange
participant "client[i]:Client" as LC


->CTRL : démarrerPropositionÉchange()
activate CTRL
  
  note right of CTRL: patron expert en information\nbdd voit proposeur\nproposteur possède une liste de porposition
  CTRL -> CP: createPropositionEchange()

  note right of CP: Patron Createur\n bdd enregistre pe
  CP -> PE**: create()

  note right of PE: liste de livre a recevoir\nPatron createur\npe contient la liste de livre
  PE->LLR**: create()

  note right of PE: liste de livre a offrir\nPatron createur\npe contient la liste de livre
  PE->LLO**: create()
  
note right of CP: Patron expert en information\nClient possède une nouvelle propositionEchange\nClient possède une liste de propositionEchange\nPostCondition: une association a été créée entre Client et propositionEchange
  CP -> LPE: add(pe)
    note right of CTRL: traitement du retour d'information\nBdd possède une liste de client sur lequel il veut itérer
  loop i < nbClient
    note right of CTRL: Expert en information\nbdd connait les clients\nChaque client connait sa liste de livre
    CTRL ->  LC: [Livre] = getLivres()
  end
  <<- -CTRL : étudiants et livres à échanger
deactivate CTRL
@enduml

PlantUML version 1.2021.01beta3(Unknown compile time)
(GPL source distribution)
Java Runtime: Java(TM) SE Runtime Environment
JVM: Java HotSpot(TM) 64-Bit Server VM
Default Encoding: UTF-8
Language: en
Country: US
--></g></svg>