<?xml version="1.0" encoding="UTF-8" standalone="no"?><svg xmlns="http://www.w3.org/2000/svg" xmlns:xlink="http://www.w3.org/1999/xlink" contentScriptType="application/ecmascript" contentStyleType="text/css" height="719px" preserveAspectRatio="none" style="width:1347px;height:719px;" version="1.1" viewBox="0 0 1347 719" width="1347px" zoomAndPan="magnify"><defs/><g><rect fill="#FFFFFF" height="486.6563" style="stroke:#A80036;stroke-width:1.0;" width="10" x="310" y="207.9609"/><line style="stroke:#A80036;stroke-width:1.0;stroke-dasharray:5.0,5.0;" x1="314.5" x2="314.5" y1="36.2969" y2="712.6172"/><line style="stroke:#A80036;stroke-width:1.0;stroke-dasharray:5.0,5.0;" x1="621.5" x2="621.5" y1="36.2969" y2="712.6172"/><line style="stroke:#A80036;stroke-width:1.0;stroke-dasharray:5.0,5.0;" x1="822.5" x2="822.5" y1="36.2969" y2="712.6172"/><line style="stroke:#A80036;stroke-width:1.0;stroke-dasharray:5.0,5.0;" x1="1068.5" x2="1068.5" y1="36.2969" y2="712.6172"/><line style="stroke:#A80036;stroke-width:1.0;stroke-dasharray:5.0,5.0;" x1="1255.5" x2="1255.5" y1="36.2969" y2="712.6172"/><rect fill="#FEFECE" height="30.2969" style="stroke:#A80036;stroke-width:1.5;" width="79" x="275.5" y="5"/><text fill="#000000" font-family="sans-serif" font-size="14" lengthAdjust="spacing" textLength="65" x="282.5" y="24.9951">bdd:BDD</text><rect fill="#FEFECE" height="30.2969" style="stroke:#A80036;stroke-width:1.5;" width="245" x="499.5" y="5"/><text fill="#000000" font-family="sans-serif" font-size="14" lengthAdjust="spacing" textLength="231" x="506.5" y="24.9951">mc:Map&lt;nomUtilisateur,Client&gt;</text><rect fill="#FEFECE" height="30.2969" style="stroke:#A80036;stroke-width:1.5;" width="136" x="754.5" y="5"/><text fill="#000000" font-family="sans-serif" font-size="14" lengthAdjust="spacing" textLength="122" x="761.5" y="24.9951">proposeur:Client</text><rect fill="#FEFECE" height="30.2969" style="stroke:#A80036;stroke-width:1.5;" width="182" x="977.5" y="5"/><text fill="#000000" font-family="sans-serif" font-size="14" lengthAdjust="spacing" textLength="168" x="984.5" y="24.9951">pe:PropositionEchange</text><rect fill="#FEFECE" height="30.2969" style="stroke:#A80036;stroke-width:1.5;" width="172" x="1169.5" y="5"/><text fill="#000000" font-family="sans-serif" font-size="14" lengthAdjust="spacing" textLength="158" x="1176.5" y="24.9951">clientProposeA:Client</text><rect fill="#FFFFFF" height="486.6563" style="stroke:#A80036;stroke-width:1.0;" width="10" x="310" y="207.9609"/><path d="M77,51.2969 L77,76.2969 L310,76.2969 L310,61.2969 L300,51.2969 L77,51.2969 " fill="#FBFB77" style="stroke:#A80036;stroke-width:1.0;"/><path d="M300,51.2969 L300,61.2969 L310,61.2969 L300,51.2969 " fill="#FBFB77" style="stroke:#A80036;stroke-width:1.0;"/><text fill="#000000" font-family="sans-serif" font-size="13" lengthAdjust="spacing" textLength="212" x="83" y="68.3638">controleur de façade objet racine</text><path d="M343,86.4297 L343,111.4297 L617,111.4297 L617,96.4297 L607,86.4297 L343,86.4297 " fill="#FBFB77" style="stroke:#A80036;stroke-width:1.0;"/><path d="M607,86.4297 L607,96.4297 L617,96.4297 L607,86.4297 " fill="#FBFB77" style="stroke:#A80036;stroke-width:1.0;"/><text fill="#000000" font-family="sans-serif" font-size="13" lengthAdjust="spacing" textLength="253" x="349" y="103.4966">BDD a une visibilité sur plusieurs clients</text><path d="M489,121.5625 L489,146.5625 L817,146.5625 L817,131.5625 L807,121.5625 L489,121.5625 " fill="#FBFB77" style="stroke:#A80036;stroke-width:1.0;"/><path d="M807,121.5625 L807,131.5625 L817,131.5625 L807,121.5625 " fill="#FBFB77" style="stroke:#A80036;stroke-width:1.0;"/><text fill="#000000" font-family="sans-serif" font-size="13" lengthAdjust="spacing" textLength="307" x="495" y="138.6294">controleur le voit puisque c'est une précondition</text><path d="M320,156.6953 L320,181.6953 L912,181.6953 L912,166.6953 L902,156.6953 L320,156.6953 " fill="#FBFB77" style="stroke:#A80036;stroke-width:1.0;"/><path d="M902,156.6953 L902,166.6953 L912,166.6953 L902,156.6953 " fill="#FBFB77" style="stroke:#A80036;stroke-width:1.0;"/><text fill="#000000" font-family="sans-serif" font-size="13" lengthAdjust="spacing" textLength="571" x="326" y="173.7622">Meme controleur que l'opération précédente puisque l'opération fait partie du même DSS</text><polygon fill="#A80036" points="298,203.9609,308,207.9609,298,211.9609" style="stroke:#A80036;stroke-width:1.0;"/><line style="stroke:#A80036;stroke-width:1.0;" x1="0" x2="304" y1="207.9609" y2="207.9609"/><text fill="#000000" font-family="sans-serif" font-size="13" lengthAdjust="spacing" textLength="230" x="7" y="202.895">choisirClient(nomUtilisateur : String)</text><path d="M325,220.9609 L325,260.9609 L486,260.9609 L486,230.9609 L476,220.9609 L325,220.9609 " fill="#FBFB77" style="stroke:#A80036;stroke-width:1.0;"/><path d="M476,220.9609 L476,230.9609 L486,230.9609 L476,220.9609 " fill="#FBFB77" style="stroke:#A80036;stroke-width:1.0;"/><text fill="#000000" font-family="sans-serif" font-size="13" lengthAdjust="spacing" textLength="140" x="331" y="238.0278">Expert en information</text><text fill="#000000" font-family="sans-serif" font-size="13" lengthAdjust="spacing" textLength="106" x="331" y="253.1606">bdd possède mc</text><polygon fill="#A80036" points="610,283.3594,620,287.3594,610,291.3594" style="stroke:#A80036;stroke-width:1.0;"/><line style="stroke:#A80036;stroke-width:1.0;" x1="320" x2="616" y1="287.3594" y2="287.3594"/><text fill="#000000" font-family="sans-serif" font-size="13" lengthAdjust="spacing" textLength="278" x="327" y="282.2935">clientProposeA = get(nomUtilisateur:string)</text><path d="M325,300.3594 L325,355.3594 L607,355.3594 L607,310.3594 L597,300.3594 L325,300.3594 " fill="#FBFB77" style="stroke:#A80036;stroke-width:1.0;"/><path d="M597,300.3594 L597,310.3594 L607,310.3594 L597,300.3594 " fill="#FBFB77" style="stroke:#A80036;stroke-width:1.0;"/><text fill="#000000" font-family="sans-serif" font-size="13" lengthAdjust="spacing" textLength="140" x="331" y="317.4263">Expert en information</text><text fill="#000000" font-family="sans-serif" font-size="13" lengthAdjust="spacing" textLength="201" x="331" y="332.5591">BDD connait le client proposeur</text><text fill="#000000" font-family="sans-serif" font-size="13" lengthAdjust="spacing" textLength="261" x="331" y="347.6919">Proposeur connait la propositionEchange</text><polygon fill="#A80036" points="810.5,377.8906,820.5,381.8906,810.5,385.8906" style="stroke:#A80036;stroke-width:1.0;"/><line style="stroke:#A80036;stroke-width:1.0;" x1="320" x2="816.5" y1="381.8906" y2="381.8906"/><text fill="#000000" font-family="sans-serif" font-size="13" lengthAdjust="spacing" textLength="222" x="327" y="376.8247">offrirAClient(clientProposeA:Client)</text><path d="M325,394.8906 L325,449.8906 L829,449.8906 L829,404.8906 L819,394.8906 L325,394.8906 " fill="#FBFB77" style="stroke:#A80036;stroke-width:1.0;"/><path d="M819,394.8906 L819,404.8906 L829,404.8906 L819,394.8906 " fill="#FBFB77" style="stroke:#A80036;stroke-width:1.0;"/><text fill="#000000" font-family="sans-serif" font-size="13" lengthAdjust="spacing" textLength="140" x="331" y="411.9575">Expert en information</text><text fill="#000000" font-family="sans-serif" font-size="13" lengthAdjust="spacing" textLength="301" x="331" y="427.0903">Client proposeur connait la propositionEchange</text><text fill="#000000" font-family="sans-serif" font-size="13" lengthAdjust="spacing" textLength="483" x="331" y="442.2231">pe est une transaction qui identifie le client auxquel on veut offrir des livres</text><polygon fill="#A80036" points="1056.5,472.4219,1066.5,476.4219,1056.5,480.4219" style="stroke:#A80036;stroke-width:1.0;"/><line style="stroke:#A80036;stroke-width:1.0;" x1="822.5" x2="1062.5" y1="476.4219" y2="476.4219"/><text fill="#000000" font-family="sans-serif" font-size="13" lengthAdjust="spacing" textLength="222" x="829.5" y="471.356">offrirAClient(clientProposeA:Client)</text><path d="M325,489.4219 L325,544.4219 L534,544.4219 L534,499.4219 L524,489.4219 L325,489.4219 " fill="#FBFB77" style="stroke:#A80036;stroke-width:1.0;"/><path d="M524,489.4219 L524,499.4219 L534,499.4219 L524,489.4219 " fill="#FBFB77" style="stroke:#A80036;stroke-width:1.0;"/><text fill="#000000" font-family="sans-serif" font-size="13" lengthAdjust="spacing" textLength="145" x="331" y="506.4888">Expert en information!</text><text fill="#000000" font-family="sans-serif" font-size="13" lengthAdjust="spacing" textLength="146" x="331" y="521.6216">bdd connais proposeur</text><text fill="#000000" font-family="sans-serif" font-size="13" lengthAdjust="spacing" textLength="188" x="331" y="536.7544">proposeur possède des livres</text><polygon fill="#A80036" points="810.5,566.9531,820.5,570.9531,810.5,574.9531" style="stroke:#A80036;stroke-width:1.0;"/><line style="stroke:#A80036;stroke-width:1.0;" x1="320" x2="816.5" y1="570.9531" y2="570.9531"/><text fill="#000000" font-family="sans-serif" font-size="13" lengthAdjust="spacing" textLength="194" x="327" y="565.8872">[LivreAProposer] = getLivres()</text><path d="M573,583.9531 L573,638.9531 L817,638.9531 L817,593.9531 L807,583.9531 L573,583.9531 " fill="#FBFB77" style="stroke:#A80036;stroke-width:1.0;"/><path d="M807,583.9531 L807,593.9531 L817,593.9531 L807,583.9531 " fill="#FBFB77" style="stroke:#A80036;stroke-width:1.0;"/><text fill="#000000" font-family="sans-serif" font-size="13" lengthAdjust="spacing" textLength="145" x="579" y="601.02">Expert en information!</text><text fill="#000000" font-family="sans-serif" font-size="13" lengthAdjust="spacing" textLength="181" x="579" y="616.1528">bdd connais clientProposerA</text><text fill="#000000" font-family="sans-serif" font-size="13" lengthAdjust="spacing" textLength="223" x="579" y="631.2856">clientProposerA possède des livres</text><polygon fill="#A80036" points="1243.5,661.4844,1253.5,665.4844,1243.5,669.4844" style="stroke:#A80036;stroke-width:1.0;"/><line style="stroke:#A80036;stroke-width:1.0;" x1="320" x2="1249.5" y1="665.4844" y2="665.4844"/><text fill="#000000" font-family="sans-serif" font-size="13" lengthAdjust="spacing" textLength="189" x="327" y="660.4185">[livreARecevoir] = getLivres()</text><line style="stroke:#A80036;stroke-width:1.0;" x1="0" x2="10" y1="694.6172" y2="690.6172"/><line style="stroke:#A80036;stroke-width:1.0;" x1="0" x2="10" y1="694.6172" y2="698.6172"/><line style="stroke:#A80036;stroke-width:1.0;stroke-dasharray:2.0,2.0;" x1="0" x2="314" y1="694.6172" y2="694.6172"/><text fill="#000000" font-family="sans-serif" font-size="13" lengthAdjust="spacing" textLength="291" x="17" y="689.5513">: liste de livres de l'étudiant choisi et du client</text><!--MD5=[b9052900570f44da9d4da521889df520]
@startuml
skinparam style strictuml
participant "bdd:BDD" as CTRL
note left of CTRL: controleur de façade objet racine
participant "mc:Map<nomUtilisateur,Client>" as MC
note left of MC: BDD a une visibilité sur plusieurs clients
participant "proposeur:Client" as CP
note left of CP: controleur le voit puisque c'est une précondition
participant "pe:PropositionEchange" as PE

participant "clientProposeA:Client" as CPA

note right of CTRL: Meme controleur que l'opération précédente puisque l'opération fait partie du même DSS
-> CTRL: choisirClient(nomUtilisateur : String)
  activate CTRL
  note right of CTRL: Expert en information\nbdd possède mc
  CTRL->MC: clientProposeA = get(nomUtilisateur:string)
  
  note right of CTRL: Expert en information\nBDD connait le client proposeur\nProposeur connait la propositionEchange
  CTRL->CP:   offrirAClient(clientProposeA:Client)

  note right of CTRL: Expert en information\nClient proposeur connait la propositionEchange\npe est une transaction qui identifie le client auxquel on veut offrir des livres
  CP->PE:   offrirAClient(clientProposeA:Client)
  
  note right of CTRL: Expert en information!\nbdd connais proposeur\nproposeur possède des livres
  CTRL->CP: [LivreAProposer] = getLivres()
  
  note left of CP: Expert en information!\nbdd connais clientProposerA\nclientProposerA possède des livres
  
  CTRL -> CPA: [livreARecevoir] = getLivres()
  <<- -CTRL: : liste de livres de l'étudiant choisi et du client
deactivate CTRL
@enduml

PlantUML version 1.2021.01beta3(Unknown compile time)
(GPL source distribution)
Java Runtime: Java(TM) SE Runtime Environment
JVM: Java HotSpot(TM) 64-Bit Server VM
Default Encoding: UTF-8
Language: en
Country: US
--></g></svg>