<?xml version="1.0" encoding="UTF-8" standalone="no"?><svg xmlns="http://www.w3.org/2000/svg" xmlns:xlink="http://www.w3.org/1999/xlink" contentScriptType="application/ecmascript" contentStyleType="text/css" height="804px" preserveAspectRatio="none" style="width:1651px;height:804px;" version="1.1" viewBox="0 0 1651 804" width="1651px" zoomAndPan="magnify"><defs/><g><rect fill="#FFFFFF" height="591.3516" style="stroke:#A80036;stroke-width:1.0;" width="10" x="312" y="187.9609"/><line style="stroke:#A80036;stroke-width:1.0;stroke-dasharray:5.0,5.0;" x1="317" x2="317" y1="36.2969" y2="797.3125"/><line style="stroke:#A80036;stroke-width:1.0;stroke-dasharray:5.0,5.0;" x1="781" x2="781" y1="36.2969" y2="797.3125"/><line style="stroke:#A80036;stroke-width:1.0;stroke-dasharray:5.0,5.0;" x1="1233" x2="1233" y1="647" y2="797.3125"/><line style="stroke:#A80036;stroke-width:1.0;stroke-dasharray:5.0,5.0;" x1="1327" x2="1327" y1="36.2969" y2="797.3125"/><line style="stroke:#A80036;stroke-width:1.0;stroke-dasharray:5.0,5.0;" x1="1518" x2="1518" y1="36.2969" y2="797.3125"/><rect fill="#FEFECE" height="30.2969" style="stroke:#A80036;stroke-width:1.5;" width="72" x="281" y="5"/><text fill="#000000" font-family="sans-serif" font-size="14" lengthAdjust="spacing" textLength="58" x="288" y="24.9951">ctrl:Bdd</text><rect fill="#FEFECE" height="30.2969" style="stroke:#A80036;stroke-width:1.5;" width="70" x="746" y="5"/><text fill="#000000" font-family="sans-serif" font-size="14" lengthAdjust="spacing" textLength="56" x="753" y="24.9951">c:Client</text><rect fill="#FEFECE" height="30.2969" style="stroke:#A80036;stroke-width:1.5;" width="110" x="1272" y="5"/><text fill="#000000" font-family="sans-serif" font-size="14" lengthAdjust="spacing" textLength="96" x="1279" y="24.9951">ll:List&lt;Livre&gt;</text><rect fill="#FEFECE" height="30.2969" style="stroke:#A80036;stroke-width:1.5;" width="253" x="1392" y="5"/><text fill="#000000" font-family="sans-serif" font-size="14" lengthAdjust="spacing" textLength="239" x="1399" y="24.9951">mdl:Map&lt;isbn,DescriptionLibre&gt;</text><rect fill="#FFFFFF" height="591.3516" style="stroke:#A80036;stroke-width:1.0;" width="10" x="312" y="187.9609"/><path d="M26,51.2969 L26,76.2969 L312,76.2969 L312,61.2969 L302,51.2969 L26,51.2969 " fill="#FBFB77" style="stroke:#A80036;stroke-width:1.0;"/><path d="M302,51.2969 L302,61.2969 L312,61.2969 L302,51.2969 " fill="#FBFB77" style="stroke:#A80036;stroke-width:1.0;"/><text fill="#000000" font-family="sans-serif" font-size="13" lengthAdjust="spacing" textLength="265" x="32" y="68.3638">controleur de façade de type objet racine</text><path d="M383,86.4297 L383,111.4297 L776,111.4297 L776,96.4297 L766,86.4297 L383,86.4297 " fill="#FBFB77" style="stroke:#A80036;stroke-width:1.0;"/><path d="M766,86.4297 L766,96.4297 L776,96.4297 L766,86.4297 " fill="#FBFB77" style="stroke:#A80036;stroke-width:1.0;"/><text fill="#000000" font-family="sans-serif" font-size="13" lengthAdjust="spacing" textLength="372" x="389" y="103.4966">est visible par le controleur puisque c'est une précondition</text><path d="M1083,121.5625 L1083,161.5625 L1322,161.5625 L1322,131.5625 L1312,121.5625 L1083,121.5625 " fill="#FBFB77" style="stroke:#A80036;stroke-width:1.0;"/><path d="M1312,121.5625 L1312,131.5625 L1322,131.5625 L1312,121.5625 " fill="#FBFB77" style="stroke:#A80036;stroke-width:1.0;"/><text fill="#000000" font-family="sans-serif" font-size="13" lengthAdjust="spacing" textLength="142" x="1089" y="138.6294">est visible par le client</text><text fill="#000000" font-family="sans-serif" font-size="13" lengthAdjust="spacing" textLength="218" x="1089" y="153.7622">puisqu'il possède une liste de livre</text><polygon fill="#A80036" points="300,183.9609,310,187.9609,300,191.9609" style="stroke:#A80036;stroke-width:1.0;"/><line style="stroke:#A80036;stroke-width:1.0;" x1="0" x2="306" y1="187.9609" y2="187.9609"/><text fill="#000000" font-family="sans-serif" font-size="13" lengthAdjust="spacing" textLength="293" x="7" y="182.895">ajouterLivre(isbn:string, codeCondition:string)</text><path d="M327,200.9609 L327,255.9609 L877,255.9609 L877,210.9609 L867,200.9609 L327,200.9609 " fill="#FBFB77" style="stroke:#A80036;stroke-width:1.0;"/><path d="M867,200.9609 L867,210.9609 L877,210.9609 L867,200.9609 " fill="#FBFB77" style="stroke:#A80036;stroke-width:1.0;"/><text fill="#000000" font-family="sans-serif" font-size="13" lengthAdjust="spacing" textLength="529" x="333" y="218.0278">postcondition: Une association a été crée entre l:Livre et la classe DescriptionLivre</text><text fill="#000000" font-family="sans-serif" font-size="13" lengthAdjust="spacing" textLength="507" x="333" y="233.1606">sur la base de correspondance entre DescriptionLivre.isbn == isbs (paramètre)</text><text fill="#000000" font-family="sans-serif" font-size="13" lengthAdjust="spacing" textLength="365" x="333" y="248.2935">Ajoute d'une association entre le BDD et DescriptionLivre</text><path d="M1306,266.3594 L1306,291.3594 L1513,291.3594 L1513,276.3594 L1503,266.3594 L1306,266.3594 " fill="#FBFB77" style="stroke:#A80036;stroke-width:1.0;"/><path d="M1503,266.3594 L1503,276.3594 L1513,276.3594 L1503,266.3594 " fill="#FBFB77" style="stroke:#A80036;stroke-width:1.0;"/><text fill="#000000" font-family="sans-serif" font-size="13" lengthAdjust="spacing" textLength="186" x="1312" y="283.4263">bdd gère les DescriptionLivre</text><path d="M327,301.4922 L327,341.4922 L519,341.4922 L519,311.4922 L509,301.4922 L327,301.4922 " fill="#FBFB77" style="stroke:#A80036;stroke-width:1.0;"/><path d="M509,301.4922 L509,311.4922 L519,311.4922 L509,301.4922 " fill="#FBFB77" style="stroke:#A80036;stroke-width:1.0;"/><text fill="#000000" font-family="sans-serif" font-size="13" lengthAdjust="spacing" textLength="140" x="333" y="318.5591">Expert en information</text><text fill="#000000" font-family="sans-serif" font-size="13" lengthAdjust="spacing" textLength="171" x="333" y="333.6919">bdd a une visibilité sur mdl</text><polygon fill="#A80036" points="1506.5,363.8906,1516.5,367.8906,1506.5,371.8906" style="stroke:#A80036;stroke-width:1.0;"/><line style="stroke:#A80036;stroke-width:1.0;" x1="322" x2="1512.5" y1="367.8906" y2="367.8906"/><text fill="#000000" font-family="sans-serif" font-size="13" lengthAdjust="spacing" textLength="216" x="329" y="362.8247">descriptionLivre = get(string isbn)</text><path d="M327,380.8906 L327,465.8906 L794,465.8906 L794,390.8906 L784,380.8906 L327,380.8906 " fill="#FBFB77" style="stroke:#A80036;stroke-width:1.0;"/><path d="M784,380.8906 L784,390.8906 L794,390.8906 L784,380.8906 " fill="#FBFB77" style="stroke:#A80036;stroke-width:1.0;"/><text fill="#000000" font-family="sans-serif" font-size="13" lengthAdjust="spacing" textLength="298" x="333" y="397.9575">postcondition: Une instance l:Livre a été créée</text><text fill="#000000" font-family="sans-serif" font-size="13" lengthAdjust="spacing" textLength="446" x="333" y="413.0903">postcondition: l.codeCondition est devenu codeCondition (paramètre)</text><text fill="#000000" font-family="sans-serif" font-size="13" lengthAdjust="spacing" textLength="0" x="337" y="428.2231"/><text fill="#000000" font-family="sans-serif" font-size="13" lengthAdjust="spacing" textLength="171" x="333" y="443.356">patron créateur par défaut</text><text fill="#000000" font-family="sans-serif" font-size="13" lengthAdjust="spacing" textLength="297" x="333" y="458.4888">puisque PUCE ne donne aucune option valable</text><path d="M327,476.5547 L327,531.5547 L684,531.5547 L684,486.5547 L674,476.5547 L327,476.5547 " fill="#FBFB77" style="stroke:#A80036;stroke-width:1.0;"/><path d="M674,476.5547 L674,486.5547 L684,486.5547 L674,476.5547 " fill="#FBFB77" style="stroke:#A80036;stroke-width:1.0;"/><text fill="#000000" font-family="sans-serif" font-size="13" lengthAdjust="spacing" textLength="140" x="333" y="493.6216">Expert en information</text><text fill="#000000" font-family="sans-serif" font-size="13" lengthAdjust="spacing" textLength="336" x="333" y="508.7544">ctrl possède les paramètretrl a un visibilité sur Client</text><text fill="#000000" font-family="sans-serif" font-size="13" lengthAdjust="spacing" textLength="190" x="333" y="523.8872">Client possède la liste de livre</text><polygon fill="#A80036" points="769,554.0859,779,558.0859,769,562.0859" style="stroke:#A80036;stroke-width:1.0;"/><line style="stroke:#A80036;stroke-width:1.0;" x1="322" x2="775" y1="558.0859" y2="558.0859"/><text fill="#000000" font-family="sans-serif" font-size="13" lengthAdjust="spacing" textLength="435" x="329" y="553.02">ajouterLivre(descriptionLivre:DescriptionLivre, codeCondition:string)</text><path d="M786,571.0859 L786,611.0859 L961,611.0859 L961,581.0859 L951,571.0859 L786,571.0859 " fill="#FBFB77" style="stroke:#A80036;stroke-width:1.0;"/><path d="M951,571.0859 L951,581.0859 L961,581.0859 L951,571.0859 " fill="#FBFB77" style="stroke:#A80036;stroke-width:1.0;"/><text fill="#000000" font-family="sans-serif" font-size="13" lengthAdjust="spacing" textLength="100" x="792" y="588.1528">Patron createur</text><text fill="#000000" font-family="sans-serif" font-size="13" lengthAdjust="spacing" textLength="154" x="792" y="603.2856">Client possède les livres</text><polygon fill="#A80036" points="1192,633.4844,1202,637.4844,1192,641.4844" style="stroke:#A80036;stroke-width:1.0;"/><line style="stroke:#A80036;stroke-width:1.0;stroke-dasharray:2.0,2.0;" x1="781" x2="1198" y1="637.4844" y2="637.4844"/><text fill="#000000" font-family="sans-serif" font-size="13" lengthAdjust="spacing" textLength="399" x="788" y="632.4185">create(descriptionLivre:DescriptionLivre, string codeCondition)</text><rect fill="#FEFECE" height="30.2969" style="stroke:#A80036;stroke-width:1.5;" width="58" x="1204" y="616.3516"/><text fill="#000000" font-family="sans-serif" font-size="14" lengthAdjust="spacing" textLength="44" x="1211" y="636.3467">l:Livre</text><path d="M786,662.6484 L786,687.6484 L1315,687.6484 L1315,672.6484 L1305,662.6484 L786,662.6484 " fill="#FBFB77" style="stroke:#A80036;stroke-width:1.0;"/><path d="M1305,662.6484 L1305,672.6484 L1315,672.6484 L1305,662.6484 " fill="#FBFB77" style="stroke:#A80036;stroke-width:1.0;"/><text fill="#000000" font-family="sans-serif" font-size="13" lengthAdjust="spacing" textLength="508" x="792" y="679.7153">postcondition: Une association a été créé entre l:Livre et c:Client (précondition)</text><path d="M786,697.7813 L786,752.7813 L987,752.7813 L987,707.7813 L977,697.7813 L786,697.7813 " fill="#FBFB77" style="stroke:#A80036;stroke-width:1.0;"/><path d="M977,697.7813 L977,707.7813 L987,707.7813 L977,697.7813 " fill="#FBFB77" style="stroke:#A80036;stroke-width:1.0;"/><text fill="#000000" font-family="sans-serif" font-size="13" lengthAdjust="spacing" textLength="88" x="792" y="714.8481">Patron expert</text><text fill="#000000" font-family="sans-serif" font-size="13" lengthAdjust="spacing" textLength="180" x="792" y="729.981">Client a une visibilité sur la ll</text><text fill="#000000" font-family="sans-serif" font-size="13" lengthAdjust="spacing" textLength="139" x="792" y="745.1138">ll est une liste de livre</text><polygon fill="#A80036" points="1315,775.3125,1325,779.3125,1315,783.3125" style="stroke:#A80036;stroke-width:1.0;"/><line style="stroke:#A80036;stroke-width:1.0;" x1="781" x2="1321" y1="779.3125" y2="779.3125"/><text fill="#000000" font-family="sans-serif" font-size="13" lengthAdjust="spacing" textLength="74" x="788" y="774.2466">add(l:livrre)</text><!--MD5=[2568af904baf37a5f5b65c72e8af6aba]
@startuml
skinparam style strictuml
    participant "ctrl:Bdd" as S
    note left of S: controleur de façade de type objet racine

    participant "c:Client" as C
    note left of C: est visible par le controleur puisque c'est une précondition

    participant "l:Livre" as L

    participant "ll:List<Livre>" as LL
    note left of LL: est visible par le client\npuisqu'il possède une liste de livre

    -> S: ajouterLivre(isbn:string, codeCondition:string)
    activate S

        note right of S: postcondition: Une association a été crée entre l:Livre et la classe DescriptionLivre\nsur la base de correspondance entre DescriptionLivre.isbn == isbs (paramètre)\nAjoute d'une association entre le BDD et DescriptionLivre

        participant "mdl:Map<isbn,DescriptionLibre>" as MDL
        note left of MDL: bdd gère les DescriptionLivre
        note right of S: Expert en information\nbdd a une visibilité sur mdl
        S -> MDL: descriptionLivre = get(string isbn)

        note right of S: postcondition: Une instance l:Livre a été créée\npostcondition: l.codeCondition est devenu codeCondition (paramètre)\n\npatron créateur par défaut\npuisque PUCE ne donne aucune option valable

        note right of S: Expert en information\nctrl possède les paramètre\ctrl a un visibilité sur Client\nClient possède la liste de livre
        S -> C: ajouterLivre(descriptionLivre:DescriptionLivre, codeCondition:string)

        note right of C: Patron createur\nClient possède les livres
        C - -> L**: create(descriptionLivre:DescriptionLivre, string codeCondition)

        note right of C: postcondition: Une association a été créé entre l:Livre et c:Client (précondition)
        note right of C: Patron expert\nClient a une visibilité sur la ll\nll est une liste de livre
        C -> LL: add(l:livrre)

    deactivate S
@enduml

PlantUML version 1.2021.01beta3(Unknown compile time)
(GPL source distribution)
Java Runtime: Java(TM) SE Runtime Environment
JVM: Java HotSpot(TM) 64-Bit Server VM
Default Encoding: UTF-8
Language: en
Country: US
--></g></svg>