<?xml version="1.0" encoding="UTF-8" standalone="no"?><svg xmlns="http://www.w3.org/2000/svg" xmlns:xlink="http://www.w3.org/1999/xlink" contentScriptType="application/ecmascript" contentStyleType="text/css" height="716px" preserveAspectRatio="none" style="width:406px;height:716px;" version="1.1" viewBox="0 0 406 716" width="406px" zoomAndPan="magnify"><defs><filter height="300%" id="f99zusc31me10" width="300%" x="-1" y="-1"><feGaussianBlur result="blurOut" stdDeviation="2.0"/><feColorMatrix in="blurOut" result="blurOut2" type="matrix" values="0 0 0 0 0 0 0 0 0 0 0 0 0 0 0 0 0 0 .4 0"/><feOffset dx="4.0" dy="4.0" in="blurOut2" result="blurOut3"/><feBlend in="SourceGraphic" in2="blurOut3" mode="normal"/></filter></defs><g><text fill="#000000" font-family="sans-serif" font-size="18" lengthAdjust="spacing" textLength="373" x="10" y="16.708">MDD CU01 - Ajouter un livre à échanger</text><!--MD5=[30c7fe53c12f397c5b91742883d410d5]
class BDD--><rect codeLine="3" fill="#FEFECE" filter="url(#f99zusc31me10)" height="53.9375" id="BDD" style="stroke:#A80036;stroke-width:1.5;" width="118" x="105" y="27.9531"/><ellipse cx="120" cy="46.9219" fill="#ADD1B2" rx="11" ry="11" style="stroke:#A80036;stroke-width:1.0;"/><path d="M122.3438,42.5938 C121.4063,42.1563 120.8125,42.0156 119.9375,42.0156 C117.3125,42.0156 115.3125,44.0938 115.3125,46.8125 L115.3125,47.9375 C115.3125,50.5156 117.4219,52.4063 120.3125,52.4063 C121.5313,52.4063 122.6875,52.1094 123.4375,51.5625 C124.0156,51.1563 124.3438,50.7031 124.3438,50.3125 C124.3438,49.8594 123.9531,49.4688 123.4844,49.4688 C123.2656,49.4688 123.0625,49.5469 122.875,49.7344 C122.4219,50.2188 122.4219,50.2188 122.2344,50.3125 C121.8125,50.5781 121.125,50.7031 120.3594,50.7031 C118.3125,50.7031 117.0156,49.6094 117.0156,47.9063 L117.0156,46.8125 C117.0156,45.0313 118.2656,43.7188 120,43.7188 C120.5781,43.7188 121.1875,43.875 121.6563,44.125 C122.1406,44.4063 122.3125,44.625 122.4063,45.0313 C122.4688,45.4375 122.5,45.5625 122.6406,45.6875 C122.7813,45.8281 123.0156,45.9375 123.2344,45.9375 C123.5,45.9375 123.7656,45.7969 123.9375,45.5781 C124.0469,45.4219 124.0781,45.2344 124.0781,44.8125 L124.0781,43.3906 C124.0781,42.9531 124.0625,42.8281 123.9688,42.6719 C123.8125,42.4063 123.5313,42.2656 123.2344,42.2656 C122.9375,42.2656 122.7344,42.3594 122.5156,42.6719 L122.3438,42.5938 Z " fill="#000000"/><text fill="#000000" font-family="sans-serif" font-size="12" font-style="italic" lengthAdjust="spacing" textLength="90" x="132" y="44.0918">«Organisation»</text><text fill="#000000" font-family="sans-serif" font-size="12" lengthAdjust="spacing" textLength="26" x="164" y="58.0605">BDD</text><line style="stroke:#A80036;stroke-width:1.5;" x1="106" x2="222" y1="65.8906" y2="65.8906"/><line style="stroke:#A80036;stroke-width:1.5;" x1="106" x2="222" y1="73.8906" y2="73.8906"/><!--MD5=[378b18254a1b2429f435e93f5e5cc50c]
class C--><rect codeLine="6" fill="#FEFECE" filter="url(#f99zusc31me10)" height="79.5469" id="C" style="stroke:#A80036;stroke-width:1.5;" width="129" x="173.5" y="158.9531"/><ellipse cx="216.4" cy="177.9219" fill="#ADD1B2" rx="11" ry="11" style="stroke:#A80036;stroke-width:1.0;"/><path d="M218.7438,173.5938 C217.8063,173.1563 217.2125,173.0156 216.3375,173.0156 C213.7125,173.0156 211.7125,175.0938 211.7125,177.8125 L211.7125,178.9375 C211.7125,181.5156 213.8219,183.4063 216.7125,183.4063 C217.9313,183.4063 219.0875,183.1094 219.8375,182.5625 C220.4156,182.1563 220.7438,181.7031 220.7438,181.3125 C220.7438,180.8594 220.3531,180.4688 219.8844,180.4688 C219.6656,180.4688 219.4625,180.5469 219.275,180.7344 C218.8219,181.2188 218.8219,181.2188 218.6344,181.3125 C218.2125,181.5781 217.525,181.7031 216.7594,181.7031 C214.7125,181.7031 213.4156,180.6094 213.4156,178.9063 L213.4156,177.8125 C213.4156,176.0313 214.6656,174.7188 216.4,174.7188 C216.9781,174.7188 217.5875,174.875 218.0563,175.125 C218.5406,175.4063 218.7125,175.625 218.8063,176.0313 C218.8688,176.4375 218.9,176.5625 219.0406,176.6875 C219.1813,176.8281 219.4156,176.9375 219.6344,176.9375 C219.9,176.9375 220.1656,176.7969 220.3375,176.5781 C220.4469,176.4219 220.4781,176.2344 220.4781,175.8125 L220.4781,174.3906 C220.4781,173.9531 220.4625,173.8281 220.3688,173.6719 C220.2125,173.4063 219.9313,173.2656 219.6344,173.2656 C219.3375,173.2656 219.1344,173.3594 218.9156,173.6719 L218.7438,173.5938 Z " fill="#000000"/><text fill="#000000" font-family="sans-serif" font-size="12" font-style="italic" lengthAdjust="spacing" textLength="39" x="234.6" y="175.0918">«Role»</text><text fill="#000000" font-family="sans-serif" font-size="12" lengthAdjust="spacing" textLength="33" x="237.6" y="189.0605">Client</text><line style="stroke:#A80036;stroke-width:1.5;" x1="174.5" x2="301.5" y1="196.8906" y2="196.8906"/><text fill="#000000" font-family="sans-serif" font-size="11" lengthAdjust="spacing" textLength="117" x="179.5" y="211.1011">string nomUtilisateur</text><text fill="#000000" font-family="sans-serif" font-size="11" lengthAdjust="spacing" textLength="107" x="179.5" y="223.9058">string motDePasse</text><line style="stroke:#A80036;stroke-width:1.5;" x1="174.5" x2="301.5" y1="230.5" y2="230.5"/><!--MD5=[8832394f0f955ca405dbc7ff727aede1]
class L--><rect codeLine="11" fill="#FEFECE" filter="url(#f99zusc31me10)" height="66.7422" id="L" style="stroke:#A80036;stroke-width:1.5;" width="133" x="173.5" y="315.9531"/><ellipse cx="188.5" cy="334.9219" fill="#ADD1B2" rx="11" ry="11" style="stroke:#A80036;stroke-width:1.0;"/><path d="M190.8438,330.5938 C189.9063,330.1563 189.3125,330.0156 188.4375,330.0156 C185.8125,330.0156 183.8125,332.0938 183.8125,334.8125 L183.8125,335.9375 C183.8125,338.5156 185.9219,340.4063 188.8125,340.4063 C190.0313,340.4063 191.1875,340.1094 191.9375,339.5625 C192.5156,339.1563 192.8438,338.7031 192.8438,338.3125 C192.8438,337.8594 192.4531,337.4688 191.9844,337.4688 C191.7656,337.4688 191.5625,337.5469 191.375,337.7344 C190.9219,338.2188 190.9219,338.2188 190.7344,338.3125 C190.3125,338.5781 189.625,338.7031 188.8594,338.7031 C186.8125,338.7031 185.5156,337.6094 185.5156,335.9063 L185.5156,334.8125 C185.5156,333.0313 186.7656,331.7188 188.5,331.7188 C189.0781,331.7188 189.6875,331.875 190.1563,332.125 C190.6406,332.4063 190.8125,332.625 190.9063,333.0313 C190.9688,333.4375 191,333.5625 191.1406,333.6875 C191.2813,333.8281 191.5156,333.9375 191.7344,333.9375 C192,333.9375 192.2656,333.7969 192.4375,333.5781 C192.5469,333.4219 192.5781,333.2344 192.5781,332.8125 L192.5781,331.3906 C192.5781,330.9531 192.5625,330.8281 192.4688,330.6719 C192.3125,330.4063 192.0313,330.2656 191.7344,330.2656 C191.4375,330.2656 191.2344,330.3594 191.0156,330.6719 L190.8438,330.5938 Z " fill="#000000"/><text fill="#000000" font-family="sans-serif" font-size="12" font-style="italic" lengthAdjust="spacing" textLength="105" x="200.5" y="332.0918">«Objet physique»</text><text fill="#000000" font-family="sans-serif" font-size="12" lengthAdjust="spacing" textLength="29" x="238.5" y="346.0605">Livre</text><line style="stroke:#A80036;stroke-width:1.5;" x1="174.5" x2="305.5" y1="353.8906" y2="353.8906"/><text fill="#000000" font-family="sans-serif" font-size="11" lengthAdjust="spacing" textLength="106" x="179.5" y="368.1011">condition condition</text><line style="stroke:#A80036;stroke-width:1.5;" x1="174.5" x2="305.5" y1="374.6953" y2="374.6953"/><!--MD5=[280ced29e36268086cf47b874df53ebb]
class DL--><rect codeLine="15" fill="#FEFECE" filter="url(#f99zusc31me10)" height="105.1563" id="DL" style="stroke:#A80036;stroke-width:1.5;" width="160" x="69" y="459.9531"/><ellipse cx="84" cy="478.9219" fill="#ADD1B2" rx="11" ry="11" style="stroke:#A80036;stroke-width:1.0;"/><path d="M86.3438,474.5938 C85.4063,474.1563 84.8125,474.0156 83.9375,474.0156 C81.3125,474.0156 79.3125,476.0938 79.3125,478.8125 L79.3125,479.9375 C79.3125,482.5156 81.4219,484.4063 84.3125,484.4063 C85.5313,484.4063 86.6875,484.1094 87.4375,483.5625 C88.0156,483.1563 88.3438,482.7031 88.3438,482.3125 C88.3438,481.8594 87.9531,481.4688 87.4844,481.4688 C87.2656,481.4688 87.0625,481.5469 86.875,481.7344 C86.4219,482.2188 86.4219,482.2188 86.2344,482.3125 C85.8125,482.5781 85.125,482.7031 84.3594,482.7031 C82.3125,482.7031 81.0156,481.6094 81.0156,479.9063 L81.0156,478.8125 C81.0156,477.0313 82.2656,475.7188 84,475.7188 C84.5781,475.7188 85.1875,475.875 85.6563,476.125 C86.1406,476.4063 86.3125,476.625 86.4063,477.0313 C86.4688,477.4375 86.5,477.5625 86.6406,477.6875 C86.7813,477.8281 87.0156,477.9375 87.2344,477.9375 C87.5,477.9375 87.7656,477.7969 87.9375,477.5781 C88.0469,477.4219 88.0781,477.2344 88.0781,476.8125 L88.0781,475.3906 C88.0781,474.9531 88.0625,474.8281 87.9688,474.6719 C87.8125,474.4063 87.5313,474.2656 87.2344,474.2656 C86.9375,474.2656 86.7344,474.3594 86.5156,474.6719 L86.3438,474.5938 Z " fill="#000000"/><text fill="#000000" font-family="sans-serif" font-size="12" font-style="italic" lengthAdjust="spacing" textLength="132" x="96" y="476.0918">«Description d'entité»</text><text fill="#000000" font-family="sans-serif" font-size="12" lengthAdjust="spacing" textLength="98" x="113" y="490.0605">DescriptionLivre</text><line style="stroke:#A80036;stroke-width:1.5;" x1="70" x2="228" y1="497.8906" y2="497.8906"/><text fill="#000000" font-family="sans-serif" font-size="11" lengthAdjust="spacing" textLength="58" x="75" y="512.1011">string isbn</text><text fill="#000000" font-family="sans-serif" font-size="11" lengthAdjust="spacing" textLength="58" x="75" y="524.9058">string titre</text><text fill="#000000" font-family="sans-serif" font-size="11" lengthAdjust="spacing" textLength="96" x="75" y="537.7104">int nombrePages</text><text fill="#000000" font-family="sans-serif" font-size="11" lengthAdjust="spacing" textLength="70" x="75" y="550.5151">int noEdition</text><line style="stroke:#A80036;stroke-width:1.5;" x1="70" x2="228" y1="557.1094" y2="557.1094"/><!--MD5=[a46ee5ce0ceb0380cf446a08a056dce4]
class A--><rect codeLine="22" fill="#FEFECE" filter="url(#f99zusc31me10)" height="60.8047" id="A" style="stroke:#A80036;stroke-width:1.5;" width="72" x="7" y="641.9531"/><ellipse cx="22.45" cy="657.9531" fill="#ADD1B2" rx="11" ry="11" style="stroke:#A80036;stroke-width:1.0;"/><path d="M24.7938,653.625 C23.8563,653.1875 23.2625,653.0469 22.3875,653.0469 C19.7625,653.0469 17.7625,655.125 17.7625,657.8438 L17.7625,658.9688 C17.7625,661.5469 19.8719,663.4375 22.7625,663.4375 C23.9813,663.4375 25.1375,663.1406 25.8875,662.5938 C26.4656,662.1875 26.7938,661.7344 26.7938,661.3438 C26.7938,660.8906 26.4031,660.5 25.9344,660.5 C25.7156,660.5 25.5125,660.5781 25.325,660.7656 C24.8719,661.25 24.8719,661.25 24.6844,661.3438 C24.2625,661.6094 23.575,661.7344 22.8094,661.7344 C20.7625,661.7344 19.4656,660.6406 19.4656,658.9375 L19.4656,657.8438 C19.4656,656.0625 20.7156,654.75 22.45,654.75 C23.0281,654.75 23.6375,654.9063 24.1063,655.1563 C24.5906,655.4375 24.7625,655.6563 24.8563,656.0625 C24.9188,656.4688 24.95,656.5938 25.0906,656.7188 C25.2313,656.8594 25.4656,656.9688 25.6844,656.9688 C25.95,656.9688 26.2156,656.8281 26.3875,656.6094 C26.4969,656.4531 26.5281,656.2656 26.5281,655.8438 L26.5281,654.4219 C26.5281,653.9844 26.5125,653.8594 26.4188,653.7031 C26.2625,653.4375 25.9813,653.2969 25.6844,653.2969 C25.3875,653.2969 25.1844,653.3906 24.9656,653.7031 L24.7938,653.625 Z " fill="#000000"/><text fill="#000000" font-family="sans-serif" font-size="12" lengthAdjust="spacing" textLength="39" x="36.55" y="662.1074">Auteur</text><line style="stroke:#A80036;stroke-width:1.5;" x1="8" x2="78" y1="673.9531" y2="673.9531"/><text fill="#000000" font-family="sans-serif" font-size="11" lengthAdjust="spacing" textLength="60" x="13" y="688.1636">string nom</text><line style="stroke:#A80036;stroke-width:1.5;" x1="8" x2="78" y1="694.7578" y2="694.7578"/><!--MD5=[5770339cf2a060176908a0b962164876]
class ME--><rect codeLine="26" fill="#FEFECE" filter="url(#f99zusc31me10)" height="60.8047" id="ME" style="stroke:#A80036;stroke-width:1.5;" width="114" x="199" y="641.9531"/><ellipse cx="214" cy="657.9531" fill="#ADD1B2" rx="11" ry="11" style="stroke:#A80036;stroke-width:1.0;"/><path d="M216.3438,653.625 C215.4063,653.1875 214.8125,653.0469 213.9375,653.0469 C211.3125,653.0469 209.3125,655.125 209.3125,657.8438 L209.3125,658.9688 C209.3125,661.5469 211.4219,663.4375 214.3125,663.4375 C215.5313,663.4375 216.6875,663.1406 217.4375,662.5938 C218.0156,662.1875 218.3438,661.7344 218.3438,661.3438 C218.3438,660.8906 217.9531,660.5 217.4844,660.5 C217.2656,660.5 217.0625,660.5781 216.875,660.7656 C216.4219,661.25 216.4219,661.25 216.2344,661.3438 C215.8125,661.6094 215.125,661.7344 214.3594,661.7344 C212.3125,661.7344 211.0156,660.6406 211.0156,658.9375 L211.0156,657.8438 C211.0156,656.0625 212.2656,654.75 214,654.75 C214.5781,654.75 215.1875,654.9063 215.6563,655.1563 C216.1406,655.4375 216.3125,655.6563 216.4063,656.0625 C216.4688,656.4688 216.5,656.5938 216.6406,656.7188 C216.7813,656.8594 217.0156,656.9688 217.2344,656.9688 C217.5,656.9688 217.7656,656.8281 217.9375,656.6094 C218.0469,656.4531 218.0781,656.2656 218.0781,655.8438 L218.0781,654.4219 C218.0781,653.9844 218.0625,653.8594 217.9688,653.7031 C217.8125,653.4375 217.5313,653.2969 217.2344,653.2969 C216.9375,653.2969 216.7344,653.3906 216.5156,653.7031 L216.3438,653.625 Z " fill="#000000"/><text fill="#000000" font-family="sans-serif" font-size="12" lengthAdjust="spacing" textLength="82" x="228" y="662.1074">MaisonEdition</text><line style="stroke:#A80036;stroke-width:1.5;" x1="200" x2="312" y1="673.9531" y2="673.9531"/><text fill="#000000" font-family="sans-serif" font-size="11" lengthAdjust="spacing" textLength="60" x="205" y="688.1636">string nom</text><line style="stroke:#A80036;stroke-width:1.5;" x1="200" x2="312" y1="694.7578" y2="694.7578"/><!--MD5=[5f08475c7545daca9ddd66c652cd06f1]
link BDD to DL--><path codeLine="30" d="M161.544,82.1741 C159.697,102.9741 157.274,132.7981 156,158.9531 C150.795,265.7911 149.434,391.0231 149.095,459.7541 " fill="none" id="BDD-DL" style="stroke:#A80036;stroke-width:1.0;"/><polygon fill="#000000" points="156.8352,282.5168,160.0706,273.5735,154.196,273.3798,156.8352,282.5168" style="stroke:#000000;stroke-width:1.0;"/><text fill="#000000" font-family="sans-serif" font-size="13" lengthAdjust="spacing" textLength="29" x="166" y="282.02">gère</text><text fill="#000000" font-family="sans-serif" font-size="13" lengthAdjust="spacing" textLength="8" x="152.1318" y="101.8576">1</text><text fill="#000000" font-family="sans-serif" font-size="13" lengthAdjust="spacing" textLength="7" x="141.6375" y="448.7302">*</text><!--MD5=[ad8af8f003384e547d3816397cb50d5e]
link BDD to C--><path codeLine="31" d="M177.573,81.9981 C188.797,103.5361 204.907,134.4501 217.671,158.9421 " fill="none" id="BDD-C" style="stroke:#A80036;stroke-width:1.0;"/><polygon fill="#000000" points="208.3107,124.9536,206.7368,115.5741,201.5243,118.2905,208.3107,124.9536" style="stroke:#000000;stroke-width:1.0;"/><text fill="#000000" font-family="sans-serif" font-size="13" lengthAdjust="spacing" textLength="175" x="215" y="125.02">offe un service au membre</text><text fill="#000000" font-family="sans-serif" font-size="13" lengthAdjust="spacing" textLength="8" x="171.7868" y="102.0761">1</text><text fill="#000000" font-family="sans-serif" font-size="13" lengthAdjust="spacing" textLength="7" x="206.5754" y="147.8934">*</text><!--MD5=[42e092837d90c53e9069d09c19a87a72]
link C to L--><path codeLine="32" d="M238.525,238.9701 C238.847,262.8591 239.254,293.0841 239.559,315.7201 " fill="none" id="C-L" style="stroke:#A80036;stroke-width:1.0;"/><polygon fill="#000000" points="245.0674,282.5191,247.8842,273.4352,242.0068,273.5144,245.0674,282.5191" style="stroke:#000000;stroke-width:1.0;"/><text fill="#000000" font-family="sans-serif" font-size="13" lengthAdjust="spacing" textLength="54" x="254" y="282.02">possède</text><text fill="#000000" font-family="sans-serif" font-size="13" lengthAdjust="spacing" textLength="8" x="229.9712" y="258.6567">1</text><text fill="#000000" font-family="sans-serif" font-size="13" lengthAdjust="spacing" textLength="7" x="231.8077" y="304.9642">*</text><!--MD5=[738e23c87c2b07a2e6ea36ec9358f5b5]
link L to DL--><path codeLine="33" d="M221.585,383.0341 C209.121,405.0861 192.393,434.6811 178.137,459.9031 " fill="none" id="L-DL" style="stroke:#A80036;stroke-width:1.0;"/><polygon fill="#000000" points="205.5397,425.8723,212.5489,419.4442,207.4319,416.5519,205.5397,425.8723" style="stroke:#000000;stroke-width:1.0;"/><text fill="#000000" font-family="sans-serif" font-size="13" lengthAdjust="spacing" textLength="68" x="217" y="426.02">sont décrit</text><text fill="#000000" font-family="sans-serif" font-size="13" lengthAdjust="spacing" textLength="7" x="210.5444" y="402.7113">*</text><text fill="#000000" font-family="sans-serif" font-size="13" lengthAdjust="spacing" textLength="8" x="173.5148" y="448.8992">1</text><!--MD5=[9067801ba72588d234fb4753b737caa8]
link DL to A--><path codeLine="34" d="M68.9998,558.9271 C57.2913,569.2081 46.8786,581.2211 40,594.9531 C32.8566,609.2137 33.0693,626.9141 35.3114,641.696 " fill="none" id="DL-A" style="stroke:#A80036;stroke-width:1.0;"/><polygon fill="#000000" points="46.8849,598.8884,40.753,606.1582,46.1971,608.3741,46.8849,598.8884" style="stroke:#000000;stroke-width:1.0;"/><text fill="#000000" font-family="sans-serif" font-size="13" lengthAdjust="spacing" textLength="158" x="54" y="608.02">écrit des livres décrit par</text><text fill="#000000" font-family="sans-serif" font-size="13" lengthAdjust="spacing" textLength="7" x="54.0412" y="559.7076">*</text><text fill="#000000" font-family="sans-serif" font-size="13" lengthAdjust="spacing" textLength="8" x="24.9006" y="630.9062">1</text><!--MD5=[65cf5f7cb683c948fa5ee0a05c18e938]
link DL to ME--><path codeLine="35" d="M195.056,565.1641 C202.77,574.7821 210.402,584.9561 217,594.9531 C226.772,609.7588 235.887,627.3299 242.843,641.8963 " fill="none" id="DL-ME" style="stroke:#A80036;stroke-width:1.0;"/><polygon fill="#000000" points="229.3568,599.2753,231.6437,608.5068,236.6331,605.3995,229.3568,599.2753" style="stroke:#000000;stroke-width:1.0;"/><text fill="#000000" font-family="sans-serif" font-size="13" lengthAdjust="spacing" textLength="157" x="241" y="608.02">édite les libres décrit par</text><text fill="#000000" font-family="sans-serif" font-size="13" lengthAdjust="spacing" textLength="7" x="193.7745" y="585.3203">*</text><text fill="#000000" font-family="sans-serif" font-size="13" lengthAdjust="spacing" textLength="8" x="231.0899" y="630.6742">1</text><!--MD5=[5180d74e73ac2246352e07dab6605b59]
@startuml
title MDD CU01 - Ajouter un livre à échanger

    class BDD <<Organisation>>{

    }
    class C as "Client" <<Role>> {
        string nomUtilisateur
        string motDePasse

    }
    class L as "Livre" <<Objet physique>>{
         condition condition

    }
    class DL as "DescriptionLivre" <<Description d'entité>>{
        string isbn
        string titre
        int nombrePages
        int noEdition
    }

    class A as "Auteur" {
        string nom
    }

    class ME as "MaisonEdition" {
        string nom
    }

    BDD "1" - - "*" DL: gère >
    BDD "1" - - "*" C: offe un service au membre >
    C "1" - - "*" L: possède >
    L "*" - - "1" DL: sont décrit >
    A "1" -up- "*" DL: écrit des livres décrit par >
    ME "1" -up- "*" DL: édite les libres décrit par >
@enduml

PlantUML version 1.2021.01beta3(Unknown compile time)
(GPL source distribution)
Java Runtime: Java(TM) SE Runtime Environment
JVM: Java HotSpot(TM) 64-Bit Server VM
Default Encoding: UTF-8
Language: en
Country: US
--></g></svg>