<?xml version="1.0" encoding="UTF-8" standalone="no"?><svg xmlns="http://www.w3.org/2000/svg" xmlns:xlink="http://www.w3.org/1999/xlink" contentScriptType="application/ecmascript" contentStyleType="text/css" height="620px" preserveAspectRatio="none" style="width:1475px;height:620px;" version="1.1" viewBox="0 0 1475 620" width="1475px" zoomAndPan="magnify"><defs/><g><rect fill="#FFFFFF" height="457.5234" style="stroke:#A80036;stroke-width:1.0;" width="10" x="248" y="137.6953"/><line style="stroke:#A80036;stroke-width:1.0;stroke-dasharray:5.0,5.0;" x1="252.5" x2="252.5" y1="36.2969" y2="613.2188"/><line style="stroke:#A80036;stroke-width:1.0;stroke-dasharray:5.0,5.0;" x1="516" x2="516" y1="36.2969" y2="613.2188"/><line style="stroke:#A80036;stroke-width:1.0;stroke-dasharray:5.0,5.0;" x1="774" x2="774" y1="36.2969" y2="613.2188"/><line style="stroke:#A80036;stroke-width:1.0;stroke-dasharray:5.0,5.0;" x1="1077" x2="1077" y1="36.2969" y2="613.2188"/><line style="stroke:#A80036;stroke-width:1.0;stroke-dasharray:5.0,5.0;" x1="1260" x2="1260" y1="36.2969" y2="613.2188"/><line style="stroke:#A80036;stroke-width:1.0;stroke-dasharray:5.0,5.0;" x1="1411" x2="1411" y1="36.2969" y2="613.2188"/><rect fill="#FEFECE" height="30.2969" style="stroke:#A80036;stroke-width:1.5;" width="79" x="213.5" y="5"/><text fill="#000000" font-family="sans-serif" font-size="14" lengthAdjust="spacing" textLength="65" x="220.5" y="24.9951">bdd:BDD</text><rect fill="#FEFECE" height="30.2969" style="stroke:#A80036;stroke-width:1.5;" width="136" x="448" y="5"/><text fill="#000000" font-family="sans-serif" font-size="14" lengthAdjust="spacing" textLength="122" x="455" y="24.9951">proposeur:Client</text><rect fill="#FEFECE" height="30.2969" style="stroke:#A80036;stroke-width:1.5;" width="182" x="683" y="5"/><text fill="#000000" font-family="sans-serif" font-size="14" lengthAdjust="spacing" textLength="168" x="690" y="24.9951">pe:PropositionEchange</text><rect fill="#FEFECE" height="30.2969" style="stroke:#A80036;stroke-width:1.5;" width="172" x="991" y="5"/><text fill="#000000" font-family="sans-serif" font-size="14" lengthAdjust="spacing" textLength="158" x="998" y="24.9951">clientProposeA:Client</text><rect fill="#FEFECE" height="30.2969" style="stroke:#A80036;stroke-width:1.5;" width="166" x="1177" y="5"/><text fill="#000000" font-family="sans-serif" font-size="14" lengthAdjust="spacing" textLength="152" x="1184" y="24.9951">mlc:Map&lt;isbn,Livre&gt;</text><rect fill="#FEFECE" height="30.2969" style="stroke:#A80036;stroke-width:1.5;" width="116" x="1353" y="5"/><text fill="#000000" font-family="sans-serif" font-size="14" lengthAdjust="spacing" textLength="102" x="1360" y="24.9951">llr:List&lt;Livre&gt;</text><rect fill="#FFFFFF" height="457.5234" style="stroke:#A80036;stroke-width:1.0;" width="10" x="248" y="137.6953"/><path d="M15,51.2969 L15,76.2969 L248,76.2969 L248,61.2969 L238,51.2969 L15,51.2969 " fill="#FBFB77" style="stroke:#A80036;stroke-width:1.0;"/><path d="M238,51.2969 L238,61.2969 L248,61.2969 L238,51.2969 " fill="#FBFB77" style="stroke:#A80036;stroke-width:1.0;"/><text fill="#000000" font-family="sans-serif" font-size="13" lengthAdjust="spacing" textLength="212" x="21" y="68.3638">controleur de façade objet racine</text><path d="M183,86.4297 L183,111.4297 L511,111.4297 L511,96.4297 L501,86.4297 L183,86.4297 " fill="#FBFB77" style="stroke:#A80036;stroke-width:1.0;"/><path d="M501,86.4297 L501,96.4297 L511,96.4297 L501,86.4297 " fill="#FBFB77" style="stroke:#A80036;stroke-width:1.0;"/><text fill="#000000" font-family="sans-serif" font-size="13" lengthAdjust="spacing" textLength="307" x="189" y="103.4966">controleur le voit puisque c'est une précondition</text><polygon fill="#A80036" points="236,133.6953,246,137.6953,236,141.6953" style="stroke:#A80036;stroke-width:1.0;"/><line style="stroke:#A80036;stroke-width:1.0;" x1="0" x2="242" y1="137.6953" y2="137.6953"/><text fill="#000000" font-family="sans-serif" font-size="13" lengthAdjust="spacing" textLength="229" x="7" y="132.6294">proposerLivreRecevoir(isbn : string)</text><path d="M263,150.6953 L263,205.6953 L617,205.6953 L617,160.6953 L607,150.6953 L263,150.6953 " fill="#FBFB77" style="stroke:#A80036;stroke-width:1.0;"/><path d="M607,150.6953 L607,160.6953 L617,160.6953 L607,150.6953 " fill="#FBFB77" style="stroke:#A80036;stroke-width:1.0;"/><text fill="#000000" font-family="sans-serif" font-size="13" lengthAdjust="spacing" textLength="140" x="269" y="167.7622">Expert en information</text><text fill="#000000" font-family="sans-serif" font-size="13" lengthAdjust="spacing" textLength="197" x="269" y="182.895">bdd connait le client proposeur</text><text fill="#000000" font-family="sans-serif" font-size="13" lengthAdjust="spacing" textLength="333" x="269" y="198.0278">Le client proposeur connait la proposition d'échange</text><polygon fill="#A80036" points="504,228.2266,514,232.2266,504,236.2266" style="stroke:#A80036;stroke-width:1.0;"/><line style="stroke:#A80036;stroke-width:1.0;" x1="258" x2="510" y1="232.2266" y2="232.2266"/><text fill="#000000" font-family="sans-serif" font-size="13" lengthAdjust="spacing" textLength="234" x="265" y="227.1606">ajouterLivreARecevoir(idLivre:string)</text><path d="M521,245.2266 L521,315.2266 L752,315.2266 L752,255.2266 L742,245.2266 L521,245.2266 " fill="#FBFB77" style="stroke:#A80036;stroke-width:1.0;"/><path d="M742,245.2266 L742,255.2266 L752,255.2266 L742,245.2266 " fill="#FBFB77" style="stroke:#A80036;stroke-width:1.0;"/><text fill="#000000" font-family="sans-serif" font-size="13" lengthAdjust="spacing" textLength="140" x="527" y="262.2935">Expert en information</text><text fill="#000000" font-family="sans-serif" font-size="13" lengthAdjust="spacing" textLength="204" x="527" y="277.4263">proposeur a une visibilité sur pe</text><text fill="#000000" font-family="sans-serif" font-size="13" lengthAdjust="spacing" textLength="181" x="527" y="292.5591">pe connait le clientProposéA</text><text fill="#000000" font-family="sans-serif" font-size="13" lengthAdjust="spacing" textLength="210" x="527" y="307.6919">clientProposeA connait ses livres</text><polygon fill="#A80036" points="762,337.8906,772,341.8906,762,345.8906" style="stroke:#A80036;stroke-width:1.0;"/><line style="stroke:#A80036;stroke-width:1.0;" x1="516" x2="768" y1="341.8906" y2="341.8906"/><text fill="#000000" font-family="sans-serif" font-size="13" lengthAdjust="spacing" textLength="234" x="523" y="336.8247">ajouterLivreARecevoir(idLivre:string)</text><path d="M779,354.8906 L779,409.8906 L1010,409.8906 L1010,364.8906 L1000,354.8906 L779,354.8906 " fill="#FBFB77" style="stroke:#A80036;stroke-width:1.0;"/><path d="M1000,354.8906 L1000,364.8906 L1010,364.8906 L1000,354.8906 " fill="#FBFB77" style="stroke:#A80036;stroke-width:1.0;"/><text fill="#000000" font-family="sans-serif" font-size="13" lengthAdjust="spacing" textLength="140" x="785" y="371.9575">Expert en information</text><text fill="#000000" font-family="sans-serif" font-size="13" lengthAdjust="spacing" textLength="181" x="785" y="387.0903">pe connait le clientProposéA</text><text fill="#000000" font-family="sans-serif" font-size="13" lengthAdjust="spacing" textLength="210" x="785" y="402.2231">clientProposeA connait ses livres</text><polygon fill="#A80036" points="1065,432.4219,1075,436.4219,1065,440.4219" style="stroke:#A80036;stroke-width:1.0;"/><line style="stroke:#A80036;stroke-width:1.0;" x1="774" x2="1071" y1="436.4219" y2="436.4219"/><text fill="#000000" font-family="sans-serif" font-size="13" lengthAdjust="spacing" textLength="279" x="781" y="431.356">livre = ajouterLivreARecevoir(idLivre:string)</text><path d="M1082,449.4219 L1082,489.4219 L1321,489.4219 L1321,459.4219 L1311,449.4219 L1082,449.4219 " fill="#FBFB77" style="stroke:#A80036;stroke-width:1.0;"/><path d="M1311,449.4219 L1311,459.4219 L1321,459.4219 L1311,449.4219 " fill="#FBFB77" style="stroke:#A80036;stroke-width:1.0;"/><text fill="#000000" font-family="sans-serif" font-size="13" lengthAdjust="spacing" textLength="140" x="1088" y="466.4888">Expert en information</text><text fill="#000000" font-family="sans-serif" font-size="13" lengthAdjust="spacing" textLength="218" x="1088" y="481.6216">clientProposeA possède des livres</text><polygon fill="#A80036" points="1248,511.8203,1258,515.8203,1248,519.8203" style="stroke:#A80036;stroke-width:1.0;"/><line style="stroke:#A80036;stroke-width:1.0;" x1="1077" x2="1254" y1="515.8203" y2="515.8203"/><text fill="#000000" font-family="sans-serif" font-size="13" lengthAdjust="spacing" textLength="159" x="1084" y="510.7544">livre = get(idLivre:string)</text><path d="M779,528.8203 L779,568.8203 L940,568.8203 L940,538.8203 L930,528.8203 L779,528.8203 " fill="#FBFB77" style="stroke:#A80036;stroke-width:1.0;"/><path d="M930,528.8203 L930,538.8203 L940,538.8203 L930,528.8203 " fill="#FBFB77" style="stroke:#A80036;stroke-width:1.0;"/><text fill="#000000" font-family="sans-serif" font-size="13" lengthAdjust="spacing" textLength="140" x="785" y="545.8872">Expert en information</text><text fill="#000000" font-family="sans-serif" font-size="13" lengthAdjust="spacing" textLength="134" x="789" y="561.02">pe possède la liste llr</text><polygon fill="#A80036" points="1399,591.2188,1409,595.2188,1399,599.2188" style="stroke:#A80036;stroke-width:1.0;"/><line style="stroke:#A80036;stroke-width:1.0;" x1="774" x2="1405" y1="595.2188" y2="595.2188"/><text fill="#000000" font-family="sans-serif" font-size="13" lengthAdjust="spacing" textLength="96" x="781" y="590.1528">add(Livre livre)</text><!--MD5=[9013d676f2d2d7aeecb362a54421dc85]
@startuml
skinparam style strictuml
participant "bdd:BDD" as CTRL
note left of CTRL: controleur de façade objet racine
participant "proposeur:Client" as CP
note left of CP: controleur le voit puisque c'est une précondition
participant "pe:PropositionEchange" as PE
participant "clientProposeA:Client" as CPA
participant  "mlc:Map<isbn,Livre>" as MLC
participant "llr:List<Livre>" as LLR

->CTRL: proposerLivreRecevoir(isbn : string)
activate CTRL
note right of CTRL: Expert en information\nbdd connait le client proposeur\nLe client proposeur connait la proposition d'échange
CTRL -> CP :ajouterLivreARecevoir(idLivre:string)

note right of CP: Expert en information\nproposeur a une visibilité sur pe\npe connait le clientProposéA\nclientProposeA connait ses livres 
CP -> PE: ajouterLivreARecevoir(idLivre:string)

note right of PE: Expert en information\npe connait le clientProposéA\nclientProposeA connait ses livres
PE->CPA: livre = ajouterLivreARecevoir(idLivre:string)

note right of CPA: Expert en information\nclientProposeA possède des livres
CPA -> MLC: livre = get(idLivre:string)

note right of PE: Expert en information\n pe possède la liste llr
PE -> LLR: add(Livre livre)
deactivate CTRL
@enduml

PlantUML version 1.2021.01beta3(Unknown compile time)
(GPL source distribution)
Java Runtime: Java(TM) SE Runtime Environment
JVM: Java HotSpot(TM) 64-Bit Server VM
Default Encoding: UTF-8
Language: en
Country: US
--></g></svg>