<?xml version="1.0" encoding="UTF-8" standalone="no"?><svg xmlns="http://www.w3.org/2000/svg" xmlns:xlink="http://www.w3.org/1999/xlink" contentScriptType="application/ecmascript" contentStyleType="text/css" height="156px" preserveAspectRatio="none" style="width:288px;height:156px;" version="1.1" viewBox="0 0 288 156" width="288px" zoomAndPan="magnify"><defs/><g><rect fill="#FFFFFF" height="29.1328" style="stroke:#A80036;stroke-width:1.0;" width="10" x="238" y="102.5625"/><line style="stroke:#A80036;stroke-width:1.0;stroke-dasharray:5.0,5.0;" x1="242.5" x2="242.5" y1="36.2969" y2="149.6953"/><rect fill="#FEFECE" height="30.2969" style="stroke:#A80036;stroke-width:1.5;" width="79" x="203.5" y="5"/><text fill="#000000" font-family="sans-serif" font-size="14" lengthAdjust="spacing" textLength="65" x="210.5" y="24.9951">bdd:BDD</text><rect fill="#FFFFFF" height="29.1328" style="stroke:#A80036;stroke-width:1.0;" width="10" x="238" y="102.5625"/><path d="M5,51.2969 L5,76.2969 L238,76.2969 L238,61.2969 L228,51.2969 L5,51.2969 " fill="#FBFB77" style="stroke:#A80036;stroke-width:1.0;"/><path d="M228,51.2969 L228,61.2969 L238,61.2969 L228,51.2969 " fill="#FBFB77" style="stroke:#A80036;stroke-width:1.0;"/><text fill="#000000" font-family="sans-serif" font-size="13" lengthAdjust="spacing" textLength="212" x="11" y="68.3638">controleur de façade objet racine</text><polygon fill="#A80036" points="226,98.5625,236,102.5625,226,106.5625" style="stroke:#A80036;stroke-width:1.0;"/><line style="stroke:#A80036;stroke-width:1.0;" x1="0" x2="232" y1="102.5625" y2="102.5625"/><text fill="#000000" font-family="sans-serif" font-size="13" lengthAdjust="spacing" textLength="127" x="7" y="97.4966">confirmerÉchange()</text><line style="stroke:#A80036;stroke-width:1.0;" x1="0" x2="10" y1="131.6953" y2="127.6953"/><line style="stroke:#A80036;stroke-width:1.0;" x1="0" x2="10" y1="131.6953" y2="135.6953"/><line style="stroke:#A80036;stroke-width:1.0;stroke-dasharray:2.0,2.0;" x1="0" x2="242" y1="131.6953" y2="131.6953"/><text fill="#000000" font-family="sans-serif" font-size="13" lengthAdjust="spacing" textLength="134" x="17" y="126.6294">resumé de l'échange</text><!--MD5=[f361f2d1cc66696e6d8e639fe877ad3a]
@startuml
skinparam style strictuml
participant "bdd:BDD" as CTRL
note left of CTRL: controleur de façade objet racine
->CTRL: confirmerÉchange()
activate CTRL
<<- -CTRL: resumé de l'échange
deactivate CTRL
@enduml

PlantUML version 1.2021.01beta3(Unknown compile time)
(GPL source distribution)
Java Runtime: Java(TM) SE Runtime Environment
JVM: Java HotSpot(TM) 64-Bit Server VM
Default Encoding: UTF-8
Language: en
Country: US
--></g></svg>