<?xml version="1.0" encoding="UTF-8" standalone="no"?><svg xmlns="http://www.w3.org/2000/svg" xmlns:xlink="http://www.w3.org/1999/xlink" contentScriptType="application/ecmascript" contentStyleType="text/css" height="510px" preserveAspectRatio="none" style="width:1069px;height:510px;" version="1.1" viewBox="0 0 1069 510" width="1069px" zoomAndPan="magnify"><defs/><g><rect fill="#FFFFFF" height="347.8594" style="stroke:#A80036;stroke-width:1.0;" width="10" x="253" y="137.6953"/><line style="stroke:#A80036;stroke-width:1.0;stroke-dasharray:5.0,5.0;" x1="257.5" x2="257.5" y1="36.2969" y2="503.5547"/><line style="stroke:#A80036;stroke-width:1.0;stroke-dasharray:5.0,5.0;" x1="498" x2="498" y1="36.2969" y2="503.5547"/><line style="stroke:#A80036;stroke-width:1.0;stroke-dasharray:5.0,5.0;" x1="659" x2="659" y1="36.2969" y2="503.5547"/><line style="stroke:#A80036;stroke-width:1.0;stroke-dasharray:5.0,5.0;" x1="843" x2="843" y1="36.2969" y2="503.5547"/><line style="stroke:#A80036;stroke-width:1.0;stroke-dasharray:5.0,5.0;" x1="1003" x2="1003" y1="36.2969" y2="503.5547"/><rect fill="#FEFECE" height="30.2969" style="stroke:#A80036;stroke-width:1.5;" width="79" x="218.5" y="5"/><text fill="#000000" font-family="sans-serif" font-size="14" lengthAdjust="spacing" textLength="65" x="225.5" y="24.9951">bdd:BDD</text><rect fill="#FEFECE" height="30.2969" style="stroke:#A80036;stroke-width:1.5;" width="136" x="430" y="5"/><text fill="#000000" font-family="sans-serif" font-size="14" lengthAdjust="spacing" textLength="122" x="437" y="24.9951">proposeur:Client</text><rect fill="#FEFECE" height="30.2969" style="stroke:#A80036;stroke-width:1.5;" width="166" x="576" y="5"/><text fill="#000000" font-family="sans-serif" font-size="14" lengthAdjust="spacing" textLength="152" x="583" y="24.9951">mlc:Map&lt;isbn,Livre&gt;</text><rect fill="#FEFECE" height="30.2969" style="stroke:#A80036;stroke-width:1.5;" width="182" x="752" y="5"/><text fill="#000000" font-family="sans-serif" font-size="14" lengthAdjust="spacing" textLength="168" x="759" y="24.9951">pe:PropositionEchange</text><rect fill="#FEFECE" height="30.2969" style="stroke:#A80036;stroke-width:1.5;" width="119" x="944" y="5"/><text fill="#000000" font-family="sans-serif" font-size="14" lengthAdjust="spacing" textLength="105" x="951" y="24.9951">llo:List&lt;Livre&gt;</text><rect fill="#FFFFFF" height="347.8594" style="stroke:#A80036;stroke-width:1.0;" width="10" x="253" y="137.6953"/><path d="M20,51.2969 L20,76.2969 L253,76.2969 L253,61.2969 L243,51.2969 L20,51.2969 " fill="#FBFB77" style="stroke:#A80036;stroke-width:1.0;"/><path d="M243,51.2969 L243,61.2969 L253,61.2969 L243,51.2969 " fill="#FBFB77" style="stroke:#A80036;stroke-width:1.0;"/><text fill="#000000" font-family="sans-serif" font-size="13" lengthAdjust="spacing" textLength="212" x="26" y="68.3638">controleur de façade objet racine</text><path d="M165,86.4297 L165,111.4297 L493,111.4297 L493,96.4297 L483,86.4297 L165,86.4297 " fill="#FBFB77" style="stroke:#A80036;stroke-width:1.0;"/><path d="M483,86.4297 L483,96.4297 L493,96.4297 L483,86.4297 " fill="#FBFB77" style="stroke:#A80036;stroke-width:1.0;"/><text fill="#000000" font-family="sans-serif" font-size="13" lengthAdjust="spacing" textLength="307" x="171" y="103.4966">controleur le voit puisque c'est une précondition</text><polygon fill="#A80036" points="241,133.6953,251,137.6953,241,141.6953" style="stroke:#A80036;stroke-width:1.0;"/><line style="stroke:#A80036;stroke-width:1.0;" x1="0" x2="247" y1="137.6953" y2="137.6953"/><text fill="#000000" font-family="sans-serif" font-size="13" lengthAdjust="spacing" textLength="234" x="7" y="132.6294">proposerLivreOffrir(isbn : CodeLivre)</text><path d="M268,150.6953 L268,205.6953 L603,205.6953 L603,160.6953 L593,150.6953 L268,150.6953 " fill="#FBFB77" style="stroke:#A80036;stroke-width:1.0;"/><path d="M593,150.6953 L593,160.6953 L603,160.6953 L593,150.6953 " fill="#FBFB77" style="stroke:#A80036;stroke-width:1.0;"/><text fill="#000000" font-family="sans-serif" font-size="13" lengthAdjust="spacing" textLength="140" x="274" y="167.7622">Expert en information</text><text fill="#000000" font-family="sans-serif" font-size="13" lengthAdjust="spacing" textLength="182" x="274" y="182.895">bdd connait client proposeur</text><text fill="#000000" font-family="sans-serif" font-size="13" lengthAdjust="spacing" textLength="314" x="274" y="198.0278">client proposeur connait la proposition d'échange</text><polygon fill="#A80036" points="486,228.2266,496,232.2266,486,236.2266" style="stroke:#A80036;stroke-width:1.0;"/><line style="stroke:#A80036;stroke-width:1.0;" x1="263" x2="492" y1="232.2266" y2="232.2266"/><text fill="#000000" font-family="sans-serif" font-size="13" lengthAdjust="spacing" textLength="211" x="270" y="227.1606">ajouterLivreAOffrir(idLivre:string)</text><path d="M503,245.2266 L503,285.2266 L730,285.2266 L730,255.2266 L720,245.2266 L503,245.2266 " fill="#FBFB77" style="stroke:#A80036;stroke-width:1.0;"/><path d="M720,245.2266 L720,255.2266 L730,255.2266 L720,245.2266 " fill="#FBFB77" style="stroke:#A80036;stroke-width:1.0;"/><text fill="#000000" font-family="sans-serif" font-size="13" lengthAdjust="spacing" textLength="140" x="509" y="262.2935">Expert en information</text><text fill="#000000" font-family="sans-serif" font-size="13" lengthAdjust="spacing" textLength="206" x="509" y="277.4263">Client possède une map de livre</text><polygon fill="#A80036" points="647,307.625,657,311.625,647,315.625" style="stroke:#A80036;stroke-width:1.0;"/><line style="stroke:#A80036;stroke-width:1.0;" x1="498" x2="653" y1="311.625" y2="311.625"/><text fill="#000000" font-family="sans-serif" font-size="13" lengthAdjust="spacing" textLength="110" x="505" y="306.5591">livre=get(idLivre)</text><path d="M503,324.625 L503,379.625 L838,379.625 L838,334.625 L828,324.625 L503,324.625 " fill="#FBFB77" style="stroke:#A80036;stroke-width:1.0;"/><path d="M828,324.625 L828,334.625 L838,334.625 L828,324.625 " fill="#FBFB77" style="stroke:#A80036;stroke-width:1.0;"/><text fill="#000000" font-family="sans-serif" font-size="13" lengthAdjust="spacing" textLength="140" x="509" y="341.6919">Expert en information</text><text fill="#000000" font-family="sans-serif" font-size="13" lengthAdjust="spacing" textLength="314" x="509" y="356.8247">client proposeur connait la proposition d'échange</text><text fill="#000000" font-family="sans-serif" font-size="13" lengthAdjust="spacing" textLength="248" x="509" y="371.9575">pe possède une liste de livre a offrir llo</text><polygon fill="#A80036" points="831,402.1563,841,406.1563,831,410.1563" style="stroke:#A80036;stroke-width:1.0;"/><line style="stroke:#A80036;stroke-width:1.0;" x1="498" x2="837" y1="406.1563" y2="406.1563"/><text fill="#000000" font-family="sans-serif" font-size="13" lengthAdjust="spacing" textLength="190" x="505" y="401.0903">ajouterLivreAOffrir(Livre livre)</text><path d="M848,419.1563 L848,459.1563 L1010,459.1563 L1010,429.1563 L1000,419.1563 L848,419.1563 " fill="#FBFB77" style="stroke:#A80036;stroke-width:1.0;"/><path d="M1000,419.1563 L1000,429.1563 L1010,429.1563 L1000,419.1563 " fill="#FBFB77" style="stroke:#A80036;stroke-width:1.0;"/><text fill="#000000" font-family="sans-serif" font-size="13" lengthAdjust="spacing" textLength="140" x="854" y="436.2231">Expert en information</text><text fill="#000000" font-family="sans-serif" font-size="13" lengthAdjust="spacing" textLength="137" x="858" y="451.356">pe possède la liste llo</text><polygon fill="#A80036" points="991.5,481.5547,1001.5,485.5547,991.5,489.5547" style="stroke:#A80036;stroke-width:1.0;"/><line style="stroke:#A80036;stroke-width:1.0;" x1="843" x2="997.5" y1="485.5547" y2="485.5547"/><text fill="#000000" font-family="sans-serif" font-size="13" lengthAdjust="spacing" textLength="96" x="850" y="480.4888">add(Livre livre)</text><!--MD5=[c66eea033274ef82bb38a65898358c92]
@startuml
skinparam style strictuml
participant "bdd:BDD" as CTRL
note left of CTRL: controleur de façade objet racine
participant "proposeur:Client" as CP
note left of CP: controleur le voit puisque c'est une précondition
participant  "mlc:Map<isbn,Livre>" as MLC
participant "pe:PropositionEchange" as PE
participant "llo:List<Livre>" as LLO
->CTRL: proposerLivreOffrir(isbn : CodeLivre)
activate CTRL

note right of CTRL: Expert en information\nbdd connait client proposeur\nclient proposeur connait la proposition d'échange
CTRL -> CP:ajouterLivreAOffrir(idLivre:string)

note right of CP: Expert en information\nClient possède une map de livre
CP -> MLC: livre=get(idLivre)

note right of CP: Expert en information\nclient proposeur connait la proposition d'échange\npe possède une liste de livre a offrir llo
CP -> PE:ajouterLivreAOffrir(Livre livre)

note right of PE: Expert en information\n pe possède la liste llo
PE -> LLO: add(Livre livre)
deactivate CTRL
@enduml

PlantUML version 1.2021.01beta3(Unknown compile time)
(GPL source distribution)
Java Runtime: Java(TM) SE Runtime Environment
JVM: Java HotSpot(TM) 64-Bit Server VM
Default Encoding: UTF-8
Language: en
Country: US
--></g></svg>