<?xml version="1.0" encoding="UTF-8" standalone="no"?><svg xmlns="http://www.w3.org/2000/svg" xmlns:xlink="http://www.w3.org/1999/xlink" contentScriptType="application/ecmascript" contentStyleType="text/css" height="612px" preserveAspectRatio="none" style="width:676px;height:612px;background:#FFFFFF;" version="1.1" viewBox="0 0 676 612" width="676px" zoomAndPan="magnify"><defs><filter height="300%" id="f15sglcn5opfl2" width="300%" x="-1" y="-1"><feGaussianBlur result="blurOut" stdDeviation="2.0"/><feColorMatrix in="blurOut" result="blurOut2" type="matrix" values="0 0 0 0 0 0 0 0 0 0 0 0 0 0 0 0 0 0 .4 0"/><feOffset dx="4.0" dy="4.0" in="blurOut2" result="blurOut3"/><feBlend in="SourceGraphic" in2="blurOut3" mode="normal"/></filter></defs><g><text fill="#000000" font-family="sans-serif" font-size="18" lengthAdjust="spacing" textLength="297" x="183" y="16.708">Diagramme des cas d'utilisation</text><!--MD5=[8ae77ada6169822435c3d3bcb01b6727]
cluster system--><polygon fill="#FFFFFF" filter="url(#f15sglcn5opfl2)" points="212,114.9531,277,114.9531,284,137.25,413,137.25,413,564.9531,212,564.9531,212,114.9531" style="stroke:#000000;stroke-width:1.5;"/><line style="stroke:#000000;stroke-width:1.5;" x1="212" x2="284" y1="137.25" y2="137.25"/><text fill="#000000" font-family="sans-serif" font-size="14" font-weight="bold" lengthAdjust="spacing" textLength="59" x="216" y="129.9482">system</text><ellipse cx="312.712" cy="239.8955" fill="#FEFECE" filter="url(#f15sglcn5opfl2)" rx="82.712" ry="18.9424" style="stroke:#A80036;stroke-width:1.5;"/><text fill="#000000" font-family="sans-serif" font-size="14" lengthAdjust="spacing" textLength="125" x="249.5208" y="242.9746">Traiter une vente</text><ellipse cx="312.4263" cy="313.7384" fill="#FEFECE" filter="url(#f15sglcn5opfl2)" rx="84.4263" ry="19.2853" style="stroke:#A80036;stroke-width:1.5;"/><text fill="#000000" font-family="sans-serif" font-size="14" lengthAdjust="spacing" textLength="129" x="247.805" y="316.627">Traiter les retours</text><ellipse cx="312.3536" cy="167.8239" fill="#FEFECE" filter="url(#f15sglcn5opfl2)" rx="77.3536" ry="17.8707" style="stroke:#A80036;stroke-width:1.5;"/><text fill="#000000" font-family="sans-serif" font-size="14" lengthAdjust="spacing" textLength="112" x="253.6333" y="171.4985">Mise en plateau</text><ellipse cx="312.6551" cy="386.9841" fill="#FEFECE" filter="url(#f15sglcn5opfl2)" rx="78.1551" ry="18.031" style="stroke:#A80036;stroke-width:1.5;"/><text fill="#000000" font-family="sans-serif" font-size="14" lengthAdjust="spacing" textLength="114" x="253.2659" y="390.5697">Analyse activité</text><ellipse cx="312.6963" cy="458.8924" fill="#FEFECE" filter="url(#f15sglcn5opfl2)" rx="80.1963" ry="18.4393" style="stroke:#A80036;stroke-width:1.5;"/><text fill="#000000" font-family="sans-serif" font-size="14" lengthAdjust="spacing" textLength="119" x="251.6039" y="462.2511">Gérer la sécurité</text><ellipse cx="312.4652" cy="531.1462" fill="#FEFECE" filter="url(#f15sglcn5opfl2)" rx="78.9652" ry="18.193" style="stroke:#A80036;stroke-width:1.5;"/><text fill="#000000" font-family="sans-serif" font-size="14" lengthAdjust="spacing" textLength="116" x="252.4" y="534.6417">Gérer les usager</text><!--MD5=[0ba5ee7700168656dc1b457c6fe9fdac]
entity Client--><ellipse cx="87" cy="187.9531" fill="#FEFECE" filter="url(#f15sglcn5opfl2)" rx="8" ry="8" style="stroke:#A80036;stroke-width:1.5;"/><path d="M87,195.9531 L87,222.9531 M74,203.9531 L100,203.9531 M87,222.9531 L74,237.9531 M87,222.9531 L100,237.9531 " fill="none" filter="url(#f15sglcn5opfl2)" style="stroke:#A80036;stroke-width:1.5;"/><text fill="#000000" font-family="sans-serif" font-size="14" lengthAdjust="spacing" textLength="43" x="65.5" y="256.4482">Client</text><!--MD5=[84eb184a08144e15816666ccc309fe96]
entity Caissier--><ellipse cx="87" cy="71.9531" fill="#FEFECE" filter="url(#f15sglcn5opfl2)" rx="8" ry="8" style="stroke:#A80036;stroke-width:1.5;"/><path d="M87,79.9531 L87,106.9531 M74,87.9531 L100,87.9531 M87,106.9531 L74,121.9531 M87,106.9531 L100,121.9531 " fill="none" filter="url(#f15sglcn5opfl2)" style="stroke:#A80036;stroke-width:1.5;"/><text fill="#000000" font-family="sans-serif" font-size="14" lengthAdjust="spacing" textLength="55" x="59.5" y="140.4482">Caissier</text><!--MD5=[d593fa3034f64f3da088f84882465b42]
entity Gérant--><ellipse cx="87" cy="303.9531" fill="#FEFECE" filter="url(#f15sglcn5opfl2)" rx="8" ry="8" style="stroke:#A80036;stroke-width:1.5;"/><path d="M87,311.9531 L87,338.9531 M74,319.9531 L100,319.9531 M87,338.9531 L74,353.9531 M87,338.9531 L100,353.9531 " fill="none" filter="url(#f15sglcn5opfl2)" style="stroke:#A80036;stroke-width:1.5;"/><text fill="#000000" font-family="sans-serif" font-size="14" lengthAdjust="spacing" textLength="50" x="62" y="372.4482">Gérant</text><!--MD5=[8657b86f1e395551e23c1ddefbf321e8]
entity SystemVente--><ellipse cx="87" cy="419.9531" fill="#FEFECE" filter="url(#f15sglcn5opfl2)" rx="8" ry="8" style="stroke:#A80036;stroke-width:1.5;"/><path d="M87,427.9531 L87,454.9531 M74,435.9531 L100,435.9531 M87,454.9531 L74,469.9531 M87,454.9531 L100,469.9531 " fill="none" filter="url(#f15sglcn5opfl2)" style="stroke:#A80036;stroke-width:1.5;"/><text fill="#000000" font-family="sans-serif" font-size="14" lengthAdjust="spacing" textLength="98" x="38" y="488.4482">SystemVente</text><!--MD5=[2061cc636a14b31aecf6129c67adb80d]
entity AdministrateurSystem--><ellipse cx="87" cy="535.9531" fill="#FEFECE" filter="url(#f15sglcn5opfl2)" rx="8" ry="8" style="stroke:#A80036;stroke-width:1.5;"/><path d="M87,543.9531 L87,570.9531 M74,551.9531 L100,551.9531 M87,570.9531 L74,585.9531 M87,570.9531 L100,585.9531 " fill="none" filter="url(#f15sglcn5opfl2)" style="stroke:#A80036;stroke-width:1.5;"/><text fill="#000000" font-family="sans-serif" font-size="14" lengthAdjust="spacing" textLength="162" x="6" y="604.4482">AdministrateurSystem</text><!--MD5=[fc42f151ee805f27f1f8e3760db70d9e]
entity ServiceAutorisationPaiement--><ellipse cx="563" cy="382.9531" fill="#FEFECE" filter="url(#f15sglcn5opfl2)" rx="8" ry="8" style="stroke:#A80036;stroke-width:1.5;"/><path d="M563,390.9531 L563,417.9531 M550,398.9531 L576,398.9531 M563,417.9531 L550,432.9531 M563,417.9531 L576,432.9531 " fill="none" filter="url(#f15sglcn5opfl2)" style="stroke:#A80036;stroke-width:1.5;"/><text fill="#000000" font-family="sans-serif" font-size="14" lengthAdjust="spacing" textLength="210" x="458" y="451.4482">ServiceAutorisationPaiement</text><!--MD5=[a631bbe280ba81d177f1f66b78330646]
entity CalculateurTaxe--><ellipse cx="563" cy="150.9531" fill="#FEFECE" filter="url(#f15sglcn5opfl2)" rx="8" ry="8" style="stroke:#A80036;stroke-width:1.5;"/><path d="M563,158.9531 L563,185.9531 M550,166.9531 L576,166.9531 M563,185.9531 L550,200.9531 M563,185.9531 L576,200.9531 " fill="none" filter="url(#f15sglcn5opfl2)" style="stroke:#A80036;stroke-width:1.5;"/><text fill="#000000" font-family="sans-serif" font-size="14" lengthAdjust="spacing" textLength="114" x="506" y="219.4482">CalculateurTaxe</text><!--MD5=[fb72e74ee456a354abd2818f223f1619]
entity SystemeCompatabilité--><ellipse cx="563" cy="266.9531" fill="#FEFECE" filter="url(#f15sglcn5opfl2)" rx="8" ry="8" style="stroke:#A80036;stroke-width:1.5;"/><path d="M563,274.9531 L563,301.9531 M550,282.9531 L576,282.9531 M563,301.9531 L550,316.9531 M563,301.9531 L576,316.9531 " fill="none" filter="url(#f15sglcn5opfl2)" style="stroke:#A80036;stroke-width:1.5;"/><text fill="#000000" font-family="sans-serif" font-size="14" lengthAdjust="spacing" textLength="167" x="479.5" y="335.4482">SystemeCompatabilité</text><!--MD5=[d6f5835e22b901bf2579082021bda828]
entity SystemeRessourcesHumaines--><ellipse cx="563" cy="34.9531" fill="#FEFECE" filter="url(#f15sglcn5opfl2)" rx="8" ry="8" style="stroke:#A80036;stroke-width:1.5;"/><path d="M563,42.9531 L563,69.9531 M550,50.9531 L576,50.9531 M563,69.9531 L550,84.9531 M563,69.9531 L576,84.9531 " fill="none" filter="url(#f15sglcn5opfl2)" style="stroke:#A80036;stroke-width:1.5;"/><text fill="#000000" font-family="sans-serif" font-size="14" lengthAdjust="spacing" textLength="212" x="457" y="103.4482">SystemeRessourcesHumaines</text><!--MD5=[8cb71162046bee43450bb578e8345823]
link Client to V--><path d="M108.626,220.8911 C136.304,223.4921 187.06,228.2611 230.878,232.3781 " fill="none" id="Client-to-V" style="stroke:#A80036;stroke-width:1.0;"/><polygon fill="#A80036" points="235.911,232.8511,227.3255,228.0252,230.933,232.3825,226.5757,235.9899,235.911,232.8511" style="stroke:#A80036;stroke-width:1.0;"/><!--MD5=[b41ba39de52632cb613adcca37599617]
link Client to R--><path d="M108.567,230.2761 C131.459,242.6321 169.746,262.5691 204,276.9531 C220.967,284.0781 239.834,290.9211 256.967,296.7421 " fill="none" id="Client-to-R" style="stroke:#A80036;stroke-width:1.0;"/><polygon fill="#A80036" points="261.75,298.3561,254.5014,291.6884,257.0125,296.7574,251.9435,299.2685,261.75,298.3561" style="stroke:#A80036;stroke-width:1.0;"/><!--MD5=[166b8de4d04045e47da80773539d34cd]
link Caissier to V--><path d="M114.839,119.9711 C131.002,130.7971 151.565,145.6261 168,160.9531 C186.228,177.9521 183.407,189.9111 204,203.9531 C217.149,212.9191 232.716,219.8121 247.862,225.0481 " fill="none" id="Caissier-to-V" style="stroke:#A80036;stroke-width:1.0;"/><polygon fill="#A80036" points="252.979,226.7611,245.7142,220.1111,248.2376,225.174,243.1747,227.6974,252.979,226.7611" style="stroke:#A80036;stroke-width:1.0;"/><!--MD5=[582e2ad44410a3dcfd2243371707763f]
link Caissier to R--><path d="M114.527,116.3001 C132.033,126.3641 154.202,141.7161 168,160.9531 C199.462,204.8181 166.417,238.2041 204,276.9531 C214.036,287.3001 227.094,294.7551 240.634,300.1261 " fill="none" id="Caissier-to-R" style="stroke:#A80036;stroke-width:1.0;"/><polygon fill="#A80036" points="245.64,302.0111,238.6284,295.0947,240.9611,300.2482,235.8076,302.5809,245.64,302.0111" style="stroke:#A80036;stroke-width:1.0;"/><!--MD5=[c5ed215ed4e7d1d4042184274a877c6d]
link Caissier to MP--><path d="M114.516,110.6651 C149.882,120.9501 213.29,139.3911 258.615,152.5731 " fill="none" id="Caissier-to-MP" style="stroke:#A80036;stroke-width:1.0;"/><polygon fill="#A80036" points="263.496,153.9921,255.9703,147.6389,258.6947,152.5965,253.7372,155.3209,263.496,153.9921" style="stroke:#A80036;stroke-width:1.0;"/><!--MD5=[1caf9f49d3ff764792912ed9977f1c13]
link Gérant to V--><path d="M112.003,321.7801 C135.162,309.3531 171.407,290.6401 204,276.9531 C221.3,269.6881 240.575,262.7171 257.973,256.8231 " fill="none" id="Gérant-to-V" style="stroke:#A80036;stroke-width:1.0;"/><polygon fill="#A80036" points="262.827,255.1901,253.0213,254.2689,258.088,256.7845,255.5724,261.8513,262.827,255.1901" style="stroke:#A80036;stroke-width:1.0;"/><!--MD5=[83468c3bac36630a7811c077e0f32089]
link Gérant to R--><path d="M112.344,332.6661 C140.176,330.0511 187.238,325.6291 228.627,321.7401 " fill="none" id="Gérant-to-R" style="stroke:#A80036;stroke-width:1.0;"/><polygon fill="#A80036" points="233.644,321.2681,224.3087,318.1293,228.666,321.7368,225.0585,326.0941,233.644,321.2681" style="stroke:#A80036;stroke-width:1.0;"/><!--MD5=[c431d9daaae429aa0c2b3ed06471c487]
link SystemVente to A--><path d="M136.221,437.1451 C171.959,426.9111 220.678,412.9601 257.683,402.3641 " fill="none" id="SystemVente-to-A" style="stroke:#A80036;stroke-width:1.0;"/><polygon fill="#A80036" points="262.594,400.9571,252.8403,399.5912,257.7875,402.3345,255.0441,407.2816,262.594,400.9571" style="stroke:#A80036;stroke-width:1.0;"/><!--MD5=[7f5607e7dc5c487c809fb6b29b6e60ed]
link AdministrateurSystem to S--><path d="M148.619,526.4283 C166.068,515.7145 185.418,504.7101 204,495.9531 C220.891,487.9931 239.98,480.8641 257.334,475.0371 " fill="none" id="AdministrateurSystem-to-S" style="stroke:#A80036;stroke-width:1.0;"/><polygon fill="#A80036" points="262.179,473.4291,252.3773,472.4663,257.4333,475.0034,254.8962,480.0594,262.179,473.4291" style="stroke:#A80036;stroke-width:1.0;"/><!--MD5=[60cdcd2b5475812a74ea44d9ed848919]
link AdministrateurSystem to U--><path d="M168.057,554.058 C192.38,550.1401 218.887,545.8706 242.423,542.0797 " fill="none" id="AdministrateurSystem-to-U" style="stroke:#A80036;stroke-width:1.0;"/><polygon fill="#A80036" points="247.398,541.2783,237.8761,538.7616,242.4617,542.074,239.1493,546.6596,247.398,541.2783" style="stroke:#A80036;stroke-width:1.0;"/><!--MD5=[9f2e749c848acdb5e1bc6d67a24475fa]
link V to ServiceAutorisationPaiement--><path d="M376.132,252.1341 C392.18,257.6201 408.435,265.5411 421,276.9531 C449.563,302.8951 430.788,327.6381 457,355.9531 C461.679,361.0071 466.901,365.7231 472.448,370.1041 " fill="none" id="V-to-ServiceAutorisationPaiement" style="stroke:#A80036;stroke-width:1.0;"/><polygon fill="#A80036" points="476.749,373.3891,472.0263,364.7464,472.7761,370.3534,467.1691,371.1031,476.749,373.3891" style="stroke:#A80036;stroke-width:1.0;"/><!--MD5=[42fd3e28e5d76e6e804a87d0a179c200]
link V to CalculateurTaxe--><path d="M371.135,226.5011 C409.968,217.4371 461.125,205.4971 500.702,196.2601 " fill="none" id="V-to-CalculateurTaxe" style="stroke:#A80036;stroke-width:1.0;"/><polygon fill="#A80036" points="505.961,195.0331,496.2876,193.1823,501.0917,196.169,498.105,200.9731,505.961,195.0331" style="stroke:#A80036;stroke-width:1.0;"/><!--MD5=[b47d72fa8ed3d3211a6b95d74c360a07]
link V to SystemeCompatabilité--><path d="M371.135,253.4051 C401.747,260.5501 440.017,269.4821 474.235,277.4691 " fill="none" id="V-to-SystemeCompatabilité" style="stroke:#A80036;stroke-width:1.0;"/><polygon fill="#A80036" points="479.253,278.6401,471.3983,272.6985,474.384,277.5032,469.5792,280.4889,479.253,278.6401" style="stroke:#A80036;stroke-width:1.0;"/><!--MD5=[020b01b4e4c462265d29836bb6f2dde6]
link MP to SystemeRessourcesHumaines--><path d="M351.512,152.3501 C379.943,140.6801 420.262,124.1311 458.015,108.6351 " fill="none" id="MP-to-SystemeRessourcesHumaines" style="stroke:#A80036;stroke-width:1.0;"/><polygon fill="#A80036" points="463.083,106.5551,453.2382,106.272,458.4575,108.4536,456.2758,113.6729,463.083,106.5551" style="stroke:#A80036;stroke-width:1.0;"/><!--MD5=[5fafe92850372616549cfa7544bb4e1c]
@startuml
title Diagramme des cas d'utilisation
left to right direction
package system {
 usecase "Traiter une vente" as V
 usecase "Traiter les retours" as R
 usecase "Mise en plateau" as MP
 usecase "Analyse activité" as A
 usecase "Gérer la sécurité" as S
 usecase "Gérer les usager" as U
}
Client - -> V
Client - -> R
Caissier - -> V
Caissier - -> R
Caissier - -> MP
Gérant - -> V
Gérant - -> R
SystemVente - -> A
AdministrateurSystem - -> S
AdministrateurSystem - -> U

V - -> ServiceAutorisationPaiement
V - -> CalculateurTaxe
V - -> SystemeCompatabilité
MP - -> SystemeRessourcesHumaines
@enduml

PlantUML version 1.2021.9beta2(Unknown compile time)
(GPL source distribution)
Java Runtime: Java(TM) SE Runtime Environment
JVM: Java HotSpot(TM) 64-Bit Server VM
Default Encoding: UTF-8
Language: en
Country: US
--></g></svg>