<?xml version="1.0" encoding="UTF-8" standalone="no"?><svg xmlns="http://www.w3.org/2000/svg" xmlns:xlink="http://www.w3.org/1999/xlink" contentScriptType="application/ecmascript" contentStyleType="text/css" height="437px" preserveAspectRatio="none" style="width:445px;height:437px;background:#FFFFFF;" version="1.1" viewBox="0 0 445 437" width="445px" zoomAndPan="magnify"><defs/><g><text fill="#000000" font-family="sans-serif" font-size="18" lengthAdjust="spacing" textLength="269" x="87.75" y="28.708">DSS - CU03 - Mise en plateau</text><line style="stroke:#A80036;stroke-width:1.0;stroke-dasharray:5.0,5.0;" x1="38" x2="38" y1="119.25" y2="430.5781"/><line style="stroke:#A80036;stroke-width:1.0;stroke-dasharray:5.0,5.0;" x1="402.5" x2="402.5" y1="119.25" y2="430.5781"/><text fill="#000000" font-family="sans-serif" font-size="14" lengthAdjust="spacing" textLength="60" x="5" y="115.9482">:Caissier</text><ellipse cx="38" cy="49.9531" fill="#FEFECE" rx="8" ry="8" style="stroke:#A80036;stroke-width:2.0;"/><path d="M38,57.9531 L38,84.9531 M25,65.9531 L51,65.9531 M38,84.9531 L25,99.9531 M38,84.9531 L51,99.9531 " fill="none" style="stroke:#A80036;stroke-width:2.0;"/><rect fill="#FEFECE" height="30.2969" style="stroke:#A80036;stroke-width:1.5;" width="73" x="366.5" y="87.9531"/><text fill="#000000" font-family="sans-serif" font-size="14" lengthAdjust="spacing" textLength="59" x="373.5" y="107.9482">:System</text><polygon fill="#A80036" points="391,146.3828,401,150.3828,391,154.3828" style="stroke:#A80036;stroke-width:1.0;"/><line style="stroke:#A80036;stroke-width:1.0;" x1="38" x2="397" y1="150.3828" y2="150.3828"/><text fill="#000000" font-family="sans-serif" font-size="13" lengthAdjust="spacing" textLength="135" x="45" y="145.3169">creerMiseEnPlateau()</text><line style="stroke:#A80036;stroke-width:1.0;" x1="38" x2="48" y1="179.5156" y2="175.5156"/><line style="stroke:#A80036;stroke-width:1.0;" x1="38" x2="48" y1="179.5156" y2="183.5156"/><line style="stroke:#A80036;stroke-width:1.0;stroke-dasharray:2.0,2.0;" x1="38" x2="402" y1="179.5156" y2="179.5156"/><text fill="#000000" font-family="sans-serif" font-size="13" lengthAdjust="spacing" textLength="308" x="55" y="174.4497">formulaire demande identifiant et mot de passe</text><polygon fill="#A80036" points="391,204.6484,401,208.6484,391,212.6484" style="stroke:#A80036;stroke-width:1.0;"/><line style="stroke:#A80036;stroke-width:1.0;" x1="38" x2="397" y1="208.6484" y2="208.6484"/><text fill="#000000" font-family="sans-serif" font-size="13" lengthAdjust="spacing" textLength="318" x="45" y="203.5825">authentifier(string identifiant, string motDePasse)</text><line style="stroke:#A80036;stroke-width:1.0;" x1="38" x2="48" y1="237.7813" y2="233.7813"/><line style="stroke:#A80036;stroke-width:1.0;" x1="38" x2="48" y1="237.7813" y2="241.7813"/><line style="stroke:#A80036;stroke-width:1.0;stroke-dasharray:2.0,2.0;" x1="38" x2="402" y1="237.7813" y2="237.7813"/><text fill="#000000" font-family="sans-serif" font-size="13" lengthAdjust="spacing" textLength="254" x="55" y="232.7153">confirmation, ouverture du tirroir caisse</text><polygon fill="#A80036" points="391,262.9141,401,266.9141,391,270.9141" style="stroke:#A80036;stroke-width:1.0;"/><line style="stroke:#A80036;stroke-width:1.0;" x1="38" x2="397" y1="266.9141" y2="266.9141"/><text fill="#000000" font-family="sans-serif" font-size="13" lengthAdjust="spacing" textLength="158" x="45" y="261.8481">poserPlateau(identifiant)</text><line style="stroke:#A80036;stroke-width:1.0;" x1="38" x2="48" y1="296.0469" y2="292.0469"/><line style="stroke:#A80036;stroke-width:1.0;" x1="38" x2="48" y1="296.0469" y2="300.0469"/><line style="stroke:#A80036;stroke-width:1.0;stroke-dasharray:2.0,2.0;" x1="38" x2="402" y1="296.0469" y2="296.0469"/><text fill="#000000" font-family="sans-serif" font-size="13" lengthAdjust="spacing" textLength="229" x="55" y="290.981">confirmation, demande du montant</text><polygon fill="#A80036" points="391,321.1797,401,325.1797,391,329.1797" style="stroke:#A80036;stroke-width:1.0;"/><line style="stroke:#A80036;stroke-width:1.0;" x1="38" x2="397" y1="325.1797" y2="325.1797"/><text fill="#000000" font-family="sans-serif" font-size="13" lengthAdjust="spacing" textLength="183" x="45" y="320.1138">saisirMontant(float montant)</text><line style="stroke:#A80036;stroke-width:1.0;" x1="38" x2="48" y1="354.3125" y2="350.3125"/><line style="stroke:#A80036;stroke-width:1.0;" x1="38" x2="48" y1="354.3125" y2="358.3125"/><line style="stroke:#A80036;stroke-width:1.0;stroke-dasharray:2.0,2.0;" x1="38" x2="402" y1="354.3125" y2="354.3125"/><text fill="#000000" font-family="sans-serif" font-size="13" lengthAdjust="spacing" textLength="341" x="55" y="349.2466">confirmation, demande de fermeture du tirroir caisse</text><polygon fill="#A80036" points="391,379.4453,401,383.4453,391,387.4453" style="stroke:#A80036;stroke-width:1.0;"/><line style="stroke:#A80036;stroke-width:1.0;" x1="38" x2="397" y1="383.4453" y2="383.4453"/><text fill="#000000" font-family="sans-serif" font-size="13" lengthAdjust="spacing" textLength="91" x="45" y="378.3794">fermerTirroir()</text><line style="stroke:#A80036;stroke-width:1.0;" x1="38" x2="48" y1="412.5781" y2="408.5781"/><line style="stroke:#A80036;stroke-width:1.0;" x1="38" x2="48" y1="412.5781" y2="416.5781"/><line style="stroke:#A80036;stroke-width:1.0;stroke-dasharray:2.0,2.0;" x1="38" x2="402" y1="412.5781" y2="412.5781"/><text fill="#000000" font-family="sans-serif" font-size="13" lengthAdjust="spacing" textLength="125" x="55" y="407.5122">option pour caissier</text><!--MD5=[9cef46c735048a5b0e58ecae16b84d7d]
@startuml
skinparam style strictuml
title: DSS - CU03 - Mise en plateau
actor ":Caissier" as C
participant ":System" as S

C -> S: creerMiseEnPlateau()
C <<- - S: formulaire demande identifiant et mot de passe

C -> S: authentifier(string identifiant, string motDePasse)
C <<- - S: confirmation, ouverture du tirroir caisse

C -> S: poserPlateau(identifiant)
C <<- - S: confirmation, demande du montant

C -> S: saisirMontant(float montant)
C <<- - S: confirmation, demande de fermeture du tirroir caisse

C -> S: fermerTirroir()
C <<- - S: option pour caissier
@enduml

PlantUML version 1.2021.9beta2(Unknown compile time)
(GPL source distribution)
Java Runtime: Java(TM) SE Runtime Environment
JVM: Java HotSpot(TM) 64-Bit Server VM
Default Encoding: UTF-8
Language: en
Country: US
--></g></svg>