<?xml version="1.0" encoding="UTF-8" standalone="no"?><svg xmlns="http://www.w3.org/2000/svg" xmlns:xlink="http://www.w3.org/1999/xlink" contentScriptType="application/ecmascript" contentStyleType="text/css" height="399px" preserveAspectRatio="none" style="width:926px;height:399px;background:#FFFFFF;" version="1.1" viewBox="0 0 926 399" width="926px" zoomAndPan="magnify"><defs/><g><rect fill="#FFFFFF" height="81.3984" style="stroke:#000000;stroke-width:2.0;" width="724" x="105" y="293.7578"/><line style="stroke:#A80036;stroke-width:1.0;stroke-dasharray:5.0,5.0;" x1="147" x2="147" y1="36.2969" y2="392.1563"/><line style="stroke:#A80036;stroke-width:1.0;stroke-dasharray:5.0,5.0;" x1="427" x2="427" y1="36.2969" y2="392.1563"/><line style="stroke:#A80036;stroke-width:1.0;stroke-dasharray:5.0,5.0;" x1="605" x2="605" y1="36.2969" y2="392.1563"/><line style="stroke:#A80036;stroke-width:1.0;stroke-dasharray:5.0,5.0;" x1="720" x2="720" y1="36.2969" y2="392.1563"/><line style="stroke:#A80036;stroke-width:1.0;stroke-dasharray:5.0,5.0;" x1="857" x2="857" y1="36.2969" y2="392.1563"/><rect fill="#FEFECE" height="30.2969" style="stroke:#A80036;stroke-width:1.5;" width="64" x="115" y="5"/><text fill="#000000" font-family="sans-serif" font-size="14" lengthAdjust="spacing" textLength="50" x="122" y="24.9951">:Caisse</text><rect fill="#FEFECE" height="30.2969" style="stroke:#A80036;stroke-width:1.5;" width="76" x="389" y="5"/><text fill="#000000" font-family="sans-serif" font-size="14" lengthAdjust="spacing" textLength="62" x="396" y="24.9951">:Magasin</text><rect fill="#FEFECE" height="30.2969" style="stroke:#A80036;stroke-width:1.5;" width="82" x="564" y="5"/><text fill="#000000" font-family="sans-serif" font-size="14" lengthAdjust="spacing" textLength="68" x="571" y="24.9951">c:Caissier</text><rect fill="#FEFECE" height="30.2969" style="stroke:#A80036;stroke-width:1.5;" width="128" x="656" y="5"/><text fill="#000000" font-family="sans-serif" font-size="14" lengthAdjust="spacing" textLength="114" x="663" y="24.9951">mp:MisePlateau</text><rect fill="#FEFECE" height="30.2969" style="stroke:#A80036;stroke-width:1.5;" width="126" x="794" y="5"/><text fill="#000000" font-family="sans-serif" font-size="14" lengthAdjust="spacing" textLength="112" x="801" y="24.9951">:Map&lt;Caissier&gt;</text><polygon fill="#A80036" points="135,96.6953,145,100.6953,135,104.6953" style="stroke:#A80036;stroke-width:1.0;"/><line style="stroke:#A80036;stroke-width:1.0;" x1="0" x2="141" y1="100.6953" y2="100.6953"/><text fill="#000000" font-family="sans-serif" font-size="13" lengthAdjust="spacing" textLength="74" x="7" y="65.3638">authentifier</text><text fill="#000000" font-family="sans-serif" font-size="13" lengthAdjust="spacing" textLength="123" x="7" y="80.4966">(identifiant : String,</text><text fill="#000000" font-family="sans-serif" font-size="13" lengthAdjust="spacing" textLength="84" x="7" y="95.6294">mdp : String)</text><path d="M152,51.2969 L152,106.2969 L264,106.2969 L264,61.2969 L254,51.2969 L152,51.2969 " fill="#FBFB77" style="stroke:#A80036;stroke-width:1.0;"/><path d="M254,51.2969 L254,61.2969 L264,61.2969 L254,51.2969 " fill="#FBFB77" style="stroke:#A80036;stroke-width:1.0;"/><text fill="#000000" font-family="sans-serif" font-size="13" lengthAdjust="spacing" textLength="90" x="158" y="68.3638">Par contrôleur</text><text fill="#000000" font-family="sans-serif" font-size="13" lengthAdjust="spacing" textLength="91" x="158" y="83.4966">(Caisse est un</text><text fill="#000000" font-family="sans-serif" font-size="13" lengthAdjust="spacing" textLength="82" x="158" y="98.6294">équipement)</text><polygon fill="#A80036" points="415,162.0938,425,166.0938,415,170.0938" style="stroke:#A80036;stroke-width:1.0;"/><line style="stroke:#A80036;stroke-width:1.0;" x1="147" x2="421" y1="166.0938" y2="166.0938"/><text fill="#000000" font-family="sans-serif" font-size="13" lengthAdjust="spacing" textLength="256" x="154" y="161.0278">c = authentifierCaissier(identifiant,mdp)</text><path d="M432,116.6953 L432,201.6953 L607,201.6953 L607,126.6953 L597,116.6953 L432,116.6953 " fill="#FBFB77" style="stroke:#A80036;stroke-width:1.0;"/><path d="M597,116.6953 L597,126.6953 L607,126.6953 L597,116.6953 " fill="#FBFB77" style="stroke:#A80036;stroke-width:1.0;"/><text fill="#000000" font-family="sans-serif" font-size="13" lengthAdjust="spacing" textLength="154" x="438" y="133.7622">Expert (Magasin connaît</text><text fill="#000000" font-family="sans-serif" font-size="13" lengthAdjust="spacing" textLength="116" x="438" y="148.895">tous les Caissiers)</text><text fill="#000000" font-family="sans-serif" font-size="13" lengthAdjust="spacing" textLength="141" x="438" y="164.0278">et par Transformation</text><text fill="#000000" font-family="sans-serif" font-size="13" lengthAdjust="spacing" textLength="98" x="438" y="179.1606">des identifiants</text><text fill="#000000" font-family="sans-serif" font-size="13" lengthAdjust="spacing" textLength="153" x="438" y="194.2935">en objets (p.F451/A460)</text><polygon fill="#A80036" points="845,224.4922,855,228.4922,845,232.4922" style="stroke:#A80036;stroke-width:1.0;"/><line style="stroke:#A80036;stroke-width:1.0;" x1="427" x2="851" y1="228.4922" y2="228.4922"/><text fill="#000000" font-family="sans-serif" font-size="13" lengthAdjust="spacing" textLength="168" x="434" y="223.4263">c = rechercher(identifiant)</text><polygon fill="#A80036" points="593,264.1914,603,268.1914,593,272.1914" style="stroke:#A80036;stroke-width:1.0;"/><line style="stroke:#A80036;stroke-width:1.0;" x1="427" x2="599" y1="268.1914" y2="268.1914"/><text fill="#000000" font-family="sans-serif" font-size="13" lengthAdjust="spacing" textLength="154" x="434" y="263.1255">valide = estValide(mdp)</text><path d="M610,241.4922 L610,281.4922 L743,281.4922 L743,251.4922 L733,241.4922 L610,241.4922 " fill="#FBFB77" style="stroke:#A80036;stroke-width:1.0;"/><path d="M733,241.4922 L733,251.4922 L743,251.4922 L733,241.4922 " fill="#FBFB77" style="stroke:#A80036;stroke-width:1.0;"/><text fill="#000000" font-family="sans-serif" font-size="13" lengthAdjust="spacing" textLength="101" x="616" y="258.5591">Expert (Caissier</text><text fill="#000000" font-family="sans-serif" font-size="13" lengthAdjust="spacing" textLength="112" x="616" y="273.6919">connaît son mdp)</text><path d="M105,293.7578 L171,293.7578 L171,300.7578 L161,310.7578 L105,310.7578 L105,293.7578 " fill="#EEEEEE" style="stroke:#000000;stroke-width:1.0;"/><rect fill="none" height="81.3984" style="stroke:#000000;stroke-width:2.0;" width="724" x="105" y="293.7578"/><text fill="#000000" font-family="sans-serif" font-size="13" font-weight="bold" lengthAdjust="spacing" textLength="21" x="120" y="306.8247">alt</text><text fill="#000000" font-family="sans-serif" font-size="11" font-weight="bold" lengthAdjust="spacing" textLength="56" x="186" y="305.9683">[c!=null]</text><polygon fill="#A80036" points="708,328.0234,718,332.0234,708,336.0234" style="stroke:#A80036;stroke-width:1.0;"/><line style="stroke:#A80036;stroke-width:1.0;" x1="147" x2="714" y1="332.0234" y2="332.0234"/><text fill="#000000" font-family="sans-serif" font-size="13" lengthAdjust="spacing" textLength="87" x="154" y="326.9575">setCaissier(c)</text><path d="M620,345.0234 L620,370.0234 L819,370.0234 L819,355.0234 L809,345.0234 L620,345.0234 " fill="#FBFB77" style="stroke:#A80036;stroke-width:1.0;"/><path d="M809,345.0234 L809,355.0234 L819,355.0234 L809,345.0234 " fill="#FBFB77" style="stroke:#A80036;stroke-width:1.0;"/><text fill="#000000" font-family="sans-serif" font-size="13" lengthAdjust="spacing" textLength="178" x="626" y="362.0903">Expert (mutateur d'attribut)</text><!--MD5=[674971bc201b12f650439810628e29ac]
@startuml
skinparam style strictuml
participant ":Caisse" as C
participant ":Magasin" as m
participant "c:Caissier" as c
participant "mp:MisePlateau" as mp
-> C : authentifier\n(identifiant : String,\nmdp : String)
note right : Par contrôleur\n(Caisse est un\néquipement)
C -> m : c = authentifierCaissier(identifiant,mdp)
note right : Expert (Magasin connaît\ntous les Caissiers)\net par Transformation\ndes identifiants\nen objets (p.F451/A460)
m -> ":Map<Caissier>" : c = rechercher(identifiant)
m -> c : valide = estValide(mdp)
note right : Expert (Caissier\nconnaît son mdp)
alt c!=null
C -> mp : setCaissier(c)
note over mp: Expert (mutateur d'attribut)
end
@enduml

PlantUML version 1.2021.9beta2(Unknown compile time)
(GPL source distribution)
Java Runtime: Java(TM) SE Runtime Environment
JVM: Java HotSpot(TM) 64-Bit Server VM
Default Encoding: UTF-8
Language: en
Country: US
--></g></svg>