<?xml version="1.0" encoding="UTF-8" standalone="no"?><svg xmlns="http://www.w3.org/2000/svg" xmlns:xlink="http://www.w3.org/1999/xlink" contentScriptType="application/ecmascript" contentStyleType="text/css" height="512px" preserveAspectRatio="none" style="width:1930px;height:512px;background:#FFFFFF;" version="1.1" viewBox="0 0 1930 512" width="1930px" zoomAndPan="magnify"><defs/><g><line style="stroke:#A80036;stroke-width:1.0;stroke-dasharray:5.0,5.0;" x1="217" x2="217" y1="52.5938" y2="505.5156"/><line style="stroke:#A80036;stroke-width:1.0;stroke-dasharray:5.0,5.0;" x1="433.5" x2="433.5" y1="52.5938" y2="505.5156"/><line style="stroke:#A80036;stroke-width:1.0;stroke-dasharray:5.0,5.0;" x1="824.5" x2="824.5" y1="52.5938" y2="505.5156"/><line style="stroke:#A80036;stroke-width:1.0;stroke-dasharray:5.0,5.0;" x1="1196" x2="1196" y1="222.7734" y2="505.5156"/><line style="stroke:#A80036;stroke-width:1.0;stroke-dasharray:5.0,5.0;" x1="1595.5" x2="1595.5" y1="52.5938" y2="505.5156"/><line style="stroke:#A80036;stroke-width:1.0;stroke-dasharray:5.0,5.0;" x1="1880.5" x2="1880.5" y1="470.8672" y2="505.5156"/><rect fill="#FEFECE" height="30.2969" style="stroke:#A80036;stroke-width:1.5;" width="64" x="185" y="21.2969"/><text fill="#000000" font-family="sans-serif" font-size="14" lengthAdjust="spacing" textLength="50" x="192" y="41.292">:Caisse</text><rect fill="#FEFECE" height="30.2969" style="stroke:#A80036;stroke-width:1.5;" width="63" x="402.5" y="21.2969"/><text fill="#000000" font-family="sans-serif" font-size="14" lengthAdjust="spacing" textLength="49" x="409.5" y="41.292">:Vente</text><rect fill="#FEFECE" height="30.2969" style="stroke:#A80036;stroke-width:1.5;" width="271" x="689.5" y="21.2969"/><text fill="#000000" font-family="sans-serif" font-size="14" lengthAdjust="spacing" textLength="257" x="696.5" y="41.292">attentePaiement:AttentePaiement</text><rect fill="#FEFECE" height="46.5938" style="stroke:#A80036;stroke-width:1.5;" width="94" x="1548.5" y="5"/><text fill="#000000" font-family="sans-serif" font-size="14" lengthAdjust="spacing" textLength="79" x="1556" y="24.9951">{abstract}</text><text fill="#000000" font-family="sans-serif" font-size="14" lengthAdjust="spacing" textLength="80" x="1555.5" y="41.292">:EtatVente</text><polygon fill="#A80036" points="205,79.7266,215,83.7266,205,87.7266" style="stroke:#A80036;stroke-width:1.0;"/><line style="stroke:#A80036;stroke-width:1.0;stroke-dasharray:2.0,2.0;" x1="0" x2="211" y1="83.7266" y2="83.7266"/><text fill="#000000" font-family="sans-serif" font-size="13" lengthAdjust="spacing" textLength="193" x="7" y="78.6606">creerPaiement(montant:float)</text><polygon fill="#A80036" points="422,108.8594,432,112.8594,422,116.8594" style="stroke:#A80036;stroke-width:1.0;"/><line style="stroke:#A80036;stroke-width:1.0;" x1="217" x2="428" y1="112.8594" y2="112.8594"/><text fill="#000000" font-family="sans-serif" font-size="13" lengthAdjust="spacing" textLength="193" x="224" y="107.7935">creerPaiement(montant:float)</text><line style="stroke:#A80036;stroke-width:1.0;" x1="434" x2="476" y1="141.9922" y2="141.9922"/><line style="stroke:#A80036;stroke-width:1.0;" x1="476" x2="476" y1="141.9922" y2="154.9922"/><line style="stroke:#A80036;stroke-width:1.0;" x1="435" x2="476" y1="154.9922" y2="154.9922"/><polygon fill="#A80036" points="445,150.9922,435,154.9922,445,158.9922" style="stroke:#A80036;stroke-width:1.0;"/><text fill="#000000" font-family="sans-serif" font-size="13" lengthAdjust="spacing" textLength="65" x="441" y="136.9263">getState()</text><polygon fill="#A80036" points="813,180.125,823,184.125,813,188.125" style="stroke:#A80036;stroke-width:1.0;"/><line style="stroke:#A80036;stroke-width:1.0;" x1="434" x2="819" y1="184.125" y2="184.125"/><text fill="#000000" font-family="sans-serif" font-size="13" lengthAdjust="spacing" textLength="367" x="441" y="179.0591">IEtatVente attenteVente = creerPaiement(montant:float)</text><polygon fill="#A80036" points="1070,209.2578,1080,213.2578,1070,217.2578" style="stroke:#A80036;stroke-width:1.0;"/><line style="stroke:#A80036;stroke-width:1.0;" x1="825" x2="1076" y1="213.2578" y2="213.2578"/><text fill="#000000" font-family="sans-serif" font-size="13" lengthAdjust="spacing" textLength="233" x="832" y="208.1919">IEtatVente attenteVente2 = create()</text><rect fill="#FEFECE" height="30.2969" style="stroke:#A80036;stroke-width:1.5;" width="229" x="1082" y="192.125"/><text fill="#000000" font-family="sans-serif" font-size="14" lengthAdjust="spacing" textLength="215" x="1089" y="212.1201">attenteVente2:AttenteVente</text><line style="stroke:#A80036;stroke-width:1.0;" x1="434" x2="476" y1="254.5547" y2="254.5547"/><line style="stroke:#A80036;stroke-width:1.0;" x1="476" x2="476" y1="254.5547" y2="267.5547"/><line style="stroke:#A80036;stroke-width:1.0;" x1="435" x2="476" y1="267.5547" y2="267.5547"/><polygon fill="#A80036" points="445,263.5547,435,267.5547,445,271.5547" style="stroke:#A80036;stroke-width:1.0;"/><text fill="#000000" font-family="sans-serif" font-size="13" lengthAdjust="spacing" textLength="157" x="441" y="249.4888">setState(attenteVente2)</text><path d="M439,280.5547 L439,305.5547 L937,305.5547 L937,290.5547 L927,280.5547 L439,280.5547 " fill="#FBFB77" style="stroke:#A80036;stroke-width:1.0;"/><path d="M927,280.5547 L927,290.5547 L937,290.5547 L927,280.5547 " fill="#FBFB77" style="stroke:#A80036;stroke-width:1.0;"/><text fill="#000000" font-family="sans-serif" font-size="13" lengthAdjust="spacing" textLength="477" x="445" y="297.6216">Appel d'une opération dans le mauvais état -&gt; génération d'une exception</text><polygon fill="#A80036" points="422,327.8203,432,331.8203,422,335.8203" style="stroke:#A80036;stroke-width:1.0;"/><line style="stroke:#A80036;stroke-width:1.0;" x1="0" x2="428" y1="331.8203" y2="331.8203"/><text fill="#000000" font-family="sans-serif" font-size="13" lengthAdjust="spacing" textLength="193" x="7" y="326.7544">creerPaiement(montant:float)</text><line style="stroke:#A80036;stroke-width:1.0;" x1="434" x2="476" y1="360.9531" y2="360.9531"/><line style="stroke:#A80036;stroke-width:1.0;" x1="476" x2="476" y1="360.9531" y2="373.9531"/><line style="stroke:#A80036;stroke-width:1.0;" x1="435" x2="476" y1="373.9531" y2="373.9531"/><polygon fill="#A80036" points="445,369.9531,435,373.9531,445,377.9531" style="stroke:#A80036;stroke-width:1.0;"/><text fill="#000000" font-family="sans-serif" font-size="13" lengthAdjust="spacing" textLength="168" x="441" y="355.8872">attenteVente = getState()</text><polygon fill="#A80036" points="1184.5,399.0859,1194.5,403.0859,1184.5,407.0859" style="stroke:#A80036;stroke-width:1.0;"/><line style="stroke:#A80036;stroke-width:1.0;" x1="434" x2="1190.5" y1="403.0859" y2="403.0859"/><text fill="#000000" font-family="sans-serif" font-size="13" lengthAdjust="spacing" textLength="375" x="441" y="398.02">IEtatVente attenteVente2 = creerPaiement(montant:float)</text><polygon fill="#A80036" points="1583.5,428.2188,1593.5,432.2188,1583.5,436.2188" style="stroke:#A80036;stroke-width:1.0;"/><line style="stroke:#A80036;stroke-width:1.0;" x1="1196.5" x2="1589.5" y1="432.2188" y2="432.2188"/><text fill="#000000" font-family="sans-serif" font-size="13" lengthAdjust="spacing" textLength="375" x="1203.5" y="427.1528">IEtatVente attenteVente2 = creerPaiement(montant:float)</text><polygon fill="#A80036" points="1825.5,457.3516,1835.5,461.3516,1825.5,465.3516" style="stroke:#A80036;stroke-width:1.0;"/><line style="stroke:#A80036;stroke-width:1.0;" x1="1595.5" x2="1831.5" y1="461.3516" y2="461.3516"/><text fill="#000000" font-family="sans-serif" font-size="13" lengthAdjust="spacing" textLength="218" x="1602.5" y="456.2856">create("Erreur operation invalide")</text><rect fill="#FEFECE" height="30.2969" style="stroke:#A80036;stroke-width:1.5;" width="87" x="1837.5" y="440.2188"/><text fill="#000000" font-family="sans-serif" font-size="14" lengthAdjust="spacing" textLength="73" x="1844.5" y="460.2139">Exception</text><polygon fill="#A80036" points="228,483.5156,218,487.5156,228,491.5156" style="stroke:#A80036;stroke-width:1.0;"/><line style="stroke:#A80036;stroke-width:1.0;stroke-dasharray:2.0,2.0;" x1="222" x2="1594.5" y1="487.5156" y2="487.5156"/><!--MD5=[168e2097ad7ea4d2d1a2f14b49289e7b]
@startuml
skinparam Style strictuml

participant ":Caisse" as Caisse
participant ":Vente" as Vente
participant "attentePaiement:AttentePaiement" as AttentePaiement
participant "attenteVente2:AttenteVente" as AttenteVente2
participant "{abstract}\n:EtatVente" as EtatVente

- -> Caisse: creerPaiement(montant:float)
Caisse -> Vente: creerPaiement(montant:float)
Vente -> Vente: getState()
Vente -> AttentePaiement: IEtatVente attenteVente = creerPaiement(montant:float)
AttentePaiement -> AttenteVente2**: IEtatVente attenteVente2 = create()
Vente -> Vente: setState(attenteVente2)

note right of Vente: Appel d'une opération dans le mauvais état -> génération d'une exception
-> Vente: creerPaiement(montant:float)
Vente -> Vente: attenteVente = getState()
Vente -> AttenteVente2: IEtatVente attenteVente2 = creerPaiement(montant:float)
AttenteVente2 -> EtatVente: IEtatVente attenteVente2 = creerPaiement(montant:float)
EtatVente -> Exception**: create("Erreur operation invalide")
Caisse <- - EtatVente
@enduml

PlantUML version 1.2021.9beta2(Unknown compile time)
(GPL source distribution)
Java Runtime: Java(TM) SE Runtime Environment
JVM: Java HotSpot(TM) 64-Bit Server VM
Default Encoding: UTF-8
Language: en
Country: US
--></g></svg>