<?xml version="1.0" encoding="UTF-8" standalone="no"?><svg xmlns="http://www.w3.org/2000/svg" xmlns:xlink="http://www.w3.org/1999/xlink" contentScriptType="application/ecmascript" contentStyleType="text/css" height="332px" preserveAspectRatio="none" style="width:718px;height:332px;background:#FFFFFF;" version="1.1" viewBox="0 0 718 332" width="718px" zoomAndPan="magnify"><defs/><g><line style="stroke:#A80036;stroke-width:1.0;stroke-dasharray:5.0,5.0;" x1="148" x2="148" y1="36.2969" y2="325.8906"/><line style="stroke:#A80036;stroke-width:1.0;stroke-dasharray:5.0,5.0;" x1="284" x2="284" y1="36.2969" y2="325.8906"/><line style="stroke:#A80036;stroke-width:1.0;stroke-dasharray:5.0,5.0;" x1="451" x2="451" y1="36.2969" y2="325.8906"/><line style="stroke:#A80036;stroke-width:1.0;stroke-dasharray:5.0,5.0;" x1="612" x2="612" y1="36.2969" y2="325.8906"/><rect fill="#FEFECE" height="30.2969" style="stroke:#A80036;stroke-width:1.5;" width="64" x="116" y="5"/><text fill="#000000" font-family="sans-serif" font-size="14" lengthAdjust="spacing" textLength="50" x="123" y="24.9951">:Caisse</text><rect fill="#FEFECE" height="30.2969" style="stroke:#A80036;stroke-width:1.5;" width="76" x="246" y="5"/><text fill="#000000" font-family="sans-serif" font-size="14" lengthAdjust="spacing" textLength="62" x="253" y="24.9951">:Magasin</text><rect fill="#FEFECE" height="30.2969" style="stroke:#A80036;stroke-width:1.5;" width="174" x="364" y="5"/><text fill="#000000" font-family="sans-serif" font-size="14" lengthAdjust="spacing" textLength="160" x="371" y="24.9951">:Map&lt;PlateauArgent&gt;</text><rect fill="#FEFECE" height="30.2969" style="stroke:#A80036;stroke-width:1.5;" width="128" x="548" y="5"/><text fill="#000000" font-family="sans-serif" font-size="14" lengthAdjust="spacing" textLength="114" x="555" y="24.9951">mp:MisePlateau</text><polygon fill="#A80036" points="136,89.1289,146,93.1289,136,97.1289" style="stroke:#A80036;stroke-width:1.0;"/><line style="stroke:#A80036;stroke-width:1.0;" x1="0" x2="142" y1="93.1289" y2="93.1289"/><text fill="#000000" font-family="sans-serif" font-size="13" lengthAdjust="spacing" textLength="84" x="7" y="72.9302">poserPlateau</text><text fill="#000000" font-family="sans-serif" font-size="13" lengthAdjust="spacing" textLength="124" x="7" y="88.063">(identifiant : String)</text><path d="M153,51.2969 L153,106.2969 L265,106.2969 L265,61.2969 L255,51.2969 L153,51.2969 " fill="#FBFB77" style="stroke:#A80036;stroke-width:1.0;"/><path d="M255,51.2969 L255,61.2969 L265,61.2969 L255,51.2969 " fill="#FBFB77" style="stroke:#A80036;stroke-width:1.0;"/><text fill="#000000" font-family="sans-serif" font-size="13" lengthAdjust="spacing" textLength="90" x="159" y="68.3638">Par contrôleur</text><text fill="#000000" font-family="sans-serif" font-size="13" lengthAdjust="spacing" textLength="91" x="159" y="83.4966">(Caisse est un</text><text fill="#000000" font-family="sans-serif" font-size="13" lengthAdjust="spacing" textLength="82" x="159" y="98.6294">équipement)</text><polygon fill="#A80036" points="272,177.2266,282,181.2266,272,185.2266" style="stroke:#A80036;stroke-width:1.0;"/><line style="stroke:#A80036;stroke-width:1.0;" x1="148" x2="278" y1="181.2266" y2="181.2266"/><text fill="#000000" font-family="sans-serif" font-size="13" lengthAdjust="spacing" textLength="22" x="155" y="145.895">p =</text><text fill="#000000" font-family="sans-serif" font-size="13" lengthAdjust="spacing" textLength="112" x="155" y="161.0278">getPlateauArgent</text><text fill="#000000" font-family="sans-serif" font-size="13" lengthAdjust="spacing" textLength="74" x="155" y="176.1606">(identifiant)</text><path d="M289,116.6953 L289,201.6953 L464,201.6953 L464,126.6953 L454,116.6953 L289,116.6953 " fill="#FBFB77" style="stroke:#A80036;stroke-width:1.0;"/><path d="M454,116.6953 L454,126.6953 L464,126.6953 L454,116.6953 " fill="#FBFB77" style="stroke:#A80036;stroke-width:1.0;"/><text fill="#000000" font-family="sans-serif" font-size="13" lengthAdjust="spacing" textLength="154" x="295" y="133.7622">Expert (Magasin connaît</text><text fill="#000000" font-family="sans-serif" font-size="13" lengthAdjust="spacing" textLength="150" x="295" y="148.895">tous les PlateauArgent)</text><text fill="#000000" font-family="sans-serif" font-size="13" lengthAdjust="spacing" textLength="141" x="295" y="164.0278">et par Transformation</text><text fill="#000000" font-family="sans-serif" font-size="13" lengthAdjust="spacing" textLength="98" x="295" y="179.1606">des identifiants</text><text fill="#000000" font-family="sans-serif" font-size="13" lengthAdjust="spacing" textLength="153" x="295" y="194.2935">en objets (p.F451/A460)</text><polygon fill="#A80036" points="439,239.625,449,243.625,439,247.625" style="stroke:#A80036;stroke-width:1.0;"/><line style="stroke:#A80036;stroke-width:1.0;" x1="284" x2="445" y1="243.625" y2="243.625"/><text fill="#000000" font-family="sans-serif" font-size="13" lengthAdjust="spacing" textLength="22" x="291" y="223.4263">p =</text><text fill="#000000" font-family="sans-serif" font-size="13" lengthAdjust="spacing" textLength="143" x="291" y="238.5591">rechercher(identifiant)</text><polygon fill="#A80036" points="600,268.7578,610,272.7578,600,276.7578" style="stroke:#A80036;stroke-width:1.0;"/><line style="stroke:#A80036;stroke-width:1.0;" x1="148" x2="606" y1="272.7578" y2="272.7578"/><text fill="#000000" font-family="sans-serif" font-size="13" lengthAdjust="spacing" textLength="129" x="155" y="267.6919">setPlateauArgent(p)</text><path d="M512,285.7578 L512,310.7578 L711,310.7578 L711,295.7578 L701,285.7578 L512,285.7578 " fill="#FBFB77" style="stroke:#A80036;stroke-width:1.0;"/><path d="M701,285.7578 L701,295.7578 L711,295.7578 L701,285.7578 " fill="#FBFB77" style="stroke:#A80036;stroke-width:1.0;"/><text fill="#000000" font-family="sans-serif" font-size="13" lengthAdjust="spacing" textLength="178" x="518" y="302.8247">Expert (mutateur d'attribut)</text><!--MD5=[7b49dc8f13a9ef91f72a6904c84c3168]
@startuml
skinparam style strictuml
participant ":Caisse" as C 
participant ":Magasin" as m
participant ":Map<PlateauArgent>" as mapP
participant "mp:MisePlateau" as mp
-> C : poserPlateau\n(identifiant : String)
note right : Par contrôleur\n(Caisse est un\néquipement)
C -> m : p =\ngetPlateauArgent\n(identifiant)
note right : Expert (Magasin connaît\ntous les PlateauArgent)\net par Transformation\ndes identifiants\nen objets (p.F451/A460)
m -> mapP : p =\nrechercher(identifiant)
C -> mp : setPlateauArgent(p)
note over mp: Expert (mutateur d'attribut)
@enduml

PlantUML version 1.2021.9beta2(Unknown compile time)
(GPL source distribution)
Java Runtime: Java(TM) SE Runtime Environment
JVM: Java HotSpot(TM) 64-Bit Server VM
Default Encoding: UTF-8
Language: en
Country: US
--></g></svg>