<?xml version="1.0" encoding="UTF-8" standalone="no"?><svg xmlns="http://www.w3.org/2000/svg" xmlns:xlink="http://www.w3.org/1999/xlink" contentScriptType="application/ecmascript" contentStyleType="text/css" height="163px" preserveAspectRatio="none" style="width:561px;height:163px;background:#FFFFFF;" version="1.1" viewBox="0 0 561 163" width="561px" zoomAndPan="magnify"><defs/><g><line style="stroke:#A80036;stroke-width:1.0;stroke-dasharray:5.0,5.0;" x1="155" x2="155" y1="36.2969" y2="156.8281"/><line style="stroke:#A80036;stroke-width:1.0;stroke-dasharray:5.0,5.0;" x1="350" x2="350" y1="36.2969" y2="156.8281"/><rect fill="#FEFECE" height="30.2969" style="stroke:#A80036;stroke-width:1.5;" width="64" x="123" y="5"/><text fill="#000000" font-family="sans-serif" font-size="14" lengthAdjust="spacing" textLength="50" x="130" y="24.9951">:Caisse</text><rect fill="#FEFECE" height="30.2969" style="stroke:#A80036;stroke-width:1.5;" width="128" x="286" y="5"/><text fill="#000000" font-family="sans-serif" font-size="14" lengthAdjust="spacing" textLength="114" x="293" y="24.9951">mp:MisePlateau</text><polygon fill="#A80036" points="143,89.1289,153,93.1289,143,97.1289" style="stroke:#A80036;stroke-width:1.0;"/><line style="stroke:#A80036;stroke-width:1.0;" x1="0" x2="149" y1="93.1289" y2="93.1289"/><text fill="#000000" font-family="sans-serif" font-size="13" lengthAdjust="spacing" textLength="85" x="7" y="72.9302">saisirMontant</text><text fill="#000000" font-family="sans-serif" font-size="13" lengthAdjust="spacing" textLength="131" x="7" y="88.063">(montant : Monnaie)</text><path d="M160,51.2969 L160,106.2969 L272,106.2969 L272,61.2969 L262,51.2969 L160,51.2969 " fill="#FBFB77" style="stroke:#A80036;stroke-width:1.0;"/><path d="M262,51.2969 L262,61.2969 L272,61.2969 L262,51.2969 " fill="#FBFB77" style="stroke:#A80036;stroke-width:1.0;"/><text fill="#000000" font-family="sans-serif" font-size="13" lengthAdjust="spacing" textLength="90" x="166" y="68.3638">Par contrôleur</text><text fill="#000000" font-family="sans-serif" font-size="13" lengthAdjust="spacing" textLength="91" x="166" y="83.4966">(Caisse est un</text><text fill="#000000" font-family="sans-serif" font-size="13" lengthAdjust="spacing" textLength="82" x="166" y="98.6294">équipement)</text><polygon fill="#A80036" points="338,131.8281,348,135.8281,338,139.8281" style="stroke:#A80036;stroke-width:1.0;"/><line style="stroke:#A80036;stroke-width:1.0;" x1="155" x2="344" y1="135.8281" y2="135.8281"/><text fill="#000000" font-family="sans-serif" font-size="13" lengthAdjust="spacing" textLength="171" x="162" y="130.7622">setMontant(montant:float)</text><path d="M355,116.6953 L355,141.6953 L554,141.6953 L554,126.6953 L544,116.6953 L355,116.6953 " fill="#FBFB77" style="stroke:#A80036;stroke-width:1.0;"/><path d="M544,116.6953 L544,126.6953 L554,126.6953 L544,116.6953 " fill="#FBFB77" style="stroke:#A80036;stroke-width:1.0;"/><text fill="#000000" font-family="sans-serif" font-size="13" lengthAdjust="spacing" textLength="178" x="361" y="133.7622">Expert (mutateur d'attribut)</text><!--MD5=[1e23a2162816fc681a0d2c4bd945dedd]
@startuml
skinparam style strictuml
participant ":Caisse" as C
participant "mp:MisePlateau" as mp
-> C : saisirMontant\n(montant : Monnaie)
note right : Par contrôleur\n(Caisse est un\néquipement)
C -> mp : setMontant(montant:float)
note right : Expert (mutateur d'attribut)
@enduml

PlantUML version 1.2021.9beta2(Unknown compile time)
(GPL source distribution)
Java Runtime: Java(TM) SE Runtime Environment
JVM: Java HotSpot(TM) 64-Bit Server VM
Default Encoding: UTF-8
Language: en
Country: US
--></g></svg>