<?xml version="1.0" encoding="UTF-8" standalone="no"?><svg xmlns="http://www.w3.org/2000/svg" xmlns:xlink="http://www.w3.org/1999/xlink" contentScriptType="application/ecmascript" contentStyleType="text/css" height="163px" preserveAspectRatio="none" style="width:471px;height:163px;background:#FFFFFF;" version="1.1" viewBox="0 0 471 163" width="471px" zoomAndPan="magnify"><defs/><g><line style="stroke:#A80036;stroke-width:1.0;stroke-dasharray:5.0,5.0;" x1="110" x2="110" y1="36.2969" y2="156.8281"/><line style="stroke:#A80036;stroke-width:1.0;stroke-dasharray:5.0,5.0;" x1="260" x2="260" y1="36.2969" y2="156.8281"/><rect fill="#FEFECE" height="30.2969" style="stroke:#A80036;stroke-width:1.5;" width="64" x="78" y="5"/><text fill="#000000" font-family="sans-serif" font-size="14" lengthAdjust="spacing" textLength="50" x="85" y="24.9951">:Caisse</text><rect fill="#FEFECE" height="30.2969" style="stroke:#A80036;stroke-width:1.5;" width="128" x="196" y="5"/><text fill="#000000" font-family="sans-serif" font-size="14" lengthAdjust="spacing" textLength="114" x="203" y="24.9951">mp:MisePlateau</text><polygon fill="#A80036" points="98,81.5625,108,85.5625,98,89.5625" style="stroke:#A80036;stroke-width:1.0;"/><line style="stroke:#A80036;stroke-width:1.0;" x1="0" x2="104" y1="85.5625" y2="85.5625"/><text fill="#000000" font-family="sans-serif" font-size="13" lengthAdjust="spacing" textLength="86" x="7" y="80.4966">fermerTiroir()</text><path d="M115,51.2969 L115,106.2969 L227,106.2969 L227,61.2969 L217,51.2969 L115,51.2969 " fill="#FBFB77" style="stroke:#A80036;stroke-width:1.0;"/><path d="M217,51.2969 L217,61.2969 L227,61.2969 L217,51.2969 " fill="#FBFB77" style="stroke:#A80036;stroke-width:1.0;"/><text fill="#000000" font-family="sans-serif" font-size="13" lengthAdjust="spacing" textLength="90" x="121" y="68.3638">Par contrôleur</text><text fill="#000000" font-family="sans-serif" font-size="13" lengthAdjust="spacing" textLength="91" x="121" y="83.4966">(Caisse est un</text><text fill="#000000" font-family="sans-serif" font-size="13" lengthAdjust="spacing" textLength="82" x="121" y="98.6294">équipement)</text><polygon fill="#A80036" points="248,131.8281,258,135.8281,248,139.8281" style="stroke:#A80036;stroke-width:1.0;"/><line style="stroke:#A80036;stroke-width:1.0;" x1="110" x2="254" y1="135.8281" y2="135.8281"/><text fill="#000000" font-family="sans-serif" font-size="13" lengthAdjust="spacing" textLength="126" x="117" y="130.7622">setDateHeure(now)</text><path d="M265,116.6953 L265,141.6953 L464,141.6953 L464,126.6953 L454,116.6953 L265,116.6953 " fill="#FBFB77" style="stroke:#A80036;stroke-width:1.0;"/><path d="M454,116.6953 L454,126.6953 L464,126.6953 L454,116.6953 " fill="#FBFB77" style="stroke:#A80036;stroke-width:1.0;"/><text fill="#000000" font-family="sans-serif" font-size="13" lengthAdjust="spacing" textLength="178" x="271" y="133.7622">Expert (mutateur d'attribut)</text><!--MD5=[4863ea56ce3d8dd1d6bf66833bc3e402]
@startuml
skinparam style strictuml
participant ":Caisse" as C
participant "mp:MisePlateau" as mp
-> C : fermerTiroir()
note right : Par contrôleur\n(Caisse est un\néquipement)
C -> mp : setDateHeure(now)
note right : Expert (mutateur d'attribut)
@enduml

PlantUML version 1.2021.9beta2(Unknown compile time)
(GPL source distribution)
Java Runtime: Java(TM) SE Runtime Environment
JVM: Java HotSpot(TM) 64-Bit Server VM
Default Encoding: UTF-8
Language: en
Country: US
--></g></svg>