<?xml version="1.0" encoding="UTF-8" standalone="no"?><svg xmlns="http://www.w3.org/2000/svg" xmlns:xlink="http://www.w3.org/1999/xlink" contentScriptType="application/ecmascript" contentStyleType="text/css" height="403px" preserveAspectRatio="none" style="width:596px;height:403px;" version="1.1" viewBox="0 0 596 403" width="596px" zoomAndPan="magnify"><defs/><g><rect fill="#FFFFFF" height="28" style="stroke:#A80036;stroke-width:1.0;" width="10" x="442" y="343.8906"/><line style="stroke:#A80036;stroke-width:1.0;stroke-dasharray:5.0,5.0;" x1="170" x2="170" y1="36.2969" y2="396.8906"/><line style="stroke:#A80036;stroke-width:1.0;stroke-dasharray:5.0,5.0;" x1="341" x2="341" y1="215.6602" y2="396.8906"/><line style="stroke:#A80036;stroke-width:1.0;stroke-dasharray:5.0,5.0;" x1="446.5" x2="446.5" y1="36.2969" y2="396.8906"/><rect fill="#FEFECE" height="30.2969" style="stroke:#A80036;stroke-width:1.5;" width="182" x="79" y="5"/><text fill="#000000" font-family="sans-serif" font-size="14" lengthAdjust="spacing" textLength="168" x="86" y="24.9951">:ControleurReservation</text><rect fill="#FEFECE" height="30.2969" style="stroke:#A80036;stroke-width:1.5;" width="111" x="391.5" y="5"/><text fill="#000000" font-family="sans-serif" font-size="14" lengthAdjust="spacing" textLength="97" x="398.5" y="24.9951">r:Reservation</text><rect fill="#FFFFFF" height="28" style="stroke:#A80036;stroke-width:1.0;" width="10" x="442" y="343.8906"/><path d="M5,51.2969 L5,76.2969 L165,76.2969 L165,61.2969 L155,51.2969 L5,51.2969 " fill="#FBFB77" style="stroke:#A80036;stroke-width:1.0;"/><path d="M155,51.2969 L155,61.2969 L165,61.2969 L155,51.2969 " fill="#FBFB77" style="stroke:#A80036;stroke-width:1.0;"/><text fill="#000000" font-family="sans-serif" font-size="13" lengthAdjust="spacing" textLength="139" x="11" y="68.3638">Controleur de session</text><polygon fill="#A80036" points="158,128.8281,168,132.8281,158,136.8281" style="stroke:#A80036;stroke-width:1.0;"/><line style="stroke:#A80036;stroke-width:1.0;" x1="0" x2="164" y1="132.8281" y2="132.8281"/><text fill="#000000" font-family="sans-serif" font-size="13" lengthAdjust="spacing" textLength="144" x="7" y="97.4966">confirmerReservation(</text><text fill="#000000" font-family="sans-serif" font-size="13" lengthAdjust="spacing" textLength="74" x="7" y="112.6294">nom:string,</text><text fill="#000000" font-family="sans-serif" font-size="13" lengthAdjust="spacing" textLength="110" x="7" y="127.7622">telephone:string)</text><path d="M175,145.8281 L175,170.8281 L252,170.8281 L252,155.8281 L242,145.8281 L175,145.8281 " fill="#FBFB77" style="stroke:#A80036;stroke-width:1.0;"/><path d="M242,145.8281 L242,155.8281 L252,155.8281 L242,145.8281 " fill="#FBFB77" style="stroke:#A80036;stroke-width:1.0;"/><text fill="#000000" font-family="sans-serif" font-size="13" lengthAdjust="spacing" textLength="56" x="181" y="162.895">Createur</text><polygon fill="#A80036" points="292,223.3594,302,227.3594,292,231.3594" style="stroke:#A80036;stroke-width:1.0;"/><line style="stroke:#A80036;stroke-width:1.0;" x1="170" x2="298" y1="227.3594" y2="227.3594"/><text fill="#000000" font-family="sans-serif" font-size="13" lengthAdjust="spacing" textLength="76" x="177" y="192.0278">cl = Create(</text><text fill="#000000" font-family="sans-serif" font-size="13" lengthAdjust="spacing" textLength="74" x="177" y="207.1606">nom:string,</text><text fill="#000000" font-family="sans-serif" font-size="13" lengthAdjust="spacing" textLength="110" x="177" y="222.2935">telephone:string)</text><rect fill="#FEFECE" height="30.2969" style="stroke:#A80036;stroke-width:1.5;" width="74" x="304" y="194.0625"/><text fill="#000000" font-family="sans-serif" font-size="14" lengthAdjust="spacing" textLength="60" x="311" y="214.0576">cl:Client</text><path d="M175,240.3594 L175,265.3594 L396,265.3594 L396,250.3594 L386,240.3594 L175,240.3594 " fill="#FBFB77" style="stroke:#A80036;stroke-width:1.0;"/><path d="M386,240.3594 L386,250.3594 L396,250.3594 L386,240.3594 " fill="#FBFB77" style="stroke:#A80036;stroke-width:1.0;"/><text fill="#000000" font-family="sans-serif" font-size="13" lengthAdjust="spacing" textLength="200" x="181" y="257.4263">Createur, cohésion et couplage</text><polygon fill="#A80036" points="435,302.7578,445,306.7578,435,310.7578" style="stroke:#A80036;stroke-width:1.0;"/><line style="stroke:#A80036;stroke-width:1.0;" x1="170" x2="441" y1="306.7578" y2="306.7578"/><text fill="#000000" font-family="sans-serif" font-size="13" lengthAdjust="spacing" textLength="253" x="177" y="286.5591">noConfirmation=confirmerReservation(</text><text fill="#000000" font-family="sans-serif" font-size="13" lengthAdjust="spacing" textLength="59" x="177" y="301.6919">cl:client))</text><line style="stroke:#A80036;stroke-width:1.0;" x1="452" x2="494" y1="335.8906" y2="335.8906"/><line style="stroke:#A80036;stroke-width:1.0;" x1="494" x2="494" y1="335.8906" y2="348.8906"/><line style="stroke:#A80036;stroke-width:1.0;" x1="453" x2="494" y1="348.8906" y2="348.8906"/><polygon fill="#A80036" points="463,344.8906,453,348.8906,463,352.8906" style="stroke:#A80036;stroke-width:1.0;"/><text fill="#000000" font-family="sans-serif" font-size="13" lengthAdjust="spacing" textLength="130" x="459" y="330.8247">setNoConfirmation()</text><!--MD5=[a213bcffe31d24220282ff8b9a2ff72e]
@startuml
skinparam style strictuml
Participant ":ControleurReservation" as S
Participant "cl:Client" as CL
Participant "r:Reservation" as R

note left of S:Controleur de session
 -> S: confirmerReservation(\nnom:string, \ntelephone:string)
 note right of S: Createur
 S -> CL**: cl = Create(\nnom:string, \ntelephone:string)
note right of S: Createur, cohésion et couplage
S -> R: noConfirmation=confirmerReservation(\ncl:client))
R -> R: setNoConfirmation()
activate R
deactivate R
@enduml

PlantUML version 1.2021.2beta5(Unknown compile time)
(GPL source distribution)
Java Runtime: Java(TM) SE Runtime Environment
JVM: Java HotSpot(TM) 64-Bit Server VM
Default Encoding: UTF-8
Language: en
Country: US
--></g></svg>