<?xml version="1.0" encoding="UTF-8" standalone="no"?><svg xmlns="http://www.w3.org/2000/svg" xmlns:xlink="http://www.w3.org/1999/xlink" contentScriptType="application/ecmascript" contentStyleType="text/css" height="799px" preserveAspectRatio="none" style="width:848px;height:799px;" version="1.1" viewBox="0 0 848 799" width="848px" zoomAndPan="magnify"><defs><filter height="300%" id="f1jeddkh7uc6d8" width="300%" x="-1" y="-1"><feGaussianBlur result="blurOut" stdDeviation="2.0"/><feColorMatrix in="blurOut" result="blurOut2" type="matrix" values="0 0 0 0 0 0 0 0 0 0 0 0 0 0 0 0 0 0 .4 0"/><feOffset dx="4.0" dy="4.0" in="blurOut2" result="blurOut3"/><feBlend in="SourceGraphic" in2="blurOut3" mode="normal"/></filter></defs><g><!--MD5=[3110dbef8258a6b966b2e55d3546d21d]
class Hotel--><rect codeLine="1" fill="#FEFECE" filter="url(#f1jeddkh7uc6d8)" height="48" id="Hotel" style="stroke:#A80036;stroke-width:1.5;" width="237" x="292" y="10"/><ellipse cx="307" cy="26" fill="#ADD1B2" rx="11" ry="11" style="stroke:#A80036;stroke-width:1.0;"/><path d="M309.3438,21.6719 C308.4063,21.2344 307.8125,21.0938 306.9375,21.0938 C304.3125,21.0938 302.3125,23.1719 302.3125,25.8906 L302.3125,27.0156 C302.3125,29.5938 304.4219,31.4844 307.3125,31.4844 C308.5313,31.4844 309.6875,31.1875 310.4375,30.6406 C311.0156,30.2344 311.3438,29.7813 311.3438,29.3906 C311.3438,28.9375 310.9531,28.5469 310.4844,28.5469 C310.2656,28.5469 310.0625,28.625 309.875,28.8125 C309.4219,29.2969 309.4219,29.2969 309.2344,29.3906 C308.8125,29.6563 308.125,29.7813 307.3594,29.7813 C305.3125,29.7813 304.0156,28.6875 304.0156,26.9844 L304.0156,25.8906 C304.0156,24.1094 305.2656,22.7969 307,22.7969 C307.5781,22.7969 308.1875,22.9531 308.6563,23.2031 C309.1406,23.4844 309.3125,23.7031 309.4063,24.1094 C309.4688,24.5156 309.5,24.6406 309.6406,24.7656 C309.7813,24.9063 310.0156,25.0156 310.2344,25.0156 C310.5,25.0156 310.7656,24.875 310.9375,24.6563 C311.0469,24.5 311.0781,24.3125 311.0781,23.8906 L311.0781,22.4688 C311.0781,22.0313 311.0625,21.9063 310.9688,21.75 C310.8125,21.4844 310.5313,21.3438 310.2344,21.3438 C309.9375,21.3438 309.7344,21.4375 309.5156,21.75 L309.3438,21.6719 Z " fill="#000000"/><text fill="#000000" font-family="sans-serif" font-size="12" lengthAdjust="spacing" textLength="32" x="321" y="30.1543">Hotel</text><rect fill="#FFFFFF" height="15.9688" style="stroke:#000000;stroke-width:1.0;stroke-dasharray:2.0,2.0;" width="171" x="361" y="7"/><text fill="#000000" font-family="sans-serif" font-size="12" font-style="italic" lengthAdjust="spacing" textLength="169" x="362" y="19.1387">Conteneur, Object physique</text><line style="stroke:#A80036;stroke-width:1.5;" x1="293" x2="528" y1="42" y2="42"/><line style="stroke:#A80036;stroke-width:1.5;" x1="293" x2="528" y1="50" y2="50"/><!--MD5=[f9ef9660f44628e549271a3193d2c3b4]
class Categorie--><rect codeLine="2" fill="#FEFECE" filter="url(#f1jeddkh7uc6d8)" height="60.8047" id="Categorie" style="stroke:#A80036;stroke-width:1.5;" width="281" x="7" y="725"/><ellipse cx="22" cy="741" fill="#ADD1B2" rx="11" ry="11" style="stroke:#A80036;stroke-width:1.0;"/><path d="M24.3438,736.6719 C23.4063,736.2344 22.8125,736.0938 21.9375,736.0938 C19.3125,736.0938 17.3125,738.1719 17.3125,740.8906 L17.3125,742.0156 C17.3125,744.5938 19.4219,746.4844 22.3125,746.4844 C23.5313,746.4844 24.6875,746.1875 25.4375,745.6406 C26.0156,745.2344 26.3438,744.7813 26.3438,744.3906 C26.3438,743.9375 25.9531,743.5469 25.4844,743.5469 C25.2656,743.5469 25.0625,743.625 24.875,743.8125 C24.4219,744.2969 24.4219,744.2969 24.2344,744.3906 C23.8125,744.6563 23.125,744.7813 22.3594,744.7813 C20.3125,744.7813 19.0156,743.6875 19.0156,741.9844 L19.0156,740.8906 C19.0156,739.1094 20.2656,737.7969 22,737.7969 C22.5781,737.7969 23.1875,737.9531 23.6563,738.2031 C24.1406,738.4844 24.3125,738.7031 24.4063,739.1094 C24.4688,739.5156 24.5,739.6406 24.6406,739.7656 C24.7813,739.9063 25.0156,740.0156 25.2344,740.0156 C25.5,740.0156 25.7656,739.875 25.9375,739.6563 C26.0469,739.5 26.0781,739.3125 26.0781,738.8906 L26.0781,737.4688 C26.0781,737.0313 26.0625,736.9063 25.9688,736.75 C25.8125,736.4844 25.5313,736.3438 25.2344,736.3438 C24.9375,736.3438 24.7344,736.4375 24.5156,736.75 L24.3438,736.6719 Z " fill="#000000"/><text fill="#000000" font-family="sans-serif" font-size="12" lengthAdjust="spacing" textLength="59" x="36" y="745.1543">Categorie</text><rect fill="#FFFFFF" height="15.9688" style="stroke:#000000;stroke-width:1.0;stroke-dasharray:2.0,2.0;" width="188" x="103" y="722"/><text fill="#000000" font-family="sans-serif" font-size="12" font-style="italic" lengthAdjust="spacing" textLength="186" x="104" y="734.1387">Description d'entité, Catalogue</text><line style="stroke:#A80036;stroke-width:1.5;" x1="8" x2="287" y1="757" y2="757"/><text fill="#000000" font-family="sans-serif" font-size="11" lengthAdjust="spacing" textLength="65" x="13" y="771.2104">nom: String</text><line style="stroke:#A80036;stroke-width:1.5;" x1="8" x2="287" y1="777.8047" y2="777.8047"/><!--MD5=[9c46470aa33a0c75e6d1dfdefc2f9c22]
class Reservation--><rect codeLine="5" fill="#FEFECE" filter="url(#f1jeddkh7uc6d8)" height="60.8047" id="Reservation" style="stroke:#A80036;stroke-width:1.5;" width="177" x="657" y="286"/><ellipse cx="672" cy="302" fill="#ADD1B2" rx="11" ry="11" style="stroke:#A80036;stroke-width:1.0;"/><path d="M674.3438,297.6719 C673.4063,297.2344 672.8125,297.0938 671.9375,297.0938 C669.3125,297.0938 667.3125,299.1719 667.3125,301.8906 L667.3125,303.0156 C667.3125,305.5938 669.4219,307.4844 672.3125,307.4844 C673.5313,307.4844 674.6875,307.1875 675.4375,306.6406 C676.0156,306.2344 676.3438,305.7813 676.3438,305.3906 C676.3438,304.9375 675.9531,304.5469 675.4844,304.5469 C675.2656,304.5469 675.0625,304.625 674.875,304.8125 C674.4219,305.2969 674.4219,305.2969 674.2344,305.3906 C673.8125,305.6563 673.125,305.7813 672.3594,305.7813 C670.3125,305.7813 669.0156,304.6875 669.0156,302.9844 L669.0156,301.8906 C669.0156,300.1094 670.2656,298.7969 672,298.7969 C672.5781,298.7969 673.1875,298.9531 673.6563,299.2031 C674.1406,299.4844 674.3125,299.7031 674.4063,300.1094 C674.4688,300.5156 674.5,300.6406 674.6406,300.7656 C674.7813,300.9063 675.0156,301.0156 675.2344,301.0156 C675.5,301.0156 675.7656,300.875 675.9375,300.6563 C676.0469,300.5 676.0781,300.3125 676.0781,299.8906 L676.0781,298.4688 C676.0781,298.0313 676.0625,297.9063 675.9688,297.75 C675.8125,297.4844 675.5313,297.3438 675.2344,297.3438 C674.9375,297.3438 674.7344,297.4375 674.5156,297.75 L674.3438,297.6719 Z " fill="#000000"/><text fill="#000000" font-family="sans-serif" font-size="12" lengthAdjust="spacing" textLength="71" x="686" y="306.1543">Reservation</text><rect fill="#FFFFFF" height="15.9688" style="stroke:#000000;stroke-width:1.0;stroke-dasharray:2.0,2.0;" width="72" x="765" y="283"/><text fill="#000000" font-family="sans-serif" font-size="12" font-style="italic" lengthAdjust="spacing" textLength="70" x="766" y="295.1387">Transaction</text><line style="stroke:#A80036;stroke-width:1.5;" x1="658" x2="833" y1="318" y2="318"/><text fill="#000000" font-family="sans-serif" font-size="11" lengthAdjust="spacing" textLength="126" x="663" y="332.2104">noConfirmation: String</text><line style="stroke:#A80036;stroke-width:1.5;" x1="658" x2="833" y1="338.8047" y2="338.8047"/><!--MD5=[b9205f29e8b31169249c1c67a324dd73]
class Sejour--><rect codeLine="10" fill="#FEFECE" filter="url(#f1jeddkh7uc6d8)" height="86.4141" id="Sejour" style="stroke:#A80036;stroke-width:1.5;" width="199" x="397" y="424"/><ellipse cx="412" cy="440" fill="#ADD1B2" rx="11" ry="11" style="stroke:#A80036;stroke-width:1.0;"/><path d="M414.3438,435.6719 C413.4063,435.2344 412.8125,435.0938 411.9375,435.0938 C409.3125,435.0938 407.3125,437.1719 407.3125,439.8906 L407.3125,441.0156 C407.3125,443.5938 409.4219,445.4844 412.3125,445.4844 C413.5313,445.4844 414.6875,445.1875 415.4375,444.6406 C416.0156,444.2344 416.3438,443.7813 416.3438,443.3906 C416.3438,442.9375 415.9531,442.5469 415.4844,442.5469 C415.2656,442.5469 415.0625,442.625 414.875,442.8125 C414.4219,443.2969 414.4219,443.2969 414.2344,443.3906 C413.8125,443.6563 413.125,443.7813 412.3594,443.7813 C410.3125,443.7813 409.0156,442.6875 409.0156,440.9844 L409.0156,439.8906 C409.0156,438.1094 410.2656,436.7969 412,436.7969 C412.5781,436.7969 413.1875,436.9531 413.6563,437.2031 C414.1406,437.4844 414.3125,437.7031 414.4063,438.1094 C414.4688,438.5156 414.5,438.6406 414.6406,438.7656 C414.7813,438.9063 415.0156,439.0156 415.2344,439.0156 C415.5,439.0156 415.7656,438.875 415.9375,438.6563 C416.0469,438.5 416.0781,438.3125 416.0781,437.8906 L416.0781,436.4688 C416.0781,436.0313 416.0625,435.9063 415.9688,435.75 C415.8125,435.4844 415.5313,435.3438 415.2344,435.3438 C414.9375,435.3438 414.7344,435.4375 414.5156,435.75 L414.3438,435.6719 Z " fill="#000000"/><text fill="#000000" font-family="sans-serif" font-size="12" lengthAdjust="spacing" textLength="39" x="426" y="444.1543">Sejour</text><rect fill="#FFFFFF" height="15.9688" style="stroke:#000000;stroke-width:1.0;stroke-dasharray:2.0,2.0;" width="126" x="473" y="421"/><text fill="#000000" font-family="sans-serif" font-size="12" font-style="italic" lengthAdjust="spacing" textLength="124" x="474" y="433.1387">Ligne de transaction</text><line style="stroke:#A80036;stroke-width:1.5;" x1="398" x2="595" y1="456" y2="456"/><text fill="#000000" font-family="sans-serif" font-size="11" lengthAdjust="spacing" text-decoration="line-through" textLength="86" x="403" y="470.2104">quantity: String</text><text fill="#000000" font-family="sans-serif" font-size="11" lengthAdjust="spacing" textLength="95" x="403" y="483.0151">dateArrive: Date</text><text fill="#000000" font-family="sans-serif" font-size="11" lengthAdjust="spacing" textLength="100" x="403" y="495.8198">dateDepart: Date</text><line style="stroke:#A80036;stroke-width:1.5;" x1="398" x2="595" y1="502.4141" y2="502.4141"/><path d="M371.5,289 L371.5,344.3984 A0,0 0 0 0 371.5,344.3984 L492.5,344.3984 L496.5,423.964 L500.5,344.3984 L621.5,344.3984 A0,0 0 0 0 621.5,344.3984 L621.5,299 L611.5,289 L371.5,289 A0,0 0 0 0 371.5,289 " fill="#FBFB77" filter="url(#f1jeddkh7uc6d8)" style="stroke:#A80036;stroke-width:1.0;"/><path d="M611.5,289 L611.5,299 L621.5,299 L611.5,289 " fill="#FBFB77" style="stroke:#A80036;stroke-width:1.0;"/><text fill="#000000" font-family="sans-serif" font-size="13" lengthAdjust="spacing" textLength="163" x="377.5" y="306.0669">La quantité et représenté</text><text fill="#000000" font-family="sans-serif" font-size="13" lengthAdjust="spacing" textLength="211" x="377.5" y="321.1997">par la multiplicité de l'association</text><text fill="#000000" font-family="sans-serif" font-size="13" lengthAdjust="spacing" textLength="229" x="377.5" y="336.3325">entre LigneReservation et Chambre</text><!--MD5=[aeb2a05b656f26b4e931c999627a7b50]
class Commis--><rect codeLine="15" fill="#FEFECE" filter="url(#f1jeddkh7uc6d8)" height="48" id="Commis" style="stroke:#A80036;stroke-width:1.5;" width="109" x="691" y="148"/><ellipse cx="706" cy="164" fill="#ADD1B2" rx="11" ry="11" style="stroke:#A80036;stroke-width:1.0;"/><path d="M708.3438,159.6719 C707.4063,159.2344 706.8125,159.0938 705.9375,159.0938 C703.3125,159.0938 701.3125,161.1719 701.3125,163.8906 L701.3125,165.0156 C701.3125,167.5938 703.4219,169.4844 706.3125,169.4844 C707.5313,169.4844 708.6875,169.1875 709.4375,168.6406 C710.0156,168.2344 710.3438,167.7813 710.3438,167.3906 C710.3438,166.9375 709.9531,166.5469 709.4844,166.5469 C709.2656,166.5469 709.0625,166.625 708.875,166.8125 C708.4219,167.2969 708.4219,167.2969 708.2344,167.3906 C707.8125,167.6563 707.125,167.7813 706.3594,167.7813 C704.3125,167.7813 703.0156,166.6875 703.0156,164.9844 L703.0156,163.8906 C703.0156,162.1094 704.2656,160.7969 706,160.7969 C706.5781,160.7969 707.1875,160.9531 707.6563,161.2031 C708.1406,161.4844 708.3125,161.7031 708.4063,162.1094 C708.4688,162.5156 708.5,162.6406 708.6406,162.7656 C708.7813,162.9063 709.0156,163.0156 709.2344,163.0156 C709.5,163.0156 709.7656,162.875 709.9375,162.6563 C710.0469,162.5 710.0781,162.3125 710.0781,161.8906 L710.0781,160.4688 C710.0781,160.0313 710.0625,159.9063 709.9688,159.75 C709.8125,159.4844 709.5313,159.3438 709.2344,159.3438 C708.9375,159.3438 708.7344,159.4375 708.5156,159.75 L708.3438,159.6719 Z " fill="#000000"/><text fill="#000000" font-family="sans-serif" font-size="12" lengthAdjust="spacing" textLength="48" x="720" y="168.1543">Commis</text><rect fill="#FFFFFF" height="15.9688" style="stroke:#000000;stroke-width:1.0;stroke-dasharray:2.0,2.0;" width="27" x="776" y="145"/><text fill="#000000" font-family="sans-serif" font-size="12" font-style="italic" lengthAdjust="spacing" textLength="25" x="777" y="157.1387">Role</text><line style="stroke:#A80036;stroke-width:1.5;" x1="692" x2="799" y1="180" y2="180"/><line style="stroke:#A80036;stroke-width:1.5;" x1="692" x2="799" y1="188" y2="188"/><!--MD5=[5caef05668a3671b919925ac15293d4d]
class Chambre--><rect codeLine="16" fill="#FEFECE" filter="url(#f1jeddkh7uc6d8)" height="60.8047" id="Chambre" style="stroke:#A80036;stroke-width:1.5;" width="474" x="111.5" y="587"/><ellipse cx="126.5" cy="603" fill="#ADD1B2" rx="11" ry="11" style="stroke:#A80036;stroke-width:1.0;"/><path d="M128.8438,598.6719 C127.9063,598.2344 127.3125,598.0938 126.4375,598.0938 C123.8125,598.0938 121.8125,600.1719 121.8125,602.8906 L121.8125,604.0156 C121.8125,606.5938 123.9219,608.4844 126.8125,608.4844 C128.0313,608.4844 129.1875,608.1875 129.9375,607.6406 C130.5156,607.2344 130.8438,606.7813 130.8438,606.3906 C130.8438,605.9375 130.4531,605.5469 129.9844,605.5469 C129.7656,605.5469 129.5625,605.625 129.375,605.8125 C128.9219,606.2969 128.9219,606.2969 128.7344,606.3906 C128.3125,606.6563 127.625,606.7813 126.8594,606.7813 C124.8125,606.7813 123.5156,605.6875 123.5156,603.9844 L123.5156,602.8906 C123.5156,601.1094 124.7656,599.7969 126.5,599.7969 C127.0781,599.7969 127.6875,599.9531 128.1563,600.2031 C128.6406,600.4844 128.8125,600.7031 128.9063,601.1094 C128.9688,601.5156 129,601.6406 129.1406,601.7656 C129.2813,601.9063 129.5156,602.0156 129.7344,602.0156 C130,602.0156 130.2656,601.875 130.4375,601.6563 C130.5469,601.5 130.5781,601.3125 130.5781,600.8906 L130.5781,599.4688 C130.5781,599.0313 130.5625,598.9063 130.4688,598.75 C130.3125,598.4844 130.0313,598.3438 129.7344,598.3438 C129.4375,598.3438 129.2344,598.4375 129.0156,598.75 L128.8438,598.6719 Z " fill="#000000"/><text fill="#000000" font-family="sans-serif" font-size="12" lengthAdjust="spacing" textLength="54" x="140.5" y="607.1543">Chambre</text><rect fill="#FFFFFF" height="15.9688" style="stroke:#000000;stroke-width:1.0;stroke-dasharray:2.0,2.0;" width="386" x="202.5" y="584"/><text fill="#000000" font-family="sans-serif" font-size="12" font-style="italic" lengthAdjust="spacing" textLength="384" x="203.5" y="596.1387">Objet physique, Contenu dans l'hotel, Produit d'une transaction</text><line style="stroke:#A80036;stroke-width:1.5;" x1="112.5" x2="584.5" y1="619" y2="619"/><text fill="#000000" font-family="sans-serif" font-size="11" lengthAdjust="spacing" textLength="82" x="117.5" y="633.2104">numero: string</text><line style="stroke:#A80036;stroke-width:1.5;" x1="112.5" x2="584.5" y1="639.8047" y2="639.8047"/><!--MD5=[ed6624c6556d5e7b1bd23032162d20b7]
class Client--><rect codeLine="19" fill="#FEFECE" filter="url(#f1jeddkh7uc6d8)" height="73.6094" id="Client" style="stroke:#A80036;stroke-width:1.5;" width="109" x="547" y="135"/><ellipse cx="568.75" cy="151" fill="#ADD1B2" rx="11" ry="11" style="stroke:#A80036;stroke-width:1.0;"/><path d="M571.0938,146.6719 C570.1563,146.2344 569.5625,146.0938 568.6875,146.0938 C566.0625,146.0938 564.0625,148.1719 564.0625,150.8906 L564.0625,152.0156 C564.0625,154.5938 566.1719,156.4844 569.0625,156.4844 C570.2813,156.4844 571.4375,156.1875 572.1875,155.6406 C572.7656,155.2344 573.0938,154.7813 573.0938,154.3906 C573.0938,153.9375 572.7031,153.5469 572.2344,153.5469 C572.0156,153.5469 571.8125,153.625 571.625,153.8125 C571.1719,154.2969 571.1719,154.2969 570.9844,154.3906 C570.5625,154.6563 569.875,154.7813 569.1094,154.7813 C567.0625,154.7813 565.7656,153.6875 565.7656,151.9844 L565.7656,150.8906 C565.7656,149.1094 567.0156,147.7969 568.75,147.7969 C569.3281,147.7969 569.9375,147.9531 570.4063,148.2031 C570.8906,148.4844 571.0625,148.7031 571.1563,149.1094 C571.2188,149.5156 571.25,149.6406 571.3906,149.7656 C571.5313,149.9063 571.7656,150.0156 571.9844,150.0156 C572.25,150.0156 572.5156,149.875 572.6875,149.6563 C572.7969,149.5 572.8281,149.3125 572.8281,148.8906 L572.8281,147.4688 C572.8281,147.0313 572.8125,146.9063 572.7188,146.75 C572.5625,146.4844 572.2813,146.3438 571.9844,146.3438 C571.6875,146.3438 571.4844,146.4375 571.2656,146.75 L571.0938,146.6719 Z " fill="#000000"/><text fill="#000000" font-family="sans-serif" font-size="12" lengthAdjust="spacing" textLength="33" x="584.25" y="155.1543">Client</text><rect fill="#FFFFFF" height="15.9688" style="stroke:#000000;stroke-width:1.0;stroke-dasharray:2.0,2.0;" width="27" x="632" y="132"/><text fill="#000000" font-family="sans-serif" font-size="12" font-style="italic" lengthAdjust="spacing" textLength="25" x="633" y="144.1387">Role</text><line style="stroke:#A80036;stroke-width:1.5;" x1="548" x2="655" y1="167" y2="167"/><text fill="#000000" font-family="sans-serif" font-size="11" lengthAdjust="spacing" textLength="63" x="553" y="181.2104">nom: string</text><text fill="#000000" font-family="sans-serif" font-size="11" lengthAdjust="spacing" textLength="97" x="553" y="194.0151">telephone: string</text><line style="stroke:#A80036;stroke-width:1.5;" x1="548" x2="655" y1="200.6094" y2="200.6094"/><!--MD5=[61a3568937d0666113e217113747904c]
class Clé--><rect fill="#FEFECE" filter="url(#f1jeddkh7uc6d8)" height="48" id="Clé" style="stroke:#A80036;stroke-width:1.5;" width="51" x="323" y="731.5"/><ellipse cx="338" cy="747.5" fill="#ADD1B2" rx="11" ry="11" style="stroke:#A80036;stroke-width:1.0;"/><path d="M340.3438,743.1719 C339.4063,742.7344 338.8125,742.5938 337.9375,742.5938 C335.3125,742.5938 333.3125,744.6719 333.3125,747.3906 L333.3125,748.5156 C333.3125,751.0938 335.4219,752.9844 338.3125,752.9844 C339.5313,752.9844 340.6875,752.6875 341.4375,752.1406 C342.0156,751.7344 342.3438,751.2813 342.3438,750.8906 C342.3438,750.4375 341.9531,750.0469 341.4844,750.0469 C341.2656,750.0469 341.0625,750.125 340.875,750.3125 C340.4219,750.7969 340.4219,750.7969 340.2344,750.8906 C339.8125,751.1563 339.125,751.2813 338.3594,751.2813 C336.3125,751.2813 335.0156,750.1875 335.0156,748.4844 L335.0156,747.3906 C335.0156,745.6094 336.2656,744.2969 338,744.2969 C338.5781,744.2969 339.1875,744.4531 339.6563,744.7031 C340.1406,744.9844 340.3125,745.2031 340.4063,745.6094 C340.4688,746.0156 340.5,746.1406 340.6406,746.2656 C340.7813,746.4063 341.0156,746.5156 341.2344,746.5156 C341.5,746.5156 341.7656,746.375 341.9375,746.1563 C342.0469,746 342.0781,745.8125 342.0781,745.3906 L342.0781,743.9688 C342.0781,743.5313 342.0625,743.4063 341.9688,743.25 C341.8125,742.9844 341.5313,742.8438 341.2344,742.8438 C340.9375,742.8438 340.7344,742.9375 340.5156,743.25 L340.3438,743.1719 Z " fill="#000000"/><text fill="#000000" font-family="sans-serif" font-size="12" lengthAdjust="spacing" textLength="19" x="352" y="751.6543">Clé</text><line style="stroke:#A80036;stroke-width:1.5;" x1="324" x2="373" y1="763.5" y2="763.5"/><line style="stroke:#A80036;stroke-width:1.5;" x1="324" x2="373" y1="771.5" y2="771.5"/><!--MD5=[a06ddbdd765dfad961d354a8c75af0ca]
class Emplacement--><rect fill="#FEFECE" filter="url(#f1jeddkh7uc6d8)" height="48" id="Emplacement" style="stroke:#A80036;stroke-width:1.5;" width="113" x="437" y="731.5"/><ellipse cx="452" cy="747.5" fill="#ADD1B2" rx="11" ry="11" style="stroke:#A80036;stroke-width:1.0;"/><path d="M454.3438,743.1719 C453.4063,742.7344 452.8125,742.5938 451.9375,742.5938 C449.3125,742.5938 447.3125,744.6719 447.3125,747.3906 L447.3125,748.5156 C447.3125,751.0938 449.4219,752.9844 452.3125,752.9844 C453.5313,752.9844 454.6875,752.6875 455.4375,752.1406 C456.0156,751.7344 456.3438,751.2813 456.3438,750.8906 C456.3438,750.4375 455.9531,750.0469 455.4844,750.0469 C455.2656,750.0469 455.0625,750.125 454.875,750.3125 C454.4219,750.7969 454.4219,750.7969 454.2344,750.8906 C453.8125,751.1563 453.125,751.2813 452.3594,751.2813 C450.3125,751.2813 449.0156,750.1875 449.0156,748.4844 L449.0156,747.3906 C449.0156,745.6094 450.2656,744.2969 452,744.2969 C452.5781,744.2969 453.1875,744.4531 453.6563,744.7031 C454.1406,744.9844 454.3125,745.2031 454.4063,745.6094 C454.4688,746.0156 454.5,746.1406 454.6406,746.2656 C454.7813,746.4063 455.0156,746.5156 455.2344,746.5156 C455.5,746.5156 455.7656,746.375 455.9375,746.1563 C456.0469,746 456.0781,745.8125 456.0781,745.3906 L456.0781,743.9688 C456.0781,743.5313 456.0625,743.4063 455.9688,743.25 C455.8125,742.9844 455.5313,742.8438 455.2344,742.8438 C454.9375,742.8438 454.7344,742.9375 454.5156,743.25 L454.3438,743.1719 Z " fill="#000000"/><text fill="#000000" font-family="sans-serif" font-size="12" lengthAdjust="spacing" textLength="81" x="466" y="751.6543">Emplacement</text><line style="stroke:#A80036;stroke-width:1.5;" x1="438" x2="549" y1="763.5" y2="763.5"/><line style="stroke:#A80036;stroke-width:1.5;" x1="438" x2="549" y1="771.5" y2="771.5"/><!--MD5=[1edd1fb20e6de45033615d70839da8ad]
link Chambre to Clé--><path codeLine="23" d="M346.711,648.148 C346.214,657.677 345.745,668.281 345.5,678 C345.048,695.9378 345.907,716.2308 346.82,731.4067 " fill="none" id="Chambre-Clé" style="stroke:#A80036;stroke-width:1.0;"/><text fill="#000000" font-family="sans-serif" font-size="13" lengthAdjust="spacing" textLength="103" x="346.5" y="691.0669">est-ouverte*par</text><text fill="#000000" font-family="sans-serif" font-size="13" lengthAdjust="spacing" textLength="8" x="337.5713" y="667.7576">1</text><text fill="#000000" font-family="sans-serif" font-size="13" lengthAdjust="spacing" textLength="7" x="338.4926" y="720.3948">*</text><!--MD5=[549e10a7ce266996947327adb51dfafd]
link Chambre to Emplacement--><path codeLine="24" d="M415.263,648.065 C429.349,656.361 443.315,666.358 454.5,678 C469.063,693.1577 479.415,714.8253 485.777,731.2335 " fill="none" id="Chambre-Emplacement" style="stroke:#A80036;stroke-width:1.0;"/><text fill="#000000" font-family="sans-serif" font-size="13" lengthAdjust="spacing" textLength="77" x="468.5" y="691.0669">sont-situé-à</text><text fill="#000000" font-family="sans-serif" font-size="13" lengthAdjust="spacing" textLength="7" x="421.311" y="668.0166">*</text><text fill="#000000" font-family="sans-serif" font-size="13" lengthAdjust="spacing" textLength="8" x="474.9195" y="720.5735">1</text><!--MD5=[1a7731b8f2c930c6d97d17ac0ebde2a8]
link Hotel to Chambre--><path codeLine="26" d="M365.761,58.162 C328.157,81.195 280.5,120.373 280.5,171 C280.5,171 280.5,171 280.5,468 C280.5,512.377 305.913,557.994 325.668,586.75 " fill="none" id="Hotel-Chambre" style="stroke:#A80036;stroke-width:1.0;"/><text fill="#000000" font-family="sans-serif" font-size="13" lengthAdjust="spacing" textLength="54" x="281.5" y="321.0669">possède</text><text fill="#000000" font-family="sans-serif" font-size="13" lengthAdjust="spacing" textLength="8" x="345.8809" y="77.9627">1</text><text fill="#000000" font-family="sans-serif" font-size="13" lengthAdjust="spacing" textLength="7" x="313.237" y="575.9617">*</text><!--MD5=[0c645827cdb9f485350039ec8cb49e29]
link Chambre to Categorie--><path codeLine="27" d="M304.886,648.01 C271.287,670.744 225.04,702.0352 191.375,724.8131 " fill="none" id="Chambre-Categorie" style="stroke:#A80036;stroke-width:1.0;"/><text fill="#000000" font-family="sans-serif" font-size="13" lengthAdjust="spacing" textLength="66" x="261.5" y="691.0669">appartient</text><text fill="#000000" font-family="sans-serif" font-size="13" lengthAdjust="spacing" textLength="7" x="288.1687" y="667.9503">*</text><text fill="#000000" font-family="sans-serif" font-size="13" lengthAdjust="spacing" textLength="8" x="191.5992" y="714.0378">1</text><!--MD5=[52be9b3ac438f7cd62e74dbd2e7441c4]
link Client to Reservation--><path codeLine="28" d="M631.263,209.217 C644.078,224.171 659.534,241.387 674.5,256 C684.971,266.224 696.97,276.698 708.086,285.952 " fill="none" id="Client-Reservation" style="stroke:#A80036;stroke-width:1.0;"/><text fill="#000000" font-family="sans-serif" font-size="13" lengthAdjust="spacing" textLength="61" x="675.5" y="252.0669">demande</text><text fill="#000000" font-family="sans-serif" font-size="13" lengthAdjust="spacing" textLength="8" x="627.53" y="228.7335">1</text><text fill="#000000" font-family="sans-serif" font-size="13" lengthAdjust="spacing" textLength="8" x="691.0267" y="274.7318">1</text><!--MD5=[da913e988afa97b4f1801f05bb7acdbb]
link Commis to Reservation--><path codeLine="29" d="M745.5,196.212 C745.5,220.66 745.5,259.233 745.5,285.864 " fill="none" id="Commis-Reservation" style="stroke:#A80036;stroke-width:1.0;"/><text fill="#000000" font-family="sans-serif" font-size="13" lengthAdjust="spacing" textLength="28" x="746.5" y="252.0669">cree</text><text fill="#000000" font-family="sans-serif" font-size="13" lengthAdjust="spacing" textLength="8" x="736.525" y="216.0249">1</text><text fill="#000000" font-family="sans-serif" font-size="13" lengthAdjust="spacing" textLength="7" x="737.7781" y="275.0992">*</text><!--MD5=[7ee491c9e61831bfd71124da6278b8d9]
link Reservation to Sejour--><path codeLine="30" d="M696.008,347.016 C659.133,369.008 608.261,399.347 567.117,423.885 " fill="none" id="Reservation-Sejour" style="stroke:#A80036;stroke-width:1.0;"/><text fill="#000000" font-family="sans-serif" font-size="13" lengthAdjust="spacing" textLength="52" x="644.5" y="390.0669">contient</text><text fill="#000000" font-family="sans-serif" font-size="13" lengthAdjust="spacing" textLength="8" x="676.9753" y="366.9575">1</text><text fill="#000000" font-family="sans-serif" font-size="13" lengthAdjust="spacing" textLength="7" x="570.8138" y="412.8627">*</text><!--MD5=[21e647bb58b61faa231cf747c9774e2a]
link Hotel to Commis--><path codeLine="31" d="M476.627,58.061 C530.263,77.262 607.52,106.048 673.5,135 C682.458,138.931 691.901,143.404 700.893,147.828 " fill="none" id="Hotel-Commis" style="stroke:#A80036;stroke-width:1.0;"/><text fill="#000000" font-family="sans-serif" font-size="13" lengthAdjust="spacing" textLength="51" x="596.5" y="101.0669">Emploie</text><text fill="#000000" font-family="sans-serif" font-size="13" lengthAdjust="spacing" textLength="8" x="484.547" y="78.2324">1</text><text fill="#000000" font-family="sans-serif" font-size="13" lengthAdjust="spacing" textLength="7" x="681.5656" y="136.796">*</text><!--MD5=[206444fd171c1c460b191818207b05e2]
link Sejour to Chambre--><path codeLine="32" d="M454.485,510.157 C430.044,534.681 399.838,564.989 377.934,586.967 " fill="none" id="Sejour-Chambre" style="stroke:#A80036;stroke-width:1.0;"/><polygon fill="#000000" points="431.0296,545.0249,422.5629,549.3569,426.7262,553.5062,431.0296,545.0249" style="stroke:#000000;stroke-width:1.0;"/><text fill="#000000" font-family="sans-serif" font-size="13" lengthAdjust="spacing" textLength="121" x="436.5" y="553.0669">sont reservées par</text><text fill="#000000" font-family="sans-serif" font-size="13" lengthAdjust="spacing" textLength="7" x="439.9466" y="530.5907">*</text><text fill="#000000" font-family="sans-serif" font-size="13" lengthAdjust="spacing" textLength="7" x="376.6071" y="575.7501">*</text><!--MD5=[cdb98739733062fcace575be292518bf]
@startuml
class Hotel <Conteneur, Object physique>
class Categorie <Description d'entité, Catalogue> {
  nom: String
}
class Reservation <Transaction>{
noConfirmation: String
}

note top of Sejour : La quantité et représenté \npar la multiplicité de l'association\nentre LigneReservation et Chambre
class Sejour <Ligne de transaction> {
  <s>quantity: String</s>
  dateArrive: Date                                                                                                
  dateDepart: Date
}
class Commis <Role>
class Chambre <Objet physique, Contenu dans l'hotel, Produit d'une transaction>{
  numero: string
}
class Client <Role> {
  nom: string
  telephone: string
}
Chambre "1" - - "*" Clé : est-ouverte*par
Chambre "*" - - "1" Emplacement : sont-situé-à

Hotel "1" - - "*" Chambre: possède
Chambre "*" - - "1" Categorie: appartient
Client "1" - - "1" Reservation: demande
Commis "1" - - "*" Reservation: cree
Reservation "1" - - "*" Sejour: contient
Hotel "1" - - "*" Commis : Emploie
Sejour "*" - - "*" Chambre : sont reservées par <
@enduml

PlantUML version 1.2021.2beta5(Unknown compile time)
(GPL source distribution)
Java Runtime: Java(TM) SE Runtime Environment
JVM: Java HotSpot(TM) 64-Bit Server VM
Default Encoding: UTF-8
Language: en
Country: US
--></g></svg>