<?xml version="1.0" encoding="UTF-8" standalone="no"?><svg xmlns="http://www.w3.org/2000/svg" xmlns:xlink="http://www.w3.org/1999/xlink" contentScriptType="application/ecmascript" contentStyleType="text/css" height="537px" preserveAspectRatio="none" style="width:844px;height:537px;" version="1.1" viewBox="0 0 844 537" width="844px" zoomAndPan="magnify"><defs/><g><line style="stroke:#A80036;stroke-width:1.0;stroke-dasharray:5.0,5.0;" x1="170" x2="170" y1="36.2969" y2="530.0859"/><line style="stroke:#A80036;stroke-width:1.0;stroke-dasharray:5.0,5.0;" x1="432" x2="432" y1="36.2969" y2="530.0859"/><line style="stroke:#A80036;stroke-width:1.0;stroke-dasharray:5.0,5.0;" x1="660" x2="660" y1="36.2969" y2="530.0859"/><line style="stroke:#A80036;stroke-width:1.0;stroke-dasharray:5.0,5.0;" x1="782" x2="782" y1="492.8203" y2="530.0859"/><rect fill="#FEFECE" height="30.2969" style="stroke:#A80036;stroke-width:1.5;" width="182" x="79" y="5"/><text fill="#000000" font-family="sans-serif" font-size="14" lengthAdjust="spacing" textLength="168" x="86" y="24.9951">:ControleurReservation</text><rect fill="#FEFECE" height="30.2969" style="stroke:#A80036;stroke-width:1.5;" width="323" x="271" y="5"/><text fill="#000000" font-family="sans-serif" font-size="14" lengthAdjust="spacing" textLength="309" x="278" y="24.9951">mc:Map&lt;nom:String,categorie:Categorie&gt;</text><rect fill="#FEFECE" height="30.2969" style="stroke:#A80036;stroke-width:1.5;" width="113" x="604" y="5"/><text fill="#000000" font-family="sans-serif" font-size="14" lengthAdjust="spacing" textLength="99" x="611" y="24.9951">cat:Categorie</text><path d="M437,51.2969 L437,121.2969 L607,121.2969 L607,61.2969 L597,51.2969 L437,51.2969 " fill="#FBFB77" style="stroke:#A80036;stroke-width:1.0;"/><path d="M597,51.2969 L597,61.2969 L607,61.2969 L597,51.2969 " fill="#FBFB77" style="stroke:#A80036;stroke-width:1.0;"/><text fill="#000000" font-family="sans-serif" font-size="13" lengthAdjust="spacing" textLength="81" x="443" y="68.3638">Visible par le</text><text fill="#000000" font-family="sans-serif" font-size="13" lengthAdjust="spacing" textLength="119" x="443" y="83.4966">controleur puisque</text><text fill="#000000" font-family="sans-serif" font-size="13" lengthAdjust="spacing" textLength="145" x="443" y="98.6294">tout les hotels utilisent</text><text fill="#000000" font-family="sans-serif" font-size="13" lengthAdjust="spacing" textLength="142" x="443" y="113.7622">les mêmes catégories</text><path d="M5,131.8281 L5,156.8281 L165,156.8281 L165,141.8281 L155,131.8281 L5,131.8281 " fill="#FBFB77" style="stroke:#A80036;stroke-width:1.0;"/><path d="M155,131.8281 L155,141.8281 L165,141.8281 L155,131.8281 " fill="#FBFB77" style="stroke:#A80036;stroke-width:1.0;"/><text fill="#000000" font-family="sans-serif" font-size="13" lengthAdjust="spacing" textLength="139" x="11" y="148.895">Controleur de session</text><polygon fill="#A80036" points="158,224.4922,168,228.4922,158,232.4922" style="stroke:#A80036;stroke-width:1.0;"/><line style="stroke:#A80036;stroke-width:1.0;" x1="0" x2="164" y1="228.4922" y2="228.4922"/><text fill="#000000" font-family="sans-serif" font-size="13" lengthAdjust="spacing" textLength="118" x="7" y="178.0278">reserverChambre(</text><text fill="#000000" font-family="sans-serif" font-size="13" lengthAdjust="spacing" textLength="113" x="7" y="193.1606">dateArrive:String,</text><text fill="#000000" font-family="sans-serif" font-size="13" lengthAdjust="spacing" textLength="119" x="7" y="208.2935">dateDepart:String,</text><text fill="#000000" font-family="sans-serif" font-size="13" lengthAdjust="spacing" textLength="111" x="7" y="223.4263">categorie: String)</text><path d="M175,241.4922 L175,266.4922 L336,266.4922 L336,251.4922 L326,241.4922 L175,241.4922 " fill="#FBFB77" style="stroke:#A80036;stroke-width:1.0;"/><path d="M326,241.4922 L326,251.4922 L336,251.4922 L326,241.4922 " fill="#FBFB77" style="stroke:#A80036;stroke-width:1.0;"/><text fill="#000000" font-family="sans-serif" font-size="13" lengthAdjust="spacing" textLength="140" x="181" y="258.5591">Expert en information</text><polygon fill="#A80036" points="420.5,288.7578,430.5,292.7578,420.5,296.7578" style="stroke:#A80036;stroke-width:1.0;"/><line style="stroke:#A80036;stroke-width:1.0;" x1="170" x2="426.5" y1="292.7578" y2="292.7578"/><text fill="#000000" font-family="sans-serif" font-size="13" lengthAdjust="spacing" textLength="144" x="177" y="287.6919">cat = get(nom: String)</text><path d="M175,305.7578 L175,330.7578 L336,330.7578 L336,315.7578 L326,305.7578 L175,305.7578 " fill="#FBFB77" style="stroke:#A80036;stroke-width:1.0;"/><path d="M326,305.7578 L326,315.7578 L336,315.7578 L326,305.7578 " fill="#FBFB77" style="stroke:#A80036;stroke-width:1.0;"/><text fill="#000000" font-family="sans-serif" font-size="13" lengthAdjust="spacing" textLength="140" x="181" y="322.8247">Expert en information</text><polygon fill="#A80036" points="648.5,383.2891,658.5,387.2891,648.5,391.2891" style="stroke:#A80036;stroke-width:1.0;"/><line style="stroke:#A80036;stroke-width:1.0;" x1="170" x2="654.5" y1="387.2891" y2="387.2891"/><text fill="#000000" font-family="sans-serif" font-size="13" lengthAdjust="spacing" textLength="149" x="177" y="351.9575">ch = getChambreLibre(</text><text fill="#000000" font-family="sans-serif" font-size="13" lengthAdjust="spacing" textLength="117" x="177" y="367.0903">dateArrivé: String,</text><text fill="#000000" font-family="sans-serif" font-size="13" lengthAdjust="spacing" textLength="120" x="177" y="382.2231">dateDepart:String)</text><path d="M175,400.2891 L175,440.2891 L438,440.2891 L438,410.2891 L428,400.2891 L175,400.2891 " fill="#FBFB77" style="stroke:#A80036;stroke-width:1.0;"/><path d="M428,400.2891 L428,410.2891 L438,410.2891 L428,400.2891 " fill="#FBFB77" style="stroke:#A80036;stroke-width:1.0;"/><text fill="#000000" font-family="sans-serif" font-size="13" lengthAdjust="spacing" textLength="204" x="181" y="417.356">Createur, cohésion et couplage.</text><text fill="#000000" font-family="sans-serif" font-size="13" lengthAdjust="spacing" textLength="242" x="181" y="432.4888">c:Commis est visible par le controleur</text><polygon fill="#A80036" points="715,508.0859,725,512.0859,715,516.0859" style="stroke:#A80036;stroke-width:1.0;"/><line style="stroke:#A80036;stroke-width:1.0;" x1="170" x2="721" y1="512.0859" y2="512.0859"/><text fill="#000000" font-family="sans-serif" font-size="13" lengthAdjust="spacing" textLength="63" x="177" y="461.6216">r=Create(</text><text fill="#000000" font-family="sans-serif" font-size="13" lengthAdjust="spacing" textLength="83" x="177" y="476.7544">ch:Chambre,</text><text fill="#000000" font-family="sans-serif" font-size="13" lengthAdjust="spacing" textLength="69" x="177" y="491.8872">c:Commis,</text><text fill="#000000" font-family="sans-serif" font-size="13" lengthAdjust="spacing" textLength="241" x="177" y="507.02">dateArrive:String, dateDepart: String)</text><rect fill="#FEFECE" height="30.2969" style="stroke:#A80036;stroke-width:1.5;" width="111" x="727" y="478.7891"/><text fill="#000000" font-family="sans-serif" font-size="14" lengthAdjust="spacing" textLength="97" x="734" y="498.7842">r:Reservation</text><!--MD5=[c8b8d6aa25a46e222fe3160832f488a0]
@startuml
skinparam style strictuml
Participant ":ControleurReservation" as S
Participant "mc:Map<nom:String,categorie:Categorie>" as MC
Participant "cat:Categorie" as CAT
Participant "r:Reservation" as R

note right  of MC: Visible par le \ncontroleur puisque \ntout les hotels utilisent \nles mêmes catégories
note left of S:Controleur de session
 -> S: reserverChambre(\ndateArrive:String, \ndateDepart:String, \ncategorie: String)
 note right of S: Expert en information
S -> MC: cat = get(nom: String)
 note right of S: Expert en information
S -> CAT: ch = getChambreLibre(\ndateArrivé: String, \ndateDepart:String)
note right of S: Createur, cohésion et couplage. \nc:Commis est visible par le controleur
S -> R**: r=Create(\nch:Chambre, \nc:Commis, \ndateArrive:String, dateDepart: String)
@enduml

PlantUML version 1.2021.2beta2(Unknown compile time)
(GPL source distribution)
Java Runtime: Java(TM) SE Runtime Environment
JVM: Java HotSpot(TM) 64-Bit Server VM
Default Encoding: UTF-8
Language: en
Country: US
--></g></svg>