<svg xmlns="http://www.w3.org/2000/svg" xmlns:xlink="http://www.w3.org/1999/xlink" contentScriptType="application/ecmascript" contentStyleType="text/css" height="462px" preserveAspectRatio="none" style="width:711px;height:462px;" version="1.1" viewBox="0 0 711 462" width="711px" zoomAndPan="magnify"><defs><filter height="300%" id="f1eszyexc85g21" width="300%" x="-1" y="-1"><feGaussianBlur result="blurOut" stdDeviation="2.0"/><feColorMatrix in="blurOut" result="blurOut2" type="matrix" values="0 0 0 0 0 0 0 0 0 0 0 0 0 0 0 0 0 0 .4 0"/><feOffset dx="4.0" dy="4.0" in="blurOut2" result="blurOut3"/><feBlend in="SourceGraphic" in2="blurOut3" mode="normal"/></filter></defs><g><ellipse cx="292.5" cy="16" fill="#000000" filter="url(#f1eszyexc85g21)" rx="10" ry="10" style="stroke:none;stroke-width:1.0;"/><rect fill="#FEFECE" filter="url(#f1eszyexc85g21)" height="75" rx="12.5" ry="12.5" style="stroke:#A80036;stroke-width:1.5;" width="202" x="191.5" y="96"/><svg x="201.5" y="106"><defs/><g><text fill="#000000" font-family="sans-serif" font-size="12" lengthAdjust="spacing" textLength="85" x="6" y="17.1387">Menu Principal</text><line style="stroke:#AAAAAA;stroke-width:1.5;" x1="6" x2="176" y1="25.4688" y2="25.4688"/><rect fill="#EEEEEE" height="17.9688" rx="5" ry="5" style="stroke:#000000;stroke-width:2.5;" width="164" x="8.5" y="32.4688"/><text fill="#000000" font-family="sans-serif" font-size="12" lengthAdjust="spacing" textLength="138" x="21.5" y="45.6074">Réserver une chambre</text><!--MD5=[88cc1a2ed6073458ade4aaab9c808480]
@startuml
salt
{
Menu Principal
~~
[Réserver une chambre]
}
@enduml

PlantUML version 1.2021.2beta2(Unknown compile time)
(GPL source distribution)
Java Runtime: Java(TM) SE Runtime Environment
JVM: Java HotSpot(TM) 64-Bit Server VM
Default Encoding: UTF-8
Language: en
Country: US
--></g></svg><rect fill="#FEFECE" filter="url(#f1eszyexc85g21)" height="135" rx="12.5" ry="12.5" style="stroke:#A80036;stroke-width:1.5;" width="261" x="414" y="66"/><svg x="424" y="76"><defs/><g><text fill="#000000" font-family="sans-serif" font-size="12" lengthAdjust="spacing" textLength="132" x="6" y="17.1387">Noter une réservation</text><line style="stroke:#AAAAAA;stroke-width:1.0;" x1="6" x2="139" y1="25.4688" y2="25.4688"/><text fill="#000000" font-family="sans-serif" font-size="12" lengthAdjust="spacing" textLength="78" x="6" y="41.1074">Date d'arrivé</text><text fill="#000000" font-family="sans-serif" font-size="12" lengthAdjust="spacing" textLength="74" x="143" y="41.1074">2020-03-03</text><line style="stroke:#000000;stroke-width:1.0;" x1="141" x2="224" y1="43.9375" y2="43.9375"/><line style="stroke:#000000;stroke-width:1.0;" x1="141" x2="141" y1="40.9375" y2="42.9375"/><line style="stroke:#000000;stroke-width:1.0;" x1="224" x2="224" y1="40.9375" y2="42.9375"/><text fill="#000000" font-family="sans-serif" font-size="12" lengthAdjust="spacing" textLength="92" x="6" y="59.0762">Date de départ</text><text fill="#000000" font-family="sans-serif" font-size="12" lengthAdjust="spacing" textLength="74" x="143" y="59.0762">2020-03-06</text><line style="stroke:#000000;stroke-width:1.0;" x1="141" x2="224" y1="61.9063" y2="61.9063"/><line style="stroke:#000000;stroke-width:1.0;" x1="141" x2="141" y1="58.9063" y2="60.9063"/><line style="stroke:#000000;stroke-width:1.0;" x1="224" x2="224" y1="58.9063" y2="60.9063"/><text fill="#000000" font-family="sans-serif" font-size="12" lengthAdjust="spacing" textLength="59" x="6" y="77.0449">Catégorie</text><rect fill="#EEEEEE" height="16.9688" style="stroke:#000000;stroke-width:1.0;" width="87" x="140" y="65.9063"/><text fill="#000000" font-family="sans-serif" font-size="12" lengthAdjust="spacing" textLength="59" x="142" y="79.0449">Categorie</text><line style="stroke:#000000;stroke-width:1.0;" x1="216" x2="216" y1="65.9063" y2="82.875"/><polygon fill="#000000" points="219,71.9063,225,71.9063,222,77.875" style="stroke:#000000;stroke-width:1.0;"/><rect fill="#EEEEEE" height="17.9688" rx="5" ry="5" style="stroke:#000000;stroke-width:2.5;" width="52" x="8.5" y="88.375"/><text fill="#000000" font-family="sans-serif" font-size="12" lengthAdjust="spacing" textLength="40" x="14.5" y="101.5137">Cancel</text><rect fill="#EEEEEE" height="17.9688" rx="5" ry="5" style="stroke:#000000;stroke-width:2.5;" width="68" x="142.5" y="88.375"/><text fill="#000000" font-family="sans-serif" font-size="12" lengthAdjust="spacing" textLength="55" x="149" y="101.5137">Réserver</text><line style="stroke:#000000;stroke-width:1.0;" x1="5" x2="139" y1="5" y2="5"/><line style="stroke:#000000;stroke-width:1.0;" x1="139" x2="229" y1="5" y2="5"/><line style="stroke:#000000;stroke-width:1.0;" x1="5" x2="139" y1="109.8438" y2="109.8438"/><line style="stroke:#000000;stroke-width:1.0;" x1="139" x2="229" y1="109.8438" y2="109.8438"/><line style="stroke:#000000;stroke-width:1.0;" x1="5" x2="5" y1="5" y2="20.9688"/><line style="stroke:#000000;stroke-width:1.0;" x1="229" x2="229" y1="28.9688" y2="46.9375"/><line style="stroke:#000000;stroke-width:1.0;" x1="229" x2="229" y1="20.9688" y2="28.9688"/><line style="stroke:#000000;stroke-width:1.0;" x1="229" x2="229" y1="5" y2="20.9688"/><line style="stroke:#000000;stroke-width:1.0;" x1="5" x2="5" y1="84.875" y2="109.8438"/><line style="stroke:#000000;stroke-width:1.0;" x1="5" x2="5" y1="64.9063" y2="84.875"/><line style="stroke:#000000;stroke-width:1.0;" x1="5" x2="5" y1="46.9375" y2="64.9063"/><line style="stroke:#000000;stroke-width:1.0;" x1="229" x2="229" y1="84.875" y2="109.8438"/><line style="stroke:#000000;stroke-width:1.0;" x1="5" x2="5" y1="28.9688" y2="46.9375"/><line style="stroke:#000000;stroke-width:1.0;" x1="229" x2="229" y1="64.9063" y2="84.875"/><line style="stroke:#000000;stroke-width:1.0;" x1="5" x2="5" y1="20.9688" y2="28.9688"/><line style="stroke:#000000;stroke-width:1.0;" x1="229" x2="229" y1="46.9375" y2="64.9063"/><!--MD5=[98d41ca82ad733b3b9f7681c02c04c16]
@startuml
salt
{+
Noter une réservation
- -
Date d'arrivé | "2020-03-03"
Date de départ | "2020-03-06"
Catégorie | ^Categorie^
[Cancel] | [Réserver]
}
@enduml

PlantUML version 1.2021.2beta2(Unknown compile time)
(GPL source distribution)
Java Runtime: Java(TM) SE Runtime Environment
JVM: Java HotSpot(TM) 64-Bit Server VM
Default Encoding: UTF-8
Language: en
Country: US
--></g></svg><rect fill="#FEFECE" filter="url(#f1eszyexc85g21)" height="179" rx="12.5" ry="12.5" style="stroke:#A80036;stroke-width:1.5;" width="305" x="392" y="255"/><svg x="402" y="265"><defs/><g><text fill="#000000" font-family="sans-serif" font-size="12" lengthAdjust="spacing" textLength="168" x="6" y="17.1387">Confirmer votre réservation</text><line style="stroke:#AAAAAA;stroke-width:1.0;" x1="6" x2="175" y1="25.4688" y2="25.4688"/><text fill="#000000" font-family="sans-serif" font-size="12" lengthAdjust="spacing" textLength="31" x="6" y="41.1074">Nom:</text><text fill="#000000" font-family="sans-serif" font-size="12" lengthAdjust="spacing" textLength="61" x="179" y="41.1074">Yvan Ross</text><line style="stroke:#000000;stroke-width:1.0;" x1="177" x2="252" y1="43.9375" y2="43.9375"/><line style="stroke:#000000;stroke-width:1.0;" x1="177" x2="177" y1="40.9375" y2="42.9375"/><line style="stroke:#000000;stroke-width:1.0;" x1="252" x2="252" y1="40.9375" y2="42.9375"/><text fill="#000000" font-family="sans-serif" font-size="12" lengthAdjust="spacing" textLength="68" x="6" y="59.0762">Téléphone:</text><text fill="#000000" font-family="sans-serif" font-size="12" lengthAdjust="spacing" textLength="89" x="179" y="59.0762">123-456-7890</text><line style="stroke:#000000;stroke-width:1.0;" x1="177" x2="276" y1="61.9063" y2="61.9063"/><line style="stroke:#000000;stroke-width:1.0;" x1="177" x2="177" y1="58.9063" y2="60.9063"/><line style="stroke:#000000;stroke-width:1.0;" x1="276" x2="276" y1="58.9063" y2="60.9063"/><line style="stroke:#AAAAAA;stroke-width:1.0;" x1="6" x2="175" y1="69.4063" y2="69.4063"/><text fill="#000000" font-family="sans-serif" font-size="12" lengthAdjust="spacing" textLength="86" x="6" y="85.0449">Date d'arrivé :</text><text fill="#000000" font-family="sans-serif" font-size="12" lengthAdjust="spacing" textLength="74" x="176" y="85.0449">2020-03-03</text><text fill="#000000" font-family="sans-serif" font-size="12" lengthAdjust="spacing" textLength="100" x="6" y="101.0137">Date de départ :</text><text fill="#000000" font-family="sans-serif" font-size="12" lengthAdjust="spacing" textLength="74" x="176" y="101.0137">2020-03-06</text><text fill="#000000" font-family="sans-serif" font-size="12" lengthAdjust="spacing" textLength="63" x="6" y="116.9824">Catégorie:</text><text fill="#000000" font-family="sans-serif" font-size="12" lengthAdjust="spacing" textLength="69" x="176" y="116.9824"> categorie1</text><line style="stroke:#AAAAAA;stroke-width:1.0;" x1="6" x2="175" y1="125.3125" y2="125.3125"/><rect fill="#EEEEEE" height="17.9688" rx="5" ry="5" style="stroke:#000000;stroke-width:2.5;" width="52" x="8.5" y="132.3125"/><text fill="#000000" font-family="sans-serif" font-size="12" lengthAdjust="spacing" textLength="40" x="14.5" y="145.4512">Cancel</text><rect fill="#EEEEEE" height="17.9688" rx="5" ry="5" style="stroke:#000000;stroke-width:2.5;" width="76" x="178.5" y="132.3125"/><text fill="#000000" font-family="sans-serif" font-size="12" lengthAdjust="spacing" textLength="59" x="187" y="145.4512">Confirmer</text><line style="stroke:#000000;stroke-width:1.0;" x1="5" x2="175" y1="5" y2="5"/><line style="stroke:#000000;stroke-width:1.0;" x1="175" x2="279" y1="5" y2="5"/><line style="stroke:#000000;stroke-width:1.0;" x1="5" x2="175" y1="153.7813" y2="153.7813"/><line style="stroke:#000000;stroke-width:1.0;" x1="175" x2="279" y1="153.7813" y2="153.7813"/><line style="stroke:#000000;stroke-width:1.0;" x1="5" x2="5" y1="5" y2="20.9688"/><line style="stroke:#000000;stroke-width:1.0;" x1="279" x2="279" y1="28.9688" y2="46.9375"/><line style="stroke:#000000;stroke-width:1.0;" x1="279" x2="279" y1="5" y2="20.9688"/><line style="stroke:#000000;stroke-width:1.0;" x1="5" x2="5" y1="128.8125" y2="153.7813"/><line style="stroke:#000000;stroke-width:1.0;" x1="5" x2="5" y1="104.8438" y2="120.8125"/><line style="stroke:#000000;stroke-width:1.0;" x1="279" x2="279" y1="128.8125" y2="153.7813"/><line style="stroke:#000000;stroke-width:1.0;" x1="5" x2="5" y1="72.9063" y2="88.875"/><line style="stroke:#000000;stroke-width:1.0;" x1="279" x2="279" y1="104.8438" y2="120.8125"/><line style="stroke:#000000;stroke-width:1.0;" x1="5" x2="5" y1="46.9375" y2="64.9063"/><line style="stroke:#000000;stroke-width:1.0;" x1="279" x2="279" y1="72.9063" y2="88.875"/><line style="stroke:#000000;stroke-width:1.0;" x1="5" x2="5" y1="20.9688" y2="28.9688"/><line style="stroke:#000000;stroke-width:1.0;" x1="279" x2="279" y1="46.9375" y2="64.9063"/><line style="stroke:#000000;stroke-width:1.0;" x1="279" x2="279" y1="20.9688" y2="28.9688"/><line style="stroke:#000000;stroke-width:1.0;" x1="5" x2="5" y1="120.8125" y2="128.8125"/><line style="stroke:#000000;stroke-width:1.0;" x1="5" x2="5" y1="88.875" y2="104.8438"/><line style="stroke:#000000;stroke-width:1.0;" x1="279" x2="279" y1="120.8125" y2="128.8125"/><line style="stroke:#000000;stroke-width:1.0;" x1="5" x2="5" y1="64.9063" y2="72.9063"/><line style="stroke:#000000;stroke-width:1.0;" x1="279" x2="279" y1="88.875" y2="104.8438"/><line style="stroke:#000000;stroke-width:1.0;" x1="5" x2="5" y1="28.9688" y2="46.9375"/><line style="stroke:#000000;stroke-width:1.0;" x1="279" x2="279" y1="64.9063" y2="72.9063"/><!--MD5=[b75db0373bad49821ee73c6dd938bf55]
@startuml
salt
{+
Confirmer votre réservation
- -
Nom:|"Yvan Ross"
Téléphone:|"123-456-7890"

- -
Date d'arrivé : |  2020-03-03
Date de départ : | 2020-03-06
Catégorie: | categorie1
- -
[Cancel] | [Confirmer]
}
@enduml

PlantUML version 1.2021.2beta2(Unknown compile time)
(GPL source distribution)
Java Runtime: Java(TM) SE Runtime Environment
JVM: Java HotSpot(TM) 64-Bit Server VM
Default Encoding: UTF-8
Language: en
Country: US
--></g></svg><rect fill="#FEFECE" filter="url(#f1eszyexc85g21)" height="207" rx="12.5" ry="12.5" style="stroke:#A80036;stroke-width:1.5;" width="365" x="7" y="241"/><svg x="17" y="251"><defs/><g><text fill="#000000" font-family="sans-serif" font-size="12" lengthAdjust="spacing" textLength="128" x="6" y="17.1387">Réservation confirmé</text><line style="stroke:#AAAAAA;stroke-width:1.5;" x1="6" x2="168" y1="25.4688" y2="25.4688"/><text fill="#000000" font-family="sans-serif" font-size="12" lengthAdjust="spacing" textLength="94" x="6" y="41.1074">No confirmation</text><text fill="#000000" font-family="sans-serif" font-size="12" lengthAdjust="spacing" textLength="47" x="169" y="41.1074">123456</text><line style="stroke:#AAAAAA;stroke-width:1.0;" x1="6" x2="168" y1="49.4375" y2="49.4375"/><text fill="#000000" font-family="sans-serif" font-size="12" lengthAdjust="spacing" textLength="96" x="6" y="65.0762">Nom: Yvan Ross</text><text fill="#000000" font-family="sans-serif" font-size="12" lengthAdjust="spacing" textLength="161" x="6" y="81.0449">Telephone: 123-456-7890</text><line style="stroke:#AAAAAA;stroke-width:1.0;" x1="6" x2="168" y1="89.375" y2="89.375"/><text fill="#000000" font-family="sans-serif" font-size="12" lengthAdjust="spacing" textLength="86" x="6" y="105.0137">Date d'arrivé :</text><text fill="#000000" font-family="sans-serif" font-size="12" lengthAdjust="spacing" textLength="74" x="169" y="105.0137">2020-03-03</text><text fill="#000000" font-family="sans-serif" font-size="12" lengthAdjust="spacing" textLength="100" x="6" y="120.9824">Date de départ :</text><text fill="#000000" font-family="sans-serif" font-size="12" lengthAdjust="spacing" textLength="74" x="169" y="120.9824">2020-03-06</text><text fill="#000000" font-family="sans-serif" font-size="12" lengthAdjust="spacing" textLength="63" x="6" y="136.9512">Catégorie:</text><text fill="#000000" font-family="sans-serif" font-size="12" lengthAdjust="spacing" textLength="69" x="169" y="136.9512"> categorie1</text><line style="stroke:#AAAAAA;stroke-width:1.0;" x1="6" x2="168" y1="144.2813" y2="144.2813"/><line style="stroke:#AAAAAA;stroke-width:1.0;" x1="6" x2="168" y1="146.2813" y2="146.2813"/><rect fill="#EEEEEE" height="17.9688" rx="5" ry="5" style="stroke:#000000;stroke-width:2.5;" width="124" x="8.5" y="152.2813"/><text fill="#000000" font-family="sans-serif" font-size="12" lengthAdjust="spacing" textLength="95" x="23" y="165.4199">Menu principale</text><rect fill="#EEEEEE" height="17.9688" rx="5" ry="5" style="stroke:#000000;stroke-width:2.5;" width="164" x="171.5" y="152.2813"/><text fill="#000000" font-family="sans-serif" font-size="12" lengthAdjust="spacing" textLength="138" x="184.5" y="165.4199">Réserver une chambre</text><line style="stroke:#AAAAAA;stroke-width:1.0;" x1="6" x2="168" y1="178.25" y2="178.25"/><line style="stroke:#000000;stroke-width:1.0;" x1="5" x2="168" y1="5" y2="5"/><line style="stroke:#000000;stroke-width:1.0;" x1="168" x2="339" y1="5" y2="5"/><line style="stroke:#000000;stroke-width:1.0;" x1="5" x2="168" y1="181.75" y2="181.75"/><line style="stroke:#000000;stroke-width:1.0;" x1="168" x2="339" y1="181.75" y2="181.75"/><line style="stroke:#000000;stroke-width:1.0;" x1="5" x2="5" y1="5" y2="20.9688"/><line style="stroke:#000000;stroke-width:1.0;" x1="339" x2="339" y1="5" y2="20.9688"/><line style="stroke:#000000;stroke-width:1.0;" x1="5" x2="5" y1="148.7813" y2="173.75"/><line style="stroke:#000000;stroke-width:1.0;" x1="339" x2="339" y1="148.7813" y2="173.75"/><line style="stroke:#000000;stroke-width:1.0;" x1="5" x2="5" y1="92.875" y2="108.8438"/><line style="stroke:#000000;stroke-width:1.0;" x1="339" x2="339" y1="92.875" y2="108.8438"/><line style="stroke:#000000;stroke-width:1.0;" x1="5" x2="5" y1="44.9375" y2="52.9375"/><line style="stroke:#000000;stroke-width:1.0;" x1="339" x2="339" y1="44.9375" y2="52.9375"/><line style="stroke:#000000;stroke-width:1.0;" x1="5" x2="5" y1="140.7813" y2="148.7813"/><line style="stroke:#000000;stroke-width:1.0;" x1="339" x2="339" y1="140.7813" y2="148.7813"/><line style="stroke:#000000;stroke-width:1.0;" x1="5" x2="5" y1="84.875" y2="92.875"/><line style="stroke:#000000;stroke-width:1.0;" x1="339" x2="339" y1="84.875" y2="92.875"/><line style="stroke:#000000;stroke-width:1.0;" x1="5" x2="5" y1="28.9688" y2="44.9375"/><line style="stroke:#000000;stroke-width:1.0;" x1="339" x2="339" y1="28.9688" y2="44.9375"/><line style="stroke:#000000;stroke-width:1.0;" x1="5" x2="5" y1="124.8125" y2="140.7813"/><line style="stroke:#000000;stroke-width:1.0;" x1="339" x2="339" y1="124.8125" y2="140.7813"/><line style="stroke:#000000;stroke-width:1.0;" x1="5" x2="5" y1="68.9063" y2="84.875"/><line style="stroke:#000000;stroke-width:1.0;" x1="339" x2="339" y1="68.9063" y2="84.875"/><line style="stroke:#000000;stroke-width:1.0;" x1="5" x2="5" y1="20.9688" y2="28.9688"/><line style="stroke:#000000;stroke-width:1.0;" x1="339" x2="339" y1="20.9688" y2="28.9688"/><line style="stroke:#000000;stroke-width:1.0;" x1="5" x2="5" y1="173.75" y2="181.75"/><line style="stroke:#000000;stroke-width:1.0;" x1="339" x2="339" y1="173.75" y2="181.75"/><line style="stroke:#000000;stroke-width:1.0;" x1="5" x2="5" y1="108.8438" y2="124.8125"/><line style="stroke:#000000;stroke-width:1.0;" x1="339" x2="339" y1="108.8438" y2="124.8125"/><line style="stroke:#000000;stroke-width:1.0;" x1="5" x2="5" y1="52.9375" y2="68.9063"/><line style="stroke:#000000;stroke-width:1.0;" x1="339" x2="339" y1="52.9375" y2="68.9063"/><!--MD5=[a2897cc55001bfeaf14b9edf1b495ec6]
@startuml
salt
{+
Réservation confirmé
~~
No confirmation | 123456
- -
Nom: Yvan Ross
Telephone: 123-456-7890
- -
Date d'arrivé : |  2020-03-03
Date de départ : | 2020-03-06
Catégorie: | categorie1
==
[Menu principale] | [Réserver une chambre]
- -}
@enduml

PlantUML version 1.2021.2beta2(Unknown compile time)
(GPL source distribution)
Java Runtime: Java(TM) SE Runtime Environment
JVM: Java HotSpot(TM) 64-Bit Server VM
Default Encoding: UTF-8
Language: en
Country: US
--></g></svg><!--MD5=[ee7caa4e61329b078784670315009cac]
link start to MenuPrincipale--><path d="M292.5,26.063 C292.5,39.906 292.5,67.187 292.5,90.662 " fill="none" id="start-to-MenuPrincipale" style="stroke:#A80036;stroke-width:1.0;"/><polygon fill="#A80036" points="292.5,95.915,296.5,86.915,292.5,90.915,288.5,86.915,292.5,95.915" style="stroke:#A80036;stroke-width:1.0;"/><!--MD5=[7a6bf774052360c943518f3f8075683b]
link MenuPrincipale to formulaireReservation--><path d="M393.891,133.5 C398.891,133.5 403.892,133.5 408.893,133.5 " fill="none" id="MenuPrincipale-to-formulaireReservation" style="stroke:#A80036;stroke-width:1.0;"/><polygon fill="#A80036" points="413.893,133.5,404.893,129.5,408.893,133.5,404.893,137.5,413.893,133.5" style="stroke:#A80036;stroke-width:1.0;"/><!--MD5=[5e4cf09ef407191a2685822190cd26bb]
link formulaireReservation to formulaireConfirmation--><path d="M544.5,201.204 C544.5,216.685 544.5,233.446 544.5,249.847 " fill="none" id="formulaireReservation-to-formulaireConfirmation" style="stroke:#A80036;stroke-width:1.0;"/><polygon fill="#A80036" points="544.5,254.923,548.5,245.923,544.5,249.923,540.5,245.923,544.5,254.923" style="stroke:#A80036;stroke-width:1.0;"/><!--MD5=[58c60ada319c0282ebf15b547f8105ac]
reverse link showReservation to formulaireConfirmation--><path d="M377.385,344.5 C382.163,344.5 386.941,344.5 391.719,344.5 " fill="none" id="showReservation-backto-formulaireConfirmation" style="stroke:#A80036;stroke-width:1.0;"/><polygon fill="#A80036" points="372.2,344.5,381.2,348.5,377.2,344.5,381.2,340.5,372.2,344.5" style="stroke:#A80036;stroke-width:1.0;"/><!--MD5=[24a7c68a072d21f1c966b5308e9446a6]
@startuml
(*) - -> "
{{
salt
{
Menu Principal
~~
[Réserver une chambre]
}
}}
" as MenuPrincipale

MenuPrincipale -right-> "
{{
salt
{+
  Noter une réservation
  - -
  Date d'arrivé | "2020-03-03"
  Date de départ | "2020-03-06"
  Catégorie | ^Categorie^ 
   [Cancel] | [Réserver]
}
}}
" as formulaireReservation


formulaireReservation -down-> "
{{
salt
{+
Confirmer votre réservation
- -
Nom:|"Yvan Ross"
Téléphone:|"123-456-7890"

  - -
  Date d'arrivé : |  2020-03-03
  Date de départ : | 2020-03-06
  Catégorie: | categorie1
  - -
  [Cancel] | [Confirmer]
}
}}
" as formulaireConfirmation

formulaireConfirmation -left-> "
{{
salt
{+
  Réservation confirmé
~~
 No confirmation | 123456
- -
  Nom: Yvan Ross
  Telephone: 123-456-7890
  - -
  Date d'arrivé : |  2020-03-03
  Date de départ : | 2020-03-06
  Catégorie: | categorie1
==
[Menu principale] | [Réserver une chambre]
  - -}
}}
" as showReservation
@enduml

PlantUML version 1.2021.2beta2(Unknown compile time)
(GPL source distribution)
Java Runtime: Java(TM) SE Runtime Environment
JVM: Java HotSpot(TM) 64-Bit Server VM
Default Encoding: UTF-8
Language: en
Country: US
--></g></svg>