<?xml version="1.0" encoding="UTF-8" standalone="no"?><svg xmlns="http://www.w3.org/2000/svg" xmlns:xlink="http://www.w3.org/1999/xlink" contentScriptType="application/ecmascript" contentStyleType="text/css" height="1168px" preserveAspectRatio="none" style="width:1074px;height:1168px;" version="1.1" viewBox="0 0 1074 1168" width="1074px" zoomAndPan="magnify"><defs><filter height="300%" id="flbinnuzpwvei" width="300%" x="-1" y="-1"><feGaussianBlur result="blurOut" stdDeviation="2.0"/><feColorMatrix in="blurOut" result="blurOut2" type="matrix" values="0 0 0 0 0 0 0 0 0 0 0 0 0 0 0 0 0 0 .4 0"/><feOffset dx="4.0" dy="4.0" in="blurOut2" result="blurOut3"/><feBlend in="SourceGraphic" in2="blurOut3" mode="normal"/></filter></defs><g><!--MD5=[e1d3770cbd048901ea869e126190a56e]
class ControleurReservation--><rect codeLine="1" fill="#FEFECE" filter="url(#flbinnuzpwvei)" height="112.0234" id="ControleurReservation" style="stroke:#A80036;stroke-width:1.5;" width="539" x="7" y="10"/><ellipse cx="171.75" cy="26" fill="#ADD1B2" rx="11" ry="11" style="stroke:#A80036;stroke-width:1.0;"/><path d="M174.0938,21.6719 C173.1563,21.2344 172.5625,21.0938 171.6875,21.0938 C169.0625,21.0938 167.0625,23.1719 167.0625,25.8906 L167.0625,27.0156 C167.0625,29.5938 169.1719,31.4844 172.0625,31.4844 C173.2813,31.4844 174.4375,31.1875 175.1875,30.6406 C175.7656,30.2344 176.0938,29.7813 176.0938,29.3906 C176.0938,28.9375 175.7031,28.5469 175.2344,28.5469 C175.0156,28.5469 174.8125,28.625 174.625,28.8125 C174.1719,29.2969 174.1719,29.2969 173.9844,29.3906 C173.5625,29.6563 172.875,29.7813 172.1094,29.7813 C170.0625,29.7813 168.7656,28.6875 168.7656,26.9844 L168.7656,25.8906 C168.7656,24.1094 170.0156,22.7969 171.75,22.7969 C172.3281,22.7969 172.9375,22.9531 173.4063,23.2031 C173.8906,23.4844 174.0625,23.7031 174.1563,24.1094 C174.2188,24.5156 174.25,24.6406 174.3906,24.7656 C174.5313,24.9063 174.7656,25.0156 174.9844,25.0156 C175.25,25.0156 175.5156,24.875 175.6875,24.6563 C175.7969,24.5 175.8281,24.3125 175.8281,23.8906 L175.8281,22.4688 C175.8281,22.0313 175.8125,21.9063 175.7188,21.75 C175.5625,21.4844 175.2813,21.3438 174.9844,21.3438 C174.6875,21.3438 174.4844,21.4375 174.2656,21.75 L174.0938,21.6719 Z " fill="#000000"/><text fill="#000000" font-family="sans-serif" font-size="12" lengthAdjust="spacing" textLength="134" x="192.25" y="30.1543">ControleurReservation</text><rect fill="#FFFFFF" height="15.9688" style="stroke:#000000;stroke-width:1.0;stroke-dasharray:2.0,2.0;" width="65" x="484" y="7"/><text fill="#000000" font-family="sans-serif" font-size="12" font-style="italic" lengthAdjust="spacing" textLength="63" x="485" y="19.1387">Controleur</text><line style="stroke:#A80036;stroke-width:1.5;" x1="8" x2="545" y1="42" y2="42"/><line style="stroke:#A80036;stroke-width:1.5;" x1="8" x2="545" y1="50" y2="50"/><ellipse cx="18" cy="61" fill="#84BE84" rx="3" ry="3" style="stroke:#038048;stroke-width:1.0;"/><text fill="#000000" font-family="sans-serif" font-size="11" lengthAdjust="spacing" textLength="129" x="27" y="64.2104">demarrerReservation()</text><ellipse cx="18" cy="73.8047" fill="#84BE84" rx="3" ry="3" style="stroke:#038048;stroke-width:1.0;"/><text fill="#000000" font-family="sans-serif" font-size="11" lengthAdjust="spacing" textLength="410" x="27" y="77.0151">reserverChambre(dateArrive:string, dateDepart:string, categorie: String)</text><ellipse cx="18" cy="86.6094" fill="#84BE84" rx="3" ry="3" style="stroke:#038048;stroke-width:1.0;"/><text fill="#000000" font-family="sans-serif" font-size="11" lengthAdjust="spacing" textLength="513" x="27" y="89.8198">reserverChambres(quantity:Integer,dateArrive:String, dateDepart:String, categorie: String)</text><ellipse cx="18" cy="99.4141" fill="#84BE84" rx="3" ry="3" style="stroke:#038048;stroke-width:1.0;"/><text fill="#000000" font-family="sans-serif" font-size="11" lengthAdjust="spacing" textLength="293" x="27" y="102.6245">confirmerReservation(nom:string, telephone: string)</text><text fill="#000000" font-family="sans-serif" font-size="11" lengthAdjust="spacing" textLength="410" x="27" y="115.4292">transfererChambre(noChambreActuel:string, noNouvelleChambre:string)</text><!--MD5=[22e5d5b4c441f3dbc8b6f363f923fdb4]
class MC--><rect codeLine="8" fill="#FEFECE" filter="url(#flbinnuzpwvei)" height="60.8047" id="MC" style="stroke:#A80036;stroke-width:1.5;" width="250" x="106.5" y="315"/><ellipse cx="121.5" cy="331" fill="#ADD1B2" rx="11" ry="11" style="stroke:#A80036;stroke-width:1.0;"/><path d="M123.8438,326.6719 C122.9063,326.2344 122.3125,326.0938 121.4375,326.0938 C118.8125,326.0938 116.8125,328.1719 116.8125,330.8906 L116.8125,332.0156 C116.8125,334.5938 118.9219,336.4844 121.8125,336.4844 C123.0313,336.4844 124.1875,336.1875 124.9375,335.6406 C125.5156,335.2344 125.8438,334.7813 125.8438,334.3906 C125.8438,333.9375 125.4531,333.5469 124.9844,333.5469 C124.7656,333.5469 124.5625,333.625 124.375,333.8125 C123.9219,334.2969 123.9219,334.2969 123.7344,334.3906 C123.3125,334.6563 122.625,334.7813 121.8594,334.7813 C119.8125,334.7813 118.5156,333.6875 118.5156,331.9844 L118.5156,330.8906 C118.5156,329.1094 119.7656,327.7969 121.5,327.7969 C122.0781,327.7969 122.6875,327.9531 123.1563,328.2031 C123.6406,328.4844 123.8125,328.7031 123.9063,329.1094 C123.9688,329.5156 124,329.6406 124.1406,329.7656 C124.2813,329.9063 124.5156,330.0156 124.7344,330.0156 C125,330.0156 125.2656,329.875 125.4375,329.6563 C125.5469,329.5 125.5781,329.3125 125.5781,328.8906 L125.5781,327.4688 C125.5781,327.0313 125.5625,326.9063 125.4688,326.75 C125.3125,326.4844 125.0313,326.3438 124.7344,326.3438 C124.4375,326.3438 124.2344,326.4375 124.0156,326.75 L123.8438,326.6719 Z " fill="#000000"/><text fill="#000000" font-family="sans-serif" font-size="12" lengthAdjust="spacing" textLength="25" x="135.5" y="335.1543">Map</text><rect fill="#FFFFFF" height="15.9688" style="stroke:#000000;stroke-width:1.0;stroke-dasharray:2.0,2.0;" width="191" x="168.5" y="312"/><text fill="#000000" font-family="sans-serif" font-size="12" font-style="italic" lengthAdjust="spacing" textLength="189" x="169.5" y="324.1387">nom:String,categorie:Categorie</text><line style="stroke:#A80036;stroke-width:1.5;" x1="107.5" x2="355.5" y1="347" y2="347"/><line style="stroke:#A80036;stroke-width:1.5;" x1="107.5" x2="355.5" y1="355" y2="355"/><ellipse cx="117.5" cy="366" fill="#84BE84" rx="3" ry="3" style="stroke:#038048;stroke-width:1.0;"/><text fill="#000000" font-family="sans-serif" font-size="11" lengthAdjust="spacing" textLength="151" x="126.5" y="369.2104">get(nom:String): Categorie</text><!--MD5=[f18699e8babcea6db97efcac22f3a62a]
class MCH--><rect codeLine="11" fill="#FEFECE" filter="url(#flbinnuzpwvei)" height="60.8047" id="MCH" style="stroke:#A80036;stroke-width:1.5;" width="264" x="645.5" y="561"/><ellipse cx="660.5" cy="577" fill="#ADD1B2" rx="11" ry="11" style="stroke:#A80036;stroke-width:1.0;"/><path d="M662.8438,572.6719 C661.9063,572.2344 661.3125,572.0938 660.4375,572.0938 C657.8125,572.0938 655.8125,574.1719 655.8125,576.8906 L655.8125,578.0156 C655.8125,580.5938 657.9219,582.4844 660.8125,582.4844 C662.0313,582.4844 663.1875,582.1875 663.9375,581.6406 C664.5156,581.2344 664.8438,580.7813 664.8438,580.3906 C664.8438,579.9375 664.4531,579.5469 663.9844,579.5469 C663.7656,579.5469 663.5625,579.625 663.375,579.8125 C662.9219,580.2969 662.9219,580.2969 662.7344,580.3906 C662.3125,580.6563 661.625,580.7813 660.8594,580.7813 C658.8125,580.7813 657.5156,579.6875 657.5156,577.9844 L657.5156,576.8906 C657.5156,575.1094 658.7656,573.7969 660.5,573.7969 C661.0781,573.7969 661.6875,573.9531 662.1563,574.2031 C662.6406,574.4844 662.8125,574.7031 662.9063,575.1094 C662.9688,575.5156 663,575.6406 663.1406,575.7656 C663.2813,575.9063 663.5156,576.0156 663.7344,576.0156 C664,576.0156 664.2656,575.875 664.4375,575.6563 C664.5469,575.5 664.5781,575.3125 664.5781,574.8906 L664.5781,573.4688 C664.5781,573.0313 664.5625,572.9063 664.4688,572.75 C664.3125,572.4844 664.0313,572.3438 663.7344,572.3438 C663.4375,572.3438 663.2344,572.4375 663.0156,572.75 L662.8438,572.6719 Z " fill="#000000"/><text fill="#000000" font-family="sans-serif" font-size="12" lengthAdjust="spacing" textLength="25" x="674.5" y="581.1543">Map</text><rect fill="#FFFFFF" height="15.9688" style="stroke:#000000;stroke-width:1.0;stroke-dasharray:2.0,2.0;" width="205" x="707.5" y="558"/><text fill="#000000" font-family="sans-serif" font-size="12" font-style="italic" lengthAdjust="spacing" textLength="203" x="708.5" y="570.1387">numero:string,chambre:Chambre</text><line style="stroke:#A80036;stroke-width:1.5;" x1="646.5" x2="908.5" y1="593" y2="593"/><line style="stroke:#A80036;stroke-width:1.5;" x1="646.5" x2="908.5" y1="601" y2="601"/><text fill="#000000" font-family="sans-serif" font-size="11" lengthAdjust="spacing" textLength="164" x="651.5" y="615.2104">get(numero:string): Chambre</text><!--MD5=[3110dbef8258a6b966b2e55d3546d21d]
class Hotel--><rect codeLine="15" fill="#FEFECE" filter="url(#flbinnuzpwvei)" height="60.8047" id="Hotel" style="stroke:#A80036;stroke-width:1.5;" width="461" x="599" y="35.5"/><ellipse cx="722.75" cy="51.5" fill="#ADD1B2" rx="11" ry="11" style="stroke:#A80036;stroke-width:1.0;"/><path d="M725.0938,47.1719 C724.1563,46.7344 723.5625,46.5938 722.6875,46.5938 C720.0625,46.5938 718.0625,48.6719 718.0625,51.3906 L718.0625,52.5156 C718.0625,55.0938 720.1719,56.9844 723.0625,56.9844 C724.2813,56.9844 725.4375,56.6875 726.1875,56.1406 C726.7656,55.7344 727.0938,55.2813 727.0938,54.8906 C727.0938,54.4375 726.7031,54.0469 726.2344,54.0469 C726.0156,54.0469 725.8125,54.125 725.625,54.3125 C725.1719,54.7969 725.1719,54.7969 724.9844,54.8906 C724.5625,55.1563 723.875,55.2813 723.1094,55.2813 C721.0625,55.2813 719.7656,54.1875 719.7656,52.4844 L719.7656,51.3906 C719.7656,49.6094 721.0156,48.2969 722.75,48.2969 C723.3281,48.2969 723.9375,48.4531 724.4063,48.7031 C724.8906,48.9844 725.0625,49.2031 725.1563,49.6094 C725.2188,50.0156 725.25,50.1406 725.3906,50.2656 C725.5313,50.4063 725.7656,50.5156 725.9844,50.5156 C726.25,50.5156 726.5156,50.375 726.6875,50.1563 C726.7969,50 726.8281,49.8125 726.8281,49.3906 L726.8281,47.9688 C726.8281,47.5313 726.8125,47.4063 726.7188,47.25 C726.5625,46.9844 726.2813,46.8438 725.9844,46.8438 C725.6875,46.8438 725.4844,46.9375 725.2656,47.25 L725.0938,47.1719 Z " fill="#000000"/><text fill="#000000" font-family="sans-serif" font-size="12" lengthAdjust="spacing" textLength="32" x="743.25" y="55.6543">Hotel</text><rect fill="#FFFFFF" height="15.9688" style="stroke:#000000;stroke-width:1.0;stroke-dasharray:2.0,2.0;" width="171" x="892" y="32.5"/><text fill="#000000" font-family="sans-serif" font-size="12" font-style="italic" lengthAdjust="spacing" textLength="169" x="893" y="44.6387">Conteneur, Object physique</text><line style="stroke:#A80036;stroke-width:1.5;" x1="600" x2="1059" y1="67.5" y2="67.5"/><line style="stroke:#A80036;stroke-width:1.5;" x1="600" x2="1059" y1="75.5" y2="75.5"/><text fill="#000000" font-family="sans-serif" font-size="11" lengthAdjust="spacing" textLength="449" x="605" y="89.7104">[sejour.reservation,category,sejour.dateFin] = TransferChambre(numero:string)</text><!--MD5=[f9ef9660f44628e549271a3193d2c3b4]
class Categorie--><rect codeLine="18" fill="#FEFECE" filter="url(#flbinnuzpwvei)" height="124.8281" id="Categorie" style="stroke:#A80036;stroke-width:1.5;" width="507" x="63" y="1030"/><ellipse cx="185.25" cy="1046" fill="#ADD1B2" rx="11" ry="11" style="stroke:#A80036;stroke-width:1.0;"/><path d="M187.5938,1041.6719 C186.6563,1041.2344 186.0625,1041.0938 185.1875,1041.0938 C182.5625,1041.0938 180.5625,1043.1719 180.5625,1045.8906 L180.5625,1047.0156 C180.5625,1049.5938 182.6719,1051.4844 185.5625,1051.4844 C186.7813,1051.4844 187.9375,1051.1875 188.6875,1050.6406 C189.2656,1050.2344 189.5938,1049.7813 189.5938,1049.3906 C189.5938,1048.9375 189.2031,1048.5469 188.7344,1048.5469 C188.5156,1048.5469 188.3125,1048.625 188.125,1048.8125 C187.6719,1049.2969 187.6719,1049.2969 187.4844,1049.3906 C187.0625,1049.6563 186.375,1049.7813 185.6094,1049.7813 C183.5625,1049.7813 182.2656,1048.6875 182.2656,1046.9844 L182.2656,1045.8906 C182.2656,1044.1094 183.5156,1042.7969 185.25,1042.7969 C185.8281,1042.7969 186.4375,1042.9531 186.9063,1043.2031 C187.3906,1043.4844 187.5625,1043.7031 187.6563,1044.1094 C187.7188,1044.5156 187.75,1044.6406 187.8906,1044.7656 C188.0313,1044.9063 188.2656,1045.0156 188.4844,1045.0156 C188.75,1045.0156 189.0156,1044.875 189.1875,1044.6563 C189.2969,1044.5 189.3281,1044.3125 189.3281,1043.8906 L189.3281,1042.4688 C189.3281,1042.0313 189.3125,1041.9063 189.2188,1041.75 C189.0625,1041.4844 188.7813,1041.3438 188.4844,1041.3438 C188.1875,1041.3438 187.9844,1041.4375 187.7656,1041.75 L187.5938,1041.6719 Z " fill="#000000"/><text fill="#000000" font-family="sans-serif" font-size="12" lengthAdjust="spacing" textLength="59" x="205.75" y="1050.1543">Categorie</text><rect fill="#FFFFFF" height="15.9688" style="stroke:#000000;stroke-width:1.0;stroke-dasharray:2.0,2.0;" width="193" x="380" y="1027"/><text fill="#000000" font-family="sans-serif" font-size="12" font-style="italic" lengthAdjust="spacing" textLength="122" x="381" y="1039.1387">Description d'entité,</text><text fill="#000000" font-family="sans-serif" font-size="12" font-style="italic" font-weight="bold" lengthAdjust="spacing" textLength="69" x="503" y="1039.1387">Catalogue</text><line style="stroke:#A80036;stroke-width:1.5;" x1="64" x2="569" y1="1062" y2="1062"/><rect fill="none" height="6" style="stroke:#C82930;stroke-width:1.0;" width="6" x="71" y="1070"/><text fill="#000000" font-family="sans-serif" font-size="11" lengthAdjust="spacing" textLength="65" x="83" y="1076.2104">nom: String</text><line style="stroke:#A80036;stroke-width:1.5;" x1="64" x2="569" y1="1082.8047" y2="1082.8047"/><ellipse cx="74" cy="1093.8047" fill="#84BE84" rx="3" ry="3" style="stroke:#038048;stroke-width:1.0;"/><text fill="#000000" font-family="sans-serif" font-size="11" lengthAdjust="spacing" textLength="370" x="83" y="1097.0151">getChambreLibre(dateArrivé: String,dateDepart:String): Chambre</text><ellipse cx="74" cy="1106.6094" fill="#84BE84" rx="3" ry="3" style="stroke:#038048;stroke-width:1.0;"/><text fill="#000000" font-family="sans-serif" font-size="11" lengthAdjust="spacing" textLength="481" x="83" y="1109.8198">getChambresLibre(quantity:Integer, dateArrivé: String,dateDepart:String): [Chambre]</text><text fill="#000000" font-family="sans-serif" font-size="11" lengthAdjust="spacing" textLength="165" x="83" y="1122.6245">ch = getChambreDisponible(</text><text fill="#000000" font-family="sans-serif" font-size="11" lengthAdjust="spacing" textLength="102" x="83" y="1135.4292">maintenant:string,</text><text fill="#000000" font-family="sans-serif" font-size="11" lengthAdjust="spacing" textLength="80" x="83" y="1148.2339">dateFin:string)</text><!--MD5=[9c46470aa33a0c75e6d1dfdefc2f9c22]
class Reservation--><rect codeLine="25" fill="#FEFECE" filter="url(#flbinnuzpwvei)" height="124.8281" id="Reservation" style="stroke:#A80036;stroke-width:1.5;" width="501" x="280" y="406"/><ellipse cx="453.75" cy="422" fill="#ADD1B2" rx="11" ry="11" style="stroke:#A80036;stroke-width:1.0;"/><path d="M456.0938,417.6719 C455.1563,417.2344 454.5625,417.0938 453.6875,417.0938 C451.0625,417.0938 449.0625,419.1719 449.0625,421.8906 L449.0625,423.0156 C449.0625,425.5938 451.1719,427.4844 454.0625,427.4844 C455.2813,427.4844 456.4375,427.1875 457.1875,426.6406 C457.7656,426.2344 458.0938,425.7813 458.0938,425.3906 C458.0938,424.9375 457.7031,424.5469 457.2344,424.5469 C457.0156,424.5469 456.8125,424.625 456.625,424.8125 C456.1719,425.2969 456.1719,425.2969 455.9844,425.3906 C455.5625,425.6563 454.875,425.7813 454.1094,425.7813 C452.0625,425.7813 450.7656,424.6875 450.7656,422.9844 L450.7656,421.8906 C450.7656,420.1094 452.0156,418.7969 453.75,418.7969 C454.3281,418.7969 454.9375,418.9531 455.4063,419.2031 C455.8906,419.4844 456.0625,419.7031 456.1563,420.1094 C456.2188,420.5156 456.25,420.6406 456.3906,420.7656 C456.5313,420.9063 456.7656,421.0156 456.9844,421.0156 C457.25,421.0156 457.5156,420.875 457.6875,420.6563 C457.7969,420.5 457.8281,420.3125 457.8281,419.8906 L457.8281,418.4688 C457.8281,418.0313 457.8125,417.9063 457.7188,417.75 C457.5625,417.4844 457.2813,417.3438 456.9844,417.3438 C456.6875,417.3438 456.4844,417.4375 456.2656,417.75 L456.0938,417.6719 Z " fill="#000000"/><text fill="#000000" font-family="sans-serif" font-size="12" lengthAdjust="spacing" textLength="71" x="474.25" y="426.1543">Reservation</text><rect fill="#FFFFFF" height="15.9688" style="stroke:#000000;stroke-width:1.0;stroke-dasharray:2.0,2.0;" width="72" x="712" y="403"/><text fill="#000000" font-family="sans-serif" font-size="12" font-style="italic" lengthAdjust="spacing" textLength="70" x="713" y="415.1387">Transaction</text><line style="stroke:#A80036;stroke-width:1.5;" x1="281" x2="780" y1="438" y2="438"/><rect fill="none" height="6" style="stroke:#C82930;stroke-width:1.0;" width="6" x="288" y="446"/><text fill="#000000" font-family="sans-serif" font-size="11" lengthAdjust="spacing" textLength="126" x="300" y="452.2104">noConfirmation: String</text><line style="stroke:#A80036;stroke-width:1.5;" x1="281" x2="780" y1="458.8047" y2="458.8047"/><ellipse cx="291" cy="469.8047" fill="#84BE84" rx="3" ry="3" style="stroke:#038048;stroke-width:1.0;"/><text fill="#000000" font-family="sans-serif" font-size="11" lengthAdjust="spacing" textLength="169" x="300" y="473.0151">Reservation(commis:Commis)</text><ellipse cx="291" cy="482.6094" fill="#84BE84" rx="3" ry="3" style="stroke:#038048;stroke-width:1.0;"/><text fill="#000000" font-family="sans-serif" font-size="11" lengthAdjust="spacing" textLength="413" x="300" y="485.8198">Reservation(ch:Chambre,c:Commis,dateArrive:String, dateDepart: String)</text><ellipse cx="291" cy="495.4141" fill="#84BE84" rx="3" ry="3" style="stroke:#038048;stroke-width:1.0;"/><text fill="#000000" font-family="sans-serif" font-size="11" lengthAdjust="spacing" textLength="475" x="300" y="498.6245">ajouterChambres([ch]:Chambre,dateArrive:String, dateDepart: String): r:Reservation</text><ellipse cx="291" cy="508.2188" fill="#84BE84" rx="3" ry="3" style="stroke:#038048;stroke-width:1.0;"/><text fill="#000000" font-family="sans-serif" font-size="11" lengthAdjust="spacing" textLength="175" x="300" y="511.4292">confirmerReservation(cl:Client)</text><rect fill="#F24D5C" height="6" style="stroke:#C82930;stroke-width:1.0;" width="6" x="288" y="518.0234"/><text fill="#000000" font-family="sans-serif" font-size="11" lengthAdjust="spacing" textLength="113" x="300" y="524.2339">setNoConfirmation()</text><!--MD5=[b9205f29e8b31169249c1c67a324dd73]
class Sejour--><rect codeLine="34" fill="#FEFECE" filter="url(#flbinnuzpwvei)" height="163.2422" id="Sejour" style="stroke:#A80036;stroke-width:1.5;" width="199" x="431" y="652"/><ellipse cx="446" cy="668" fill="#ADD1B2" rx="11" ry="11" style="stroke:#A80036;stroke-width:1.0;"/><path d="M448.3438,663.6719 C447.4063,663.2344 446.8125,663.0938 445.9375,663.0938 C443.3125,663.0938 441.3125,665.1719 441.3125,667.8906 L441.3125,669.0156 C441.3125,671.5938 443.4219,673.4844 446.3125,673.4844 C447.5313,673.4844 448.6875,673.1875 449.4375,672.6406 C450.0156,672.2344 450.3438,671.7813 450.3438,671.3906 C450.3438,670.9375 449.9531,670.5469 449.4844,670.5469 C449.2656,670.5469 449.0625,670.625 448.875,670.8125 C448.4219,671.2969 448.4219,671.2969 448.2344,671.3906 C447.8125,671.6563 447.125,671.7813 446.3594,671.7813 C444.3125,671.7813 443.0156,670.6875 443.0156,668.9844 L443.0156,667.8906 C443.0156,666.1094 444.2656,664.7969 446,664.7969 C446.5781,664.7969 447.1875,664.9531 447.6563,665.2031 C448.1406,665.4844 448.3125,665.7031 448.4063,666.1094 C448.4688,666.5156 448.5,666.6406 448.6406,666.7656 C448.7813,666.9063 449.0156,667.0156 449.2344,667.0156 C449.5,667.0156 449.7656,666.875 449.9375,666.6563 C450.0469,666.5 450.0781,666.3125 450.0781,665.8906 L450.0781,664.4688 C450.0781,664.0313 450.0625,663.9063 449.9688,663.75 C449.8125,663.4844 449.5313,663.3438 449.2344,663.3438 C448.9375,663.3438 448.7344,663.4375 448.5156,663.75 L448.3438,663.6719 Z " fill="#000000"/><text fill="#000000" font-family="sans-serif" font-size="12" lengthAdjust="spacing" textLength="39" x="460" y="672.1543">Sejour</text><rect fill="#FFFFFF" height="15.9688" style="stroke:#000000;stroke-width:1.0;stroke-dasharray:2.0,2.0;" width="126" x="507" y="649"/><text fill="#000000" font-family="sans-serif" font-size="12" font-style="italic" lengthAdjust="spacing" textLength="124" x="508" y="661.1387">Ligne de transaction</text><line style="stroke:#A80036;stroke-width:1.5;" x1="432" x2="629" y1="684" y2="684"/><rect fill="none" height="6" style="stroke:#C82930;stroke-width:1.0;" width="6" x="439" y="692"/><text fill="#000000" font-family="sans-serif" font-size="11" lengthAdjust="spacing" textLength="128" x="451" y="698.2104">reservation_id:number</text><rect fill="none" height="6" style="stroke:#C82930;stroke-width:1.0;" width="6" x="439" y="704.8047"/><text fill="#000000" font-family="sans-serif" font-size="11" lengthAdjust="spacing" textLength="113" x="451" y="711.0151">chambre_id:number</text><rect fill="none" height="6" style="stroke:#C82930;stroke-width:1.0;" width="6" x="439" y="717.6094"/><text fill="#000000" font-family="sans-serif" font-size="11" lengthAdjust="spacing" textLength="95" x="451" y="723.8198">dateArrive: Date</text><rect fill="none" height="6" style="stroke:#C82930;stroke-width:1.0;" width="6" x="439" y="730.4141"/><text fill="#000000" font-family="sans-serif" font-size="11" lengthAdjust="spacing" textLength="100" x="451" y="736.6245">dateDepart: Date</text><line style="stroke:#A80036;stroke-width:1.5;" x1="432" x2="629" y1="743.2188" y2="743.2188"/><ellipse cx="442" cy="754.2188" fill="#84BE84" rx="3" ry="3" style="stroke:#038048;stroke-width:1.0;"/><text fill="#000000" font-family="sans-serif" font-size="11" lengthAdjust="spacing" textLength="121" x="451" y="757.4292">Create(r:Reservation,</text><text fill="#000000" font-family="sans-serif" font-size="11" lengthAdjust="spacing" textLength="97" x="451" y="770.2339">dateArrive:string,</text><text fill="#000000" font-family="sans-serif" font-size="11" lengthAdjust="spacing" textLength="102" x="451" y="783.0386">dateDepart:string,</text><text fill="#000000" font-family="sans-serif" font-size="11" lengthAdjust="spacing" textLength="172" x="451" y="795.8433">noNouvelleChambre:number )</text><ellipse cx="442" cy="805.4375" fill="#84BE84" rx="3" ry="3" style="stroke:#038048;stroke-width:1.0;"/><text fill="#000000" font-family="sans-serif" font-size="11" lengthAdjust="spacing" textLength="94" x="451" y="808.6479">terminerSejour()</text><!--MD5=[aeb2a05b656f26b4e931c999627a7b50]
class Commis--><rect codeLine="43" fill="#FEFECE" filter="url(#flbinnuzpwvei)" height="48" id="Commis" style="stroke:#A80036;stroke-width:1.5;" width="109" x="599" y="218"/><ellipse cx="614" cy="234" fill="#ADD1B2" rx="11" ry="11" style="stroke:#A80036;stroke-width:1.0;"/><path d="M616.3438,229.6719 C615.4063,229.2344 614.8125,229.0938 613.9375,229.0938 C611.3125,229.0938 609.3125,231.1719 609.3125,233.8906 L609.3125,235.0156 C609.3125,237.5938 611.4219,239.4844 614.3125,239.4844 C615.5313,239.4844 616.6875,239.1875 617.4375,238.6406 C618.0156,238.2344 618.3438,237.7813 618.3438,237.3906 C618.3438,236.9375 617.9531,236.5469 617.4844,236.5469 C617.2656,236.5469 617.0625,236.625 616.875,236.8125 C616.4219,237.2969 616.4219,237.2969 616.2344,237.3906 C615.8125,237.6563 615.125,237.7813 614.3594,237.7813 C612.3125,237.7813 611.0156,236.6875 611.0156,234.9844 L611.0156,233.8906 C611.0156,232.1094 612.2656,230.7969 614,230.7969 C614.5781,230.7969 615.1875,230.9531 615.6563,231.2031 C616.1406,231.4844 616.3125,231.7031 616.4063,232.1094 C616.4688,232.5156 616.5,232.6406 616.6406,232.7656 C616.7813,232.9063 617.0156,233.0156 617.2344,233.0156 C617.5,233.0156 617.7656,232.875 617.9375,232.6563 C618.0469,232.5 618.0781,232.3125 618.0781,231.8906 L618.0781,230.4688 C618.0781,230.0313 618.0625,229.9063 617.9688,229.75 C617.8125,229.4844 617.5313,229.3438 617.2344,229.3438 C616.9375,229.3438 616.7344,229.4375 616.5156,229.75 L616.3438,229.6719 Z " fill="#000000"/><text fill="#000000" font-family="sans-serif" font-size="12" lengthAdjust="spacing" textLength="48" x="628" y="238.1543">Commis</text><rect fill="#FFFFFF" height="15.9688" style="stroke:#000000;stroke-width:1.0;stroke-dasharray:2.0,2.0;" width="27" x="684" y="215"/><text fill="#000000" font-family="sans-serif" font-size="12" font-style="italic" lengthAdjust="spacing" textLength="25" x="685" y="227.1387">Role</text><line style="stroke:#A80036;stroke-width:1.5;" x1="600" x2="707" y1="250" y2="250"/><line style="stroke:#A80036;stroke-width:1.5;" x1="600" x2="707" y1="258" y2="258"/><!--MD5=[5caef05668a3671b919925ac15293d4d]
class Chambre--><rect codeLine="44" fill="#FEFECE" filter="url(#flbinnuzpwvei)" height="60.8047" id="Chambre" style="stroke:#A80036;stroke-width:1.5;" width="474" x="293.5" y="892"/><ellipse cx="308.5" cy="908" fill="#ADD1B2" rx="11" ry="11" style="stroke:#A80036;stroke-width:1.0;"/><path d="M310.8438,903.6719 C309.9063,903.2344 309.3125,903.0938 308.4375,903.0938 C305.8125,903.0938 303.8125,905.1719 303.8125,907.8906 L303.8125,909.0156 C303.8125,911.5938 305.9219,913.4844 308.8125,913.4844 C310.0313,913.4844 311.1875,913.1875 311.9375,912.6406 C312.5156,912.2344 312.8438,911.7813 312.8438,911.3906 C312.8438,910.9375 312.4531,910.5469 311.9844,910.5469 C311.7656,910.5469 311.5625,910.625 311.375,910.8125 C310.9219,911.2969 310.9219,911.2969 310.7344,911.3906 C310.3125,911.6563 309.625,911.7813 308.8594,911.7813 C306.8125,911.7813 305.5156,910.6875 305.5156,908.9844 L305.5156,907.8906 C305.5156,906.1094 306.7656,904.7969 308.5,904.7969 C309.0781,904.7969 309.6875,904.9531 310.1563,905.2031 C310.6406,905.4844 310.8125,905.7031 310.9063,906.1094 C310.9688,906.5156 311,906.6406 311.1406,906.7656 C311.2813,906.9063 311.5156,907.0156 311.7344,907.0156 C312,907.0156 312.2656,906.875 312.4375,906.6563 C312.5469,906.5 312.5781,906.3125 312.5781,905.8906 L312.5781,904.4688 C312.5781,904.0313 312.5625,903.9063 312.4688,903.75 C312.3125,903.4844 312.0313,903.3438 311.7344,903.3438 C311.4375,903.3438 311.2344,903.4375 311.0156,903.75 L310.8438,903.6719 Z " fill="#000000"/><text fill="#000000" font-family="sans-serif" font-size="12" lengthAdjust="spacing" textLength="54" x="322.5" y="912.1543">Chambre</text><rect fill="#FFFFFF" height="15.9688" style="stroke:#000000;stroke-width:1.0;stroke-dasharray:2.0,2.0;" width="386" x="384.5" y="889"/><text fill="#000000" font-family="sans-serif" font-size="12" font-style="italic" lengthAdjust="spacing" textLength="384" x="385.5" y="901.1387">Objet physique, Contenu dans l'hotel, Produit d'une transaction</text><line style="stroke:#A80036;stroke-width:1.5;" x1="294.5" x2="766.5" y1="924" y2="924"/><line style="stroke:#A80036;stroke-width:1.5;" x1="294.5" x2="766.5" y1="932" y2="932"/><text fill="#000000" font-family="sans-serif" font-size="11" lengthAdjust="spacing" textLength="281" x="299.5" y="946.2104">[category,sejour] = TerminerSejourPourTransfer()</text><!--MD5=[ed6624c6556d5e7b1bd23032162d20b7]
class Client--><rect codeLine="47" fill="#FEFECE" filter="url(#flbinnuzpwvei)" height="86.4141" id="Client" style="stroke:#A80036;stroke-width:1.5;" width="226" x="337.5" y="199"/><ellipse cx="415.25" cy="215" fill="#ADD1B2" rx="11" ry="11" style="stroke:#A80036;stroke-width:1.0;"/><path d="M417.5938,210.6719 C416.6563,210.2344 416.0625,210.0938 415.1875,210.0938 C412.5625,210.0938 410.5625,212.1719 410.5625,214.8906 L410.5625,216.0156 C410.5625,218.5938 412.6719,220.4844 415.5625,220.4844 C416.7813,220.4844 417.9375,220.1875 418.6875,219.6406 C419.2656,219.2344 419.5938,218.7813 419.5938,218.3906 C419.5938,217.9375 419.2031,217.5469 418.7344,217.5469 C418.5156,217.5469 418.3125,217.625 418.125,217.8125 C417.6719,218.2969 417.6719,218.2969 417.4844,218.3906 C417.0625,218.6563 416.375,218.7813 415.6094,218.7813 C413.5625,218.7813 412.2656,217.6875 412.2656,215.9844 L412.2656,214.8906 C412.2656,213.1094 413.5156,211.7969 415.25,211.7969 C415.8281,211.7969 416.4375,211.9531 416.9063,212.2031 C417.3906,212.4844 417.5625,212.7031 417.6563,213.1094 C417.7188,213.5156 417.75,213.6406 417.8906,213.7656 C418.0313,213.9063 418.2656,214.0156 418.4844,214.0156 C418.75,214.0156 419.0156,213.875 419.1875,213.6563 C419.2969,213.5 419.3281,213.3125 419.3281,212.8906 L419.3281,211.4688 C419.3281,211.0313 419.3125,210.9063 419.2188,210.75 C419.0625,210.4844 418.7813,210.3438 418.4844,210.3438 C418.1875,210.3438 417.9844,210.4375 417.7656,210.75 L417.5938,210.6719 Z " fill="#000000"/><text fill="#000000" font-family="sans-serif" font-size="12" lengthAdjust="spacing" textLength="33" x="435.75" y="219.1543">Client</text><rect fill="#FFFFFF" height="15.9688" style="stroke:#000000;stroke-width:1.0;stroke-dasharray:2.0,2.0;" width="27" x="539.5" y="196"/><text fill="#000000" font-family="sans-serif" font-size="12" font-style="italic" lengthAdjust="spacing" textLength="25" x="540.5" y="208.1387">Role</text><line style="stroke:#A80036;stroke-width:1.5;" x1="338.5" x2="562.5" y1="231" y2="231"/><rect fill="none" height="6" style="stroke:#C82930;stroke-width:1.0;" width="6" x="345.5" y="239"/><text fill="#000000" font-family="sans-serif" font-size="11" lengthAdjust="spacing" textLength="59" x="357.5" y="245.2104">nom:string</text><rect fill="none" height="6" style="stroke:#C82930;stroke-width:1.0;" width="6" x="345.5" y="251.8047"/><text fill="#000000" font-family="sans-serif" font-size="11" lengthAdjust="spacing" textLength="93" x="357.5" y="258.0151">telephone:string</text><line style="stroke:#A80036;stroke-width:1.5;" x1="338.5" x2="562.5" y1="264.6094" y2="264.6094"/><ellipse cx="348.5" cy="275.6094" fill="#84BE84" rx="3" ry="3" style="stroke:#038048;stroke-width:1.0;"/><text fill="#000000" font-family="sans-serif" font-size="11" lengthAdjust="spacing" textLength="200" x="357.5" y="278.8198">Client(nom:string, telephone:string)</text><!--MD5=[055c0b1967098237a9b6a13f761f0ccc]
link Hotel to MCH--><path codeLine="53" d="M830.293,96.69 C831.675,170.82 831.705,369.682 798.5,531 C796.799,539.263 794.221,547.94 791.447,556.033 " fill="none" id="Hotel-to-MCH" style="stroke:#A80036;stroke-width:1.0;"/><polygon fill="#A80036" points="789.701,560.988,796.4644,553.8286,791.3625,556.2721,788.919,551.1702,789.701,560.988" style="stroke:#A80036;stroke-width:1.0;"/><!--MD5=[5ad0dae85d711ff18d6f55901869f114]
link MCH to Chambre--><path codeLine="54" d="M771.611,622.312 C759.48,676.566 726.907,792.259 658.5,862 C647.862,872.845 634.87,881.927 621.289,889.464 " fill="none" id="MCH-to-Chambre" style="stroke:#A80036;stroke-width:1.0;"/><polygon fill="#A80036" points="616.663,891.961,626.4828,891.2048,621.0626,889.5855,622.6819,884.1653,616.663,891.961" style="stroke:#A80036;stroke-width:1.0;"/><text fill="#000000" font-family="sans-serif" font-size="13" lengthAdjust="spacing" textLength="54" x="764.5" y="738.0669">possède</text><text fill="#000000" font-family="sans-serif" font-size="13" lengthAdjust="spacing" textLength="7" x="627.7455" y="880.7428">*</text><!--MD5=[0a1ca1dec3496909bbcff8f1a6972e9c]
reverse link Chambre to Categorie--><path codeLine="55" d="M488.543,956.438 C461.957,977.309 426.74,1004.957 395.095,1029.799 " fill="none" id="Chambre-backto-Categorie" style="stroke:#A80036;stroke-width:1.0;"/><polygon fill="#A80036" points="492.734,953.148,483.1847,955.5587,488.801,956.2353,488.1244,961.8515,492.734,953.148" style="stroke:#A80036;stroke-width:1.0;"/><text fill="#000000" font-family="sans-serif" font-size="13" lengthAdjust="spacing" textLength="66" x="450.5" y="996.0669">appartient</text><text fill="#000000" font-family="sans-serif" font-size="13" lengthAdjust="spacing" textLength="7" x="477.6098" y="972.7576">*</text><!--MD5=[9ee890e3271cd9be3ed17d9ceb0af7d4]
reverse link Client to Reservation--><path codeLine="56" d="M449.596,290.15 C450.527,316.22 454.092,348.753 464.5,376 C468.414,386.246 473.774,396.389 479.76,405.982 " fill="none" id="Client-backto-Reservation" style="stroke:#A80036;stroke-width:1.0;"/><polygon fill="#A80036" points="449.444,285.026,445.7132,294.1409,449.5925,290.0238,453.7096,293.9032,449.444,285.026" style="stroke:#A80036;stroke-width:1.0;"/><text fill="#000000" font-family="sans-serif" font-size="13" lengthAdjust="spacing" textLength="61" x="465.5" y="350.0669">demande</text><!--MD5=[68baab2b76d878f08dc09388ccbc52c4]
reverse link Commis to Reservation--><path codeLine="57" d="M638.19,270.944 C619.845,304.428 588.563,361.523 564.427,405.576 " fill="none" id="Commis-backto-Reservation" style="stroke:#A80036;stroke-width:1.0;"/><polygon fill="#A80036" points="640.8,266.18,632.9668,272.1499,638.3969,270.5647,639.9822,275.9948,640.8,266.18" style="stroke:#A80036;stroke-width:1.0;"/><text fill="#000000" font-family="sans-serif" font-size="13" lengthAdjust="spacing" textLength="28" x="615.5" y="350.0669">cree</text><!--MD5=[6c051db2d685ac22b70f1baef8e033a7]
reverse link Hotel to Commis--><path codeLine="58" d="M790.267,105.79 C755.521,140.14 705.952,189.144 677.012,217.755 " fill="none" id="Hotel-backto-Commis" style="stroke:#A80036;stroke-width:1.0;"/><polygon fill="#A80036" points="799.644,96.52,792.5651,97.8946,791.1114,104.9577,798.1902,103.583,799.644,96.52" style="stroke:#A80036;stroke-width:1.0;"/><text fill="#000000" font-family="sans-serif" font-size="13" lengthAdjust="spacing" textLength="51" x="742.5" y="165.0669">Emploie</text><text fill="#000000" font-family="sans-serif" font-size="13" lengthAdjust="spacing" textLength="7" x="674.8899" y="207.1002">*</text><!--MD5=[7ee491c9e61831bfd71124da6278b8d9]
link Reservation to Sejour--><path codeLine="59" d="M530.5,531.162 C530.5,565.598 530.5,609.037 530.5,646.743 " fill="none" id="Reservation-to-Sejour" style="stroke:#A80036;stroke-width:1.0;"/><polygon fill="#A80036" points="530.5,651.786,534.5,642.786,530.5,646.786,526.5,642.786,530.5,651.786" style="stroke:#A80036;stroke-width:1.0;"/><text fill="#000000" font-family="sans-serif" font-size="13" lengthAdjust="spacing" textLength="52" x="531.5" y="596.0669">contient</text><text fill="#000000" font-family="sans-serif" font-size="13" lengthAdjust="spacing" textLength="8" x="522.0625" y="550.9195">1</text><text fill="#000000" font-family="sans-serif" font-size="13" lengthAdjust="spacing" textLength="7" x="523.1883" y="640.9024">*</text><!--MD5=[6baaae9d9bab32f78118ff49bc3eea8f]
reverse link Sejour to Chambre--><path codeLine="60" d="M530.5,820.292 C530.5,846.009 530.5,872.509 530.5,891.939 " fill="none" id="Sejour-backto-Chambre" style="stroke:#A80036;stroke-width:1.0;"/><polygon fill="#A80036" points="530.5,815.162,526.5,824.162,530.5,820.162,534.5,824.162,530.5,815.162" style="stroke:#A80036;stroke-width:1.0;"/><polygon fill="#000000" points="535.5,858.5664,538.4389,849.5213,532.5611,849.5213,535.5,858.5664" style="stroke:#000000;stroke-width:1.0;"/><text fill="#000000" font-family="sans-serif" font-size="13" lengthAdjust="spacing" textLength="105" x="544.5" y="858.0669">est résservé par</text><text fill="#000000" font-family="sans-serif" font-size="13" lengthAdjust="spacing" textLength="7" x="523.1773" y="835.4435">*</text><text fill="#000000" font-family="sans-serif" font-size="13" lengthAdjust="spacing" textLength="8" x="521.625" y="880.7159">1</text><!--MD5=[8eb908f5b6082107411653d29f28e591]
link ControleurReservation to MC--><path codeLine="61" d="M267.556,122.16 C258.504,177.973 244.787,262.565 237.146,309.686 " fill="none" id="ControleurReservation-to-MC" style="stroke:#A80036;stroke-width:1.0;"/><polygon fill="#A80036" points="236.335,314.684,241.7234,306.4399,237.135,309.7484,233.8265,305.16,236.335,314.684" style="stroke:#A80036;stroke-width:1.0;"/><!--MD5=[a8407828f39a50610473eaf782cca2cc]
link ControleurReservation to Commis--><path codeLine="62" d="M412.311,122.11 C465.393,144.65 526.395,171.797 580.5,199 C590.469,204.012 600.981,209.768 610.827,215.379 " fill="none" id="ControleurReservation-to-Commis" style="stroke:#A80036;stroke-width:1.0;"/><polygon fill="#A80036" points="615.3,217.944,609.4825,209.9969,610.9626,215.4567,605.5028,216.9368,615.3,217.944" style="stroke:#A80036;stroke-width:1.0;"/><!--MD5=[fc715ce0d9c80067c59184edcd92d574]
link MC to Categorie--><path codeLine="63" d="M230.5,376.168 C229.041,422.094 226.5,513.175 226.5,590.5 C226.5,590.5 226.5,590.5 226.5,923.5 C226.5,959.926 243.143,996.09 262.115,1025.482 " fill="none" id="MC-to-Categorie" style="stroke:#A80036;stroke-width:1.0;"/><polygon fill="#A80036" points="264.929,1029.769,263.3357,1020.0499,262.1859,1025.5886,256.6471,1024.4388,264.929,1029.769" style="stroke:#A80036;stroke-width:1.0;"/><text fill="#000000" font-family="sans-serif" font-size="13" lengthAdjust="spacing" textLength="7" x="251.5614" y="1018.733">*</text><!--MD5=[931e6cf46fcdc1dbd2816c108e9afa9d]
@startuml
class ControleurReservation<Controleur>{
  +demarrerReservation()
  +reserverChambre(dateArrive:string, dateDepart:string, categorie: String)
  +reserverChambres(quantity:Integer,dateArrive:String, dateDepart:String, categorie: String)
  +confirmerReservation(nom:string, telephone: string)
  transfererChambre(noChambreActuel:string, noNouvelleChambre:string)
}
class "Map<nom:String,categorie:Categorie>" as MC {
  +get(nom:String): Categorie
}
class "Map<numero:string,chambre:Chambre>" as MCH {
  get(numero:string): Chambre
}

class Hotel <Conteneur, Object physique>{
  [sejour.reservation,category,sejour.dateFin] = TransferChambre(numero:string)
}
class Categorie <Description d'entité,**Catalogue**> {
  -nom: String
  +getChambreLibre(dateArrivé: String,dateDepart:String): Chambre
  +getChambresLibre(quantity:Integer, dateArrivé: String,dateDepart:String): [Chambre]
   ch = getChambreDisponible(\nmaintenant:string, \ndateFin:string)

}
class Reservation <Transaction>{
  -noConfirmation: String
  +Reservation(commis:Commis)
  +Reservation(ch:Chambre,c:Commis,dateArrive:String, dateDepart: String)
  +ajouterChambres([ch]:Chambre,dateArrive:String, dateDepart: String): r:Reservation
  +confirmerReservation(cl:Client)
  -setNoConfirmation()
}

class Sejour <Ligne de transaction>{
  -reservation_id:number
  -chambre_id:number
  -dateArrive: Date
  -dateDepart: Date
  +Create(r:Reservation,\ndateArrive:string, \ndateDepart:string, \nnoNouvelleChambre:number )
  +terminerSejour()
}

class Commis <Role>
class Chambre <Objet physique, Contenu dans l'hotel, Produit d'une transaction>{
  [category,sejour] = TerminerSejourPourTransfer()
}
class Client <Role> {
  -nom:string
  -telephone:string
  +Client(nom:string, telephone:string)
}

Hotel  - ->  MCH
MCH - -> "*" Chambre: possède
Chambre "*" <- - Categorie: appartient
Client  <- -  Reservation: demande
Commis  <- -  Reservation: cree
Hotel  *- - "*" Commis : Emploie
Reservation "1" - -> "*" Sejour: contient
Sejour"*" <- - "1" Chambre: est résservé par >
ControleurReservation - -> MC
ControleurReservation - -> Commis
MC - -> "*" Categorie
@enduml

PlantUML version 1.2021.2beta2(Unknown compile time)
(GPL source distribution)
Java Runtime: Java(TM) SE Runtime Environment
JVM: Java HotSpot(TM) 64-Bit Server VM
Default Encoding: UTF-8
Language: en
Country: US
--></g></svg>