<?xml version="1.0" encoding="UTF-8" standalone="no"?><svg xmlns="http://www.w3.org/2000/svg" xmlns:xlink="http://www.w3.org/1999/xlink" contentScriptType="application/ecmascript" contentStyleType="text/css" height="362px" preserveAspectRatio="none" style="width:551px;height:362px;" version="1.1" viewBox="0 0 551 362" width="551px" zoomAndPan="magnify"><defs><filter height="300%" id="fj4829an5gt99" width="300%" x="-1" y="-1"><feGaussianBlur result="blurOut" stdDeviation="2.0"/><feColorMatrix in="blurOut" result="blurOut2" type="matrix" values="0 0 0 0 0 0 0 0 0 0 0 0 0 0 0 0 0 0 .4 0"/><feOffset dx="4.0" dy="4.0" in="blurOut2" result="blurOut3"/><feBlend in="SourceGraphic" in2="blurOut3" mode="normal"/></filter></defs><g><text fill="#000000" font-family="sans-serif" font-size="18" lengthAdjust="spacing" textLength="354" x="92.25" y="16.708">Solution avec une classe d'association</text><!--MD5=[9c46470aa33a0c75e6d1dfdefc2f9c22]
class Reservation--><rect codeLine="2" fill="#FEFECE" filter="url(#fj4829an5gt99)" height="60.8047" id="Reservation" style="stroke:#A80036;stroke-width:1.5;" width="177" x="152.5" y="30.9531"/><ellipse cx="167.5" cy="46.9531" fill="#ADD1B2" rx="11" ry="11" style="stroke:#A80036;stroke-width:1.0;"/><path d="M169.8438,42.625 C168.9063,42.1875 168.3125,42.0469 167.4375,42.0469 C164.8125,42.0469 162.8125,44.125 162.8125,46.8438 L162.8125,47.9688 C162.8125,50.5469 164.9219,52.4375 167.8125,52.4375 C169.0313,52.4375 170.1875,52.1406 170.9375,51.5938 C171.5156,51.1875 171.8438,50.7344 171.8438,50.3438 C171.8438,49.8906 171.4531,49.5 170.9844,49.5 C170.7656,49.5 170.5625,49.5781 170.375,49.7656 C169.9219,50.25 169.9219,50.25 169.7344,50.3438 C169.3125,50.6094 168.625,50.7344 167.8594,50.7344 C165.8125,50.7344 164.5156,49.6406 164.5156,47.9375 L164.5156,46.8438 C164.5156,45.0625 165.7656,43.75 167.5,43.75 C168.0781,43.75 168.6875,43.9063 169.1563,44.1563 C169.6406,44.4375 169.8125,44.6563 169.9063,45.0625 C169.9688,45.4688 170,45.5938 170.1406,45.7188 C170.2813,45.8594 170.5156,45.9688 170.7344,45.9688 C171,45.9688 171.2656,45.8281 171.4375,45.6094 C171.5469,45.4531 171.5781,45.2656 171.5781,44.8438 L171.5781,43.4219 C171.5781,42.9844 171.5625,42.8594 171.4688,42.7031 C171.3125,42.4375 171.0313,42.2969 170.7344,42.2969 C170.4375,42.2969 170.2344,42.3906 170.0156,42.7031 L169.8438,42.625 Z " fill="#000000"/><text fill="#000000" font-family="sans-serif" font-size="12" lengthAdjust="spacing" textLength="71" x="181.5" y="51.1074">Reservation</text><rect fill="#FFFFFF" height="15.9688" style="stroke:#000000;stroke-width:1.0;stroke-dasharray:2.0,2.0;" width="72" x="260.5" y="27.9531"/><text fill="#000000" font-family="sans-serif" font-size="12" font-style="italic" lengthAdjust="spacing" textLength="70" x="261.5" y="40.0918">Transaction</text><line style="stroke:#A80036;stroke-width:1.5;" x1="153.5" x2="328.5" y1="62.9531" y2="62.9531"/><text fill="#000000" font-family="sans-serif" font-size="11" lengthAdjust="spacing" textLength="126" x="158.5" y="77.1636">noConfirmation: String</text><line style="stroke:#A80036;stroke-width:1.5;" x1="153.5" x2="328.5" y1="83.7578" y2="83.7578"/><!--MD5=[b9205f29e8b31169249c1c67a324dd73]
class Sejour--><rect codeLine="7" fill="#FEFECE" filter="url(#fj4829an5gt99)" height="73.6094" id="Sejour" style="stroke:#A80036;stroke-width:1.5;" width="199" x="338.5" y="152.9531"/><ellipse cx="353.5" cy="168.9531" fill="#ADD1B2" rx="11" ry="11" style="stroke:#A80036;stroke-width:1.0;"/><path d="M355.8438,164.625 C354.9063,164.1875 354.3125,164.0469 353.4375,164.0469 C350.8125,164.0469 348.8125,166.125 348.8125,168.8438 L348.8125,169.9688 C348.8125,172.5469 350.9219,174.4375 353.8125,174.4375 C355.0313,174.4375 356.1875,174.1406 356.9375,173.5938 C357.5156,173.1875 357.8438,172.7344 357.8438,172.3438 C357.8438,171.8906 357.4531,171.5 356.9844,171.5 C356.7656,171.5 356.5625,171.5781 356.375,171.7656 C355.9219,172.25 355.9219,172.25 355.7344,172.3438 C355.3125,172.6094 354.625,172.7344 353.8594,172.7344 C351.8125,172.7344 350.5156,171.6406 350.5156,169.9375 L350.5156,168.8438 C350.5156,167.0625 351.7656,165.75 353.5,165.75 C354.0781,165.75 354.6875,165.9063 355.1563,166.1563 C355.6406,166.4375 355.8125,166.6563 355.9063,167.0625 C355.9688,167.4688 356,167.5938 356.1406,167.7188 C356.2813,167.8594 356.5156,167.9688 356.7344,167.9688 C357,167.9688 357.2656,167.8281 357.4375,167.6094 C357.5469,167.4531 357.5781,167.2656 357.5781,166.8438 L357.5781,165.4219 C357.5781,164.9844 357.5625,164.8594 357.4688,164.7031 C357.3125,164.4375 357.0313,164.2969 356.7344,164.2969 C356.4375,164.2969 356.2344,164.3906 356.0156,164.7031 L355.8438,164.625 Z " fill="#000000"/><text fill="#000000" font-family="sans-serif" font-size="12" lengthAdjust="spacing" textLength="39" x="367.5" y="173.1074">Sejour</text><rect fill="#FFFFFF" height="15.9688" style="stroke:#000000;stroke-width:1.0;stroke-dasharray:2.0,2.0;" width="126" x="414.5" y="149.9531"/><text fill="#000000" font-family="sans-serif" font-size="12" font-style="italic" lengthAdjust="spacing" textLength="124" x="415.5" y="162.0918">Ligne de transaction</text><line style="stroke:#A80036;stroke-width:1.5;" x1="339.5" x2="536.5" y1="184.9531" y2="184.9531"/><text fill="#000000" font-family="sans-serif" font-size="11" lengthAdjust="spacing" textLength="95" x="344.5" y="199.1636">dateArrive: Date</text><text fill="#000000" font-family="sans-serif" font-size="11" lengthAdjust="spacing" textLength="100" x="344.5" y="211.9683">dateDepart: Date</text><line style="stroke:#A80036;stroke-width:1.5;" x1="339.5" x2="536.5" y1="218.5625" y2="218.5625"/><path d="M365,48.9531 L365,74.0859 A0,0 0 0 0 365,74.0859 L435.815,74.0859 L438.57,152.9151 L443.815,74.0859 L515,74.0859 A0,0 0 0 0 515,74.0859 L515,58.9531 L505,48.9531 L365,48.9531 A0,0 0 0 0 365,48.9531 " fill="#FBFB77" filter="url(#fj4829an5gt99)" style="stroke:#A80036;stroke-width:1.0;"/><path d="M505,48.9531 L505,58.9531 L515,58.9531 L505,48.9531 " fill="#FBFB77" style="stroke:#A80036;stroke-width:1.0;"/><text fill="#000000" font-family="sans-serif" font-size="13" lengthAdjust="spacing" textLength="129" x="371" y="66.02">Classe d'association</text><!--MD5=[5caef05668a3671b919925ac15293d4d]
class Chambre--><rect codeLine="12" fill="#FEFECE" filter="url(#fj4829an5gt99)" height="60.8047" id="Chambre" style="stroke:#A80036;stroke-width:1.5;" width="474" x="7" y="287.9531"/><ellipse cx="22" cy="303.9531" fill="#ADD1B2" rx="11" ry="11" style="stroke:#A80036;stroke-width:1.0;"/><path d="M24.3438,299.625 C23.4063,299.1875 22.8125,299.0469 21.9375,299.0469 C19.3125,299.0469 17.3125,301.125 17.3125,303.8438 L17.3125,304.9688 C17.3125,307.5469 19.4219,309.4375 22.3125,309.4375 C23.5313,309.4375 24.6875,309.1406 25.4375,308.5938 C26.0156,308.1875 26.3438,307.7344 26.3438,307.3438 C26.3438,306.8906 25.9531,306.5 25.4844,306.5 C25.2656,306.5 25.0625,306.5781 24.875,306.7656 C24.4219,307.25 24.4219,307.25 24.2344,307.3438 C23.8125,307.6094 23.125,307.7344 22.3594,307.7344 C20.3125,307.7344 19.0156,306.6406 19.0156,304.9375 L19.0156,303.8438 C19.0156,302.0625 20.2656,300.75 22,300.75 C22.5781,300.75 23.1875,300.9063 23.6563,301.1563 C24.1406,301.4375 24.3125,301.6563 24.4063,302.0625 C24.4688,302.4688 24.5,302.5938 24.6406,302.7188 C24.7813,302.8594 25.0156,302.9688 25.2344,302.9688 C25.5,302.9688 25.7656,302.8281 25.9375,302.6094 C26.0469,302.4531 26.0781,302.2656 26.0781,301.8438 L26.0781,300.4219 C26.0781,299.9844 26.0625,299.8594 25.9688,299.7031 C25.8125,299.4375 25.5313,299.2969 25.2344,299.2969 C24.9375,299.2969 24.7344,299.3906 24.5156,299.7031 L24.3438,299.625 Z " fill="#000000"/><text fill="#000000" font-family="sans-serif" font-size="12" lengthAdjust="spacing" textLength="54" x="36" y="308.1074">Chambre</text><rect fill="#FFFFFF" height="15.9688" style="stroke:#000000;stroke-width:1.0;stroke-dasharray:2.0,2.0;" width="386" x="98" y="284.9531"/><text fill="#000000" font-family="sans-serif" font-size="12" font-style="italic" lengthAdjust="spacing" textLength="384" x="99" y="297.0918">Objet physique, Contenu dans l'hotel, Produit d'une transaction</text><line style="stroke:#A80036;stroke-width:1.5;" x1="8" x2="480" y1="319.9531" y2="319.9531"/><text fill="#000000" font-family="sans-serif" font-size="11" lengthAdjust="spacing" textLength="82" x="13" y="334.1636">numero: string</text><line style="stroke:#A80036;stroke-width:1.5;" x1="8" x2="480" y1="340.7578" y2="340.7578"/><ellipse cx="244" cy="189.9531" fill="#000000" rx="2" ry="2" style="stroke:none;stroke-width:1.0;"/><!--MD5=[60f6cb3d593a0938b5bc9154ea565c9f]
link Reservation to apoint114455--><path d="M241.703,92.1121 C242.521,126.5801 243.783,179.7981 243.975,187.9031 " fill="none" id="Reservation-apoint114455" style="stroke:#A80036;stroke-width:1.0;"/><!--MD5=[f3395397cb4ea3fe6fe0743670cca934]
link apoint114455 to Chambre--><path d="M244,192.3741 C244,201.6031 244,253.7318 244,287.7145 " fill="none" id="apoint114455-Chambre" style="stroke:#A80036;stroke-width:1.0;"/><!--MD5=[8067815e579e746ba8909a952833ea04]
link apoint114455 to Sejour--><path d="M246.179,189.9531 C255.92,189.9531 296.824,189.9531 338.372,189.9531 " fill="none" id="apoint114455-Sejour" style="stroke:#A80036;stroke-width:1.0;stroke-dasharray:7.0,7.0;"/><text fill="#000000" font-family="sans-serif" font-size="13" lengthAdjust="spacing" textLength="52" x="266.25" y="183.02">contient</text><!--MD5=[b8b621ce3000c3133612b50e4b27abad]
@startuml
title: Solution avec une classe d'association
class Reservation <Transaction>{
noConfirmation: String
}

note top of Sejour: Classe d'association
class Sejour <Ligne de transaction> {
  dateArrive: Date                                                                                                
  dateDepart: Date
}

class Chambre <Objet physique, Contenu dans l'hotel, Produit d'une transaction>{
  numero: string
}

(Reservation,Chambre) . Sejour: contient
@enduml

PlantUML version 1.2021.2beta7(Unknown compile time)
(GPL source distribution)
Java Runtime: Java(TM) SE Runtime Environment
JVM: Java HotSpot(TM) 64-Bit Server VM
Default Encoding: UTF-8
Language: en
Country: US
--></g></svg>