<?xml version="1.0" encoding="UTF-8" standalone="no"?><svg xmlns="http://www.w3.org/2000/svg" xmlns:xlink="http://www.w3.org/1999/xlink" contentScriptType="application/ecmascript" contentStyleType="text/css" height="688px" preserveAspectRatio="none" style="width:594px;height:688px;" version="1.1" viewBox="0 0 594 688" width="594px" zoomAndPan="magnify"><defs><filter height="300%" id="fmo1wczfotz8q" width="300%" x="-1" y="-1"><feGaussianBlur result="blurOut" stdDeviation="2.0"/><feColorMatrix in="blurOut" result="blurOut2" type="matrix" values="0 0 0 0 0 0 0 0 0 0 0 0 0 0 0 0 0 0 .4 0"/><feOffset dx="4.0" dy="4.0" in="blurOut2" result="blurOut3"/><feBlend in="SourceGraphic" in2="blurOut3" mode="normal"/></filter></defs><g><!--MD5=[3110dbef8258a6b966b2e55d3546d21d]
class Hotel--><rect codeLine="1" fill="#FEFECE" filter="url(#fmo1wczfotz8q)" height="53.9375" id="Hotel" style="stroke:#A80036;stroke-width:1.5;" width="211" x="66.5" y="7"/><ellipse cx="81.5" cy="25.9688" fill="#ADD1B2" rx="11" ry="11" style="stroke:#A80036;stroke-width:1.0;"/><path d="M83.8438,21.6406 C82.9063,21.2031 82.3125,21.0625 81.4375,21.0625 C78.8125,21.0625 76.8125,23.1406 76.8125,25.8594 L76.8125,26.9844 C76.8125,29.5625 78.9219,31.4531 81.8125,31.4531 C83.0313,31.4531 84.1875,31.1563 84.9375,30.6094 C85.5156,30.2031 85.8438,29.75 85.8438,29.3594 C85.8438,28.9063 85.4531,28.5156 84.9844,28.5156 C84.7656,28.5156 84.5625,28.5938 84.375,28.7813 C83.9219,29.2656 83.9219,29.2656 83.7344,29.3594 C83.3125,29.625 82.625,29.75 81.8594,29.75 C79.8125,29.75 78.5156,28.6563 78.5156,26.9531 L78.5156,25.8594 C78.5156,24.0781 79.7656,22.7656 81.5,22.7656 C82.0781,22.7656 82.6875,22.9219 83.1563,23.1719 C83.6406,23.4531 83.8125,23.6719 83.9063,24.0781 C83.9688,24.4844 84,24.6094 84.1406,24.7344 C84.2813,24.875 84.5156,24.9844 84.7344,24.9844 C85,24.9844 85.2656,24.8438 85.4375,24.625 C85.5469,24.4688 85.5781,24.2813 85.5781,23.8594 L85.5781,22.4375 C85.5781,22 85.5625,21.875 85.4688,21.7188 C85.3125,21.4531 85.0313,21.3125 84.7344,21.3125 C84.4375,21.3125 84.2344,21.4063 84.0156,21.7188 L83.8438,21.6406 Z " fill="#000000"/><text fill="#000000" font-family="sans-serif" font-size="12" font-style="italic" lengthAdjust="spacing" textLength="183" x="93.5" y="23.1387">«Conteneur, Object physique»</text><text fill="#000000" font-family="sans-serif" font-size="12" lengthAdjust="spacing" textLength="32" x="169" y="37.1074">Hotel</text><line style="stroke:#A80036;stroke-width:1.5;" x1="67.5" x2="276.5" y1="44.9375" y2="44.9375"/><line style="stroke:#A80036;stroke-width:1.5;" x1="67.5" x2="276.5" y1="52.9375" y2="52.9375"/><!--MD5=[f9ef9660f44628e549271a3193d2c3b4]
class Categorie--><rect codeLine="2" fill="#FEFECE" filter="url(#fmo1wczfotz8q)" height="66.7422" id="Categorie" style="stroke:#A80036;stroke-width:1.5;" width="160" x="140" y="608"/><ellipse cx="155" cy="626.9688" fill="#ADD1B2" rx="11" ry="11" style="stroke:#A80036;stroke-width:1.0;"/><path d="M157.3438,622.6406 C156.4063,622.2031 155.8125,622.0625 154.9375,622.0625 C152.3125,622.0625 150.3125,624.1406 150.3125,626.8594 L150.3125,627.9844 C150.3125,630.5625 152.4219,632.4531 155.3125,632.4531 C156.5313,632.4531 157.6875,632.1563 158.4375,631.6094 C159.0156,631.2031 159.3438,630.75 159.3438,630.3594 C159.3438,629.9063 158.9531,629.5156 158.4844,629.5156 C158.2656,629.5156 158.0625,629.5938 157.875,629.7813 C157.4219,630.2656 157.4219,630.2656 157.2344,630.3594 C156.8125,630.625 156.125,630.75 155.3594,630.75 C153.3125,630.75 152.0156,629.6563 152.0156,627.9531 L152.0156,626.8594 C152.0156,625.0781 153.2656,623.7656 155,623.7656 C155.5781,623.7656 156.1875,623.9219 156.6563,624.1719 C157.1406,624.4531 157.3125,624.6719 157.4063,625.0781 C157.4688,625.4844 157.5,625.6094 157.6406,625.7344 C157.7813,625.875 158.0156,625.9844 158.2344,625.9844 C158.5,625.9844 158.7656,625.8438 158.9375,625.625 C159.0469,625.4688 159.0781,625.2813 159.0781,624.8594 L159.0781,623.4375 C159.0781,623 159.0625,622.875 158.9688,622.7188 C158.8125,622.4531 158.5313,622.3125 158.2344,622.3125 C157.9375,622.3125 157.7344,622.4063 157.5156,622.7188 L157.3438,622.6406 Z " fill="#000000"/><text fill="#000000" font-family="sans-serif" font-size="12" font-style="italic" lengthAdjust="spacing" textLength="132" x="167" y="624.1387">«Description d'entité»</text><text fill="#000000" font-family="sans-serif" font-size="12" lengthAdjust="spacing" textLength="59" x="203.5" y="638.1074">Categorie</text><line style="stroke:#A80036;stroke-width:1.5;" x1="141" x2="299" y1="645.9375" y2="645.9375"/><text fill="#000000" font-family="sans-serif" font-size="11" lengthAdjust="spacing" textLength="65" x="146" y="660.1479">nom: String</text><line style="stroke:#A80036;stroke-width:1.5;" x1="141" x2="299" y1="666.7422" y2="666.7422"/><!--MD5=[9c46470aa33a0c75e6d1dfdefc2f9c22]
class Reservation--><rect codeLine="5" fill="#FEFECE" filter="url(#fmo1wczfotz8q)" height="92.3516" id="Reservation" style="stroke:#A80036;stroke-width:1.5;" width="136" x="152" y="295"/><ellipse cx="177.8" cy="313.9688" fill="#ADD1B2" rx="11" ry="11" style="stroke:#A80036;stroke-width:1.0;"/><path d="M180.1438,309.6406 C179.2063,309.2031 178.6125,309.0625 177.7375,309.0625 C175.1125,309.0625 173.1125,311.1406 173.1125,313.8594 L173.1125,314.9844 C173.1125,317.5625 175.2219,319.4531 178.1125,319.4531 C179.3313,319.4531 180.4875,319.1563 181.2375,318.6094 C181.8156,318.2031 182.1438,317.75 182.1438,317.3594 C182.1438,316.9063 181.7531,316.5156 181.2844,316.5156 C181.0656,316.5156 180.8625,316.5938 180.675,316.7813 C180.2219,317.2656 180.2219,317.2656 180.0344,317.3594 C179.6125,317.625 178.925,317.75 178.1594,317.75 C176.1125,317.75 174.8156,316.6563 174.8156,314.9531 L174.8156,313.8594 C174.8156,312.0781 176.0656,310.7656 177.8,310.7656 C178.3781,310.7656 178.9875,310.9219 179.4563,311.1719 C179.9406,311.4531 180.1125,311.6719 180.2063,312.0781 C180.2688,312.4844 180.3,312.6094 180.4406,312.7344 C180.5813,312.875 180.8156,312.9844 181.0344,312.9844 C181.3,312.9844 181.5656,312.8438 181.7375,312.625 C181.8469,312.4688 181.8781,312.2813 181.8781,311.8594 L181.8781,310.4375 C181.8781,310 181.8625,309.875 181.7688,309.7188 C181.6125,309.4531 181.3313,309.3125 181.0344,309.3125 C180.7375,309.3125 180.5344,309.4063 180.3156,309.7188 L180.1438,309.6406 Z " fill="#000000"/><text fill="#000000" font-family="sans-serif" font-size="12" font-style="italic" lengthAdjust="spacing" textLength="84" x="192.2" y="311.1387">«Transaction»</text><text fill="#000000" font-family="sans-serif" font-size="12" lengthAdjust="spacing" textLength="71" x="198.7" y="325.1074">Reservation</text><line style="stroke:#A80036;stroke-width:1.5;" x1="153" x2="287" y1="332.9375" y2="332.9375"/><text fill="#000000" font-family="sans-serif" font-size="11" lengthAdjust="spacing" textLength="93" x="158" y="347.1479">dateArrive: date</text><text fill="#000000" font-family="sans-serif" font-size="11" lengthAdjust="spacing" textLength="98" x="158" y="359.9526">dateDepart: date</text><text fill="#000000" font-family="sans-serif" font-size="11" lengthAdjust="spacing" textLength="124" x="158" y="372.7573">noConfirmation: string</text><line style="stroke:#A80036;stroke-width:1.5;" x1="153" x2="287" y1="379.3516" y2="379.3516"/><!--MD5=[aeb2a05b656f26b4e931c999627a7b50]
class Commis--><rect codeLine="10" fill="#FEFECE" filter="url(#fmo1wczfotz8q)" height="53.9375" id="Commis" style="stroke:#A80036;stroke-width:1.5;" width="80" x="293" y="151"/><ellipse cx="308" cy="169.9688" fill="#ADD1B2" rx="11" ry="11" style="stroke:#A80036;stroke-width:1.0;"/><path d="M310.3438,165.6406 C309.4063,165.2031 308.8125,165.0625 307.9375,165.0625 C305.3125,165.0625 303.3125,167.1406 303.3125,169.8594 L303.3125,170.9844 C303.3125,173.5625 305.4219,175.4531 308.3125,175.4531 C309.5313,175.4531 310.6875,175.1563 311.4375,174.6094 C312.0156,174.2031 312.3438,173.75 312.3438,173.3594 C312.3438,172.9063 311.9531,172.5156 311.4844,172.5156 C311.2656,172.5156 311.0625,172.5938 310.875,172.7813 C310.4219,173.2656 310.4219,173.2656 310.2344,173.3594 C309.8125,173.625 309.125,173.75 308.3594,173.75 C306.3125,173.75 305.0156,172.6563 305.0156,170.9531 L305.0156,169.8594 C305.0156,168.0781 306.2656,166.7656 308,166.7656 C308.5781,166.7656 309.1875,166.9219 309.6563,167.1719 C310.1406,167.4531 310.3125,167.6719 310.4063,168.0781 C310.4688,168.4844 310.5,168.6094 310.6406,168.7344 C310.7813,168.875 311.0156,168.9844 311.2344,168.9844 C311.5,168.9844 311.7656,168.8438 311.9375,168.625 C312.0469,168.4688 312.0781,168.2813 312.0781,167.8594 L312.0781,166.4375 C312.0781,166 312.0625,165.875 311.9688,165.7188 C311.8125,165.4531 311.5313,165.3125 311.2344,165.3125 C310.9375,165.3125 310.7344,165.4063 310.5156,165.7188 L310.3438,165.6406 Z " fill="#000000"/><text fill="#000000" font-family="sans-serif" font-size="12" font-style="italic" lengthAdjust="spacing" textLength="39" x="326.5" y="167.1387">«Role»</text><text fill="#000000" font-family="sans-serif" font-size="12" lengthAdjust="spacing" textLength="48" x="322" y="181.1074">Commis</text><line style="stroke:#A80036;stroke-width:1.5;" x1="294" x2="372" y1="188.9375" y2="188.9375"/><line style="stroke:#A80036;stroke-width:1.5;" x1="294" x2="372" y1="196.9375" y2="196.9375"/><!--MD5=[5caef05668a3671b919925ac15293d4d]
class Chambre--><rect codeLine="11" fill="#FEFECE" filter="url(#fmo1wczfotz8q)" height="66.7422" id="Chambre" style="stroke:#A80036;stroke-width:1.5;" width="426" x="7" y="464"/><ellipse cx="22" cy="482.9688" fill="#ADD1B2" rx="11" ry="11" style="stroke:#A80036;stroke-width:1.0;"/><path d="M24.3438,478.6406 C23.4063,478.2031 22.8125,478.0625 21.9375,478.0625 C19.3125,478.0625 17.3125,480.1406 17.3125,482.8594 L17.3125,483.9844 C17.3125,486.5625 19.4219,488.4531 22.3125,488.4531 C23.5313,488.4531 24.6875,488.1563 25.4375,487.6094 C26.0156,487.2031 26.3438,486.75 26.3438,486.3594 C26.3438,485.9063 25.9531,485.5156 25.4844,485.5156 C25.2656,485.5156 25.0625,485.5938 24.875,485.7813 C24.4219,486.2656 24.4219,486.2656 24.2344,486.3594 C23.8125,486.625 23.125,486.75 22.3594,486.75 C20.3125,486.75 19.0156,485.6563 19.0156,483.9531 L19.0156,482.8594 C19.0156,481.0781 20.2656,479.7656 22,479.7656 C22.5781,479.7656 23.1875,479.9219 23.6563,480.1719 C24.1406,480.4531 24.3125,480.6719 24.4063,481.0781 C24.4688,481.4844 24.5,481.6094 24.6406,481.7344 C24.7813,481.875 25.0156,481.9844 25.2344,481.9844 C25.5,481.9844 25.7656,481.8438 25.9375,481.625 C26.0469,481.4688 26.0781,481.2813 26.0781,480.8594 L26.0781,479.4375 C26.0781,479 26.0625,478.875 25.9688,478.7188 C25.8125,478.4531 25.5313,478.3125 25.2344,478.3125 C24.9375,478.3125 24.7344,478.4063 24.5156,478.7188 L24.3438,478.6406 Z " fill="#000000"/><text fill="#000000" font-family="sans-serif" font-size="12" font-style="italic" lengthAdjust="spacing" textLength="398" x="34" y="480.1387">«Objet physique, Contenu dans l'hotel, Produit d'une transaction»</text><text fill="#000000" font-family="sans-serif" font-size="12" lengthAdjust="spacing" textLength="54" x="206" y="494.1074">Chambre</text><line style="stroke:#A80036;stroke-width:1.5;" x1="8" x2="432" y1="501.9375" y2="501.9375"/><text fill="#000000" font-family="sans-serif" font-size="11" lengthAdjust="spacing" textLength="78" x="13" y="516.1479">numero:string</text><line style="stroke:#A80036;stroke-width:1.5;" x1="8" x2="432" y1="522.7422" y2="522.7422"/><path d="M323,321 L323,361.2656 L585,361.2656 L585,331 L575,321 L323,321 " fill="#FBFB77" filter="url(#fmo1wczfotz8q)" style="stroke:#A80036;stroke-width:1.0;"/><path d="M575,321 L575,331 L585,331 L575,321 " fill="#FBFB77" style="stroke:#A80036;stroke-width:1.0;"/><text fill="#000000" font-family="sans-serif" font-size="13" lengthAdjust="spacing" textLength="210" x="329" y="338.0669">Chambre.numero est nécessaire</text><text fill="#000000" font-family="sans-serif" font-size="13" lengthAdjust="spacing" textLength="241" x="329" y="353.1997">pour savoir quel chambre est réservé</text><!--MD5=[ed6624c6556d5e7b1bd23032162d20b7]
class Client--><rect codeLine="15" fill="#FEFECE" filter="url(#fmo1wczfotz8q)" height="79.5469" id="Client" style="stroke:#A80036;stroke-width:1.5;" width="105" x="152.5" y="138"/><ellipse cx="184.6" cy="156.9688" fill="#ADD1B2" rx="11" ry="11" style="stroke:#A80036;stroke-width:1.0;"/><path d="M186.9438,152.6406 C186.0063,152.2031 185.4125,152.0625 184.5375,152.0625 C181.9125,152.0625 179.9125,154.1406 179.9125,156.8594 L179.9125,157.9844 C179.9125,160.5625 182.0219,162.4531 184.9125,162.4531 C186.1313,162.4531 187.2875,162.1563 188.0375,161.6094 C188.6156,161.2031 188.9438,160.75 188.9438,160.3594 C188.9438,159.9063 188.5531,159.5156 188.0844,159.5156 C187.8656,159.5156 187.6625,159.5938 187.475,159.7813 C187.0219,160.2656 187.0219,160.2656 186.8344,160.3594 C186.4125,160.625 185.725,160.75 184.9594,160.75 C182.9125,160.75 181.6156,159.6563 181.6156,157.9531 L181.6156,156.8594 C181.6156,155.0781 182.8656,153.7656 184.6,153.7656 C185.1781,153.7656 185.7875,153.9219 186.2563,154.1719 C186.7406,154.4531 186.9125,154.6719 187.0063,155.0781 C187.0688,155.4844 187.1,155.6094 187.2406,155.7344 C187.3813,155.875 187.6156,155.9844 187.8344,155.9844 C188.1,155.9844 188.3656,155.8438 188.5375,155.625 C188.6469,155.4688 188.6781,155.2813 188.6781,154.8594 L188.6781,153.4375 C188.6781,153 188.6625,152.875 188.5688,152.7188 C188.4125,152.4531 188.1313,152.3125 187.8344,152.3125 C187.5375,152.3125 187.3344,152.4063 187.1156,152.7188 L186.9438,152.6406 Z " fill="#000000"/><text fill="#000000" font-family="sans-serif" font-size="12" font-style="italic" lengthAdjust="spacing" textLength="39" x="200.4" y="154.1387">«Role»</text><text fill="#000000" font-family="sans-serif" font-size="12" lengthAdjust="spacing" textLength="33" x="203.4" y="168.1074">Client</text><line style="stroke:#A80036;stroke-width:1.5;" x1="153.5" x2="256.5" y1="175.9375" y2="175.9375"/><text fill="#000000" font-family="sans-serif" font-size="11" lengthAdjust="spacing" textLength="59" x="158.5" y="190.1479">nom:string</text><text fill="#000000" font-family="sans-serif" font-size="11" lengthAdjust="spacing" textLength="93" x="158.5" y="202.9526">telephone:string</text><line style="stroke:#A80036;stroke-width:1.5;" x1="153.5" x2="256.5" y1="209.5469" y2="209.5469"/><!--MD5=[a5dff490cb13c17e1d94bcd4247fae71]
link GMN219696 to Chambre--><path d="M429.449,361.126 C404.448,380.314 364.305,410.336 328,434 C312.392,444.173 295.083,454.565 278.976,463.88 " fill="none" id="GMN219696-Chambre" style="stroke:#A80036;stroke-width:1.0;stroke-dasharray:7.0,7.0;"/><!--MD5=[1a7731b8f2c930c6d97d17ac0ebde2a8]
link Hotel to Chambre--><path codeLine="20" d="M159.879,61.001 C151.045,81.432 139.814,110.873 135,138 C115.664,246.965 97.8372,282.408 134,387 C144.111,416.242 165.611,443.617 184.583,463.682 " fill="none" id="Hotel-Chambre" style="stroke:#A80036;stroke-width:1.0;"/><text fill="#000000" font-family="sans-serif" font-size="13" lengthAdjust="spacing" textLength="54" x="117" y="261.0669">possède</text><text fill="#000000" font-family="sans-serif" font-size="13" lengthAdjust="spacing" textLength="8" x="148.151" y="81.0688">1</text><text fill="#000000" font-family="sans-serif" font-size="13" lengthAdjust="spacing" textLength="7" x="170.1644" y="452.9099">*</text><!--MD5=[0c645827cdb9f485350039ec8cb49e29]
link Chambre to Categorie--><path codeLine="21" d="M220,531.078 C220,554.004 220,584.5802 220,607.5822 " fill="none" id="Chambre-Categorie" style="stroke:#A80036;stroke-width:1.0;"/><text fill="#000000" font-family="sans-serif" font-size="13" lengthAdjust="spacing" textLength="66" x="221" y="574.0669">appartient</text><text fill="#000000" font-family="sans-serif" font-size="13" lengthAdjust="spacing" textLength="7" x="212.3547" y="550.7547">*</text><text fill="#000000" font-family="sans-serif" font-size="13" lengthAdjust="spacing" textLength="8" x="211.2625" y="597.0487">1</text><!--MD5=[52be9b3ac438f7cd62e74dbd2e7441c4]
link Client to Reservation--><path codeLine="22" d="M208.669,218.385 C210.82,241.472 213.546,270.727 215.785,294.758 " fill="none" id="Client-Reservation" style="stroke:#A80036;stroke-width:1.0;"/><text fill="#000000" font-family="sans-serif" font-size="13" lengthAdjust="spacing" textLength="61" x="214" y="261.0669">demande</text><text fill="#000000" font-family="sans-serif" font-size="13" lengthAdjust="spacing" textLength="8" x="200.6204" y="237.528">1</text><text fill="#000000" font-family="sans-serif" font-size="13" lengthAdjust="spacing" textLength="8" x="206.5784" y="283.9155">1</text><!--MD5=[da913e988afa97b4f1801f05bb7acdbb]
link Commis to Reservation--><path codeLine="23" d="M318.437,205.183 C308.48,222.537 294.658,245.596 281,265 C274.044,274.882 266.176,285.138 258.459,294.776 " fill="none" id="Commis-Reservation" style="stroke:#A80036;stroke-width:1.0;"/><text fill="#000000" font-family="sans-serif" font-size="13" lengthAdjust="spacing" textLength="28" x="293" y="261.0669">cree</text><text fill="#000000" font-family="sans-serif" font-size="13" lengthAdjust="spacing" textLength="8" x="306.3763" y="224.8582">1</text><text fill="#000000" font-family="sans-serif" font-size="13" lengthAdjust="spacing" textLength="7" x="256.5936" y="283.9361">*</text><!--MD5=[21e647bb58b61faa231cf747c9774e2a]
link Hotel to Commis--><path codeLine="24" d="M201.53,61.045 C230.489,86.586 274.397,125.313 303.385,150.88 " fill="none" id="Hotel-Commis" style="stroke:#A80036;stroke-width:1.0;"/><text fill="#000000" font-family="sans-serif" font-size="13" lengthAdjust="spacing" textLength="51" x="254" y="104.0669">Emploie</text><text fill="#000000" font-family="sans-serif" font-size="13" lengthAdjust="spacing" textLength="8" x="199.4338" y="81.123">1</text><text fill="#000000" font-family="sans-serif" font-size="13" lengthAdjust="spacing" textLength="7" x="288.7272" y="139.9636">*</text><!--MD5=[1528bbe5b2a142ac6d8a598c4a4727cd]
link Reservation to Chambre--><path codeLine="25" d="M220,387.103 C220,411.686 220,441.555 220,463.867 " fill="none" id="Reservation-Chambre" style="stroke:#A80036;stroke-width:1.0;"/><text fill="#000000" font-family="sans-serif" font-size="13" lengthAdjust="spacing" textLength="98" x="221" y="430.0669">est reservé par</text><text fill="#000000" font-family="sans-serif" font-size="13" lengthAdjust="spacing" textLength="8" x="211.3875" y="407.3611">1</text><text fill="#000000" font-family="sans-serif" font-size="13" lengthAdjust="spacing" textLength="8" x="211.2125" y="452.8743">1</text><!--MD5=[2b3e4f8d9d1ee4fd8be69910ed874887]
@startuml
class Hotel <<Conteneur, Object physique>>
class Categorie <<Description d'entité>> {
  nom: String
}
class Reservation <<Transaction>>{
  dateArrive: date
  dateDepart: date
  noConfirmation: string
}
class Commis <<Role>>
class Chambre <<Objet physique, Contenu dans l'hotel, Produit d'une transaction>>{
  numero:string 
}
note top of Chambre : Chambre.numero est nécessaire \npour savoir quel chambre est réservé
class Client <<Role>>{
  nom:string
  telephone:string
}

Hotel "1" - - "*" Chambre: possède
Chambre "*" - - "1" Categorie: appartient
Client "1" - - "1" Reservation: demande
Commis "1" - - "*" Reservation: cree
Hotel "1" - - "*" Commis : Emploie
Reservation "1" - - "1" Chambre : est reservé par
@enduml

PlantUML version 1.2021.2beta5(Unknown compile time)
(GPL source distribution)
Java Runtime: Java(TM) SE Runtime Environment
JVM: Java HotSpot(TM) 64-Bit Server VM
Default Encoding: UTF-8
Language: en
Country: US
--></g></svg>