<?xml version="1.0" encoding="UTF-8" standalone="no"?><svg xmlns="http://www.w3.org/2000/svg" xmlns:xlink="http://www.w3.org/1999/xlink" contentScriptType="application/ecmascript" contentStyleType="text/css" height="406px" preserveAspectRatio="none" style="width:554px;height:406px;" version="1.1" viewBox="0 0 554 406" width="554px" zoomAndPan="magnify"><defs><filter height="300%" id="f1jdddmg0zm1qn" width="300%" x="-1" y="-1"><feGaussianBlur result="blurOut" stdDeviation="2.0"/><feColorMatrix in="blurOut" result="blurOut2" type="matrix" values="0 0 0 0 0 0 0 0 0 0 0 0 0 0 0 0 0 0 .4 0"/><feOffset dx="4.0" dy="4.0" in="blurOut2" result="blurOut3"/><feBlend in="SourceGraphic" in2="blurOut3" mode="normal"/></filter></defs><g><text fill="#000000" font-family="sans-serif" font-size="18" lengthAdjust="spacing" textLength="142" x="198.75" y="16.708">solution initiale</text><!--MD5=[9c46470aa33a0c75e6d1dfdefc2f9c22]
class Reservation--><rect codeLine="2" fill="#FEFECE" filter="url(#f1jdddmg0zm1qn)" height="60.8047" id="Reservation" style="stroke:#A80036;stroke-width:1.5;" width="177" x="18" y="30.9531"/><ellipse cx="33" cy="46.9531" fill="#ADD1B2" rx="11" ry="11" style="stroke:#A80036;stroke-width:1.0;"/><path d="M35.3438,42.625 C34.4063,42.1875 33.8125,42.0469 32.9375,42.0469 C30.3125,42.0469 28.3125,44.125 28.3125,46.8438 L28.3125,47.9688 C28.3125,50.5469 30.4219,52.4375 33.3125,52.4375 C34.5313,52.4375 35.6875,52.1406 36.4375,51.5938 C37.0156,51.1875 37.3438,50.7344 37.3438,50.3438 C37.3438,49.8906 36.9531,49.5 36.4844,49.5 C36.2656,49.5 36.0625,49.5781 35.875,49.7656 C35.4219,50.25 35.4219,50.25 35.2344,50.3438 C34.8125,50.6094 34.125,50.7344 33.3594,50.7344 C31.3125,50.7344 30.0156,49.6406 30.0156,47.9375 L30.0156,46.8438 C30.0156,45.0625 31.2656,43.75 33,43.75 C33.5781,43.75 34.1875,43.9063 34.6563,44.1563 C35.1406,44.4375 35.3125,44.6563 35.4063,45.0625 C35.4688,45.4688 35.5,45.5938 35.6406,45.7188 C35.7813,45.8594 36.0156,45.9688 36.2344,45.9688 C36.5,45.9688 36.7656,45.8281 36.9375,45.6094 C37.0469,45.4531 37.0781,45.2656 37.0781,44.8438 L37.0781,43.4219 C37.0781,42.9844 37.0625,42.8594 36.9688,42.7031 C36.8125,42.4375 36.5313,42.2969 36.2344,42.2969 C35.9375,42.2969 35.7344,42.3906 35.5156,42.7031 L35.3438,42.625 Z " fill="#000000"/><text fill="#000000" font-family="sans-serif" font-size="12" lengthAdjust="spacing" textLength="71" x="47" y="51.1074">Reservation</text><rect fill="#FFFFFF" height="15.9688" style="stroke:#000000;stroke-width:1.0;stroke-dasharray:2.0,2.0;" width="72" x="126" y="27.9531"/><text fill="#000000" font-family="sans-serif" font-size="12" font-style="italic" lengthAdjust="spacing" textLength="70" x="127" y="40.0918">Transaction</text><line style="stroke:#A80036;stroke-width:1.5;" x1="19" x2="194" y1="62.9531" y2="62.9531"/><text fill="#000000" font-family="sans-serif" font-size="11" lengthAdjust="spacing" textLength="126" x="24" y="77.1636">noConfirmation: String</text><line style="stroke:#A80036;stroke-width:1.5;" x1="19" x2="194" y1="83.7578" y2="83.7578"/><!--MD5=[b9205f29e8b31169249c1c67a324dd73]
class Sejour--><rect codeLine="6" fill="#FEFECE" filter="url(#f1jdddmg0zm1qn)" height="86.4141" id="Sejour" style="stroke:#A80036;stroke-width:1.5;" width="199" x="7" y="168.9531"/><ellipse cx="22" cy="184.9531" fill="#ADD1B2" rx="11" ry="11" style="stroke:#A80036;stroke-width:1.0;"/><path d="M24.3438,180.625 C23.4063,180.1875 22.8125,180.0469 21.9375,180.0469 C19.3125,180.0469 17.3125,182.125 17.3125,184.8438 L17.3125,185.9688 C17.3125,188.5469 19.4219,190.4375 22.3125,190.4375 C23.5313,190.4375 24.6875,190.1406 25.4375,189.5938 C26.0156,189.1875 26.3438,188.7344 26.3438,188.3438 C26.3438,187.8906 25.9531,187.5 25.4844,187.5 C25.2656,187.5 25.0625,187.5781 24.875,187.7656 C24.4219,188.25 24.4219,188.25 24.2344,188.3438 C23.8125,188.6094 23.125,188.7344 22.3594,188.7344 C20.3125,188.7344 19.0156,187.6406 19.0156,185.9375 L19.0156,184.8438 C19.0156,183.0625 20.2656,181.75 22,181.75 C22.5781,181.75 23.1875,181.9063 23.6563,182.1563 C24.1406,182.4375 24.3125,182.6563 24.4063,183.0625 C24.4688,183.4688 24.5,183.5938 24.6406,183.7188 C24.7813,183.8594 25.0156,183.9688 25.2344,183.9688 C25.5,183.9688 25.7656,183.8281 25.9375,183.6094 C26.0469,183.4531 26.0781,183.2656 26.0781,182.8438 L26.0781,181.4219 C26.0781,180.9844 26.0625,180.8594 25.9688,180.7031 C25.8125,180.4375 25.5313,180.2969 25.2344,180.2969 C24.9375,180.2969 24.7344,180.3906 24.5156,180.7031 L24.3438,180.625 Z " fill="#000000"/><text fill="#000000" font-family="sans-serif" font-size="12" lengthAdjust="spacing" textLength="39" x="36" y="189.1074">Sejour</text><rect fill="#FFFFFF" height="15.9688" style="stroke:#000000;stroke-width:1.0;stroke-dasharray:2.0,2.0;" width="126" x="83" y="165.9531"/><text fill="#000000" font-family="sans-serif" font-size="12" font-style="italic" lengthAdjust="spacing" textLength="124" x="84" y="178.0918">Ligne de transaction</text><line style="stroke:#A80036;stroke-width:1.5;" x1="8" x2="205" y1="200.9531" y2="200.9531"/><text fill="#000000" font-family="sans-serif" font-size="11" lengthAdjust="spacing" text-decoration="line-through" textLength="86" x="13" y="215.1636">quantity: String</text><text fill="#000000" font-family="sans-serif" font-size="11" lengthAdjust="spacing" textLength="95" x="13" y="227.9683">dateArrive: Date</text><text fill="#000000" font-family="sans-serif" font-size="11" lengthAdjust="spacing" textLength="100" x="13" y="240.7729">dateDepart: Date</text><line style="stroke:#A80036;stroke-width:1.5;" x1="8" x2="205" y1="247.3672" y2="247.3672"/><!--MD5=[5caef05668a3671b919925ac15293d4d]
class Chambre--><rect codeLine="13" fill="#FEFECE" filter="url(#f1jdddmg0zm1qn)" height="60.8047" id="Chambre" style="stroke:#A80036;stroke-width:1.5;" width="474" x="44.5" y="331.9531"/><ellipse cx="59.5" cy="347.9531" fill="#ADD1B2" rx="11" ry="11" style="stroke:#A80036;stroke-width:1.0;"/><path d="M61.8438,343.625 C60.9063,343.1875 60.3125,343.0469 59.4375,343.0469 C56.8125,343.0469 54.8125,345.125 54.8125,347.8438 L54.8125,348.9688 C54.8125,351.5469 56.9219,353.4375 59.8125,353.4375 C61.0313,353.4375 62.1875,353.1406 62.9375,352.5938 C63.5156,352.1875 63.8438,351.7344 63.8438,351.3438 C63.8438,350.8906 63.4531,350.5 62.9844,350.5 C62.7656,350.5 62.5625,350.5781 62.375,350.7656 C61.9219,351.25 61.9219,351.25 61.7344,351.3438 C61.3125,351.6094 60.625,351.7344 59.8594,351.7344 C57.8125,351.7344 56.5156,350.6406 56.5156,348.9375 L56.5156,347.8438 C56.5156,346.0625 57.7656,344.75 59.5,344.75 C60.0781,344.75 60.6875,344.9063 61.1563,345.1563 C61.6406,345.4375 61.8125,345.6563 61.9063,346.0625 C61.9688,346.4688 62,346.5938 62.1406,346.7188 C62.2813,346.8594 62.5156,346.9688 62.7344,346.9688 C63,346.9688 63.2656,346.8281 63.4375,346.6094 C63.5469,346.4531 63.5781,346.2656 63.5781,345.8438 L63.5781,344.4219 C63.5781,343.9844 63.5625,343.8594 63.4688,343.7031 C63.3125,343.4375 63.0313,343.2969 62.7344,343.2969 C62.4375,343.2969 62.2344,343.3906 62.0156,343.7031 L61.8438,343.625 Z " fill="#000000"/><text fill="#000000" font-family="sans-serif" font-size="12" lengthAdjust="spacing" textLength="54" x="73.5" y="352.1074">Chambre</text><rect fill="#FFFFFF" height="15.9688" style="stroke:#000000;stroke-width:1.0;stroke-dasharray:2.0,2.0;" width="386" x="135.5" y="328.9531"/><text fill="#000000" font-family="sans-serif" font-size="12" font-style="italic" lengthAdjust="spacing" textLength="384" x="136.5" y="341.0918">Objet physique, Contenu dans l'hotel, Produit d'une transaction</text><line style="stroke:#A80036;stroke-width:1.5;" x1="45.5" x2="517.5" y1="363.9531" y2="363.9531"/><text fill="#000000" font-family="sans-serif" font-size="11" lengthAdjust="spacing" textLength="82" x="50.5" y="378.1636">numero: string</text><line style="stroke:#A80036;stroke-width:1.5;" x1="45.5" x2="517.5" y1="384.7578" y2="384.7578"/><path d="M241.5,184.4531 L241.5,239.8516 A0,0 0 0 0 241.5,239.8516 L369.477,239.8516 L303.848,331.8214 L377.477,239.8516 L545.5,239.8516 A0,0 0 0 0 545.5,239.8516 L545.5,194.4531 L535.5,184.4531 L241.5,184.4531 A0,0 0 0 0 241.5,184.4531 " fill="#FBFB77" filter="url(#f1jdddmg0zm1qn)" style="stroke:#A80036;stroke-width:1.0;"/><path d="M535.5,184.4531 L535.5,194.4531 L545.5,194.4531 L535.5,184.4531 " fill="#FBFB77" style="stroke:#A80036;stroke-width:1.0;"/><text fill="#000000" font-family="sans-serif" font-size="13" lengthAdjust="spacing" textLength="219" x="247.5" y="201.52">La mutiplicité plusieurs à plusieurs</text><text fill="#000000" font-family="sans-serif" font-size="13" lengthAdjust="spacing" textLength="279" x="247.5" y="216.6528">implique une classe d'index ChambreSejour</text><text fill="#000000" font-family="sans-serif" font-size="13" lengthAdjust="spacing" textLength="249" x="247.5" y="231.7856">dans le diagramme de classes logiciels</text><!--MD5=[7ee491c9e61831bfd71124da6278b8d9]
link Reservation to Sejour--><path codeLine="17" d="M106.5,92.1471 C106.5,114.1541 106.5,144.4471 106.5,168.9351 " fill="none" id="Reservation-Sejour" style="stroke:#A80036;stroke-width:1.0;"/><text fill="#000000" font-family="sans-serif" font-size="13" lengthAdjust="spacing" textLength="52" x="107.5" y="135.02">contient</text><text fill="#000000" font-family="sans-serif" font-size="13" lengthAdjust="spacing" textLength="8" x="97.7125" y="111.7658">1</text><text fill="#000000" font-family="sans-serif" font-size="13" lengthAdjust="spacing" textLength="7" x="98.9422" y="157.9283">*</text><!--MD5=[206444fd171c1c460b191818207b05e2]
link Sejour to Chambre--><path codeLine="18" d="M138.536,255.3171 C151.519,270.9781 167.27,288.2381 183.5,301.9531 C196.423,312.8732 211.568,323.1012 226.035,331.8928 " fill="none" id="Sejour-Chambre" style="stroke:#A80036;stroke-width:1.0;"/><polygon fill="#000000" points="184.7374,290.2267,189.6085,298.3951,193.4795,293.9719,184.7374,290.2267" style="stroke:#000000;stroke-width:1.0;"/><text fill="#000000" font-family="sans-serif" font-size="13" lengthAdjust="spacing" textLength="121" x="197.5" y="298.02">sont reservées par</text><text fill="#000000" font-family="sans-serif" font-size="13" lengthAdjust="spacing" textLength="7" x="136.0839" y="275.4681">*</text><text fill="#000000" font-family="sans-serif" font-size="13" lengthAdjust="spacing" textLength="7" x="206.1364" y="320.6699">*</text><!--MD5=[61c355725e79bb9e062cbd83f3a0fae9]
@startuml
title: solution initiale
class Reservation <Transaction>{
noConfirmation: String
}

class Sejour <Ligne de transaction> {
  <s>quantity: String</s>
  dateArrive: Date                                                                                                
  dateDepart: Date
}
note top of Chambre : La mutiplicité plusieurs à plusieurs \nimplique une classe d'index ChambreSejour \ndans le diagramme de classes logiciels

class Chambre <Objet physique, Contenu dans l'hotel, Produit d'une transaction>{
  numero: string
}

Reservation "1" - - "*" Sejour: contient
Sejour "*" - - "*" Chambre : sont reservées par <
@enduml

PlantUML version 1.2021.2beta2(Unknown compile time)
(GPL source distribution)
Java Runtime: Java(TM) SE Runtime Environment
JVM: Java HotSpot(TM) 64-Bit Server VM
Default Encoding: UTF-8
Language: en
Country: US
--></g></svg>