<?xml version="1.0" encoding="UTF-8" standalone="no"?><svg xmlns="http://www.w3.org/2000/svg" xmlns:xlink="http://www.w3.org/1999/xlink" contentScriptType="application/ecmascript" contentStyleType="text/css" height="799px" preserveAspectRatio="none" style="width:743px;height:799px;" version="1.1" viewBox="0 0 743 799" width="743px" zoomAndPan="magnify"><defs><filter height="300%" id="fejlg0j8sa9wz" width="300%" x="-1" y="-1"><feGaussianBlur result="blurOut" stdDeviation="2.0"/><feColorMatrix in="blurOut" result="blurOut2" type="matrix" values="0 0 0 0 0 0 0 0 0 0 0 0 0 0 0 0 0 0 .4 0"/><feOffset dx="4.0" dy="4.0" in="blurOut2" result="blurOut3"/><feBlend in="SourceGraphic" in2="blurOut3" mode="normal"/></filter></defs><g><!--MD5=[3110dbef8258a6b966b2e55d3546d21d]
class Hotel--><rect codeLine="1" fill="#FEFECE" filter="url(#fejlg0j8sa9wz)" height="48" id="Hotel" style="stroke:#A80036;stroke-width:1.5;" width="237" x="187.5" y="10"/><ellipse cx="202.5" cy="26" fill="#ADD1B2" rx="11" ry="11" style="stroke:#A80036;stroke-width:1.0;"/><path d="M204.8438,21.6719 C203.9063,21.2344 203.3125,21.0938 202.4375,21.0938 C199.8125,21.0938 197.8125,23.1719 197.8125,25.8906 L197.8125,27.0156 C197.8125,29.5938 199.9219,31.4844 202.8125,31.4844 C204.0313,31.4844 205.1875,31.1875 205.9375,30.6406 C206.5156,30.2344 206.8438,29.7813 206.8438,29.3906 C206.8438,28.9375 206.4531,28.5469 205.9844,28.5469 C205.7656,28.5469 205.5625,28.625 205.375,28.8125 C204.9219,29.2969 204.9219,29.2969 204.7344,29.3906 C204.3125,29.6563 203.625,29.7813 202.8594,29.7813 C200.8125,29.7813 199.5156,28.6875 199.5156,26.9844 L199.5156,25.8906 C199.5156,24.1094 200.7656,22.7969 202.5,22.7969 C203.0781,22.7969 203.6875,22.9531 204.1563,23.2031 C204.6406,23.4844 204.8125,23.7031 204.9063,24.1094 C204.9688,24.5156 205,24.6406 205.1406,24.7656 C205.2813,24.9063 205.5156,25.0156 205.7344,25.0156 C206,25.0156 206.2656,24.875 206.4375,24.6563 C206.5469,24.5 206.5781,24.3125 206.5781,23.8906 L206.5781,22.4688 C206.5781,22.0313 206.5625,21.9063 206.4688,21.75 C206.3125,21.4844 206.0313,21.3438 205.7344,21.3438 C205.4375,21.3438 205.2344,21.4375 205.0156,21.75 L204.8438,21.6719 Z " fill="#000000"/><text fill="#000000" font-family="sans-serif" font-size="12" lengthAdjust="spacing" textLength="32" x="216.5" y="30.1543">Hotel</text><rect fill="#FFFFFF" height="15.9688" style="stroke:#000000;stroke-width:1.0;stroke-dasharray:2.0,2.0;" width="171" x="256.5" y="7"/><text fill="#000000" font-family="sans-serif" font-size="12" font-style="italic" lengthAdjust="spacing" textLength="169" x="257.5" y="19.1387">Conteneur, Object physique</text><line style="stroke:#A80036;stroke-width:1.5;" x1="188.5" x2="423.5" y1="42" y2="42"/><line style="stroke:#A80036;stroke-width:1.5;" x1="188.5" x2="423.5" y1="50" y2="50"/><!--MD5=[f9ef9660f44628e549271a3193d2c3b4]
class Categorie--><rect codeLine="2" fill="#FEFECE" filter="url(#fejlg0j8sa9wz)" height="60.8047" id="Categorie" style="stroke:#A80036;stroke-width:1.5;" width="281" x="103.5" y="725"/><ellipse cx="118.5" cy="741" fill="#ADD1B2" rx="11" ry="11" style="stroke:#A80036;stroke-width:1.0;"/><path d="M120.8438,736.6719 C119.9063,736.2344 119.3125,736.0938 118.4375,736.0938 C115.8125,736.0938 113.8125,738.1719 113.8125,740.8906 L113.8125,742.0156 C113.8125,744.5938 115.9219,746.4844 118.8125,746.4844 C120.0313,746.4844 121.1875,746.1875 121.9375,745.6406 C122.5156,745.2344 122.8438,744.7813 122.8438,744.3906 C122.8438,743.9375 122.4531,743.5469 121.9844,743.5469 C121.7656,743.5469 121.5625,743.625 121.375,743.8125 C120.9219,744.2969 120.9219,744.2969 120.7344,744.3906 C120.3125,744.6563 119.625,744.7813 118.8594,744.7813 C116.8125,744.7813 115.5156,743.6875 115.5156,741.9844 L115.5156,740.8906 C115.5156,739.1094 116.7656,737.7969 118.5,737.7969 C119.0781,737.7969 119.6875,737.9531 120.1563,738.2031 C120.6406,738.4844 120.8125,738.7031 120.9063,739.1094 C120.9688,739.5156 121,739.6406 121.1406,739.7656 C121.2813,739.9063 121.5156,740.0156 121.7344,740.0156 C122,740.0156 122.2656,739.875 122.4375,739.6563 C122.5469,739.5 122.5781,739.3125 122.5781,738.8906 L122.5781,737.4688 C122.5781,737.0313 122.5625,736.9063 122.4688,736.75 C122.3125,736.4844 122.0313,736.3438 121.7344,736.3438 C121.4375,736.3438 121.2344,736.4375 121.0156,736.75 L120.8438,736.6719 Z " fill="#000000"/><text fill="#000000" font-family="sans-serif" font-size="12" lengthAdjust="spacing" textLength="59" x="132.5" y="745.1543">Categorie</text><rect fill="#FFFFFF" height="15.9688" style="stroke:#000000;stroke-width:1.0;stroke-dasharray:2.0,2.0;" width="188" x="199.5" y="722"/><text fill="#000000" font-family="sans-serif" font-size="12" font-style="italic" lengthAdjust="spacing" textLength="186" x="200.5" y="734.1387">Description d'entité, Catalogue</text><line style="stroke:#A80036;stroke-width:1.5;" x1="104.5" x2="383.5" y1="757" y2="757"/><text fill="#000000" font-family="sans-serif" font-size="11" lengthAdjust="spacing" textLength="65" x="109.5" y="771.2104">nom: String</text><line style="stroke:#A80036;stroke-width:1.5;" x1="104.5" x2="383.5" y1="777.8047" y2="777.8047"/><!--MD5=[9c46470aa33a0c75e6d1dfdefc2f9c22]
class Reservation--><rect codeLine="5" fill="#FEFECE" filter="url(#fejlg0j8sa9wz)" height="60.8047" id="Reservation" style="stroke:#A80036;stroke-width:1.5;" width="177" x="552.5" y="286"/><ellipse cx="567.5" cy="302" fill="#ADD1B2" rx="11" ry="11" style="stroke:#A80036;stroke-width:1.0;"/><path d="M569.8438,297.6719 C568.9063,297.2344 568.3125,297.0938 567.4375,297.0938 C564.8125,297.0938 562.8125,299.1719 562.8125,301.8906 L562.8125,303.0156 C562.8125,305.5938 564.9219,307.4844 567.8125,307.4844 C569.0313,307.4844 570.1875,307.1875 570.9375,306.6406 C571.5156,306.2344 571.8438,305.7813 571.8438,305.3906 C571.8438,304.9375 571.4531,304.5469 570.9844,304.5469 C570.7656,304.5469 570.5625,304.625 570.375,304.8125 C569.9219,305.2969 569.9219,305.2969 569.7344,305.3906 C569.3125,305.6563 568.625,305.7813 567.8594,305.7813 C565.8125,305.7813 564.5156,304.6875 564.5156,302.9844 L564.5156,301.8906 C564.5156,300.1094 565.7656,298.7969 567.5,298.7969 C568.0781,298.7969 568.6875,298.9531 569.1563,299.2031 C569.6406,299.4844 569.8125,299.7031 569.9063,300.1094 C569.9688,300.5156 570,300.6406 570.1406,300.7656 C570.2813,300.9063 570.5156,301.0156 570.7344,301.0156 C571,301.0156 571.2656,300.875 571.4375,300.6563 C571.5469,300.5 571.5781,300.3125 571.5781,299.8906 L571.5781,298.4688 C571.5781,298.0313 571.5625,297.9063 571.4688,297.75 C571.3125,297.4844 571.0313,297.3438 570.7344,297.3438 C570.4375,297.3438 570.2344,297.4375 570.0156,297.75 L569.8438,297.6719 Z " fill="#000000"/><text fill="#000000" font-family="sans-serif" font-size="12" lengthAdjust="spacing" textLength="71" x="581.5" y="306.1543">Reservation</text><rect fill="#FFFFFF" height="15.9688" style="stroke:#000000;stroke-width:1.0;stroke-dasharray:2.0,2.0;" width="72" x="660.5" y="283"/><text fill="#000000" font-family="sans-serif" font-size="12" font-style="italic" lengthAdjust="spacing" textLength="70" x="661.5" y="295.1387">Transaction</text><line style="stroke:#A80036;stroke-width:1.5;" x1="553.5" x2="728.5" y1="318" y2="318"/><text fill="#000000" font-family="sans-serif" font-size="11" lengthAdjust="spacing" textLength="126" x="558.5" y="332.2104">noConfirmation: String</text><line style="stroke:#A80036;stroke-width:1.5;" x1="553.5" x2="728.5" y1="338.8047" y2="338.8047"/><!--MD5=[2e4e974c7455092da497cc666bb39ee4]
class LigneReservation--><rect codeLine="10" fill="#FEFECE" filter="url(#fejlg0j8sa9wz)" height="86.4141" id="LigneReservation" style="stroke:#A80036;stroke-width:1.5;" width="263" x="260.5" y="424"/><ellipse cx="275.5" cy="440" fill="#ADD1B2" rx="11" ry="11" style="stroke:#A80036;stroke-width:1.0;"/><path d="M277.8438,435.6719 C276.9063,435.2344 276.3125,435.0938 275.4375,435.0938 C272.8125,435.0938 270.8125,437.1719 270.8125,439.8906 L270.8125,441.0156 C270.8125,443.5938 272.9219,445.4844 275.8125,445.4844 C277.0313,445.4844 278.1875,445.1875 278.9375,444.6406 C279.5156,444.2344 279.8438,443.7813 279.8438,443.3906 C279.8438,442.9375 279.4531,442.5469 278.9844,442.5469 C278.7656,442.5469 278.5625,442.625 278.375,442.8125 C277.9219,443.2969 277.9219,443.2969 277.7344,443.3906 C277.3125,443.6563 276.625,443.7813 275.8594,443.7813 C273.8125,443.7813 272.5156,442.6875 272.5156,440.9844 L272.5156,439.8906 C272.5156,438.1094 273.7656,436.7969 275.5,436.7969 C276.0781,436.7969 276.6875,436.9531 277.1563,437.2031 C277.6406,437.4844 277.8125,437.7031 277.9063,438.1094 C277.9688,438.5156 278,438.6406 278.1406,438.7656 C278.2813,438.9063 278.5156,439.0156 278.7344,439.0156 C279,439.0156 279.2656,438.875 279.4375,438.6563 C279.5469,438.5 279.5781,438.3125 279.5781,437.8906 L279.5781,436.4688 C279.5781,436.0313 279.5625,435.9063 279.4688,435.75 C279.3125,435.4844 279.0313,435.3438 278.7344,435.3438 C278.4375,435.3438 278.2344,435.4375 278.0156,435.75 L277.8438,435.6719 Z " fill="#000000"/><text fill="#000000" font-family="sans-serif" font-size="12" lengthAdjust="spacing" textLength="103" x="289.5" y="444.1543">LigneReservation</text><rect fill="#FFFFFF" height="15.9688" style="stroke:#000000;stroke-width:1.0;stroke-dasharray:2.0,2.0;" width="126" x="400.5" y="421"/><text fill="#000000" font-family="sans-serif" font-size="12" font-style="italic" lengthAdjust="spacing" textLength="124" x="401.5" y="433.1387">Ligne de transaction</text><line style="stroke:#A80036;stroke-width:1.5;" x1="261.5" x2="522.5" y1="456" y2="456"/><text fill="#000000" font-family="sans-serif" font-size="11" lengthAdjust="spacing" text-decoration="line-through" textLength="86" x="266.5" y="470.2104">quantity: String</text><text fill="#000000" font-family="sans-serif" font-size="11" lengthAdjust="spacing" textLength="95" x="266.5" y="483.0151">dateArrive: Date</text><text fill="#000000" font-family="sans-serif" font-size="11" lengthAdjust="spacing" textLength="100" x="266.5" y="495.8198">dateDepart: Date</text><line style="stroke:#A80036;stroke-width:1.5;" x1="261.5" x2="522.5" y1="502.4141" y2="502.4141"/><path d="M267,289 L267,344.3984 A0,0 0 0 0 267,344.3984 L388,344.3984 L392,423.964 L396,344.3984 L517,344.3984 A0,0 0 0 0 517,344.3984 L517,299 L507,289 L267,289 A0,0 0 0 0 267,289 " fill="#FBFB77" filter="url(#fejlg0j8sa9wz)" style="stroke:#A80036;stroke-width:1.0;"/><path d="M507,289 L507,299 L517,299 L507,289 " fill="#FBFB77" style="stroke:#A80036;stroke-width:1.0;"/><text fill="#000000" font-family="sans-serif" font-size="13" lengthAdjust="spacing" textLength="163" x="273" y="306.0669">La quantité et représenté</text><text fill="#000000" font-family="sans-serif" font-size="13" lengthAdjust="spacing" textLength="211" x="273" y="321.1997">par la multiplicité de l'association</text><text fill="#000000" font-family="sans-serif" font-size="13" lengthAdjust="spacing" textLength="229" x="273" y="336.3325">entre LigneReservation et Chambre</text><!--MD5=[aeb2a05b656f26b4e931c999627a7b50]
class Commis--><rect codeLine="15" fill="#FEFECE" filter="url(#fejlg0j8sa9wz)" height="48" id="Commis" style="stroke:#A80036;stroke-width:1.5;" width="109" x="586.5" y="148"/><ellipse cx="601.5" cy="164" fill="#ADD1B2" rx="11" ry="11" style="stroke:#A80036;stroke-width:1.0;"/><path d="M603.8438,159.6719 C602.9063,159.2344 602.3125,159.0938 601.4375,159.0938 C598.8125,159.0938 596.8125,161.1719 596.8125,163.8906 L596.8125,165.0156 C596.8125,167.5938 598.9219,169.4844 601.8125,169.4844 C603.0313,169.4844 604.1875,169.1875 604.9375,168.6406 C605.5156,168.2344 605.8438,167.7813 605.8438,167.3906 C605.8438,166.9375 605.4531,166.5469 604.9844,166.5469 C604.7656,166.5469 604.5625,166.625 604.375,166.8125 C603.9219,167.2969 603.9219,167.2969 603.7344,167.3906 C603.3125,167.6563 602.625,167.7813 601.8594,167.7813 C599.8125,167.7813 598.5156,166.6875 598.5156,164.9844 L598.5156,163.8906 C598.5156,162.1094 599.7656,160.7969 601.5,160.7969 C602.0781,160.7969 602.6875,160.9531 603.1563,161.2031 C603.6406,161.4844 603.8125,161.7031 603.9063,162.1094 C603.9688,162.5156 604,162.6406 604.1406,162.7656 C604.2813,162.9063 604.5156,163.0156 604.7344,163.0156 C605,163.0156 605.2656,162.875 605.4375,162.6563 C605.5469,162.5 605.5781,162.3125 605.5781,161.8906 L605.5781,160.4688 C605.5781,160.0313 605.5625,159.9063 605.4688,159.75 C605.3125,159.4844 605.0313,159.3438 604.7344,159.3438 C604.4375,159.3438 604.2344,159.4375 604.0156,159.75 L603.8438,159.6719 Z " fill="#000000"/><text fill="#000000" font-family="sans-serif" font-size="12" lengthAdjust="spacing" textLength="48" x="615.5" y="168.1543">Commis</text><rect fill="#FFFFFF" height="15.9688" style="stroke:#000000;stroke-width:1.0;stroke-dasharray:2.0,2.0;" width="27" x="671.5" y="145"/><text fill="#000000" font-family="sans-serif" font-size="12" font-style="italic" lengthAdjust="spacing" textLength="25" x="672.5" y="157.1387">Role</text><line style="stroke:#A80036;stroke-width:1.5;" x1="587.5" x2="694.5" y1="180" y2="180"/><line style="stroke:#A80036;stroke-width:1.5;" x1="587.5" x2="694.5" y1="188" y2="188"/><!--MD5=[5caef05668a3671b919925ac15293d4d]
class Chambre--><rect codeLine="16" fill="#FEFECE" filter="url(#fejlg0j8sa9wz)" height="60.8047" id="Chambre" style="stroke:#A80036;stroke-width:1.5;" width="474" x="7" y="587"/><ellipse cx="22" cy="603" fill="#ADD1B2" rx="11" ry="11" style="stroke:#A80036;stroke-width:1.0;"/><path d="M24.3438,598.6719 C23.4063,598.2344 22.8125,598.0938 21.9375,598.0938 C19.3125,598.0938 17.3125,600.1719 17.3125,602.8906 L17.3125,604.0156 C17.3125,606.5938 19.4219,608.4844 22.3125,608.4844 C23.5313,608.4844 24.6875,608.1875 25.4375,607.6406 C26.0156,607.2344 26.3438,606.7813 26.3438,606.3906 C26.3438,605.9375 25.9531,605.5469 25.4844,605.5469 C25.2656,605.5469 25.0625,605.625 24.875,605.8125 C24.4219,606.2969 24.4219,606.2969 24.2344,606.3906 C23.8125,606.6563 23.125,606.7813 22.3594,606.7813 C20.3125,606.7813 19.0156,605.6875 19.0156,603.9844 L19.0156,602.8906 C19.0156,601.1094 20.2656,599.7969 22,599.7969 C22.5781,599.7969 23.1875,599.9531 23.6563,600.2031 C24.1406,600.4844 24.3125,600.7031 24.4063,601.1094 C24.4688,601.5156 24.5,601.6406 24.6406,601.7656 C24.7813,601.9063 25.0156,602.0156 25.2344,602.0156 C25.5,602.0156 25.7656,601.875 25.9375,601.6563 C26.0469,601.5 26.0781,601.3125 26.0781,600.8906 L26.0781,599.4688 C26.0781,599.0313 26.0625,598.9063 25.9688,598.75 C25.8125,598.4844 25.5313,598.3438 25.2344,598.3438 C24.9375,598.3438 24.7344,598.4375 24.5156,598.75 L24.3438,598.6719 Z " fill="#000000"/><text fill="#000000" font-family="sans-serif" font-size="12" lengthAdjust="spacing" textLength="54" x="36" y="607.1543">Chambre</text><rect fill="#FFFFFF" height="15.9688" style="stroke:#000000;stroke-width:1.0;stroke-dasharray:2.0,2.0;" width="386" x="98" y="584"/><text fill="#000000" font-family="sans-serif" font-size="12" font-style="italic" lengthAdjust="spacing" textLength="384" x="99" y="596.1387">Objet physique, Contenu dans l'hotel, Produit d'une transaction</text><line style="stroke:#A80036;stroke-width:1.5;" x1="8" x2="480" y1="619" y2="619"/><text fill="#000000" font-family="sans-serif" font-size="11" lengthAdjust="spacing" textLength="82" x="13" y="633.2104">numero: string</text><line style="stroke:#A80036;stroke-width:1.5;" x1="8" x2="480" y1="639.8047" y2="639.8047"/><!--MD5=[ed6624c6556d5e7b1bd23032162d20b7]
class Client--><rect codeLine="19" fill="#FEFECE" filter="url(#fejlg0j8sa9wz)" height="73.6094" id="Client" style="stroke:#A80036;stroke-width:1.5;" width="109" x="442.5" y="135"/><ellipse cx="464.25" cy="151" fill="#ADD1B2" rx="11" ry="11" style="stroke:#A80036;stroke-width:1.0;"/><path d="M466.5938,146.6719 C465.6563,146.2344 465.0625,146.0938 464.1875,146.0938 C461.5625,146.0938 459.5625,148.1719 459.5625,150.8906 L459.5625,152.0156 C459.5625,154.5938 461.6719,156.4844 464.5625,156.4844 C465.7813,156.4844 466.9375,156.1875 467.6875,155.6406 C468.2656,155.2344 468.5938,154.7813 468.5938,154.3906 C468.5938,153.9375 468.2031,153.5469 467.7344,153.5469 C467.5156,153.5469 467.3125,153.625 467.125,153.8125 C466.6719,154.2969 466.6719,154.2969 466.4844,154.3906 C466.0625,154.6563 465.375,154.7813 464.6094,154.7813 C462.5625,154.7813 461.2656,153.6875 461.2656,151.9844 L461.2656,150.8906 C461.2656,149.1094 462.5156,147.7969 464.25,147.7969 C464.8281,147.7969 465.4375,147.9531 465.9063,148.2031 C466.3906,148.4844 466.5625,148.7031 466.6563,149.1094 C466.7188,149.5156 466.75,149.6406 466.8906,149.7656 C467.0313,149.9063 467.2656,150.0156 467.4844,150.0156 C467.75,150.0156 468.0156,149.875 468.1875,149.6563 C468.2969,149.5 468.3281,149.3125 468.3281,148.8906 L468.3281,147.4688 C468.3281,147.0313 468.3125,146.9063 468.2188,146.75 C468.0625,146.4844 467.7813,146.3438 467.4844,146.3438 C467.1875,146.3438 466.9844,146.4375 466.7656,146.75 L466.5938,146.6719 Z " fill="#000000"/><text fill="#000000" font-family="sans-serif" font-size="12" lengthAdjust="spacing" textLength="33" x="479.75" y="155.1543">Client</text><rect fill="#FFFFFF" height="15.9688" style="stroke:#000000;stroke-width:1.0;stroke-dasharray:2.0,2.0;" width="27" x="527.5" y="132"/><text fill="#000000" font-family="sans-serif" font-size="12" font-style="italic" lengthAdjust="spacing" textLength="25" x="528.5" y="144.1387">Role</text><line style="stroke:#A80036;stroke-width:1.5;" x1="443.5" x2="550.5" y1="167" y2="167"/><text fill="#000000" font-family="sans-serif" font-size="11" lengthAdjust="spacing" textLength="63" x="448.5" y="181.2104">nom: string</text><text fill="#000000" font-family="sans-serif" font-size="11" lengthAdjust="spacing" textLength="97" x="448.5" y="194.0151">telephone: string</text><line style="stroke:#A80036;stroke-width:1.5;" x1="443.5" x2="550.5" y1="200.6094" y2="200.6094"/><!--MD5=[1a7731b8f2c930c6d97d17ac0ebde2a8]
link Hotel to Chambre--><path codeLine="24" d="M261.261,58.162 C223.657,81.195 176,120.373 176,171 C176,171 176,171 176,468 C176,512.377 201.413,557.994 221.168,586.75 " fill="none" id="Hotel-Chambre" style="stroke:#A80036;stroke-width:1.0;"/><text fill="#000000" font-family="sans-serif" font-size="13" lengthAdjust="spacing" textLength="54" x="177" y="321.0669">possède</text><text fill="#000000" font-family="sans-serif" font-size="13" lengthAdjust="spacing" textLength="8" x="241.3809" y="77.9627">1</text><text fill="#000000" font-family="sans-serif" font-size="13" lengthAdjust="spacing" textLength="7" x="208.737" y="575.9617">*</text><!--MD5=[0c645827cdb9f485350039ec8cb49e29]
link Chambre to Categorie--><path codeLine="25" d="M244,648.01 C244,670.665 244,701.8203 244,724.578 " fill="none" id="Chambre-Categorie" style="stroke:#A80036;stroke-width:1.0;"/><text fill="#000000" font-family="sans-serif" font-size="13" lengthAdjust="spacing" textLength="66" x="245" y="691.0669">appartient</text><text fill="#000000" font-family="sans-serif" font-size="13" lengthAdjust="spacing" textLength="7" x="236.2781" y="667.9503">*</text><text fill="#000000" font-family="sans-serif" font-size="13" lengthAdjust="spacing" textLength="8" x="235.175" y="713.7542">1</text><!--MD5=[52be9b3ac438f7cd62e74dbd2e7441c4]
link Client to Reservation--><path codeLine="26" d="M526.763,209.217 C539.578,224.171 555.034,241.387 570,256 C580.471,266.224 592.47,276.698 603.586,285.952 " fill="none" id="Client-Reservation" style="stroke:#A80036;stroke-width:1.0;"/><text fill="#000000" font-family="sans-serif" font-size="13" lengthAdjust="spacing" textLength="61" x="571" y="252.0669">demande</text><text fill="#000000" font-family="sans-serif" font-size="13" lengthAdjust="spacing" textLength="8" x="523.03" y="228.7335">1</text><text fill="#000000" font-family="sans-serif" font-size="13" lengthAdjust="spacing" textLength="8" x="586.5267" y="274.7318">1</text><!--MD5=[da913e988afa97b4f1801f05bb7acdbb]
link Commis to Reservation--><path codeLine="27" d="M641,196.212 C641,220.66 641,259.233 641,285.864 " fill="none" id="Commis-Reservation" style="stroke:#A80036;stroke-width:1.0;"/><text fill="#000000" font-family="sans-serif" font-size="13" lengthAdjust="spacing" textLength="28" x="642" y="252.0669">cree</text><text fill="#000000" font-family="sans-serif" font-size="13" lengthAdjust="spacing" textLength="8" x="632.025" y="216.0249">1</text><text fill="#000000" font-family="sans-serif" font-size="13" lengthAdjust="spacing" textLength="7" x="633.2781" y="275.0992">*</text><!--MD5=[a83f339aa692571e7dde48d7c6cca26c]
link Reservation to LigneReservation--><path codeLine="28" d="M591.508,347.016 C554.633,369.008 503.761,399.347 462.617,423.885 " fill="none" id="Reservation-LigneReservation" style="stroke:#A80036;stroke-width:1.0;"/><text fill="#000000" font-family="sans-serif" font-size="13" lengthAdjust="spacing" textLength="52" x="540" y="390.0669">contient</text><text fill="#000000" font-family="sans-serif" font-size="13" lengthAdjust="spacing" textLength="8" x="572.4753" y="366.9575">1</text><text fill="#000000" font-family="sans-serif" font-size="13" lengthAdjust="spacing" textLength="7" x="466.3138" y="412.8627">*</text><!--MD5=[21e647bb58b61faa231cf747c9774e2a]
link Hotel to Commis--><path codeLine="29" d="M372.127,58.061 C425.763,77.262 503.02,106.048 569,135 C577.958,138.931 587.401,143.404 596.393,147.828 " fill="none" id="Hotel-Commis" style="stroke:#A80036;stroke-width:1.0;"/><text fill="#000000" font-family="sans-serif" font-size="13" lengthAdjust="spacing" textLength="51" x="492" y="101.0669">Emploie</text><text fill="#000000" font-family="sans-serif" font-size="13" lengthAdjust="spacing" textLength="8" x="380.047" y="78.2324">1</text><text fill="#000000" font-family="sans-serif" font-size="13" lengthAdjust="spacing" textLength="7" x="577.0656" y="136.796">*</text><!--MD5=[7f60298d3a5f91db21dff20d03cfc991]
link LigneReservation to Chambre--><path codeLine="31" d="M349.985,510.157 C325.544,534.681 295.338,564.989 273.434,586.967 " fill="none" id="LigneReservation-Chambre" style="stroke:#A80036;stroke-width:1.0;"/><polygon fill="#000000" points="326.5296,545.0249,318.0629,549.3569,322.2262,553.5062,326.5296,545.0249" style="stroke:#000000;stroke-width:1.0;"/><text fill="#000000" font-family="sans-serif" font-size="13" lengthAdjust="spacing" textLength="121" x="332" y="553.0669">sont reservées par</text><text fill="#000000" font-family="sans-serif" font-size="13" lengthAdjust="spacing" textLength="8" x="334.3638" y="530.5907">1</text><text fill="#000000" font-family="sans-serif" font-size="13" lengthAdjust="spacing" textLength="7" x="272.1071" y="575.7501">*</text><!--MD5=[899ad90cda867fa1d75cac46abd2d058]
@startuml
class Hotel <Conteneur, Object physique>
class Categorie <Description d'entité, Catalogue> {
  nom: String
}
class Reservation <Transaction>{
noConfirmation: String
}

note top of LigneReservation : La quantité et représenté \npar la multiplicité de l'association\nentre LigneReservation et Chambre
class LigneReservation <Ligne de transaction> {
  <s>quantity: String</s>
  dateArrive: Date                                                                                                
  dateDepart: Date
}
class Commis <Role>
class Chambre <Objet physique, Contenu dans l'hotel, Produit d'une transaction>{
  numero: string
}
class Client <Role> {
  nom: string
  telephone: string
}

Hotel "1" - - "*" Chambre: possède
Chambre "*" - - "1" Categorie: appartient
Client "1" - - "1" Reservation: demande
Commis "1" - - "*" Reservation: cree
Reservation "1" - - "*" LigneReservation: contient
Hotel "1" - - "*" Commis : Emploie

LigneReservation "1" - - "*" Chambre : sont reservées par <
@enduml

PlantUML version 1.2021.2beta7(Unknown compile time)
(GPL source distribution)
Java Runtime: Java(TM) SE Runtime Environment
JVM: Java HotSpot(TM) 64-Bit Server VM
Default Encoding: UTF-8
Language: en
Country: US
--></g></svg>