<?xml version="1.0" encoding="UTF-8" standalone="no"?><svg xmlns="http://www.w3.org/2000/svg" xmlns:xlink="http://www.w3.org/1999/xlink" contentScriptType="application/ecmascript" contentStyleType="text/css" height="813px" preserveAspectRatio="none" style="width:867px;height:813px;" version="1.1" viewBox="0 0 867 813" width="867px" zoomAndPan="magnify"><defs><filter height="300%" id="fttkox0qgt21r" width="300%" x="-1" y="-1"><feGaussianBlur result="blurOut" stdDeviation="2.0"/><feColorMatrix in="blurOut" result="blurOut2" type="matrix" values="0 0 0 0 0 0 0 0 0 0 0 0 0 0 0 0 0 0 .4 0"/><feOffset dx="4.0" dy="4.0" in="blurOut2" result="blurOut3"/><feBlend in="SourceGraphic" in2="blurOut3" mode="normal"/></filter></defs><g><!--MD5=[e1d3770cbd048901ea869e126190a56e]
class ControleurReservation--><rect codeLine="1" fill="#FEFECE" filter="url(#fttkox0qgt21r)" height="86.4141" id="ControleurReservation" style="stroke:#A80036;stroke-width:1.5;" width="436" x="104" y="10"/><ellipse cx="184.75" cy="26" fill="#ADD1B2" rx="11" ry="11" style="stroke:#A80036;stroke-width:1.0;"/><path d="M187.0938,21.6719 C186.1563,21.2344 185.5625,21.0938 184.6875,21.0938 C182.0625,21.0938 180.0625,23.1719 180.0625,25.8906 L180.0625,27.0156 C180.0625,29.5938 182.1719,31.4844 185.0625,31.4844 C186.2813,31.4844 187.4375,31.1875 188.1875,30.6406 C188.7656,30.2344 189.0938,29.7813 189.0938,29.3906 C189.0938,28.9375 188.7031,28.5469 188.2344,28.5469 C188.0156,28.5469 187.8125,28.625 187.625,28.8125 C187.1719,29.2969 187.1719,29.2969 186.9844,29.3906 C186.5625,29.6563 185.875,29.7813 185.1094,29.7813 C183.0625,29.7813 181.7656,28.6875 181.7656,26.9844 L181.7656,25.8906 C181.7656,24.1094 183.0156,22.7969 184.75,22.7969 C185.3281,22.7969 185.9375,22.9531 186.4063,23.2031 C186.8906,23.4844 187.0625,23.7031 187.1563,24.1094 C187.2188,24.5156 187.25,24.6406 187.3906,24.7656 C187.5313,24.9063 187.7656,25.0156 187.9844,25.0156 C188.25,25.0156 188.5156,24.875 188.6875,24.6563 C188.7969,24.5 188.8281,24.3125 188.8281,23.8906 L188.8281,22.4688 C188.8281,22.0313 188.8125,21.9063 188.7188,21.75 C188.5625,21.4844 188.2813,21.3438 187.9844,21.3438 C187.6875,21.3438 187.4844,21.4375 187.2656,21.75 L187.0938,21.6719 Z " fill="#000000"/><text fill="#000000" font-family="sans-serif" font-size="12" lengthAdjust="spacing" textLength="134" x="205.25" y="30.1543">ControleurReservation</text><rect fill="#FFFFFF" height="15.9688" style="stroke:#000000;stroke-width:1.0;stroke-dasharray:2.0,2.0;" width="130" x="413" y="7"/><text fill="#000000" font-family="sans-serif" font-size="12" font-style="italic" lengthAdjust="spacing" textLength="128" x="414" y="19.1387">controleur de session</text><line style="stroke:#A80036;stroke-width:1.5;" x1="105" x2="539" y1="42" y2="42"/><line style="stroke:#A80036;stroke-width:1.5;" x1="105" x2="539" y1="50" y2="50"/><ellipse cx="115" cy="61" fill="#84BE84" rx="3" ry="3" style="stroke:#038048;stroke-width:1.0;"/><text fill="#000000" font-family="sans-serif" font-size="11" lengthAdjust="spacing" textLength="129" x="124" y="64.2104">demarrerReservation()</text><ellipse cx="115" cy="73.8047" fill="#84BE84" rx="3" ry="3" style="stroke:#038048;stroke-width:1.0;"/><text fill="#000000" font-family="sans-serif" font-size="11" lengthAdjust="spacing" textLength="410" x="124" y="77.0151">reserverChambre(dateArrive:string, dateDepart:string, categorie: String)</text><ellipse cx="115" cy="86.6094" fill="#84BE84" rx="3" ry="3" style="stroke:#038048;stroke-width:1.0;"/><text fill="#000000" font-family="sans-serif" font-size="11" lengthAdjust="spacing" textLength="289" x="124" y="89.8198">confirmerReservation(nom:string, telephone:string)</text><!--MD5=[22e5d5b4c441f3dbc8b6f363f923fdb4]
class MC--><rect codeLine="6" fill="#FEFECE" filter="url(#fttkox0qgt21r)" height="60.8047" id="MC" style="stroke:#A80036;stroke-width:1.5;" width="440" x="7" y="289"/><ellipse cx="22" cy="305" fill="#ADD1B2" rx="11" ry="11" style="stroke:#A80036;stroke-width:1.0;"/><path d="M24.3438,300.6719 C23.4063,300.2344 22.8125,300.0938 21.9375,300.0938 C19.3125,300.0938 17.3125,302.1719 17.3125,304.8906 L17.3125,306.0156 C17.3125,308.5938 19.4219,310.4844 22.3125,310.4844 C23.5313,310.4844 24.6875,310.1875 25.4375,309.6406 C26.0156,309.2344 26.3438,308.7813 26.3438,308.3906 C26.3438,307.9375 25.9531,307.5469 25.4844,307.5469 C25.2656,307.5469 25.0625,307.625 24.875,307.8125 C24.4219,308.2969 24.4219,308.2969 24.2344,308.3906 C23.8125,308.6563 23.125,308.7813 22.3594,308.7813 C20.3125,308.7813 19.0156,307.6875 19.0156,305.9844 L19.0156,304.8906 C19.0156,303.1094 20.2656,301.7969 22,301.7969 C22.5781,301.7969 23.1875,301.9531 23.6563,302.2031 C24.1406,302.4844 24.3125,302.7031 24.4063,303.1094 C24.4688,303.5156 24.5,303.6406 24.6406,303.7656 C24.7813,303.9063 25.0156,304.0156 25.2344,304.0156 C25.5,304.0156 25.7656,303.875 25.9375,303.6563 C26.0469,303.5 26.0781,303.3125 26.0781,302.8906 L26.0781,301.4688 C26.0781,301.0313 26.0625,300.9063 25.9688,300.75 C25.8125,300.4844 25.5313,300.3438 25.2344,300.3438 C24.9375,300.3438 24.7344,300.4375 24.5156,300.75 L24.3438,300.6719 Z " fill="#000000"/><text fill="#000000" font-family="sans-serif" font-size="12" lengthAdjust="spacing" textLength="255" x="36" y="309.1543">Map&lt;&lt;nom:String,categorie:Categorie&gt;&gt;</text><rect fill="#FFFFFF" height="15.9688" style="stroke:#000000;stroke-width:1.0;stroke-dasharray:2.0,2.0;" width="147" x="303" y="286"/><text fill="#000000" font-family="sans-serif" font-size="12" font-style="italic" lengthAdjust="spacing" textLength="145" x="304" y="298.1387">Catalogue de catégories</text><line style="stroke:#A80036;stroke-width:1.5;" x1="8" x2="446" y1="321" y2="321"/><line style="stroke:#A80036;stroke-width:1.5;" x1="8" x2="446" y1="329" y2="329"/><ellipse cx="18" cy="340" fill="#84BE84" rx="3" ry="3" style="stroke:#038048;stroke-width:1.0;"/><text fill="#000000" font-family="sans-serif" font-size="11" lengthAdjust="spacing" textLength="151" x="27" y="343.2104">get(nom:String): Categorie</text><!--MD5=[3110dbef8258a6b966b2e55d3546d21d]
class Hotel--><rect codeLine="10" fill="#FEFECE" filter="url(#fttkox0qgt21r)" height="48" id="Hotel" style="stroke:#A80036;stroke-width:1.5;" width="237" x="616.5" y="29"/><ellipse cx="631.5" cy="45" fill="#ADD1B2" rx="11" ry="11" style="stroke:#A80036;stroke-width:1.0;"/><path d="M633.8438,40.6719 C632.9063,40.2344 632.3125,40.0938 631.4375,40.0938 C628.8125,40.0938 626.8125,42.1719 626.8125,44.8906 L626.8125,46.0156 C626.8125,48.5938 628.9219,50.4844 631.8125,50.4844 C633.0313,50.4844 634.1875,50.1875 634.9375,49.6406 C635.5156,49.2344 635.8438,48.7813 635.8438,48.3906 C635.8438,47.9375 635.4531,47.5469 634.9844,47.5469 C634.7656,47.5469 634.5625,47.625 634.375,47.8125 C633.9219,48.2969 633.9219,48.2969 633.7344,48.3906 C633.3125,48.6563 632.625,48.7813 631.8594,48.7813 C629.8125,48.7813 628.5156,47.6875 628.5156,45.9844 L628.5156,44.8906 C628.5156,43.1094 629.7656,41.7969 631.5,41.7969 C632.0781,41.7969 632.6875,41.9531 633.1563,42.2031 C633.6406,42.4844 633.8125,42.7031 633.9063,43.1094 C633.9688,43.5156 634,43.6406 634.1406,43.7656 C634.2813,43.9063 634.5156,44.0156 634.7344,44.0156 C635,44.0156 635.2656,43.875 635.4375,43.6563 C635.5469,43.5 635.5781,43.3125 635.5781,42.8906 L635.5781,41.4688 C635.5781,41.0313 635.5625,40.9063 635.4688,40.75 C635.3125,40.4844 635.0313,40.3438 634.7344,40.3438 C634.4375,40.3438 634.2344,40.4375 634.0156,40.75 L633.8438,40.6719 Z " fill="#000000"/><text fill="#000000" font-family="sans-serif" font-size="12" lengthAdjust="spacing" textLength="32" x="645.5" y="49.1543">Hotel</text><rect fill="#FFFFFF" height="15.9688" style="stroke:#000000;stroke-width:1.0;stroke-dasharray:2.0,2.0;" width="171" x="685.5" y="26"/><text fill="#000000" font-family="sans-serif" font-size="12" font-style="italic" lengthAdjust="spacing" textLength="169" x="686.5" y="38.1387">Conteneur, Object physique</text><line style="stroke:#A80036;stroke-width:1.5;" x1="617.5" x2="852.5" y1="61" y2="61"/><line style="stroke:#A80036;stroke-width:1.5;" x1="617.5" x2="852.5" y1="69" y2="69"/><!--MD5=[f9ef9660f44628e549271a3193d2c3b4]
class Categorie--><rect codeLine="33" fill="#FEFECE" filter="url(#fttkox0qgt21r)" height="79.5469" id="Categorie" style="stroke:#A80036;stroke-width:1.5;" width="448" x="90" y="720"/><ellipse cx="105" cy="738.9688" fill="#ADD1B2" rx="11" ry="11" style="stroke:#A80036;stroke-width:1.0;"/><path d="M107.3438,734.6406 C106.4063,734.2031 105.8125,734.0625 104.9375,734.0625 C102.3125,734.0625 100.3125,736.1406 100.3125,738.8594 L100.3125,739.9844 C100.3125,742.5625 102.4219,744.4531 105.3125,744.4531 C106.5313,744.4531 107.6875,744.1563 108.4375,743.6094 C109.0156,743.2031 109.3438,742.75 109.3438,742.3594 C109.3438,741.9063 108.9531,741.5156 108.4844,741.5156 C108.2656,741.5156 108.0625,741.5938 107.875,741.7813 C107.4219,742.2656 107.4219,742.2656 107.2344,742.3594 C106.8125,742.625 106.125,742.75 105.3594,742.75 C103.3125,742.75 102.0156,741.6563 102.0156,739.9531 L102.0156,738.8594 C102.0156,737.0781 103.2656,735.7656 105,735.7656 C105.5781,735.7656 106.1875,735.9219 106.6563,736.1719 C107.1406,736.4531 107.3125,736.6719 107.4063,737.0781 C107.4688,737.4844 107.5,737.6094 107.6406,737.7344 C107.7813,737.875 108.0156,737.9844 108.2344,737.9844 C108.5,737.9844 108.7656,737.8438 108.9375,737.625 C109.0469,737.4688 109.0781,737.2813 109.0781,736.8594 L109.0781,735.4375 C109.0781,735 109.0625,734.875 108.9688,734.7188 C108.8125,734.4531 108.5313,734.3125 108.2344,734.3125 C107.9375,734.3125 107.7344,734.4063 107.5156,734.7188 L107.3438,734.6406 Z " fill="#000000"/><text fill="#000000" font-family="sans-serif" font-size="12" font-style="italic" lengthAdjust="spacing" textLength="132" x="117" y="736.1387">«Description d'entité»</text><text fill="#000000" font-family="sans-serif" font-size="12" lengthAdjust="spacing" textLength="59" x="153.5" y="750.1074">Categorie</text><rect fill="#FFFFFF" height="15.9688" style="stroke:#000000;stroke-width:1.0;stroke-dasharray:2.0,2.0;" width="286" x="255" y="717"/><text fill="#000000" font-family="sans-serif" font-size="12" font-style="italic" lengthAdjust="spacing" textLength="284" x="256" y="729.1387">Catalogue de chambres ou Description d'entité</text><line style="stroke:#A80036;stroke-width:1.5;" x1="91" x2="537" y1="757.9375" y2="757.9375"/><rect fill="none" height="6" style="stroke:#C82930;stroke-width:1.0;" width="6" x="98" y="765.9375"/><text fill="#000000" font-family="sans-serif" font-size="11" lengthAdjust="spacing" textLength="65" x="110" y="772.1479">nom: String</text><line style="stroke:#A80036;stroke-width:1.5;" x1="91" x2="537" y1="778.7422" y2="778.7422"/><ellipse cx="101" cy="789.7422" fill="#84BE84" rx="3" ry="3" style="stroke:#038048;stroke-width:1.0;"/><text fill="#000000" font-family="sans-serif" font-size="11" lengthAdjust="spacing" textLength="370" x="110" y="792.9526">getChambreLibre(dateArrivé: String,dateDepart:String): Chambre</text><!--MD5=[9c46470aa33a0c75e6d1dfdefc2f9c22]
class Reservation--><rect codeLine="15" fill="#FEFECE" filter="url(#fttkox0qgt21r)" height="124.8281" id="Reservation" style="stroke:#A80036;stroke-width:1.5;" width="439" x="288.5" y="380"/><ellipse cx="431.25" cy="396" fill="#ADD1B2" rx="11" ry="11" style="stroke:#A80036;stroke-width:1.0;"/><path d="M433.5938,391.6719 C432.6563,391.2344 432.0625,391.0938 431.1875,391.0938 C428.5625,391.0938 426.5625,393.1719 426.5625,395.8906 L426.5625,397.0156 C426.5625,399.5938 428.6719,401.4844 431.5625,401.4844 C432.7813,401.4844 433.9375,401.1875 434.6875,400.6406 C435.2656,400.2344 435.5938,399.7813 435.5938,399.3906 C435.5938,398.9375 435.2031,398.5469 434.7344,398.5469 C434.5156,398.5469 434.3125,398.625 434.125,398.8125 C433.6719,399.2969 433.6719,399.2969 433.4844,399.3906 C433.0625,399.6563 432.375,399.7813 431.6094,399.7813 C429.5625,399.7813 428.2656,398.6875 428.2656,396.9844 L428.2656,395.8906 C428.2656,394.1094 429.5156,392.7969 431.25,392.7969 C431.8281,392.7969 432.4375,392.9531 432.9063,393.2031 C433.3906,393.4844 433.5625,393.7031 433.6563,394.1094 C433.7188,394.5156 433.75,394.6406 433.8906,394.7656 C434.0313,394.9063 434.2656,395.0156 434.4844,395.0156 C434.75,395.0156 435.0156,394.875 435.1875,394.6563 C435.2969,394.5 435.3281,394.3125 435.3281,393.8906 L435.3281,392.4688 C435.3281,392.0313 435.3125,391.9063 435.2188,391.75 C435.0625,391.4844 434.7813,391.3438 434.4844,391.3438 C434.1875,391.3438 433.9844,391.4375 433.7656,391.75 L433.5938,391.6719 Z " fill="#000000"/><text fill="#000000" font-family="sans-serif" font-size="12" lengthAdjust="spacing" textLength="71" x="451.75" y="400.1543">Reservation</text><rect fill="#FFFFFF" height="15.9688" style="stroke:#000000;stroke-width:1.0;stroke-dasharray:2.0,2.0;" width="72" x="658.5" y="377"/><text fill="#000000" font-family="sans-serif" font-size="12" font-style="italic" lengthAdjust="spacing" textLength="70" x="659.5" y="389.1387">Transaction</text><line style="stroke:#A80036;stroke-width:1.5;" x1="289.5" x2="726.5" y1="412" y2="412"/><rect fill="none" height="6" style="stroke:#C82930;stroke-width:1.0;" width="6" x="296.5" y="420"/><text fill="#000000" font-family="sans-serif" font-size="11" lengthAdjust="spacing" textLength="124" x="308.5" y="426.2104">noConfirmation: string</text><rect fill="none" height="6" style="stroke:#C82930;stroke-width:1.0;" width="6" x="296.5" y="432.8047"/><text fill="#000000" font-family="sans-serif" font-size="11" lengthAdjust="spacing" textLength="93" x="308.5" y="439.0151">dateArrive: date</text><rect fill="none" height="6" style="stroke:#C82930;stroke-width:1.0;" width="6" x="296.5" y="445.6094"/><text fill="#000000" font-family="sans-serif" font-size="11" lengthAdjust="spacing" textLength="98" x="308.5" y="451.8198">dateDepart: date</text><line style="stroke:#A80036;stroke-width:1.5;" x1="289.5" x2="726.5" y1="458.4141" y2="458.4141"/><ellipse cx="299.5" cy="469.4141" fill="#84BE84" rx="3" ry="3" style="stroke:#038048;stroke-width:1.0;"/><text fill="#000000" font-family="sans-serif" font-size="11" lengthAdjust="spacing" textLength="413" x="308.5" y="472.6245">Reservation(ch:Chambre,c:Commis,dateArrive:String, dateDepart: String)</text><ellipse cx="299.5" cy="482.2188" fill="#84BE84" rx="3" ry="3" style="stroke:#038048;stroke-width:1.0;"/><text fill="#000000" font-family="sans-serif" font-size="11" lengthAdjust="spacing" textLength="229" x="308.5" y="485.4292">confirmationReservation(cl:Client): string</text><rect fill="#F24D5C" height="6" style="stroke:#C82930;stroke-width:1.0;" width="6" x="296.5" y="492.0234"/><text fill="#000000" font-family="sans-serif" font-size="11" lengthAdjust="spacing" textLength="113" x="308.5" y="498.2339">setNoConfirmation()</text><!--MD5=[aeb2a05b656f26b4e931c999627a7b50]
class Commis--><rect codeLine="23" fill="#FEFECE" filter="url(#fttkox0qgt21r)" height="48" id="Commis" style="stroke:#A80036;stroke-width:1.5;" width="109" x="618.5" y="192"/><ellipse cx="633.5" cy="208" fill="#ADD1B2" rx="11" ry="11" style="stroke:#A80036;stroke-width:1.0;"/><path d="M635.8438,203.6719 C634.9063,203.2344 634.3125,203.0938 633.4375,203.0938 C630.8125,203.0938 628.8125,205.1719 628.8125,207.8906 L628.8125,209.0156 C628.8125,211.5938 630.9219,213.4844 633.8125,213.4844 C635.0313,213.4844 636.1875,213.1875 636.9375,212.6406 C637.5156,212.2344 637.8438,211.7813 637.8438,211.3906 C637.8438,210.9375 637.4531,210.5469 636.9844,210.5469 C636.7656,210.5469 636.5625,210.625 636.375,210.8125 C635.9219,211.2969 635.9219,211.2969 635.7344,211.3906 C635.3125,211.6563 634.625,211.7813 633.8594,211.7813 C631.8125,211.7813 630.5156,210.6875 630.5156,208.9844 L630.5156,207.8906 C630.5156,206.1094 631.7656,204.7969 633.5,204.7969 C634.0781,204.7969 634.6875,204.9531 635.1563,205.2031 C635.6406,205.4844 635.8125,205.7031 635.9063,206.1094 C635.9688,206.5156 636,206.6406 636.1406,206.7656 C636.2813,206.9063 636.5156,207.0156 636.7344,207.0156 C637,207.0156 637.2656,206.875 637.4375,206.6563 C637.5469,206.5 637.5781,206.3125 637.5781,205.8906 L637.5781,204.4688 C637.5781,204.0313 637.5625,203.9063 637.4688,203.75 C637.3125,203.4844 637.0313,203.3438 636.7344,203.3438 C636.4375,203.3438 636.2344,203.4375 636.0156,203.75 L635.8438,203.6719 Z " fill="#000000"/><text fill="#000000" font-family="sans-serif" font-size="12" lengthAdjust="spacing" textLength="48" x="647.5" y="212.1543">Commis</text><rect fill="#FFFFFF" height="15.9688" style="stroke:#000000;stroke-width:1.0;stroke-dasharray:2.0,2.0;" width="27" x="703.5" y="189"/><text fill="#000000" font-family="sans-serif" font-size="12" font-style="italic" lengthAdjust="spacing" textLength="25" x="704.5" y="201.1387">Role</text><line style="stroke:#A80036;stroke-width:1.5;" x1="619.5" x2="726.5" y1="224" y2="224"/><line style="stroke:#A80036;stroke-width:1.5;" x1="619.5" x2="726.5" y1="232" y2="232"/><!--MD5=[5caef05668a3671b919925ac15293d4d]
class Chambre--><rect codeLine="25" fill="#FEFECE" filter="url(#fttkox0qgt21r)" height="60.8047" id="Chambre" style="stroke:#A80036;stroke-width:1.5;" width="474" x="280" y="582"/><ellipse cx="295" cy="598" fill="#ADD1B2" rx="11" ry="11" style="stroke:#A80036;stroke-width:1.0;"/><path d="M297.3438,593.6719 C296.4063,593.2344 295.8125,593.0938 294.9375,593.0938 C292.3125,593.0938 290.3125,595.1719 290.3125,597.8906 L290.3125,599.0156 C290.3125,601.5938 292.4219,603.4844 295.3125,603.4844 C296.5313,603.4844 297.6875,603.1875 298.4375,602.6406 C299.0156,602.2344 299.3438,601.7813 299.3438,601.3906 C299.3438,600.9375 298.9531,600.5469 298.4844,600.5469 C298.2656,600.5469 298.0625,600.625 297.875,600.8125 C297.4219,601.2969 297.4219,601.2969 297.2344,601.3906 C296.8125,601.6563 296.125,601.7813 295.3594,601.7813 C293.3125,601.7813 292.0156,600.6875 292.0156,598.9844 L292.0156,597.8906 C292.0156,596.1094 293.2656,594.7969 295,594.7969 C295.5781,594.7969 296.1875,594.9531 296.6563,595.2031 C297.1406,595.4844 297.3125,595.7031 297.4063,596.1094 C297.4688,596.5156 297.5,596.6406 297.6406,596.7656 C297.7813,596.9063 298.0156,597.0156 298.2344,597.0156 C298.5,597.0156 298.7656,596.875 298.9375,596.6563 C299.0469,596.5 299.0781,596.3125 299.0781,595.8906 L299.0781,594.4688 C299.0781,594.0313 299.0625,593.9063 298.9688,593.75 C298.8125,593.4844 298.5313,593.3438 298.2344,593.3438 C297.9375,593.3438 297.7344,593.4375 297.5156,593.75 L297.3438,593.6719 Z " fill="#000000"/><text fill="#000000" font-family="sans-serif" font-size="12" lengthAdjust="spacing" textLength="54" x="309" y="602.1543">Chambre</text><rect fill="#FFFFFF" height="15.9688" style="stroke:#000000;stroke-width:1.0;stroke-dasharray:2.0,2.0;" width="386" x="371" y="579"/><text fill="#000000" font-family="sans-serif" font-size="12" font-style="italic" lengthAdjust="spacing" textLength="384" x="372" y="591.1387">Objet physique, Contenu dans l'hotel, Produit d'une transaction</text><line style="stroke:#A80036;stroke-width:1.5;" x1="281" x2="753" y1="614" y2="614"/><rect fill="none" height="6" style="stroke:#C82930;stroke-width:1.0;" width="6" x="288" y="622"/><text fill="#000000" font-family="sans-serif" font-size="11" lengthAdjust="spacing" textLength="82" x="300" y="628.2104">numero: string</text><line style="stroke:#A80036;stroke-width:1.5;" x1="281" x2="753" y1="634.8047" y2="634.8047"/><!--MD5=[ed6624c6556d5e7b1bd23032162d20b7]
class Client--><rect codeLine="28" fill="#FEFECE" filter="url(#fttkox0qgt21r)" height="86.4141" id="Client" style="stroke:#A80036;stroke-width:1.5;" width="227" x="356.5" y="173"/><ellipse cx="434.75" cy="189" fill="#ADD1B2" rx="11" ry="11" style="stroke:#A80036;stroke-width:1.0;"/><path d="M437.0938,184.6719 C436.1563,184.2344 435.5625,184.0938 434.6875,184.0938 C432.0625,184.0938 430.0625,186.1719 430.0625,188.8906 L430.0625,190.0156 C430.0625,192.5938 432.1719,194.4844 435.0625,194.4844 C436.2813,194.4844 437.4375,194.1875 438.1875,193.6406 C438.7656,193.2344 439.0938,192.7813 439.0938,192.3906 C439.0938,191.9375 438.7031,191.5469 438.2344,191.5469 C438.0156,191.5469 437.8125,191.625 437.625,191.8125 C437.1719,192.2969 437.1719,192.2969 436.9844,192.3906 C436.5625,192.6563 435.875,192.7813 435.1094,192.7813 C433.0625,192.7813 431.7656,191.6875 431.7656,189.9844 L431.7656,188.8906 C431.7656,187.1094 433.0156,185.7969 434.75,185.7969 C435.3281,185.7969 435.9375,185.9531 436.4063,186.2031 C436.8906,186.4844 437.0625,186.7031 437.1563,187.1094 C437.2188,187.5156 437.25,187.6406 437.3906,187.7656 C437.5313,187.9063 437.7656,188.0156 437.9844,188.0156 C438.25,188.0156 438.5156,187.875 438.6875,187.6563 C438.7969,187.5 438.8281,187.3125 438.8281,186.8906 L438.8281,185.4688 C438.8281,185.0313 438.8125,184.9063 438.7188,184.75 C438.5625,184.4844 438.2813,184.3438 437.9844,184.3438 C437.6875,184.3438 437.4844,184.4375 437.2656,184.75 L437.0938,184.6719 Z " fill="#000000"/><text fill="#000000" font-family="sans-serif" font-size="12" lengthAdjust="spacing" textLength="33" x="455.25" y="193.1543">Client</text><rect fill="#FFFFFF" height="15.9688" style="stroke:#000000;stroke-width:1.0;stroke-dasharray:2.0,2.0;" width="27" x="559.5" y="170"/><text fill="#000000" font-family="sans-serif" font-size="12" font-style="italic" lengthAdjust="spacing" textLength="25" x="560.5" y="182.1387">Role</text><line style="stroke:#A80036;stroke-width:1.5;" x1="357.5" x2="582.5" y1="205" y2="205"/><rect fill="none" height="6" style="stroke:#C82930;stroke-width:1.0;" width="6" x="364.5" y="213"/><text fill="#000000" font-family="sans-serif" font-size="11" lengthAdjust="spacing" textLength="59" x="376.5" y="219.2104">nom:string</text><rect fill="none" height="6" style="stroke:#C82930;stroke-width:1.0;" width="6" x="364.5" y="225.8047"/><text fill="#000000" font-family="sans-serif" font-size="11" lengthAdjust="spacing" textLength="97" x="376.5" y="232.0151">telephone: string</text><line style="stroke:#A80036;stroke-width:1.5;" x1="357.5" x2="582.5" y1="238.6094" y2="238.6094"/><ellipse cx="367.5" cy="249.6094" fill="#84BE84" rx="3" ry="3" style="stroke:#038048;stroke-width:1.0;"/><text fill="#000000" font-family="sans-serif" font-size="11" lengthAdjust="spacing" textLength="201" x="376.5" y="252.8198">Client(Nom:string, telephone:string)</text><!--MD5=[1a7731b8f2c930c6d97d17ac0ebde2a8]
link Hotel to Chambre--><path codeLine="35" d="M747.9244,88.4459 C747.9244,88.4459 832.01,373.982 745,505 C723.122,537.943 688.211,560.905 652.218,576.825 " fill="none" id="Hotel-Chambre" style="stroke:#A80036;stroke-width:1.0;"/><polygon fill="#A80036" points="639.987,581.958,649.8337,582.1631,644.5973,580.0229,646.7375,574.7865,639.987,581.958" style="stroke:#A80036;stroke-width:1.0;"/><line style="stroke:#A80036;stroke-width:1.0;" x1="644.5973" x2="651.974" y1="580.0229" y2="576.9265"/><polygon fill="#A80036" points="743.925,77.132,742.1534,84.1221,747.9244,88.4459,749.696,81.4558,743.925,77.132" style="stroke:#A80036;stroke-width:1.0;"/><text fill="#000000" font-family="sans-serif" font-size="13" lengthAdjust="spacing" textLength="54" x="793" y="324.0669">possède</text><text fill="#000000" font-family="sans-serif" font-size="13" lengthAdjust="spacing" textLength="7" x="659.1248" y="570.7391">*</text><!--MD5=[0c645827cdb9f485350039ec8cb49e29]
link Chambre to Categorie--><path codeLine="36" d="M475.43,643.295 C447.829,663.078 411.017,689.463 379.516,712.0414 " fill="none" id="Chambre-to-Categorie" style="stroke:#A80036;stroke-width:1.0;"/><polygon fill="#FFFFFF" points="368.619,719.8517,375.826,719.6077,378.3727,712.8613,371.1657,713.1053,368.619,719.8517" style="stroke:#A80036;stroke-width:1.0;"/><text fill="#000000" font-family="sans-serif" font-size="13" lengthAdjust="spacing" textLength="66" x="435" y="686.0669">appartient</text><text fill="#000000" font-family="sans-serif" font-size="13" lengthAdjust="spacing" textLength="7" x="459.5568" y="662.9335">*</text><!--MD5=[9ee890e3271cd9be3ed17d9ceb0af7d4]
reverse link Client to Reservation--><path codeLine="37" d="M478.043,264.52 C483.736,298.151 491.422,343.559 497.583,379.96 " fill="none" id="Client-backto-Reservation" style="stroke:#A80036;stroke-width:1.0;"/><polygon fill="#A80036" points="477.148,259.227,474.7062,268.7684,477.9825,264.1569,482.594,267.4332,477.148,259.227" style="stroke:#A80036;stroke-width:1.0;"/><text fill="#000000" font-family="sans-serif" font-size="13" lengthAdjust="spacing" textLength="61" x="494" y="324.0669">demande</text><!--MD5=[68baab2b76d878f08dc09388ccbc52c4]
reverse link Commis to Reservation--><path codeLine="38" d="M652.764,244.534 C628.197,277.96 586.022,335.342 553.512,379.576 " fill="none" id="Commis-backto-Reservation" style="stroke:#A80036;stroke-width:1.0;"/><polygon fill="#A80036" points="655.964,240.18,647.4113,245.0638,653.0032,244.2091,653.8579,249.801,655.964,240.18" style="stroke:#A80036;stroke-width:1.0;"/><text fill="#000000" font-family="sans-serif" font-size="13" lengthAdjust="spacing" textLength="28" x="621" y="324.0669">cree</text><!--MD5=[6c051db2d685ac22b70f1baef8e033a7]
reverse link Hotel to Commis--><path codeLine="39" d="M717.979,89.004 C712.579,100.651 706.776,113.772 702,126 C693.427,147.949 685.262,173.586 679.793,191.693 " fill="none" id="Hotel-backto-Commis" style="stroke:#A80036;stroke-width:1.0;"/><polygon fill="#A80036" points="723.613,77.056,717.4361,80.7771,718.4952,87.91,724.6721,84.1889,723.613,77.056" style="stroke:#A80036;stroke-width:1.0;"/><text fill="#000000" font-family="sans-serif" font-size="13" lengthAdjust="spacing" textLength="51" x="703" y="139.0669">Emploie</text><text fill="#000000" font-family="sans-serif" font-size="13" lengthAdjust="spacing" textLength="7" x="673.5957" y="181.0231">*</text><!--MD5=[1528bbe5b2a142ac6d8a598c4a4727cd]
link Reservation to Chambre--><path codeLine="40" d="M511.3,505.103 C512.595,529.276 514.033,556.118 515.141,576.794 " fill="none" id="Reservation-to-Chambre" style="stroke:#A80036;stroke-width:1.0;"/><polygon fill="#A80036" points="515.415,581.912,518.9258,572.7101,515.1464,576.9192,510.9374,573.1398,515.415,581.912" style="stroke:#A80036;stroke-width:1.0;"/><polygon fill="#000000" points="518.7325,538.5736,516.2817,547.7629,522.1511,547.4485,518.7325,538.5736" style="stroke:#000000;stroke-width:1.0;"/><text fill="#000000" font-family="sans-serif" font-size="13" lengthAdjust="spacing" textLength="98" x="528" y="548.0669">est reservé par</text><text fill="#000000" font-family="sans-serif" font-size="13" lengthAdjust="spacing" textLength="8" x="503.2234" y="524.8541">1</text><text fill="#000000" font-family="sans-serif" font-size="13" lengthAdjust="spacing" textLength="8" x="506.2631" y="571.1571">1</text><!--MD5=[8eb908f5b6082107411653d29f28e591]
link ControleurReservation to MC--><path codeLine="41" d="M306.842,96.203 C288.154,148.235 256.746,235.682 239.416,283.93 " fill="none" id="ControleurReservation-to-MC" style="stroke:#A80036;stroke-width:1.0;"/><polygon fill="#A80036" points="237.682,288.759,244.4886,281.6407,239.372,284.0533,236.9594,278.9367,237.682,288.759" style="stroke:#A80036;stroke-width:1.0;"/><!--MD5=[a8407828f39a50610473eaf782cca2cc]
link ControleurReservation to Commis--><path codeLine="42" d="M429.078,96.001 C481.592,117.522 545.359,145.042 601,173 C610.868,177.958 621.25,183.693 630.964,189.3 " fill="none" id="ControleurReservation-to-Commis" style="stroke:#A80036;stroke-width:1.0;"/><polygon fill="#A80036" points="635.376,191.864,629.6033,183.8842,631.0527,189.3523,625.5846,190.8016,635.376,191.864" style="stroke:#A80036;stroke-width:1.0;"/><!--MD5=[fc715ce0d9c80067c59184edcd92d574]
link MC to Categorie--><path codeLine="43" d="M227.148,350.421 C228.108,408.065 233.557,538.093 262,643 C268.711,667.754 280.045,693.938 290.422,715.1524 " fill="none" id="MC-to-Categorie" style="stroke:#A80036;stroke-width:1.0;"/><polygon fill="#A80036" points="292.757,719.8778,292.3555,710.0371,290.5418,715.3953,285.1836,713.5815,292.757,719.8778" style="stroke:#A80036;stroke-width:1.0;"/><text fill="#000000" font-family="sans-serif" font-size="13" lengthAdjust="spacing" textLength="7" x="281.5043" y="708.81">*</text><!--MD5=[c6e13c3a2f92fd33b6c0b64378e9e620]
@startuml
class ControleurReservation<controleur de session> {
  +demarrerReservation()
  +reserverChambre(dateArrive:string, dateDepart:string, categorie: String)
  +confirmerReservation(nom:string, telephone:string)
}
class "Map<<nom:String,categorie:Categorie>> <Catalogue de catégories>" as MC {
  +get(nom:String): Categorie
}

class Hotel <Conteneur, Object physique>
class Categorie <<Description d'entité>> {
  -nom: String
  +getChambreLibre(dateArrivé: String,dateDepart:String): Chambre
}
class Reservation <Transaction>{
  -noConfirmation: string
  -dateArrive: date
  -dateDepart: date
  +Reservation(ch:Chambre,c:Commis,dateArrive:String, dateDepart: String)
  +confirmationReservation(cl:Client): string
  -setNoConfirmation()
}
class Commis <Role>

class Chambre <Objet physique, Contenu dans l'hotel, Produit d'une transaction>{
  -numero: string
}
class Client <Role> {
  -nom:string
  -telephone: string
  +Client(Nom:string, telephone:string)
}
class Categorie <Catalogue de chambres ou Description d'entité>

Hotel  *- -> "*" Chambre: possède
Chambre "*" - -o Categorie: appartient
Client  <- -  Reservation: demande
Commis  <- -  Reservation: cree
Hotel  *- - "*" Commis : Emploie
Reservation "1" - -> "1" Chambre : est reservé par <
ControleurReservation - -> MC
ControleurReservation - -> Commis
MC - -> "*" Categorie
@enduml

PlantUML version 1.2021.2beta2(Unknown compile time)
(GPL source distribution)
Java Runtime: Java(TM) SE Runtime Environment
JVM: Java HotSpot(TM) 64-Bit Server VM
Default Encoding: UTF-8
Language: en
Country: US
--></g></svg>