<?xml version="1.0" encoding="UTF-8" standalone="no"?><svg xmlns="http://www.w3.org/2000/svg" xmlns:xlink="http://www.w3.org/1999/xlink" contentScriptType="application/ecmascript" contentStyleType="text/css" height="789px" preserveAspectRatio="none" style="width:1288px;height:789px;" version="1.1" viewBox="0 0 1288 789" width="1288px" zoomAndPan="magnify"><defs/><g><line style="stroke:#A80036;stroke-width:1.0;stroke-dasharray:5.0,5.0;" x1="170" x2="170" y1="68.8906" y2="782.0078"/><line style="stroke:#A80036;stroke-width:1.0;stroke-dasharray:5.0,5.0;" x1="369" x2="369" y1="68.8906" y2="782.0078"/><line style="stroke:#A80036;stroke-width:1.0;stroke-dasharray:5.0,5.0;" x1="520" x2="520" y1="68.8906" y2="782.0078"/><line style="stroke:#A80036;stroke-width:1.0;stroke-dasharray:5.0,5.0;" x1="642" x2="642" y1="68.8906" y2="782.0078"/><line style="stroke:#A80036;stroke-width:1.0;stroke-dasharray:5.0,5.0;" x1="984.5" x2="984.5" y1="657.7773" y2="782.0078"/><line style="stroke:#A80036;stroke-width:1.0;stroke-dasharray:5.0,5.0;" x1="1176.5" x2="1176.5" y1="68.8906" y2="782.0078"/><rect fill="#FEFECE" height="30.2969" style="stroke:#A80036;stroke-width:1.5;" width="182" x="79" y="37.5938"/><text fill="#000000" font-family="sans-serif" font-size="14" lengthAdjust="spacing" textLength="168" x="86" y="57.5889">:ControleurReservation</text><rect fill="#FEFECE" height="62.8906" style="stroke:#A80036;stroke-width:1.5;" width="170" x="284" y="5"/><text fill="#000000" font-family="sans-serif" font-size="14" lengthAdjust="spacing" textLength="68" x="335" y="24.9951">mc:Map&lt;</text><text fill="#000000" font-family="sans-serif" font-size="14" lengthAdjust="spacing" textLength="85" x="326.5" y="41.292">nom:String,</text><text fill="#000000" font-family="sans-serif" font-size="14" lengthAdjust="spacing" textLength="156" x="291" y="57.5889">categorie:Categorie&gt;</text><rect fill="#FEFECE" height="30.2969" style="stroke:#A80036;stroke-width:1.5;" width="113" x="464" y="37.5938"/><text fill="#000000" font-family="sans-serif" font-size="14" lengthAdjust="spacing" textLength="99" x="471" y="57.5889">cat:Categorie</text><rect fill="#FEFECE" height="30.2969" style="stroke:#A80036;stroke-width:1.5;" width="111" x="587" y="37.5938"/><text fill="#000000" font-family="sans-serif" font-size="14" lengthAdjust="spacing" textLength="97" x="594" y="57.5889">r:Reservation</text><rect fill="#FEFECE" height="30.2969" style="stroke:#A80036;stroke-width:1.5;" width="211" x="1071.5" y="37.5938"/><text fill="#000000" font-family="sans-serif" font-size="14" lengthAdjust="spacing" textLength="197" x="1078.5" y="57.5889">llr:List&lt;:LigneReservation&gt;</text><path d="M194,83.8906 L194,153.8906 L364,153.8906 L364,93.8906 L354,83.8906 L194,83.8906 " fill="#FBFB77" style="stroke:#A80036;stroke-width:1.0;"/><path d="M354,83.8906 L354,93.8906 L364,93.8906 L354,83.8906 " fill="#FBFB77" style="stroke:#A80036;stroke-width:1.0;"/><text fill="#000000" font-family="sans-serif" font-size="13" lengthAdjust="spacing" textLength="81" x="200" y="100.9575">Visible par le</text><text fill="#000000" font-family="sans-serif" font-size="13" lengthAdjust="spacing" textLength="119" x="200" y="116.0903">controleur puisque</text><text fill="#000000" font-family="sans-serif" font-size="13" lengthAdjust="spacing" textLength="145" x="200" y="131.2231">tout les hotels utilisent</text><text fill="#000000" font-family="sans-serif" font-size="13" lengthAdjust="spacing" textLength="142" x="200" y="146.356">les mêmes catégories</text><path d="M5,164.4219 L5,189.4219 L165,189.4219 L165,174.4219 L155,164.4219 L5,164.4219 " fill="#FBFB77" style="stroke:#A80036;stroke-width:1.0;"/><path d="M155,164.4219 L155,174.4219 L165,174.4219 L155,164.4219 " fill="#FBFB77" style="stroke:#A80036;stroke-width:1.0;"/><text fill="#000000" font-family="sans-serif" font-size="13" lengthAdjust="spacing" textLength="139" x="11" y="181.4888">Controleur de session</text><polygon fill="#A80036" points="158,272.2188,168,276.2188,158,280.2188" style="stroke:#A80036;stroke-width:1.0;"/><line style="stroke:#A80036;stroke-width:1.0;" x1="0" x2="164" y1="276.2188" y2="276.2188"/><text fill="#000000" font-family="sans-serif" font-size="13" lengthAdjust="spacing" textLength="125" x="7" y="210.6216">reserverChambres(</text><text fill="#000000" font-family="sans-serif" font-size="13" lengthAdjust="spacing" textLength="103" x="7" y="225.7544">quantity:integer</text><text fill="#000000" font-family="sans-serif" font-size="13" lengthAdjust="spacing" textLength="113" x="7" y="240.8872">dateArrive:String,</text><text fill="#000000" font-family="sans-serif" font-size="13" lengthAdjust="spacing" textLength="119" x="7" y="256.02">dateDepart:String,</text><text fill="#000000" font-family="sans-serif" font-size="13" lengthAdjust="spacing" textLength="111" x="7" y="271.1528">categorie: String)</text><path d="M175,289.2188 L175,314.2188 L336,314.2188 L336,299.2188 L326,289.2188 L175,289.2188 " fill="#FBFB77" style="stroke:#A80036;stroke-width:1.0;"/><path d="M326,289.2188 L326,299.2188 L336,299.2188 L326,289.2188 " fill="#FBFB77" style="stroke:#A80036;stroke-width:1.0;"/><text fill="#000000" font-family="sans-serif" font-size="13" lengthAdjust="spacing" textLength="140" x="181" y="306.2856">Expert en information</text><polygon fill="#A80036" points="357,336.4844,367,340.4844,357,344.4844" style="stroke:#A80036;stroke-width:1.0;"/><line style="stroke:#A80036;stroke-width:1.0;" x1="170" x2="363" y1="340.4844" y2="340.4844"/><text fill="#000000" font-family="sans-serif" font-size="13" lengthAdjust="spacing" textLength="175" x="177" y="335.4185">cat = get(categorie: String)</text><path d="M175,353.4844 L175,378.4844 L336,378.4844 L336,363.4844 L326,353.4844 L175,353.4844 " fill="#FBFB77" style="stroke:#A80036;stroke-width:1.0;"/><path d="M326,353.4844 L326,363.4844 L336,363.4844 L326,353.4844 " fill="#FBFB77" style="stroke:#A80036;stroke-width:1.0;"/><text fill="#000000" font-family="sans-serif" font-size="13" lengthAdjust="spacing" textLength="140" x="181" y="370.5513">Expert en information</text><polygon fill="#A80036" points="508.5,446.1484,518.5,450.1484,508.5,454.1484" style="stroke:#A80036;stroke-width:1.0;"/><line style="stroke:#A80036;stroke-width:1.0;" x1="170" x2="514.5" y1="450.1484" y2="450.1484"/><text fill="#000000" font-family="sans-serif" font-size="13" lengthAdjust="spacing" textLength="166" x="177" y="399.6841">[ch] = getChambresLibre(</text><text fill="#000000" font-family="sans-serif" font-size="13" lengthAdjust="spacing" textLength="103" x="177" y="414.8169">quantity:integer</text><text fill="#000000" font-family="sans-serif" font-size="13" lengthAdjust="spacing" textLength="117" x="177" y="429.9497">dateArrivé: String,</text><text fill="#000000" font-family="sans-serif" font-size="13" lengthAdjust="spacing" textLength="120" x="177" y="445.0825">dateDepart:String)</text><path d="M175,463.1484 L175,488.1484 L336,488.1484 L336,473.1484 L326,463.1484 L175,463.1484 " fill="#FBFB77" style="stroke:#A80036;stroke-width:1.0;"/><path d="M326,463.1484 L326,473.1484 L336,473.1484 L326,463.1484 " fill="#FBFB77" style="stroke:#A80036;stroke-width:1.0;"/><text fill="#000000" font-family="sans-serif" font-size="13" lengthAdjust="spacing" textLength="140" x="181" y="480.2153">expert en information</text><polygon fill="#A80036" points="630.5,540.6797,640.5,544.6797,630.5,548.6797" style="stroke:#A80036;stroke-width:1.0;"/><line style="stroke:#A80036;stroke-width:1.0;" x1="170" x2="636.5" y1="544.6797" y2="544.6797"/><text fill="#000000" font-family="sans-serif" font-size="13" lengthAdjust="spacing" textLength="131" x="177" y="509.3481">r=ajouterChambres(</text><text fill="#000000" font-family="sans-serif" font-size="13" lengthAdjust="spacing" textLength="93" x="177" y="524.481">[ch]:Chambre,</text><text fill="#000000" font-family="sans-serif" font-size="13" lengthAdjust="spacing" textLength="241" x="177" y="539.6138">dateArrive:String, dateDepart: String)</text><path d="M647,557.6797 L647,612.6797 L768,612.6797 L768,567.6797 L758,557.6797 L647,557.6797 " fill="#FBFB77" style="stroke:#A80036;stroke-width:1.0;"/><path d="M758,557.6797 L758,567.6797 L768,567.6797 L758,557.6797 " fill="#FBFB77" style="stroke:#A80036;stroke-width:1.0;"/><text fill="#000000" font-family="sans-serif" font-size="13" lengthAdjust="spacing" textLength="60" x="653" y="574.7466">Createur,</text><text fill="#000000" font-family="sans-serif" font-size="13" lengthAdjust="spacing" textLength="96" x="653" y="589.8794">forte cohesion,</text><text fill="#000000" font-family="sans-serif" font-size="13" lengthAdjust="spacing" textLength="97" x="653" y="605.0122">faible couplage</text><polygon fill="#A80036" points="895.5,665.4766,905.5,669.4766,895.5,673.4766" style="stroke:#A80036;stroke-width:1.0;"/><line style="stroke:#A80036;stroke-width:1.0;" x1="642.5" x2="901.5" y1="669.4766" y2="669.4766"/><text fill="#000000" font-family="sans-serif" font-size="13" lengthAdjust="spacing" textLength="46" x="649.5" y="634.145">create(</text><text fill="#000000" font-family="sans-serif" font-size="13" lengthAdjust="spacing" textLength="93" x="649.5" y="649.2778">[ch]:Chambre,</text><text fill="#000000" font-family="sans-serif" font-size="13" lengthAdjust="spacing" textLength="241" x="649.5" y="664.4106">dateArrive:String, dateDepart: String)</text><rect fill="#FEFECE" height="30.2969" style="stroke:#A80036;stroke-width:1.5;" width="154" x="907.5" y="636.1797"/><text fill="#000000" font-family="sans-serif" font-size="14" lengthAdjust="spacing" textLength="140" x="914.5" y="656.1748">lr:LigneReservation</text><path d="M647,682.4766 L647,737.4766 L912,737.4766 L912,692.4766 L902,682.4766 L647,682.4766 " fill="#FBFB77" style="stroke:#A80036;stroke-width:1.0;"/><path d="M902,682.4766 L902,692.4766 L912,692.4766 L902,682.4766 " fill="#FBFB77" style="stroke:#A80036;stroke-width:1.0;"/><text fill="#000000" font-family="sans-serif" font-size="13" lengthAdjust="spacing" textLength="140" x="653" y="699.5435">expert en information</text><text fill="#000000" font-family="sans-serif" font-size="13" lengthAdjust="spacing" textLength="139" x="653" y="714.6763">r a une visibilité sur llr</text><text fill="#000000" font-family="sans-serif" font-size="13" lengthAdjust="spacing" textLength="244" x="653" y="729.8091">llr est une liste de ligne de réservation</text><polygon fill="#A80036" points="1165,760.0078,1175,764.0078,1165,768.0078" style="stroke:#A80036;stroke-width:1.0;"/><line style="stroke:#A80036;stroke-width:1.0;" x1="642.5" x2="1171" y1="764.0078" y2="764.0078"/><text fill="#000000" font-family="sans-serif" font-size="13" lengthAdjust="spacing" textLength="174" x="649.5" y="758.9419">ajouterLigneReservarion(lr)</text><!--MD5=[5429008abe1bdc90a3544295a351965b]
@startuml
skinparam style strictuml
Participant ":ControleurReservation" as S
Participant "mc:Map<\nnom:String,\ncategorie:Categorie>" as MC
Participant "cat:Categorie" as CAT
Participant "r:Reservation" as R
Participant "lr:LigneReservation" as LR
Participant "llr:List<:LigneReservation>" as LLR

note left of MC: Visible par le \ncontroleur puisque \ntout les hotels utilisent \nles mêmes catégories

note left of S:Controleur de session
 -> S: reserverChambres(\nquantity:integer\ndateArrive:String, \ndateDepart:String, \ncategorie: String)
 
note right of S: Expert en information
S -> MC: cat = get(categorie: String)
 
note right of S: Expert en information
S -> CAT: [ch] = getChambresLibre(\nquantity:integer\ndateArrivé: String, \ndateDepart:String)

note right of S: expert en information
S -> R: r=ajouterChambres(\n[ch]:Chambre, \ndateArrive:String, dateDepart: String)

note right of R: Createur, \nforte cohesion, \nfaible couplage
R -> LR**: create(\n[ch]:Chambre, \ndateArrive:String, dateDepart: String)


note right of R: expert en information\nr a une visibilité sur llr\nllr est une liste de ligne de réservation
R -> LLR: ajouterLigneReservarion(lr)
@enduml

PlantUML version 1.2021.2beta7(Unknown compile time)
(GPL source distribution)
Java Runtime: Java(TM) SE Runtime Environment
JVM: Java HotSpot(TM) 64-Bit Server VM
Default Encoding: UTF-8
Language: en
Country: US
--></g></svg>