<?xml version="1.0" encoding="UTF-8" standalone="no"?><svg xmlns="http://www.w3.org/2000/svg" xmlns:xlink="http://www.w3.org/1999/xlink" contentScriptType="application/ecmascript" contentStyleType="text/css" height="379px" preserveAspectRatio="none" style="width:882px;height:379px;" version="1.1" viewBox="0 0 882 379" width="882px" zoomAndPan="magnify"><defs/><g><line style="stroke:#A80036;stroke-width:1.0;stroke-dasharray:5.0,5.0;" x1="290" x2="290" y1="36.2969" y2="372.0547"/><line style="stroke:#A80036;stroke-width:1.0;stroke-dasharray:5.0,5.0;" x1="446" x2="446" y1="258.3594" y2="372.0547"/><line style="stroke:#A80036;stroke-width:1.0;stroke-dasharray:5.0,5.0;" x1="583" x2="583" y1="36.2969" y2="372.0547"/><line style="stroke:#A80036;stroke-width:1.0;stroke-dasharray:5.0,5.0;" x1="770" x2="770" y1="351.4063" y2="372.0547"/><rect fill="#FEFECE" height="30.2969" style="stroke:#A80036;stroke-width:1.5;" width="182" x="199" y="5"/><text fill="#000000" font-family="sans-serif" font-size="14" lengthAdjust="spacing" textLength="168" x="206" y="24.9951">:ControleurReservation</text><rect fill="#FEFECE" height="30.2969" style="stroke:#A80036;stroke-width:1.5;" width="143" x="512" y="5"/><text fill="#000000" font-family="sans-serif" font-size="14" lengthAdjust="spacing" textLength="129" x="519" y="24.9951">:List&lt;:Categorie&gt;</text><path d="M588,51.2969 L588,121.2969 L758,121.2969 L758,61.2969 L748,51.2969 L588,51.2969 " fill="#FBFB77" style="stroke:#A80036;stroke-width:1.0;"/><path d="M748,51.2969 L748,61.2969 L758,61.2969 L748,51.2969 " fill="#FBFB77" style="stroke:#A80036;stroke-width:1.0;"/><text fill="#000000" font-family="sans-serif" font-size="13" lengthAdjust="spacing" textLength="81" x="594" y="68.3638">Visible par le</text><text fill="#000000" font-family="sans-serif" font-size="13" lengthAdjust="spacing" textLength="119" x="594" y="83.4966">controleur puisque</text><text fill="#000000" font-family="sans-serif" font-size="13" lengthAdjust="spacing" textLength="145" x="594" y="98.6294">tout les hotels utilisent</text><text fill="#000000" font-family="sans-serif" font-size="13" lengthAdjust="spacing" textLength="142" x="594" y="113.7622">les mêmes catégories</text><path d="M125,131.8281 L125,156.8281 L285,156.8281 L285,141.8281 L275,131.8281 L125,131.8281 " fill="#FBFB77" style="stroke:#A80036;stroke-width:1.0;"/><path d="M275,131.8281 L275,141.8281 L285,141.8281 L275,131.8281 " fill="#FBFB77" style="stroke:#A80036;stroke-width:1.0;"/><text fill="#000000" font-family="sans-serif" font-size="13" lengthAdjust="spacing" textLength="139" x="131" y="148.895">Controleur de session</text><polygon fill="#A80036" points="278,179.0938,288,183.0938,278,187.0938" style="stroke:#A80036;stroke-width:1.0;"/><line style="stroke:#A80036;stroke-width:1.0;" x1="0" x2="284" y1="183.0938" y2="183.0938"/><text fill="#000000" font-family="sans-serif" font-size="13" lengthAdjust="spacing" textLength="266" x="7" y="178.0278">[nomCategorie] = demarrerReservation()</text><path d="M295,196.0938 L295,221.0938 L516,221.0938 L516,206.0938 L506,196.0938 L295,196.0938 " fill="#FBFB77" style="stroke:#A80036;stroke-width:1.0;"/><path d="M506,196.0938 L506,206.0938 L516,206.0938 L506,196.0938 " fill="#FBFB77" style="stroke:#A80036;stroke-width:1.0;"/><text fill="#000000" font-family="sans-serif" font-size="13" lengthAdjust="spacing" textLength="200" x="301" y="213.1606">Créateur, cohésion et couplage</text><polygon fill="#A80036" points="379,258.4922,389,262.4922,379,266.4922" style="stroke:#A80036;stroke-width:1.0;"/><line style="stroke:#A80036;stroke-width:1.0;" x1="290" x2="385" y1="262.4922" y2="262.4922"/><text fill="#000000" font-family="sans-serif" font-size="13" lengthAdjust="spacing" textLength="63" x="297" y="242.2935">r=Create(</text><text fill="#000000" font-family="sans-serif" font-size="13" lengthAdjust="spacing" textLength="70" x="297" y="257.4263">c:Commis)</text><rect fill="#FEFECE" height="30.2969" style="stroke:#A80036;stroke-width:1.5;" width="111" x="391" y="229.1953"/><text fill="#000000" font-family="sans-serif" font-size="14" lengthAdjust="spacing" textLength="97" x="398" y="249.1904">r:Reservation</text><path d="M451,275.4922 L451,315.4922 L767,315.4922 L767,285.4922 L757,275.4922 L451,275.4922 " fill="#FBFB77" style="stroke:#A80036;stroke-width:1.0;"/><path d="M757,275.4922 L757,285.4922 L767,285.4922 L757,275.4922 " fill="#FBFB77" style="stroke:#A80036;stroke-width:1.0;"/><text fill="#000000" font-family="sans-serif" font-size="13" lengthAdjust="spacing" textLength="60" x="457" y="292.5591">Createur,</text><text fill="#000000" font-family="sans-serif" font-size="13" lengthAdjust="spacing" textLength="295" x="457" y="307.6919">r:Reservation possède les lr:LigneReservation</text><polygon fill="#A80036" points="653,337.8906,663,341.8906,653,345.8906" style="stroke:#A80036;stroke-width:1.0;"/><line style="stroke:#A80036;stroke-width:1.0;stroke-dasharray:2.0,2.0;" x1="446.5" x2="659" y1="341.8906" y2="341.8906"/><text fill="#000000" font-family="sans-serif" font-size="13" lengthAdjust="spacing" textLength="74" x="453.5" y="336.8247">llr=Create()</text><rect fill="#FEFECE" height="30.2969" style="stroke:#A80036;stroke-width:1.5;" width="211" x="665" y="320.7578"/><text fill="#000000" font-family="sans-serif" font-size="14" lengthAdjust="spacing" textLength="197" x="672" y="340.7529">llr:List&lt;:LigneReservation&gt;</text><!--MD5=[d971b7fa900fd7cebaa1de61e4c98f08]
@startuml
skinparam style strictuml
Participant ":ControleurReservation" as S
Participant "r:Reservation" as R
Participant ":List<:Categorie>" as LC
Participant "llr:List<:LigneReservation>" as LLR

note right  of LC: Visible par le \ncontroleur puisque \ntout les hotels utilisent \nles mêmes catégories
note left of S:Controleur de session
 -> S: [nomCategorie] = demarrerReservation()
 note right of S: Créateur, cohésion et couplage
S -> R**: r=Create( \nc:Commis)
note right of R: Createur, \nr:Reservation possède les lr:LigneReservation
R - -> LLR**: llr=Create()
@enduml

PlantUML version 1.2021.2beta2(Unknown compile time)
(GPL source distribution)
Java Runtime: Java(TM) SE Runtime Environment
JVM: Java HotSpot(TM) 64-Bit Server VM
Default Encoding: UTF-8
Language: en
Country: US
--></g></svg>