<?xml version="1.0" encoding="UTF-8" standalone="no"?><svg xmlns="http://www.w3.org/2000/svg" xmlns:xlink="http://www.w3.org/1999/xlink" contentScriptType="application/ecmascript" contentStyleType="text/css" height="283px" preserveAspectRatio="none" style="width:819px;height:283px;" version="1.1" viewBox="0 0 819 283" width="819px" zoomAndPan="magnify"><defs/><g><line style="stroke:#A80036;stroke-width:1.0;stroke-dasharray:5.0,5.0;" x1="360" x2="360" y1="36.2969" y2="276.3906"/><line style="stroke:#A80036;stroke-width:1.0;stroke-dasharray:5.0,5.0;" x1="655" x2="655" y1="176.3438" y2="276.3906"/><line style="stroke:#A80036;stroke-width:1.0;stroke-dasharray:5.0,5.0;" x1="757" x2="757" y1="36.2969" y2="276.3906"/><rect fill="#FEFECE" height="30.2969" style="stroke:#A80036;stroke-width:1.5;" width="182" x="269" y="5"/><text fill="#000000" font-family="sans-serif" font-size="14" lengthAdjust="spacing" textLength="168" x="276" y="24.9951">:ControleurReservation</text><rect fill="#FEFECE" height="30.2969" style="stroke:#A80036;stroke-width:1.5;" width="111" x="702" y="5"/><text fill="#000000" font-family="sans-serif" font-size="14" lengthAdjust="spacing" textLength="97" x="709" y="24.9951">r:Reservation</text><path d="M195,51.2969 L195,76.2969 L355,76.2969 L355,61.2969 L345,51.2969 L195,51.2969 " fill="#FBFB77" style="stroke:#A80036;stroke-width:1.0;"/><path d="M345,51.2969 L345,61.2969 L355,61.2969 L345,51.2969 " fill="#FBFB77" style="stroke:#A80036;stroke-width:1.0;"/><text fill="#000000" font-family="sans-serif" font-size="13" lengthAdjust="spacing" textLength="139" x="201" y="68.3638">Controleur de session</text><polygon fill="#A80036" points="348,98.5625,358,102.5625,348,106.5625" style="stroke:#A80036;stroke-width:1.0;"/><line style="stroke:#A80036;stroke-width:1.0;" x1="0" x2="354" y1="102.5625" y2="102.5625"/><text fill="#000000" font-family="sans-serif" font-size="13" lengthAdjust="spacing" textLength="336" x="7" y="97.4966">confirmerReservation(nom:string, telephone: string)</text><path d="M365,115.5625 L365,140.5625 L440,140.5625 L440,125.5625 L430,115.5625 L365,115.5625 " fill="#FBFB77" style="stroke:#A80036;stroke-width:1.0;"/><path d="M430,115.5625 L430,125.5625 L440,125.5625 L430,115.5625 " fill="#FBFB77" style="stroke:#A80036;stroke-width:1.0;"/><text fill="#000000" font-family="sans-serif" font-size="13" lengthAdjust="spacing" textLength="54" x="371" y="132.6294">createur</text><polygon fill="#A80036" points="606,162.8281,616,166.8281,606,170.8281" style="stroke:#A80036;stroke-width:1.0;"/><line style="stroke:#A80036;stroke-width:1.0;" x1="360" x2="612" y1="166.8281" y2="166.8281"/><text fill="#000000" font-family="sans-serif" font-size="13" lengthAdjust="spacing" textLength="234" x="367" y="161.7622">create(nom:string, telephone:string)</text><rect fill="#FEFECE" height="30.2969" style="stroke:#A80036;stroke-width:1.5;" width="74" x="618" y="145.6953"/><text fill="#000000" font-family="sans-serif" font-size="14" lengthAdjust="spacing" textLength="60" x="625" y="165.6904">cl:Client</text><path d="M365,191.9922 L365,231.9922 L526,231.9922 L526,201.9922 L516,191.9922 L365,191.9922 " fill="#FBFB77" style="stroke:#A80036;stroke-width:1.0;"/><path d="M516,191.9922 L516,201.9922 L526,201.9922 L516,191.9922 " fill="#FBFB77" style="stroke:#A80036;stroke-width:1.0;"/><text fill="#000000" font-family="sans-serif" font-size="13" lengthAdjust="spacing" textLength="140" x="371" y="209.0591">Expert en information</text><text fill="#000000" font-family="sans-serif" font-size="13" lengthAdjust="spacing" textLength="119" x="371" y="224.1919">Mutateur d'attribut</text><polygon fill="#A80036" points="745.5,254.3906,755.5,258.3906,745.5,262.3906" style="stroke:#A80036;stroke-width:1.0;"/><line style="stroke:#A80036;stroke-width:1.0;" x1="360" x2="751.5" y1="258.3906" y2="258.3906"/><text fill="#000000" font-family="sans-serif" font-size="13" lengthAdjust="spacing" textLength="342" x="367" y="253.3247">[noConfirmation,llr] = confirmerReservation(cl:Client)</text><!--MD5=[e04d9af3c298dddff2c80a4940ace1c9]
@startuml
skinparam style strictuml
Participant ":ControleurReservation" as S
participant "cl:Client" as CL
Participant "r:Reservation" as R

note left of S:Controleur de session
 -> S: confirmerReservation(nom:string, telephone: string)

 note right of S: createur
 S -> CL**: create(nom:string, telephone:string)
 note right of S: Expert en information\nMutateur d'attribut
S -> R: [noConfirmation,llr] = confirmerReservation(cl:Client)
@enduml

PlantUML version 1.2021.2beta6(Unknown compile time)
(GPL source distribution)
Java Runtime: Java(TM) SE Runtime Environment
JVM: Java HotSpot(TM) 64-Bit Server VM
Default Encoding: UTF-8
Language: en
Country: US
--></g></svg>