<?xml version="1.0" encoding="UTF-8" standalone="no"?><svg xmlns="http://www.w3.org/2000/svg" xmlns:xlink="http://www.w3.org/1999/xlink" contentScriptType="application/ecmascript" contentStyleType="text/css" height="983px" preserveAspectRatio="none" style="width:900px;height:983px;" version="1.1" viewBox="0 0 900 983" width="900px" zoomAndPan="magnify"><defs><filter height="300%" id="f1g3klkhc2iou" width="300%" x="-1" y="-1"><feGaussianBlur result="blurOut" stdDeviation="2.0"/><feColorMatrix in="blurOut" result="blurOut2" type="matrix" values="0 0 0 0 0 0 0 0 0 0 0 0 0 0 0 0 0 0 .4 0"/><feOffset dx="4.0" dy="4.0" in="blurOut2" result="blurOut3"/><feBlend in="SourceGraphic" in2="blurOut3" mode="normal"/></filter></defs><g><!--MD5=[e1d3770cbd048901ea869e126190a56e]
class ControleurReservation--><rect codeLine="1" fill="#FEFECE" filter="url(#f1g3klkhc2iou)" height="99.2188" id="ControleurReservation" style="stroke:#A80036;stroke-width:1.5;" width="539" x="27" y="10"/><ellipse cx="191.75" cy="26" fill="#ADD1B2" rx="11" ry="11" style="stroke:#A80036;stroke-width:1.0;"/><path d="M194.0938,21.6719 C193.1563,21.2344 192.5625,21.0938 191.6875,21.0938 C189.0625,21.0938 187.0625,23.1719 187.0625,25.8906 L187.0625,27.0156 C187.0625,29.5938 189.1719,31.4844 192.0625,31.4844 C193.2813,31.4844 194.4375,31.1875 195.1875,30.6406 C195.7656,30.2344 196.0938,29.7813 196.0938,29.3906 C196.0938,28.9375 195.7031,28.5469 195.2344,28.5469 C195.0156,28.5469 194.8125,28.625 194.625,28.8125 C194.1719,29.2969 194.1719,29.2969 193.9844,29.3906 C193.5625,29.6563 192.875,29.7813 192.1094,29.7813 C190.0625,29.7813 188.7656,28.6875 188.7656,26.9844 L188.7656,25.8906 C188.7656,24.1094 190.0156,22.7969 191.75,22.7969 C192.3281,22.7969 192.9375,22.9531 193.4063,23.2031 C193.8906,23.4844 194.0625,23.7031 194.1563,24.1094 C194.2188,24.5156 194.25,24.6406 194.3906,24.7656 C194.5313,24.9063 194.7656,25.0156 194.9844,25.0156 C195.25,25.0156 195.5156,24.875 195.6875,24.6563 C195.7969,24.5 195.8281,24.3125 195.8281,23.8906 L195.8281,22.4688 C195.8281,22.0313 195.8125,21.9063 195.7188,21.75 C195.5625,21.4844 195.2813,21.3438 194.9844,21.3438 C194.6875,21.3438 194.4844,21.4375 194.2656,21.75 L194.0938,21.6719 Z " fill="#000000"/><text fill="#000000" font-family="sans-serif" font-size="12" lengthAdjust="spacing" textLength="134" x="212.25" y="30.1543">ControleurReservation</text><rect fill="#FFFFFF" height="15.9688" style="stroke:#000000;stroke-width:1.0;stroke-dasharray:2.0,2.0;" width="65" x="504" y="7"/><text fill="#000000" font-family="sans-serif" font-size="12" font-style="italic" lengthAdjust="spacing" textLength="63" x="505" y="19.1387">Controleur</text><line style="stroke:#A80036;stroke-width:1.5;" x1="28" x2="565" y1="42" y2="42"/><line style="stroke:#A80036;stroke-width:1.5;" x1="28" x2="565" y1="50" y2="50"/><ellipse cx="38" cy="61" fill="#84BE84" rx="3" ry="3" style="stroke:#038048;stroke-width:1.0;"/><text fill="#000000" font-family="sans-serif" font-size="11" lengthAdjust="spacing" textLength="129" x="47" y="64.2104">demarrerReservation()</text><ellipse cx="38" cy="73.8047" fill="#84BE84" rx="3" ry="3" style="stroke:#038048;stroke-width:1.0;"/><text fill="#000000" font-family="sans-serif" font-size="11" lengthAdjust="spacing" textLength="410" x="47" y="77.0151">reserverChambre(dateArrive:string, dateDepart:string, categorie: String)</text><ellipse cx="38" cy="86.6094" fill="#84BE84" rx="3" ry="3" style="stroke:#038048;stroke-width:1.0;"/><text fill="#000000" font-family="sans-serif" font-size="11" lengthAdjust="spacing" textLength="513" x="47" y="89.8198">reserverChambres(quantity:Integer,dateArrive:String, dateDepart:String, categorie: String)</text><ellipse cx="38" cy="99.4141" fill="#84BE84" rx="3" ry="3" style="stroke:#038048;stroke-width:1.0;"/><text fill="#000000" font-family="sans-serif" font-size="11" lengthAdjust="spacing" textLength="293" x="47" y="102.6245">confirmerReservation(nom:string, telephone: string)</text><!--MD5=[22e5d5b4c441f3dbc8b6f363f923fdb4]
class MC--><rect codeLine="7" fill="#FEFECE" filter="url(#f1g3klkhc2iou)" height="60.8047" id="MC" style="stroke:#A80036;stroke-width:1.5;" width="250" x="66.5" y="302"/><ellipse cx="81.5" cy="318" fill="#ADD1B2" rx="11" ry="11" style="stroke:#A80036;stroke-width:1.0;"/><path d="M83.8438,313.6719 C82.9063,313.2344 82.3125,313.0938 81.4375,313.0938 C78.8125,313.0938 76.8125,315.1719 76.8125,317.8906 L76.8125,319.0156 C76.8125,321.5938 78.9219,323.4844 81.8125,323.4844 C83.0313,323.4844 84.1875,323.1875 84.9375,322.6406 C85.5156,322.2344 85.8438,321.7813 85.8438,321.3906 C85.8438,320.9375 85.4531,320.5469 84.9844,320.5469 C84.7656,320.5469 84.5625,320.625 84.375,320.8125 C83.9219,321.2969 83.9219,321.2969 83.7344,321.3906 C83.3125,321.6563 82.625,321.7813 81.8594,321.7813 C79.8125,321.7813 78.5156,320.6875 78.5156,318.9844 L78.5156,317.8906 C78.5156,316.1094 79.7656,314.7969 81.5,314.7969 C82.0781,314.7969 82.6875,314.9531 83.1563,315.2031 C83.6406,315.4844 83.8125,315.7031 83.9063,316.1094 C83.9688,316.5156 84,316.6406 84.1406,316.7656 C84.2813,316.9063 84.5156,317.0156 84.7344,317.0156 C85,317.0156 85.2656,316.875 85.4375,316.6563 C85.5469,316.5 85.5781,316.3125 85.5781,315.8906 L85.5781,314.4688 C85.5781,314.0313 85.5625,313.9063 85.4688,313.75 C85.3125,313.4844 85.0313,313.3438 84.7344,313.3438 C84.4375,313.3438 84.2344,313.4375 84.0156,313.75 L83.8438,313.6719 Z " fill="#000000"/><text fill="#000000" font-family="sans-serif" font-size="12" lengthAdjust="spacing" textLength="25" x="95.5" y="322.1543">Map</text><rect fill="#FFFFFF" height="15.9688" style="stroke:#000000;stroke-width:1.0;stroke-dasharray:2.0,2.0;" width="191" x="128.5" y="299"/><text fill="#000000" font-family="sans-serif" font-size="12" font-style="italic" lengthAdjust="spacing" textLength="189" x="129.5" y="311.1387">nom:String,categorie:Categorie</text><line style="stroke:#A80036;stroke-width:1.5;" x1="67.5" x2="315.5" y1="334" y2="334"/><line style="stroke:#A80036;stroke-width:1.5;" x1="67.5" x2="315.5" y1="342" y2="342"/><ellipse cx="77.5" cy="353" fill="#84BE84" rx="3" ry="3" style="stroke:#038048;stroke-width:1.0;"/><text fill="#000000" font-family="sans-serif" font-size="11" lengthAdjust="spacing" textLength="151" x="86.5" y="356.2104">get(nom:String): Categorie</text><!--MD5=[3110dbef8258a6b966b2e55d3546d21d]
class Hotel--><rect codeLine="11" fill="#FEFECE" filter="url(#f1g3klkhc2iou)" height="48" id="Hotel" style="stroke:#A80036;stroke-width:1.5;" width="237" x="649" y="35.5"/><ellipse cx="664" cy="51.5" fill="#ADD1B2" rx="11" ry="11" style="stroke:#A80036;stroke-width:1.0;"/><path d="M666.3438,47.1719 C665.4063,46.7344 664.8125,46.5938 663.9375,46.5938 C661.3125,46.5938 659.3125,48.6719 659.3125,51.3906 L659.3125,52.5156 C659.3125,55.0938 661.4219,56.9844 664.3125,56.9844 C665.5313,56.9844 666.6875,56.6875 667.4375,56.1406 C668.0156,55.7344 668.3438,55.2813 668.3438,54.8906 C668.3438,54.4375 667.9531,54.0469 667.4844,54.0469 C667.2656,54.0469 667.0625,54.125 666.875,54.3125 C666.4219,54.7969 666.4219,54.7969 666.2344,54.8906 C665.8125,55.1563 665.125,55.2813 664.3594,55.2813 C662.3125,55.2813 661.0156,54.1875 661.0156,52.4844 L661.0156,51.3906 C661.0156,49.6094 662.2656,48.2969 664,48.2969 C664.5781,48.2969 665.1875,48.4531 665.6563,48.7031 C666.1406,48.9844 666.3125,49.2031 666.4063,49.6094 C666.4688,50.0156 666.5,50.1406 666.6406,50.2656 C666.7813,50.4063 667.0156,50.5156 667.2344,50.5156 C667.5,50.5156 667.7656,50.375 667.9375,50.1563 C668.0469,50 668.0781,49.8125 668.0781,49.3906 L668.0781,47.9688 C668.0781,47.5313 668.0625,47.4063 667.9688,47.25 C667.8125,46.9844 667.5313,46.8438 667.2344,46.8438 C666.9375,46.8438 666.7344,46.9375 666.5156,47.25 L666.3438,47.1719 Z " fill="#000000"/><text fill="#000000" font-family="sans-serif" font-size="12" lengthAdjust="spacing" textLength="32" x="678" y="55.6543">Hotel</text><rect fill="#FFFFFF" height="15.9688" style="stroke:#000000;stroke-width:1.0;stroke-dasharray:2.0,2.0;" width="171" x="718" y="32.5"/><text fill="#000000" font-family="sans-serif" font-size="12" font-style="italic" lengthAdjust="spacing" textLength="169" x="719" y="44.6387">Conteneur, Object physique</text><line style="stroke:#A80036;stroke-width:1.5;" x1="650" x2="885" y1="67.5" y2="67.5"/><line style="stroke:#A80036;stroke-width:1.5;" x1="650" x2="885" y1="75.5" y2="75.5"/><!--MD5=[f9ef9660f44628e549271a3193d2c3b4]
class Categorie--><rect codeLine="12" fill="#FEFECE" filter="url(#f1g3klkhc2iou)" height="86.4141" id="Categorie" style="stroke:#A80036;stroke-width:1.5;" width="507" x="7" y="883"/><ellipse cx="129.25" cy="899" fill="#ADD1B2" rx="11" ry="11" style="stroke:#A80036;stroke-width:1.0;"/><path d="M131.5938,894.6719 C130.6563,894.2344 130.0625,894.0938 129.1875,894.0938 C126.5625,894.0938 124.5625,896.1719 124.5625,898.8906 L124.5625,900.0156 C124.5625,902.5938 126.6719,904.4844 129.5625,904.4844 C130.7813,904.4844 131.9375,904.1875 132.6875,903.6406 C133.2656,903.2344 133.5938,902.7813 133.5938,902.3906 C133.5938,901.9375 133.2031,901.5469 132.7344,901.5469 C132.5156,901.5469 132.3125,901.625 132.125,901.8125 C131.6719,902.2969 131.6719,902.2969 131.4844,902.3906 C131.0625,902.6563 130.375,902.7813 129.6094,902.7813 C127.5625,902.7813 126.2656,901.6875 126.2656,899.9844 L126.2656,898.8906 C126.2656,897.1094 127.5156,895.7969 129.25,895.7969 C129.8281,895.7969 130.4375,895.9531 130.9063,896.2031 C131.3906,896.4844 131.5625,896.7031 131.6563,897.1094 C131.7188,897.5156 131.75,897.6406 131.8906,897.7656 C132.0313,897.9063 132.2656,898.0156 132.4844,898.0156 C132.75,898.0156 133.0156,897.875 133.1875,897.6563 C133.2969,897.5 133.3281,897.3125 133.3281,896.8906 L133.3281,895.4688 C133.3281,895.0313 133.3125,894.9063 133.2188,894.75 C133.0625,894.4844 132.7813,894.3438 132.4844,894.3438 C132.1875,894.3438 131.9844,894.4375 131.7656,894.75 L131.5938,894.6719 Z " fill="#000000"/><text fill="#000000" font-family="sans-serif" font-size="12" lengthAdjust="spacing" textLength="59" x="149.75" y="903.1543">Categorie</text><rect fill="#FFFFFF" height="15.9688" style="stroke:#000000;stroke-width:1.0;stroke-dasharray:2.0,2.0;" width="193" x="324" y="880"/><text fill="#000000" font-family="sans-serif" font-size="12" font-style="italic" lengthAdjust="spacing" textLength="122" x="325" y="892.1387">Description d'entité,</text><text fill="#000000" font-family="sans-serif" font-size="12" font-style="italic" font-weight="bold" lengthAdjust="spacing" textLength="69" x="447" y="892.1387">Catalogue</text><line style="stroke:#A80036;stroke-width:1.5;" x1="8" x2="513" y1="915" y2="915"/><rect fill="none" height="6" style="stroke:#C82930;stroke-width:1.0;" width="6" x="15" y="923"/><text fill="#000000" font-family="sans-serif" font-size="11" lengthAdjust="spacing" textLength="65" x="27" y="929.2104">nom: String</text><line style="stroke:#A80036;stroke-width:1.5;" x1="8" x2="513" y1="935.8047" y2="935.8047"/><ellipse cx="18" cy="946.8047" fill="#84BE84" rx="3" ry="3" style="stroke:#038048;stroke-width:1.0;"/><text fill="#000000" font-family="sans-serif" font-size="11" lengthAdjust="spacing" textLength="370" x="27" y="950.0151">getChambreLibre(dateArrivé: String,dateDepart:String): Chambre</text><ellipse cx="18" cy="959.6094" fill="#84BE84" rx="3" ry="3" style="stroke:#038048;stroke-width:1.0;"/><text fill="#000000" font-family="sans-serif" font-size="11" lengthAdjust="spacing" textLength="481" x="27" y="962.8198">getChambresLibre(quantity:Integer, dateArrivé: String,dateDepart:String): [Chambre]</text><!--MD5=[9c46470aa33a0c75e6d1dfdefc2f9c22]
class Reservation--><rect codeLine="17" fill="#FEFECE" filter="url(#f1g3klkhc2iou)" height="124.8281" id="Reservation" style="stroke:#A80036;stroke-width:1.5;" width="494" x="224.5" y="393"/><ellipse cx="394.75" cy="409" fill="#ADD1B2" rx="11" ry="11" style="stroke:#A80036;stroke-width:1.0;"/><path d="M397.0938,404.6719 C396.1563,404.2344 395.5625,404.0938 394.6875,404.0938 C392.0625,404.0938 390.0625,406.1719 390.0625,408.8906 L390.0625,410.0156 C390.0625,412.5938 392.1719,414.4844 395.0625,414.4844 C396.2813,414.4844 397.4375,414.1875 398.1875,413.6406 C398.7656,413.2344 399.0938,412.7813 399.0938,412.3906 C399.0938,411.9375 398.7031,411.5469 398.2344,411.5469 C398.0156,411.5469 397.8125,411.625 397.625,411.8125 C397.1719,412.2969 397.1719,412.2969 396.9844,412.3906 C396.5625,412.6563 395.875,412.7813 395.1094,412.7813 C393.0625,412.7813 391.7656,411.6875 391.7656,409.9844 L391.7656,408.8906 C391.7656,407.1094 393.0156,405.7969 394.75,405.7969 C395.3281,405.7969 395.9375,405.9531 396.4063,406.2031 C396.8906,406.4844 397.0625,406.7031 397.1563,407.1094 C397.2188,407.5156 397.25,407.6406 397.3906,407.7656 C397.5313,407.9063 397.7656,408.0156 397.9844,408.0156 C398.25,408.0156 398.5156,407.875 398.6875,407.6563 C398.7969,407.5 398.8281,407.3125 398.8281,406.8906 L398.8281,405.4688 C398.8281,405.0313 398.8125,404.9063 398.7188,404.75 C398.5625,404.4844 398.2813,404.3438 397.9844,404.3438 C397.6875,404.3438 397.4844,404.4375 397.2656,404.75 L397.0938,404.6719 Z " fill="#000000"/><text fill="#000000" font-family="sans-serif" font-size="12" lengthAdjust="spacing" textLength="71" x="415.25" y="413.1543">Reservation</text><rect fill="#FFFFFF" height="15.9688" style="stroke:#000000;stroke-width:1.0;stroke-dasharray:2.0,2.0;" width="72" x="649.5" y="390"/><text fill="#000000" font-family="sans-serif" font-size="12" font-style="italic" lengthAdjust="spacing" textLength="70" x="650.5" y="402.1387">Transaction</text><line style="stroke:#A80036;stroke-width:1.5;" x1="225.5" x2="717.5" y1="425" y2="425"/><rect fill="none" height="6" style="stroke:#C82930;stroke-width:1.0;" width="6" x="232.5" y="433"/><text fill="#000000" font-family="sans-serif" font-size="11" lengthAdjust="spacing" textLength="126" x="244.5" y="439.2104">noConfirmation: String</text><line style="stroke:#A80036;stroke-width:1.5;" x1="225.5" x2="717.5" y1="445.8047" y2="445.8047"/><ellipse cx="235.5" cy="456.8047" fill="#84BE84" rx="3" ry="3" style="stroke:#038048;stroke-width:1.0;"/><text fill="#000000" font-family="sans-serif" font-size="11" lengthAdjust="spacing" textLength="169" x="244.5" y="460.0151">Reservation(commis:Commis)</text><ellipse cx="235.5" cy="469.6094" fill="#84BE84" rx="3" ry="3" style="stroke:#038048;stroke-width:1.0;"/><text fill="#000000" font-family="sans-serif" font-size="11" lengthAdjust="spacing" textLength="413" x="244.5" y="472.8198">Reservation(ch:Chambre,c:Commis,dateArrive:String, dateDepart: String)</text><ellipse cx="235.5" cy="482.4141" fill="#84BE84" rx="3" ry="3" style="stroke:#038048;stroke-width:1.0;"/><text fill="#000000" font-family="sans-serif" font-size="11" lengthAdjust="spacing" textLength="468" x="244.5" y="485.6245">ajouterChambres([ch]:Chambre,dateArrive:String, dateDepart: String): String (json)</text><ellipse cx="235.5" cy="495.2188" fill="#84BE84" rx="3" ry="3" style="stroke:#038048;stroke-width:1.0;"/><text fill="#000000" font-family="sans-serif" font-size="11" lengthAdjust="spacing" textLength="175" x="244.5" y="498.4292">confirmerReservation(cl:Client)</text><rect fill="#F24D5C" height="6" style="stroke:#C82930;stroke-width:1.0;" width="6" x="232.5" y="505.0234"/><text fill="#000000" font-family="sans-serif" font-size="11" lengthAdjust="spacing" textLength="113" x="244.5" y="511.2339">setNoConfirmation()</text><!--MD5=[2e4e974c7455092da497cc666bb39ee4]
class LigneReservation--><rect codeLine="26" fill="#FEFECE" filter="url(#f1g3klkhc2iou)" height="86.4141" id="LigneReservation" style="stroke:#A80036;stroke-width:1.5;" width="358" x="292.5" y="595"/><ellipse cx="351.75" cy="611" fill="#ADD1B2" rx="11" ry="11" style="stroke:#A80036;stroke-width:1.0;"/><path d="M354.0938,606.6719 C353.1563,606.2344 352.5625,606.0938 351.6875,606.0938 C349.0625,606.0938 347.0625,608.1719 347.0625,610.8906 L347.0625,612.0156 C347.0625,614.5938 349.1719,616.4844 352.0625,616.4844 C353.2813,616.4844 354.4375,616.1875 355.1875,615.6406 C355.7656,615.2344 356.0938,614.7813 356.0938,614.3906 C356.0938,613.9375 355.7031,613.5469 355.2344,613.5469 C355.0156,613.5469 354.8125,613.625 354.625,613.8125 C354.1719,614.2969 354.1719,614.2969 353.9844,614.3906 C353.5625,614.6563 352.875,614.7813 352.1094,614.7813 C350.0625,614.7813 348.7656,613.6875 348.7656,611.9844 L348.7656,610.8906 C348.7656,609.1094 350.0156,607.7969 351.75,607.7969 C352.3281,607.7969 352.9375,607.9531 353.4063,608.2031 C353.8906,608.4844 354.0625,608.7031 354.1563,609.1094 C354.2188,609.5156 354.25,609.6406 354.3906,609.7656 C354.5313,609.9063 354.7656,610.0156 354.9844,610.0156 C355.25,610.0156 355.5156,609.875 355.6875,609.6563 C355.7969,609.5 355.8281,609.3125 355.8281,608.8906 L355.8281,607.4688 C355.8281,607.0313 355.8125,606.9063 355.7188,606.75 C355.5625,606.4844 355.2813,606.3438 354.9844,606.3438 C354.6875,606.3438 354.4844,606.4375 354.2656,606.75 L354.0938,606.6719 Z " fill="#000000"/><text fill="#000000" font-family="sans-serif" font-size="12" lengthAdjust="spacing" textLength="103" x="372.25" y="615.1543">LigneReservation</text><rect fill="#FFFFFF" height="15.9688" style="stroke:#000000;stroke-width:1.0;stroke-dasharray:2.0,2.0;" width="126" x="527.5" y="592"/><text fill="#000000" font-family="sans-serif" font-size="12" font-style="italic" lengthAdjust="spacing" textLength="124" x="528.5" y="604.1387">Ligne de transaction</text><line style="stroke:#A80036;stroke-width:1.5;" x1="293.5" x2="649.5" y1="627" y2="627"/><rect fill="none" height="6" style="stroke:#C82930;stroke-width:1.0;" width="6" x="300.5" y="635"/><text fill="#000000" font-family="sans-serif" font-size="11" lengthAdjust="spacing" textLength="95" x="312.5" y="641.2104">dateArrive: Date</text><rect fill="none" height="6" style="stroke:#C82930;stroke-width:1.0;" width="6" x="300.5" y="647.8047"/><text fill="#000000" font-family="sans-serif" font-size="11" lengthAdjust="spacing" textLength="100" x="312.5" y="654.0151">dateDepart: Date</text><line style="stroke:#A80036;stroke-width:1.5;" x1="293.5" x2="649.5" y1="660.6094" y2="660.6094"/><ellipse cx="303.5" cy="671.6094" fill="#84BE84" rx="3" ry="3" style="stroke:#038048;stroke-width:1.0;"/><text fill="#000000" font-family="sans-serif" font-size="11" lengthAdjust="spacing" textLength="332" x="312.5" y="674.8198">create([ch]:Chambre,dateArrive:String, dateDepart: String)</text><!--MD5=[aeb2a05b656f26b4e931c999627a7b50]
class Commis--><rect codeLine="32" fill="#FEFECE" filter="url(#f1g3klkhc2iou)" height="48" id="Commis" style="stroke:#A80036;stroke-width:1.5;" width="109" x="561" y="205"/><ellipse cx="576" cy="221" fill="#ADD1B2" rx="11" ry="11" style="stroke:#A80036;stroke-width:1.0;"/><path d="M578.3438,216.6719 C577.4063,216.2344 576.8125,216.0938 575.9375,216.0938 C573.3125,216.0938 571.3125,218.1719 571.3125,220.8906 L571.3125,222.0156 C571.3125,224.5938 573.4219,226.4844 576.3125,226.4844 C577.5313,226.4844 578.6875,226.1875 579.4375,225.6406 C580.0156,225.2344 580.3438,224.7813 580.3438,224.3906 C580.3438,223.9375 579.9531,223.5469 579.4844,223.5469 C579.2656,223.5469 579.0625,223.625 578.875,223.8125 C578.4219,224.2969 578.4219,224.2969 578.2344,224.3906 C577.8125,224.6563 577.125,224.7813 576.3594,224.7813 C574.3125,224.7813 573.0156,223.6875 573.0156,221.9844 L573.0156,220.8906 C573.0156,219.1094 574.2656,217.7969 576,217.7969 C576.5781,217.7969 577.1875,217.9531 577.6563,218.2031 C578.1406,218.4844 578.3125,218.7031 578.4063,219.1094 C578.4688,219.5156 578.5,219.6406 578.6406,219.7656 C578.7813,219.9063 579.0156,220.0156 579.2344,220.0156 C579.5,220.0156 579.7656,219.875 579.9375,219.6563 C580.0469,219.5 580.0781,219.3125 580.0781,218.8906 L580.0781,217.4688 C580.0781,217.0313 580.0625,216.9063 579.9688,216.75 C579.8125,216.4844 579.5313,216.3438 579.2344,216.3438 C578.9375,216.3438 578.7344,216.4375 578.5156,216.75 L578.3438,216.6719 Z " fill="#000000"/><text fill="#000000" font-family="sans-serif" font-size="12" lengthAdjust="spacing" textLength="48" x="590" y="225.1543">Commis</text><rect fill="#FFFFFF" height="15.9688" style="stroke:#000000;stroke-width:1.0;stroke-dasharray:2.0,2.0;" width="27" x="646" y="202"/><text fill="#000000" font-family="sans-serif" font-size="12" font-style="italic" lengthAdjust="spacing" textLength="25" x="647" y="214.1387">Role</text><line style="stroke:#A80036;stroke-width:1.5;" x1="562" x2="669" y1="237" y2="237"/><line style="stroke:#A80036;stroke-width:1.5;" x1="562" x2="669" y1="245" y2="245"/><!--MD5=[5caef05668a3671b919925ac15293d4d]
class Chambre--><rect codeLine="33" fill="#FEFECE" filter="url(#f1g3klkhc2iou)" height="48" id="Chambre" style="stroke:#A80036;stroke-width:1.5;" width="474" x="234.5" y="758"/><ellipse cx="249.5" cy="774" fill="#ADD1B2" rx="11" ry="11" style="stroke:#A80036;stroke-width:1.0;"/><path d="M251.8438,769.6719 C250.9063,769.2344 250.3125,769.0938 249.4375,769.0938 C246.8125,769.0938 244.8125,771.1719 244.8125,773.8906 L244.8125,775.0156 C244.8125,777.5938 246.9219,779.4844 249.8125,779.4844 C251.0313,779.4844 252.1875,779.1875 252.9375,778.6406 C253.5156,778.2344 253.8438,777.7813 253.8438,777.3906 C253.8438,776.9375 253.4531,776.5469 252.9844,776.5469 C252.7656,776.5469 252.5625,776.625 252.375,776.8125 C251.9219,777.2969 251.9219,777.2969 251.7344,777.3906 C251.3125,777.6563 250.625,777.7813 249.8594,777.7813 C247.8125,777.7813 246.5156,776.6875 246.5156,774.9844 L246.5156,773.8906 C246.5156,772.1094 247.7656,770.7969 249.5,770.7969 C250.0781,770.7969 250.6875,770.9531 251.1563,771.2031 C251.6406,771.4844 251.8125,771.7031 251.9063,772.1094 C251.9688,772.5156 252,772.6406 252.1406,772.7656 C252.2813,772.9063 252.5156,773.0156 252.7344,773.0156 C253,773.0156 253.2656,772.875 253.4375,772.6563 C253.5469,772.5 253.5781,772.3125 253.5781,771.8906 L253.5781,770.4688 C253.5781,770.0313 253.5625,769.9063 253.4688,769.75 C253.3125,769.4844 253.0313,769.3438 252.7344,769.3438 C252.4375,769.3438 252.2344,769.4375 252.0156,769.75 L251.8438,769.6719 Z " fill="#000000"/><text fill="#000000" font-family="sans-serif" font-size="12" lengthAdjust="spacing" textLength="54" x="263.5" y="778.1543">Chambre</text><rect fill="#FFFFFF" height="15.9688" style="stroke:#000000;stroke-width:1.0;stroke-dasharray:2.0,2.0;" width="386" x="325.5" y="755"/><text fill="#000000" font-family="sans-serif" font-size="12" font-style="italic" lengthAdjust="spacing" textLength="384" x="326.5" y="767.1387">Objet physique, Contenu dans l'hotel, Produit d'une transaction</text><line style="stroke:#A80036;stroke-width:1.5;" x1="235.5" x2="707.5" y1="790" y2="790"/><line style="stroke:#A80036;stroke-width:1.5;" x1="235.5" x2="707.5" y1="798" y2="798"/><!--MD5=[ed6624c6556d5e7b1bd23032162d20b7]
class Client--><rect codeLine="34" fill="#FEFECE" filter="url(#f1g3klkhc2iou)" height="86.4141" id="Client" style="stroke:#A80036;stroke-width:1.5;" width="226" x="299.5" y="186"/><ellipse cx="377.25" cy="202" fill="#ADD1B2" rx="11" ry="11" style="stroke:#A80036;stroke-width:1.0;"/><path d="M379.5938,197.6719 C378.6563,197.2344 378.0625,197.0938 377.1875,197.0938 C374.5625,197.0938 372.5625,199.1719 372.5625,201.8906 L372.5625,203.0156 C372.5625,205.5938 374.6719,207.4844 377.5625,207.4844 C378.7813,207.4844 379.9375,207.1875 380.6875,206.6406 C381.2656,206.2344 381.5938,205.7813 381.5938,205.3906 C381.5938,204.9375 381.2031,204.5469 380.7344,204.5469 C380.5156,204.5469 380.3125,204.625 380.125,204.8125 C379.6719,205.2969 379.6719,205.2969 379.4844,205.3906 C379.0625,205.6563 378.375,205.7813 377.6094,205.7813 C375.5625,205.7813 374.2656,204.6875 374.2656,202.9844 L374.2656,201.8906 C374.2656,200.1094 375.5156,198.7969 377.25,198.7969 C377.8281,198.7969 378.4375,198.9531 378.9063,199.2031 C379.3906,199.4844 379.5625,199.7031 379.6563,200.1094 C379.7188,200.5156 379.75,200.6406 379.8906,200.7656 C380.0313,200.9063 380.2656,201.0156 380.4844,201.0156 C380.75,201.0156 381.0156,200.875 381.1875,200.6563 C381.2969,200.5 381.3281,200.3125 381.3281,199.8906 L381.3281,198.4688 C381.3281,198.0313 381.3125,197.9063 381.2188,197.75 C381.0625,197.4844 380.7813,197.3438 380.4844,197.3438 C380.1875,197.3438 379.9844,197.4375 379.7656,197.75 L379.5938,197.6719 Z " fill="#000000"/><text fill="#000000" font-family="sans-serif" font-size="12" lengthAdjust="spacing" textLength="33" x="397.75" y="206.1543">Client</text><rect fill="#FFFFFF" height="15.9688" style="stroke:#000000;stroke-width:1.0;stroke-dasharray:2.0,2.0;" width="27" x="501.5" y="183"/><text fill="#000000" font-family="sans-serif" font-size="12" font-style="italic" lengthAdjust="spacing" textLength="25" x="502.5" y="195.1387">Role</text><line style="stroke:#A80036;stroke-width:1.5;" x1="300.5" x2="524.5" y1="218" y2="218"/><rect fill="none" height="6" style="stroke:#C82930;stroke-width:1.0;" width="6" x="307.5" y="226"/><text fill="#000000" font-family="sans-serif" font-size="11" lengthAdjust="spacing" textLength="59" x="319.5" y="232.2104">nom:string</text><rect fill="none" height="6" style="stroke:#C82930;stroke-width:1.0;" width="6" x="307.5" y="238.8047"/><text fill="#000000" font-family="sans-serif" font-size="11" lengthAdjust="spacing" textLength="93" x="319.5" y="245.0151">telephone:string</text><line style="stroke:#A80036;stroke-width:1.5;" x1="300.5" x2="524.5" y1="251.6094" y2="251.6094"/><ellipse cx="310.5" cy="262.6094" fill="#84BE84" rx="3" ry="3" style="stroke:#038048;stroke-width:1.0;"/><text fill="#000000" font-family="sans-serif" font-size="11" lengthAdjust="spacing" textLength="200" x="319.5" y="265.8198">Client(nom:string, telephone:string)</text><!--MD5=[1a7731b8f2c930c6d97d17ac0ebde2a8]
link Hotel to Chambre--><path codeLine="40" d="M774.4592,95.4857 C774.4592,95.4857 788.5,182.407 788.5,228 C788.5,228 788.5,228 788.5,639 C788.5,698.959 740.682,733.763 682.189,753.908 " fill="none" id="Hotel-Chambre" style="stroke:#A80036;stroke-width:1.0;"/><polygon fill="#A80036" points="669.559,757.988,679.3528,759.0279,674.3169,756.4511,676.8938,751.4152,669.559,757.988" style="stroke:#A80036;stroke-width:1.0;"/><line style="stroke:#A80036;stroke-width:1.0;" x1="674.3169" x2="681.9295" y1="756.4511" y2="753.9915"/><polygon fill="#A80036" points="772.265,83.688,769.4295,90.3182,774.4592,95.4857,777.2947,88.8555,772.265,83.688" style="stroke:#A80036;stroke-width:1.0;"/><text fill="#000000" font-family="sans-serif" font-size="13" lengthAdjust="spacing" textLength="54" x="789.5" y="460.0669">possède</text><text fill="#000000" font-family="sans-serif" font-size="13" lengthAdjust="spacing" textLength="7" x="712.4147" y="746.997">*</text><!--MD5=[0c645827cdb9f485350039ec8cb49e29]
link Chambre to Categorie--><path codeLine="41" d="M437.13,806.131 C409.311,824.852 369.143,851.885 334.139,875.4423 " fill="none" id="Chambre-to-Categorie" style="stroke:#A80036;stroke-width:1.0;"/><polygon fill="#FFFFFF" points="322.977,882.9537,330.188,882.9221,332.9323,876.2536,325.7213,876.2852,322.977,882.9537" style="stroke:#A80036;stroke-width:1.0;"/><text fill="#000000" font-family="sans-serif" font-size="13" lengthAdjust="spacing" textLength="66" x="392.5" y="849.0669">appartient</text><text fill="#000000" font-family="sans-serif" font-size="13" lengthAdjust="spacing" textLength="7" x="420.8992" y="825.9241">*</text><!--MD5=[9ee890e3271cd9be3ed17d9ceb0af7d4]
reverse link Client to Reservation--><path codeLine="42" d="M412.378,277.166 C413.394,302.966 416.449,335.236 424.5,363 C427.385,372.948 431.375,383.085 435.822,392.815 " fill="none" id="Client-backto-Reservation" style="stroke:#A80036;stroke-width:1.0;"/><polygon fill="#A80036" points="412.201,272.096,408.5171,281.23,412.3753,277.093,416.5123,280.9511,412.201,272.096" style="stroke:#A80036;stroke-width:1.0;"/><text fill="#000000" font-family="sans-serif" font-size="13" lengthAdjust="spacing" textLength="61" x="425.5" y="337.0669">demande</text><!--MD5=[68baab2b76d878f08dc09388ccbc52c4]
reverse link Commis to Reservation--><path codeLine="43" d="M597.839,257.534 C576.399,290.96 539.592,348.342 511.219,392.576 " fill="none" id="Commis-backto-Reservation" style="stroke:#A80036;stroke-width:1.0;"/><polygon fill="#A80036" points="600.632,253.18,592.4068,258.5972,597.9331,257.389,599.1413,262.9154,600.632,253.18" style="stroke:#A80036;stroke-width:1.0;"/><text fill="#000000" font-family="sans-serif" font-size="13" lengthAdjust="spacing" textLength="28" x="570.5" y="337.0669">cree</text><!--MD5=[6c051db2d685ac22b70f1baef8e033a7]
reverse link Hotel to Commis--><path codeLine="44" d="M737.245,93.84 C707.403,126.726 662.574,176.126 636.455,204.908 " fill="none" id="Hotel-backto-Commis" style="stroke:#A80036;stroke-width:1.0;"/><polygon fill="#A80036" points="746.365,83.79,739.3708,85.5454,738.3011,92.6767,745.2953,90.9213,746.365,83.79" style="stroke:#A80036;stroke-width:1.0;"/><text fill="#000000" font-family="sans-serif" font-size="13" lengthAdjust="spacing" textLength="51" x="696.5" y="152.0669">Emploie</text><text fill="#000000" font-family="sans-serif" font-size="13" lengthAdjust="spacing" textLength="7" x="633.9278" y="193.8965">*</text><!--MD5=[a83f339aa692571e7dde48d7c6cca26c]
link Reservation to LigneReservation--><path codeLine="45" d="M471.5,518.113 C471.5,541.561 471.5,567.886 471.5,589.793 " fill="none" id="Reservation-to-LigneReservation" style="stroke:#A80036;stroke-width:1.0;"/><polygon fill="#A80036" points="471.5,594.973,475.5,585.973,471.5,589.973,467.5,585.973,471.5,594.973" style="stroke:#A80036;stroke-width:1.0;"/><text fill="#000000" font-family="sans-serif" font-size="13" lengthAdjust="spacing" textLength="52" x="472.5" y="561.0669">contient</text><text fill="#000000" font-family="sans-serif" font-size="13" lengthAdjust="spacing" textLength="8" x="463.0625" y="537.8652">1</text><text fill="#000000" font-family="sans-serif" font-size="13" lengthAdjust="spacing" textLength="7" x="463.9422" y="583.9647">*</text><!--MD5=[7f60298d3a5f91db21dff20d03cfc991]
link LigneReservation to Chambre--><path codeLine="46" d="M471.5,681.22 C471.5,704.282 471.5,732.221 471.5,752.662 " fill="none" id="LigneReservation-to-Chambre" style="stroke:#A80036;stroke-width:1.0;"/><polygon fill="#A80036" points="471.5,757.69,475.5,748.69,471.5,752.69,467.5,748.69,471.5,757.69" style="stroke:#A80036;stroke-width:1.0;"/><polygon fill="#000000" points="476.5,714.5664,473.5611,723.6115,479.4389,723.6115,476.5,714.5664" style="stroke:#000000;stroke-width:1.0;"/><text fill="#000000" font-family="sans-serif" font-size="13" lengthAdjust="spacing" textLength="121" x="485.5" y="724.0669">sont reservées par</text><text fill="#000000" font-family="sans-serif" font-size="13" lengthAdjust="spacing" textLength="8" x="462.8625" y="701.348">1</text><text fill="#000000" font-family="sans-serif" font-size="13" lengthAdjust="spacing" textLength="7" x="463.6469" y="747.0194">*</text><!--MD5=[8eb908f5b6082107411653d29f28e591]
link ControleurReservation to MC--><path codeLine="47" d="M277.607,109.262 C256.6,163.479 223.21,249.658 204.79,297.199 " fill="none" id="ControleurReservation-to-MC" style="stroke:#A80036;stroke-width:1.0;"/><polygon fill="#A80036" points="202.946,301.958,209.9269,295.0105,204.7521,297.2956,202.467,292.1208,202.946,301.958" style="stroke:#A80036;stroke-width:1.0;"/><!--MD5=[a8407828f39a50610473eaf782cca2cc]
link ControleurReservation to Commis--><path codeLine="48" d="M394.36,109.005 C439.704,131.842 494.137,159.772 542.5,186 C552.086,191.198 562.282,196.932 571.919,202.449 " fill="none" id="ControleurReservation-to-Commis" style="stroke:#A80036;stroke-width:1.0;"/><polygon fill="#A80036" points="576.303,204.965,570.4886,197.0156,571.9665,202.476,566.5062,203.954,576.303,204.965" style="stroke:#A80036;stroke-width:1.0;"/><!--MD5=[fc715ce0d9c80067c59184edcd92d574]
link MC to Categorie--><path codeLine="49" d="M187.111,363.227 C181.224,405.745 171.5,486.425 171.5,555.5 C171.5,555.5 171.5,555.5 171.5,783 C171.5,818.764 192.02,852.923 213.354,878.7717 " fill="none" id="MC-to-Categorie" style="stroke:#A80036;stroke-width:1.0;"/><polygon fill="#A80036" points="216.782,882.8478,214.0495,873.3856,213.5634,879.0215,207.9274,878.5354,216.782,882.8478" style="stroke:#A80036;stroke-width:1.0;"/><text fill="#000000" font-family="sans-serif" font-size="13" lengthAdjust="spacing" textLength="7" x="202.2566" y="871.8198">*</text><!--MD5=[479425e7dace9050f4ebdf47e28d92b3]
@startuml
class ControleurReservation<Controleur>{
  +demarrerReservation()
  +reserverChambre(dateArrive:string, dateDepart:string, categorie: String)
  +reserverChambres(quantity:Integer,dateArrive:String, dateDepart:String, categorie: String)
  +confirmerReservation(nom:string, telephone: string)
}
class "Map<nom:String,categorie:Categorie>" as MC {
  +get(nom:String): Categorie
}

class Hotel <Conteneur, Object physique>
class Categorie <Description d'entité,**Catalogue**> {
  -nom: String
  +getChambreLibre(dateArrivé: String,dateDepart:String): Chambre
  +getChambresLibre(quantity:Integer, dateArrivé: String,dateDepart:String): [Chambre]
}
class Reservation <Transaction>{
  -noConfirmation: String
  +Reservation(commis:Commis)
  +Reservation(ch:Chambre,c:Commis,dateArrive:String, dateDepart: String)
  +ajouterChambres([ch]:Chambre,dateArrive:String, dateDepart: String): String (json)
  +confirmerReservation(cl:Client)
  -setNoConfirmation()
}

class LigneReservation <Ligne de transaction>{
  -dateArrive: Date
  -dateDepart: Date
  +create([ch]:Chambre,dateArrive:String, dateDepart: String)
}

class Commis <Role>
class Chambre <Objet physique, Contenu dans l'hotel, Produit d'une transaction>
class Client <Role> {
  -nom:string
  -telephone:string
  +Client(nom:string, telephone:string)
}

Hotel  *- -> "*" Chambre: possède
Chambre "*" - -o Categorie: appartient
Client  <- -  Reservation: demande
Commis  <- -  Reservation: cree
Hotel  *- - "*" Commis : Emploie
Reservation "1" - -> "*" LigneReservation: contient
LigneReservation "1" - -> "*" Chambre : sont reservées par <
ControleurReservation - -> MC
ControleurReservation - -> Commis
MC - -> "*" Categorie
@enduml

PlantUML version 1.2021.2beta6(Unknown compile time)
(GPL source distribution)
Java Runtime: Java(TM) SE Runtime Environment
JVM: Java HotSpot(TM) 64-Bit Server VM
Default Encoding: UTF-8
Language: en
Country: US
--></g></svg>