<?xml version="1.0" encoding="UTF-8" standalone="no"?><svg xmlns="http://www.w3.org/2000/svg" xmlns:xlink="http://www.w3.org/1999/xlink" contentScriptType="application/ecmascript" contentStyleType="text/css" height="709px" preserveAspectRatio="none" style="width:1367px;height:709px;" version="1.1" viewBox="0 0 1367 709" width="1367px" zoomAndPan="magnify"><defs/><g><line style="stroke:#A80036;stroke-width:1.0;stroke-dasharray:5.0,5.0;" x1="200" x2="200" y1="36.2969" y2="702.8828"/><line style="stroke:#A80036;stroke-width:1.0;stroke-dasharray:5.0,5.0;" x1="523" x2="523" y1="36.2969" y2="702.8828"/><line style="stroke:#A80036;stroke-width:1.0;stroke-dasharray:5.0,5.0;" x1="686" x2="686" y1="36.2969" y2="702.8828"/><line style="stroke:#A80036;stroke-width:1.0;stroke-dasharray:5.0,5.0;" x1="862" x2="862" y1="36.2969" y2="702.8828"/><line style="stroke:#A80036;stroke-width:1.0;stroke-dasharray:5.0,5.0;" x1="967" x2="967" y1="36.2969" y2="702.8828"/><line style="stroke:#A80036;stroke-width:1.0;stroke-dasharray:5.0,5.0;" x1="1106" x2="1106" y1="36.2969" y2="702.8828"/><line style="stroke:#A80036;stroke-width:1.0;stroke-dasharray:5.0,5.0;" x1="1277" x2="1277" y1="665.6172" y2="702.8828"/><rect fill="#FEFECE" height="30.2969" style="stroke:#A80036;stroke-width:1.5;" width="182" x="109" y="5"/><text fill="#000000" font-family="sans-serif" font-size="14" lengthAdjust="spacing" textLength="168" x="116" y="24.9951">:ControleurReservation</text><rect fill="#FEFECE" height="30.2969" style="stroke:#A80036;stroke-width:1.5;" width="58" x="494" y="5"/><text fill="#000000" font-family="sans-serif" font-size="14" lengthAdjust="spacing" textLength="44" x="501" y="24.9951">:Hotel</text><rect fill="#FEFECE" height="30.2969" style="stroke:#A80036;stroke-width:1.5;" width="248" x="562" y="5"/><text fill="#000000" font-family="sans-serif" font-size="14" lengthAdjust="spacing" textLength="234" x="569" y="24.9951">:Map&lt;numero:string,:Chambre&gt;</text><rect fill="#FEFECE" height="30.2969" style="stroke:#A80036;stroke-width:1.5;" width="85" x="820" y="5"/><text fill="#000000" font-family="sans-serif" font-size="14" lengthAdjust="spacing" textLength="71" x="827" y="24.9951">:Chambre</text><rect fill="#FEFECE" height="30.2969" style="stroke:#A80036;stroke-width:1.5;" width="105" x="915" y="5"/><text fill="#000000" font-family="sans-serif" font-size="14" lengthAdjust="spacing" textLength="91" x="922" y="24.9951">:Reservation</text><rect fill="#FEFECE" height="30.2969" style="stroke:#A80036;stroke-width:1.5;" width="153" x="1030" y="5"/><text fill="#000000" font-family="sans-serif" font-size="14" lengthAdjust="spacing" textLength="139" x="1037" y="24.9951">sejourActuel:Sejour</text><path d="M35,51.2969 L35,76.2969 L195,76.2969 L195,61.2969 L185,51.2969 L35,51.2969 " fill="#FBFB77" style="stroke:#A80036;stroke-width:1.0;"/><path d="M185,51.2969 L185,61.2969 L195,61.2969 L185,51.2969 " fill="#FBFB77" style="stroke:#A80036;stroke-width:1.0;"/><text fill="#000000" font-family="sans-serif" font-size="13" lengthAdjust="spacing" textLength="139" x="41" y="68.3638">Controleur de session</text><polygon fill="#A80036" points="188,128.8281,198,132.8281,188,136.8281" style="stroke:#A80036;stroke-width:1.0;"/><line style="stroke:#A80036;stroke-width:1.0;" x1="0" x2="194" y1="132.8281" y2="132.8281"/><text fill="#000000" font-family="sans-serif" font-size="13" lengthAdjust="spacing" textLength="128" x="7" y="97.4966">transfererChambre(</text><text fill="#000000" font-family="sans-serif" font-size="13" lengthAdjust="spacing" textLength="160" x="7" y="112.6294">noChambreActuel:string,</text><text fill="#000000" font-family="sans-serif" font-size="13" lengthAdjust="spacing" textLength="176" x="7" y="127.7622">noNouvelleChambre:string)</text><path d="M205,145.8281 L205,200.8281 L531,200.8281 L531,155.8281 L521,145.8281 L205,145.8281 " fill="#FBFB77" style="stroke:#A80036;stroke-width:1.0;"/><path d="M521,145.8281 L521,155.8281 L531,155.8281 L521,145.8281 " fill="#FBFB77" style="stroke:#A80036;stroke-width:1.0;"/><text fill="#000000" font-family="sans-serif" font-size="13" lengthAdjust="spacing" textLength="140" x="211" y="162.895">expert en information</text><text fill="#000000" font-family="sans-serif" font-size="13" lengthAdjust="spacing" textLength="305" x="211" y="178.0278">controleur a une visibilité sur l'objet racine hotel</text><text fill="#000000" font-family="sans-serif" font-size="13" lengthAdjust="spacing" textLength="176" x="211" y="193.1606">Hotel connais les chambres</text><polygon fill="#A80036" points="511,238.4922,521,242.4922,511,246.4922" style="stroke:#A80036;stroke-width:1.0;"/><line style="stroke:#A80036;stroke-width:1.0;" x1="200" x2="517" y1="242.4922" y2="242.4922"/><text fill="#000000" font-family="sans-serif" font-size="13" lengthAdjust="spacing" textLength="295" x="207" y="222.2935">[sejour.reservation,category,sejour.dateFin] =</text><text fill="#000000" font-family="sans-serif" font-size="13" lengthAdjust="spacing" textLength="214" x="207" y="237.4263">TransferChambre(numero:string)</text><path d="M528,255.4922 L528,295.4922 L689,295.4922 L689,265.4922 L679,255.4922 L528,255.4922 " fill="#FBFB77" style="stroke:#A80036;stroke-width:1.0;"/><path d="M679,255.4922 L679,265.4922 L689,265.4922 L679,255.4922 " fill="#FBFB77" style="stroke:#A80036;stroke-width:1.0;"/><text fill="#000000" font-family="sans-serif" font-size="13" lengthAdjust="spacing" textLength="140" x="534" y="272.5591">Expert en information</text><text fill="#000000" font-family="sans-serif" font-size="13" lengthAdjust="spacing" textLength="136" x="534" y="287.6919">Hotel possède la Map</text><polygon fill="#A80036" points="674,317.8906,684,321.8906,674,325.8906" style="stroke:#A80036;stroke-width:1.0;"/><line style="stroke:#A80036;stroke-width:1.0;" x1="523" x2="680" y1="321.8906" y2="321.8906"/><text fill="#000000" font-family="sans-serif" font-size="13" lengthAdjust="spacing" textLength="114" x="530" y="316.8247">ch = get(numero)</text><path d="M528,334.8906 L528,374.8906 L906,374.8906 L906,344.8906 L896,334.8906 L528,334.8906 " fill="#FBFB77" style="stroke:#A80036;stroke-width:1.0;"/><path d="M896,334.8906 L896,344.8906 L906,344.8906 L896,334.8906 " fill="#FBFB77" style="stroke:#A80036;stroke-width:1.0;"/><text fill="#000000" font-family="sans-serif" font-size="13" lengthAdjust="spacing" textLength="140" x="534" y="351.9575">Expert en information</text><text fill="#000000" font-family="sans-serif" font-size="13" lengthAdjust="spacing" textLength="357" x="534" y="367.0903">La chambre connais son séjour courrant et sa catégorie</text><polygon fill="#A80036" points="850.5,412.4219,860.5,416.4219,850.5,420.4219" style="stroke:#A80036;stroke-width:1.0;"/><line style="stroke:#A80036;stroke-width:1.0;" x1="523" x2="856.5" y1="416.4219" y2="416.4219"/><text fill="#000000" font-family="sans-serif" font-size="13" lengthAdjust="spacing" textLength="124" x="530" y="396.2231">[category,sejour] =</text><text fill="#000000" font-family="sans-serif" font-size="13" lengthAdjust="spacing" textLength="191" x="530" y="411.356">TerminerSejourPourTransfer()</text><path d="M867,429.4219 L867,469.4219 L1028,469.4219 L1028,439.4219 L1018,429.4219 L867,429.4219 " fill="#FBFB77" style="stroke:#A80036;stroke-width:1.0;"/><path d="M1018,429.4219 L1018,439.4219 L1028,439.4219 L1018,429.4219 " fill="#FBFB77" style="stroke:#A80036;stroke-width:1.0;"/><text fill="#000000" font-family="sans-serif" font-size="13" lengthAdjust="spacing" textLength="140" x="873" y="446.4888">expert en information</text><text fill="#000000" font-family="sans-serif" font-size="13" lengthAdjust="spacing" textLength="119" x="873" y="461.6216">Mutateur d'attribut</text><polygon fill="#A80036" points="1094.5,491.8203,1104.5,495.8203,1094.5,499.8203" style="stroke:#A80036;stroke-width:1.0;"/><line style="stroke:#A80036;stroke-width:1.0;" x1="862.5" x2="1100.5" y1="495.8203" y2="495.8203"/><text fill="#000000" font-family="sans-serif" font-size="13" lengthAdjust="spacing" textLength="105" x="869.5" y="490.7544">terminerSejour()</text><path d="M205,508.8203 L205,533.8203 L366,533.8203 L366,518.8203 L356,508.8203 L205,508.8203 " fill="#FBFB77" style="stroke:#A80036;stroke-width:1.0;"/><path d="M356,508.8203 L356,518.8203 L366,518.8203 L356,508.8203 " fill="#FBFB77" style="stroke:#A80036;stroke-width:1.0;"/><text fill="#000000" font-family="sans-serif" font-size="13" lengthAdjust="spacing" textLength="140" x="211" y="525.8872">expert en information</text><polygon fill="#A80036" points="955.5,571.2188,965.5,575.2188,955.5,579.2188" style="stroke:#A80036;stroke-width:1.0;"/><line style="stroke:#A80036;stroke-width:1.0;" x1="200" x2="961.5" y1="575.2188" y2="575.2188"/><text fill="#000000" font-family="sans-serif" font-size="13" lengthAdjust="spacing" textLength="131" x="207" y="555.02">r=ajouterChambres(</text><text fill="#000000" font-family="sans-serif" font-size="13" lengthAdjust="spacing" textLength="307" x="207" y="570.1528">[ch]:Chambre, \maintenant, dateDepart: String)</text><path d="M972,588.2188 L972,613.2188 L1198,613.2188 L1198,598.2188 L1188,588.2188 L972,588.2188 " fill="#FBFB77" style="stroke:#A80036;stroke-width:1.0;"/><path d="M1188,588.2188 L1188,598.2188 L1198,598.2188 L1188,588.2188 " fill="#FBFB77" style="stroke:#A80036;stroke-width:1.0;"/><text fill="#000000" font-family="sans-serif" font-size="13" lengthAdjust="spacing" textLength="205" x="978" y="605.2856">Reservation contient les séjours</text><polygon fill="#A80036" points="1181,680.8828,1191,684.8828,1181,688.8828" style="stroke:#A80036;stroke-width:1.0;"/><line style="stroke:#A80036;stroke-width:1.0;" x1="967.5" x2="1187" y1="684.8828" y2="684.8828"/><text fill="#000000" font-family="sans-serif" font-size="13" lengthAdjust="spacing" textLength="139" x="974.5" y="634.4185">Create(r:Reservation,</text><text fill="#000000" font-family="sans-serif" font-size="13" lengthAdjust="spacing" textLength="112" x="974.5" y="649.5513">dateArrive:string,</text><text fill="#000000" font-family="sans-serif" font-size="13" lengthAdjust="spacing" textLength="118" x="974.5" y="664.6841">dateDepart:string,</text><text fill="#000000" font-family="sans-serif" font-size="13" lengthAdjust="spacing" textLength="194" x="974.5" y="679.8169">noNouvelleChambre:number )</text><rect fill="#FEFECE" height="30.2969" style="stroke:#A80036;stroke-width:1.5;" width="168" x="1193" y="651.5859"/><text fill="#000000" font-family="sans-serif" font-size="14" lengthAdjust="spacing" textLength="154" x="1200" y="671.5811">nouveauSejour:Sejour</text><!--MD5=[34622f056efaded63b1c6bd87c4cfd3f]
@startuml
skinparam style strictuml

participant ":ControleurReservation" as S
participant ":Hotel" as H
participant ":Map<numero:string,:Chambre>" as MC
participant ":Chambre" as CH
participant ":Reservation" as R
Participant "sejourActuel:Sejour" as SA
participant "nouveauSejour:Sejour" as NS



note left of S: Controleur de session 
->S :transfererChambre(\nnoChambreActuel:string, \nnoNouvelleChambre:string)

note right of S: expert en information\ncontroleur a une visibilité sur l'objet racine hotel\nHotel connais les chambres
S -> H: [sejour.reservation,category,sejour.dateFin] = \nTransferChambre(numero:string)

note right of H: Expert en information\nHotel possède la Map
H->MC: ch = get(numero)

note right of H: Expert en information\nLa chambre connais son séjour courrant et sa catégorie
H -> CH: [category,sejour] = \nTerminerSejourPourTransfer()

note right of CH: expert en information\nMutateur d'attribut
CH->SA: terminerSejour()

note right of S: expert en information
S -> R: r=ajouterChambres(\n[ch]:Chambre, \maintenant, dateDepart: String)

note Right of R: Reservation contient les séjours
R -> NS**: Create(r:Reservation,\ndateArrive:string, \ndateDepart:string, \nnoNouvelleChambre:number )
@enduml

PlantUML version 1.2021.2beta7(Unknown compile time)
(GPL source distribution)
Java Runtime: Java(TM) SE Runtime Environment
JVM: Java HotSpot(TM) 64-Bit Server VM
Default Encoding: UTF-8
Language: en
Country: US
--></g></svg>