<?xml version="1.0" encoding="UTF-8" standalone="no"?><svg xmlns="http://www.w3.org/2000/svg" xmlns:xlink="http://www.w3.org/1999/xlink" contentScriptType="application/ecmascript" contentStyleType="text/css" height="360px" preserveAspectRatio="none" style="width:542px;height:360px;" version="1.1" viewBox="0 0 542 360" width="542px" zoomAndPan="magnify"><defs><filter height="300%" id="f1e8tcjiwzza2f" width="300%" x="-1" y="-1"><feGaussianBlur result="blurOut" stdDeviation="2.0"/><feColorMatrix in="blurOut" result="blurOut2" type="matrix" values="0 0 0 0 0 0 0 0 0 0 0 0 0 0 0 0 0 0 .4 0"/><feOffset dx="4.0" dy="4.0" in="blurOut2" result="blurOut3"/><feBlend in="SourceGraphic" in2="blurOut3" mode="normal"/></filter></defs><g><!--MD5=[0266bd9dac38d15b9cf47eac45b3948f]
cluster Application de gestion hotelière--><polygon fill="#FFFFFF" filter="url(#f1e8tcjiwzza2f)" points="108,6,374,6,381,28.2969,525,28.2969,525,353,108,353,108,6" style="stroke:#000000;stroke-width:1.5;"/><line style="stroke:#000000;stroke-width:1.5;" x1="108" x2="381" y1="28.2969" y2="28.2969"/><text fill="#000000" font-family="sans-serif" font-size="14" font-weight="bold" lengthAdjust="spacing" textLength="260" x="112" y="20.9951">Application de gestion hotelière</text><ellipse cx="316.4332" cy="81.8866" fill="#FEFECE" filter="url(#f1e8tcjiwzza2f)" rx="192.4332" ry="40.8866" style="stroke:#A80036;stroke-width:1.5;"/><text fill="#000000" font-family="sans-serif" font-size="14" lengthAdjust="spacing" textLength="358" x="137.4332" y="84.7333">CU01-Noter une reservartion d'une seule chambre</text><ellipse cx="316.6413" cy="197.2283" fill="#FEFECE" filter="url(#f1e8tcjiwzza2f)" rx="184.1413" ry="39.2283" style="stroke:#A80036;stroke-width:1.5;"/><text fill="#000000" font-family="sans-serif" font-size="14" lengthAdjust="spacing" textLength="341" x="146.1413" y="200.0749">CU02-Noter une reservartion de plusieurs séjour</text><ellipse cx="316.6527" cy="303.9305" fill="#FEFECE" filter="url(#f1e8tcjiwzza2f)" rx="152.6527" ry="32.9305" style="stroke:#A80036;stroke-width:1.5;"/><text fill="#000000" font-family="sans-serif" font-size="14" lengthAdjust="spacing" textLength="276" x="178.6527" y="306.7772">CU03-Transférer un séjour de chambre</text><!--MD5=[66fd8e7e464063ab027e32dbf62b0810]
entity Commis--><ellipse cx="35" cy="166" fill="#FEFECE" filter="url(#f1e8tcjiwzza2f)" rx="8" ry="8" style="stroke:#A80036;stroke-width:1.5;"/><path d="M35,174 L35,201 M22,182 L48,182 M35,201 L22,216 M35,201 L48,216 " fill="none" filter="url(#f1e8tcjiwzza2f)" style="stroke:#A80036;stroke-width:1.5;"/><text fill="#000000" font-family="sans-serif" font-size="14" lengthAdjust="spacing" textLength="58" x="6" y="234.4951">Commis</text><!--MD5=[1c3838d8433549adf0a1d82ac91d8423]
link Commis to N--><path d="M64.0653,166.879 C74.5321,157.111 87.0397,147.001 100,140 C121.572,128.348 145.647,118.912 169.67,111.309 " fill="none" id="Commis-to-N" style="stroke:#A80036;stroke-width:1.0;"/><polygon fill="#A80036" points="174.473,109.813,164.6903,108.6732,169.6996,111.3013,167.0716,116.3106,174.473,109.813" style="stroke:#A80036;stroke-width:1.0;"/><!--MD5=[5144c31c87b5d3ce934ba82124d1dc1a]
link Commis to S--><path d="M64.0792,197 C80.428,197 102.6117,197 127.069,197 " fill="none" id="Commis-to-S" style="stroke:#A80036;stroke-width:1.0;"/><polygon fill="#A80036" points="132.321,197,123.321,193,127.321,197,123.321,201,132.321,197" style="stroke:#A80036;stroke-width:1.0;"/><!--MD5=[27be9da0d479ec84dc31dc7f3a6d46d7]
link Commis to T--><path d="M64.027,226.801 C74.4905,236.416 87.0058,246.307 100,253 C126.414,266.604 156.518,276.6423 185.678,284.0278 " fill="none" id="Commis-to-T" style="stroke:#A80036;stroke-width:1.0;"/><polygon fill="#A80036" points="190.729,285.2831,182.9592,279.2308,185.8766,284.0774,181.03,286.9948,190.729,285.2831" style="stroke:#A80036;stroke-width:1.0;"/><!--MD5=[a6d4999b9cc729d57c0888c72056b05a]
@startuml
left to right direction
package "Application de gestion hotelière" {
 usecase "CU01-Noter une reservartion d'une seule chambre" as N
 usecase "CU02-Noter une reservartion de plusieurs séjour" as S
 usecase "CU03-Transférer un séjour de chambre" as T
 
}
Commis - -> N
Commis - -> S
Commis - -> T
@enduml

PlantUML version 1.2021.2beta2(Unknown compile time)
(GPL source distribution)
Java Runtime: Java(TM) SE Runtime Environment
JVM: Java HotSpot(TM) 64-Bit Server VM
Default Encoding: UTF-8
Language: en
Country: US
--></g></svg>