<?xml version="1.0" encoding="UTF-8" standalone="no"?><svg xmlns="http://www.w3.org/2000/svg" xmlns:xlink="http://www.w3.org/1999/xlink" contentScriptType="application/ecmascript" contentStyleType="text/css" height="404px" preserveAspectRatio="none" style="width:533px;height:404px;" version="1.1" viewBox="0 0 533 404" width="533px" zoomAndPan="magnify"><defs/><g><!--MD5=[894b0bddcf8cf549969f76d1fb82a696]
cluster Système d'inscription--><rect fill="#FFFFFF" height="383" style="stroke:#000000;stroke-width:1.5;" width="338" x="189" y="7"/><text fill="#000000" font-family="sans-serif" font-size="14" font-weight="bold" lengthAdjust="spacing" textLength="176" x="270" y="21.9951">Système d'inscription</text><ellipse cx="358.1339" cy="75.0268" fill="#FEFECE" rx="153.1339" ry="33.0268" style="stroke:#A80036;stroke-width:1.5;"/><text fill="#000000" font-family="sans-serif" font-size="14" lengthAdjust="spacing" textLength="277" x="219.6339" y="77.8735">CU01 - S'inscrire au prochain trimestre</text><ellipse cx="357.9752" cy="170.995" fill="#FEFECE" rx="125.4752" ry="27.495" style="stroke:#A80036;stroke-width:1.5;"/><text fill="#000000" font-family="sans-serif" font-size="14" lengthAdjust="spacing" textLength="219" x="248.4752" y="173.8417">CU02 - Modifier son inscription</text><ellipse cx="357.8027" cy="259.9605" fill="#FEFECE" rx="120.3027" ry="26.4605" style="stroke:#A80036;stroke-width:1.5;"/><text fill="#000000" font-family="sans-serif" font-size="14" lengthAdjust="spacing" textLength="208" x="253.8027" y="262.8072">CU03 - Admettre un étudiant</text><ellipse cx="357.9616" cy="347.9923" fill="#FEFECE" rx="117.9616" ry="25.9923" style="stroke:#A80036;stroke-width:1.5;"/><text fill="#000000" font-family="sans-serif" font-size="14" lengthAdjust="spacing" textLength="203" x="256.4616" y="350.839">CU04 - Planifier un trimestre</text><!--MD5=[79deebc7247fdafff41f05a812296516]
entity Étudiant--><ellipse cx="75.5" cy="75.5" fill="#FEFECE" rx="8" ry="8" style="stroke:#A80036;stroke-width:1.5;"/><path d="M75.5,83.5 L75.5,110.5 M62.5,91.5 L88.5,91.5 M75.5,110.5 L62.5,125.5 M75.5,110.5 L88.5,125.5 " fill="none" style="stroke:#A80036;stroke-width:1.5;"/><text fill="#000000" font-family="sans-serif" font-size="14" lengthAdjust="spacing" textLength="61" x="45" y="140.9951">Étudiant</text><!--MD5=[8d9b9d96a990d7bd38c2c9e7fc0590e1]
entity Registraire--><ellipse cx="75.5" cy="217.5" fill="#FEFECE" rx="8" ry="8" style="stroke:#A80036;stroke-width:1.5;"/><path d="M75.5,225.5 L75.5,252.5 M62.5,233.5 L88.5,233.5 M75.5,252.5 L62.5,267.5 M75.5,252.5 L88.5,267.5 " fill="none" style="stroke:#A80036;stroke-width:1.5;"/><text fill="#000000" font-family="sans-serif" font-size="14" lengthAdjust="spacing" textLength="79" x="36" y="282.9951">Registraire</text><!--MD5=[a79c70aef19b8109b44ae4336f79a3da]
entity AgentAdministratif--><ellipse cx="75.5" cy="330.5" fill="#FEFECE" rx="8" ry="8" style="stroke:#A80036;stroke-width:1.5;"/><path d="M75.5,338.5 L75.5,365.5 M62.5,346.5 L88.5,346.5 M75.5,365.5 L62.5,380.5 M75.5,365.5 L88.5,380.5 " fill="none" style="stroke:#A80036;stroke-width:1.5;"/><text fill="#000000" font-family="sans-serif" font-size="14" lengthAdjust="spacing" textLength="139" x="6" y="395.9951">AgentAdministratif</text><!--MD5=[90a32869a7c9acbd5bf696b42748f73f]
link Étudiant to CU01--><path d="M106.253,101.818 C134.029,98.847 177.552,94.192 220.593,89.589 " fill="none" id="Étudiant-CU01" style="stroke:#A80036;stroke-width:1.0;"/><!--MD5=[ecfce2930437280704df5d12dce63c8c]
link Étudiant to CU02--><path d="M106.253,112.001 C145.309,121.19 215.498,137.705 271.702,150.93 " fill="none" id="Étudiant-CU02" style="stroke:#A80036;stroke-width:1.0;"/><!--MD5=[627ca0190a6055be05cae2cde91d552e]
link Registraire to CU03--><path d="M115.208,248.794 C147.52,250.291 195.331,252.507 239.927,254.574 " fill="none" id="Registraire-CU03" style="stroke:#A80036;stroke-width:1.0;"/><!--MD5=[cfacac05f4390ef9cc14d912d09a44ae]
link AgentAdministratif to CU04--><path d="M145.118,357.0645 C174.312,355.8155 209.167,354.3244 242.094,352.9158 " fill="none" id="AgentAdministratif-CU04" style="stroke:#A80036;stroke-width:1.0;"/><!--MD5=[57b866db8aba9913acb56fcd435986db]
@startuml
skinparam style strictuml
left to right direction
rectangle "Système d'inscription"{
(CU01 - S'inscrire au prochain trimestre) as CU01
(CU02 - Modifier son inscription) as CU02
(CU03 - Admettre un étudiant) as CU03
(CU04 - Planifier un trimestre) as CU04
}
Étudiant - - CU01
Étudiant - - CU02
Registraire - - CU03
AgentAdministratif - - CU04
@enduml

PlantUML version 1.2021.5beta3(Unknown compile time)
(GPL source distribution)
Java Runtime: Java(TM) SE Runtime Environment
JVM: Java HotSpot(TM) 64-Bit Server VM
Default Encoding: UTF-8
Language: en
Country: US
--></g></svg>