<?xml version="1.0" encoding="UTF-8" standalone="no"?><svg xmlns="http://www.w3.org/2000/svg" xmlns:xlink="http://www.w3.org/1999/xlink" contentScriptType="application/ecmascript" contentStyleType="text/css" height="316px" preserveAspectRatio="none" style="width:720px;height:316px;" version="1.1" viewBox="0 0 720 316" width="720px" zoomAndPan="magnify"><defs/><g><text fill="#000000" font-family="sans-serif" font-size="18" lengthAdjust="spacing" textLength="397" x="161.25" y="28.708">Réalisation de cas d'utilisation: saisirCours</text><line style="stroke:#A80036;stroke-width:1.0;stroke-dasharray:5.0,5.0;" x1="218" x2="218" y1="71.25" y2="309.4453"/><line style="stroke:#A80036;stroke-width:1.0;stroke-dasharray:5.0,5.0;" x1="431.5" x2="431.5" y1="71.25" y2="309.4453"/><line style="stroke:#A80036;stroke-width:1.0;stroke-dasharray:5.0,5.0;" x1="581.5" x2="581.5" y1="71.25" y2="309.4453"/><line style="stroke:#A80036;stroke-width:1.0;stroke-dasharray:5.0,5.0;" x1="680.5" x2="680.5" y1="71.25" y2="309.4453"/><rect fill="#FEFECE" height="30.2969" style="stroke:#A80036;stroke-width:1.5;" width="188" x="124" y="39.9531"/><text fill="#000000" font-family="sans-serif" font-size="14" lengthAdjust="spacing" textLength="174" x="131" y="59.9482">:GestionnaireInscription</text><rect fill="#FEFECE" height="30.2969" style="stroke:#A80036;stroke-width:1.5;" width="131" x="366.5" y="39.9531"/><text fill="#000000" font-family="sans-serif" font-size="14" lengthAdjust="spacing" textLength="117" x="373.5" y="59.9482">:CatalogueCours</text><rect fill="#FEFECE" height="30.2969" style="stroke:#A80036;stroke-width:1.5;" width="111" x="526.5" y="39.9531"/><text fill="#000000" font-family="sans-serif" font-size="14" lengthAdjust="spacing" textLength="97" x="533.5" y="59.9482">:Map&lt;Cours&gt;</text><rect fill="#FEFECE" height="30.2969" style="stroke:#A80036;stroke-width:1.5;" width="67" x="647.5" y="39.9531"/><text fill="#000000" font-family="sans-serif" font-size="14" lengthAdjust="spacing" textLength="53" x="654.5" y="59.9482">c:Cours</text><polygon fill="#A80036" points="206,98.3828,216,102.3828,206,106.3828" style="stroke:#A80036;stroke-width:1.0;"/><line style="stroke:#A80036;stroke-width:1.0;" x1="0" x2="212" y1="102.3828" y2="102.3828"/><text fill="#000000" font-family="sans-serif" font-size="13" lengthAdjust="spacing" textLength="115" x="7" y="97.3169">saisirCours(cours)</text><path d="M5,115.3828 L5,170.3828 L213,170.3828 L213,125.3828 L203,115.3828 L5,115.3828 " fill="#FBFB77" style="stroke:#A80036;stroke-width:1.0;"/><path d="M203,115.3828 L203,125.3828 L213,125.3828 L203,115.3828 " fill="#FBFB77" style="stroke:#A80036;stroke-width:1.0;"/><text fill="#000000" font-family="sans-serif" font-size="13" lengthAdjust="spacing" textLength="187" x="11" y="132.4497">GRASP Contrôleur de session</text><text fill="#000000" font-family="sans-serif" font-size="13" lengthAdjust="spacing" textLength="158" x="11" y="147.5825">(aucun objet racine dans</text><text fill="#000000" font-family="sans-serif" font-size="13" lengthAdjust="spacing" textLength="148" x="11" y="162.7153">le modèle du domaine)</text><polygon fill="#A80036" points="420,211.0469,430,215.0469,420,219.0469" style="stroke:#A80036;stroke-width:1.0;"/><line style="stroke:#A80036;stroke-width:1.0;" x1="218" x2="426" y1="215.0469" y2="215.0469"/><text fill="#000000" font-family="sans-serif" font-size="13" lengthAdjust="spacing" textLength="190" x="225" y="209.981">groupes = getGroupes(cours)</text><path d="M437,180.7813 L437,235.7813 L639,235.7813 L639,190.7813 L629,180.7813 L437,180.7813 " fill="#FBFB77" style="stroke:#A80036;stroke-width:1.0;"/><path d="M629,180.7813 L629,190.7813 L639,190.7813 L629,180.7813 " fill="#FBFB77" style="stroke:#A80036;stroke-width:1.0;"/><text fill="#000000" font-family="sans-serif" font-size="13" lengthAdjust="spacing" textLength="181" x="443" y="197.8481">GRASP Expert (Catalogue et</text><text fill="#000000" font-family="sans-serif" font-size="13" lengthAdjust="spacing" textLength="172" x="443" y="212.981">Cours serait les experts de</text><text fill="#000000" font-family="sans-serif" font-size="13" lengthAdjust="spacing" textLength="140" x="443" y="228.1138">cours et des groupes)</text><polygon fill="#A80036" points="570,258.3125,580,262.3125,570,266.3125" style="stroke:#A80036;stroke-width:1.0;"/><line style="stroke:#A80036;stroke-width:1.0;" x1="432" x2="576" y1="262.3125" y2="262.3125"/><text fill="#000000" font-family="sans-serif" font-size="13" lengthAdjust="spacing" textLength="126" x="439" y="257.2466">c = chercher(cours)</text><polygon fill="#A80036" points="669,287.4453,679,291.4453,669,295.4453" style="stroke:#A80036;stroke-width:1.0;"/><line style="stroke:#A80036;stroke-width:1.0;" x1="432" x2="675" y1="291.4453" y2="291.4453"/><text fill="#000000" font-family="sans-serif" font-size="13" lengthAdjust="spacing" textLength="145" x="439" y="286.3794">groupes = getGroupes</text><!--MD5=[df36d0a29d7f8dcc54859571a67acea3]
@startuml
skinparam style strictuml
participant ":GestionnaireInscription" as Ctrlr
title Réalisation de cas d'utilisation: saisirCours
-> Ctrlr : saisirCours(cours)
note left of Ctrlr : GRASP Contrôleur de session\n(aucun objet racine dans\nle modèle du domaine)
Ctrlr -> ":CatalogueCours" : groupes = getGroupes(cours)
note right: GRASP Expert (Catalogue et\nCours serait les experts de\ncours et des groupes)
":CatalogueCours" -> ":Map<Cours>" : c = chercher(cours)
":CatalogueCours" -> "c:Cours" : groupes = getGroupes
@enduml

PlantUML version 1.2021.5beta3(Unknown compile time)
(GPL source distribution)
Java Runtime: Java(TM) SE Runtime Environment
JVM: Java HotSpot(TM) 64-Bit Server VM
Default Encoding: UTF-8
Language: en
Country: US
--></g></svg>