<?xml version="1.0" encoding="UTF-8" standalone="no"?><svg xmlns="http://www.w3.org/2000/svg" xmlns:xlink="http://www.w3.org/1999/xlink" contentScriptType="application/ecmascript" contentStyleType="text/css" height="493px" preserveAspectRatio="none" style="width:814px;height:493px;background:#FFFFFF;" version="1.1" viewBox="0 0 814 493" width="814px" zoomAndPan="magnify"><defs/><g><text fill="#000000" font-family="sans-serif" font-size="18" lengthAdjust="spacing" textLength="467" x="175.25" y="28.708">Réalisation de cas d'utilisation: finaliserInscription</text><rect fill="#FFFFFF" height="160.6328" style="stroke:#000000;stroke-width:2.0;" width="655" x="152.5" y="308.7422"/><rect fill="#FFFFFF" height="56.1016" style="stroke:none;stroke-width:1.0;" width="655" x="152.5" y="413.2734"/><line style="stroke:#A80036;stroke-width:1.0;stroke-dasharray:5.0,5.0;" x1="217.5" x2="217.5" y1="87.5469" y2="486.375"/><line style="stroke:#A80036;stroke-width:1.0;stroke-dasharray:5.0,5.0;" x1="327.5" x2="327.5" y1="87.5469" y2="486.375"/><line style="stroke:#A80036;stroke-width:1.0;stroke-dasharray:5.0,5.0;" x1="440.5" x2="440.5" y1="87.5469" y2="486.375"/><line style="stroke:#A80036;stroke-width:1.0;stroke-dasharray:5.0,5.0;" x1="556.5" x2="556.5" y1="87.5469" y2="486.375"/><line style="stroke:#A80036;stroke-width:1.0;stroke-dasharray:5.0,5.0;" x1="706.5" x2="706.5" y1="458.7266" y2="486.375"/><rect fill="#FEFECE" height="46.5938" style="stroke:#A80036;stroke-width:1.5;" width="111" x="162.5" y="39.9531"/><text fill="#000000" font-family="sans-serif" font-size="14" lengthAdjust="spacing" textLength="97" x="169.5" y="59.9482">:Gestionnaire</text><text fill="#000000" font-family="sans-serif" font-size="14" lengthAdjust="spacing" textLength="77" x="179.5" y="76.2451">Inscription</text><rect fill="#FEFECE" height="30.2969" style="stroke:#A80036;stroke-width:1.5;" width="89" x="283.5" y="56.25"/><text fill="#000000" font-family="sans-serif" font-size="14" lengthAdjust="spacing" textLength="75" x="290.5" y="76.2451">e:Étudiant</text><rect fill="#FEFECE" height="30.2969" style="stroke:#A80036;stroke-width:1.5;" width="116" x="382.5" y="56.25"/><text fill="#000000" font-family="sans-serif" font-size="14" lengthAdjust="spacing" textLength="102" x="389.5" y="76.2451">ins:Inscription</text><rect fill="#FEFECE" height="30.2969" style="stroke:#A80036;stroke-width:1.5;" width="97" x="508.5" y="56.25"/><text fill="#000000" font-family="sans-serif" font-size="14" lengthAdjust="spacing" textLength="83" x="515.5" y="76.2451">:GrandLivre</text><polygon fill="#A80036" points="206,114.6797,216,118.6797,206,122.6797" style="stroke:#A80036;stroke-width:1.0;"/><line style="stroke:#A80036;stroke-width:1.0;" x1="0" x2="212" y1="118.6797" y2="118.6797"/><text fill="#000000" font-family="sans-serif" font-size="13" lengthAdjust="spacing" textLength="143" x="7" y="113.6138">finaliserInscription(clé)</text><path d="M5,131.6797 L5,186.6797 L213,186.6797 L213,141.6797 L203,131.6797 L5,131.6797 " fill="#FBFB77" style="stroke:#A80036;stroke-width:1.0;"/><path d="M203,131.6797 L203,141.6797 L213,141.6797 L203,131.6797 " fill="#FBFB77" style="stroke:#A80036;stroke-width:1.0;"/><text fill="#000000" font-family="sans-serif" font-size="13" lengthAdjust="spacing" textLength="187" x="11" y="148.7466">GRASP Contrôleur de session</text><text fill="#000000" font-family="sans-serif" font-size="13" lengthAdjust="spacing" textLength="158" x="11" y="163.8794">(aucun objet racine dans</text><text fill="#000000" font-family="sans-serif" font-size="13" lengthAdjust="spacing" textLength="148" x="11" y="179.0122">le modèle du domaine)</text><path d="M15,197.0781 L15,252.0781 L213,252.0781 L213,207.0781 L203,197.0781 L15,197.0781 " fill="#FBFB77" style="stroke:#A80036;stroke-width:1.0;"/><path d="M203,197.0781 L203,207.0781 L213,207.0781 L203,197.0781 " fill="#FBFB77" style="stroke:#A80036;stroke-width:1.0;"/><text fill="#000000" font-family="sans-serif" font-size="13" lengthAdjust="spacing" textLength="136" x="21" y="214.145">GRASP Expert justifie</text><text fill="#000000" font-family="sans-serif" font-size="13" lengthAdjust="spacing" textLength="177" x="21" y="229.2778">toutes les autres méthodes</text><text fill="#000000" font-family="sans-serif" font-size="13" lengthAdjust="spacing" textLength="128" x="21" y="244.4106">dans ce diagramme</text><polygon fill="#A80036" points="316,289.7422,326,293.7422,316,297.7422" style="stroke:#A80036;stroke-width:1.0;"/><line style="stroke:#A80036;stroke-width:1.0;" x1="218" x2="322" y1="293.7422" y2="293.7422"/><text fill="#000000" font-family="sans-serif" font-size="13" lengthAdjust="spacing" textLength="69" x="225" y="273.5435">estValide=</text><text fill="#000000" font-family="sans-serif" font-size="13" lengthAdjust="spacing" textLength="79" x="225" y="288.6763">estValid(clé)</text><path d="M152.5,308.7422 L218.5,308.7422 L218.5,315.7422 L208.5,325.7422 L152.5,325.7422 L152.5,308.7422 " fill="#EEEEEE" style="stroke:#000000;stroke-width:1.0;"/><rect fill="none" height="160.6328" style="stroke:#000000;stroke-width:2.0;" width="655" x="152.5" y="308.7422"/><text fill="#000000" font-family="sans-serif" font-size="13" font-weight="bold" lengthAdjust="spacing" textLength="21" x="167.5" y="321.8091">alt</text><text fill="#000000" font-family="sans-serif" font-size="11" font-weight="bold" lengthAdjust="spacing" textLength="73" x="233.5" y="320.9526">[estValide]</text><polygon fill="#A80036" points="428.5,343.0078,438.5,347.0078,428.5,351.0078" style="stroke:#A80036;stroke-width:1.0;"/><line style="stroke:#A80036;stroke-width:1.0;" x1="218" x2="434.5" y1="347.0078" y2="347.0078"/><text fill="#000000" font-family="sans-serif" font-size="13" lengthAdjust="spacing" textLength="91" x="225" y="341.9419">setÉtudiant(e)</text><polygon fill="#A80036" points="428.5,372.1406,438.5,376.1406,428.5,380.1406" style="stroke:#A80036;stroke-width:1.0;"/><line style="stroke:#A80036;stroke-width:1.0;" x1="218" x2="434.5" y1="376.1406" y2="376.1406"/><text fill="#000000" font-family="sans-serif" font-size="13" lengthAdjust="spacing" textLength="126" x="225" y="371.0747">setDateHeure(now)</text><polygon fill="#A80036" points="545,401.2734,555,405.2734,545,409.2734" style="stroke:#A80036;stroke-width:1.0;"/><line style="stroke:#A80036;stroke-width:1.0;" x1="218" x2="551" y1="405.2734" y2="405.2734"/><text fill="#000000" font-family="sans-serif" font-size="13" lengthAdjust="spacing" textLength="138" x="225" y="400.2075">ajouterInscription(ins)</text><line style="stroke:#000000;stroke-width:1.0;stroke-dasharray:2.0,2.0;" x1="152.5" x2="807.5" y1="414.2734" y2="414.2734"/><text fill="#000000" font-family="sans-serif" font-size="11" font-weight="bold" lengthAdjust="spacing" textLength="79" x="157.5" y="424.4839">[!estValide]</text><polygon fill="#A80036" points="603.5,445.2109,613.5,449.2109,603.5,453.2109" style="stroke:#A80036;stroke-width:1.0;"/><line style="stroke:#A80036;stroke-width:1.0;stroke-dasharray:2.0,2.0;" x1="218" x2="609.5" y1="449.2109" y2="449.2109"/><text fill="#000000" font-family="sans-serif" font-size="13" lengthAdjust="spacing" textLength="41" x="225" y="444.145">create</text><rect fill="#FEFECE" height="30.2969" style="stroke:#A80036;stroke-width:1.5;" width="182" x="615.5" y="428.0781"/><text fill="#000000" font-family="sans-serif" font-size="14" lengthAdjust="spacing" textLength="168" x="622.5" y="448.0732">CléNonValideException</text><!--MD5=[7c248a855c97b34bb204928320bcbf87]
@startuml
skinparam backgroundColor white
skinparam style strictuml
participant ":Gestionnaire\nInscription" as Ctrlr
title Réalisation de cas d'utilisation: finaliserInscription
-> Ctrlr : finaliserInscription(clé)
note left of Ctrlr : GRASP Contrôleur de session\n(aucun objet racine dans\nle modèle du domaine)
note left of Ctrlr : GRASP Expert justifie\ntoutes les autres méthodes\ndans ce diagramme
Ctrlr -> "e:Étudiant" : estValide=\nestValid(clé)
alt estValide
Ctrlr -> "ins:Inscription" : setÉtudiant(e)
Ctrlr -> "ins:Inscription" : setDateHeure(now)
Ctrlr -> ":GrandLivre" : ajouterInscription(ins)
else !estValide
create CléNonValideException
Ctrlr - -> CléNonValideException : create
end
@enduml

PlantUML version 1.2021.7(Sun May 23 12:40:07 UTC 2021)
(GPL source distribution)
Java Runtime: Java(TM) SE Runtime Environment
JVM: Java HotSpot(TM) 64-Bit Server VM
Default Encoding: UTF-8
Language: en
Country: US
--></g></svg>