<?xml version="1.0" encoding="UTF-8" standalone="no"?><svg xmlns="http://www.w3.org/2000/svg" xmlns:xlink="http://www.w3.org/1999/xlink" contentScriptType="application/ecmascript" contentStyleType="text/css" height="478px" preserveAspectRatio="none" style="width:984px;height:478px;" version="1.1" viewBox="0 0 984 478" width="984px" zoomAndPan="magnify"><defs/><g><text fill="#000000" font-family="sans-serif" font-size="18" lengthAdjust="spacing" textLength="466" x="258.75" y="28.708">Réalisation de cas d'utilisation: saisirGroupeCours</text><line style="stroke:#A80036;stroke-width:1.0;stroke-dasharray:5.0,5.0;" x1="232.5" x2="232.5" y1="87.5469" y2="471.6719"/><line style="stroke:#A80036;stroke-width:1.0;stroke-dasharray:5.0,5.0;" x1="415.5" x2="415.5" y1="87.5469" y2="471.6719"/><line style="stroke:#A80036;stroke-width:1.0;stroke-dasharray:5.0,5.0;" x1="546.5" x2="546.5" y1="87.5469" y2="471.6719"/><line style="stroke:#A80036;stroke-width:1.0;stroke-dasharray:5.0,5.0;" x1="661.5" x2="661.5" y1="87.5469" y2="471.6719"/><line style="stroke:#A80036;stroke-width:1.0;stroke-dasharray:5.0,5.0;" x1="796.5" x2="796.5" y1="87.5469" y2="471.6719"/><line style="stroke:#A80036;stroke-width:1.0;stroke-dasharray:5.0,5.0;" x1="924.5" x2="924.5" y1="87.5469" y2="471.6719"/><rect fill="#FEFECE" height="46.5938" style="stroke:#A80036;stroke-width:1.5;" width="111" x="177.5" y="39.9531"/><text fill="#000000" font-family="sans-serif" font-size="14" lengthAdjust="spacing" textLength="97" x="184.5" y="59.9482">:Gestionnaire</text><text fill="#000000" font-family="sans-serif" font-size="14" lengthAdjust="spacing" textLength="77" x="194.5" y="76.2451">Inscription</text><rect fill="#FEFECE" height="30.2969" style="stroke:#A80036;stroke-width:1.5;" width="131" x="350.5" y="56.25"/><text fill="#000000" font-family="sans-serif" font-size="14" lengthAdjust="spacing" textLength="117" x="357.5" y="76.2451">:CatalogueCours</text><rect fill="#FEFECE" height="30.2969" style="stroke:#A80036;stroke-width:1.5;" width="111" x="491.5" y="56.25"/><text fill="#000000" font-family="sans-serif" font-size="14" lengthAdjust="spacing" textLength="97" x="498.5" y="76.2451">:Map&lt;Cours&gt;</text><rect fill="#FEFECE" height="30.2969" style="stroke:#A80036;stroke-width:1.5;" width="67" x="628.5" y="56.25"/><text fill="#000000" font-family="sans-serif" font-size="14" lengthAdjust="spacing" textLength="53" x="635.5" y="76.2451">c:Cours</text><rect fill="#FEFECE" height="46.5938" style="stroke:#A80036;stroke-width:1.5;" width="129" x="732.5" y="39.9531"/><text fill="#000000" font-family="sans-serif" font-size="14" lengthAdjust="spacing" textLength="35" x="779.5" y="59.9482">:Map</text><text fill="#000000" font-family="sans-serif" font-size="14" lengthAdjust="spacing" textLength="115" x="739.5" y="76.2451">&lt;GroupeCours&gt;</text><rect fill="#FEFECE" height="46.5938" style="stroke:#A80036;stroke-width:1.5;" width="107" x="871.5" y="39.9531"/><text fill="#000000" font-family="sans-serif" font-size="14" lengthAdjust="spacing" textLength="22" x="914" y="59.9482">gc:</text><text fill="#000000" font-family="sans-serif" font-size="14" lengthAdjust="spacing" textLength="93" x="878.5" y="76.2451">GroupeCours</text><polygon fill="#A80036" points="221,114.6797,231,118.6797,221,122.6797" style="stroke:#A80036;stroke-width:1.0;"/><line style="stroke:#A80036;stroke-width:1.0;" x1="0" x2="227" y1="118.6797" y2="118.6797"/><text fill="#000000" font-family="sans-serif" font-size="13" lengthAdjust="spacing" textLength="209" x="7" y="113.6138">saisirGroupeCours(groupeCours)</text><path d="M20,131.6797 L20,186.6797 L228,186.6797 L228,141.6797 L218,131.6797 L20,131.6797 " fill="#FBFB77" style="stroke:#A80036;stroke-width:1.0;"/><path d="M218,131.6797 L218,141.6797 L228,141.6797 L218,131.6797 " fill="#FBFB77" style="stroke:#A80036;stroke-width:1.0;"/><text fill="#000000" font-family="sans-serif" font-size="13" lengthAdjust="spacing" textLength="187" x="26" y="148.7466">GRASP Contrôleur de session</text><text fill="#000000" font-family="sans-serif" font-size="13" lengthAdjust="spacing" textLength="158" x="26" y="163.8794">(aucun objet racine dans</text><text fill="#000000" font-family="sans-serif" font-size="13" lengthAdjust="spacing" textLength="148" x="26" y="179.0122">le modèle du domaine)</text><polygon fill="#A80036" points="404,234.9102,414,238.9102,404,242.9102" style="stroke:#A80036;stroke-width:1.0;"/><line style="stroke:#A80036;stroke-width:1.0;" x1="233" x2="410" y1="238.9102" y2="238.9102"/><text fill="#000000" font-family="sans-serif" font-size="13" lengthAdjust="spacing" textLength="59" x="240" y="218.7114">horaire =</text><text fill="#000000" font-family="sans-serif" font-size="13" lengthAdjust="spacing" textLength="159" x="240" y="233.8442">getHoraire(groupeCours)</text><path d="M421,197.0781 L421,252.0781 L623,252.0781 L623,207.0781 L613,197.0781 L421,197.0781 " fill="#FBFB77" style="stroke:#A80036;stroke-width:1.0;"/><path d="M613,197.0781 L613,207.0781 L623,207.0781 L613,197.0781 " fill="#FBFB77" style="stroke:#A80036;stroke-width:1.0;"/><text fill="#000000" font-family="sans-serif" font-size="13" lengthAdjust="spacing" textLength="181" x="427" y="214.145">GRASP Expert (Catalogue et</text><text fill="#000000" font-family="sans-serif" font-size="13" lengthAdjust="spacing" textLength="172" x="427" y="229.2778">Cours serait les experts de</text><text fill="#000000" font-family="sans-serif" font-size="13" lengthAdjust="spacing" textLength="140" x="427" y="244.4106">cours et des horaires)</text><polygon fill="#A80036" points="535,300.3086,545,304.3086,535,308.3086" style="stroke:#A80036;stroke-width:1.0;"/><line style="stroke:#A80036;stroke-width:1.0;" x1="416" x2="541" y1="304.3086" y2="304.3086"/><text fill="#000000" font-family="sans-serif" font-size="13" lengthAdjust="spacing" textLength="21" x="423" y="284.1099">c =</text><text fill="#000000" font-family="sans-serif" font-size="13" lengthAdjust="spacing" textLength="101" x="423" y="299.2427">chercher(cours)</text><path d="M552,262.4766 L552,317.4766 L791,317.4766 L791,272.4766 L781,262.4766 L552,262.4766 " fill="#FBFB77" style="stroke:#A80036;stroke-width:1.0;"/><path d="M781,262.4766 L781,272.4766 L791,272.4766 L781,262.4766 " fill="#FBFB77" style="stroke:#A80036;stroke-width:1.0;"/><text fill="#000000" font-family="sans-serif" font-size="13" lengthAdjust="spacing" textLength="183" x="558" y="279.5435">Notez que la valeur de cours</text><text fill="#000000" font-family="sans-serif" font-size="13" lengthAdjust="spacing" textLength="218" x="558" y="294.6763">sera décortiquée de groupeCours,</text><text fill="#000000" font-family="sans-serif" font-size="13" lengthAdjust="spacing" textLength="203" x="558" y="309.8091">p.ex. "LOG210" de "LOG210-01"</text><polygon fill="#A80036" points="650,350.5742,660,354.5742,650,358.5742" style="stroke:#A80036;stroke-width:1.0;"/><line style="stroke:#A80036;stroke-width:1.0;" x1="416" x2="656" y1="354.5742" y2="354.5742"/><text fill="#000000" font-family="sans-serif" font-size="13" lengthAdjust="spacing" textLength="222" x="423" y="349.5083">horaire = getHoraire(groupeCours)</text><path d="M667,327.875 L667,367.875 L871,367.875 L871,337.875 L861,327.875 L667,327.875 " fill="#FBFB77" style="stroke:#A80036;stroke-width:1.0;"/><path d="M861,327.875 L861,337.875 L871,337.875 L861,327.875 " fill="#FBFB77" style="stroke:#A80036;stroke-width:1.0;"/><text fill="#000000" font-family="sans-serif" font-size="13" lengthAdjust="spacing" textLength="183" x="673" y="344.9419">GRASP Expert (GroupeCours</text><text fill="#000000" font-family="sans-serif" font-size="13" lengthAdjust="spacing" textLength="176" x="673" y="360.0747">serait l'expert des horaires)</text><polygon fill="#A80036" points="785,405.4063,795,409.4063,785,413.4063" style="stroke:#A80036;stroke-width:1.0;"/><line style="stroke:#A80036;stroke-width:1.0;" x1="662" x2="791" y1="409.4063" y2="409.4063"/><text fill="#000000" font-family="sans-serif" font-size="13" lengthAdjust="spacing" textLength="29" x="669" y="389.2075">gc =</text><text fill="#000000" font-family="sans-serif" font-size="13" lengthAdjust="spacing" textLength="111" x="669" y="404.3403">chercher(groupe)</text><polygon fill="#A80036" points="913,449.6719,923,453.6719,913,457.6719" style="stroke:#A80036;stroke-width:1.0;"/><line style="stroke:#A80036;stroke-width:1.0;" x1="662" x2="919" y1="453.6719" y2="453.6719"/><text fill="#000000" font-family="sans-serif" font-size="13" lengthAdjust="spacing" textLength="59" x="669" y="433.4731">horaire =</text><text fill="#000000" font-family="sans-serif" font-size="13" lengthAdjust="spacing" textLength="67" x="669" y="448.606">getHoraire</text><!--MD5=[71b0db0b0f7a17fd41cd2117c5d33185]
@startuml
skinparam style strictuml
participant ":Gestionnaire\nInscription" as Ctrlr
title Réalisation de cas d'utilisation: saisirGroupeCours
-> Ctrlr : saisirGroupeCours(groupeCours)
note left of Ctrlr : GRASP Contrôleur de session\n(aucun objet racine dans\nle modèle du domaine)
Ctrlr -> ":CatalogueCours" : horaire =\ngetHoraire(groupeCours)
note right: GRASP Expert (Catalogue et\nCours serait les experts de\ncours et des horaires)
":CatalogueCours" -> ":Map<Cours>" : c =\nchercher(cours)
note right: Notez que la valeur de cours\nsera décortiquée de groupeCours,\np.ex. "LOG210" de "LOG210-01"
":CatalogueCours" -> "c:Cours" : horaire = getHoraire(groupeCours)
note right: GRASP Expert (GroupeCours\nserait l'expert des horaires)
"c:Cours" -> ":Map\n<GroupeCours>" : gc =\nchercher(groupe)
"c:Cours" -> "gc:\nGroupeCours" : horaire =\ngetHoraire
@enduml

PlantUML version 1.2021.5beta3(Unknown compile time)
(GPL source distribution)
Java Runtime: Java(TM) SE Runtime Environment
JVM: Java HotSpot(TM) 64-Bit Server VM
Default Encoding: UTF-8
Language: en
Country: US
--></g></svg>