<?xml version="1.0" encoding="UTF-8" standalone="no"?><svg xmlns="http://www.w3.org/2000/svg" xmlns:xlink="http://www.w3.org/1999/xlink" contentScriptType="application/ecmascript" contentStyleType="text/css" height="595px" preserveAspectRatio="none" style="width:668px;height:595px;background:#FFFFFF;" version="1.1" viewBox="0 0 668 595" width="668px" zoomAndPan="magnify"><defs><filter height="300%" id="f189spph2cynio" width="300%" x="-1" y="-1"><feGaussianBlur result="blurOut" stdDeviation="2.0"/><feColorMatrix in="blurOut" result="blurOut2" type="matrix" values="0 0 0 0 0 0 0 0 0 0 0 0 0 0 0 0 0 0 .4 0"/><feOffset dx="4.0" dy="4.0" in="blurOut2" result="blurOut3"/><feBlend in="SourceGraphic" in2="blurOut3" mode="normal"/></filter></defs><g><text fill="#000000" font-family="sans-serif" font-size="18" lengthAdjust="spacing" textLength="44" x="305.5" y="16.708">MDD</text><!--MD5=[99b31deea5d7419a569cd5090bf83263]
cluster System--><polygon fill="#FFFFFF" filter="url(#f189spph2cynio)" points="16,26.9531,82,26.9531,89,49.25,651,49.25,651,588.9531,16,588.9531,16,26.9531" style="stroke:#000000;stroke-width:1.5;"/><line style="stroke:#000000;stroke-width:1.5;" x1="16" x2="89" y1="49.25" y2="49.25"/><text fill="#000000" font-family="sans-serif" font-size="14" font-weight="bold" lengthAdjust="spacing" textLength="60" x="20" y="41.9482">System</text><!--MD5=[2ec5550826fb95cdcbf1e090029cf7a7]
class Universite--><rect codeLine="6" fill="#FEFECE" filter="url(#f189spph2cynio)" height="53.9375" id="Universite" style="stroke:#A80036;stroke-width:1.5;" width="118" x="104" y="61.9531"/><ellipse cx="119" cy="80.9219" fill="#ADD1B2" rx="11" ry="11" style="stroke:#A80036;stroke-width:1.0;"/><path d="M121.3438,76.5938 C120.4063,76.1563 119.8125,76.0156 118.9375,76.0156 C116.3125,76.0156 114.3125,78.0938 114.3125,80.8125 L114.3125,81.9375 C114.3125,84.5156 116.4219,86.4063 119.3125,86.4063 C120.5313,86.4063 121.6875,86.1094 122.4375,85.5625 C123.0156,85.1563 123.3438,84.7031 123.3438,84.3125 C123.3438,83.8594 122.9531,83.4688 122.4844,83.4688 C122.2656,83.4688 122.0625,83.5469 121.875,83.7344 C121.4219,84.2188 121.4219,84.2188 121.2344,84.3125 C120.8125,84.5781 120.125,84.7031 119.3594,84.7031 C117.3125,84.7031 116.0156,83.6094 116.0156,81.9063 L116.0156,80.8125 C116.0156,79.0313 117.2656,77.7188 119,77.7188 C119.5781,77.7188 120.1875,77.875 120.6563,78.125 C121.1406,78.4063 121.3125,78.625 121.4063,79.0313 C121.4688,79.4375 121.5,79.5625 121.6406,79.6875 C121.7813,79.8281 122.0156,79.9375 122.2344,79.9375 C122.5,79.9375 122.7656,79.7969 122.9375,79.5781 C123.0469,79.4219 123.0781,79.2344 123.0781,78.8125 L123.0781,77.3906 C123.0781,76.9531 123.0625,76.8281 122.9688,76.6719 C122.8125,76.4063 122.5313,76.2656 122.2344,76.2656 C121.9375,76.2656 121.7344,76.3594 121.5156,76.6719 L121.3438,76.5938 Z " fill="#000000"/><text fill="#000000" font-family="sans-serif" font-size="12" font-style="italic" lengthAdjust="spacing" textLength="90" x="131" y="78.0918">«Organisation»</text><text fill="#000000" font-family="sans-serif" font-size="12" lengthAdjust="spacing" textLength="61" x="145.5" y="92.0605">Universite</text><line style="stroke:#A80036;stroke-width:1.5;" x1="105" x2="221" y1="99.8906" y2="99.8906"/><line style="stroke:#A80036;stroke-width:1.5;" x1="105" x2="221" y1="107.8906" y2="107.8906"/><!--MD5=[f84e857de5a9ca5678aed72e3e98d0a5]
class Etudiant--><rect codeLine="7" fill="#FEFECE" filter="url(#f189spph2cynio)" height="53.9375" id="Etudiant" style="stroke:#A80036;stroke-width:1.5;" width="79" x="32.5" y="199.4531"/><ellipse cx="47.5" cy="218.4219" fill="#ADD1B2" rx="11" ry="11" style="stroke:#A80036;stroke-width:1.0;"/><path d="M49.8438,214.0938 C48.9063,213.6563 48.3125,213.5156 47.4375,213.5156 C44.8125,213.5156 42.8125,215.5938 42.8125,218.3125 L42.8125,219.4375 C42.8125,222.0156 44.9219,223.9063 47.8125,223.9063 C49.0313,223.9063 50.1875,223.6094 50.9375,223.0625 C51.5156,222.6563 51.8438,222.2031 51.8438,221.8125 C51.8438,221.3594 51.4531,220.9688 50.9844,220.9688 C50.7656,220.9688 50.5625,221.0469 50.375,221.2344 C49.9219,221.7188 49.9219,221.7188 49.7344,221.8125 C49.3125,222.0781 48.625,222.2031 47.8594,222.2031 C45.8125,222.2031 44.5156,221.1094 44.5156,219.4063 L44.5156,218.3125 C44.5156,216.5313 45.7656,215.2188 47.5,215.2188 C48.0781,215.2188 48.6875,215.375 49.1563,215.625 C49.6406,215.9063 49.8125,216.125 49.9063,216.5313 C49.9688,216.9375 50,217.0625 50.1406,217.1875 C50.2813,217.3281 50.5156,217.4375 50.7344,217.4375 C51,217.4375 51.2656,217.2969 51.4375,217.0781 C51.5469,216.9219 51.5781,216.7344 51.5781,216.3125 L51.5781,214.8906 C51.5781,214.4531 51.5625,214.3281 51.4688,214.1719 C51.3125,213.9063 51.0313,213.7656 50.7344,213.7656 C50.4375,213.7656 50.2344,213.8594 50.0156,214.1719 L49.8438,214.0938 Z " fill="#000000"/><text fill="#000000" font-family="sans-serif" font-size="12" font-style="italic" lengthAdjust="spacing" textLength="39" x="65.5" y="215.5918">«Role»</text><text fill="#000000" font-family="sans-serif" font-size="12" lengthAdjust="spacing" textLength="47" x="61.5" y="229.5605">Etudiant</text><line style="stroke:#A80036;stroke-width:1.5;" x1="33.5" x2="110.5" y1="237.3906" y2="237.3906"/><line style="stroke:#A80036;stroke-width:1.5;" x1="33.5" x2="110.5" y1="245.3906" y2="245.3906"/><!--MD5=[1a76f23f55e9fa151b4a0e12fec455e8]
class Inscription--><rect codeLine="8" fill="#FEFECE" filter="url(#f189spph2cynio)" height="53.9375" id="Inscription" style="stroke:#A80036;stroke-width:1.5;" width="112" x="202" y="199.4531"/><ellipse cx="217" cy="218.4219" fill="#ADD1B2" rx="11" ry="11" style="stroke:#A80036;stroke-width:1.0;"/><path d="M219.3438,214.0938 C218.4063,213.6563 217.8125,213.5156 216.9375,213.5156 C214.3125,213.5156 212.3125,215.5938 212.3125,218.3125 L212.3125,219.4375 C212.3125,222.0156 214.4219,223.9063 217.3125,223.9063 C218.5313,223.9063 219.6875,223.6094 220.4375,223.0625 C221.0156,222.6563 221.3438,222.2031 221.3438,221.8125 C221.3438,221.3594 220.9531,220.9688 220.4844,220.9688 C220.2656,220.9688 220.0625,221.0469 219.875,221.2344 C219.4219,221.7188 219.4219,221.7188 219.2344,221.8125 C218.8125,222.0781 218.125,222.2031 217.3594,222.2031 C215.3125,222.2031 214.0156,221.1094 214.0156,219.4063 L214.0156,218.3125 C214.0156,216.5313 215.2656,215.2188 217,215.2188 C217.5781,215.2188 218.1875,215.375 218.6563,215.625 C219.1406,215.9063 219.3125,216.125 219.4063,216.5313 C219.4688,216.9375 219.5,217.0625 219.6406,217.1875 C219.7813,217.3281 220.0156,217.4375 220.2344,217.4375 C220.5,217.4375 220.7656,217.2969 220.9375,217.0781 C221.0469,216.9219 221.0781,216.7344 221.0781,216.3125 L221.0781,214.8906 C221.0781,214.4531 221.0625,214.3281 220.9688,214.1719 C220.8125,213.9063 220.5313,213.7656 220.2344,213.7656 C219.9375,213.7656 219.7344,213.8594 219.5156,214.1719 L219.3438,214.0938 Z " fill="#000000"/><text fill="#000000" font-family="sans-serif" font-size="12" font-style="italic" lengthAdjust="spacing" textLength="84" x="229" y="215.5918">«Transaction»</text><text fill="#000000" font-family="sans-serif" font-size="12" lengthAdjust="spacing" textLength="62" x="240" y="229.5605">Inscription</text><line style="stroke:#A80036;stroke-width:1.5;" x1="203" x2="313" y1="237.3906" y2="237.3906"/><line style="stroke:#A80036;stroke-width:1.5;" x1="203" x2="313" y1="245.3906" y2="245.3906"/><!--MD5=[f6edf60997924e693a9a5571eb281b8c]
class Cours--><rect codeLine="9" fill="#FEFECE" filter="url(#f189spph2cynio)" height="66.7422" id="Cours" style="stroke:#A80036;stroke-width:1.5;" width="160" x="349" y="192.9531"/><ellipse cx="364" cy="211.9219" fill="#ADD1B2" rx="11" ry="11" style="stroke:#A80036;stroke-width:1.0;"/><path d="M366.3438,207.5938 C365.4063,207.1563 364.8125,207.0156 363.9375,207.0156 C361.3125,207.0156 359.3125,209.0938 359.3125,211.8125 L359.3125,212.9375 C359.3125,215.5156 361.4219,217.4063 364.3125,217.4063 C365.5313,217.4063 366.6875,217.1094 367.4375,216.5625 C368.0156,216.1563 368.3438,215.7031 368.3438,215.3125 C368.3438,214.8594 367.9531,214.4688 367.4844,214.4688 C367.2656,214.4688 367.0625,214.5469 366.875,214.7344 C366.4219,215.2188 366.4219,215.2188 366.2344,215.3125 C365.8125,215.5781 365.125,215.7031 364.3594,215.7031 C362.3125,215.7031 361.0156,214.6094 361.0156,212.9063 L361.0156,211.8125 C361.0156,210.0313 362.2656,208.7188 364,208.7188 C364.5781,208.7188 365.1875,208.875 365.6563,209.125 C366.1406,209.4063 366.3125,209.625 366.4063,210.0313 C366.4688,210.4375 366.5,210.5625 366.6406,210.6875 C366.7813,210.8281 367.0156,210.9375 367.2344,210.9375 C367.5,210.9375 367.7656,210.7969 367.9375,210.5781 C368.0469,210.4219 368.0781,210.2344 368.0781,209.8125 L368.0781,208.3906 C368.0781,207.9531 368.0625,207.8281 367.9688,207.6719 C367.8125,207.4063 367.5313,207.2656 367.2344,207.2656 C366.9375,207.2656 366.7344,207.3594 366.5156,207.6719 L366.3438,207.5938 Z " fill="#000000"/><text fill="#000000" font-family="sans-serif" font-size="12" font-style="italic" lengthAdjust="spacing" textLength="132" x="376" y="209.0918">«Description d'entité»</text><text fill="#000000" font-family="sans-serif" font-size="12" lengthAdjust="spacing" textLength="35" x="424.5" y="223.0605">Cours</text><line style="stroke:#A80036;stroke-width:1.5;" x1="350" x2="508" y1="230.8906" y2="230.8906"/><text fill="#000000" font-family="sans-serif" font-size="11" lengthAdjust="spacing" textLength="65" x="355" y="245.1011">sigle: string</text><line style="stroke:#A80036;stroke-width:1.5;" x1="350" x2="508" y1="251.6953" y2="251.6953"/><!--MD5=[289bc8117ed867c013feee2d9b3b300d]
class Trimestre--><rect codeLine="12" fill="#FEFECE" filter="url(#f189spph2cynio)" height="105.1563" id="Trimestre" style="stroke:#A80036;stroke-width:1.5;" width="134" x="49" y="467.9531"/><ellipse cx="72.55" cy="486.9219" fill="#ADD1B2" rx="11" ry="11" style="stroke:#A80036;stroke-width:1.0;"/><path d="M74.8938,482.5938 C73.9563,482.1563 73.3625,482.0156 72.4875,482.0156 C69.8625,482.0156 67.8625,484.0938 67.8625,486.8125 L67.8625,487.9375 C67.8625,490.5156 69.9719,492.4063 72.8625,492.4063 C74.0813,492.4063 75.2375,492.1094 75.9875,491.5625 C76.5656,491.1563 76.8938,490.7031 76.8938,490.3125 C76.8938,489.8594 76.5031,489.4688 76.0344,489.4688 C75.8156,489.4688 75.6125,489.5469 75.425,489.7344 C74.9719,490.2188 74.9719,490.2188 74.7844,490.3125 C74.3625,490.5781 73.675,490.7031 72.9094,490.7031 C70.8625,490.7031 69.5656,489.6094 69.5656,487.9063 L69.5656,486.8125 C69.5656,485.0313 70.8156,483.7188 72.55,483.7188 C73.1281,483.7188 73.7375,483.875 74.2063,484.125 C74.6906,484.4063 74.8625,484.625 74.9563,485.0313 C75.0188,485.4375 75.05,485.5625 75.1906,485.6875 C75.3313,485.8281 75.5656,485.9375 75.7844,485.9375 C76.05,485.9375 76.3156,485.7969 76.4875,485.5781 C76.5969,485.4219 76.6281,485.2344 76.6281,484.8125 L76.6281,483.3906 C76.6281,482.9531 76.6125,482.8281 76.5188,482.6719 C76.3625,482.4063 76.0813,482.2656 75.7844,482.2656 C75.4875,482.2656 75.2844,482.3594 75.0656,482.6719 L74.8938,482.5938 Z " fill="#000000"/><text fill="#000000" font-family="sans-serif" font-size="12" font-style="italic" lengthAdjust="spacing" textLength="87" x="86.45" y="484.0918">«planification»</text><text fill="#000000" font-family="sans-serif" font-size="12" lengthAdjust="spacing" textLength="58" x="100.95" y="498.0605">Trimestre</text><line style="stroke:#A80036;stroke-width:1.5;" x1="50" x2="182" y1="505.8906" y2="505.8906"/><text fill="#000000" font-family="sans-serif" font-size="11" lengthAdjust="spacing" textLength="80" x="55" y="520.1011">String session</text><text fill="#000000" font-family="sans-serif" font-size="11" lengthAdjust="spacing" textLength="82" x="55" y="532.9058">Integer annee</text><text fill="#000000" font-family="sans-serif" font-size="11" lengthAdjust="spacing" textLength="122" x="55" y="545.7104">Date debutInscription</text><text fill="#000000" font-family="sans-serif" font-size="11" lengthAdjust="spacing" textLength="103" x="55" y="558.5151">Date finInscription</text><line style="stroke:#A80036;stroke-width:1.5;" x1="50" x2="182" y1="565.1094" y2="565.1094"/><!--MD5=[b32d763bfdb05d07119f0e8fadbdfdc1]
class GroupeCours--><rect codeLine="18" fill="#FEFECE" filter="url(#f189spph2cynio)" height="53.9375" id="GroupeCours" style="stroke:#A80036;stroke-width:1.5;" width="112" x="238" y="336.9531"/><ellipse cx="253" cy="355.9219" fill="#ADD1B2" rx="11" ry="11" style="stroke:#A80036;stroke-width:1.0;"/><path d="M255.3438,351.5938 C254.4063,351.1563 253.8125,351.0156 252.9375,351.0156 C250.3125,351.0156 248.3125,353.0938 248.3125,355.8125 L248.3125,356.9375 C248.3125,359.5156 250.4219,361.4063 253.3125,361.4063 C254.5313,361.4063 255.6875,361.1094 256.4375,360.5625 C257.0156,360.1563 257.3438,359.7031 257.3438,359.3125 C257.3438,358.8594 256.9531,358.4688 256.4844,358.4688 C256.2656,358.4688 256.0625,358.5469 255.875,358.7344 C255.4219,359.2188 255.4219,359.2188 255.2344,359.3125 C254.8125,359.5781 254.125,359.7031 253.3594,359.7031 C251.3125,359.7031 250.0156,358.6094 250.0156,356.9063 L250.0156,355.8125 C250.0156,354.0313 251.2656,352.7188 253,352.7188 C253.5781,352.7188 254.1875,352.875 254.6563,353.125 C255.1406,353.4063 255.3125,353.625 255.4063,354.0313 C255.4688,354.4375 255.5,354.5625 255.6406,354.6875 C255.7813,354.8281 256.0156,354.9375 256.2344,354.9375 C256.5,354.9375 256.7656,354.7969 256.9375,354.5781 C257.0469,354.4219 257.0781,354.2344 257.0781,353.8125 L257.0781,352.3906 C257.0781,351.9531 257.0625,351.8281 256.9688,351.6719 C256.8125,351.4063 256.5313,351.2656 256.2344,351.2656 C255.9375,351.2656 255.7344,351.3594 255.5156,351.6719 L255.3438,351.5938 Z " fill="#000000"/><text fill="#000000" font-family="sans-serif" font-size="12" font-style="italic" lengthAdjust="spacing" textLength="58" x="278" y="353.0918">«Service»</text><text fill="#000000" font-family="sans-serif" font-size="12" lengthAdjust="spacing" textLength="80" x="267" y="367.0605">GroupeCours</text><line style="stroke:#A80036;stroke-width:1.5;" x1="239" x2="349" y1="374.8906" y2="374.8906"/><line style="stroke:#A80036;stroke-width:1.5;" x1="239" x2="349" y1="382.8906" y2="382.8906"/><!--MD5=[5141942134b7a4265cb6fabe8241c706]
class Horaire--><rect codeLine="19" fill="#FEFECE" filter="url(#f189spph2cynio)" height="53.9375" id="Horaire" style="stroke:#A80036;stroke-width:1.5;" width="210" x="218" y="493.4531"/><ellipse cx="233" cy="512.4219" fill="#ADD1B2" rx="11" ry="11" style="stroke:#A80036;stroke-width:1.0;"/><path d="M235.3438,508.0938 C234.4063,507.6563 233.8125,507.5156 232.9375,507.5156 C230.3125,507.5156 228.3125,509.5938 228.3125,512.3125 L228.3125,513.4375 C228.3125,516.0156 230.4219,517.9063 233.3125,517.9063 C234.5313,517.9063 235.6875,517.6094 236.4375,517.0625 C237.0156,516.6563 237.3438,516.2031 237.3438,515.8125 C237.3438,515.3594 236.9531,514.9688 236.4844,514.9688 C236.2656,514.9688 236.0625,515.0469 235.875,515.2344 C235.4219,515.7188 235.4219,515.7188 235.2344,515.8125 C234.8125,516.0781 234.125,516.2031 233.3594,516.2031 C231.3125,516.2031 230.0156,515.1094 230.0156,513.4063 L230.0156,512.3125 C230.0156,510.5313 231.2656,509.2188 233,509.2188 C233.5781,509.2188 234.1875,509.375 234.6563,509.625 C235.1406,509.9063 235.3125,510.125 235.4063,510.5313 C235.4688,510.9375 235.5,511.0625 235.6406,511.1875 C235.7813,511.3281 236.0156,511.4375 236.2344,511.4375 C236.5,511.4375 236.7656,511.2969 236.9375,511.0781 C237.0469,510.9219 237.0781,510.7344 237.0781,510.3125 L237.0781,508.8906 C237.0781,508.4531 237.0625,508.3281 236.9688,508.1719 C236.8125,507.9063 236.5313,507.7656 236.2344,507.7656 C235.9375,507.7656 235.7344,507.8594 235.5156,508.1719 L235.3438,508.0938 Z " fill="#000000"/><text fill="#000000" font-family="sans-serif" font-size="12" font-style="italic" lengthAdjust="spacing" textLength="182" x="245" y="509.5918">«Planification&gt;&lt;/Planification»</text><text fill="#000000" font-family="sans-serif" font-size="12" lengthAdjust="spacing" textLength="45" x="313.5" y="523.5605">Horaire</text><line style="stroke:#A80036;stroke-width:1.5;" x1="219" x2="427" y1="531.3906" y2="531.3906"/><line style="stroke:#A80036;stroke-width:1.5;" x1="219" x2="427" y1="539.3906" y2="539.3906"/><!--MD5=[3e3f27854faf680fc882f0bada5b8808]
link Universite to Cours--><path codeLine="20" d="M214.287,116.0791 C257.314,137.9961 318.968,169.4031 365.181,192.9441 " fill="none" id="Universite-Cours" style="stroke:#A80036;stroke-width:1.0;"/><text fill="#000000" font-family="sans-serif" font-size="13" lengthAdjust="spacing" textLength="134" x="304" y="159.02">Offre des formations</text><text fill="#000000" font-family="sans-serif" font-size="13" lengthAdjust="spacing" textLength="8" x="216.631" y="135.7418">1</text><text fill="#000000" font-family="sans-serif" font-size="13" lengthAdjust="spacing" textLength="7" x="344.9276" y="181.9758">*</text><!--MD5=[4246a48a46f50b4ddd7b7f7e0281e32e]
link Universite to Etudiant--><path codeLine="21" d="M145.454,116.0791 C129.34,140.0731 105.589,175.4391 89.4919,199.4071 " fill="none" id="Universite-Etudiant" style="stroke:#A80036;stroke-width:1.0;"/><text fill="#000000" font-family="sans-serif" font-size="13" lengthAdjust="spacing" textLength="122" x="124" y="159.02">Offre des service a</text><text fill="#000000" font-family="sans-serif" font-size="13" lengthAdjust="spacing" textLength="8" x="132.7408" y="135.7418">1</text><text fill="#000000" font-family="sans-serif" font-size="13" lengthAdjust="spacing" textLength="7" x="85.7275" y="188.5078">*</text><!--MD5=[07e1437a52a452ca5c6d2587e49927e7]
link Etudiant to Inscription--><path codeLine="22" d="M111.902,226.4531 C138.161,226.4531 172.913,226.4531 201.936,226.4531 " fill="none" id="Etudiant-Inscription" style="stroke:#A80036;stroke-width:1.0;"/><text fill="#000000" font-family="sans-serif" font-size="13" lengthAdjust="spacing" textLength="54" x="129.75" y="219.52">effectue</text><text fill="#000000" font-family="sans-serif" font-size="13" lengthAdjust="spacing" textLength="8" x="119.4477" y="222.2477">1</text><text fill="#000000" font-family="sans-serif" font-size="13" lengthAdjust="spacing" textLength="7" x="186.9321" y="222.5253">*</text><!--MD5=[f7cb8ef3e92b520c2c03dff15429cb17]
link Inscription to GroupeCours--><path codeLine="23" d="M264.941,253.5791 C271.316,277.5731 280.712,312.9391 287.08,336.9071 " fill="none" id="Inscription-GroupeCours" style="stroke:#A80036;stroke-width:1.0;"/><text fill="#000000" font-family="sans-serif" font-size="13" lengthAdjust="spacing" textLength="53" x="279" y="303.02">est pour</text><text fill="#000000" font-family="sans-serif" font-size="13" lengthAdjust="spacing" textLength="8" x="257.5843" y="273.2418">1</text><text fill="#000000" font-family="sans-serif" font-size="13" lengthAdjust="spacing" textLength="7" x="277.6704" y="326.0078">*</text><!--MD5=[dd19a10ffb7e2e1829c46178384b5825]
link Cours to GroupeCours--><path codeLine="24" d="M396.32,260.2541 C372.91,283.7511 341.805,314.9711 320.059,336.7971 " fill="none" id="Cours-GroupeCours" style="stroke:#A80036;stroke-width:1.0;"/><polygon fill="#000000" points="373.529,294.9775,365.063,299.3108,369.2269,303.4594,373.529,294.9775" style="stroke:#000000;stroke-width:1.0;"/><text fill="#000000" font-family="sans-serif" font-size="13" lengthAdjust="spacing" textLength="93" x="379" y="303.02">sont décrit par</text><text fill="#000000" font-family="sans-serif" font-size="13" lengthAdjust="spacing" textLength="8" x="381.7864" y="279.7126">1</text><text fill="#000000" font-family="sans-serif" font-size="13" lengthAdjust="spacing" textLength="7" x="318.2758" y="325.8724">*</text><!--MD5=[b36d3ce36b095542d5ccbf12b8ca1a0c]
link GroupeCours to Horaire--><path codeLine="25" d="M298.919,391.1621 C304.268,419.6591 312.766,464.9281 318.105,493.3741 " fill="none" id="GroupeCours-Horaire" style="stroke:#A80036;stroke-width:1.0;"/><text fill="#000000" font-family="sans-serif" font-size="13" lengthAdjust="spacing" textLength="97" x="308" y="434.02">se donne selon</text><text fill="#000000" font-family="sans-serif" font-size="13" lengthAdjust="spacing" textLength="8" x="291.12" y="410.843">1</text><text fill="#000000" font-family="sans-serif" font-size="13" lengthAdjust="spacing" textLength="8" x="308.048" y="482.4672">1</text><!--MD5=[a5c369f96b3146c08a979a2db0839dc7]
link GroupeCours to Trimestre--><path codeLine="26" d="M247.053,391.1511 C232.969,399.8771 217.858,410.1481 205,420.9531 C188.414,434.8901 172.008,451.8731 157.887,467.7851 " fill="none" id="GroupeCours-Trimestre" style="stroke:#A80036;stroke-width:1.0;"/><polygon fill="#000000" points="206.208,432.7785,214.9833,429.1118,211.1522,424.6541,206.208,432.7785" style="stroke:#000000;stroke-width:1.0;"/><text fill="#000000" font-family="sans-serif" font-size="13" lengthAdjust="spacing" textLength="77" x="219" y="434.02">s'appliquent</text><text fill="#000000" font-family="sans-serif" font-size="13" lengthAdjust="spacing" textLength="7" x="229.0177" y="410.8296">*</text><text fill="#000000" font-family="sans-serif" font-size="13" lengthAdjust="spacing" textLength="8" x="154.9781" y="456.7654">1</text><!--MD5=[251d242a84491574cb5ac9ce33383186]
link Cours to Cours--><path codeLine="27" d="M509.077,213.1381 C529.062,214.0691 544,218.5081 544,226.4531 C544,234.3981 529.062,238.8371 509.077,239.7681 " fill="none" id="Cours-Cours" style="stroke:#A80036;stroke-width:1.0;"/><polygon fill="#000000" points="549.2327,231.5141,551.7475,222.3421,545.876,222.6156,549.2327,231.5141" style="stroke:#000000;stroke-width:1.0;"/><text fill="#000000" font-family="sans-serif" font-size="13" lengthAdjust="spacing" textLength="83" x="563" y="231.02">est préalable</text><text fill="#000000" font-family="sans-serif" font-size="13" lengthAdjust="spacing" textLength="8" x="517.0906" y="208.2397">1</text><text fill="#000000" font-family="sans-serif" font-size="13" lengthAdjust="spacing" textLength="7" x="517.0429" y="237.4079">*</text><!--MD5=[825b8b9e69268a4abd711b2ee8275711]
@startuml
top to bottom direction
title MDD
skinparam backgroundColor white

package System {
class Universite <<Organisation>>
class Etudiant <<Role>>
class Inscription <<Transaction>>
class Cours <<Description d'entité>>{
  sigle: string
}
class Trimestre <<planification>>{
  String session
  Integer annee
  Date debutInscription
  Date finInscription
}
class GroupeCours <<Service>>
class Horaire <<Planification></Planification>>
Universite "1" - - "*" Cours: Offre des formations
Universite "1" - - "*" Etudiant: Offre des service a
Etudiant "1" - "*" Inscription: effectue
Inscription "1" - - "*" GroupeCours: est pour
Cours "1" - - "*" GroupeCours: sont décrit par <
GroupeCours "1" - - "1" Horaire: se donne selon
GroupeCours "*" - - "1" Trimestre: s'appliquent >
Cours "1" - - "*" Cours: est préalable >
}
@enduml

PlantUML version 1.2021.7(Sun May 23 12:40:07 UTC 2021)
(GPL source distribution)
Java Runtime: Java(TM) SE Runtime Environment
JVM: Java HotSpot(TM) 64-Bit Server VM
Default Encoding: UTF-8
Language: en
Country: US
--></g></svg>