<?xml version="1.0" encoding="UTF-8" standalone="no"?><svg xmlns="http://www.w3.org/2000/svg" xmlns:xlink="http://www.w3.org/1999/xlink" contentScriptType="application/ecmascript" contentStyleType="text/css" height="595px" preserveAspectRatio="none" style="width:668px;height:595px;background:#FFFFFF;" version="1.1" viewBox="0 0 668 595" width="668px" zoomAndPan="magnify"><defs><filter height="300%" id="fgzorepagahg9" width="300%" x="-1" y="-1"><feGaussianBlur result="blurOut" stdDeviation="2.0"/><feColorMatrix in="blurOut" result="blurOut2" type="matrix" values="0 0 0 0 0 0 0 0 0 0 0 0 0 0 0 0 0 0 .4 0"/><feOffset dx="4.0" dy="4.0" in="blurOut2" result="blurOut3"/><feBlend in="SourceGraphic" in2="blurOut3" mode="normal"/></filter></defs><g><text fill="#000000" font-family="sans-serif" font-size="18" lengthAdjust="spacing" textLength="44" x="305.5" y="16.708">MDD</text><!--MD5=[99b31deea5d7419a569cd5090bf83263]
cluster System--><polygon fill="#FFFFFF" filter="url(#fgzorepagahg9)" points="16,26.9531,82,26.9531,89,49.25,651,49.25,651,588.9531,16,588.9531,16,26.9531" style="stroke:#000000;stroke-width:1.5;"/><line style="stroke:#000000;stroke-width:1.5;" x1="16" x2="89" y1="49.25" y2="49.25"/><text fill="#000000" font-family="sans-serif" font-size="14" font-weight="bold" lengthAdjust="spacing" textLength="60" x="20" y="41.9482">System</text><!--MD5=[2ec5550826fb95cdcbf1e090029cf7a7]
class Universite--><rect codeLine="6" fill="#FEFECE" filter="url(#fgzorepagahg9)" height="53.9375" id="Universite" style="stroke:#A80036;stroke-width:1.5;" width="118" x="53" y="61.9531"/><ellipse cx="68" cy="80.9219" fill="#ADD1B2" rx="11" ry="11" style="stroke:#A80036;stroke-width:1.0;"/><path d="M70.3438,76.5938 C69.4063,76.1563 68.8125,76.0156 67.9375,76.0156 C65.3125,76.0156 63.3125,78.0938 63.3125,80.8125 L63.3125,81.9375 C63.3125,84.5156 65.4219,86.4063 68.3125,86.4063 C69.5313,86.4063 70.6875,86.1094 71.4375,85.5625 C72.0156,85.1563 72.3438,84.7031 72.3438,84.3125 C72.3438,83.8594 71.9531,83.4688 71.4844,83.4688 C71.2656,83.4688 71.0625,83.5469 70.875,83.7344 C70.4219,84.2188 70.4219,84.2188 70.2344,84.3125 C69.8125,84.5781 69.125,84.7031 68.3594,84.7031 C66.3125,84.7031 65.0156,83.6094 65.0156,81.9063 L65.0156,80.8125 C65.0156,79.0313 66.2656,77.7188 68,77.7188 C68.5781,77.7188 69.1875,77.875 69.6563,78.125 C70.1406,78.4063 70.3125,78.625 70.4063,79.0313 C70.4688,79.4375 70.5,79.5625 70.6406,79.6875 C70.7813,79.8281 71.0156,79.9375 71.2344,79.9375 C71.5,79.9375 71.7656,79.7969 71.9375,79.5781 C72.0469,79.4219 72.0781,79.2344 72.0781,78.8125 L72.0781,77.3906 C72.0781,76.9531 72.0625,76.8281 71.9688,76.6719 C71.8125,76.4063 71.5313,76.2656 71.2344,76.2656 C70.9375,76.2656 70.7344,76.3594 70.5156,76.6719 L70.3438,76.5938 Z " fill="#000000"/><text fill="#000000" font-family="sans-serif" font-size="12" font-style="italic" lengthAdjust="spacing" textLength="90" x="80" y="78.0918">«Organisation»</text><text fill="#000000" font-family="sans-serif" font-size="12" lengthAdjust="spacing" textLength="61" x="94.5" y="92.0605">Universite</text><line style="stroke:#A80036;stroke-width:1.5;" x1="54" x2="170" y1="99.8906" y2="99.8906"/><line style="stroke:#A80036;stroke-width:1.5;" x1="54" x2="170" y1="107.8906" y2="107.8906"/><!--MD5=[f84e857de5a9ca5678aed72e3e98d0a5]
class Etudiant--><rect codeLine="7" fill="#FEFECE" filter="url(#fgzorepagahg9)" height="53.9375" id="Etudiant" style="stroke:#A80036;stroke-width:1.5;" width="79" x="353.5" y="199.4531"/><ellipse cx="368.5" cy="218.4219" fill="#ADD1B2" rx="11" ry="11" style="stroke:#A80036;stroke-width:1.0;"/><path d="M370.8438,214.0938 C369.9063,213.6563 369.3125,213.5156 368.4375,213.5156 C365.8125,213.5156 363.8125,215.5938 363.8125,218.3125 L363.8125,219.4375 C363.8125,222.0156 365.9219,223.9063 368.8125,223.9063 C370.0313,223.9063 371.1875,223.6094 371.9375,223.0625 C372.5156,222.6563 372.8438,222.2031 372.8438,221.8125 C372.8438,221.3594 372.4531,220.9688 371.9844,220.9688 C371.7656,220.9688 371.5625,221.0469 371.375,221.2344 C370.9219,221.7188 370.9219,221.7188 370.7344,221.8125 C370.3125,222.0781 369.625,222.2031 368.8594,222.2031 C366.8125,222.2031 365.5156,221.1094 365.5156,219.4063 L365.5156,218.3125 C365.5156,216.5313 366.7656,215.2188 368.5,215.2188 C369.0781,215.2188 369.6875,215.375 370.1563,215.625 C370.6406,215.9063 370.8125,216.125 370.9063,216.5313 C370.9688,216.9375 371,217.0625 371.1406,217.1875 C371.2813,217.3281 371.5156,217.4375 371.7344,217.4375 C372,217.4375 372.2656,217.2969 372.4375,217.0781 C372.5469,216.9219 372.5781,216.7344 372.5781,216.3125 L372.5781,214.8906 C372.5781,214.4531 372.5625,214.3281 372.4688,214.1719 C372.3125,213.9063 372.0313,213.7656 371.7344,213.7656 C371.4375,213.7656 371.2344,213.8594 371.0156,214.1719 L370.8438,214.0938 Z " fill="#000000"/><text fill="#000000" font-family="sans-serif" font-size="12" font-style="italic" lengthAdjust="spacing" textLength="39" x="386.5" y="215.5918">«Role»</text><text fill="#000000" font-family="sans-serif" font-size="12" lengthAdjust="spacing" textLength="47" x="382.5" y="229.5605">Etudiant</text><line style="stroke:#A80036;stroke-width:1.5;" x1="354.5" x2="431.5" y1="237.3906" y2="237.3906"/><line style="stroke:#A80036;stroke-width:1.5;" x1="354.5" x2="431.5" y1="245.3906" y2="245.3906"/><!--MD5=[1a76f23f55e9fa151b4a0e12fec455e8]
class Inscription--><rect codeLine="8" fill="#FEFECE" filter="url(#fgzorepagahg9)" height="53.9375" id="Inscription" style="stroke:#A80036;stroke-width:1.5;" width="112" x="523" y="199.4531"/><ellipse cx="538" cy="218.4219" fill="#ADD1B2" rx="11" ry="11" style="stroke:#A80036;stroke-width:1.0;"/><path d="M540.3438,214.0938 C539.4063,213.6563 538.8125,213.5156 537.9375,213.5156 C535.3125,213.5156 533.3125,215.5938 533.3125,218.3125 L533.3125,219.4375 C533.3125,222.0156 535.4219,223.9063 538.3125,223.9063 C539.5313,223.9063 540.6875,223.6094 541.4375,223.0625 C542.0156,222.6563 542.3438,222.2031 542.3438,221.8125 C542.3438,221.3594 541.9531,220.9688 541.4844,220.9688 C541.2656,220.9688 541.0625,221.0469 540.875,221.2344 C540.4219,221.7188 540.4219,221.7188 540.2344,221.8125 C539.8125,222.0781 539.125,222.2031 538.3594,222.2031 C536.3125,222.2031 535.0156,221.1094 535.0156,219.4063 L535.0156,218.3125 C535.0156,216.5313 536.2656,215.2188 538,215.2188 C538.5781,215.2188 539.1875,215.375 539.6563,215.625 C540.1406,215.9063 540.3125,216.125 540.4063,216.5313 C540.4688,216.9375 540.5,217.0625 540.6406,217.1875 C540.7813,217.3281 541.0156,217.4375 541.2344,217.4375 C541.5,217.4375 541.7656,217.2969 541.9375,217.0781 C542.0469,216.9219 542.0781,216.7344 542.0781,216.3125 L542.0781,214.8906 C542.0781,214.4531 542.0625,214.3281 541.9688,214.1719 C541.8125,213.9063 541.5313,213.7656 541.2344,213.7656 C540.9375,213.7656 540.7344,213.8594 540.5156,214.1719 L540.3438,214.0938 Z " fill="#000000"/><text fill="#000000" font-family="sans-serif" font-size="12" font-style="italic" lengthAdjust="spacing" textLength="84" x="550" y="215.5918">«Transaction»</text><text fill="#000000" font-family="sans-serif" font-size="12" lengthAdjust="spacing" textLength="62" x="561" y="229.5605">Inscription</text><line style="stroke:#A80036;stroke-width:1.5;" x1="524" x2="634" y1="237.3906" y2="237.3906"/><line style="stroke:#A80036;stroke-width:1.5;" x1="524" x2="634" y1="245.3906" y2="245.3906"/><!--MD5=[f6edf60997924e693a9a5571eb281b8c]
class Cours--><rect codeLine="9" fill="#FEFECE" filter="url(#fgzorepagahg9)" height="66.7422" id="Cours" style="stroke:#A80036;stroke-width:1.5;" width="160" x="32" y="192.9531"/><ellipse cx="47" cy="211.9219" fill="#ADD1B2" rx="11" ry="11" style="stroke:#A80036;stroke-width:1.0;"/><path d="M49.3438,207.5938 C48.4063,207.1563 47.8125,207.0156 46.9375,207.0156 C44.3125,207.0156 42.3125,209.0938 42.3125,211.8125 L42.3125,212.9375 C42.3125,215.5156 44.4219,217.4063 47.3125,217.4063 C48.5313,217.4063 49.6875,217.1094 50.4375,216.5625 C51.0156,216.1563 51.3438,215.7031 51.3438,215.3125 C51.3438,214.8594 50.9531,214.4688 50.4844,214.4688 C50.2656,214.4688 50.0625,214.5469 49.875,214.7344 C49.4219,215.2188 49.4219,215.2188 49.2344,215.3125 C48.8125,215.5781 48.125,215.7031 47.3594,215.7031 C45.3125,215.7031 44.0156,214.6094 44.0156,212.9063 L44.0156,211.8125 C44.0156,210.0313 45.2656,208.7188 47,208.7188 C47.5781,208.7188 48.1875,208.875 48.6563,209.125 C49.1406,209.4063 49.3125,209.625 49.4063,210.0313 C49.4688,210.4375 49.5,210.5625 49.6406,210.6875 C49.7813,210.8281 50.0156,210.9375 50.2344,210.9375 C50.5,210.9375 50.7656,210.7969 50.9375,210.5781 C51.0469,210.4219 51.0781,210.2344 51.0781,209.8125 L51.0781,208.3906 C51.0781,207.9531 51.0625,207.8281 50.9688,207.6719 C50.8125,207.4063 50.5313,207.2656 50.2344,207.2656 C49.9375,207.2656 49.7344,207.3594 49.5156,207.6719 L49.3438,207.5938 Z " fill="#000000"/><text fill="#000000" font-family="sans-serif" font-size="12" font-style="italic" lengthAdjust="spacing" textLength="132" x="59" y="209.0918">«Description d'entité»</text><text fill="#000000" font-family="sans-serif" font-size="12" lengthAdjust="spacing" textLength="35" x="107.5" y="223.0605">Cours</text><line style="stroke:#A80036;stroke-width:1.5;" x1="33" x2="191" y1="230.8906" y2="230.8906"/><text fill="#000000" font-family="sans-serif" font-size="11" lengthAdjust="spacing" textLength="65" x="38" y="245.1011">sigle: string</text><line style="stroke:#A80036;stroke-width:1.5;" x1="33" x2="191" y1="251.6953" y2="251.6953"/><!--MD5=[289bc8117ed867c013feee2d9b3b300d]
class Trimestre--><rect codeLine="12" fill="#FEFECE" filter="url(#fgzorepagahg9)" height="105.1563" id="Trimestre" style="stroke:#A80036;stroke-width:1.5;" width="134" x="73" y="467.9531"/><ellipse cx="96.55" cy="486.9219" fill="#ADD1B2" rx="11" ry="11" style="stroke:#A80036;stroke-width:1.0;"/><path d="M98.8938,482.5938 C97.9563,482.1563 97.3625,482.0156 96.4875,482.0156 C93.8625,482.0156 91.8625,484.0938 91.8625,486.8125 L91.8625,487.9375 C91.8625,490.5156 93.9719,492.4063 96.8625,492.4063 C98.0813,492.4063 99.2375,492.1094 99.9875,491.5625 C100.5656,491.1563 100.8938,490.7031 100.8938,490.3125 C100.8938,489.8594 100.5031,489.4688 100.0344,489.4688 C99.8156,489.4688 99.6125,489.5469 99.425,489.7344 C98.9719,490.2188 98.9719,490.2188 98.7844,490.3125 C98.3625,490.5781 97.675,490.7031 96.9094,490.7031 C94.8625,490.7031 93.5656,489.6094 93.5656,487.9063 L93.5656,486.8125 C93.5656,485.0313 94.8156,483.7188 96.55,483.7188 C97.1281,483.7188 97.7375,483.875 98.2063,484.125 C98.6906,484.4063 98.8625,484.625 98.9563,485.0313 C99.0188,485.4375 99.05,485.5625 99.1906,485.6875 C99.3313,485.8281 99.5656,485.9375 99.7844,485.9375 C100.05,485.9375 100.3156,485.7969 100.4875,485.5781 C100.5969,485.4219 100.6281,485.2344 100.6281,484.8125 L100.6281,483.3906 C100.6281,482.9531 100.6125,482.8281 100.5188,482.6719 C100.3625,482.4063 100.0813,482.2656 99.7844,482.2656 C99.4875,482.2656 99.2844,482.3594 99.0656,482.6719 L98.8938,482.5938 Z " fill="#000000"/><text fill="#000000" font-family="sans-serif" font-size="12" font-style="italic" lengthAdjust="spacing" textLength="87" x="110.45" y="484.0918">«planification»</text><text fill="#000000" font-family="sans-serif" font-size="12" lengthAdjust="spacing" textLength="58" x="124.95" y="498.0605">Trimestre</text><line style="stroke:#A80036;stroke-width:1.5;" x1="74" x2="206" y1="505.8906" y2="505.8906"/><text fill="#000000" font-family="sans-serif" font-size="11" lengthAdjust="spacing" textLength="80" x="79" y="520.1011">String session</text><text fill="#000000" font-family="sans-serif" font-size="11" lengthAdjust="spacing" textLength="82" x="79" y="532.9058">Integer annee</text><text fill="#000000" font-family="sans-serif" font-size="11" lengthAdjust="spacing" textLength="122" x="79" y="545.7104">Date debutInscription</text><text fill="#000000" font-family="sans-serif" font-size="11" lengthAdjust="spacing" textLength="103" x="79" y="558.5151">Date finInscription</text><line style="stroke:#A80036;stroke-width:1.5;" x1="74" x2="206" y1="565.1094" y2="565.1094"/><!--MD5=[b32d763bfdb05d07119f0e8fadbdfdc1]
class GroupeCours--><rect codeLine="18" fill="#FEFECE" filter="url(#fgzorepagahg9)" height="53.9375" id="GroupeCours" style="stroke:#A80036;stroke-width:1.5;" width="112" x="145" y="336.9531"/><ellipse cx="160" cy="355.9219" fill="#ADD1B2" rx="11" ry="11" style="stroke:#A80036;stroke-width:1.0;"/><path d="M162.3438,351.5938 C161.4063,351.1563 160.8125,351.0156 159.9375,351.0156 C157.3125,351.0156 155.3125,353.0938 155.3125,355.8125 L155.3125,356.9375 C155.3125,359.5156 157.4219,361.4063 160.3125,361.4063 C161.5313,361.4063 162.6875,361.1094 163.4375,360.5625 C164.0156,360.1563 164.3438,359.7031 164.3438,359.3125 C164.3438,358.8594 163.9531,358.4688 163.4844,358.4688 C163.2656,358.4688 163.0625,358.5469 162.875,358.7344 C162.4219,359.2188 162.4219,359.2188 162.2344,359.3125 C161.8125,359.5781 161.125,359.7031 160.3594,359.7031 C158.3125,359.7031 157.0156,358.6094 157.0156,356.9063 L157.0156,355.8125 C157.0156,354.0313 158.2656,352.7188 160,352.7188 C160.5781,352.7188 161.1875,352.875 161.6563,353.125 C162.1406,353.4063 162.3125,353.625 162.4063,354.0313 C162.4688,354.4375 162.5,354.5625 162.6406,354.6875 C162.7813,354.8281 163.0156,354.9375 163.2344,354.9375 C163.5,354.9375 163.7656,354.7969 163.9375,354.5781 C164.0469,354.4219 164.0781,354.2344 164.0781,353.8125 L164.0781,352.3906 C164.0781,351.9531 164.0625,351.8281 163.9688,351.6719 C163.8125,351.4063 163.5313,351.2656 163.2344,351.2656 C162.9375,351.2656 162.7344,351.3594 162.5156,351.6719 L162.3438,351.5938 Z " fill="#000000"/><text fill="#000000" font-family="sans-serif" font-size="12" font-style="italic" lengthAdjust="spacing" textLength="58" x="185" y="353.0918">«Service»</text><text fill="#000000" font-family="sans-serif" font-size="12" lengthAdjust="spacing" textLength="80" x="174" y="367.0605">GroupeCours</text><line style="stroke:#A80036;stroke-width:1.5;" x1="146" x2="256" y1="374.8906" y2="374.8906"/><line style="stroke:#A80036;stroke-width:1.5;" x1="146" x2="256" y1="382.8906" y2="382.8906"/><!--MD5=[5141942134b7a4265cb6fabe8241c706]
class Horaire--><rect codeLine="19" fill="#FEFECE" filter="url(#fgzorepagahg9)" height="53.9375" id="Horaire" style="stroke:#A80036;stroke-width:1.5;" width="210" x="242" y="493.4531"/><ellipse cx="257" cy="512.4219" fill="#ADD1B2" rx="11" ry="11" style="stroke:#A80036;stroke-width:1.0;"/><path d="M259.3438,508.0938 C258.4063,507.6563 257.8125,507.5156 256.9375,507.5156 C254.3125,507.5156 252.3125,509.5938 252.3125,512.3125 L252.3125,513.4375 C252.3125,516.0156 254.4219,517.9063 257.3125,517.9063 C258.5313,517.9063 259.6875,517.6094 260.4375,517.0625 C261.0156,516.6563 261.3438,516.2031 261.3438,515.8125 C261.3438,515.3594 260.9531,514.9688 260.4844,514.9688 C260.2656,514.9688 260.0625,515.0469 259.875,515.2344 C259.4219,515.7188 259.4219,515.7188 259.2344,515.8125 C258.8125,516.0781 258.125,516.2031 257.3594,516.2031 C255.3125,516.2031 254.0156,515.1094 254.0156,513.4063 L254.0156,512.3125 C254.0156,510.5313 255.2656,509.2188 257,509.2188 C257.5781,509.2188 258.1875,509.375 258.6563,509.625 C259.1406,509.9063 259.3125,510.125 259.4063,510.5313 C259.4688,510.9375 259.5,511.0625 259.6406,511.1875 C259.7813,511.3281 260.0156,511.4375 260.2344,511.4375 C260.5,511.4375 260.7656,511.2969 260.9375,511.0781 C261.0469,510.9219 261.0781,510.7344 261.0781,510.3125 L261.0781,508.8906 C261.0781,508.4531 261.0625,508.3281 260.9688,508.1719 C260.8125,507.9063 260.5313,507.7656 260.2344,507.7656 C259.9375,507.7656 259.7344,507.8594 259.5156,508.1719 L259.3438,508.0938 Z " fill="#000000"/><text fill="#000000" font-family="sans-serif" font-size="12" font-style="italic" lengthAdjust="spacing" textLength="182" x="269" y="509.5918">«Planification&gt;&lt;/Planification»</text><text fill="#000000" font-family="sans-serif" font-size="12" lengthAdjust="spacing" textLength="45" x="337.5" y="523.5605">Horaire</text><line style="stroke:#A80036;stroke-width:1.5;" x1="243" x2="451" y1="531.3906" y2="531.3906"/><line style="stroke:#A80036;stroke-width:1.5;" x1="243" x2="451" y1="539.3906" y2="539.3906"/><!--MD5=[3e3f27854faf680fc882f0bada5b8808]
link Universite to Cours--><path codeLine="20" d="M112,116.0791 C112,137.9191 112,169.1831 112,192.6951 " fill="none" id="Universite-Cours" style="stroke:#A80036;stroke-width:1.0;"/><text fill="#000000" font-family="sans-serif" font-size="13" lengthAdjust="spacing" textLength="134" x="113" y="159.02">Offre des formations</text><!--MD5=[07e1437a52a452ca5c6d2587e49927e7]
link Etudiant to Inscription--><path codeLine="21" d="M432.902,226.4531 C459.161,226.4531 493.913,226.4531 522.936,226.4531 " fill="none" id="Etudiant-Inscription" style="stroke:#A80036;stroke-width:1.0;"/><text fill="#000000" font-family="sans-serif" font-size="13" lengthAdjust="spacing" textLength="54" x="450.75" y="219.52">effectue</text><text fill="#000000" font-family="sans-serif" font-size="13" lengthAdjust="spacing" textLength="8" x="440.4477" y="222.2477">1</text><text fill="#000000" font-family="sans-serif" font-size="13" lengthAdjust="spacing" textLength="7" x="507.9321" y="222.5253">*</text><!--MD5=[f7cb8ef3e92b520c2c03dff15429cb17]
link Inscription to GroupeCours--><path codeLine="22" d="M522.818,247.5921 C451.35,273.2111 328.649,317.1951 257.182,342.8141 " fill="none" id="Inscription-GroupeCours" style="stroke:#A80036;stroke-width:1.0;"/><text fill="#000000" font-family="sans-serif" font-size="13" lengthAdjust="spacing" textLength="53" x="402" y="303.02">est pour</text><text fill="#000000" font-family="sans-serif" font-size="13" lengthAdjust="spacing" textLength="8" x="507.1072" y="246.419">1</text><text fill="#000000" font-family="sans-serif" font-size="13" lengthAdjust="spacing" textLength="7" x="264.8288" y="336.2242">*</text><!--MD5=[dd19a10ffb7e2e1829c46178384b5825]
link Cours to GroupeCours--><path codeLine="23" d="M133.544,260.2541 C148.978,283.7511 169.484,314.9711 183.82,336.7971 " fill="none" id="Cours-GroupeCours" style="stroke:#A80036;stroke-width:1.0;"/><polygon fill="#000000" points="164.255,294.3404,166.7643,303.514,171.6772,300.287,164.255,294.3404" style="stroke:#000000;stroke-width:1.0;"/><text fill="#000000" font-family="sans-serif" font-size="13" lengthAdjust="spacing" textLength="93" x="176" y="303.02">sont décrit par</text><text fill="#000000" font-family="sans-serif" font-size="13" lengthAdjust="spacing" textLength="8" x="128.669" y="279.7126">1</text><text fill="#000000" font-family="sans-serif" font-size="13" lengthAdjust="spacing" textLength="7" x="172.0378" y="325.8724">*</text><!--MD5=[b36d3ce36b095542d5ccbf12b8ca1a0c]
link GroupeCours to Horaire--><path codeLine="24" d="M242.193,391.0981 C254.401,399.8221 267.343,410.1051 278,420.9531 C299.656,442.9961 319.334,472.4731 332.083,493.4221 " fill="none" id="GroupeCours-Horaire" style="stroke:#A80036;stroke-width:1.0;"/><text fill="#000000" font-family="sans-serif" font-size="13" lengthAdjust="spacing" textLength="97" x="292" y="434.02">se donne selon</text><text fill="#000000" font-family="sans-serif" font-size="13" lengthAdjust="spacing" textLength="8" x="242.329" y="410.765">1</text><text fill="#000000" font-family="sans-serif" font-size="13" lengthAdjust="spacing" textLength="8" x="319.7084" y="482.5263">1</text><!--MD5=[a5c369f96b3146c08a979a2db0839dc7]
link GroupeCours to Trimestre--><path codeLine="25" d="M190.652,391.1621 C182.392,412.0821 170.563,442.0431 160.413,467.7501 " fill="none" id="GroupeCours-Trimestre" style="stroke:#A80036;stroke-width:1.0;"/><polygon fill="#000000" points="181.1638,434.1702,187.2191,426.8364,181.7519,424.6778,181.1638,434.1702" style="stroke:#000000;stroke-width:1.0;"/><text fill="#000000" font-family="sans-serif" font-size="13" lengthAdjust="spacing" textLength="77" x="192" y="434.02">s'appliquent</text><text fill="#000000" font-family="sans-serif" font-size="13" lengthAdjust="spacing" textLength="7" x="180.6228" y="410.843">*</text><text fill="#000000" font-family="sans-serif" font-size="13" lengthAdjust="spacing" textLength="8" x="154.6185" y="456.7257">1</text><!--MD5=[251d242a84491574cb5ac9ce33383186]
link Cours to Cours--><path codeLine="26" d="M192.077,213.1381 C212.062,214.0691 227,218.5081 227,226.4531 C227,234.3981 212.062,238.8371 192.077,239.7681 " fill="none" id="Cours-Cours" style="stroke:#A80036;stroke-width:1.0;"/><polygon fill="#000000" points="232.2327,231.5141,234.7475,222.3421,228.876,222.6156,232.2327,231.5141" style="stroke:#000000;stroke-width:1.0;"/><text fill="#000000" font-family="sans-serif" font-size="13" lengthAdjust="spacing" textLength="83" x="246" y="231.02">est préalable</text><text fill="#000000" font-family="sans-serif" font-size="13" lengthAdjust="spacing" textLength="8" x="200.0906" y="208.2397">1</text><text fill="#000000" font-family="sans-serif" font-size="13" lengthAdjust="spacing" textLength="7" x="200.0429" y="237.4079">*</text><!--MD5=[2e736274797612223779c5e6b9fa348e]
@startuml
top to bottom direction
title MDD
skinparam backgroundColor white

package System {
class Universite <<Organisation>>
class Etudiant <<Role>>
class Inscription <<Transaction>>
class Cours <<Description d'entité>>{
  sigle: string
}
class Trimestre <<planification>>{
  String session
  Integer annee
  Date debutInscription
  Date finInscription
}
class GroupeCours <<Service>>
class Horaire <<Planification></Planification>>
Universite - - Cours: Offre des formations
Etudiant "1" - "*" Inscription: effectue
Inscription "1" - - "*" GroupeCours: est pour
Cours "1" - - "*" GroupeCours: sont décrit par <
GroupeCours "1" - - "1" Horaire: se donne selon
GroupeCours "*" - - "1" Trimestre: s'appliquent >
Cours "1" - - "*" Cours: est préalable >
}
@enduml

PlantUML version 1.2021.7(Sun May 23 12:40:07 UTC 2021)
(GPL source distribution)
Java Runtime: Java(TM) SE Runtime Environment
JVM: Java HotSpot(TM) 64-Bit Server VM
Default Encoding: UTF-8
Language: en
Country: US
--></g></svg>