<?xml version="1.0" encoding="UTF-8" standalone="no"?><svg xmlns="http://www.w3.org/2000/svg" xmlns:xlink="http://www.w3.org/1999/xlink" contentScriptType="application/ecmascript" contentStyleType="text/css" height="528px" preserveAspectRatio="none" style="width:1186px;height:528px;" version="1.1" viewBox="0 0 1186 528" width="1186px" zoomAndPan="magnify"><defs><filter height="300%" id="f15e4gpftnh19i" width="300%" x="-1" y="-1"><feGaussianBlur result="blurOut" stdDeviation="2.0"/><feColorMatrix in="blurOut" result="blurOut2" type="matrix" values="0 0 0 0 0 0 0 0 0 0 0 0 0 0 0 0 0 0 .4 0"/><feOffset dx="4.0" dy="4.0" in="blurOut2" result="blurOut3"/><feBlend in="SourceGraphic" in2="blurOut3" mode="normal"/></filter></defs><g><!--MD5=[07a55063f269c7dbdc634b5422273879]
class Caisse--><rect codeLine="1" fill="#FEFECE" filter="url(#f15e4gpftnh19i)" height="163.2422" id="Caisse" style="stroke:#A80036;stroke-width:1.5;" width="386" x="7" y="7"/><ellipse cx="175.75" cy="23" fill="#ADD1B2" rx="11" ry="11" style="stroke:#A80036;stroke-width:1.0;"/><path d="M178.0938,18.6719 C177.1563,18.2344 176.5625,18.0938 175.6875,18.0938 C173.0625,18.0938 171.0625,20.1719 171.0625,22.8906 L171.0625,24.0156 C171.0625,26.5938 173.1719,28.4844 176.0625,28.4844 C177.2813,28.4844 178.4375,28.1875 179.1875,27.6406 C179.7656,27.2344 180.0938,26.7813 180.0938,26.3906 C180.0938,25.9375 179.7031,25.5469 179.2344,25.5469 C179.0156,25.5469 178.8125,25.625 178.625,25.8125 C178.1719,26.2969 178.1719,26.2969 177.9844,26.3906 C177.5625,26.6563 176.875,26.7813 176.1094,26.7813 C174.0625,26.7813 172.7656,25.6875 172.7656,23.9844 L172.7656,22.8906 C172.7656,21.1094 174.0156,19.7969 175.75,19.7969 C176.3281,19.7969 176.9375,19.9531 177.4063,20.2031 C177.8906,20.4844 178.0625,20.7031 178.1563,21.1094 C178.2188,21.5156 178.25,21.6406 178.3906,21.7656 C178.5313,21.9063 178.7656,22.0156 178.9844,22.0156 C179.25,22.0156 179.5156,21.875 179.6875,21.6563 C179.7969,21.5 179.8281,21.3125 179.8281,20.8906 L179.8281,19.4688 C179.8281,19.0313 179.8125,18.9063 179.7188,18.75 C179.5625,18.4844 179.2813,18.3438 178.9844,18.3438 C178.6875,18.3438 178.4844,18.4375 178.2656,18.75 L178.0938,18.6719 Z " fill="#000000"/><text fill="#000000" font-family="sans-serif" font-size="12" lengthAdjust="spacing" textLength="40" x="196.25" y="27.1543">Caisse</text><line style="stroke:#A80036;stroke-width:1.5;" x1="8" x2="392" y1="39" y2="39"/><line style="stroke:#A80036;stroke-width:1.5;" x1="8" x2="392" y1="47" y2="47"/><text fill="#000000" font-family="sans-serif" font-size="11" lengthAdjust="spacing" textLength="124" x="13" y="61.2104">creerNouvelleVente()</text><text fill="#000000" font-family="sans-serif" font-size="11" lengthAdjust="spacing" textLength="195" x="13" y="74.0151">saisirArtiche(codeArticle, quantite)</text><text fill="#000000" font-family="sans-serif" font-size="11" lengthAdjust="spacing" textLength="92" x="13" y="86.8198">terminerVente()</text><text fill="#000000" font-family="sans-serif" font-size="11" lengthAdjust="spacing" textLength="236" x="13" y="99.6245">creerPaiementenEspeces(montant:string)</text><text fill="#000000" font-family="sans-serif" font-size="11" lengthAdjust="spacing" textLength="282" x="13" y="112.4292">creerPaiementACredit(montant:string, idCC:string)</text><text fill="#000000" font-family="sans-serif" font-size="11" lengthAdjust="spacing" textLength="374" x="13" y="125.2339">creerPaiementParCheque(montant:string, idPermisConcuire:string)</text><text fill="#000000" font-family="sans-serif" font-size="11" lengthAdjust="spacing" textLength="58" x="13" y="138.0386">autoriser()</text><text fill="#000000" font-family="sans-serif" font-size="11" lengthAdjust="spacing" textLength="128" x="13" y="150.8433">getState(): IEtatCaisse</text><text fill="#000000" font-family="sans-serif" font-size="11" lengthAdjust="spacing" textLength="120" x="13" y="163.6479">setState(IEtatCaisse)</text><!--MD5=[221f54b6c47250349d86f6eb2bd980ec]
class IEtatCaisse--><rect codeLine="14" fill="#FEFECE" filter="url(#f15e4gpftnh19i)" height="137.6328" id="IEtatCaisse" style="stroke:#A80036;stroke-width:1.5;" width="386" x="428" y="19.5"/><ellipse cx="583.75" cy="35.5" fill="#B4A7E5" rx="11" ry="11" style="stroke:#A80036;stroke-width:1.0;"/><path d="M584.7031,32.2813 L586.4219,32.2813 C586.8125,32.2813 587,32.25 587.125,32.1719 C587.3906,32.0156 587.5313,31.7344 587.5313,31.4375 C587.5313,31.1719 587.4219,30.9063 587.1875,30.7344 C587.0156,30.625 586.875,30.5938 586.4219,30.5938 L581.2813,30.5938 C580.8438,30.5938 580.7188,30.6094 580.5625,30.7031 C580.3125,30.8594 580.1563,31.1563 580.1563,31.4375 C580.1563,31.7188 580.2969,31.9688 580.5156,32.1406 C580.6719,32.25 580.8594,32.2813 581.2813,32.2813 L583,32.2813 L583,38.7969 L581.2813,38.7969 C580.8438,38.7969 580.7188,38.8125 580.5625,38.9219 C580.3125,39.0781 580.1563,39.3594 580.1563,39.6563 C580.1563,39.9063 580.2969,40.1719 580.5156,40.3281 C580.6719,40.4531 580.875,40.5 581.2813,40.5 L586.4219,40.5 C587.1719,40.5 587.5313,40.2188 587.5313,39.6563 C587.5313,39.375 587.4219,39.125 587.1875,38.9531 C587.0156,38.8281 586.875,38.7969 586.4219,38.7969 L584.7031,38.7969 L584.7031,32.2813 Z " fill="#000000"/><text fill="#000000" font-family="sans-serif" font-size="12" font-style="italic" lengthAdjust="spacing" textLength="66" x="604.25" y="39.6543">IEtatCaisse</text><line style="stroke:#A80036;stroke-width:1.5;" x1="429" x2="813" y1="51.5" y2="51.5"/><line style="stroke:#A80036;stroke-width:1.5;" x1="429" x2="813" y1="59.5" y2="59.5"/><text fill="#000000" font-family="sans-serif" font-size="11" lengthAdjust="spacing" textLength="124" x="434" y="73.7104">creerNouvelleVente()</text><text fill="#000000" font-family="sans-serif" font-size="11" lengthAdjust="spacing" textLength="195" x="434" y="86.5151">saisirArtiche(codeArticle, quantite)</text><text fill="#000000" font-family="sans-serif" font-size="11" lengthAdjust="spacing" textLength="92" x="434" y="99.3198">terminerVente()</text><text fill="#000000" font-family="sans-serif" font-size="11" lengthAdjust="spacing" textLength="236" x="434" y="112.1245">creerPaiementenEspeces(montant:string)</text><text fill="#000000" font-family="sans-serif" font-size="11" lengthAdjust="spacing" textLength="282" x="434" y="124.9292">creerPaiementACredit(montant:string, idCC:string)</text><text fill="#000000" font-family="sans-serif" font-size="11" lengthAdjust="spacing" textLength="374" x="434" y="137.7339">creerPaiementParCheque(montant:string, idPermisConcuire:string)</text><text fill="#000000" font-family="sans-serif" font-size="11" lengthAdjust="spacing" textLength="58" x="434" y="150.5386">autoriser()</text><!--MD5=[01cde57b1cce9e5dd4b67a373ad71d0b]
class EtatCaisse--><rect codeLine="25" fill="#FEFECE" filter="url(#f15e4gpftnh19i)" height="137.6328" id="EtatCaisse" style="stroke:#A80036;stroke-width:1.5;" width="391" x="425.5" y="230"/><ellipse cx="585.75" cy="246" fill="#A9DCDF" rx="11" ry="11" style="stroke:#A80036;stroke-width:1.0;"/><path d="M587.8281,247.8125 L588.2188,248.7969 L587.8281,248.7969 C587.375,248.7969 587.2656,248.8125 587.1094,248.9219 C586.8594,249.0781 586.7031,249.3594 586.7031,249.6563 C586.7031,249.9219 586.8438,250.1719 587.0625,250.3281 C587.2031,250.4531 587.4063,250.5 587.8281,250.5 L590.1875,250.5 C590.5469,250.5 590.7656,250.4688 590.9063,250.375 C591.1563,250.2344 591.3125,249.9375 591.3125,249.6563 C591.3125,249.375 591.1719,249.125 590.9531,248.9688 C590.7813,248.8281 590.625,248.7969 590.1563,248.7969 L586.7656,240.5938 L583.0938,240.5938 C582.6406,240.5938 582.5156,240.6094 582.3594,240.7031 C582.1094,240.875 581.9531,241.1563 581.9531,241.4375 C581.9531,241.7188 582.0938,241.9688 582.3125,242.1406 C582.4844,242.25 582.6563,242.2813 583.0938,242.2813 L584.1719,242.2813 L581.5313,248.7969 C581.1094,248.7969 580.9531,248.8125 580.7969,248.9219 C580.5469,249.0781 580.3906,249.3594 580.3906,249.6563 C580.3906,250.2188 580.7656,250.5 581.5156,250.5 L583.7813,250.5 C584.1406,250.5 584.3594,250.4688 584.4844,250.375 C584.75,250.2344 584.8906,249.9375 584.8906,249.6563 C584.8906,249.375 584.7656,249.125 584.5469,248.9531 C584.375,248.8281 584.2344,248.7969 583.7813,248.7969 L583.3906,248.7969 L583.7813,247.8125 L587.8281,247.8125 Z M587.125,246.1094 L584.4531,246.1094 L585.7969,242.8438 L587.125,246.1094 Z " fill="#000000"/><text fill="#000000" font-family="sans-serif" font-size="12" font-style="italic" lengthAdjust="spacing" textLength="62" x="606.25" y="250.1543">EtatCaisse</text><line style="stroke:#A80036;stroke-width:1.5;" x1="426.5" x2="815.5" y1="262" y2="262"/><line style="stroke:#A80036;stroke-width:1.5;" x1="426.5" x2="815.5" y1="270" y2="270"/><text fill="#000000" font-family="sans-serif" font-size="11" font-style="italic" lengthAdjust="spacing" textLength="120" x="431.5" y="284.2104">creerNouvelleVente()</text><text fill="#000000" font-family="sans-serif" font-size="11" font-style="italic" lengthAdjust="spacing" textLength="195" x="431.5" y="297.0151">saisirArtiche(codeArticle, quantite)</text><text fill="#000000" font-family="sans-serif" font-size="11" font-style="italic" lengthAdjust="spacing" textLength="96" x="431.5" y="309.8198">terminerVente()z</text><text fill="#000000" font-family="sans-serif" font-size="11" font-style="italic" lengthAdjust="spacing" textLength="234" x="431.5" y="322.6245">creerPaiementenEspeces(montant:string)</text><text fill="#000000" font-family="sans-serif" font-size="11" font-style="italic" lengthAdjust="spacing" textLength="286" x="431.5" y="335.4292">creerPaiementACredit(montant:string, idCC:string)</text><text fill="#000000" font-family="sans-serif" font-size="11" font-style="italic" lengthAdjust="spacing" textLength="379" x="431.5" y="348.2339">creerPaiementParCheque(montant:string, idPermisConcuire:string)</text><text fill="#000000" font-family="sans-serif" font-size="11" font-style="italic" lengthAdjust="spacing" textLength="59" x="431.5" y="361.0386">autoriser()</text><!--MD5=[2c017457248613ddbfdc4015892c2568]
class AttenteVente--><rect codeLine="34" fill="#FEFECE" filter="url(#f15e4gpftnh19i)" height="60.8047" id="AttenteVente" style="stroke:#A80036;stroke-width:1.5;" width="136" x="180" y="440.5"/><ellipse cx="206.7" cy="456.5" fill="#ADD1B2" rx="11" ry="11" style="stroke:#A80036;stroke-width:1.0;"/><path d="M209.0438,452.1719 C208.1063,451.7344 207.5125,451.5938 206.6375,451.5938 C204.0125,451.5938 202.0125,453.6719 202.0125,456.3906 L202.0125,457.5156 C202.0125,460.0938 204.1219,461.9844 207.0125,461.9844 C208.2313,461.9844 209.3875,461.6875 210.1375,461.1406 C210.7156,460.7344 211.0438,460.2813 211.0438,459.8906 C211.0438,459.4375 210.6531,459.0469 210.1844,459.0469 C209.9656,459.0469 209.7625,459.125 209.575,459.3125 C209.1219,459.7969 209.1219,459.7969 208.9344,459.8906 C208.5125,460.1563 207.825,460.2813 207.0594,460.2813 C205.0125,460.2813 203.7156,459.1875 203.7156,457.4844 L203.7156,456.3906 C203.7156,454.6094 204.9656,453.2969 206.7,453.2969 C207.2781,453.2969 207.8875,453.4531 208.3563,453.7031 C208.8406,453.9844 209.0125,454.2031 209.1063,454.6094 C209.1688,455.0156 209.2,455.1406 209.3406,455.2656 C209.4813,455.4063 209.7156,455.5156 209.9344,455.5156 C210.2,455.5156 210.4656,455.375 210.6375,455.1563 C210.7469,455 210.7781,454.8125 210.7781,454.3906 L210.7781,452.9688 C210.7781,452.5313 210.7625,452.4063 210.6688,452.25 C210.5125,451.9844 210.2313,451.8438 209.9344,451.8438 C209.6375,451.8438 209.4344,451.9375 209.2156,452.25 L209.0438,452.1719 Z " fill="#000000"/><text fill="#000000" font-family="sans-serif" font-size="12" lengthAdjust="spacing" textLength="78" x="223.3" y="460.6543">AttenteVente</text><line style="stroke:#A80036;stroke-width:1.5;" x1="181" x2="315" y1="472.5" y2="472.5"/><line style="stroke:#A80036;stroke-width:1.5;" x1="181" x2="315" y1="480.5" y2="480.5"/><text fill="#000000" font-family="sans-serif" font-size="11" lengthAdjust="spacing" textLength="124" x="186" y="494.7104">creerNouvelleVente()</text><!--MD5=[bfb64e2f1d56baa102aa75827492722f]
class SaisieArticle--><rect codeLine="38" fill="#FEFECE" filter="url(#f15e4gpftnh19i)" height="73.6094" id="SaisieArticle" style="stroke:#A80036;stroke-width:1.5;" width="207" x="351.5" y="434"/><ellipse cx="413.75" cy="450" fill="#ADD1B2" rx="11" ry="11" style="stroke:#A80036;stroke-width:1.0;"/><path d="M416.0938,445.6719 C415.1563,445.2344 414.5625,445.0938 413.6875,445.0938 C411.0625,445.0938 409.0625,447.1719 409.0625,449.8906 L409.0625,451.0156 C409.0625,453.5938 411.1719,455.4844 414.0625,455.4844 C415.2813,455.4844 416.4375,455.1875 417.1875,454.6406 C417.7656,454.2344 418.0938,453.7813 418.0938,453.3906 C418.0938,452.9375 417.7031,452.5469 417.2344,452.5469 C417.0156,452.5469 416.8125,452.625 416.625,452.8125 C416.1719,453.2969 416.1719,453.2969 415.9844,453.3906 C415.5625,453.6563 414.875,453.7813 414.1094,453.7813 C412.0625,453.7813 410.7656,452.6875 410.7656,450.9844 L410.7656,449.8906 C410.7656,448.1094 412.0156,446.7969 413.75,446.7969 C414.3281,446.7969 414.9375,446.9531 415.4063,447.2031 C415.8906,447.4844 416.0625,447.7031 416.1563,448.1094 C416.2188,448.5156 416.25,448.6406 416.3906,448.7656 C416.5313,448.9063 416.7656,449.0156 416.9844,449.0156 C417.25,449.0156 417.5156,448.875 417.6875,448.6563 C417.7969,448.5 417.8281,448.3125 417.8281,447.8906 L417.8281,446.4688 C417.8281,446.0313 417.8125,445.9063 417.7188,445.75 C417.5625,445.4844 417.2813,445.3438 416.9844,445.3438 C416.6875,445.3438 416.4844,445.4375 416.2656,445.75 L416.0938,445.6719 Z " fill="#000000"/><text fill="#000000" font-family="sans-serif" font-size="12" lengthAdjust="spacing" textLength="74" x="434.25" y="454.1543">SaisieArticle</text><line style="stroke:#A80036;stroke-width:1.5;" x1="352.5" x2="557.5" y1="466" y2="466"/><line style="stroke:#A80036;stroke-width:1.5;" x1="352.5" x2="557.5" y1="474" y2="474"/><text fill="#000000" font-family="sans-serif" font-size="11" lengthAdjust="spacing" textLength="195" x="357.5" y="488.2104">saisirArtiche(codeArticle, quantite)</text><text fill="#000000" font-family="sans-serif" font-size="11" lengthAdjust="spacing" textLength="92" x="357.5" y="501.0151">terminerVente()</text><!--MD5=[5c725659eaaecd22346d3ab2adde45cd]
class AttentePaiement--><rect codeLine="43" fill="#FEFECE" filter="url(#f15e4gpftnh19i)" height="86.4141" id="AttentePaiement" style="stroke:#A80036;stroke-width:1.5;" width="386" x="594" y="428"/><ellipse cx="734.25" cy="444" fill="#ADD1B2" rx="11" ry="11" style="stroke:#A80036;stroke-width:1.0;"/><path d="M736.5938,439.6719 C735.6563,439.2344 735.0625,439.0938 734.1875,439.0938 C731.5625,439.0938 729.5625,441.1719 729.5625,443.8906 L729.5625,445.0156 C729.5625,447.5938 731.6719,449.4844 734.5625,449.4844 C735.7813,449.4844 736.9375,449.1875 737.6875,448.6406 C738.2656,448.2344 738.5938,447.7813 738.5938,447.3906 C738.5938,446.9375 738.2031,446.5469 737.7344,446.5469 C737.5156,446.5469 737.3125,446.625 737.125,446.8125 C736.6719,447.2969 736.6719,447.2969 736.4844,447.3906 C736.0625,447.6563 735.375,447.7813 734.6094,447.7813 C732.5625,447.7813 731.2656,446.6875 731.2656,444.9844 L731.2656,443.8906 C731.2656,442.1094 732.5156,440.7969 734.25,440.7969 C734.8281,440.7969 735.4375,440.9531 735.9063,441.2031 C736.3906,441.4844 736.5625,441.7031 736.6563,442.1094 C736.7188,442.5156 736.75,442.6406 736.8906,442.7656 C737.0313,442.9063 737.2656,443.0156 737.4844,443.0156 C737.75,443.0156 738.0156,442.875 738.1875,442.6563 C738.2969,442.5 738.3281,442.3125 738.3281,441.8906 L738.3281,440.4688 C738.3281,440.0313 738.3125,439.9063 738.2188,439.75 C738.0625,439.4844 737.7813,439.3438 737.4844,439.3438 C737.1875,439.3438 736.9844,439.4375 736.7656,439.75 L736.5938,439.6719 Z " fill="#000000"/><text fill="#000000" font-family="sans-serif" font-size="12" lengthAdjust="spacing" textLength="97" x="754.75" y="448.1543">AttentePaiement</text><line style="stroke:#A80036;stroke-width:1.5;" x1="595" x2="979" y1="460" y2="460"/><line style="stroke:#A80036;stroke-width:1.5;" x1="595" x2="979" y1="468" y2="468"/><text fill="#000000" font-family="sans-serif" font-size="11" lengthAdjust="spacing" textLength="236" x="600" y="482.2104">creerPaiementenEspeces(montant:string)</text><text fill="#000000" font-family="sans-serif" font-size="11" lengthAdjust="spacing" textLength="282" x="600" y="495.0151">creerPaiementACredit(montant:string, idCC:string)</text><text fill="#000000" font-family="sans-serif" font-size="11" lengthAdjust="spacing" textLength="374" x="600" y="507.8198">creerPaiementParCheque(montant:string, idPermisConcuire:string)</text><!--MD5=[399e1986cf7c32417afac27e20c235e3]
class AutorisationPaiement--><rect codeLine="49" fill="#FEFECE" filter="url(#f15e4gpftnh19i)" height="60.8047" id="AutorisationPaiement" style="stroke:#A80036;stroke-width:1.5;" width="157" x="1015.5" y="440.5"/><ellipse cx="1030.5" cy="456.5" fill="#ADD1B2" rx="11" ry="11" style="stroke:#A80036;stroke-width:1.0;"/><path d="M1032.8438,452.1719 C1031.9063,451.7344 1031.3125,451.5938 1030.4375,451.5938 C1027.8125,451.5938 1025.8125,453.6719 1025.8125,456.3906 L1025.8125,457.5156 C1025.8125,460.0938 1027.9219,461.9844 1030.8125,461.9844 C1032.0313,461.9844 1033.1875,461.6875 1033.9375,461.1406 C1034.5156,460.7344 1034.8438,460.2813 1034.8438,459.8906 C1034.8438,459.4375 1034.4531,459.0469 1033.9844,459.0469 C1033.7656,459.0469 1033.5625,459.125 1033.375,459.3125 C1032.9219,459.7969 1032.9219,459.7969 1032.7344,459.8906 C1032.3125,460.1563 1031.625,460.2813 1030.8594,460.2813 C1028.8125,460.2813 1027.5156,459.1875 1027.5156,457.4844 L1027.5156,456.3906 C1027.5156,454.6094 1028.7656,453.2969 1030.5,453.2969 C1031.0781,453.2969 1031.6875,453.4531 1032.1563,453.7031 C1032.6406,453.9844 1032.8125,454.2031 1032.9063,454.6094 C1032.9688,455.0156 1033,455.1406 1033.1406,455.2656 C1033.2813,455.4063 1033.5156,455.5156 1033.7344,455.5156 C1034,455.5156 1034.2656,455.375 1034.4375,455.1563 C1034.5469,455 1034.5781,454.8125 1034.5781,454.3906 L1034.5781,452.9688 C1034.5781,452.5313 1034.5625,452.4063 1034.4688,452.25 C1034.3125,451.9844 1034.0313,451.8438 1033.7344,451.8438 C1033.4375,451.8438 1033.2344,451.9375 1033.0156,452.25 L1032.8438,452.1719 Z " fill="#000000"/><text fill="#000000" font-family="sans-serif" font-size="12" lengthAdjust="spacing" textLength="125" x="1044.5" y="460.6543">AutorisationPaiement</text><line style="stroke:#A80036;stroke-width:1.5;" x1="1016.5" x2="1171.5" y1="472.5" y2="472.5"/><line style="stroke:#A80036;stroke-width:1.5;" x1="1016.5" x2="1171.5" y1="480.5" y2="480.5"/><text fill="#000000" font-family="sans-serif" font-size="11" lengthAdjust="spacing" textLength="58" x="1021.5" y="494.7104">autoriser()</text><path d="M216,271.5 L216,326.8984 A0,0 0 0 0 216,326.8984 L390,326.8984 A0,0 0 0 0 390,326.8984 L390,303 L425.415,299 L390,295 L390,281.5 L380,271.5 L216,271.5 A0,0 0 0 0 216,271.5 " fill="#FBFB77" filter="url(#f15e4gpftnh19i)" style="stroke:#A80036;stroke-width:1.0;"/><path d="M380,271.5 L380,281.5 L390,281.5 L380,271.5 " fill="#FBFB77" style="stroke:#A80036;stroke-width:1.0;"/><text fill="#000000" font-family="sans-serif" font-size="13" lengthAdjust="spacing" textLength="142" x="222" y="288.5669">Toutes ces opérations</text><text fill="#000000" font-family="sans-serif" font-size="13" lengthAdjust="spacing" textLength="153" x="222" y="303.6997">génèrent une exception</text><text fill="#000000" font-family="sans-serif" font-size="13" lengthAdjust="spacing" textLength="70" x="222" y="318.8325">par défault</text><!--MD5=[6db7b6dc72c98ab9ee996e2e289be398]
link Caisse to IEtatCaisse--><path codeLine="53" d="M393.232,88.5 C404.799,88.5 416.365,88.5 427.931,88.5 " fill="none" id="Caisse-IEtatCaisse" style="stroke:#A80036;stroke-width:1.0;"/><text fill="#000000" font-family="sans-serif" font-size="13" lengthAdjust="spacing" textLength="8" x="400.9364" y="85.2718">1</text><text fill="#000000" font-family="sans-serif" font-size="13" lengthAdjust="spacing" textLength="8" x="412.233" y="85.2837">1</text><!--MD5=[6e3fe70bf7f64a99400dc12f1349a306]
reverse link IEtatCaisse to EtatCaisse--><path codeLine="54" d="M621,177.831 C621,195.261 621,213.298 621,229.932 " fill="none" id="IEtatCaisse-backto-EtatCaisse" style="stroke:#A80036;stroke-width:1.0;"/><polygon fill="none" points="614,177.771,621,157.771,628,177.771,614,177.771" style="stroke:#A80036;stroke-width:1.0;"/><!--MD5=[e6e63111f054da43ceb9f00261fbca6f]
reverse link EtatCaisse to AttenteVente--><path codeLine="55" d="M447.146,376.373 C409.714,393.141 370.451,410.977 334,428 C325.569,431.9373 316.712,436.1618 308.017,440.3594 " fill="none" id="EtatCaisse-backto-AttenteVente" style="stroke:#A80036;stroke-width:1.0;"/><polygon fill="none" points="444.531,369.874,465.646,368.105,450.243,382.656,444.531,369.874" style="stroke:#A80036;stroke-width:1.0;"/><!--MD5=[2fb4d8e58764dfa4da68d0bac5dc6ac3]
reverse link EtatCaisse to AttentePaiement--><path codeLine="56" d="M701.539,382.48 C716.859,398.169 732.29,413.972 745.743,427.7489 " fill="none" id="EtatCaisse-backto-AttentePaiement" style="stroke:#A80036;stroke-width:1.0;"/><polygon fill="none" points="696.527,387.366,687.562,368.166,706.543,377.585,696.527,387.366" style="stroke:#A80036;stroke-width:1.0;"/><!--MD5=[80908b2fac36d6cc58420cdb7d610150]
reverse link EtatCaisse to SaisieArticle--><path codeLine="57" d="M540.213,382.733 C522.772,400.595 505.201,418.5895 490.583,433.5601 " fill="none" id="EtatCaisse-backto-SaisieArticle" style="stroke:#A80036;stroke-width:1.0;"/><polygon fill="none" points="535.457,377.585,554.438,368.166,545.473,387.366,535.457,377.585" style="stroke:#A80036;stroke-width:1.0;"/><!--MD5=[bc91fd91bf3cedbd48759897ce4ef375]
reverse link EtatCaisse to AutorisationPaiement--><path codeLine="58" d="M835.913,369.443 C889.199,387.626 945.941,407.817 998,428 C1007.92,431.847 1018.32,436.1291 1028.47,440.4464 " fill="none" id="EtatCaisse-backto-AutorisationPaiement" style="stroke:#A80036;stroke-width:1.0;"/><polygon fill="none" points="833.527,376.025,816.838,362.968,838.027,362.768,833.527,376.025" style="stroke:#A80036;stroke-width:1.0;"/><!--MD5=[83948e818f406b52ad9f04d1365e1d09]
@startuml
class Caisse {
creerNouvelleVente()
saisirArtiche(codeArticle, quantite)
terminerVente()
creerPaiementenEspeces(montant:string)
creerPaiementACredit(montant:string, idCC:string)
creerPaiementParCheque(montant:string, idPermisConcuire:string)
autoriser()
getState(): IEtatCaisse
setState(IEtatCaisse)

}

interface IEtatCaisse{
creerNouvelleVente()
saisirArtiche(codeArticle, quantite)
terminerVente()
creerPaiementenEspeces(montant:string)
creerPaiementACredit(montant:string, idCC:string)
creerPaiementParCheque(montant:string, idPermisConcuire:string)
autoriser()

}

abstract class EtatCaisse {
{abstract} creerNouvelleVente()
{abstract} saisirArtiche(codeArticle, quantite)
{abstract} terminerVente()z
{abstract} creerPaiementenEspeces(montant:string)
{abstract} creerPaiementACredit(montant:string, idCC:string)
{abstract} creerPaiementParCheque(montant:string, idPermisConcuire:string)
{abstract} autoriser()
}
class AttenteVente  {
    creerNouvelleVente()
} 

class SaisieArticle {
saisirArtiche(codeArticle, quantite)
terminerVente()
}

class AttentePaiement {
creerPaiementenEspeces(montant:string)
creerPaiementACredit(montant:string, idCC:string)
creerPaiementParCheque(montant:string, idPermisConcuire:string)
}

class AutorisationPaiement {
    autoriser()
}

Caisse "1" -right- "1" IEtatCaisse
IEtatCaisse <|-down- EtatCaisse
EtatCaisse <|- - AttenteVente
EtatCaisse <|- - AttentePaiement
EtatCaisse <|- - SaisieArticle
EtatCaisse <|- - AutorisationPaiement
note left of EtatCaisse: Toutes ces opérations\ngénèrent une exception\npar défault
@enduml

PlantUML version 1.2021.3beta7(Unknown compile time)
(GPL source distribution)
Java Runtime: Java(TM) SE Runtime Environment
JVM: Java HotSpot(TM) 64-Bit Server VM
Default Encoding: UTF-8
Language: en
Country: US
--></g></svg>