<?xml version="1.0" encoding="UTF-8" standalone="no"?><svg xmlns="http://www.w3.org/2000/svg" xmlns:xlink="http://www.w3.org/1999/xlink" contentScriptType="application/ecmascript" contentStyleType="text/css" height="826px" preserveAspectRatio="none" style="width:1006px;height:826px;" version="1.1" viewBox="0 0 1006 826" width="1006px" zoomAndPan="magnify"><defs/><g><rect fill="#FFFFFF" height="108.5938" style="stroke:#A80036;stroke-width:1.0;" width="10" x="177" y="93.7266"/><rect fill="#FFFFFF" height="28" style="stroke:#A80036;stroke-width:1.0;" width="10" x="182" y="174.3203"/><rect fill="#FFFFFF" height="315.0938" style="stroke:#A80036;stroke-width:1.0;" width="10" x="177" y="238.4531"/><rect fill="#FFFFFF" height="28" style="stroke:#A80036;stroke-width:1.0;" width="10" x="182" y="275.5859"/><rect fill="#FFFFFF" height="28" style="stroke:#A80036;stroke-width:1.0;" width="10" x="182" y="504.5469"/><rect fill="#FFFFFF" height="218.9297" style="stroke:#A80036;stroke-width:1.0;" width="10" x="177" y="582.6797"/><rect fill="#FFFFFF" height="28" style="stroke:#A80036;stroke-width:1.0;" width="10" x="182" y="619.8125"/><rect fill="#FFFFFF" height="112.5625" style="stroke:#A80036;stroke-width:1.0;" width="10" x="365" y="354.8516"/><rect fill="#FFFFFF" height="34.1328" style="stroke:#A80036;stroke-width:1.0;" width="10" x="370" y="407.1172"/><line style="stroke:#A80036;stroke-width:1.0;stroke-dasharray:5.0,5.0;" x1="22" x2="22" y1="52.5938" y2="819.6094"/><line style="stroke:#A80036;stroke-width:1.0;stroke-dasharray:5.0,5.0;" x1="182" x2="182" y1="93.2422" y2="819.6094"/><line style="stroke:#A80036;stroke-width:1.0;stroke-dasharray:5.0,5.0;" x1="369.5" x2="369.5" y1="134.5391" y2="819.6094"/><line style="stroke:#A80036;stroke-width:1.0;stroke-dasharray:5.0,5.0;" x1="553" x2="553" y1="450.7656" y2="819.6094"/><line style="stroke:#A80036;stroke-width:1.0;stroke-dasharray:5.0,5.0;" x1="735.5" x2="735.5" y1="52.5938" y2="819.6094"/><line style="stroke:#A80036;stroke-width:1.0;stroke-dasharray:5.0,5.0;" x1="956" x2="956" y1="783.4766" y2="819.6094"/><rect fill="#FEFECE" height="30.2969" style="stroke:#A80036;stroke-width:1.5;" width="24" x="10" y="21.2969"/><text fill="#000000" font-family="sans-serif" font-size="14" lengthAdjust="spacing" textLength="10" x="17" y="41.292">X</text><rect fill="#FEFECE" height="46.5938" style="stroke:#A80036;stroke-width:1.5;" width="95" x="688.5" y="5"/><text fill="#000000" font-family="sans-serif" font-size="14" font-style="italic" lengthAdjust="spacing" textLength="77" x="697.5" y="24.9951">«Abstract»</text><text fill="#000000" font-family="sans-serif" font-size="14" lengthAdjust="spacing" textLength="81" x="695.5" y="41.292">:EtatCaisse</text><rect fill="#FFFFFF" height="108.5938" style="stroke:#A80036;stroke-width:1.0;" width="10" x="177" y="93.7266"/><rect fill="#FFFFFF" height="28" style="stroke:#A80036;stroke-width:1.0;" width="10" x="182" y="174.3203"/><rect fill="#FFFFFF" height="315.0938" style="stroke:#A80036;stroke-width:1.0;" width="10" x="177" y="238.4531"/><rect fill="#FFFFFF" height="28" style="stroke:#A80036;stroke-width:1.0;" width="10" x="182" y="275.5859"/><rect fill="#FFFFFF" height="28" style="stroke:#A80036;stroke-width:1.0;" width="10" x="182" y="504.5469"/><rect fill="#FFFFFF" height="218.9297" style="stroke:#A80036;stroke-width:1.0;" width="10" x="177" y="582.6797"/><rect fill="#FFFFFF" height="28" style="stroke:#A80036;stroke-width:1.0;" width="10" x="182" y="619.8125"/><rect fill="#FFFFFF" height="112.5625" style="stroke:#A80036;stroke-width:1.0;" width="10" x="365" y="354.8516"/><rect fill="#FFFFFF" height="34.1328" style="stroke:#A80036;stroke-width:1.0;" width="10" x="370" y="407.1172"/><polygon fill="#A80036" points="138,79.7266,148,83.7266,138,87.7266" style="stroke:#A80036;stroke-width:1.0;"/><line style="stroke:#A80036;stroke-width:1.0;stroke-dasharray:2.0,2.0;" x1="22" x2="144" y1="83.7266" y2="83.7266"/><text fill="#000000" font-family="sans-serif" font-size="13" lengthAdjust="spacing" textLength="51" x="29" y="78.6606">create()</text><rect fill="#FEFECE" height="30.2969" style="stroke:#A80036;stroke-width:1.5;" width="64" x="150" y="62.5938"/><text fill="#000000" font-family="sans-serif" font-size="14" lengthAdjust="spacing" textLength="50" x="157" y="82.5889">:Caisse</text><polygon fill="#A80036" points="289.5,121.0234,299.5,125.0234,289.5,129.0234" style="stroke:#A80036;stroke-width:1.0;"/><line style="stroke:#A80036;stroke-width:1.0;stroke-dasharray:2.0,2.0;" x1="187" x2="295.5" y1="125.0234" y2="125.0234"/><text fill="#000000" font-family="sans-serif" font-size="13" lengthAdjust="spacing" textLength="51" x="194" y="119.9575">create()</text><rect fill="#FEFECE" height="30.2969" style="stroke:#A80036;stroke-width:1.5;" width="137" x="301.5" y="103.8906"/><text fill="#000000" font-family="sans-serif" font-size="14" lengthAdjust="spacing" textLength="123" x="308.5" y="123.8857">av:AttenteVente</text><line style="stroke:#A80036;stroke-width:1.0;" x1="192" x2="234" y1="166.3203" y2="166.3203"/><line style="stroke:#A80036;stroke-width:1.0;" x1="234" x2="234" y1="166.3203" y2="179.3203"/><line style="stroke:#A80036;stroke-width:1.0;" x1="193" x2="234" y1="179.3203" y2="179.3203"/><polygon fill="#A80036" points="203,175.3203,193,179.3203,203,183.3203" style="stroke:#A80036;stroke-width:1.0;"/><text fill="#000000" font-family="sans-serif" font-size="13" lengthAdjust="spacing" textLength="80" x="199" y="161.2544">setState(av)</text><polygon fill="#A80036" points="165,234.4531,175,238.4531,165,242.4531" style="stroke:#A80036;stroke-width:1.0;"/><line style="stroke:#A80036;stroke-width:1.0;stroke-dasharray:2.0,2.0;" x1="22" x2="171" y1="238.4531" y2="238.4531"/><text fill="#000000" font-family="sans-serif" font-size="13" lengthAdjust="spacing" textLength="136" x="29" y="233.3872">creerNouvelleVente()</text><line style="stroke:#A80036;stroke-width:1.0;" x1="192" x2="234" y1="267.5859" y2="267.5859"/><line style="stroke:#A80036;stroke-width:1.0;" x1="234" x2="234" y1="267.5859" y2="280.5859"/><line style="stroke:#A80036;stroke-width:1.0;" x1="193" x2="234" y1="280.5859" y2="280.5859"/><polygon fill="#A80036" points="203,276.5859,193,280.5859,203,284.5859" style="stroke:#A80036;stroke-width:1.0;"/><text fill="#000000" font-family="sans-serif" font-size="13" lengthAdjust="spacing" textLength="104" x="199" y="262.52">av = getState();</text><polygon fill="#A80036" points="353,350.8516,363,354.8516,353,358.8516" style="stroke:#A80036;stroke-width:1.0;"/><line style="stroke:#A80036;stroke-width:1.0;" x1="187" x2="359" y1="354.8516" y2="354.8516"/><text fill="#000000" font-family="sans-serif" font-size="13" lengthAdjust="spacing" textLength="104" x="194" y="334.6528">IEtatCaisse sa =</text><text fill="#000000" font-family="sans-serif" font-size="13" lengthAdjust="spacing" textLength="159" x="194" y="349.7856">creerNouvelleVente(this)</text><line style="stroke:#A80036;stroke-width:1.0;" x1="375" x2="422" y1="394.1172" y2="394.1172"/><line style="stroke:#A80036;stroke-width:1.0;" x1="422" x2="422" y1="394.1172" y2="407.1172"/><line style="stroke:#A80036;stroke-width:1.0;" x1="381" x2="422" y1="407.1172" y2="407.1172"/><polygon fill="#A80036" points="391,403.1172,381,407.1172,391,411.1172" style="stroke:#A80036;stroke-width:1.0;"/><text fill="#000000" font-family="sans-serif" font-size="13" lengthAdjust="spacing" textLength="104" x="387" y="373.9185">IEtatCaisse sa =</text><text fill="#000000" font-family="sans-serif" font-size="13" lengthAdjust="spacing" textLength="159" x="387" y="389.0513">creerNouvelleVente(this)</text><polygon fill="#A80036" points="476,437.25,486,441.25,476,445.25" style="stroke:#A80036;stroke-width:1.0;"/><line style="stroke:#A80036;stroke-width:1.0;" x1="375" x2="482" y1="441.25" y2="441.25"/><text fill="#000000" font-family="sans-serif" font-size="13" lengthAdjust="spacing" textLength="51" x="382" y="436.1841">create()</text><rect fill="#FEFECE" height="30.2969" style="stroke:#A80036;stroke-width:1.5;" width="130" x="488" y="420.1172"/><text fill="#000000" font-family="sans-serif" font-size="14" lengthAdjust="spacing" textLength="116" x="495" y="440.1123">sa:SaisieArticles</text><polygon fill="#A80036" points="198,463.4141,188,467.4141,198,471.4141" style="stroke:#A80036;stroke-width:1.0;"/><line style="stroke:#A80036;stroke-width:1.0;stroke-dasharray:2.0,2.0;" x1="192" x2="369" y1="467.4141" y2="467.4141"/><line style="stroke:#A80036;stroke-width:1.0;" x1="192" x2="234" y1="496.5469" y2="496.5469"/><line style="stroke:#A80036;stroke-width:1.0;" x1="234" x2="234" y1="496.5469" y2="509.5469"/><line style="stroke:#A80036;stroke-width:1.0;" x1="193" x2="234" y1="509.5469" y2="509.5469"/><polygon fill="#A80036" points="203,505.5469,193,509.5469,203,513.5469" style="stroke:#A80036;stroke-width:1.0;"/><text fill="#000000" font-family="sans-serif" font-size="13" lengthAdjust="spacing" textLength="79" x="199" y="491.481">setState(sa)</text><polygon fill="#A80036" points="33,549.5469,23,553.5469,33,557.5469" style="stroke:#A80036;stroke-width:1.0;"/><line style="stroke:#A80036;stroke-width:1.0;stroke-dasharray:2.0,2.0;" x1="27" x2="181" y1="553.5469" y2="553.5469"/><polygon fill="#A80036" points="165,578.6797,175,582.6797,165,586.6797" style="stroke:#A80036;stroke-width:1.0;"/><line style="stroke:#A80036;stroke-width:1.0;" x1="22" x2="171" y1="582.6797" y2="582.6797"/><text fill="#000000" font-family="sans-serif" font-size="13" lengthAdjust="spacing" textLength="136" x="29" y="577.6138">creerNouvelleVente()</text><line style="stroke:#A80036;stroke-width:1.0;" x1="192" x2="234" y1="611.8125" y2="611.8125"/><line style="stroke:#A80036;stroke-width:1.0;" x1="234" x2="234" y1="611.8125" y2="624.8125"/><line style="stroke:#A80036;stroke-width:1.0;" x1="193" x2="234" y1="624.8125" y2="624.8125"/><polygon fill="#A80036" points="203,620.8125,193,624.8125,203,628.8125" style="stroke:#A80036;stroke-width:1.0;"/><text fill="#000000" font-family="sans-serif" font-size="13" lengthAdjust="spacing" textLength="103" x="199" y="606.7466">sa = getState();</text><polygon fill="#A80036" points="541,695.0781,551,699.0781,541,703.0781" style="stroke:#A80036;stroke-width:1.0;"/><line style="stroke:#A80036;stroke-width:1.0;" x1="187" x2="547" y1="699.0781" y2="699.0781"/><text fill="#000000" font-family="sans-serif" font-size="13" lengthAdjust="spacing" textLength="113" x="194" y="678.8794">IEtatCaisse av2 =</text><text fill="#000000" font-family="sans-serif" font-size="13" lengthAdjust="spacing" textLength="159" x="194" y="694.0122">creerNouvelleVente(this)</text><polygon fill="#A80036" points="724,739.3438,734,743.3438,724,747.3438" style="stroke:#A80036;stroke-width:1.0;"/><line style="stroke:#A80036;stroke-width:1.0;" x1="553" x2="730" y1="743.3438" y2="743.3438"/><text fill="#000000" font-family="sans-serif" font-size="13" lengthAdjust="spacing" textLength="113" x="560" y="723.145">IEtatCaisse av2 =</text><text fill="#000000" font-family="sans-serif" font-size="13" lengthAdjust="spacing" textLength="159" x="560" y="738.2778">creerNouvelleVente(this)</text><polygon fill="#A80036" points="901,783.6094,911,787.6094,901,791.6094" style="stroke:#A80036;stroke-width:1.0;"/><line style="stroke:#A80036;stroke-width:1.0;stroke-dasharray:2.0,2.0;" x1="736" x2="907" y1="787.6094" y2="787.6094"/><text fill="#000000" font-family="sans-serif" font-size="13" lengthAdjust="spacing" textLength="135" x="743" y="767.4106">throw("Operation not</text><text fill="#000000" font-family="sans-serif" font-size="13" lengthAdjust="spacing" textLength="153" x="743" y="782.5435">available for this state")</text><rect fill="#FEFECE" height="30.2969" style="stroke:#A80036;stroke-width:1.5;" width="87" x="913" y="754.3125"/><text fill="#000000" font-family="sans-serif" font-size="14" lengthAdjust="spacing" textLength="73" x="920" y="774.3076">Exception</text><polygon fill="#A80036" points="33,797.6094,23,801.6094,33,805.6094" style="stroke:#A80036;stroke-width:1.0;"/><line style="stroke:#A80036;stroke-width:1.0;stroke-dasharray:2.0,2.0;" x1="27" x2="735" y1="801.6094" y2="801.6094"/><!--MD5=[388c67c505e3c1542a1d725f8fd5ceb2]
@startuml
skinparam Style strictuml

participant X
participant ":Caisse" as C
participant "av:AttenteVente"  as AV
participant "sa:SaisieArticles" as SA 
Participant ":EtatCaisse" as IS <<Abstract>>

 X - -> C**: create()
 activate C
C - -> AV**: create()
C -> C: setState(av)
activate C
deactivate C
deactivate C

X - -> C: creerNouvelleVente()
activate C
C -> C: av = getState();
activate C
deactivate C
C -> AV: IEtatCaisse sa = \ncreerNouvelleVente(this)
activate AV
AV -> AV: IEtatCaisse sa = \ncreerNouvelleVente(this)
activate AV
AV -> SA**: create()
deactivate AV
C <- - AV
deactivate AV

C -> C: setState(sa)
activate C
deactivate C
X <- - C 
deactivate C




X -> C: creerNouvelleVente()
activate C
C -> C: sa = getState();
activate C
deactivate C
C -> SA: IEtatCaisse av2 = \ncreerNouvelleVente(this)
SA -> IS : IEtatCaisse av2 = \ncreerNouvelleVente(this)
IS - -> Exception**: throw("Operation not \navailable for this state")
X <- - IS 
deactivate C
@enduml

PlantUML version 1.2021.3beta7(Unknown compile time)
(GPL source distribution)
Java Runtime: Java(TM) SE Runtime Environment
JVM: Java HotSpot(TM) 64-Bit Server VM
Default Encoding: UTF-8
Language: en
Country: US
--></g></svg>