<?xml version="1.0" encoding="UTF-8" standalone="no"?><svg xmlns="http://www.w3.org/2000/svg" xmlns:xlink="http://www.w3.org/1999/xlink" contentScriptType="application/ecmascript" contentStyleType="text/css" height="771px" preserveAspectRatio="none" style="width:344px;height:771px;background:#FFFFFF;" version="1.1" viewBox="0 0 344 771" width="344px" zoomAndPan="magnify"><defs><filter height="300%" id="fo6mf1jcc2n9b" width="300%" x="-1" y="-1"><feGaussianBlur result="blurOut" stdDeviation="2.0"/><feColorMatrix in="blurOut" result="blurOut2" type="matrix" values="0 0 0 0 0 0 0 0 0 0 0 0 0 0 0 0 0 0 .4 0"/><feOffset dx="4.0" dy="4.0" in="blurOut2" result="blurOut3"/><feBlend in="SourceGraphic" in2="blurOut3" mode="normal"/></filter></defs><g><ellipse cx="116" cy="16" fill="#000000" filter="url(#fo6mf1jcc2n9b)" rx="10" ry="10" style="stroke:none;stroke-width:1.0;"/><g id="VisiteValide"><rect fill="#FEFECE" filter="url(#fo6mf1jcc2n9b)" height="50" rx="12.5" ry="12.5" style="stroke:#A80036;stroke-width:1.5;" width="105" x="63.5" y="87"/><line style="stroke:#A80036;stroke-width:1.5;" x1="63.5" x2="168.5" y1="113.2969" y2="113.2969"/><text fill="#000000" font-family="sans-serif" font-size="14" lengthAdjust="spacing" textLength="85" x="73.5" y="104.9951">VisiteValide</text></g><g id="VisiteAnnulé"><rect fill="#FEFECE" filter="url(#fo6mf1jcc2n9b)" height="50" rx="12.5" ry="12.5" style="stroke:#A80036;stroke-width:1.5;" width="110" x="7" y="294"/><line style="stroke:#A80036;stroke-width:1.5;" x1="7" x2="117" y1="320.2969" y2="320.2969"/><text fill="#000000" font-family="sans-serif" font-size="14" lengthAdjust="spacing" textLength="90" x="17" y="311.9951">VisiteAnnulé</text></g><ellipse cx="102" cy="749" filter="url(#fo6mf1jcc2n9b)" rx="10" ry="10" style="stroke:#000000;stroke-width:1.0;fill:none;"/><ellipse cx="102.5" cy="749.5" fill="#000000" rx="6" ry="6" style="stroke:none;stroke-width:1.0;"/><g id="GardienIn"><rect fill="#FEFECE" filter="url(#fo6mf1jcc2n9b)" height="50" rx="12.5" ry="12.5" style="stroke:#A80036;stroke-width:1.5;" width="89" x="138.5" y="214"/><line style="stroke:#A80036;stroke-width:1.5;" x1="138.5" x2="227.5" y1="240.2969" y2="240.2969"/><text fill="#000000" font-family="sans-serif" font-size="14" lengthAdjust="spacing" textLength="69" x="148.5" y="231.9951">GardienIn</text></g><g id="VisiteurIn"><rect fill="#FEFECE" filter="url(#fo6mf1jcc2n9b)" height="50" rx="12.5" ry="12.5" style="stroke:#A80036;stroke-width:1.5;" width="88" x="130" y="374"/><line style="stroke:#A80036;stroke-width:1.5;" x1="130" x2="218" y1="400.2969" y2="400.2969"/><text fill="#000000" font-family="sans-serif" font-size="14" lengthAdjust="spacing" textLength="68" x="140" y="391.9951">VisiteurIn</text></g><g id="VisiteurOut"><rect fill="#FEFECE" filter="url(#fo6mf1jcc2n9b)" height="50" rx="12.5" ry="12.5" style="stroke:#A80036;stroke-width:1.5;" width="101" x="122.5" y="501"/><line style="stroke:#A80036;stroke-width:1.5;" x1="122.5" x2="223.5" y1="527.2969" y2="527.2969"/><text fill="#000000" font-family="sans-serif" font-size="14" lengthAdjust="spacing" textLength="81" x="132.5" y="518.9951">VisiteurOut</text></g><g id="GardientOut"><rect fill="#FEFECE" filter="url(#fo6mf1jcc2n9b)" height="50" rx="12.5" ry="12.5" style="stroke:#A80036;stroke-width:1.5;" width="109" x="118.5" y="628"/><line style="stroke:#A80036;stroke-width:1.5;" x1="118.5" x2="227.5" y1="654.2969" y2="654.2969"/><text fill="#000000" font-family="sans-serif" font-size="14" lengthAdjust="spacing" textLength="89" x="128.5" y="645.9951">GardientOut</text></g><!--MD5=[a253bb74714ffc0a28b5f5f71f6328ac]
link *start to VisiteValide--><path d="M116,26.013 C116,38.698 116,62.409 116,81.57 " fill="none" id="*start-to-VisiteValide" style="stroke:#A80036;stroke-width:1.0;"/><polygon fill="#A80036" points="116,86.84,120,77.84,116,81.84,112,77.84,116,86.84" style="stroke:#A80036;stroke-width:1.0;"/><!--MD5=[a54f24575bfb78981a1fa8efa0e1844e]
link VisiteValide to VisiteAnnulé--><path d="M68.8702,137.245 C58.1006,145.182 48.0527,155.09 42,167 C22.2687,205.825 36.2016,257.189 48.6511,288.891 " fill="none" id="VisiteValide-to-VisiteAnnulé" style="stroke:#A80036;stroke-width:1.0;"/><polygon fill="#A80036" points="50.631,293.805,50.9777,283.9622,48.7624,289.1673,43.5574,286.952,50.631,293.805" style="stroke:#A80036;stroke-width:1.0;"/><text fill="#000000" font-family="sans-serif" font-size="13" lengthAdjust="spacing" textLength="93" x="43" y="180.0669">annulerVisite()</text><!--MD5=[d14f13ce3fe4b4820c158a77866d9404]
link VisiteAnnulé to *end--><path d="M62.8198,344.032 C63.708,372.181 65,420.22 65,461.5 C65,461.5 65,461.5 65,654 C65,685.1001 82.7532,718.2176 93.6648,735.6353 " fill="none" id="VisiteAnnulé-to-*end" style="stroke:#A80036;stroke-width:1.0;"/><polygon fill="#A80036" points="96.5405,740.117,95.0465,730.3821,93.8402,735.9089,88.3135,734.7026,96.5405,740.117" style="stroke:#A80036;stroke-width:1.0;"/><!--MD5=[c095bea48cb5784396cf682aada8c030]
link VisiteValide to GardienIn--><path d="M129,137.189 C134.004,146.505 139.771,157.246 145,167 C152.413,180.827 160.629,196.175 167.519,209.053 " fill="none" id="VisiteValide-to-GardienIn" style="stroke:#A80036;stroke-width:1.0;"/><polygon fill="#A80036" points="169.994,213.679,169.2729,203.8566,167.6342,209.2709,162.2199,207.6322,169.994,213.679" style="stroke:#A80036;stroke-width:1.0;"/><text fill="#000000" font-family="sans-serif" font-size="13" lengthAdjust="spacing" textLength="150" x="155" y="180.0669">checkInParentGardien()</text><!--MD5=[5fe219dbbdcd27a730e8e631c25f2b77]
link GardienIn to VisiteurIn--><path d="M181.613,264.341 C180.01,292.49 177.372,338.8 175.661,368.846 " fill="none" id="GardienIn-to-VisiteurIn" style="stroke:#A80036;stroke-width:1.0;"/><polygon fill="#A80036" points="175.373,373.89,179.8783,365.132,175.6573,368.8981,171.8912,364.6771,175.373,373.89" style="stroke:#A80036;stroke-width:1.0;"/><text fill="#000000" font-family="sans-serif" font-size="13" lengthAdjust="spacing" textLength="148" x="181" y="323.5669">checkInParentVisiteur()</text><!--MD5=[e4738d763e2c84596d89fd659643e1b8]
link VisiteurIn to VisiteurOut--><path d="M173.807,424.101 C173.643,444.593 173.407,474.076 173.233,495.884 " fill="none" id="VisiteurIn-to-VisiteurOut" style="stroke:#A80036;stroke-width:1.0;"/><polygon fill="#A80036" points="173.192,500.973,177.2639,492.0053,173.232,495.9732,169.2641,491.9413,173.192,500.973" style="stroke:#A80036;stroke-width:1.0;"/><text fill="#000000" font-family="sans-serif" font-size="13" lengthAdjust="spacing" textLength="160" x="175" y="467.0669">checkOutParentVisiteur()</text><!--MD5=[0292905e9074e94e77feae4ead3994cd]
link VisiteurOut to GardientOut--><path d="M173,551.101 C173,571.593 173,601.076 173,622.884 " fill="none" id="VisiteurOut-to-GardientOut" style="stroke:#A80036;stroke-width:1.0;"/><polygon fill="#A80036" points="173,627.973,177,618.973,173,622.973,169,618.973,173,627.973" style="stroke:#A80036;stroke-width:1.0;"/><text fill="#000000" font-family="sans-serif" font-size="13" lengthAdjust="spacing" textLength="162" x="174" y="594.0669">checkOutParentGardien()</text><!--MD5=[cacd03947a3dcfd9b5d864d93e172b50]
link GardientOut to *end--><path d="M154.716,678.2073 C140.566,696.9405 121.602,722.0478 110.701,736.4797 " fill="none" id="GardientOut-to-*end" style="stroke:#A80036;stroke-width:1.0;"/><polygon fill="#A80036" points="107.592,740.597,116.2082,735.8262,110.6056,736.6072,109.8246,731.0045,107.592,740.597" style="stroke:#A80036;stroke-width:1.0;"/><!--MD5=[afc99bec988ddf9f40cfcf0c005727b8]
@startuml
[*] - -> VisiteValide
VisiteValide - -> VisiteAnnulé: annulerVisite()
VisiteAnnulé - ->[*]
VisiteValide - -> GardienIn: checkInParentGardien()
GardienIn - -> VisiteurIn: checkInParentVisiteur()
VisiteurIn - -> VisiteurOut: checkOutParentVisiteur()
VisiteurOut - -> GardientOut: checkOutParentGardien()
GardientOut - -> [*]
@enduml

PlantUML version 1.2021.8beta3(Unknown compile time)
(GPL source distribution)
Java Runtime: Java(TM) SE Runtime Environment
JVM: Java HotSpot(TM) 64-Bit Server VM
Default Encoding: UTF-8
Language: en
Country: US
--></g></svg>