<?xml version="1.0" encoding="UTF-8" standalone="no"?>
<svg
   xmlns:dc="http://purl.org/dc/elements/1.1/"
   xmlns:cc="http://creativecommons.org/ns#"
   xmlns:rdf="http://www.w3.org/1999/02/22-rdf-syntax-ns#"
   xmlns:svg="http://www.w3.org/2000/svg"
   xmlns="http://www.w3.org/2000/svg"
   xmlns:sodipodi="http://sodipodi.sourceforge.net/DTD/sodipodi-0.dtd"
   xmlns:inkscape="http://www.inkscape.org/namespaces/inkscape"
   sodipodi:docname="A39.3.svg"
   inkscape:version="1.0 (4035a4fb49, 2020-05-01)"
   id="svg8"
   version="1.1"
   viewBox="0 0 177.87187 130.48079"
   height="130.48079mm"
   width="177.87187mm">
  <defs
     id="defs2">
    <clipPath
       clipPathUnits="userSpaceOnUse"
       id="clipEmfPath1">
      <path
         d="M 0,0 H 684.70503 V 511.37008 H 0 Z"
         id="path833" />
    </clipPath>
    <pattern
       id="EMFhbasepattern"
       patternUnits="userSpaceOnUse"
       width="6"
       height="6"
       x="0"
       y="0" />
  </defs>
  <sodipodi:namedview
     inkscape:window-maximized="1"
     inkscape:window-y="-8"
     inkscape:window-x="1272"
     inkscape:window-height="1017"
     inkscape:window-width="1920"
     showgrid="false"
     inkscape:document-rotation="0"
     inkscape:current-layer="layer1"
     inkscape:document-units="mm"
     inkscape:cy="255.10806"
     inkscape:cx="386.30409"
     inkscape:zoom="1.979899"
     inkscape:pageshadow="2"
     inkscape:pageopacity="0.0"
     borderopacity="1.0"
     bordercolor="#666666"
     pagecolor="#ffffff"
     id="base" />
  <metadata
     id="metadata5">
    <rdf:RDF>
      <cc:Work
         rdf:about="">
        <dc:format>image/svg+xml</dc:format>
        <dc:type
           rdf:resource="http://purl.org/dc/dcmitype/StillImage" />
        <dc:title></dc:title>
      </cc:Work>
    </rdf:RDF>
  </metadata>
  <g
     transform="translate(-119.70692,-94.26556)"
     id="layer1"
     inkscape:groupmode="layer"
     inkscape:label="Layer 1">
    <path
       transform="matrix(0.26458333,0,0,0.26458333,119.16413,92.768807)"
       style="fill:#000000;fill-opacity:1;fill-rule:evenodd;stroke:none"
       clip-path="url(#clipEmfPath1)"
       d="m 265.94953,55.326935 v -0.994641 l 0.12433,-0.870312 0.24867,-0.870311 0.373,-0.870311 0.373,-0.745981 0.373,-0.745982 0.62167,-0.62165 0.49733,-0.745982 0.62167,-0.49732 0.746,-0.497321 0.746,-0.497321 0.74601,-0.372991 0.87033,-0.37299 0.87034,-0.12433 0.87033,-0.12433 0.99467,-0.124331 0.87033,0.124331 0.87034,0.12433 0.87034,0.12433 0.87033,0.37299 0.746,0.372991 0.746,0.497321 0.746,0.497321 0.62167,0.49732 0.49734,0.745982 0.62166,0.62165 0.37301,0.745982 0.373,0.745981 0.373,0.870311 0.24866,0.870311 0.12434,0.870312 v 0.994641 0 0.870312 l -0.12434,0.870311 -0.24866,0.870311 -0.373,0.870312 -0.373,0.745981 -0.37301,0.745981 -0.62166,0.745981 -0.49734,0.621651 -0.62167,0.621651 -0.746,0.497321 -0.746,0.37299 -0.746,0.372991 -0.87033,0.372991 -0.87034,0.24866 -0.87034,0.12433 h -0.87033 -0.99467 l -0.87033,-0.12433 -0.87034,-0.24866 -0.87033,-0.372991 -0.74601,-0.372991 -0.746,-0.37299 -0.746,-0.497321 -0.62167,-0.621651 -0.49733,-0.621651 -0.62167,-0.745981 -0.373,-0.745981 -0.373,-0.745981 -0.373,-0.870312 -0.24867,-0.870311 -0.12433,-0.870311 z"
       id="path839" />
    <path
       transform="matrix(0.26458333,0,0,0.26458333,119.16413,92.768807)"
       style="fill:none;stroke:#000000;stroke-width:0.373001px;stroke-linecap:round;stroke-linejoin:round;stroke-miterlimit:4;stroke-dasharray:none;stroke-opacity:1"
       clip-path="url(#clipEmfPath1)"
       d="m 265.94953,55.326935 v -0.994641 l 0.12433,-0.870312 0.24867,-0.870311 0.373,-0.870311 0.373,-0.745981 0.373,-0.745982 0.62167,-0.62165 0.49733,-0.745982 0.62167,-0.49732 0.746,-0.497321 0.746,-0.497321 0.74601,-0.372991 0.87033,-0.37299 0.87034,-0.12433 0.87033,-0.12433 0.99467,-0.124331 0.87033,0.124331 0.87034,0.12433 0.87034,0.12433 0.87033,0.37299 0.746,0.372991 0.746,0.497321 0.746,0.497321 0.62167,0.49732 0.49734,0.745982 0.62166,0.62165 0.37301,0.745982 0.373,0.745981 0.373,0.870311 0.24866,0.870311 0.12434,0.870312 v 0.994641 0 0.870312 l -0.12434,0.870311 -0.24866,0.870311 -0.373,0.870312 -0.373,0.745981 -0.37301,0.745981 -0.62166,0.745981 -0.49734,0.621651 -0.62167,0.621651 -0.746,0.497321 -0.746,0.37299 -0.746,0.372991 -0.87033,0.372991 -0.87034,0.24866 -0.87034,0.12433 h -0.87033 -0.99467 l -0.87033,-0.12433 -0.87034,-0.24866 -0.87033,-0.372991 -0.74601,-0.372991 -0.746,-0.37299 -0.746,-0.497321 -0.62167,-0.621651 -0.49733,-0.621651 -0.62167,-0.745981 -0.373,-0.745981 -0.373,-0.745981 -0.373,-0.870312 -0.24867,-0.870311 -0.12433,-0.870311 v -0.870312"
       id="path841" />
    <path
       transform="matrix(0.26458333,0,0,0.26458333,119.16413,92.768807)"
       style="fill:none;stroke:#000000;stroke-width:0.373001px;stroke-linecap:round;stroke-linejoin:round;stroke-miterlimit:4;stroke-dasharray:none;stroke-opacity:1"
       clip-path="url(#clipEmfPath1)"
       d="M 275.02588,55.326935 V 96.355899"
       id="path843" />
    <path
       transform="matrix(0.26458333,0,0,0.26458333,119.16413,92.768807)"
       style="fill:none;stroke:#000000;stroke-width:0.373001px;stroke-linecap:round;stroke-linejoin:round;stroke-miterlimit:4;stroke-dasharray:none;stroke-opacity:1"
       clip-path="url(#clipEmfPath1)"
       d="m 270.42554,82.555247 4.60034,13.800652 4.47601,-13.800652"
       id="path845" />
    <path
       transform="matrix(0.26458333,0,0,0.26458333,119.16413,92.768807)"
       style="fill:none;stroke:#000000;stroke-width:0.373001px;stroke-linecap:round;stroke-linejoin:round;stroke-miterlimit:4;stroke-dasharray:none;stroke-opacity:1"
       clip-path="url(#clipEmfPath1)"
       d="m 275.02588,137.38486 v 14.91962 0.74599 0.74598 l 0.12433,0.74598 0.12434,0.74598 0.12433,0.74598 0.24867,0.62165 0.24866,0.74598 0.24867,0.62165 0.24867,0.74598 0.373,0.62166 0.746,1.2433 0.87034,1.11897 0.99467,0.99464 0.99466,0.99464 1.11901,0.87031 1.24333,0.74599 0.62167,0.37299 0.746,0.24866 0.62167,0.24866 0.746,0.24866 0.62167,0.24866 0.746,0.12433 0.746,0.12433 0.746,0.12433 h 0.746 l 0.87034,0.12433 h 37.30007"
       id="path847" />
    <path
       transform="matrix(0.26458333,0,0,0.26458333,119.16413,92.768807)"
       style="fill:none;stroke:#000000;stroke-width:0.373001px;stroke-linecap:round;stroke-linejoin:round;stroke-miterlimit:4;stroke-dasharray:none;stroke-opacity:1"
       clip-path="url(#clipEmfPath1)"
       d="m 313.44496,171.82433 13.80102,-4.60022 -13.80102,-4.60022"
       id="path849" />
    <path
       transform="matrix(0.26458333,0,0,0.26458333,119.16413,92.768807)"
       style="fill:#ffffff;fill-opacity:1;fill-rule:evenodd;stroke:none"
       clip-path="url(#clipEmfPath1)"
       d="m 260.47885,480.53619 0.12433,-0.74598 v -0.74598 l 0.12434,-0.74598 0.12433,-0.74598 0.12434,-0.62165 0.24866,-0.74599 0.12434,-0.62165 0.373,-0.62165 0.49733,-1.36763 0.746,-1.11897 0.87034,-1.11897 0.87033,-0.99464 1.119,-0.99465 1.11901,-0.87031 1.119,-0.62165 1.24334,-0.62165 0.746,-0.24866 0.62166,-0.24866 0.62167,-0.24866 0.746,-0.12433 0.74601,-0.12433 0.746,-0.12433 h 0.746 0.746 0.62167 0.746 l 0.746,0.12433 0.746,0.12433 0.62167,0.12433 0.746,0.24866 0.62167,0.24866 0.746,0.24866 1.24334,0.62165 1.119,0.62165 1.119,0.87031 1.119,0.99465 0.87034,0.99464 0.87033,1.11897 0.74601,1.11897 0.49733,1.36763 0.24867,0.62165 0.24866,0.62165 0.24867,0.74599 0.12433,0.62165 0.12434,0.74598 0.12433,0.74598 v 0.74598 l 0.12434,0.74598 v 0 l -0.12434,0.74598 v 0.74598 l -0.12433,0.62165 -0.12434,0.74599 -0.12433,0.74598 -0.24867,0.62165 -0.24866,0.74598 -0.24867,0.62165 -0.49733,1.2433 -0.74601,1.2433 -0.87033,0.99465 -0.87034,1.11897 -1.119,0.87031 -1.119,0.87031 -1.119,0.74598 -1.24334,0.62165 -0.746,0.24866 -0.62167,0.12433 -0.746,0.24866 -0.62167,0.12433 -0.746,0.12433 -0.746,0.12433 h -0.746 l -0.62167,0.12433 -0.746,-0.12433 h -0.746 l -0.746,-0.12433 -0.74601,-0.12433 -0.62166,-0.12433 -0.74601,-0.24866 -0.62166,-0.12433 -0.746,-0.24866 -1.24334,-0.62165 -1.119,-0.74598 -1.11901,-0.87031 -1.119,-0.87031 -0.87033,-1.11897 -0.87034,-0.99465 -0.746,-1.2433 -0.49733,-1.2433 -0.373,-0.62165 -0.12434,-0.74598 -0.24866,-0.62165 -0.12434,-0.74598 -0.12433,-0.74599 -0.12434,-0.62165 v -0.74598 z"
       id="path851" />
    <path
       transform="matrix(0.26458333,0,0,0.26458333,119.16413,92.768807)"
       style="fill:none;stroke:#000000;stroke-width:0.373001px;stroke-linecap:round;stroke-linejoin:round;stroke-miterlimit:4;stroke-dasharray:none;stroke-opacity:1"
       clip-path="url(#clipEmfPath1)"
       d="m 260.47885,480.53619 0.12433,-0.74598 v -0.74598 l 0.12434,-0.74598 0.12433,-0.74598 0.12434,-0.62165 0.24866,-0.74599 0.12434,-0.62165 0.373,-0.62165 0.49733,-1.36763 0.746,-1.11897 0.87034,-1.11897 0.87033,-0.99464 1.119,-0.99465 1.11901,-0.87031 1.119,-0.62165 1.24334,-0.62165 0.746,-0.24866 0.62166,-0.24866 0.62167,-0.24866 0.746,-0.12433 0.74601,-0.12433 0.746,-0.12433 h 0.746 0.746 0.62167 0.746 l 0.746,0.12433 0.746,0.12433 0.62167,0.12433 0.746,0.24866 0.62167,0.24866 0.746,0.24866 1.24334,0.62165 1.119,0.62165 1.119,0.87031 1.119,0.99465 0.87034,0.99464 0.87033,1.11897 0.74601,1.11897 0.49733,1.36763 0.24867,0.62165 0.24866,0.62165 0.24867,0.74599 0.12433,0.62165 0.12434,0.74598 0.12433,0.74598 v 0.74598 l 0.12434,0.74598 v 0 l -0.12434,0.74598 v 0.74598 l -0.12433,0.62165 -0.12434,0.74599 -0.12433,0.74598 -0.24867,0.62165 -0.24866,0.74598 -0.24867,0.62165 -0.49733,1.2433 -0.74601,1.2433 -0.87033,0.99465 -0.87034,1.11897 -1.119,0.87031 -1.119,0.87031 -1.119,0.74598 -1.24334,0.62165 -0.746,0.24866 -0.62167,0.12433 -0.746,0.24866 -0.62167,0.12433 -0.746,0.12433 -0.746,0.12433 h -0.746 l -0.62167,0.12433 -0.746,-0.12433 h -0.746 l -0.746,-0.12433 -0.74601,-0.12433 -0.62166,-0.12433 -0.74601,-0.24866 -0.62166,-0.12433 -0.746,-0.24866 -1.24334,-0.62165 -1.119,-0.74598 -1.11901,-0.87031 -1.119,-0.87031 -0.87033,-1.11897 -0.87034,-0.99465 -0.746,-1.2433 -0.49733,-1.2433 -0.373,-0.62165 -0.12434,-0.74598 -0.24866,-0.62165 -0.12434,-0.74598 -0.12433,-0.74599 -0.12434,-0.62165 v -0.74598 l -0.12433,-0.74598"
       id="path853" />
    <path
       transform="matrix(0.26458333,0,0,0.26458333,119.16413,92.768807)"
       style="fill:#000000;fill-opacity:1;fill-rule:evenodd;stroke:none"
       clip-path="url(#clipEmfPath1)"
       d="m 265.94953,480.53619 v -0.99464 l 0.12433,-0.87031 0.24867,-0.87031 0.373,-0.87031 0.373,-0.74599 0.373,-0.74598 0.62167,-0.62165 0.49733,-0.74598 0.62167,-0.49732 0.746,-0.49732 0.746,-0.49732 0.74601,-0.37299 0.87033,-0.37299 0.87034,-0.12433 0.87033,-0.12433 0.99467,-0.12433 0.87033,0.12433 0.87034,0.12433 0.87034,0.12433 0.87033,0.37299 0.746,0.37299 0.746,0.49732 0.746,0.49732 0.62167,0.49732 0.49734,0.74598 0.62166,0.62165 0.37301,0.74598 0.373,0.74599 0.373,0.87031 0.24866,0.87031 0.12434,0.87031 v 0.99464 0 0.87031 l -0.12434,0.87031 -0.24866,0.87032 -0.373,0.87031 -0.373,0.74598 -0.37301,0.74598 -0.62166,0.74598 -0.49734,0.62165 -0.62167,0.62165 -0.746,0.49732 -0.746,0.37299 -0.746,0.37299 -0.87033,0.37299 -0.87034,0.24866 -0.87034,0.12433 h -0.87033 -0.99467 l -0.87033,-0.12433 -0.87034,-0.24866 -0.87033,-0.37299 -0.74601,-0.37299 -0.746,-0.37299 -0.746,-0.49732 -0.62167,-0.62165 -0.49733,-0.62165 -0.62167,-0.74598 -0.373,-0.74598 -0.373,-0.74598 -0.373,-0.87031 -0.24867,-0.87032 -0.12433,-0.87031 z"
       id="path855" />
    <path
       transform="matrix(0.26458333,0,0,0.26458333,119.16413,92.768807)"
       style="fill:none;stroke:#000000;stroke-width:0.373001px;stroke-linecap:round;stroke-linejoin:round;stroke-miterlimit:4;stroke-dasharray:none;stroke-opacity:1"
       clip-path="url(#clipEmfPath1)"
       d="m 265.94953,480.53619 v -0.99464 l 0.12433,-0.87031 0.24867,-0.87031 0.373,-0.87031 0.373,-0.74599 0.373,-0.74598 0.62167,-0.62165 0.49733,-0.74598 0.62167,-0.49732 0.746,-0.49732 0.746,-0.49732 0.74601,-0.37299 0.87033,-0.37299 0.87034,-0.12433 0.87033,-0.12433 0.99467,-0.12433 0.87033,0.12433 0.87034,0.12433 0.87034,0.12433 0.87033,0.37299 0.746,0.37299 0.746,0.49732 0.746,0.49732 0.62167,0.49732 0.49734,0.74598 0.62166,0.62165 0.37301,0.74598 0.373,0.74599 0.373,0.87031 0.24866,0.87031 0.12434,0.87031 v 0.99464 0 0.87031 l -0.12434,0.87031 -0.24866,0.87032 -0.373,0.87031 -0.373,0.74598 -0.37301,0.74598 -0.62166,0.74598 -0.49734,0.62165 -0.62167,0.62165 -0.746,0.49732 -0.746,0.37299 -0.746,0.37299 -0.87033,0.37299 -0.87034,0.24866 -0.87034,0.12433 h -0.87033 -0.99467 l -0.87033,-0.12433 -0.87034,-0.24866 -0.87033,-0.37299 -0.74601,-0.37299 -0.746,-0.37299 -0.746,-0.49732 -0.62167,-0.62165 -0.49733,-0.62165 -0.62167,-0.74598 -0.373,-0.74598 -0.373,-0.74598 -0.373,-0.87031 -0.24867,-0.87032 -0.12433,-0.87031 v -0.87031"
       id="path857" />
    <path
       transform="matrix(0.26458333,0,0,0.26458333,119.16413,92.768807)"
       style="fill:none;stroke:#000000;stroke-width:0.373001px;stroke-linecap:round;stroke-linejoin:round;stroke-miterlimit:4;stroke-dasharray:none;stroke-opacity:1"
       clip-path="url(#clipEmfPath1)"
       d="m 275.02588,432.04742 v 34.06647"
       id="path859" />
    <path
       transform="matrix(0.26458333,0,0,0.26458333,119.16413,92.768807)"
       style="fill:none;stroke:#000000;stroke-width:0.373001px;stroke-linecap:round;stroke-linejoin:round;stroke-miterlimit:4;stroke-dasharray:none;stroke-opacity:1"
       clip-path="url(#clipEmfPath1)"
       d="m 270.42554,452.31324 4.60034,13.80065 4.47601,-13.80065"
       id="path861" />
    <path
       transform="matrix(0.26458333,0,0,0.26458333,119.16413,92.768807)"
       style="fill:none;stroke:#000000;stroke-width:1.24334px;stroke-linecap:round;stroke-linejoin:round;stroke-miterlimit:4;stroke-dasharray:none;stroke-opacity:1"
       clip-path="url(#clipEmfPath1)"
       d="M 413.03615,18.027878 V 497.07211"
       id="path863" />
    <g
       transform="matrix(0.26458333,0,0,0.26458333,119.16413,92.768807)"
       clip-path="url(#clipEmfPath1)"
       id="g877">
      <text
         xml:space="preserve"
         style="font-style:normal;font-variant:normal;font-weight:700;font-size:13.3125px;line-height:125%;font-family:Arial;text-align:start;letter-spacing:0px;word-spacing:0px;text-anchor:start;fill:#000000;fill-opacity:1;stroke:none"
         transform="translate(438.15154,36.926067)"
         x="0"
         y="0"
         id="text869"><tspan
           sodipodi:role="line"
           x="0"
           y="0"
           id="tspan867"><tspan
             dx="0"
             dy="0"
             style="font-style:normal;font-variant:normal;font-weight:700;font-size:13.3125px;font-family:Arial;fill:#000000"
             id="tspan865">Tax Calculator</tspan></tspan></text>
      <text
         xml:space="preserve"
         style="font-style:normal;font-variant:normal;font-weight:700;font-size:13.3125px;line-height:125%;font-family:Arial;text-align:start;letter-spacing:0px;word-spacing:0px;text-anchor:start;fill:#000000;fill-opacity:1;stroke:none"
         transform="translate(438.15154,36.926067)"
         x="-202.5394"
         y="0"
         id="text875"><tspan
           sodipodi:role="line"
           x="-202.5394"
           y="0"
           id="tspan873"><tspan
             dx="0"
             dy="0"
             style="font-style:normal;font-variant:normal;font-weight:700;font-size:13.3125px;font-family:Arial;fill:#000000"
             id="tspan871">NextGen POS</tspan></tspan></text>
    </g>
    <path
       transform="matrix(0.26458333,0,0,0.26458333,119.16413,92.768807)"
       style="fill:none;stroke:#000000;stroke-width:0.373001px;stroke-linecap:round;stroke-linejoin:round;stroke-miterlimit:4;stroke-dasharray:none;stroke-opacity:1"
       clip-path="url(#clipEmfPath1)"
       d="M 401.84613,182.14373 V 152.30448 Z"
       id="path879" />
    <path
       transform="matrix(0.26458333,0,0,0.26458333,119.16413,92.768807)"
       style="fill:none;stroke:#000000;stroke-width:0.373001px;stroke-linecap:round;stroke-linejoin:round;stroke-miterlimit:4;stroke-dasharray:none;stroke-opacity:1"
       clip-path="url(#clipEmfPath1)"
       d="M 401.84613,182.14373 H 327.24598 Z"
       id="path881" />
    <path
       transform="matrix(0.26458333,0,0,0.26458333,119.16413,92.768807)"
       style="fill:none;stroke:#000000;stroke-width:0.373001px;stroke-linecap:round;stroke-linejoin:round;stroke-miterlimit:4;stroke-dasharray:none;stroke-opacity:1"
       clip-path="url(#clipEmfPath1)"
       d="M 401.84613,182.14373 H 327.24598 Z"
       id="path883" />
    <path
       transform="matrix(0.26458333,0,0,0.26458333,119.16413,92.768807)"
       style="fill:none;stroke:#000000;stroke-width:0.373001px;stroke-linecap:round;stroke-linejoin:round;stroke-miterlimit:4;stroke-dasharray:none;stroke-opacity:1"
       clip-path="url(#clipEmfPath1)"
       d="M 401.84613,182.14373 H 327.24598 Z"
       id="path885" />
    <path
       transform="matrix(0.26458333,0,0,0.26458333,119.16413,92.768807)"
       style="fill:#ffffff;fill-opacity:1;fill-rule:evenodd;stroke:none"
       clip-path="url(#clipEmfPath1)"
       d="m 327.24598,152.30448 v 29.83925 h 74.60015 v -29.83925 z"
       id="path887" />
    <path
       transform="matrix(0.26458333,0,0,0.26458333,119.16413,92.768807)"
       style="fill:none;stroke:#000000;stroke-width:0.373001px;stroke-linecap:round;stroke-linejoin:round;stroke-miterlimit:4;stroke-dasharray:none;stroke-opacity:1"
       clip-path="url(#clipEmfPath1)"
       d="m 401.84613,182.14373 v -29.83925 h -74.60015 v 29.83925 z"
       id="path889" />
    <path
       transform="matrix(0.26458333,0,0,0.26458333,119.16413,92.768807)"
       style="fill:none;stroke:#000000;stroke-width:0.373001px;stroke-linecap:round;stroke-linejoin:round;stroke-miterlimit:4;stroke-dasharray:none;stroke-opacity:1"
       clip-path="url(#clipEmfPath1)"
       d="m 401.84613,182.14373 v -29.83925 h -74.60015 v 29.83925 z"
       id="path891" />
    <g
       transform="matrix(0.26458333,0,0,0.26458333,119.16413,92.768807)"
       clip-path="url(#clipEmfPath1)"
       id="g899">
      <text
         xml:space="preserve"
         style="font-style:normal;font-variant:normal;font-weight:400;font-size:13.3125px;line-height:125%;font-family:Arial;text-align:start;letter-spacing:0px;word-spacing:0px;text-anchor:start;fill:#000000;fill-opacity:1;stroke:none"
         transform="translate(351.24236,171.20267)"
         x="0"
         y="0"
         id="text897"><tspan
           sodipodi:role="line"
           x="0"
           y="0"
           id="tspan895"><tspan
             dx="0"
             dy="0"
             style="font-style:normal;font-variant:normal;font-weight:400;font-size:13.3125px;font-family:Arial;fill:#000000"
             id="tspan893">Sale</tspan></tspan></text>
    </g>
    <path
       transform="matrix(0.26458333,0,0,0.26458333,119.16413,92.768807)"
       style="fill:none;stroke:#000000;stroke-width:0.373001px;stroke-linecap:round;stroke-linejoin:round;stroke-miterlimit:4;stroke-dasharray:none;stroke-opacity:1"
       clip-path="url(#clipEmfPath1)"
       d="m 401.84613,167.22411 h 48.4901"
       id="path901" />
    <path
       transform="matrix(0.26458333,0,0,0.26458333,119.16413,92.768807)"
       style="fill:none;stroke:#000000;stroke-width:0.373001px;stroke-linecap:round;stroke-linejoin:round;stroke-miterlimit:4;stroke-dasharray:none;stroke-opacity:1"
       clip-path="url(#clipEmfPath1)"
       d="m 436.5352,171.82433 13.80103,-4.60022 -13.80103,-4.60022"
       id="path903" />
    <path
       transform="matrix(0.26458333,0,0,0.26458333,119.16413,92.768807)"
       style="fill:none;stroke:#000000;stroke-width:0.373001px;stroke-linecap:round;stroke-linejoin:round;stroke-miterlimit:4;stroke-dasharray:none;stroke-opacity:1"
       clip-path="url(#clipEmfPath1)"
       d="m 470.85127,187.73859 h 48.4901 z"
       id="path905" />
    <path
       transform="matrix(0.26458333,0,0,0.26458333,119.16413,92.768807)"
       style="fill:none;stroke:#000000;stroke-width:0.373001px;stroke-linecap:round;stroke-linejoin:round;stroke-miterlimit:4;stroke-dasharray:none;stroke-opacity:1"
       clip-path="url(#clipEmfPath1)"
       d="m 470.85127,187.73859 h 48.4901 z"
       id="path907" />
    <path
       transform="matrix(0.26458333,0,0,0.26458333,119.16413,92.768807)"
       style="fill:#ffffff;fill-opacity:1;fill-rule:evenodd;stroke:none"
       clip-path="url(#clipEmfPath1)"
       d="m 450.33623,167.22411 v -1.11897 -0.99465 l 0.12433,-0.99464 0.24867,-1.11897 0.24867,-0.99464 0.24866,-0.87031 0.373,-0.99464 0.373,-0.99464 0.37301,-0.87032 0.373,-0.87031 0.49733,-0.87031 0.62167,-0.87031 0.49733,-0.74598 0.62167,-0.74598 0.62167,-0.74598 0.746,-0.74598 0.746,-0.62166 0.746,-0.74598 0.746,-0.49732 0.74601,-0.62165 0.87033,-0.49732 0.87034,-0.49732 0.87033,-0.49732 0.87034,-0.37299 0.99466,-0.37299 0.99467,-0.37299 0.87034,-0.24866 0.99467,-0.24866 0.99467,-0.12433 1.119,-0.12433 0.99467,-0.12433 h 1.119 v 0 h 48.4901 0.99466 l 0.99467,0.12433 1.119,0.12433 0.99467,0.12433 0.99467,0.24866 0.99467,0.24866 0.87034,0.37299 0.99466,0.37299 0.87034,0.37299 0.87033,0.49732 0.87034,0.49732 0.87033,0.49732 0.74601,0.62165 0.87033,0.49732 0.746,0.74598 0.62167,0.62166 0.746,0.74598 0.62167,0.74598 0.62167,0.74598 0.49733,0.74598 0.62167,0.87031 0.49733,0.87031 0.37301,0.87031 0.49733,0.87032 0.373,0.99464 0.24867,0.99464 0.24866,0.87031 0.24867,0.99464 0.24867,1.11897 0.12433,0.99464 v 0.99465 l 0.12434,1.11897 v 0 l -0.12434,0.99464 v 1.11897 l -0.12433,0.99464 -0.24867,0.99464 -0.24867,0.99465 -0.24866,0.99464 -0.24867,0.87031 -0.373,0.99464 -0.49733,0.87031 -0.37301,0.87031 -0.49733,0.87031 -0.62167,0.87032 -0.49733,0.74598 -0.62167,0.87031 -0.62167,0.74598 -0.746,0.62165 -0.62167,0.74598 -0.746,0.62165 -0.87033,0.62165 -0.74601,0.62165 -0.87033,0.49732 -0.87034,0.49733 -0.87033,0.37299 -0.87034,0.49732 -0.99466,0.37299 -0.87034,0.24866 -0.99467,0.37299 -0.99467,0.12433 -0.99467,0.24866 -1.119,0.12433 -0.99467,0.12433 h -0.99466 -48.4901 -1.119 l -0.99467,-0.12433 -1.119,-0.12433 -0.99467,-0.24866 -0.99467,-0.12433 -0.87034,-0.37299 -0.99467,-0.24866 -0.99466,-0.37299 -0.87034,-0.49732 -0.87033,-0.37299 -0.87034,-0.49733 -0.87033,-0.49732 -0.74601,-0.62165 -0.746,-0.62165 -0.746,-0.62165 -0.746,-0.74598 -0.746,-0.62165 -0.62167,-0.74598 -0.62167,-0.87031 -0.49733,-0.74598 -0.62167,-0.87032 -0.49733,-0.87031 -0.373,-0.87031 -0.37301,-0.87031 -0.373,-0.99464 -0.373,-0.87031 -0.24866,-0.99464 -0.24867,-0.99465 -0.24867,-0.99464 -0.12433,-0.99464 v -1.11897 z"
       id="path909" />
    <path
       transform="matrix(0.26458333,0,0,0.26458333,119.16413,92.768807)"
       style="fill:none;stroke:#000000;stroke-width:0.373001px;stroke-linecap:round;stroke-linejoin:round;stroke-miterlimit:4;stroke-dasharray:none;stroke-opacity:1"
       clip-path="url(#clipEmfPath1)"
       d="m 450.33623,167.22411 v -1.11897 -0.99465 l 0.12433,-0.99464 0.24867,-1.11897 0.24867,-0.99464 0.24866,-0.87031 0.373,-0.99464 0.373,-0.99464 0.37301,-0.87032 0.373,-0.87031 0.49733,-0.87031 0.62167,-0.87031 0.49733,-0.74598 0.62167,-0.74598 0.62167,-0.74598 0.746,-0.74598 0.746,-0.62166 0.746,-0.74598 0.746,-0.49732 0.74601,-0.62165 0.87033,-0.49732 0.87034,-0.49732 0.87033,-0.49732 0.87034,-0.37299 0.99466,-0.37299 0.99467,-0.37299 0.87034,-0.24866 0.99467,-0.24866 0.99467,-0.12433 1.119,-0.12433 0.99467,-0.12433 h 1.119 v 0 h 48.4901 0.99466 l 0.99467,0.12433 1.119,0.12433 0.99467,0.12433 0.99467,0.24866 0.99467,0.24866 0.87034,0.37299 0.99466,0.37299 0.87034,0.37299 0.87033,0.49732 0.87034,0.49732 0.87033,0.49732 0.74601,0.62165 0.87033,0.49732 0.746,0.74598 0.62167,0.62166 0.746,0.74598 0.62167,0.74598 0.62167,0.74598 0.49733,0.74598 0.62167,0.87031 0.49733,0.87031 0.37301,0.87031 0.49733,0.87032 0.373,0.99464 0.24867,0.99464 0.24866,0.87031 0.24867,0.99464 0.24867,1.11897 0.12433,0.99464 v 0.99465 l 0.12434,1.11897 v 0 l -0.12434,0.99464 v 1.11897 l -0.12433,0.99464 -0.24867,0.99464 -0.24867,0.99465 -0.24866,0.99464 -0.24867,0.87031 -0.373,0.99464 -0.49733,0.87031 -0.37301,0.87031 -0.49733,0.87031 -0.62167,0.87032 -0.49733,0.74598 -0.62167,0.87031 -0.62167,0.74598 -0.746,0.62165 -0.62167,0.74598 -0.746,0.62165 -0.87033,0.62165 -0.74601,0.62165 -0.87033,0.49732 -0.87034,0.49733 -0.87033,0.37299 -0.87034,0.49732 -0.99466,0.37299 -0.87034,0.24866 -0.99467,0.37299 -0.99467,0.12433 -0.99467,0.24866 -1.119,0.12433 -0.99467,0.12433 h -0.99466 -48.4901 -1.119 l -0.99467,-0.12433 -1.119,-0.12433 -0.99467,-0.24866 -0.99467,-0.12433 -0.87034,-0.37299 -0.99467,-0.24866 -0.99466,-0.37299 -0.87034,-0.49732 -0.87033,-0.37299 -0.87034,-0.49733 -0.87033,-0.49732 -0.74601,-0.62165 -0.746,-0.62165 -0.746,-0.62165 -0.746,-0.74598 -0.746,-0.62165 -0.62167,-0.74598 -0.62167,-0.87031 -0.49733,-0.74598 -0.62167,-0.87032 -0.49733,-0.87031 -0.373,-0.87031 -0.37301,-0.87031 -0.373,-0.99464 -0.373,-0.87031 -0.24866,-0.99464 -0.24867,-0.99465 -0.24867,-0.99464 -0.12433,-0.99464 v -1.11897 -0.99464 0"
       id="path911" />
    <g
       transform="matrix(0.26458333,0,0,0.26458333,119.16413,92.768807)"
       clip-path="url(#clipEmfPath1)"
       id="g919">
      <text
         xml:space="preserve"
         style="font-style:normal;font-variant:normal;font-weight:400;font-size:13.3125px;line-height:125%;font-family:Arial;text-align:start;letter-spacing:0px;word-spacing:0px;text-anchor:start;fill:#000000;fill-opacity:1;stroke:none"
         transform="translate(461.89925,171.20267)"
         x="0"
         y="0"
         id="text917"><tspan
           sodipodi:role="line"
           x="0"
           y="0"
           id="tspan915"><tspan
             dx="0"
             dy="0"
             style="font-style:normal;font-variant:normal;font-weight:400;font-size:13.3125px;font-family:Arial;fill:#000000"
             id="tspan913">Calc Taxes</tspan></tspan></text>
    </g>
    <path
       transform="matrix(0.26458333,0,0,0.26458333,119.16413,92.768807)"
       style="fill:none;stroke:#000000;stroke-width:0.373001px;stroke-linecap:round;stroke-linejoin:round;stroke-miterlimit:4;stroke-dasharray:none;stroke-opacity:1"
       clip-path="url(#clipEmfPath1)"
       d="m 235.8608,266.06661 h 78.33016 z"
       id="path921" />
    <path
       transform="matrix(0.26458333,0,0,0.26458333,119.16413,92.768807)"
       style="fill:none;stroke:#000000;stroke-width:0.373001px;stroke-linecap:round;stroke-linejoin:round;stroke-miterlimit:4;stroke-dasharray:none;stroke-opacity:1"
       clip-path="url(#clipEmfPath1)"
       d="m 235.8608,266.06661 h 78.33016 z"
       id="path923" />
    <path
       transform="matrix(0.26458333,0,0,0.26458333,119.16413,92.768807)"
       style="fill:#ffffff;fill-opacity:1;fill-rule:evenodd;stroke:none"
       clip-path="url(#clipEmfPath1)"
       d="m 215.34576,245.55213 v -1.11897 -0.99464 l 0.12433,-0.99465 0.24867,-1.11897 0.24867,-0.99464 0.24867,-0.87031 0.373,-0.99464 0.24866,-0.99464 0.49734,-0.87032 0.373,-0.87031 0.49733,-0.87031 0.62167,-0.87031 0.49734,-0.74598 0.62166,-0.74598 0.62167,-0.74598 0.746,-0.74598 0.746,-0.62165 0.74601,-0.74599 0.746,-0.62165 0.746,-0.49732 0.87033,-0.49732 0.87034,-0.49732 0.87033,-0.49732 0.87034,-0.37299 0.99467,-0.37299 0.87033,-0.37299 0.99467,-0.24866 0.99467,-0.24866 0.99467,-0.12433 1.119,-0.24866 h 0.99467 1.119 v 0 h 78.33016 0.99467 0.99466 l 1.11901,0.24866 0.99467,0.12433 0.99466,0.24866 0.99467,0.24866 0.87034,0.37299 0.99467,0.37299 0.87033,0.37299 0.87034,0.49732 0.87033,0.49732 0.87034,0.49732 0.746,0.49732 0.746,0.62165 0.746,0.74599 0.746,0.62165 0.746,0.74598 0.62167,0.74598 0.62167,0.74598 0.49733,0.74598 0.62167,0.87031 0.49734,0.87031 0.373,0.87031 0.49733,0.87032 0.373,0.99464 0.24867,0.99464 0.24867,0.87031 0.24866,0.99464 0.24867,1.11897 0.12433,0.99465 v 0.99464 l 0.12434,1.11897 v 0 l -0.12434,0.99464 v 1.11897 l -0.12433,0.99464 -0.24867,0.99465 -0.24866,0.99464 -0.24867,0.99464 -0.24867,0.87031 -0.373,0.99464 -0.49733,0.87031 -0.373,0.87031 -0.49734,0.87032 -0.62167,0.87031 -0.49733,0.74598 -0.62167,0.87031 -0.62167,0.74598 -0.746,0.62165 -0.746,0.74598 -0.746,0.62165 -0.746,0.62165 -0.746,0.49732 -0.87034,0.62166 -0.87033,0.49732 -0.87034,0.37299 -0.87033,0.49732 -0.99467,0.37299 -0.87034,0.24866 -0.99467,0.24866 -0.99466,0.24866 -0.99467,0.24866 -1.11901,0.12433 h -0.99466 l -0.99467,0.12433 v 0 H 235.8608 l -1.119,-0.12433 h -0.99467 l -1.119,-0.12433 -0.99467,-0.24866 -0.99467,-0.24866 -0.99467,-0.24866 -0.87033,-0.24866 -0.99467,-0.37299 -0.87034,-0.49732 -0.87033,-0.37299 -0.87034,-0.49732 -0.87033,-0.62166 -0.746,-0.49732 -0.746,-0.62165 -0.74601,-0.62165 -0.746,-0.74598 -0.746,-0.62165 -0.62167,-0.74598 -0.62166,-0.87031 -0.49734,-0.74598 -0.62167,-0.87031 -0.49733,-0.87032 -0.373,-0.87031 -0.49734,-0.87031 -0.24866,-0.99464 -0.373,-0.87031 -0.24867,-0.99464 -0.24867,-0.99464 -0.24867,-0.99465 -0.12433,-0.99464 v -1.11897 z"
       id="path925" />
    <path
       transform="matrix(0.26458333,0,0,0.26458333,119.16413,92.768807)"
       style="fill:none;stroke:#000000;stroke-width:0.373001px;stroke-linecap:round;stroke-linejoin:round;stroke-miterlimit:4;stroke-dasharray:none;stroke-opacity:1"
       clip-path="url(#clipEmfPath1)"
       d="m 215.34576,245.55213 v -1.11897 -0.99464 l 0.12433,-0.99465 0.24867,-1.11897 0.24867,-0.99464 0.24867,-0.87031 0.373,-0.99464 0.24866,-0.99464 0.49734,-0.87032 0.373,-0.87031 0.49733,-0.87031 0.62167,-0.87031 0.49734,-0.74598 0.62166,-0.74598 0.62167,-0.74598 0.746,-0.74598 0.746,-0.62165 0.74601,-0.74599 0.746,-0.62165 0.746,-0.49732 0.87033,-0.49732 0.87034,-0.49732 0.87033,-0.49732 0.87034,-0.37299 0.99467,-0.37299 0.87033,-0.37299 0.99467,-0.24866 0.99467,-0.24866 0.99467,-0.12433 1.119,-0.24866 h 0.99467 1.119 v 0 h 78.33016 0.99467 0.99466 l 1.11901,0.24866 0.99467,0.12433 0.99466,0.24866 0.99467,0.24866 0.87034,0.37299 0.99467,0.37299 0.87033,0.37299 0.87034,0.49732 0.87033,0.49732 0.87034,0.49732 0.746,0.49732 0.746,0.62165 0.746,0.74599 0.746,0.62165 0.746,0.74598 0.62167,0.74598 0.62167,0.74598 0.49733,0.74598 0.62167,0.87031 0.49734,0.87031 0.373,0.87031 0.49733,0.87032 0.373,0.99464 0.24867,0.99464 0.24867,0.87031 0.24866,0.99464 0.24867,1.11897 0.12433,0.99465 v 0.99464 l 0.12434,1.11897 v 0 l -0.12434,0.99464 v 1.11897 l -0.12433,0.99464 -0.24867,0.99465 -0.24866,0.99464 -0.24867,0.99464 -0.24867,0.87031 -0.373,0.99464 -0.49733,0.87031 -0.373,0.87031 -0.49734,0.87032 -0.62167,0.87031 -0.49733,0.74598 -0.62167,0.87031 -0.62167,0.74598 -0.746,0.62165 -0.746,0.74598 -0.746,0.62165 -0.746,0.62165 -0.746,0.49732 -0.87034,0.62166 -0.87033,0.49732 -0.87034,0.37299 -0.87033,0.49732 -0.99467,0.37299 -0.87034,0.24866 -0.99467,0.24866 -0.99466,0.24866 -0.99467,0.24866 -1.11901,0.12433 h -0.99466 l -0.99467,0.12433 v 0 H 235.8608 l -1.119,-0.12433 h -0.99467 l -1.119,-0.12433 -0.99467,-0.24866 -0.99467,-0.24866 -0.99467,-0.24866 -0.87033,-0.24866 -0.99467,-0.37299 -0.87034,-0.49732 -0.87033,-0.37299 -0.87034,-0.49732 -0.87033,-0.62166 -0.746,-0.49732 -0.746,-0.62165 -0.74601,-0.62165 -0.746,-0.74598 -0.746,-0.62165 -0.62167,-0.74598 -0.62166,-0.87031 -0.49734,-0.74598 -0.62167,-0.87031 -0.49733,-0.87032 -0.373,-0.87031 -0.49734,-0.87031 -0.24866,-0.99464 -0.373,-0.87031 -0.24867,-0.99464 -0.24867,-0.99464 -0.24867,-0.99465 -0.12433,-0.99464 v -1.11897 -0.99464 0"
       id="path927" />
    <g
       transform="matrix(0.26458333,0,0,0.26458333,119.16413,92.768807)"
       clip-path="url(#clipEmfPath1)"
       id="g939">
      <text
         xml:space="preserve"
         style="font-style:normal;font-variant:normal;font-weight:400;font-size:13.3125px;line-height:119.544%;font-family:Arial;text-align:center;letter-spacing:0px;word-spacing:0px;text-anchor:middle;fill:#000000;fill-opacity:1;stroke:none"
         transform="translate(222.18411,241.57356)"
         x="52.908737"
         y="0"
         id="text937"><tspan
           sodipodi:role="line"
           x="52.908737"
           y="0"
           id="tspan931"><tspan
             dx="0"
             dy="0"
             style="font-style:normal;font-variant:normal;font-weight:400;font-size:13.3125px;font-family:Arial;fill:#000000"
             id="tspan929">Request Payment</tspan></tspan><tspan
           sodipodi:role="line"
           x="52.908737"
           y="15.914294"
           id="tspan935"><tspan
             dx="0"
             dy="0"
             style="font-style:normal;font-variant:normal;font-weight:400;font-size:13.3125px;font-family:Arial;fill:#000000"
             id="tspan933">Authorization</tspan></tspan></text>
    </g>
    <path
       transform="matrix(0.26458333,0,0,0.26458333,119.16413,92.768807)"
       style="fill:none;stroke:#000000;stroke-width:0.373001px;stroke-linecap:round;stroke-linejoin:round;stroke-miterlimit:4;stroke-dasharray:none;stroke-opacity:1"
       clip-path="url(#clipEmfPath1)"
       d="m 495.09632,187.73859 v 5.96785 l -0.12434,0.62165 v 0.62165 l -0.24866,0.62165 -0.12434,0.49732 -0.24866,0.62165 -0.37301,0.49732 -0.373,0.37299 -0.373,0.49733 -0.373,0.37299 -0.49733,0.37299 -0.49734,0.24866 -0.49733,0.24866 -0.62167,0.24866 -0.49733,0.12433 -0.62167,0.12433 h -0.62167 -201.4204 -0.62167 l -0.746,0.12433 h -0.62167 l -0.62166,0.12433 -1.11901,0.37299 -1.24333,0.37299 -1.119,0.49732 -0.99467,0.62165 -0.99467,0.74598 -0.87034,0.87031 -0.746,0.87032 -0.746,0.99464 -0.62167,0.99464 -0.62167,1.11897 -0.373,1.11897 -0.24866,1.2433 -0.12434,0.62165 -0.12433,0.62166 v 0.62165 0.62165 12.68168"
       id="path941" />
    <path
       transform="matrix(0.26458333,0,0,0.26458333,119.16413,92.768807)"
       style="fill:none;stroke:#000000;stroke-width:0.373001px;stroke-linecap:round;stroke-linejoin:round;stroke-miterlimit:4;stroke-dasharray:none;stroke-opacity:1"
       clip-path="url(#clipEmfPath1)"
       d="m 270.42554,211.237 4.60034,13.80065 4.47601,-13.80065"
       id="path943" />
    <path
       transform="matrix(0.26458333,0,0,0.26458333,119.16413,92.768807)"
       style="fill:none;stroke:#000000;stroke-width:0.373001px;stroke-linecap:round;stroke-linejoin:round;stroke-miterlimit:4;stroke-dasharray:none;stroke-opacity:1"
       clip-path="url(#clipEmfPath1)"
       d="m 235.8608,137.38486 h 78.33016 z"
       id="path945" />
    <path
       transform="matrix(0.26458333,0,0,0.26458333,119.16413,92.768807)"
       style="fill:none;stroke:#000000;stroke-width:0.373001px;stroke-linecap:round;stroke-linejoin:round;stroke-miterlimit:4;stroke-dasharray:none;stroke-opacity:1"
       clip-path="url(#clipEmfPath1)"
       d="m 235.8608,137.38486 h 78.33016 z"
       id="path947" />
    <path
       transform="matrix(0.26458333,0,0,0.26458333,119.16413,92.768807)"
       style="fill:#ffffff;fill-opacity:1;fill-rule:evenodd;stroke:none"
       clip-path="url(#clipEmfPath1)"
       d="m 215.34576,116.87038 v -1.11897 -0.99464 l 0.12433,-0.99464 0.24867,-1.11898 0.24867,-0.99464 0.24867,-0.87031 0.373,-0.99464 0.24866,-0.99464 0.49734,-0.87031 0.373,-0.87031 0.49733,-0.87032 0.62167,-0.87031 0.49734,-0.74598 0.62166,-0.74598 0.62167,-0.74598 0.746,-0.74598 0.746,-0.62165 0.74601,-0.74598 0.746,-0.62166 0.746,-0.497316 0.87033,-0.497321 0.87034,-0.497321 0.87033,-0.49732 0.87034,-0.372991 0.99467,-0.37299 0.87033,-0.372991 0.99467,-0.24866 0.99467,-0.248661 0.99467,-0.12433 1.119,-0.24866 h 0.99467 1.119 v 0 h 78.33016 0.99467 0.99466 l 1.11901,0.24866 0.99467,0.12433 0.99466,0.248661 0.99467,0.24866 0.87034,0.372991 0.99467,0.37299 0.87033,0.372991 0.87034,0.49732 0.87033,0.497321 0.87034,0.497321 0.746,0.497316 0.746,0.62166 0.746,0.74598 0.746,0.62165 0.746,0.74598 0.62167,0.74598 0.62167,0.74598 0.49733,0.74598 0.62167,0.87031 0.49734,0.87032 0.373,0.87031 0.49733,0.87031 0.373,0.99464 0.24867,0.99464 0.24867,0.87031 0.24866,0.99464 0.24867,1.11898 0.12433,0.99464 v 0.99464 l 0.12434,1.11897 v 0 l -0.12434,0.99464 v 1.11897 l -0.12433,0.99465 -0.24867,0.99464 -0.24866,0.99464 -0.24867,0.99464 -0.24867,0.87031 -0.373,0.99464 -0.49733,0.87031 -0.373,0.87032 -0.49734,0.87031 -0.62167,0.87031 -0.49733,0.74598 -0.62167,0.87031 -0.62167,0.74598 -0.746,0.62165 -0.746,0.74598 -0.746,0.62165 -0.746,0.62166 -0.746,0.49732 -0.87034,0.62165 -0.87033,0.49732 -0.87034,0.37299 -0.87033,0.49732 -0.99467,0.37299 -0.87034,0.24866 -0.99467,0.24866 -0.99466,0.24866 -0.99467,0.24866 -1.11901,0.12433 h -0.99466 l -0.99467,0.12433 H 235.8608 l -1.119,-0.12433 h -0.99467 l -1.119,-0.12433 -0.99467,-0.24866 -0.99467,-0.24866 -0.99467,-0.24866 -0.87033,-0.24866 -0.99467,-0.37299 -0.87034,-0.49732 -0.87033,-0.37299 -0.87034,-0.49732 -0.87033,-0.62165 -0.746,-0.49732 -0.746,-0.62166 -0.74601,-0.62165 -0.746,-0.74598 -0.746,-0.62165 -0.62167,-0.74598 -0.62166,-0.87031 -0.49734,-0.74598 -0.62167,-0.87031 -0.49733,-0.87031 -0.373,-0.87032 -0.49734,-0.87031 -0.24866,-0.99464 -0.373,-0.87031 -0.24867,-0.99464 -0.24867,-0.99464 -0.24867,-0.99464 -0.12433,-0.99465 v -1.11897 z"
       id="path949" />
    <path
       transform="matrix(0.26458333,0,0,0.26458333,119.16413,92.768807)"
       style="fill:none;stroke:#000000;stroke-width:0.373001px;stroke-linecap:round;stroke-linejoin:round;stroke-miterlimit:4;stroke-dasharray:none;stroke-opacity:1"
       clip-path="url(#clipEmfPath1)"
       d="m 215.34576,116.87038 v -1.11897 -0.99464 l 0.12433,-0.99464 0.24867,-1.11898 0.24867,-0.99464 0.24867,-0.87031 0.373,-0.99464 0.24866,-0.99464 0.49734,-0.87031 0.373,-0.87031 0.49733,-0.87032 0.62167,-0.87031 0.49734,-0.74598 0.62166,-0.74598 0.62167,-0.74598 0.746,-0.74598 0.746,-0.62165 0.74601,-0.74598 0.746,-0.62166 0.746,-0.497316 0.87033,-0.497321 0.87034,-0.497321 0.87033,-0.49732 0.87034,-0.372991 0.99467,-0.37299 0.87033,-0.372991 0.99467,-0.24866 0.99467,-0.248661 0.99467,-0.12433 1.119,-0.24866 h 0.99467 1.119 v 0 h 78.33016 0.99467 0.99466 l 1.11901,0.24866 0.99467,0.12433 0.99466,0.248661 0.99467,0.24866 0.87034,0.372991 0.99467,0.37299 0.87033,0.372991 0.87034,0.49732 0.87033,0.497321 0.87034,0.497321 0.746,0.497316 0.746,0.62166 0.746,0.74598 0.746,0.62165 0.746,0.74598 0.62167,0.74598 0.62167,0.74598 0.49733,0.74598 0.62167,0.87031 0.49734,0.87032 0.373,0.87031 0.49733,0.87031 0.373,0.99464 0.24867,0.99464 0.24867,0.87031 0.24866,0.99464 0.24867,1.11898 0.12433,0.99464 v 0.99464 l 0.12434,1.11897 v 0 l -0.12434,0.99464 v 1.11897 l -0.12433,0.99465 -0.24867,0.99464 -0.24866,0.99464 -0.24867,0.99464 -0.24867,0.87031 -0.373,0.99464 -0.49733,0.87031 -0.373,0.87032 -0.49734,0.87031 -0.62167,0.87031 -0.49733,0.74598 -0.62167,0.87031 -0.62167,0.74598 -0.746,0.62165 -0.746,0.74598 -0.746,0.62165 -0.746,0.62166 -0.746,0.49732 -0.87034,0.62165 -0.87033,0.49732 -0.87034,0.37299 -0.87033,0.49732 -0.99467,0.37299 -0.87034,0.24866 -0.99467,0.24866 -0.99466,0.24866 -0.99467,0.24866 -1.11901,0.12433 h -0.99466 l -0.99467,0.12433 H 235.8608 l -1.119,-0.12433 h -0.99467 l -1.119,-0.12433 -0.99467,-0.24866 -0.99467,-0.24866 -0.99467,-0.24866 -0.87033,-0.24866 -0.99467,-0.37299 -0.87034,-0.49732 -0.87033,-0.37299 -0.87034,-0.49732 -0.87033,-0.62165 -0.746,-0.49732 -0.746,-0.62166 -0.74601,-0.62165 -0.746,-0.74598 -0.746,-0.62165 -0.62167,-0.74598 -0.62166,-0.87031 -0.49734,-0.74598 -0.62167,-0.87031 -0.49733,-0.87031 -0.373,-0.87032 -0.49734,-0.87031 -0.24866,-0.99464 -0.373,-0.87031 -0.24867,-0.99464 -0.24867,-0.99464 -0.24867,-0.99464 -0.12433,-0.99465 v -1.11897 -0.99464 0"
       id="path951" />
    <g
       transform="matrix(0.26458333,0,0,0.26458333,119.16413,92.768807)"
       clip-path="url(#clipEmfPath1)"
       id="g959">
      <text
         xml:space="preserve"
         style="font-style:normal;font-variant:normal;font-weight:400;font-size:13.3125px;line-height:125%;font-family:Arial;text-align:start;letter-spacing:0px;word-spacing:0px;text-anchor:start;fill:#000000;fill-opacity:1;stroke:none"
         transform="translate(241.08281,120.84895)"
         x="0"
         y="0"
         id="text957"><tspan
           sodipodi:role="line"
           x="0"
           y="0"
           id="tspan955"><tspan
             dx="0"
             dy="0"
             style="font-style:normal;font-variant:normal;font-weight:400;font-size:13.3125px;font-family:Arial;fill:#000000"
             id="tspan953">Enter Items</tspan></tspan></text>
    </g>
    <path
       transform="matrix(0.26458333,0,0,0.26458333,119.16413,92.768807)"
       style="fill:none;stroke:#000000;stroke-width:0.373001px;stroke-linecap:round;stroke-linejoin:round;stroke-miterlimit:4;stroke-dasharray:none;stroke-opacity:1"
       clip-path="url(#clipEmfPath1)"
       d="M 144.35129,135.51991 V 98.220851 Z"
       id="path961" />
    <path
       transform="matrix(0.26458333,0,0,0.26458333,119.16413,92.768807)"
       style="fill:none;stroke:#000000;stroke-width:0.373001px;stroke-linecap:round;stroke-linejoin:round;stroke-miterlimit:4;stroke-dasharray:none;stroke-opacity:1"
       clip-path="url(#clipEmfPath1)"
       d="M 144.35129,135.51991 H 39.911079 Z"
       id="path963" />
    <path
       transform="matrix(0.26458333,0,0,0.26458333,119.16413,92.768807)"
       style="fill:none;stroke:#000000;stroke-width:0.373001px;stroke-linecap:round;stroke-linejoin:round;stroke-miterlimit:4;stroke-dasharray:none;stroke-opacity:1"
       clip-path="url(#clipEmfPath1)"
       d="M 144.35129,135.51991 H 39.911079 Z"
       id="path965" />
    <path
       transform="matrix(0.26458333,0,0,0.26458333,119.16413,92.768807)"
       style="fill:none;stroke:#000000;stroke-width:0.373001px;stroke-linecap:round;stroke-linejoin:round;stroke-miterlimit:4;stroke-dasharray:none;stroke-opacity:1"
       clip-path="url(#clipEmfPath1)"
       d="M 144.35129,135.51991 H 39.911079 Z"
       id="path967" />
    <path
       transform="matrix(0.26458333,0,0,0.26458333,119.16413,92.768807)"
       style="fill:#ffffff;fill-opacity:1;fill-rule:evenodd;stroke:none"
       clip-path="url(#clipEmfPath1)"
       d="M 39.911079,98.220851 V 135.51991 H 144.35129 V 98.220851 Z"
       id="path969" />
    <path
       transform="matrix(0.26458333,0,0,0.26458333,119.16413,92.768807)"
       style="fill:none;stroke:#000000;stroke-width:0.373001px;stroke-linecap:round;stroke-linejoin:round;stroke-miterlimit:4;stroke-dasharray:none;stroke-opacity:1"
       clip-path="url(#clipEmfPath1)"
       d="M 144.35129,135.51991 V 98.220851 H 39.911079 v 37.299059 z"
       id="path971" />
    <path
       transform="matrix(0.26458333,0,0,0.26458333,119.16413,92.768807)"
       style="fill:none;stroke:#000000;stroke-width:0.373001px;stroke-linecap:round;stroke-linejoin:round;stroke-miterlimit:4;stroke-dasharray:none;stroke-opacity:1"
       clip-path="url(#clipEmfPath1)"
       d="M 144.35129,135.51991 V 98.220851 H 39.911079 v 37.299059 z"
       id="path973" />
    <g
       transform="matrix(0.26458333,0,0,0.26458333,119.16413,92.768807)"
       clip-path="url(#clipEmfPath1)"
       id="g985">
      <text
         xml:space="preserve"
         style="font-style:normal;font-variant:normal;font-weight:400;font-size:13.3125px;line-height:119.544%;font-family:Helvetica;text-align:center;letter-spacing:0px;word-spacing:0px;text-anchor:middle;fill:#000000;fill-opacity:1;stroke:none"
         transform="translate(57.193447,112.89181)"
         x="35.15657"
         y="0"
         id="text983"><tspan
           sodipodi:role="line"
           x="35.15657"
           y="0"
           id="tspan977"><tspan
             dx="0"
             dy="0"
             style="font-style:normal;font-variant:normal;font-weight:400;font-size:13.3125px;font-family:Helvetica;fill:#000000"
             id="tspan975">«datastore»</tspan></tspan><tspan
           sodipodi:role="line"
           x="35.15657"
           y="15.914294"
           id="tspan981"><tspan
             dx="0"
             dy="0"
             style="font-style:normal;font-variant:normal;font-weight:400;font-size:13.3125px;font-family:Arial;fill:#000000"
             id="tspan979">Products</tspan></tspan></text>
    </g>
    <path
       transform="matrix(0.26458333,0,0,0.26458333,119.16413,92.768807)"
       style="fill:none;stroke:#000000;stroke-width:0.373001px;stroke-linecap:round;stroke-linejoin:round;stroke-miterlimit:4;stroke-dasharray:none;stroke-opacity:1"
       clip-path="url(#clipEmfPath1)"
       d="m 144.35129,116.87038 h 70.87014"
       id="path987" />
    <path
       transform="matrix(0.26458333,0,0,0.26458333,119.16413,92.768807)"
       style="fill:none;stroke:#000000;stroke-width:0.373001px;stroke-linecap:round;stroke-linejoin:round;stroke-miterlimit:4;stroke-dasharray:none;stroke-opacity:1"
       clip-path="url(#clipEmfPath1)"
       d="m 201.54473,121.34627 13.6767,-4.47589 -13.6767,-4.60022"
       id="path989" />
    <path
       transform="matrix(0.26458333,0,0,0.26458333,119.16413,92.768807)"
       style="fill:none;stroke:#000000;stroke-width:1.24334px;stroke-linecap:round;stroke-linejoin:round;stroke-miterlimit:4;stroke-dasharray:none;stroke-opacity:1"
       clip-path="url(#clipEmfPath1)"
       d="M 558.50644,19.14685 V 498.19108"
       id="path991" />
    <g
       transform="matrix(0.26458333,0,0,0.26458333,119.16413,92.768807)"
       clip-path="url(#clipEmfPath1)"
       id="g1003">
      <text
         xml:space="preserve"
         style="font-style:normal;font-variant:normal;font-weight:700;font-size:13.3125px;line-height:119.544%;font-family:Arial;text-align:center;letter-spacing:0px;word-spacing:0px;text-anchor:middle;fill:#000000;fill-opacity:1;stroke:none"
         transform="translate(594.19018,29.839246)"
         x="27.746292"
         y="0"
         id="text1001"><tspan
           sodipodi:role="line"
           x="27.746292"
           y="0"
           id="tspan995"><tspan
             dx="0"
             dy="0"
             style="font-style:normal;font-variant:normal;font-weight:700;font-size:13.3125px;font-family:Arial;fill:#000000"
             id="tspan993">Payment</tspan></tspan><tspan
           sodipodi:role="line"
           x="27.746292"
           y="15.914294"
           id="tspan999"><tspan
             dx="0"
             dy="0"
             style="font-style:normal;font-variant:normal;font-weight:700;font-size:13.3125px;font-family:Arial;fill:#000000"
             id="tspan997">Authorization</tspan></tspan></text>
    </g>
    <path
       transform="matrix(0.26458333,0,0,0.26458333,119.16413,92.768807)"
       style="fill:none;stroke:#000000;stroke-width:0.373001px;stroke-linecap:round;stroke-linejoin:round;stroke-miterlimit:4;stroke-dasharray:none;stroke-opacity:1"
       clip-path="url(#clipEmfPath1)"
       d="m 304.86594,266.06661 v 14.91962 0.62165 0.62166 l 0.12433,0.74598 0.12434,0.62165 0.24866,1.2433 0.49734,1.2433 0.49733,1.11897 0.62167,0.99464 0.746,0.99465 0.87034,0.99464 0.99467,0.87031 0.99466,0.74598 0.99467,0.62165 1.24334,0.49732 1.119,0.49732 1.24334,0.37299 h 0.746 l 0.62167,0.12433 0.62166,0.12433 h 0.74601 13.05502"
       id="path1005" />
    <path
       transform="matrix(0.26458333,0,0,0.26458333,119.16413,92.768807)"
       style="fill:none;stroke:#000000;stroke-width:0.373001px;stroke-linecap:round;stroke-linejoin:round;stroke-miterlimit:4;stroke-dasharray:none;stroke-opacity:1"
       clip-path="url(#clipEmfPath1)"
       d="m 317.17496,298.64112 13.80103,-4.60022 -13.80103,-4.60021"
       id="path1007" />
    <path
       transform="matrix(0.26458333,0,0,0.26458333,119.16413,92.768807)"
       style="fill:none;stroke:#000000;stroke-width:0.373001px;stroke-linecap:round;stroke-linejoin:round;stroke-miterlimit:4;stroke-dasharray:none;stroke-opacity:1"
       clip-path="url(#clipEmfPath1)"
       d="M 398.11612,308.96053 V 279.12128 Z"
       id="path1009" />
    <path
       transform="matrix(0.26458333,0,0,0.26458333,119.16413,92.768807)"
       style="fill:none;stroke:#000000;stroke-width:0.373001px;stroke-linecap:round;stroke-linejoin:round;stroke-miterlimit:4;stroke-dasharray:none;stroke-opacity:1"
       clip-path="url(#clipEmfPath1)"
       d="M 398.11612,308.96053 H 330.97599 Z"
       id="path1011" />
    <path
       transform="matrix(0.26458333,0,0,0.26458333,119.16413,92.768807)"
       style="fill:none;stroke:#000000;stroke-width:0.373001px;stroke-linecap:round;stroke-linejoin:round;stroke-miterlimit:4;stroke-dasharray:none;stroke-opacity:1"
       clip-path="url(#clipEmfPath1)"
       d="M 398.11612,308.96053 H 330.97599 Z"
       id="path1013" />
    <path
       transform="matrix(0.26458333,0,0,0.26458333,119.16413,92.768807)"
       style="fill:none;stroke:#000000;stroke-width:0.373001px;stroke-linecap:round;stroke-linejoin:round;stroke-miterlimit:4;stroke-dasharray:none;stroke-opacity:1"
       clip-path="url(#clipEmfPath1)"
       d="M 398.11612,308.96053 H 330.97599 Z"
       id="path1015" />
    <path
       transform="matrix(0.26458333,0,0,0.26458333,119.16413,92.768807)"
       style="fill:#ffffff;fill-opacity:1;fill-rule:evenodd;stroke:none"
       clip-path="url(#clipEmfPath1)"
       d="m 330.97599,279.12128 v 29.83925 h 67.14013 v -29.83925 z"
       id="path1017" />
    <path
       transform="matrix(0.26458333,0,0,0.26458333,119.16413,92.768807)"
       style="fill:none;stroke:#000000;stroke-width:0.373001px;stroke-linecap:round;stroke-linejoin:round;stroke-miterlimit:4;stroke-dasharray:none;stroke-opacity:1"
       clip-path="url(#clipEmfPath1)"
       d="m 398.11612,308.96053 v -29.83925 h -67.14013 v 29.83925 z"
       id="path1019" />
    <path
       transform="matrix(0.26458333,0,0,0.26458333,119.16413,92.768807)"
       style="fill:none;stroke:#000000;stroke-width:0.373001px;stroke-linecap:round;stroke-linejoin:round;stroke-miterlimit:4;stroke-dasharray:none;stroke-opacity:1"
       clip-path="url(#clipEmfPath1)"
       d="m 398.11612,308.96053 v -29.83925 h -67.14013 v 29.83925 z"
       id="path1021" />
    <g
       transform="matrix(0.26458333,0,0,0.26458333,119.16413,92.768807)"
       clip-path="url(#clipEmfPath1)"
       id="g1029">
      <text
         xml:space="preserve"
         style="font-style:normal;font-variant:normal;font-weight:400;font-size:13.3125px;line-height:125%;font-family:Arial;text-align:start;letter-spacing:0px;word-spacing:0px;text-anchor:start;fill:#000000;fill-opacity:1;stroke:none"
         transform="translate(339.80367,298.01947)"
         x="0"
         y="0"
         id="text1027"><tspan
           sodipodi:role="line"
           x="0"
           y="0"
           id="tspan1025"><tspan
             dx="0"
             dy="0"
             style="font-style:normal;font-variant:normal;font-weight:400;font-size:13.3125px;font-family:Arial;fill:#000000"
             id="tspan1023">Request</tspan></tspan></text>
    </g>
    <path
       transform="matrix(0.26458333,0,0,0.26458333,119.16413,92.768807)"
       style="fill:none;stroke:#000000;stroke-width:0.373001px;stroke-linecap:round;stroke-linejoin:round;stroke-miterlimit:4;stroke-dasharray:none;stroke-opacity:1"
       clip-path="url(#clipEmfPath1)"
       d="M 398.11612,294.0409 H 580.88649"
       id="path1031" />
    <path
       transform="matrix(0.26458333,0,0,0.26458333,119.16413,92.768807)"
       style="fill:none;stroke:#000000;stroke-width:0.373001px;stroke-linecap:round;stroke-linejoin:round;stroke-miterlimit:4;stroke-dasharray:none;stroke-opacity:1"
       clip-path="url(#clipEmfPath1)"
       d="m 567.08546,298.64112 13.80103,-4.60022 -13.80103,-4.60021"
       id="path1033" />
    <path
       transform="matrix(0.26458333,0,0,0.26458333,119.16413,92.768807)"
       style="fill:none;stroke:#000000;stroke-width:0.373001px;stroke-linecap:round;stroke-linejoin:round;stroke-miterlimit:4;stroke-dasharray:none;stroke-opacity:1"
       clip-path="url(#clipEmfPath1)"
       d="m 601.40153,314.55539 h 52.2201 z"
       id="path1035" />
    <path
       transform="matrix(0.26458333,0,0,0.26458333,119.16413,92.768807)"
       style="fill:none;stroke:#000000;stroke-width:0.373001px;stroke-linecap:round;stroke-linejoin:round;stroke-miterlimit:4;stroke-dasharray:none;stroke-opacity:1"
       clip-path="url(#clipEmfPath1)"
       d="m 601.40153,314.55539 h 52.2201 z"
       id="path1037" />
    <path
       transform="matrix(0.26458333,0,0,0.26458333,119.16413,92.768807)"
       style="fill:#ffffff;fill-opacity:1;fill-rule:evenodd;stroke:none"
       clip-path="url(#clipEmfPath1)"
       d="m 580.88649,294.0409 v -1.11897 -0.99464 l 0.12433,-0.99464 0.24867,-1.11897 0.24867,-0.99464 0.24866,-0.87032 0.373,-0.99464 0.373,-0.99464 0.373,-0.87031 0.37301,-0.87031 0.49733,-0.87031 0.62167,-0.87031 0.49733,-0.74599 0.62167,-0.74598 0.62167,-0.74598 0.746,-0.74598 0.746,-0.62165 0.746,-0.74598 0.746,-0.49732 0.74601,-0.62165 0.87033,-0.49732 0.87034,-0.49732 0.87033,-0.49733 0.87034,-0.37299 0.99466,-0.37299 0.99467,-0.37299 0.87034,-0.24866 0.99467,-0.24866 0.99467,-0.12433 1.119,-0.12433 0.99467,-0.12433 h 1.119 52.2201 0.99467 l 0.99467,0.12433 1.119,0.12433 0.99467,0.12433 0.99467,0.24866 0.99467,0.24866 0.87033,0.37299 0.99467,0.37299 0.87034,0.37299 0.87033,0.49733 0.87034,0.49732 0.87033,0.49732 0.746,0.62165 0.87034,0.49732 0.746,0.74598 0.62167,0.62165 0.746,0.74598 0.62167,0.74598 0.62166,0.74598 0.49734,0.74599 0.62167,0.87031 0.49733,0.87031 0.373,0.87031 0.49734,0.87031 0.373,0.99464 0.24866,0.99464 0.24867,0.87032 0.24867,0.99464 0.24867,1.11897 0.12433,0.99464 v 0.99464 l 0.12433,1.11897 v 0 l -0.12433,0.99465 v 1.11897 l -0.12433,0.99464 -0.24867,0.99464 -0.24867,0.99464 -0.24867,0.99464 -0.24866,0.87031 -0.373,0.99465 -0.49734,0.87031 -0.373,0.87031 -0.49733,0.87031 -0.62167,0.87031 -0.49734,0.74598 -0.62166,0.87031 -0.62167,0.74598 -0.746,0.62166 -0.62167,0.74598 -0.746,0.62165 -0.87034,0.62165 -0.746,0.62165 -0.87033,0.49732 -0.87034,0.49732 -0.87033,0.37299 -0.87034,0.49732 -0.99467,0.37299 -0.87033,0.24866 -0.99467,0.37299 -0.99467,0.12433 -0.99467,0.24866 -1.119,0.12433 -0.99467,0.12434 h -0.99467 -52.2201 -1.119 l -0.99467,-0.12434 -1.119,-0.12433 -0.99467,-0.24866 -0.99467,-0.12433 -0.87034,-0.37299 -0.99467,-0.24866 -0.99466,-0.37299 -0.87034,-0.49732 -0.87033,-0.37299 -0.87034,-0.49732 -0.87033,-0.49732 -0.74601,-0.62165 -0.746,-0.62165 -0.746,-0.62165 -0.746,-0.74598 -0.746,-0.62166 -0.62167,-0.74598 -0.62167,-0.87031 -0.49733,-0.74598 -0.62167,-0.87031 -0.49733,-0.87031 -0.37301,-0.87031 -0.373,-0.87031 -0.373,-0.99465 -0.373,-0.87031 -0.24866,-0.99464 -0.24867,-0.99464 -0.24867,-0.99464 -0.12433,-0.99464 v -1.11897 z"
       id="path1039" />
    <path
       transform="matrix(0.26458333,0,0,0.26458333,119.16413,92.768807)"
       style="fill:none;stroke:#000000;stroke-width:0.373001px;stroke-linecap:round;stroke-linejoin:round;stroke-miterlimit:4;stroke-dasharray:none;stroke-opacity:1"
       clip-path="url(#clipEmfPath1)"
       d="m 580.88649,294.0409 v -1.11897 -0.99464 l 0.12433,-0.99464 0.24867,-1.11897 0.24867,-0.99464 0.24866,-0.87032 0.373,-0.99464 0.373,-0.99464 0.373,-0.87031 0.37301,-0.87031 0.49733,-0.87031 0.62167,-0.87031 0.49733,-0.74599 0.62167,-0.74598 0.62167,-0.74598 0.746,-0.74598 0.746,-0.62165 0.746,-0.74598 0.746,-0.49732 0.74601,-0.62165 0.87033,-0.49732 0.87034,-0.49732 0.87033,-0.49733 0.87034,-0.37299 0.99466,-0.37299 0.99467,-0.37299 0.87034,-0.24866 0.99467,-0.24866 0.99467,-0.12433 1.119,-0.12433 0.99467,-0.12433 h 1.119 52.2201 0.99467 l 0.99467,0.12433 1.119,0.12433 0.99467,0.12433 0.99467,0.24866 0.99467,0.24866 0.87033,0.37299 0.99467,0.37299 0.87034,0.37299 0.87033,0.49733 0.87034,0.49732 0.87033,0.49732 0.746,0.62165 0.87034,0.49732 0.746,0.74598 0.62167,0.62165 0.746,0.74598 0.62167,0.74598 0.62166,0.74598 0.49734,0.74599 0.62167,0.87031 0.49733,0.87031 0.373,0.87031 0.49734,0.87031 0.373,0.99464 0.24866,0.99464 0.24867,0.87032 0.24867,0.99464 0.24867,1.11897 0.12433,0.99464 v 0.99464 l 0.12433,1.11897 v 0 l -0.12433,0.99465 v 1.11897 l -0.12433,0.99464 -0.24867,0.99464 -0.24867,0.99464 -0.24867,0.99464 -0.24866,0.87031 -0.373,0.99465 -0.49734,0.87031 -0.373,0.87031 -0.49733,0.87031 -0.62167,0.87031 -0.49734,0.74598 -0.62166,0.87031 -0.62167,0.74598 -0.746,0.62166 -0.62167,0.74598 -0.746,0.62165 -0.87034,0.62165 -0.746,0.62165 -0.87033,0.49732 -0.87034,0.49732 -0.87033,0.37299 -0.87034,0.49732 -0.99467,0.37299 -0.87033,0.24866 -0.99467,0.37299 -0.99467,0.12433 -0.99467,0.24866 -1.119,0.12433 -0.99467,0.12434 h -0.99467 -52.2201 -1.119 l -0.99467,-0.12434 -1.119,-0.12433 -0.99467,-0.24866 -0.99467,-0.12433 -0.87034,-0.37299 -0.99467,-0.24866 -0.99466,-0.37299 -0.87034,-0.49732 -0.87033,-0.37299 -0.87034,-0.49732 -0.87033,-0.49732 -0.74601,-0.62165 -0.746,-0.62165 -0.746,-0.62165 -0.746,-0.74598 -0.746,-0.62166 -0.62167,-0.74598 -0.62167,-0.87031 -0.49733,-0.74598 -0.62167,-0.87031 -0.49733,-0.87031 -0.37301,-0.87031 -0.373,-0.87031 -0.373,-0.99465 -0.373,-0.87031 -0.24866,-0.99464 -0.24867,-0.99464 -0.24867,-0.99464 -0.12433,-0.99464 v -1.11897 -0.99465 0"
       id="path1041" />
    <g
       transform="matrix(0.26458333,0,0,0.26458333,119.16413,92.768807)"
       clip-path="url(#clipEmfPath1)"
       id="g1055">
      <text
         xml:space="preserve"
         style="font-style:normal;font-variant:normal;font-weight:400;font-size:13.3125px;line-height:125%;font-family:Arial;text-align:start;letter-spacing:0px;word-spacing:0px;text-anchor:start;fill:#000000;fill-opacity:1;stroke:none"
         transform="translate(599.41219,290.06234)"
         x="0"
         y="0"
         id="text1047"><tspan
           sodipodi:role="line"
           x="0"
           y="0"
           id="tspan1045"><tspan
             dx="0"
             dy="0"
             style="font-style:normal;font-variant:normal;font-weight:400;font-size:13.3125px;font-family:Arial;fill:#000000"
             id="tspan1043">Authorize </tspan></tspan></text>
      <text
         xml:space="preserve"
         style="font-style:normal;font-variant:normal;font-weight:400;font-size:13.3125px;line-height:125%;font-family:Arial;text-align:start;letter-spacing:0px;word-spacing:0px;text-anchor:start;fill:#000000;fill-opacity:1;stroke:none"
         transform="translate(599.41219,290.06234)"
         x="1.8650039"
         y="15.914265"
         id="text1053"><tspan
           sodipodi:role="line"
           x="1.8650039"
           y="15.914265"
           id="tspan1051"><tspan
             dx="0"
             dy="0"
             style="font-style:normal;font-variant:normal;font-weight:400;font-size:13.3125px;font-family:Arial;fill:#000000"
             id="tspan1049">Payment</tspan></tspan></text>
    </g>
    <path
       transform="matrix(0.26458333,0,0,0.26458333,119.16413,92.768807)"
       style="fill:none;stroke:#000000;stroke-width:0.373001px;stroke-linecap:round;stroke-linejoin:round;stroke-miterlimit:4;stroke-dasharray:none;stroke-opacity:1"
       clip-path="url(#clipEmfPath1)"
       d="m 235.8608,432.04742 h 78.33016 z"
       id="path1057" />
    <path
       transform="matrix(0.26458333,0,0,0.26458333,119.16413,92.768807)"
       style="fill:none;stroke:#000000;stroke-width:0.373001px;stroke-linecap:round;stroke-linejoin:round;stroke-miterlimit:4;stroke-dasharray:none;stroke-opacity:1"
       clip-path="url(#clipEmfPath1)"
       d="m 235.8608,432.04742 h 78.33016 z"
       id="path1059" />
    <path
       transform="matrix(0.26458333,0,0,0.26458333,119.16413,92.768807)"
       style="fill:#ffffff;fill-opacity:1;fill-rule:evenodd;stroke:none"
       clip-path="url(#clipEmfPath1)"
       d="m 215.34576,411.53293 v -1.11897 -0.99464 l 0.12433,-0.99464 0.24867,-1.11897 0.24867,-0.99464 0.24867,-0.87031 0.373,-0.99465 0.24866,-0.99464 0.49734,-0.87031 0.373,-0.87031 0.49733,-0.87031 0.62167,-0.87031 0.49734,-0.74598 0.62166,-0.74599 0.62167,-0.74598 0.746,-0.74598 0.746,-0.62165 0.74601,-0.74598 0.746,-0.62165 0.746,-0.49732 0.87033,-0.49732 0.87034,-0.49732 0.87033,-0.49732 0.87034,-0.37299 0.99467,-0.37299 0.87033,-0.373 0.99467,-0.24866 0.99467,-0.24866 0.99467,-0.12433 1.119,-0.24866 h 0.99467 1.119 v 0 h 78.33016 0.99467 0.99466 l 1.11901,0.24866 0.99467,0.12433 0.99466,0.24866 0.99467,0.24866 0.87034,0.373 0.99467,0.37299 0.87033,0.37299 0.87034,0.49732 0.87033,0.49732 0.87034,0.49732 0.746,0.49732 0.746,0.62165 0.746,0.74598 0.746,0.62165 0.746,0.74598 0.62167,0.74598 0.62167,0.74599 0.49733,0.74598 0.62167,0.87031 0.49734,0.87031 0.373,0.87031 0.49733,0.87031 0.373,0.99464 0.24867,0.99465 0.24867,0.87031 0.24866,0.99464 0.24867,1.11897 0.12433,0.99464 v 0.99464 l 0.12434,1.11897 v 0 l -0.12434,0.99465 v 1.11897 l -0.12433,0.99464 -0.24867,0.99464 -0.24866,0.99464 -0.24867,0.99464 -0.24867,0.87032 -0.373,0.99464 -0.49733,0.87031 -0.373,0.87031 -0.49734,0.87031 -0.62167,0.87031 -0.49733,0.74598 -0.62167,0.87031 -0.62167,0.74599 -0.746,0.62165 -0.746,0.74598 -0.746,0.62165 -0.746,0.62165 -0.746,0.49732 -0.87034,0.62165 -0.87033,0.49732 -0.87034,0.37299 -0.87033,0.49732 -0.99467,0.37299 -0.87034,0.24866 -0.99467,0.24867 -0.99466,0.24866 -0.99467,0.24866 -1.11901,0.12433 h -0.99466 l -0.99467,0.12433 H 235.8608 l -1.119,-0.12433 h -0.99467 l -1.119,-0.12433 -0.99467,-0.24866 -0.99467,-0.24866 -0.99467,-0.24867 -0.87033,-0.24866 -0.99467,-0.37299 -0.87034,-0.49732 -0.87033,-0.37299 -0.87034,-0.49732 -0.87033,-0.62165 -0.746,-0.49732 -0.746,-0.62165 -0.74601,-0.62165 -0.746,-0.74598 -0.746,-0.62165 -0.62167,-0.74599 -0.62166,-0.87031 -0.49734,-0.74598 -0.62167,-0.87031 -0.49733,-0.87031 -0.373,-0.87031 -0.49734,-0.87031 -0.24866,-0.99464 -0.373,-0.87032 -0.24867,-0.99464 -0.24867,-0.99464 -0.24867,-0.99464 -0.12433,-0.99464 v -1.11897 z"
       id="path1061" />
    <path
       transform="matrix(0.26458333,0,0,0.26458333,119.16413,92.768807)"
       style="fill:none;stroke:#000000;stroke-width:0.373001px;stroke-linecap:round;stroke-linejoin:round;stroke-miterlimit:4;stroke-dasharray:none;stroke-opacity:1"
       clip-path="url(#clipEmfPath1)"
       d="m 215.34576,411.53293 v -1.11897 -0.99464 l 0.12433,-0.99464 0.24867,-1.11897 0.24867,-0.99464 0.24867,-0.87031 0.373,-0.99465 0.24866,-0.99464 0.49734,-0.87031 0.373,-0.87031 0.49733,-0.87031 0.62167,-0.87031 0.49734,-0.74598 0.62166,-0.74599 0.62167,-0.74598 0.746,-0.74598 0.746,-0.62165 0.74601,-0.74598 0.746,-0.62165 0.746,-0.49732 0.87033,-0.49732 0.87034,-0.49732 0.87033,-0.49732 0.87034,-0.37299 0.99467,-0.37299 0.87033,-0.373 0.99467,-0.24866 0.99467,-0.24866 0.99467,-0.12433 1.119,-0.24866 h 0.99467 1.119 v 0 h 78.33016 0.99467 0.99466 l 1.11901,0.24866 0.99467,0.12433 0.99466,0.24866 0.99467,0.24866 0.87034,0.373 0.99467,0.37299 0.87033,0.37299 0.87034,0.49732 0.87033,0.49732 0.87034,0.49732 0.746,0.49732 0.746,0.62165 0.746,0.74598 0.746,0.62165 0.746,0.74598 0.62167,0.74598 0.62167,0.74599 0.49733,0.74598 0.62167,0.87031 0.49734,0.87031 0.373,0.87031 0.49733,0.87031 0.373,0.99464 0.24867,0.99465 0.24867,0.87031 0.24866,0.99464 0.24867,1.11897 0.12433,0.99464 v 0.99464 l 0.12434,1.11897 v 0 l -0.12434,0.99465 v 1.11897 l -0.12433,0.99464 -0.24867,0.99464 -0.24866,0.99464 -0.24867,0.99464 -0.24867,0.87032 -0.373,0.99464 -0.49733,0.87031 -0.373,0.87031 -0.49734,0.87031 -0.62167,0.87031 -0.49733,0.74598 -0.62167,0.87031 -0.62167,0.74599 -0.746,0.62165 -0.746,0.74598 -0.746,0.62165 -0.746,0.62165 -0.746,0.49732 -0.87034,0.62165 -0.87033,0.49732 -0.87034,0.37299 -0.87033,0.49732 -0.99467,0.37299 -0.87034,0.24866 -0.99467,0.24867 -0.99466,0.24866 -0.99467,0.24866 -1.11901,0.12433 h -0.99466 l -0.99467,0.12433 H 235.8608 l -1.119,-0.12433 h -0.99467 l -1.119,-0.12433 -0.99467,-0.24866 -0.99467,-0.24866 -0.99467,-0.24867 -0.87033,-0.24866 -0.99467,-0.37299 -0.87034,-0.49732 -0.87033,-0.37299 -0.87034,-0.49732 -0.87033,-0.62165 -0.746,-0.49732 -0.746,-0.62165 -0.74601,-0.62165 -0.746,-0.74598 -0.746,-0.62165 -0.62167,-0.74599 -0.62166,-0.87031 -0.49734,-0.74598 -0.62167,-0.87031 -0.49733,-0.87031 -0.373,-0.87031 -0.49734,-0.87031 -0.24866,-0.99464 -0.373,-0.87032 -0.24867,-0.99464 -0.24867,-0.99464 -0.24867,-0.99464 -0.12433,-0.99464 v -1.11897 -0.99465 0"
       id="path1063" />
    <g
       transform="matrix(0.26458333,0,0,0.26458333,119.16413,92.768807)"
       clip-path="url(#clipEmfPath1)"
       id="g1071">
      <text
         xml:space="preserve"
         style="font-style:normal;font-variant:normal;font-weight:400;font-size:13.3125px;line-height:125%;font-family:Arial;text-align:start;letter-spacing:0px;word-spacing:0px;text-anchor:start;fill:#000000;fill-opacity:1;stroke:none"
         transform="translate(238.09881,415.5115)"
         x="0"
         y="0"
         id="text1069"><tspan
           sodipodi:role="line"
           x="0"
           y="0"
           id="tspan1067"><tspan
             dx="0"
             dy="0"
             style="font-style:normal;font-variant:normal;font-weight:400;font-size:13.3125px;font-family:Arial;fill:#000000"
             id="tspan1065">Update ERP</tspan></tspan></text>
    </g>
    <path
       transform="matrix(0.26458333,0,0,0.26458333,119.16413,92.768807)"
       style="fill:none;stroke:#000000;stroke-width:0.373001px;stroke-linecap:round;stroke-linejoin:round;stroke-miterlimit:4;stroke-dasharray:none;stroke-opacity:1"
       clip-path="url(#clipEmfPath1)"
       d="m 593.94151,361.17921 h -303.9956 -0.87034 -0.746 l -0.746,0.12433 -0.746,0.12433 -0.62167,0.24866 -0.746,0.12433 -0.746,0.24866 -0.62167,0.24866 -0.62167,0.37299 -0.746,0.24866 -1.24333,0.74598 -1.11901,0.87031 -0.99466,0.99464 -0.99467,0.99465 -0.87034,1.2433 -0.746,1.2433 -0.373,0.62165 -0.24867,0.62165 -0.24867,0.74598 -0.24866,0.62165 -0.24867,0.74598 -0.12433,0.74599 -0.12434,0.74598 -0.12433,0.74598 v 0.74598 0.74598 14.91962"
       id="path1073" />
    <path
       transform="matrix(0.26458333,0,0,0.26458333,119.16413,92.768807)"
       style="fill:none;stroke:#000000;stroke-width:0.373001px;stroke-linecap:round;stroke-linejoin:round;stroke-miterlimit:4;stroke-dasharray:none;stroke-opacity:1"
       clip-path="url(#clipEmfPath1)"
       d="m 270.42554,377.2178 4.60034,13.80065 4.47601,-13.80065"
       id="path1075" />
    <path
       transform="matrix(0.26458333,0,0,0.26458333,119.16413,92.768807)"
       style="fill:none;stroke:#000000;stroke-width:0.373001px;stroke-linecap:round;stroke-linejoin:round;stroke-miterlimit:4;stroke-dasharray:none;stroke-opacity:1"
       clip-path="url(#clipEmfPath1)"
       d="M 661.08165,376.09883 V 346.25958 Z"
       id="path1077" />
    <path
       transform="matrix(0.26458333,0,0,0.26458333,119.16413,92.768807)"
       style="fill:none;stroke:#000000;stroke-width:0.373001px;stroke-linecap:round;stroke-linejoin:round;stroke-miterlimit:4;stroke-dasharray:none;stroke-opacity:1"
       clip-path="url(#clipEmfPath1)"
       d="M 661.08165,376.09883 H 593.94151 Z"
       id="path1079" />
    <path
       transform="matrix(0.26458333,0,0,0.26458333,119.16413,92.768807)"
       style="fill:none;stroke:#000000;stroke-width:0.373001px;stroke-linecap:round;stroke-linejoin:round;stroke-miterlimit:4;stroke-dasharray:none;stroke-opacity:1"
       clip-path="url(#clipEmfPath1)"
       d="M 661.08165,376.09883 H 593.94151 Z"
       id="path1081" />
    <path
       transform="matrix(0.26458333,0,0,0.26458333,119.16413,92.768807)"
       style="fill:none;stroke:#000000;stroke-width:0.373001px;stroke-linecap:round;stroke-linejoin:round;stroke-miterlimit:4;stroke-dasharray:none;stroke-opacity:1"
       clip-path="url(#clipEmfPath1)"
       d="M 661.08165,376.09883 H 593.94151 Z"
       id="path1083" />
    <path
       transform="matrix(0.26458333,0,0,0.26458333,119.16413,92.768807)"
       style="fill:#ffffff;fill-opacity:1;fill-rule:evenodd;stroke:none"
       clip-path="url(#clipEmfPath1)"
       d="m 593.94151,346.25958 v 29.83925 h 67.14014 v -29.83925 z"
       id="path1085" />
    <path
       transform="matrix(0.26458333,0,0,0.26458333,119.16413,92.768807)"
       style="fill:none;stroke:#000000;stroke-width:0.373001px;stroke-linecap:round;stroke-linejoin:round;stroke-miterlimit:4;stroke-dasharray:none;stroke-opacity:1"
       clip-path="url(#clipEmfPath1)"
       d="m 661.08165,376.09883 v -29.83925 h -67.14014 v 29.83925 z"
       id="path1087" />
    <path
       transform="matrix(0.26458333,0,0,0.26458333,119.16413,92.768807)"
       style="fill:none;stroke:#000000;stroke-width:0.373001px;stroke-linecap:round;stroke-linejoin:round;stroke-miterlimit:4;stroke-dasharray:none;stroke-opacity:1"
       clip-path="url(#clipEmfPath1)"
       d="m 661.08165,376.09883 v -29.83925 h -67.14014 v 29.83925 z"
       id="path1089" />
    <g
       transform="matrix(0.26458333,0,0,0.26458333,119.16413,92.768807)"
       clip-path="url(#clipEmfPath1)"
       id="g1097">
      <text
         xml:space="preserve"
         style="font-style:normal;font-variant:normal;font-weight:400;font-size:13.3125px;line-height:125%;font-family:Arial;text-align:start;letter-spacing:0px;word-spacing:0px;text-anchor:start;fill:#000000;fill-opacity:1;stroke:none"
         transform="translate(610.47788,365.15777)"
         x="0"
         y="0"
         id="text1095"><tspan
           sodipodi:role="line"
           x="0"
           y="0"
           id="tspan1093"><tspan
             dx="0"
             dy="0"
             style="font-style:normal;font-variant:normal;font-weight:400;font-size:13.3125px;font-family:Arial;fill:#000000"
             id="tspan1091">Reply</tspan></tspan></text>
    </g>
    <path
       transform="matrix(0.26458333,0,0,0.26458333,119.16413,92.768807)"
       style="fill:none;stroke:#000000;stroke-width:0.373001px;stroke-linecap:round;stroke-linejoin:round;stroke-miterlimit:4;stroke-dasharray:none;stroke-opacity:1"
       clip-path="url(#clipEmfPath1)"
       d="m 627.51158,314.55539 v 31.70419"
       id="path1099" />
    <path
       transform="matrix(0.26458333,0,0,0.26458333,119.16413,92.768807)"
       style="fill:none;stroke:#000000;stroke-width:0.373001px;stroke-linecap:round;stroke-linejoin:round;stroke-miterlimit:4;stroke-dasharray:none;stroke-opacity:1"
       clip-path="url(#clipEmfPath1)"
       d="m 622.91124,332.45893 4.60034,13.80065 4.47601,-13.80065"
       id="path1101" />
    <path
       transform="matrix(0.26458333,0,0,0.26458333,119.16413,92.768807)"
       style="fill:none;stroke:#000000;stroke-width:0.373001px;stroke-linecap:round;stroke-linejoin:round;stroke-miterlimit:4;stroke-dasharray:none;stroke-opacity:1"
       clip-path="url(#clipEmfPath1)"
       d="M 159.39565,382.564 V 345.26494 Z"
       id="path1103" />
    <path
       transform="matrix(0.26458333,0,0,0.26458333,119.16413,92.768807)"
       style="fill:none;stroke:#000000;stroke-width:0.373001px;stroke-linecap:round;stroke-linejoin:round;stroke-miterlimit:4;stroke-dasharray:none;stroke-opacity:1"
       clip-path="url(#clipEmfPath1)"
       d="M 159.39565,382.564 H 54.955443 Z"
       id="path1105" />
    <path
       transform="matrix(0.26458333,0,0,0.26458333,119.16413,92.768807)"
       style="fill:none;stroke:#000000;stroke-width:0.373001px;stroke-linecap:round;stroke-linejoin:round;stroke-miterlimit:4;stroke-dasharray:none;stroke-opacity:1"
       clip-path="url(#clipEmfPath1)"
       d="M 159.39565,382.564 H 54.955443 Z"
       id="path1107" />
    <path
       transform="matrix(0.26458333,0,0,0.26458333,119.16413,92.768807)"
       style="fill:none;stroke:#000000;stroke-width:0.373001px;stroke-linecap:round;stroke-linejoin:round;stroke-miterlimit:4;stroke-dasharray:none;stroke-opacity:1"
       clip-path="url(#clipEmfPath1)"
       d="M 159.39565,382.564 H 54.955443 Z"
       id="path1109" />
    <path
       transform="matrix(0.26458333,0,0,0.26458333,119.16413,92.768807)"
       style="fill:#ffffff;fill-opacity:1;fill-rule:evenodd;stroke:none"
       clip-path="url(#clipEmfPath1)"
       d="M 54.955443,345.26494 V 382.564 H 159.39565 v -37.29906 z"
       id="path1111" />
    <path
       transform="matrix(0.26458333,0,0,0.26458333,119.16413,92.768807)"
       style="fill:none;stroke:#000000;stroke-width:0.373001px;stroke-linecap:round;stroke-linejoin:round;stroke-miterlimit:4;stroke-dasharray:none;stroke-opacity:1"
       clip-path="url(#clipEmfPath1)"
       d="M 159.39565,382.564 V 345.26494 H 54.955443 V 382.564 Z"
       id="path1113" />
    <path
       transform="matrix(0.26458333,0,0,0.26458333,119.16413,92.768807)"
       style="fill:none;stroke:#000000;stroke-width:0.373001px;stroke-linecap:round;stroke-linejoin:round;stroke-miterlimit:4;stroke-dasharray:none;stroke-opacity:1"
       clip-path="url(#clipEmfPath1)"
       d="M 159.39565,382.564 V 345.26494 H 54.955443 V 382.564 Z"
       id="path1115" />
    <g
       transform="matrix(0.26458333,0,0,0.26458333,119.16413,92.768807)"
       clip-path="url(#clipEmfPath1)"
       id="g1127">
      <text
         xml:space="preserve"
         style="font-style:normal;font-variant:normal;font-weight:400;font-size:13.3125px;line-height:119.544%;font-family:Helvetica;text-align:center;letter-spacing:0px;word-spacing:0px;text-anchor:middle;fill:#000000;fill-opacity:1;stroke:none"
         transform="translate(72.113477,359.9359)"
         x="35.15657"
         y="0"
         id="text1125"><tspan
           sodipodi:role="line"
           x="35.15657"
           y="0"
           id="tspan1119"><tspan
             dx="0"
             dy="0"
             style="font-style:normal;font-variant:normal;font-weight:400;font-size:13.3125px;font-family:Helvetica;fill:#000000"
             id="tspan1117">«datastore»</tspan></tspan><tspan
           sodipodi:role="line"
           x="35.15657"
           y="15.914294"
           id="tspan1123"><tspan
             dx="0"
             dy="0"
             style="font-style:normal;font-variant:normal;font-weight:400;font-size:13.3125px;font-family:Arial;fill:#000000"
             id="tspan1121">Inventory</tspan></tspan></text>
    </g>
    <path
       transform="matrix(0.26458333,0,0,0.26458333,119.16413,92.768807)"
       style="fill:none;stroke:#000000;stroke-width:0.373001px;stroke-linecap:round;stroke-linejoin:round;stroke-miterlimit:4;stroke-dasharray:none;stroke-opacity:1"
       clip-path="url(#clipEmfPath1)"
       d="M 159.39565,473.07638 V 435.77732 Z"
       id="path1129" />
    <path
       transform="matrix(0.26458333,0,0,0.26458333,119.16413,92.768807)"
       style="fill:none;stroke:#000000;stroke-width:0.373001px;stroke-linecap:round;stroke-linejoin:round;stroke-miterlimit:4;stroke-dasharray:none;stroke-opacity:1"
       clip-path="url(#clipEmfPath1)"
       d="M 159.39565,473.07638 H 54.955443 Z"
       id="path1131" />
    <path
       transform="matrix(0.26458333,0,0,0.26458333,119.16413,92.768807)"
       style="fill:none;stroke:#000000;stroke-width:0.373001px;stroke-linecap:round;stroke-linejoin:round;stroke-miterlimit:4;stroke-dasharray:none;stroke-opacity:1"
       clip-path="url(#clipEmfPath1)"
       d="M 159.39565,473.07638 H 54.955443 Z"
       id="path1133" />
    <path
       transform="matrix(0.26458333,0,0,0.26458333,119.16413,92.768807)"
       style="fill:none;stroke:#000000;stroke-width:0.373001px;stroke-linecap:round;stroke-linejoin:round;stroke-miterlimit:4;stroke-dasharray:none;stroke-opacity:1"
       clip-path="url(#clipEmfPath1)"
       d="M 159.39565,473.07638 H 54.955443 Z"
       id="path1135" />
    <path
       transform="matrix(0.26458333,0,0,0.26458333,119.16413,92.768807)"
       style="fill:#ffffff;fill-opacity:1;fill-rule:evenodd;stroke:none"
       clip-path="url(#clipEmfPath1)"
       d="m 54.955443,435.77732 v 37.29906 H 159.39565 v -37.29906 z"
       id="path1137" />
    <path
       transform="matrix(0.26458333,0,0,0.26458333,119.16413,92.768807)"
       style="fill:none;stroke:#000000;stroke-width:0.373001px;stroke-linecap:round;stroke-linejoin:round;stroke-miterlimit:4;stroke-dasharray:none;stroke-opacity:1"
       clip-path="url(#clipEmfPath1)"
       d="M 159.39565,473.07638 V 435.77732 H 54.955443 v 37.29906 z"
       id="path1139" />
    <path
       transform="matrix(0.26458333,0,0,0.26458333,119.16413,92.768807)"
       style="fill:none;stroke:#000000;stroke-width:0.373001px;stroke-linecap:round;stroke-linejoin:round;stroke-miterlimit:4;stroke-dasharray:none;stroke-opacity:1"
       clip-path="url(#clipEmfPath1)"
       d="M 159.39565,473.07638 V 435.77732 H 54.955443 v 37.29906 z"
       id="path1141" />
    <g
       transform="matrix(0.26458333,0,0,0.26458333,119.16413,92.768807)"
       clip-path="url(#clipEmfPath1)"
       id="g1153">
      <text
         xml:space="preserve"
         style="font-style:normal;font-variant:normal;font-weight:400;font-size:13.3125px;line-height:119.544%;font-family:Helvetica;text-align:center;letter-spacing:0px;word-spacing:0px;text-anchor:middle;fill:#000000;fill-opacity:1;stroke:none"
         transform="translate(72.113477,450.44828)"
         x="35.15657"
         y="0"
         id="text1151"><tspan
           sodipodi:role="line"
           x="35.15657"
           y="0"
           id="tspan1145"><tspan
             dx="0"
             dy="0"
             style="font-style:normal;font-variant:normal;font-weight:400;font-size:13.3125px;font-family:Helvetica;fill:#000000"
             id="tspan1143">«datastore»</tspan></tspan><tspan
           sodipodi:role="line"
           x="35.15657"
           y="15.914294"
           id="tspan1149"><tspan
             dx="0"
             dy="0"
             style="font-style:normal;font-variant:normal;font-weight:400;font-size:13.3125px;font-family:Arial;fill:#000000"
             id="tspan1147">Accounting</tspan></tspan></text>
    </g>
    <path
       transform="matrix(0.26458333,0,0,0.26458333,119.16413,92.768807)"
       style="fill:none;stroke:#000000;stroke-width:0.373001px;stroke-linecap:round;stroke-linejoin:round;stroke-miterlimit:4;stroke-dasharray:none;stroke-opacity:1"
       clip-path="url(#clipEmfPath1)"
       d="m 218.0811,401.21353 h -12.55769 -0.746 -0.62167 l -0.62167,-0.12433 -0.62167,-0.12433 -1.24333,-0.24866 -1.119,-0.49732 -1.11901,-0.49732 -0.99467,-0.62165 -0.99466,-0.74599 -0.87034,-0.74598 -0.746,-0.99464 -0.746,-0.87031 -0.62167,-1.11897 -0.62167,-1.11897 -0.373,-1.11897 -0.24867,-1.24331 -0.12433,-0.49732 -0.12433,-0.74598 v -0.62165 -0.62165 -7.95713 l -0.12434,-0.87031 v -0.87032 l -0.12433,-0.87031 -0.12433,-0.74598 -0.24867,-0.87031 -0.24867,-0.74598 -0.24867,-0.74598 -0.24866,-0.87031 -0.373,-0.62165 -0.373,-0.74599 -0.373,-0.74598 -0.49734,-0.62165 -0.373,-0.74598 -0.49733,-0.62165 -1.11901,-1.11897 -1.24333,-1.11897 -0.62167,-0.49732 -0.62167,-0.49732 -0.746,-0.37299 -0.62167,-0.49733 -0.746,-0.37299 -0.746,-0.24866 -0.746,-0.37299 -0.746,-0.24866 -0.87034,-0.24866 -0.746,-0.12433 -0.87033,-0.12433 -0.87034,-0.12433 -0.87034,-0.12433 h -0.746 -16.78503"
       id="path1155" />
    <path
       transform="matrix(0.26458333,0,0,0.26458333,119.16413,92.768807)"
       style="fill:none;stroke:#000000;stroke-width:0.373001px;stroke-linecap:round;stroke-linejoin:round;stroke-miterlimit:4;stroke-dasharray:none;stroke-opacity:1"
       clip-path="url(#clipEmfPath1)"
       d="m 173.07234,359.31425 -13.67669,4.60022 13.67669,4.60022"
       id="path1157" />
    <path
       transform="matrix(0.26458333,0,0,0.26458333,119.16413,92.768807)"
       style="fill:none;stroke:#000000;stroke-width:0.373001px;stroke-linecap:round;stroke-linejoin:round;stroke-miterlimit:4;stroke-dasharray:none;stroke-opacity:1"
       clip-path="url(#clipEmfPath1)"
       d="m 218.0811,421.72801 h -12.55769 -0.746 l -0.62167,0.12433 h -0.62167 l -0.62167,0.12433 -1.24333,0.37299 -1.119,0.37299 -1.11901,0.49732 -0.99467,0.62165 -0.99466,0.74598 -0.87034,0.87032 -0.746,0.87031 -0.746,0.99464 -0.62167,0.99464 -0.62167,1.11897 -0.373,1.11897 -0.24867,1.24331 -0.12433,0.62165 -0.12433,0.62165 v 0.62165 0.62165 3.35692 l -0.12434,0.87031 v 0.74598 l -0.12433,0.87031 -0.12433,0.87031 -0.24867,0.74598 -0.24867,0.87031 -0.24867,0.74598 -0.24866,0.74598 -0.373,0.74599 -0.373,0.74598 -0.373,0.74598 -0.49734,0.62165 -0.373,0.62165 -0.49733,0.74598 -1.11901,1.11897 -1.24333,1.11897 -0.62167,0.49733 -0.62167,0.49732 -0.746,0.37299 -0.62167,0.37299 -0.746,0.37299 -0.746,0.37299 -0.746,0.24866 -0.746,0.37299 -0.87034,0.12433 -0.746,0.24866 -0.87033,0.12433 -0.87034,0.12433 h -0.87034 l -0.746,0.12433 h -16.78503"
       id="path1159" />
    <path
       transform="matrix(0.26458333,0,0,0.26458333,119.16413,92.768807)"
       style="fill:none;stroke:#000000;stroke-width:0.373001px;stroke-linecap:round;stroke-linejoin:round;stroke-miterlimit:4;stroke-dasharray:none;stroke-opacity:1"
       clip-path="url(#clipEmfPath1)"
       d="m 173.07234,449.82663 -13.67669,4.60022 13.67669,4.60022"
       id="path1161" />
    <path
       transform="matrix(0.26458333,0,0,0.26458333,119.16413,92.768807)"
       style="fill:#ffffff;fill-opacity:1;fill-rule:evenodd;stroke:none"
       clip-path="url(#clipEmfPath1)"
       d="M 2.2380044,5.843519 V 50.602388 H 180.90536 V 5.843519 Z"
       id="path1163" />
    <path
       transform="matrix(0.26458333,0,0,0.26458333,119.70692,94.26556)"
       d="M 0.18554688 0.18554688 L 0.18554688 44.945312 L 178.85352 44.945312 L 178.85352 16.847656 L 162.19336 0.18554688 L 0.18554688 0.18554688 z "
       style="fill:none;stroke:#000000;stroke-width:0.373001px;stroke-linecap:round;stroke-linejoin:round;stroke-miterlimit:4;stroke-dasharray:none;stroke-opacity:1"
       clip-path="url(#clipEmfPath1)"
       id="path1165" />
    <g
       transform="matrix(0.26458333,0,0,0.26458333,119.16413,92.768807)"
       clip-path="url(#clipEmfPath1)"
       id="g1177">
      <text
         xml:space="preserve"
         style="font-style:normal;font-variant:normal;font-weight:700;font-size:13.3125px;line-height:119.544%;font-family:Helvetica;text-align:start;letter-spacing:0px;word-spacing:0px;text-anchor:start;fill:#000000;fill-opacity:1;stroke:none"
         transform="translate(8.952018,24.244387)"
         x="0"
         y="0"
         id="text1175"><tspan
           sodipodi:role="line"
           x="0"
           y="0"
           id="tspan1169"><tspan
             dx="0"
             dy="0"
             style="font-style:normal;font-variant:normal;font-weight:700;font-size:13.3125px;font-family:Helvetica;fill:#000000"
             id="tspan1167">Data Flow Scenario for </tspan></tspan><tspan
           sodipodi:role="line"
           x="0"
           y="15.914294"
           id="tspan1173"><tspan
             dx="0"
             dy="0"
             style="font-style:normal;font-variant:normal;font-weight:700;font-size:13.3125px;font-family:Helvetica;fill:#000000"
             id="tspan1171">Process Sale Use Case</tspan></tspan></text>
    </g>
    <path
       transform="matrix(0.26458333,0,0,0.26458333,119.16404,92.769048)"
       style="fill:#000000;fill-opacity:1;fill-rule:evenodd;stroke:none"
       clip-path="url(#clipEmfPath1)"
       d="M 180.90536,22.503765 164.24466,5.843519 v 16.660246 z"
       id="path1183" />
  </g>
</svg>
