<?xml version="1.0" encoding="UTF-8" standalone="no"?>
<svg
   xmlns:dc="http://purl.org/dc/elements/1.1/"
   xmlns:cc="http://creativecommons.org/ns#"
   xmlns:rdf="http://www.w3.org/1999/02/22-rdf-syntax-ns#"
   xmlns:svg="http://www.w3.org/2000/svg"
   xmlns="http://www.w3.org/2000/svg"
   xmlns:sodipodi="http://sodipodi.sourceforge.net/DTD/sodipodi-0.dtd"
   xmlns:inkscape="http://www.inkscape.org/namespaces/inkscape"
   width="213.00609mm"
   height="121.79514mm"
   viewBox="0 0 213.0061 121.79513"
   version="1.1"
   id="svg8"
   inkscape:version="1.0 (4035a4fb49, 2020-05-01)"
   sodipodi:docname="F23.12.svg">
  <defs
     id="defs2">
    <rect
       x="-120.98844"
       y="112.91153"
       width="33.141422"
       height="36.749561"
       id="rect4969" />
    <rect
       x="-71.844185"
       y="75.546013"
       width="83.03833"
       height="12.521057"
       id="rect4959" />
    <clipPath
       id="clipEmfPath1"
       clipPathUnits="userSpaceOnUse">
      <path
         id="path833"
         d="M 0,0 H 732.83586 V 530.87826 H 0 Z" />
    </clipPath>
    <pattern
       y="0"
       x="0"
       height="6"
       width="6"
       patternUnits="userSpaceOnUse"
       id="EMFhbasepattern" />
    <clipPath
       id="clipEmfPath1-0"
       clipPathUnits="userSpaceOnUse">
      <path
         id="path1456"
         d="M 0,0 H 863.47668 V 330.83949 H 0 Z" />
    </clipPath>
    <pattern
       y="0"
       x="0"
       height="6"
       width="6"
       patternUnits="userSpaceOnUse"
       id="EMFhbasepattern-0" />
    <clipPath
       id="clipEmfPath1-5"
       clipPathUnits="userSpaceOnUse">
      <path
         id="path1723"
         d="M 0,0 H 648.88674 V 424.86251 H 0 Z" />
    </clipPath>
    <pattern
       y="0"
       x="0"
       height="6"
       width="6"
       patternUnits="userSpaceOnUse"
       id="EMFhbasepattern-1" />
    <clipPath
       id="clipEmfPath1-55"
       clipPathUnits="userSpaceOnUse">
      <path
         id="path2761"
         d="M 0,0 H 735.0745 V 523.52271 H 0 Z" />
    </clipPath>
    <pattern
       y="0"
       x="0"
       height="6"
       width="6"
       patternUnits="userSpaceOnUse"
       id="EMFhbasepattern-2" />
    <clipPath
       id="clipEmfPath1-3"
       clipPathUnits="userSpaceOnUse">
      <path
         id="path3859"
         d="M 0,0 H 735.0745 V 523.52271 H 0 Z" />
    </clipPath>
    <pattern
       y="0"
       x="0"
       height="6"
       width="6"
       patternUnits="userSpaceOnUse"
       id="EMFhbasepattern-6" />
    <clipPath
       id="clipEmfPath1-7"
       clipPathUnits="userSpaceOnUse">
      <path
         id="path4973"
         d="M 0,0 H 934.63356 V 287.82556 H 0 Z" />
    </clipPath>
    <pattern
       y="0"
       x="0"
       height="6"
       width="6"
       patternUnits="userSpaceOnUse"
       id="EMFhbasepattern-8" />
    <clipPath
       id="clipEmfPath1-2"
       clipPathUnits="userSpaceOnUse">
      <path
         id="path5315"
         d="M 0,0 H 934.79346 V 287.98546 H 0 Z" />
    </clipPath>
    <clipPath
       id="clipEmfPath2"
       clipPathUnits="userSpaceOnUse">
      <path
         id="path5318"
         d="M 0.11328125,0.11328125 V 287.93945 H 934.74609 V 0.11328125 Z" />
    </clipPath>
    <pattern
       y="0"
       x="0"
       height="6"
       width="6"
       patternUnits="userSpaceOnUse"
       id="EMFhbasepattern-85" />
    <clipPath
       id="clipEmfPath1-1"
       clipPathUnits="userSpaceOnUse">
      <path
         id="path5662"
         d="M 0,0 H 767.53483 V 535.51545 H 0 Z" />
    </clipPath>
    <pattern
       y="0"
       x="0"
       height="6"
       width="6"
       patternUnits="userSpaceOnUse"
       id="EMFhbasepattern-19" />
    <clipPath
       id="clipEmfPath1-9"
       clipPathUnits="userSpaceOnUse">
      <path
         id="path6250"
         d="M 0,0 H 609.23077 V 390.96305 H 0 Z" />
    </clipPath>
    <pattern
       y="0"
       x="0"
       height="6"
       width="6"
       patternUnits="userSpaceOnUse"
       id="EMFhbasepattern-06" />
    <clipPath
       id="clipEmfPath1-51"
       clipPathUnits="userSpaceOnUse">
      <path
         id="path6892"
         d="M 0,0 H 851.64385 V 552.14537 H 0 Z" />
    </clipPath>
    <pattern
       y="0"
       x="0"
       height="6"
       width="6"
       patternUnits="userSpaceOnUse"
       id="EMFhbasepattern-03" />
    <clipPath
       id="clipEmfPath1-38"
       clipPathUnits="userSpaceOnUse">
      <path
         id="path7519"
         d="M 0,0 H 928.87704 V 343.79164 H 0 Z" />
    </clipPath>
    <pattern
       y="0"
       x="0"
       height="6"
       width="6"
       patternUnits="userSpaceOnUse"
       id="EMFhbasepattern-3" />
    <clipPath
       clipPathUnits="userSpaceOnUse"
       id="clipEmfPath1-11">
      <path
         d="M 0,0 H 808.47002 V 463.71896 H 0 Z"
         id="path9677" />
    </clipPath>
    <pattern
       id="EMFhbasepattern-68"
       patternUnits="userSpaceOnUse"
       width="6"
       height="6"
       x="0"
       y="0" />
  </defs>
  <sodipodi:namedview
     id="base"
     pagecolor="#ffffff"
     bordercolor="#666666"
     borderopacity="1.0"
     inkscape:pageopacity="0.0"
     inkscape:pageshadow="2"
     inkscape:zoom="0.98994949"
     inkscape:cx="282.09007"
     inkscape:cy="172.2541"
     inkscape:document-units="mm"
     inkscape:current-layer="g9883"
     inkscape:document-rotation="0"
     showgrid="false"
     fit-margin-top="0"
     fit-margin-left="0"
     fit-margin-right="0"
     fit-margin-bottom="0"
     inkscape:window-width="1920"
     inkscape:window-height="1017"
     inkscape:window-x="1272"
     inkscape:window-y="-8"
     inkscape:window-maximized="1" />
  <metadata
     id="metadata5">
    <rdf:RDF>
      <cc:Work
         rdf:about="">
        <dc:format>image/svg+xml</dc:format>
        <dc:type
           rdf:resource="http://purl.org/dc/dcmitype/StillImage" />
        <dc:title></dc:title>
      </cc:Work>
    </rdf:RDF>
  </metadata>
  <g
     inkscape:label="Layer 1"
     inkscape:groupmode="layer"
     id="layer1"
     transform="translate(-199.16595,-20.967156)">
    <g
       transform="matrix(0.26458333,0,0,0.26458333,199.16595,20.967156)"
       clip-path="url(#clipEmfPath1-11)"
       id="g9683" />
    <path
       transform="matrix(0.26458333,0,0,0.26458333,199.16595,20.967156)"
       style="fill:#ffffff;fill-opacity:1;fill-rule:evenodd;stroke:none"
       clip-path="url(#clipEmfPath1-11)"
       d="M 0,0 M 3.663538,3.6616306 V 74.453155 H 523.15323 V 3.6616306 Z"
       id="path9685" />
    <path
       transform="matrix(0.26458333,0,0,0.26458333,199.16595,20.967156)"
       style="fill:none;stroke:#000000;stroke-width:0.610431px;stroke-linecap:round;stroke-linejoin:round;stroke-miterlimit:10;stroke-dasharray:none;stroke-opacity:1"
       clip-path="url(#clipEmfPath1-11)"
       d="M 3.663538,74.453155 H 523.15323 V 3.6616306 H 3.663538 Z"
       id="path9687" />
    <g
       transform="matrix(0.26458333,0,0,0.26458333,199.16595,20.967156)"
       clip-path="url(#clipEmfPath1-11)"
       id="g9689" />
    <g
       transform="matrix(0.26458333,0,0,0.26458333,199.16595,20.967156)"
       clip-path="url(#clipEmfPath1-11)"
       id="g9705">
      <text
         xml:space="preserve"
         style="font-style:normal;font-variant:normal;font-weight:400;font-size:21.5px;line-height:125%;font-family:Calibri;text-align:start;letter-spacing:0px;word-spacing:0px;text-anchor:start;fill:#000000;fill-opacity:1;stroke:none"
         transform="translate(140.67986,33.198784)"
         x="0"
         y="0"
         id="text9697"><tspan
           sodipodi:role="line"
           x="0"
           y="0"
           id="tspan9695"><tspan
             dx="0"
             dy="0"
             style="font-style:normal;font-variant:normal;font-weight:400;font-size:21.5px;font-family:Calibri;fill:#000000"
             id="tspan9691">                                                  </tspan><tspan
             dx="0"
             dy="0"
             style="font-style:normal;font-variant:normal;font-weight:400;font-size:21.5px;font-family:Calibri;fill:#000000"
             id="tspan9693">1</tspan></tspan></text>
      <text
         xml:space="preserve"
         style="font-style:normal;font-variant:normal;font-weight:400;font-size:21.5px;line-height:125%;font-family:Calibri;text-align:start;letter-spacing:0px;word-spacing:0px;text-anchor:start;fill:#000000;fill-opacity:1;stroke:none"
         transform="translate(140.67986,33.198784)"
         x="-15.631095"
         y="25.387304"
         id="text9703"><tspan
           sodipodi:role="line"
           x="-15.631095"
           y="25.387304"
           id="tspan9701"><tspan
             dx="0"
             dy="0"
             style="font-style:normal;font-variant:normal;font-weight:400;font-size:21.5px;font-family:Calibri;fill:#000000"
             id="tspan9699">FabriqueDeStratégiesTarification</tspan></tspan></text>
    </g>
    <path
       transform="matrix(0.26458333,0,0,0.26458333,199.16595,20.967156)"
       style="fill:#ffffff;fill-opacity:1;fill-rule:evenodd;stroke:none"
       clip-path="url(#clipEmfPath1-11)"
       d="M 3.663538,74.453155 V 121.32203 H 523.15323 V 74.453155 Z"
       id="path9707" />
    <path
       transform="matrix(0.26458333,0,0,0.26458333,199.16595,20.967156)"
       style="fill:none;stroke:#000000;stroke-width:0.610431px;stroke-linecap:round;stroke-linejoin:round;stroke-miterlimit:10;stroke-dasharray:none;stroke-opacity:1"
       clip-path="url(#clipEmfPath1-11)"
       d="M 3.663538,121.32203 H 523.15323 V 74.453155 H 3.663538 Z"
       id="path9709" />
    <g
       text-decoration="underline"
       transform="matrix(0.26458333,0,0,0.26458333,199.16595,20.967156)"
       clip-path="url(#clipEmfPath1-11)"
       id="g9721">
      <text
         xml:space="preserve"
         style="font-style:normal;font-variant:normal;font-weight:400;font-size:21.5px;line-height:125%;font-family:Calibri;text-align:start;letter-spacing:0px;word-spacing:0px;text-anchor:start;fill:#000000;fill-opacity:1;stroke:none"
         transform="translate(15.631095,103.50209)"
         x="0"
         y="0"
         id="text9719"><tspan
           sodipodi:role="line"
           x="0"
           y="0"
           id="tspan9717"><tspan
             dx="0"
             dy="0"
             style="font-style:normal;font-variant:normal;font-weight:400;font-size:21.5px;font-family:Calibri;fill:#000000"
             id="tspan9711">instance </tspan><tspan
             dx="-1.882882"
             dy="0"
             style="font-style:normal;font-variant:normal;font-weight:400;font-size:21.5px;font-family:Calibri;fill:#000000"
             id="tspan9713">: </tspan><tspan
             dx="-0.844091"
             dy="0"
             style="font-style:normal;font-variant:normal;font-weight:400;font-size:21.5px;font-family:Calibri;fill:#000000"
             id="tspan9715">FabriqueDeStratégiesTarification</tspan></tspan></text>
    </g>
    <path
       transform="matrix(0.26458333,0,0,0.26458333,199.16595,20.967156)"
       style="fill:#ffffff;fill-opacity:1;fill-rule:evenodd;stroke:none"
       clip-path="url(#clipEmfPath1-11)"
       d="M 3.663538,121.32203 V 267.17698 H 523.15323 V 121.32203 Z"
       id="path9725" />
    <path
       transform="matrix(0.26458333,0,0,0.26458333,199.16595,20.967156)"
       style="fill:none;stroke:#000000;stroke-width:0.610431px;stroke-linecap:round;stroke-linejoin:round;stroke-miterlimit:10;stroke-dasharray:none;stroke-opacity:1"
       clip-path="url(#clipEmfPath1-11)"
       d="M 3.663538,267.17698 H 523.15323 V 121.32203 H 3.663538 Z"
       id="path9727" />
    <g
       text-decoration="underline"
       transform="matrix(0.26458333,0,0,0.26458333,199.16595,20.967156)"
       clip-path="url(#clipEmfPath1-11)"
       id="g9739">
      <text
         xml:space="preserve"
         style="font-style:normal;font-variant:normal;font-weight:400;font-size:21.5px;line-height:125%;font-family:Calibri;text-align:start;letter-spacing:0px;word-spacing:0px;text-anchor:start;fill:#000000;fill-opacity:1;stroke:none"
         transform="translate(15.631095,150.37096)"
         x="0"
         y="0"
         id="text9737"><tspan
           sodipodi:role="line"
           x="0"
           y="0"
           id="tspan9735"><tspan
             dx="0"
             dy="0"
             style="font-style:normal;font-variant:normal;font-weight:400;font-size:21.5px;font-family:Calibri;fill:#000000"
             id="tspan9729">getInstance</tspan><tspan
             dx="-2.077841"
             dy="0"
             style="font-style:normal;font-variant:normal;font-weight:400;font-size:21.5px;font-family:Calibri;fill:#000000"
             id="tspan9731">() : </tspan><tspan
             dx="-1.158278"
             dy="0"
             style="font-style:normal;font-variant:normal;font-weight:400;font-size:21.5px;font-family:Calibri;fill:#000000"
             id="tspan9733">FabriqueDeStratégiesTarification</tspan></tspan></text>
    </g>
    <g
       transform="matrix(0.26458333,0,0,0.26458333,199.16595,20.967156)"
       clip-path="url(#clipEmfPath1-11)"
       id="g9775">
      <text
         xml:space="preserve"
         style="font-style:normal;font-variant:normal;font-weight:400;font-size:21.5px;line-height:108.997%;font-family:Calibri;text-align:start;letter-spacing:0px;word-spacing:0px;text-anchor:start;fill:#000000;fill-opacity:1;stroke:none"
         transform="translate(15.631095,201.14557)"
         x="0"
         y="0"
         id="text9767"><tspan
           sodipodi:role="line"
           x="0"
           y="0"
           id="tspan9753"><tspan
             dx="0"
             dy="0"
             style="font-style:normal;font-variant:normal;font-weight:400;font-size:21.5px;font-family:Calibri;fill:#000000"
             id="tspan9743">get</tspan><tspan
             dx="-0.66487002"
             dy="0"
             style="font-style:normal;font-variant:normal;font-weight:400;font-size:21.5px;font-family:Calibri;fill:#000000"
             id="tspan9745">StratégieTarification</tspan><tspan
             dx="0"
             dy="0"
             style="font-style:normal;font-variant:normal;font-weight:400;font-size:21.5px;font-family:Calibri;fill:#000000"
             id="tspan9747">() : </tspan><tspan
             dx="-1.158278"
             dy="0"
             style="font-style:normal;font-variant:normal;font-weight:400;font-size:21.5px;font-family:Calibri;fill:#000000"
             id="tspan9749">I</tspan><tspan
             dx="0.44466901"
             dy="0"
             style="font-style:normal;font-variant:normal;font-weight:400;font-size:21.5px;font-family:Calibri;fill:#000000"
             id="tspan9751">StratégieTarification</tspan></tspan><tspan
           sodipodi:role="line"
           x="0"
           y="23.434355"
           id="tspan9765"><tspan
             dx="0"
             dy="0"
             style="font-style:normal;font-variant:normal;font-weight:400;font-size:21.5px;font-family:Calibri;fill:#000000"
             id="tspan9755">get</tspan><tspan
             dx="-0.66487002"
             dy="0"
             style="font-style:normal;font-variant:normal;font-weight:400;font-size:21.5px;font-family:Calibri;fill:#000000"
             id="tspan9757">StratégieTarificationSenior</tspan><tspan
             dx="0"
             dy="0"
             style="font-style:normal;font-variant:normal;font-weight:400;font-size:21.5px;font-family:Calibri;fill:#000000"
             id="tspan9759">() : </tspan><tspan
             dx="-1.158278"
             dy="0"
             style="font-style:normal;font-variant:normal;font-weight:400;font-size:21.5px;font-family:Calibri;fill:#000000"
             id="tspan9761">I</tspan><tspan
             dx="-1.509218"
             dy="0"
             style="font-style:normal;font-variant:normal;font-weight:400;font-size:21.5px;font-family:Calibri;fill:#000000"
             id="tspan9763">StratégieTarification</tspan></tspan></text>
      <text
         xml:space="preserve"
         style="font-style:normal;font-variant:normal;font-weight:400;font-size:21.5px;line-height:125%;font-family:Calibri;text-align:start;letter-spacing:0px;word-spacing:0px;text-anchor:start;fill:#000000;fill-opacity:1;stroke:none"
         transform="translate(15.631095,201.14557)"
         x="0"
         y="48.821739"
         id="text9773"><tspan
           sodipodi:role="line"
           x="0"
           y="48.821739"
           id="tspan9771"><tspan
             dx="0"
             dy="0"
             style="font-style:normal;font-variant:normal;font-weight:400;font-size:21.5px;font-family:Calibri;fill:#000000"
             id="tspan9769">...</tspan></tspan></text>
    </g>
    <path
       transform="matrix(0.26458333,0,0,0.26458333,199.16595,20.967156)"
       style="fill:#ffffff;fill-opacity:1;fill-rule:evenodd;stroke:none"
       clip-path="url(#clipEmfPath1-11)"
       d="M 43.962456,311.2386 V 460.02285 H 804.75718 V 311.2386 Z"
       id="path9777" />
    <path
       transform="matrix(0.26458333,0,0,0.26458333,199.16595,20.967156)"
       style="fill:none;stroke:#000000;stroke-width:0.610431px;stroke-linecap:round;stroke-linejoin:round;stroke-miterlimit:10;stroke-dasharray:none;stroke-opacity:1"
       clip-path="url(#clipEmfPath1-11)"
       d="M 43.962456,460.02285 H 804.75718 V 311.2386 H 43.962456 Z"
       id="path9779" />
    <g
       transform="matrix(0.26458333,0,0,0.26458333,199.16595,20.967156)"
       clip-path="url(#clipEmfPath1-11)"
       id="g9883">
      <text
         xml:space="preserve"
         style="font-style:normal;font-variant:normal;font-weight:400;font-size:21.5px;line-height:118.08%;font-family:Calibri;text-align:start;letter-spacing:0px;word-spacing:0px;text-anchor:start;fill:#000000;fill-opacity:1;stroke:none"
         transform="translate(54.708834,341.75219)"
         x="0"
         y="0"
         id="text9803"><tspan
           sodipodi:role="line"
           x="0"
           y="0"
           id="tspan9783"><tspan
             dx="0"
             dy="0"
             style="font-style:normal;font-variant:normal;font-weight:400;font-size:21.5px;font-family:Calibri;fill:#000000"
             id="tspan9781">{</tspan></tspan><tspan
           sodipodi:role="line"
           x="0"
           y="25.387199"
           id="tspan9801"><tspan
             dx="0"
             dy="0"
             style="font-style:normal;font-variant:normal;font-weight:400;font-size:21.5px;font-family:Calibri;fill:#000000"
             id="tspan9785">  </tspan><tspan
             dx="0"
             dy="0"
             style="font-style:normal;font-variant:normal;font-weight:400;font-size:21.5px;font-family:Calibri;fill:#000000"
             id="tspan9787">String </tspan><tspan
             dx="0"
             dy="0"
             style="font-style:normal;font-variant:normal;font-weight:400;font-size:21.5px;font-family:Calibri;fill:#000000"
             id="tspan9789">nomClasse</tspan><tspan
             dx="1.719952"
             dy="0"
             style="font-style:normal;font-variant:normal;font-weight:400;font-size:21.5px;font-family:Calibri;fill:#000000"
             id="tspan9791">= </tspan><tspan
             dx="0"
             dy="0"
             style="font-style:normal;font-variant:normal;font-weight:400;font-size:21.5px;font-family:Calibri;fill:#000000"
             id="tspan9793">System</tspan><tspan
             dx="0"
             dy="0"
             style="font-style:normal;font-variant:normal;font-weight:400;font-size:21.5px;font-family:Calibri;fill:#000000"
             id="tspan9795">.</tspan><tspan
             dx="0.43417099"
             dy="0"
             style="font-style:normal;font-variant:normal;font-weight:400;font-size:21.5px;font-family:Calibri;fill:#000000"
             id="tspan9797">getProperty</tspan><tspan
             dx="0"
             dy="0"
             style="font-style:normal;font-variant:normal;font-weight:400;font-size:21.5px;font-family:Calibri;fill:#000000"
             id="tspan9799">( &quot;</tspan></tspan></text>
      <text
         xml:space="preserve"
         style="font-style:normal;font-variant:normal;font-weight:400;font-size:21.5px;line-height:125%;font-family:Calibri;text-align:start;letter-spacing:0px;word-spacing:0px;text-anchor:start;fill:#000000;fill-opacity:1;stroke:none"
         transform="translate(54.708834,341.75219)"
         x="361.46909"
         y="25.387304"
         id="text9823"><tspan
           sodipodi:role="line"
           x="361.46909"
           y="25.387304"
           id="tspan9821"><tspan
             dx="0 0"
             dy="0 0"
             style="font-style:normal;font-variant:normal;font-weight:400;font-size:21.5px;font-family:Calibri;fill:#000000"
             id="tspan9805"> strategietarification</tspan><tspan
             dx="0"
             dy="0"
             style="font-style:normal;font-variant:normal;font-weight:400;font-size:21.5px;font-family:Calibri;fill:#000000"
             id="tspan9807">.</tspan><tspan
             dx="0.43417099"
             dy="0"
             style="font-style:normal;font-variant:normal;font-weight:400;font-size:21.5px;font-family:Calibri;fill:#000000"
             id="tspan9809">class</tspan><tspan
             dx="0"
             dy="0"
             style="font-style:normal;font-variant:normal;font-weight:400;font-size:21.5px;font-family:Calibri;fill:#000000"
             id="tspan9811">e</tspan><tspan
             dx="-0.92807502"
             dy="0"
             style="font-style:normal;font-variant:normal;font-weight:400;font-size:21.5px;font-family:Calibri;fill:#000000"
             id="tspan9813">.</tspan><tspan
             dx="0.43417099"
             dy="0"
             style="font-style:normal;font-variant:normal;font-weight:400;font-size:21.5px;font-family:Calibri;fill:#000000"
             id="tspan9815">n</tspan><tspan
             dx="-1.526464"
             dy="0"
             style="font-style:normal;font-variant:normal;font-weight:400;font-size:21.5px;font-family:Calibri;fill:#000000"
             id="tspan9817">om</tspan><tspan
             dx="-1.158278"
             dy="0"
             style="font-style:normal;font-variant:normal;font-weight:400;font-size:21.5px;font-family:Calibri;fill:#000000"
             id="tspan9819">&quot; )</tspan></tspan></text>
      <text
         xml:space="preserve"
         style="font-style:normal;font-variant:normal;font-weight:400;font-size:21.5px;line-height:125%;font-family:Calibri;text-align:start;letter-spacing:0px;word-spacing:0px;text-anchor:start;fill:#000000;fill-opacity:1;stroke:none"
         transform="translate(54.708834,341.75219)"
         x="646.73657"
         y="25.387304"
         id="text9829"><tspan
           sodipodi:role="line"
           x="646.73657"
           y="25.387304"
           id="tspan9827"><tspan
             dx="0"
             dy="0"
             style="font-style:normal;font-variant:normal;font-weight:400;font-size:21.5px;font-family:Calibri;fill:#000000"
             id="tspan9825">;  </tspan></tspan></text>
      <text
         xml:space="preserve"
         style="font-style:normal;font-variant:normal;font-weight:400;font-size:21.5px;line-height:108.997%;font-family:Calibri;text-align:start;letter-spacing:0px;word-spacing:0px;text-anchor:start;fill:#000000;fill-opacity:1;stroke:none"
         transform="translate(54.708834,341.75219)"
         x="0"
         y="50.774612"
         id="text9875"><tspan
           sodipodi:role="line"
           x="0"
           y="50.774612"
           id="tspan9863"><tspan
             dx="0"
             dy="0"
             style="font-style:normal;font-variant:normal;font-weight:400;font-size:21.5px;font-family:Calibri;fill:#000000"
             id="tspan9831">  </tspan><tspan
             dx="0"
             dy="0"
             style="font-style:normal;font-variant:normal;font-weight:400;font-size:21.5px;font-family:Calibri;fill:#000000"
             id="tspan9833">strateg</tspan><tspan
             dx="0"
             dy="0"
             style="font-style:normal;font-variant:normal;font-weight:400;font-size:21.5px;font-family:Calibri;fill:#000000"
             id="tspan9835">ie</tspan><tspan
             dx="3.9072781"
             dy="0"
             style="font-style:normal;font-variant:normal;font-weight:400;font-size:21.5px;font-family:Calibri;fill:#000000"
             id="tspan9837">= (</tspan><tspan
             dx="-0.59513402"
             dy="0"
             style="font-style:normal;font-variant:normal;font-weight:400;font-size:21.5px;font-family:Calibri;fill:#000000"
             id="tspan9839">IStratégieTarification</tspan><tspan
             dx="0"
             dy="0"
             style="font-style:normal;font-variant:normal;font-weight:400;font-size:21.5px;font-family:Calibri;fill:#000000"
             id="tspan9841">) </tspan><tspan
             dx="0"
             dy="0"
             style="font-style:normal;font-variant:normal;font-weight:400;font-size:21.5px;font-family:Calibri;fill:#000000"
             id="tspan9843">Class</tspan><tspan
             dx="0"
             dy="0"
             style="font-style:normal;font-variant:normal;font-weight:400;font-size:21.5px;font-family:Calibri;fill:#000000"
             id="tspan9845">.</tspan><tspan
             dx="0.43417099"
             dy="0"
             style="font-style:normal;font-variant:normal;font-weight:400;font-size:21.5px;font-family:Calibri;fill:#000000"
             id="tspan9847">forName</tspan><tspan
             dx="0"
             dy="0"
             style="font-style:normal;font-variant:normal;font-weight:400;font-size:21.5px;font-family:Calibri;fill:#000000"
             id="tspan9849">( </tspan><tspan
             dx="0"
             dy="0"
             style="font-style:normal;font-variant:normal;font-weight:400;font-size:21.5px;font-family:Calibri;fill:#000000"
             id="tspan9851">nomClasse</tspan><tspan
             dx="-2.1878221"
             dy="0"
             style="font-style:normal;font-variant:normal;font-weight:400;font-size:21.5px;font-family:Calibri;fill:#000000"
             id="tspan9853"> </tspan><tspan
             dx="-0.95282203"
             dy="0"
             style="font-style:normal;font-variant:normal;font-weight:400;font-size:21.5px;font-family:Calibri;fill:#000000"
             id="tspan9855">).</tspan><tspan
             dx="0"
             dy="0"
             style="font-style:normal;font-variant:normal;font-weight:400;font-size:21.5px;font-family:Calibri;fill:#000000"
             id="tspan9857">newInstance</tspan><tspan
             dx="0"
             dy="0"
             style="font-style:normal;font-variant:normal;font-weight:400;font-size:21.5px;font-family:Calibri;fill:#000000"
             id="tspan9859">()</tspan><tspan
             dx="-1.315253"
             dy="0"
             style="font-style:normal;font-variant:normal;font-weight:400;font-size:21.5px;font-family:Calibri;fill:#000000"
             id="tspan9861">;</tspan></tspan><tspan
           sodipodi:role="line"
           x="0"
           y="74.208969"
           id="tspan9873"><tspan
             dx="0"
             dy="0"
             style="font-style:normal;font-variant:normal;font-weight:400;font-size:21.5px;font-family:Calibri;fill:#000000"
             id="tspan9865">  </tspan><tspan
             dx="0"
             dy="0"
             style="font-style:normal;font-variant:normal;font-weight:400;font-size:21.5px;font-family:Calibri;fill:#000000"
             id="tspan9867">return strateg</tspan><tspan
             dx="0"
             dy="0"
             style="font-style:normal;font-variant:normal;font-weight:400;font-size:21.5px;font-family:Calibri;fill:#000000"
             id="tspan9869">ie</tspan><tspan
             dx="0"
             dy="0"
             style="font-style:normal;font-variant:normal;font-weight:400;font-size:21.5px;font-family:Calibri;fill:#000000"
             id="tspan9871">; </tspan></tspan></text>
      <text
         xml:space="preserve"
         style="font-style:normal;font-variant:normal;font-weight:400;font-size:21.5px;line-height:125%;font-family:Calibri;text-align:start;letter-spacing:0px;word-spacing:0px;text-anchor:start;fill:#000000;fill-opacity:1;stroke:none"
         transform="translate(54.708834,341.75219)"
         x="0"
         y="99.596352"
         id="text9881"><tspan
           sodipodi:role="line"
           x="0"
           y="99.596352"
           id="tspan9879"><tspan
             dx="0"
             dy="0"
             style="font-style:normal;font-variant:normal;font-weight:400;font-size:21.5px;font-family:Calibri;fill:#000000"
             id="tspan9877">}</tspan></tspan></text>
    </g>
    <path
       transform="matrix(0.26458333,0,0,0.26458333,199.16595,20.967156)"
       style="fill:#ffffff;fill-opacity:1;fill-rule:evenodd;stroke:none"
       clip-path="url(#clipEmfPath1-11)"
       d="m 778.50182,311.2386 26.25536,26.24168 V 311.2386 Z"
       id="path9885" />
    <path
       transform="matrix(0.26458333,0,0,0.26458333,199.16595,20.967156)"
       style="fill:none;stroke:#ffffff;stroke-width:0.610431px;stroke-linecap:round;stroke-linejoin:round;stroke-miterlimit:10;stroke-dasharray:none;stroke-opacity:1"
       clip-path="url(#clipEmfPath1-11)"
       d="m 778.50182,311.2386 26.25536,26.24168 V 311.2386 Z"
       id="path9887" />
    <path
       transform="matrix(0.26458333,0,0,0.26458333,199.16595,20.967156)"
       style="fill:#000000;fill-opacity:1;fill-rule:evenodd;stroke:none"
       clip-path="url(#clipEmfPath1-11)"
       d="M 804.75718,337.48028 778.50182,311.2386 v 26.24168 z"
       id="path9889" />
    <path
       transform="matrix(0.26458333,0,0,0.26458333,199.16595,20.967156)"
       style="fill:none;stroke:#000000;stroke-width:0.610431px;stroke-linecap:round;stroke-linejoin:round;stroke-miterlimit:10;stroke-dasharray:none;stroke-opacity:1"
       clip-path="url(#clipEmfPath1-11)"
       d="M 804.75718,337.48028 778.50182,311.2386 v 26.24168 z"
       id="path9891" />
    <path
       transform="matrix(0.26458333,0,0,0.26458333,199.16595,20.967156)"
       style="fill:#000000;fill-opacity:1;fill-rule:nonzero;stroke:#000000;stroke-width:1.95338px;stroke-linecap:butt;stroke-linejoin:bevel;stroke-miterlimit:10;stroke-dasharray:none;stroke-opacity:1"
       clip-path="url(#clipEmfPath1-11)"
       d="m 614.00897,312.09298 v 0 c -0.36636,-0.36616 -0.48847,-0.97644 -0.24424,-1.3426 0.36636,-0.48822 0.97695,-0.61027 1.3433,-0.24411 v 0 c 0.48847,0.36616 0.61059,0.97644 0.24424,1.3426 -0.24424,0.48822 -0.85483,0.48822 -1.3433,0.24411 z m -7.93767,-5.73656 v 0 c -0.36635,-0.36616 -0.48847,-0.97643 -0.12212,-1.34259 0.24424,-0.48822 0.85483,-0.61028 1.3433,-0.24411 v 0 c 0.36636,0.24411 0.48847,0.85438 0.24424,1.3426 -0.36636,0.36616 -0.97695,0.48821 -1.46542,0.2441 z m -7.81554,-5.73655 v 0 c -0.48848,-0.36616 -0.61059,-0.97644 -0.24424,-1.46465 0.36635,-0.36617 0.97694,-0.48822 1.3433,-0.12206 v 0 c 0.48847,0.24411 0.61059,0.85438 0.24423,1.3426 -0.36635,0.36616 -0.97694,0.48822 -1.34329,0.24411 z m -7.93767,-5.85861 v 0 c -0.36635,-0.24411 -0.48847,-0.85438 -0.24424,-1.3426 0.36636,-0.36616 0.97695,-0.48821 1.46542,-0.24411 v 0 c 0.36635,0.36617 0.48847,0.97644 0.12212,1.46466 -0.24424,0.36616 -0.85483,0.48821 -1.3433,0.12205 z m -7.81555,-5.73655 v 0 c -0.48847,-0.24411 -0.61059,-0.85438 -0.24423,-1.3426 0.24423,-0.48822 0.85482,-0.48822 1.34329,-0.24411 v 0 c 0.48847,0.36616 0.48847,0.97643 0.24424,1.3426 -0.36635,0.48821 -0.97694,0.61027 -1.3433,0.24411 z m -7.93766,-5.73656 v 0 c -0.48848,-0.36616 -0.48848,-0.97643 -0.24424,-1.3426 0.36635,-0.48821 0.97694,-0.61027 1.3433,-0.24411 v 0 c 0.48847,0.36617 0.61059,0.97644 0.24423,1.3426 -0.24423,0.48822 -0.85482,0.61027 -1.34329,0.24411 z m -7.93767,-5.73655 v 0 c -0.36635,-0.36617 -0.48847,-0.97644 -0.12212,-1.3426 0.24424,-0.48822 0.85483,-0.61027 1.3433,-0.24411 v 0 c 0.36635,0.24411 0.48847,0.85438 0.24424,1.3426 -0.36636,0.48822 -0.97695,0.48822 -1.46542,0.24411 z m -7.81555,-5.73656 v 0 c -0.48847,-0.36616 -0.61059,-0.97643 -0.24423,-1.46465 0.36635,-0.36616 0.97694,-0.48822 1.34329,-0.12205 v 0 c 0.48848,0.2441 0.61059,0.85438 0.24424,1.34259 -0.36635,0.36617 -0.97694,0.48822 -1.3433,0.24411 z m -7.93766,-5.85861 v 0 c -0.36636,-0.24411 -0.48847,-0.85438 -0.24424,-1.34259 0.36635,-0.36617 0.97694,-0.48822 1.3433,-0.24411 h 0.12212 c 0.36635,0.36616 0.48847,0.97643 0.12211,1.46465 -0.24423,0.36616 -0.85482,0.48822 -1.34329,0.12205 z m -7.81555,-5.73655 v 0 c -0.48847,-0.24411 -0.61059,-0.85438 -0.24424,-1.3426 0.24424,-0.48822 0.85483,-0.48822 1.3433,-0.24411 v 0 c 0.36635,0.36617 0.48847,0.97644 0.24424,1.3426 -0.36636,0.48822 -0.97695,0.61027 -1.3433,0.24411 z m -7.93767,-5.73656 v 0 c -0.48847,-0.36616 -0.61059,-0.97643 -0.24423,-1.34259 0.36635,-0.48822 0.97694,-0.61028 1.34329,-0.24411 v 0 c 0.48848,0.36616 0.61059,0.97643 0.24424,1.3426 -0.36635,0.48821 -0.97694,0.61027 -1.3433,0.2441 z m -7.93766,-5.73655 v 0 c -0.36636,-0.36616 -0.48847,-0.97644 -0.24424,-1.3426 0.36636,-0.48822 0.97695,-0.61027 1.46542,-0.24411 v 0 c 0.36635,0.24411 0.48847,0.85438 0.12212,1.3426 -0.24424,0.48822 -0.85483,0.48822 -1.3433,0.24411 z m -7.81555,-5.73655 v 0 c -0.48847,-0.36617 -0.61059,-0.97644 -0.24424,-1.46466 0.24424,-0.36616 0.85483,-0.48821 1.3433,-0.12205 v 0 c 0.48847,0.24411 0.48847,0.85438 0.24424,1.3426 -0.36636,0.36616 -0.97695,0.48821 -1.3433,0.24411 z m -7.93767,-5.85861 v 0 c -0.48847,-0.24411 -0.48847,-0.85438 -0.24423,-1.3426 0.36635,-0.36616 0.97694,-0.48822 1.3433,-0.24411 v 0 c 0.48847,0.36616 0.61059,0.97643 0.24423,1.46465 -0.24423,0.36616 -0.85482,0.48822 -1.3433,0.12206 z m -7.93766,-5.73656 v 0 c -0.36635,-0.24411 -0.48847,-0.85438 -0.12212,-1.3426 0.24424,-0.48821 0.85483,-0.48821 1.3433,-0.2441 v 0 c 0.36635,0.36616 0.48847,0.97643 0.24423,1.34259 -0.36635,0.48822 -0.97694,0.61027 -1.46541,0.24411 z m -7.81555,-5.73655 v 0 c -0.48847,-0.36617 -0.61059,-0.97644 -0.24423,-1.3426 0.36635,-0.48822 0.97694,-0.48822 1.34329,-0.24411 v 0 c 0.48847,0.36616 0.61059,0.97644 0.24424,1.3426 -0.36636,0.48822 -0.97695,0.61027 -1.3433,0.24411 z m -7.93766,-5.73656 v 0 c -0.36636,-0.36616 -0.48848,-0.97643 -0.24424,-1.3426 0.36635,-0.48821 0.97694,-0.61027 1.46541,-0.2441 v 0 c 0.36636,0.36616 0.48848,0.97643 0.12212,1.34259 -0.24423,0.48822 -0.85482,0.48822 -1.34329,0.24411 z m -7.93767,-5.73655 v 0 c -0.36635,-0.36616 -0.48847,-0.97644 -0.12212,-1.46465 0.24424,-0.36617 0.85483,-0.48822 1.3433,-0.12206 v 0 c 0.48847,0.24411 0.48847,0.85438 0.24423,1.3426 -0.36635,0.48822 -0.97694,0.48822 -1.46541,0.24411 z m -7.81555,-5.85861 v 0 c -0.48847,-0.24411 -0.48847,-0.85438 -0.24423,-1.3426 0.36635,-0.36616 0.97694,-0.48822 1.34329,-0.12205 v 0 c 0.48848,0.24411 0.61059,0.85438 0.24424,1.34259 -0.36635,0.36617 -0.97694,0.48822 -1.3433,0.12206 z m -7.93766,-5.73656 v 0 c -0.36636,-0.2441 -0.48848,-0.85438 -0.12212,-1.34259 0.24423,-0.36617 0.85482,-0.48822 1.3433,-0.24411 v 0 c 0.36635,0.36616 0.48847,0.97643 0.12211,1.46465 -0.24423,0.36616 -0.85482,0.48822 -1.34329,0.12205 z"
       id="path9893" />
    <path
       transform="matrix(0.26458333,0,0,0.26458333,199.16595,20.967156)"
       style="fill:none;stroke:#000000;stroke-width:0.610431px;stroke-linecap:round;stroke-linejoin:round;stroke-miterlimit:10;stroke-dasharray:none;stroke-opacity:1"
       clip-path="url(#clipEmfPath1-11)"
       d="m 459.52978,198.09421 c 1.70965,-2.44108 1.22118,-5.73655 -1.22118,-7.56737 -2.32024,-1.70876 -5.73954,-1.22054 -7.44919,1.22055 0,0 0,0 0,0 -1.83177,2.44108 -1.22118,5.73655 1.09906,7.56737 2.44236,1.70876 5.86166,1.22054 7.57131,-1.22055"
       id="path9895" />
  </g>
</svg>
