<?xml version="1.0" encoding="UTF-8" standalone="no"?>
<svg
   xmlns:dc="http://purl.org/dc/elements/1.1/"
   xmlns:cc="http://creativecommons.org/ns#"
   xmlns:rdf="http://www.w3.org/1999/02/22-rdf-syntax-ns#"
   xmlns:svg="http://www.w3.org/2000/svg"
   xmlns="http://www.w3.org/2000/svg"
   xmlns:sodipodi="http://sodipodi.sourceforge.net/DTD/sodipodi-0.dtd"
   xmlns:inkscape="http://www.inkscape.org/namespaces/inkscape"
   width="99.646393mm"
   height="42.02047mm"
   viewBox="0 0 99.646393 42.020467"
   version="1.1"
   id="svg8"
   inkscape:version="1.0 (4035a4fb49, 2020-05-01)"
   sodipodi:docname="F25.4.svg">
  <defs
     id="defs2">
    <clipPath
       id="clipEmfPath1"
       clipPathUnits="userSpaceOnUse">
      <path
         id="path833"
         d="M 0,0 H 863.47668 V 389.36402 H 0 Z" />
    </clipPath>
    <pattern
       y="0"
       x="0"
       height="6"
       width="6"
       patternUnits="userSpaceOnUse"
       id="EMFhbasepattern" />
    <clipPath
       id="clipEmfPath1-6"
       clipPathUnits="userSpaceOnUse">
      <path
         id="path974"
         d="M 0,0 H 863.47668 V 346.35009 H 0 Z" />
    </clipPath>
    <pattern
       y="0"
       x="0"
       height="6"
       width="6"
       patternUnits="userSpaceOnUse"
       id="EMFhbasepattern-7" />
    <clipPath
       id="clipEmfPath1-8"
       clipPathUnits="userSpaceOnUse">
      <path
         id="path1103"
         d="M 0,0 H 863.47668 V 552.14537 H 0 Z" />
    </clipPath>
    <pattern
       y="0"
       x="0"
       height="6"
       width="6"
       patternUnits="userSpaceOnUse"
       id="EMFhbasepattern-8" />
    <clipPath
       id="clipEmfPath1-82"
       clipPathUnits="userSpaceOnUse">
      <path
         id="path1499"
         d="M 0,0 H 863.47668 V 374.81284 H 0 Z" />
    </clipPath>
    <pattern
       y="0"
       x="0"
       height="6"
       width="6"
       patternUnits="userSpaceOnUse"
       id="EMFhbasepattern-9" />
    <clipPath
       id="clipEmfPath1-64"
       clipPathUnits="userSpaceOnUse">
      <path
         id="path1664"
         d="M 0,0 H 743.54936 V 531.99758 H 0 Z" />
    </clipPath>
    <pattern
       y="0"
       x="0"
       height="6"
       width="6"
       patternUnits="userSpaceOnUse"
       id="EMFhbasepattern-85" />
    <clipPath
       id="clipEmfPath1-1"
       clipPathUnits="userSpaceOnUse">
      <path
         id="path1754"
         d="M 0,0 H 863.47668 V 317.88734 H 0 Z" />
    </clipPath>
    <pattern
       y="0"
       x="0"
       height="6"
       width="6"
       patternUnits="userSpaceOnUse"
       id="EMFhbasepattern-89" />
    <clipPath
       id="clipEmfPath1-86"
       clipPathUnits="userSpaceOnUse">
      <path
         id="path1961"
         d="M 0,0 H 863.47668 V 295.1811 H 0 Z" />
    </clipPath>
    <pattern
       y="0"
       x="0"
       height="6"
       width="6"
       patternUnits="userSpaceOnUse"
       id="EMFhbasepattern-1" />
    <clipPath
       id="clipEmfPath1-0"
       clipPathUnits="userSpaceOnUse">
      <path
         id="path2372"
         d="M 0,0 H 863.47668 V 320.28589 H 0 Z" />
    </clipPath>
    <pattern
       y="0"
       x="0"
       height="6"
       width="6"
       patternUnits="userSpaceOnUse"
       id="EMFhbasepattern-3" />
    <clipPath
       id="clipEmfPath1-2"
       clipPathUnits="userSpaceOnUse">
      <path
         id="path2540"
         d="M 0,0 H 863.47668 V 430.61902 H 0 Z" />
    </clipPath>
    <pattern
       y="0"
       x="0"
       height="6"
       width="6"
       patternUnits="userSpaceOnUse"
       id="EMFhbasepattern-5" />
    <clipPath
       id="clipEmfPath1-7"
       clipPathUnits="userSpaceOnUse">
      <path
         id="path2978"
         d="M 0,0 H 863.47668 V 356.58389 H 0 Z" />
    </clipPath>
    <pattern
       y="0"
       x="0"
       height="6"
       width="6"
       patternUnits="userSpaceOnUse"
       id="EMFhbasepattern-0" />
    <clipPath
       id="clipEmfPath1-67"
       clipPathUnits="userSpaceOnUse">
      <path
         id="path3428"
         d="M 0,0 H 863.47668 V 272.15506 H 0 Z" />
    </clipPath>
    <pattern
       y="0"
       x="0"
       height="6"
       width="6"
       patternUnits="userSpaceOnUse"
       id="EMFhbasepattern-34" />
    <clipPath
       id="clipEmfPath1-9"
       clipPathUnits="userSpaceOnUse">
      <path
         id="path3602"
         d="M 0,0 H 863.47668 V 310.21199 H 0 Z" />
    </clipPath>
    <pattern
       y="0"
       x="0"
       height="6"
       width="6"
       patternUnits="userSpaceOnUse"
       id="EMFhbasepattern-03" />
    <clipPath
       id="clipEmfPath1-3"
       clipPathUnits="userSpaceOnUse">
      <path
         id="path3821"
         d="M 0,0 H 863.47668 V 220.98607 H 0 Z" />
    </clipPath>
    <pattern
       y="0"
       x="0"
       height="6"
       width="6"
       patternUnits="userSpaceOnUse"
       id="EMFhbasepattern-2" />
    <clipPath
       id="clipEmfPath1-5"
       clipPathUnits="userSpaceOnUse">
      <path
         id="path3983"
         d="M 0,0 H 431.41853 V 527.68019 H 0 Z" />
    </clipPath>
    <pattern
       y="0"
       x="0"
       height="6"
       width="6"
       patternUnits="userSpaceOnUse"
       id="EMFhbasepattern-4" />
    <clipPath
       id="clipEmfPath1-28"
       clipPathUnits="userSpaceOnUse">
      <path
         id="path4070"
         d="M 0,0 H 863.47668 V 498.09812 H 0 Z" />
    </clipPath>
    <pattern
       y="0"
       x="0"
       height="6"
       width="6"
       patternUnits="userSpaceOnUse"
       id="EMFhbasepattern-39" />
    <clipPath
       id="clipEmfPath1-05"
       clipPathUnits="userSpaceOnUse">
      <path
         id="path4475"
         d="M 0,0 H 863.47668 V 238.73531 H 0 Z" />
    </clipPath>
    <pattern
       y="0"
       x="0"
       height="6"
       width="6"
       patternUnits="userSpaceOnUse"
       id="EMFhbasepattern-83" />
    <clipPath
       id="clipEmfPath1-79"
       clipPathUnits="userSpaceOnUse">
      <path
         id="path4715"
         d="M 0,0 H 863.47668 V 519.68504 H 0 Z" />
    </clipPath>
    <pattern
       y="0"
       x="0"
       height="6"
       width="6"
       patternUnits="userSpaceOnUse"
       id="EMFhbasepattern-24" />
    <clipPath
       id="clipEmfPath1-02"
       clipPathUnits="userSpaceOnUse">
      <path
         id="path5213"
         d="M 0,0 H 863.47668 V 495.69958 H 0 Z" />
    </clipPath>
    <pattern
       y="0"
       x="0"
       height="6"
       width="6"
       patternUnits="userSpaceOnUse"
       id="EMFhbasepattern-79" />
    <clipPath
       id="clipEmfPath1-54"
       clipPathUnits="userSpaceOnUse">
      <path
         id="path5675"
         d="M 0,0 H 863.47668 V 422.94367 H 0 Z" />
    </clipPath>
    <pattern
       y="0"
       x="0"
       height="6"
       width="6"
       patternUnits="userSpaceOnUse"
       id="EMFhbasepattern-08" />
    <clipPath
       id="clipEmfPath1-4"
       clipPathUnits="userSpaceOnUse">
      <path
         id="path6137"
         d="M 0,0 H 863.47668 V 510.41066 H 0 Z" />
    </clipPath>
    <pattern
       y="0"
       x="0"
       height="6"
       width="6"
       patternUnits="userSpaceOnUse"
       id="EMFhbasepattern-26" />
    <clipPath
       clipPathUnits="userSpaceOnUse"
       id="clipEmfPath1-22">
      <path
         d="M 0,0 H 863.47668 V 422.94367 H 0 Z"
         id="path7101" />
    </clipPath>
    <pattern
       id="EMFhbasepattern-23"
       patternUnits="userSpaceOnUse"
       width="6"
       height="6"
       x="0"
       y="0" />
    <clipPath
       clipPathUnits="userSpaceOnUse"
       id="clipEmfPath1-051">
      <path
         d="M 0,0 H 863.47668 V 395.60024 H 0 Z"
         id="path7563" />
    </clipPath>
    <pattern
       id="EMFhbasepattern-86"
       patternUnits="userSpaceOnUse"
       width="6"
       height="6"
       x="0"
       y="0" />
    <clipPath
       clipPathUnits="userSpaceOnUse"
       id="clipEmfPath1-30">
      <path
         d="M 0,0 H 263.36039 V 239.85463 H 0 Z"
         id="path7908" />
    </clipPath>
    <pattern
       id="EMFhbasepattern-01"
       patternUnits="userSpaceOnUse"
       width="6"
       height="6"
       x="0"
       y="0" />
    <clipPath
       clipPathUnits="userSpaceOnUse"
       id="clipEmfPath1-52">
      <path
         d="M 0,0 H 263.36039 V 239.85463 H 0 Z"
         id="path7926" />
    </clipPath>
    <pattern
       id="EMFhbasepattern-97"
       patternUnits="userSpaceOnUse"
       width="6"
       height="6"
       x="0"
       y="0" />
    <pattern
       id="EMFhbasepattern-6"
       patternUnits="userSpaceOnUse"
       width="6"
       height="6"
       x="0"
       y="0" />
    <clipPath
       clipPathUnits="userSpaceOnUse"
       id="clipEmfPath1-71">
      <path
         d="M 0,0 H 639.61236 V 673.0321 H 0 Z"
         id="path8251" />
    </clipPath>
    <pattern
       id="EMFhbasepattern-13"
       patternUnits="userSpaceOnUse"
       width="6"
       height="6"
       x="0"
       y="0" />
    <clipPath
       clipPathUnits="userSpaceOnUse"
       id="clipEmfPath1-90">
      <path
         d="M 0,0 H 379.13022 V 165.97941 H 0 Z"
         id="path9139" />
    </clipPath>
    <pattern
       id="EMFhbasepattern-793"
       patternUnits="userSpaceOnUse"
       width="6"
       height="6"
       x="0"
       y="0" />
  </defs>
  <sodipodi:namedview
     id="base"
     pagecolor="#ffffff"
     bordercolor="#666666"
     borderopacity="1.0"
     inkscape:pageopacity="0.0"
     inkscape:pageshadow="2"
     inkscape:zoom="0.49497475"
     inkscape:cx="-969.34135"
     inkscape:cy="252.76517"
     inkscape:document-units="mm"
     inkscape:current-layer="layer1"
     inkscape:document-rotation="0"
     showgrid="false"
     fit-margin-top="0"
     fit-margin-left="0"
     fit-margin-right="0"
     fit-margin-bottom="0.1"
     inkscape:window-width="1920"
     inkscape:window-height="1017"
     inkscape:window-x="1272"
     inkscape:window-y="-8"
     inkscape:window-maximized="1" />
  <metadata
     id="metadata5">
    <rdf:RDF>
      <cc:Work
         rdf:about="">
        <dc:format>image/svg+xml</dc:format>
        <dc:type
           rdf:resource="http://purl.org/dc/dcmitype/StillImage" />
        <dc:title></dc:title>
      </cc:Work>
    </rdf:RDF>
  </metadata>
  <g
     inkscape:label="Layer 1"
     inkscape:groupmode="layer"
     id="layer1"
     transform="translate(-797.67525,75.739044)">
    <g
       transform="matrix(0.26458333,0,0,0.26458333,354.50555,113.51822)"
       clip-path="url(#clipEmfPath1-30)"
       id="g7914" />
    <g
       transform="matrix(0.26458333,0,0,0.26458333,354.50555,113.51822)"
       clip-path="url(#clipEmfPath1-52)"
       id="g7932" />
    <g
       transform="matrix(0.26458333,0,0,0.26458333,797.67525,-75.739044)"
       clip-path="url(#clipEmfPath1-90)"
       id="g9145" />
    <path
       transform="matrix(0.26458333,0,0,0.26458333,797.67525,-75.739044)"
       style="fill:none;stroke:#000000;stroke-width:0.439518px;stroke-linecap:round;stroke-linejoin:round;stroke-miterlimit:10;stroke-dasharray:none;stroke-opacity:1"
       clip-path="url(#clipEmfPath1-90)"
       d="m 0,0 m 243.50929,37.403795 h 115.4623 z"
       id="path9147" />
    <path
       transform="matrix(0.26458333,0,0,0.26458333,797.67525,-75.739044)"
       style="fill:none;stroke:#000000;stroke-width:0.439518px;stroke-linecap:round;stroke-linejoin:round;stroke-miterlimit:10;stroke-dasharray:none;stroke-opacity:1"
       clip-path="url(#clipEmfPath1-90)"
       d="m 243.50929,37.403795 h 115.4623 z"
       id="path9149" />
    <path
       transform="matrix(0.26458333,0,0,0.26458333,797.67525,-75.739044)"
       style="fill:#ffffff;fill-opacity:1;fill-rule:evenodd;stroke:none"
       clip-path="url(#clipEmfPath1-90)"
       d="m 225.99633,20.018932 c 0,-9.658256 7.83243,-17.3848619 17.51296,-17.3848619 v 0 h 115.4623 c 9.68052,0 17.42495,7.7266059 17.42495,17.3848619 0,0 0,0 0,0 0,9.570455 -7.74443,17.384863 -17.42495,17.384863 v 0 h -115.4623 c -9.68053,0 -17.51296,-7.814408 -17.51296,-17.384863 z"
       id="path9151" />
    <path
       transform="matrix(0.26458333,0,0,0.26458333,797.67525,-75.739044)"
       style="fill:none;stroke:#000000;stroke-width:0.439518px;stroke-linecap:round;stroke-linejoin:round;stroke-miterlimit:10;stroke-dasharray:none;stroke-opacity:1"
       clip-path="url(#clipEmfPath1-90)"
       d="m 225.99633,20.018932 c 0,-9.658256 7.83243,-17.3848619 17.51296,-17.3848619 v 0 h 115.4623 c 9.68052,0 17.42495,7.7266059 17.42495,17.3848619 0,0 0,0 0,0 0,9.570455 -7.74443,17.384863 -17.42495,17.384863 v 0 h -115.4623 c -9.68053,0 -17.51296,-7.814408 -17.51296,-17.384863 z"
       id="path9153" />
    <g
       transform="matrix(0.26458333,0,0,0.26458333,797.67525,-75.739044)"
       clip-path="url(#clipEmfPath1-90)"
       id="g9155" />
    <g
       transform="matrix(0.26458333,0,0,0.26458333,797.67525,-75.739044)"
       clip-path="url(#clipEmfPath1-90)"
       id="g9163">
      <text
         xml:space="preserve"
         style="font-style:normal;font-variant:normal;font-weight:400;font-size:15.5px;line-height:125%;font-family:Arial;text-align:start;letter-spacing:0px;word-spacing:0px;text-anchor:start;fill:#000000;fill-opacity:1;stroke:none"
         transform="translate(233.74075,23.882235)"
         x="0"
         y="0"
         id="text9161"><tspan
           sodipodi:role="line"
           x="0"
           y="0"
           id="tspan9159"><tspan
             dx="0"
             dy="0"
             style="font-style:normal;font-variant:normal;font-weight:400;font-size:15.5px;font-family:Arial;fill:#000000"
             id="tspan9157">Remplir Commande</tspan></tspan></text>
    </g>
    <path
       transform="matrix(0.26458333,0,0,0.26458333,797.67525,-75.739044)"
       style="fill:none;stroke:#000000;stroke-width:0.439518px;stroke-linecap:round;stroke-linejoin:round;stroke-miterlimit:10;stroke-dasharray:none;stroke-opacity:1"
       clip-path="url(#clipEmfPath1-90)"
       d="M 250.81368,154.35651 H 351.66719 Z"
       id="path9165" />
    <path
       transform="matrix(0.26458333,0,0,0.26458333,797.67525,-75.739044)"
       style="fill:none;stroke:#000000;stroke-width:0.439518px;stroke-linecap:round;stroke-linejoin:round;stroke-miterlimit:10;stroke-dasharray:none;stroke-opacity:1"
       clip-path="url(#clipEmfPath1-90)"
       d="M 250.81368,154.35651 H 351.66719 Z"
       id="path9167" />
    <path
       transform="matrix(0.26458333,0,0,0.26458333,797.67525,-75.739044)"
       style="fill:#ffffff;fill-opacity:1;fill-rule:evenodd;stroke:none"
       clip-path="url(#clipEmfPath1-90)"
       d="m 225.99633,129.59625 c 0,-13.69717 11.17661,-24.76026 24.81735,-24.76026 v 0 h 100.85351 c 13.64074,0 24.72935,11.06309 24.72935,24.76026 0,0 0,0 0,0 0,13.60936 -11.08861,24.76026 -24.72935,24.76026 H 250.81368 c -13.64074,0 -24.81735,-11.1509 -24.81735,-24.76026 z"
       id="path9169" />
    <path
       transform="matrix(0.26458333,0,0,0.26458333,797.67525,-75.739044)"
       style="fill:none;stroke:#000000;stroke-width:0.439518px;stroke-linecap:round;stroke-linejoin:round;stroke-miterlimit:10;stroke-dasharray:none;stroke-opacity:1"
       clip-path="url(#clipEmfPath1-90)"
       d="m 225.99633,129.59625 c 0,-13.69717 11.17661,-24.76026 24.81735,-24.76026 v 0 h 100.85351 c 13.64074,0 24.72935,11.06309 24.72935,24.76026 0,0 0,0 0,0 0,13.60936 -11.08861,24.76026 -24.72935,24.76026 H 250.81368 c -13.64074,0 -24.81735,-11.1509 -24.81735,-24.76026 z"
       id="path9171" />
    <g
       transform="matrix(0.26458333,0,0,0.26458333,797.67525,-75.739044)"
       clip-path="url(#clipEmfPath1-90)"
       id="g9183">
      <text
         xml:space="preserve"
         style="font-style:normal;font-variant:normal;font-weight:400;font-size:15.5px;line-height:117.825%;font-family:Arial;text-align:center;letter-spacing:0px;word-spacing:0px;text-anchor:middle;fill:#000000;fill-opacity:1;stroke:none"
         transform="translate(283.02344,125.03052)"
         x="19.378784"
         y="0"
         id="text9181"><tspan
           sodipodi:role="line"
           x="19.378784"
           y="0"
           id="tspan9175"><tspan
             dx="0"
             dy="0"
             style="font-style:normal;font-variant:normal;font-weight:400;font-size:15.5px;font-family:Arial;fill:#000000"
             id="tspan9173">Livrer</tspan></tspan><tspan
           sodipodi:role="line"
           x="19.378784"
           y="18.262875"
           id="tspan9179"><tspan
             dx="0"
             dy="0"
             style="font-style:normal;font-variant:normal;font-weight:400;font-size:15.5px;font-family:Arial;fill:#000000"
             id="tspan9177">Commande</tspan></tspan></text>
    </g>
    <path
       transform="matrix(0.26458333,0,0,0.26458333,797.67525,-75.739044)"
       style="fill:none;stroke:#000000;stroke-width:0.439518px;stroke-linecap:round;stroke-linejoin:round;stroke-miterlimit:10;stroke-dasharray:none;stroke-opacity:1"
       clip-path="url(#clipEmfPath1-90)"
       d="M 301.24044,37.403795 V 104.83599"
       id="path9185" />
    <path
       transform="matrix(0.26458333,0,0,0.26458333,797.67525,-75.739044)"
       style="fill:none;stroke:#000000;stroke-width:0.439518px;stroke-linecap:round;stroke-linejoin:round;stroke-miterlimit:10;stroke-dasharray:none;stroke-opacity:1"
       clip-path="url(#clipEmfPath1-90)"
       d="m 296.04815,89.382777 5.19229,15.453213 5.19228,-15.453213"
       id="path9187" />
    <path
       transform="matrix(0.26458333,0,0,0.26458333,797.67525,-75.739044)"
       style="fill:none;stroke:#000000;stroke-width:4.04356px;stroke-linecap:round;stroke-linejoin:round;stroke-miterlimit:10;stroke-dasharray:none;stroke-opacity:1"
       clip-path="url(#clipEmfPath1-90)"
       d="m 232.33268,141.71297 v -12.64354 h 25.34538 v 12.64354"
       id="path9189" />
    <path
       transform="matrix(0.26458333,0,0,0.26458333,797.67525,-75.739044)"
       style="fill:none;stroke:#000000;stroke-width:4.04356px;stroke-linecap:round;stroke-linejoin:round;stroke-miterlimit:10;stroke-dasharray:none;stroke-opacity:1"
       clip-path="url(#clipEmfPath1-90)"
       d="m 245.00537,129.06943 v 12.64354"
       id="path9191" />
    <path
       transform="matrix(0.26458333,0,0,0.26458333,797.67525,-75.739044)"
       style="fill:none;stroke:#000000;stroke-width:4.04356px;stroke-linecap:round;stroke-linejoin:round;stroke-miterlimit:10;stroke-dasharray:none;stroke-opacity:1"
       clip-path="url(#clipEmfPath1-90)"
       d="m 245.00537,116.4259 v 12.64353"
       id="path9193" />
    <path
       transform="matrix(0.26458333,0,0,0.26458333,797.67525,-75.739044)"
       style="fill:#ffffff;fill-opacity:1;fill-rule:evenodd;stroke:none"
       clip-path="url(#clipEmfPath1-90)"
       d="M 215.43575,49.25711 198.53883,32.399062 V 49.25711 Z m 0,0 H 198.53883 V 32.399062 H 7.6564177 V 158.21981 H 215.43575 Z"
       id="path9195" />
    <path
       transform="matrix(0.26458333,0,0,0.26458333,797.67525,-75.739044)"
       style="fill:none;stroke:#000000;stroke-width:0.439518px;stroke-linecap:round;stroke-linejoin:round;stroke-miterlimit:10;stroke-dasharray:none;stroke-opacity:1"
       clip-path="url(#clipEmfPath1-90)"
       d="M 215.43575,49.25711 198.53883,32.399062 V 49.25711 Z"
       id="path9197" />
    <path
       transform="matrix(0.26458333,0,0,0.26458333,797.67525,-75.739044)"
       style="fill:none;stroke:#000000;stroke-width:0.439518px;stroke-linecap:round;stroke-linejoin:round;stroke-miterlimit:10;stroke-dasharray:none;stroke-opacity:1"
       clip-path="url(#clipEmfPath1-90)"
       d="M 215.43575,49.25711 H 198.53883 V 32.399062 H 7.6564177 V 158.21981 H 215.43575 V 49.25711"
       id="path9199" />
    <g
       transform="matrix(0.26458333,0,0,0.26458333,797.67525,-75.739044)"
       clip-path="url(#clipEmfPath1-90)"
       id="g9241">
      <text
         xml:space="preserve"
         style="font-style:normal;font-variant:normal;font-weight:400;font-size:15.5px;line-height:117.825%;font-family:Arial;text-align:start;letter-spacing:0px;word-spacing:0px;text-anchor:start;fill:#000000;fill-opacity:1;stroke:none"
         transform="translate(15.488845,63.217681)"
         x="0"
         y="0"
         id="text9239"><tspan
           sodipodi:role="line"
           x="0"
           y="0"
           id="tspan9211"><tspan
             dx="0"
             dy="0"
             style="font-style:normal;font-variant:normal;font-weight:400;font-size:15.5px;font-family:Arial;fill:#000000"
             id="tspan9201">le symbole du «</tspan><tspan
             dx="0"
             dy="0"
             style="font-style:normal;font-variant:normal;font-weight:400;font-size:15.5px;font-family:Arial;fill:#000000"
             id="tspan9203"> </tspan><tspan
             dx="0"
             dy="0"
             style="font-style:normal;font-variant:normal;font-weight:400;font-size:15.5px;font-family:Arial;fill:#000000"
             id="tspan9205">râteau</tspan><tspan
             dx="0"
             dy="0"
             style="font-style:normal;font-variant:normal;font-weight:400;font-size:15.5px;font-family:Arial;fill:#000000"
             id="tspan9207"> </tspan><tspan
             dx="0"
             dy="0"
             style="font-style:normal;font-variant:normal;font-weight:400;font-size:15.5px;font-family:Arial;fill:#000000"
             id="tspan9209">» </tspan></tspan><tspan
           sodipodi:role="line"
           x="0"
           y="18.262875"
           id="tspan9217"><tspan
             dx="0"
             dy="0"
             style="font-style:normal;font-variant:normal;font-weight:400;font-size:15.5px;font-family:Arial;fill:#000000"
             id="tspan9213">(</tspan><tspan
             dx="-0.93739098"
             dy="0"
             style="font-style:normal;font-variant:normal;font-weight:400;font-size:15.5px;font-family:Arial;fill:#000000"
             id="tspan9215">qui représente une </tspan></tspan><tspan
           sodipodi:role="line"
           x="0"
           y="36.525749"
           id="tspan9225"><tspan
             dx="0"
             dy="0"
             style="font-style:normal;font-variant:normal;font-weight:400;font-size:15.5px;font-family:Arial;fill:#000000"
             id="tspan9219">hiérarchie</tspan><tspan
             dx="-1.882645"
             dy="0"
             style="font-style:normal;font-variant:normal;font-weight:400;font-size:15.5px;font-family:Arial;fill:#000000"
             id="tspan9221">) </tspan><tspan
             dx="-1.019557"
             dy="0"
             style="font-style:normal;font-variant:normal;font-weight:400;font-size:15.5px;font-family:Arial;fill:#000000"
             id="tspan9223">indique que cette </tspan></tspan><tspan
           sodipodi:role="line"
           x="0"
           y="54.788624"
           id="tspan9229"><tspan
             dx="0"
             dy="0"
             style="font-style:normal;font-variant:normal;font-weight:400;font-size:15.5px;font-family:Arial;fill:#000000"
             id="tspan9227">activité s’étend dans un </tspan></tspan><tspan
           sodipodi:role="line"
           x="0"
           y="73.051498"
           id="tspan9237"><tspan
             dx="0"
             dy="0"
             style="font-style:normal;font-variant:normal;font-weight:400;font-size:15.5px;font-family:Arial;fill:#000000"
             id="tspan9231">diagramme de sous</tspan><tspan
             dx="0"
             dy="0"
             style="font-style:normal;font-variant:normal;font-weight:400;font-size:15.5px;font-family:Arial;fill:#000000"
             id="tspan9233">-</tspan><tspan
             dx="0.47068599"
             dy="0"
             style="font-style:normal;font-variant:normal;font-weight:400;font-size:15.5px;font-family:Arial;fill:#000000"
             id="tspan9235">activité</tspan></tspan></text>
    </g>
  </g>
</svg>
