<?xml version="1.0" encoding="UTF-8" standalone="no"?>
<svg
   xmlns:dc="http://purl.org/dc/elements/1.1/"
   xmlns:cc="http://creativecommons.org/ns#"
   xmlns:rdf="http://www.w3.org/1999/02/22-rdf-syntax-ns#"
   xmlns:svg="http://www.w3.org/2000/svg"
   xmlns="http://www.w3.org/2000/svg"
   xmlns:sodipodi="http://sodipodi.sourceforge.net/DTD/sodipodi-0.dtd"
   xmlns:inkscape="http://www.inkscape.org/namespaces/inkscape"
   width="171.96767mm"
   height="85.16774mm"
   viewBox="0 0 171.96767 85.167734"
   version="1.1"
   id="svg8"
   inkscape:version="1.0 (4035a4fb49, 2020-05-01)"
   sodipodi:docname="F25.5.svg">
  <defs
     id="defs2">
    <clipPath
       id="clipEmfPath1"
       clipPathUnits="userSpaceOnUse">
      <path
         id="path833"
         d="M 0,0 H 863.47668 V 389.36402 H 0 Z" />
    </clipPath>
    <pattern
       y="0"
       x="0"
       height="6"
       width="6"
       patternUnits="userSpaceOnUse"
       id="EMFhbasepattern" />
    <clipPath
       id="clipEmfPath1-6"
       clipPathUnits="userSpaceOnUse">
      <path
         id="path974"
         d="M 0,0 H 863.47668 V 346.35009 H 0 Z" />
    </clipPath>
    <pattern
       y="0"
       x="0"
       height="6"
       width="6"
       patternUnits="userSpaceOnUse"
       id="EMFhbasepattern-7" />
    <clipPath
       id="clipEmfPath1-8"
       clipPathUnits="userSpaceOnUse">
      <path
         id="path1103"
         d="M 0,0 H 863.47668 V 552.14537 H 0 Z" />
    </clipPath>
    <pattern
       y="0"
       x="0"
       height="6"
       width="6"
       patternUnits="userSpaceOnUse"
       id="EMFhbasepattern-8" />
    <clipPath
       id="clipEmfPath1-82"
       clipPathUnits="userSpaceOnUse">
      <path
         id="path1499"
         d="M 0,0 H 863.47668 V 374.81284 H 0 Z" />
    </clipPath>
    <pattern
       y="0"
       x="0"
       height="6"
       width="6"
       patternUnits="userSpaceOnUse"
       id="EMFhbasepattern-9" />
    <clipPath
       id="clipEmfPath1-64"
       clipPathUnits="userSpaceOnUse">
      <path
         id="path1664"
         d="M 0,0 H 743.54936 V 531.99758 H 0 Z" />
    </clipPath>
    <pattern
       y="0"
       x="0"
       height="6"
       width="6"
       patternUnits="userSpaceOnUse"
       id="EMFhbasepattern-85" />
    <clipPath
       id="clipEmfPath1-1"
       clipPathUnits="userSpaceOnUse">
      <path
         id="path1754"
         d="M 0,0 H 863.47668 V 317.88734 H 0 Z" />
    </clipPath>
    <pattern
       y="0"
       x="0"
       height="6"
       width="6"
       patternUnits="userSpaceOnUse"
       id="EMFhbasepattern-89" />
    <clipPath
       id="clipEmfPath1-86"
       clipPathUnits="userSpaceOnUse">
      <path
         id="path1961"
         d="M 0,0 H 863.47668 V 295.1811 H 0 Z" />
    </clipPath>
    <pattern
       y="0"
       x="0"
       height="6"
       width="6"
       patternUnits="userSpaceOnUse"
       id="EMFhbasepattern-1" />
    <clipPath
       id="clipEmfPath1-0"
       clipPathUnits="userSpaceOnUse">
      <path
         id="path2372"
         d="M 0,0 H 863.47668 V 320.28589 H 0 Z" />
    </clipPath>
    <pattern
       y="0"
       x="0"
       height="6"
       width="6"
       patternUnits="userSpaceOnUse"
       id="EMFhbasepattern-3" />
    <clipPath
       id="clipEmfPath1-2"
       clipPathUnits="userSpaceOnUse">
      <path
         id="path2540"
         d="M 0,0 H 863.47668 V 430.61902 H 0 Z" />
    </clipPath>
    <pattern
       y="0"
       x="0"
       height="6"
       width="6"
       patternUnits="userSpaceOnUse"
       id="EMFhbasepattern-5" />
    <clipPath
       id="clipEmfPath1-7"
       clipPathUnits="userSpaceOnUse">
      <path
         id="path2978"
         d="M 0,0 H 863.47668 V 356.58389 H 0 Z" />
    </clipPath>
    <pattern
       y="0"
       x="0"
       height="6"
       width="6"
       patternUnits="userSpaceOnUse"
       id="EMFhbasepattern-0" />
    <clipPath
       id="clipEmfPath1-67"
       clipPathUnits="userSpaceOnUse">
      <path
         id="path3428"
         d="M 0,0 H 863.47668 V 272.15506 H 0 Z" />
    </clipPath>
    <pattern
       y="0"
       x="0"
       height="6"
       width="6"
       patternUnits="userSpaceOnUse"
       id="EMFhbasepattern-34" />
    <clipPath
       id="clipEmfPath1-9"
       clipPathUnits="userSpaceOnUse">
      <path
         id="path3602"
         d="M 0,0 H 863.47668 V 310.21199 H 0 Z" />
    </clipPath>
    <pattern
       y="0"
       x="0"
       height="6"
       width="6"
       patternUnits="userSpaceOnUse"
       id="EMFhbasepattern-03" />
    <clipPath
       id="clipEmfPath1-3"
       clipPathUnits="userSpaceOnUse">
      <path
         id="path3821"
         d="M 0,0 H 863.47668 V 220.98607 H 0 Z" />
    </clipPath>
    <pattern
       y="0"
       x="0"
       height="6"
       width="6"
       patternUnits="userSpaceOnUse"
       id="EMFhbasepattern-2" />
    <clipPath
       id="clipEmfPath1-5"
       clipPathUnits="userSpaceOnUse">
      <path
         id="path3983"
         d="M 0,0 H 431.41853 V 527.68019 H 0 Z" />
    </clipPath>
    <pattern
       y="0"
       x="0"
       height="6"
       width="6"
       patternUnits="userSpaceOnUse"
       id="EMFhbasepattern-4" />
    <clipPath
       id="clipEmfPath1-28"
       clipPathUnits="userSpaceOnUse">
      <path
         id="path4070"
         d="M 0,0 H 863.47668 V 498.09812 H 0 Z" />
    </clipPath>
    <pattern
       y="0"
       x="0"
       height="6"
       width="6"
       patternUnits="userSpaceOnUse"
       id="EMFhbasepattern-39" />
    <clipPath
       id="clipEmfPath1-05"
       clipPathUnits="userSpaceOnUse">
      <path
         id="path4475"
         d="M 0,0 H 863.47668 V 238.73531 H 0 Z" />
    </clipPath>
    <pattern
       y="0"
       x="0"
       height="6"
       width="6"
       patternUnits="userSpaceOnUse"
       id="EMFhbasepattern-83" />
    <clipPath
       id="clipEmfPath1-79"
       clipPathUnits="userSpaceOnUse">
      <path
         id="path4715"
         d="M 0,0 H 863.47668 V 519.68504 H 0 Z" />
    </clipPath>
    <pattern
       y="0"
       x="0"
       height="6"
       width="6"
       patternUnits="userSpaceOnUse"
       id="EMFhbasepattern-24" />
    <clipPath
       id="clipEmfPath1-02"
       clipPathUnits="userSpaceOnUse">
      <path
         id="path5213"
         d="M 0,0 H 863.47668 V 495.69958 H 0 Z" />
    </clipPath>
    <pattern
       y="0"
       x="0"
       height="6"
       width="6"
       patternUnits="userSpaceOnUse"
       id="EMFhbasepattern-79" />
    <clipPath
       id="clipEmfPath1-54"
       clipPathUnits="userSpaceOnUse">
      <path
         id="path5675"
         d="M 0,0 H 863.47668 V 422.94367 H 0 Z" />
    </clipPath>
    <pattern
       y="0"
       x="0"
       height="6"
       width="6"
       patternUnits="userSpaceOnUse"
       id="EMFhbasepattern-08" />
    <clipPath
       id="clipEmfPath1-4"
       clipPathUnits="userSpaceOnUse">
      <path
         id="path6137"
         d="M 0,0 H 863.47668 V 510.41066 H 0 Z" />
    </clipPath>
    <pattern
       y="0"
       x="0"
       height="6"
       width="6"
       patternUnits="userSpaceOnUse"
       id="EMFhbasepattern-26" />
    <clipPath
       clipPathUnits="userSpaceOnUse"
       id="clipEmfPath1-22">
      <path
         d="M 0,0 H 863.47668 V 422.94367 H 0 Z"
         id="path7101" />
    </clipPath>
    <pattern
       id="EMFhbasepattern-23"
       patternUnits="userSpaceOnUse"
       width="6"
       height="6"
       x="0"
       y="0" />
    <clipPath
       clipPathUnits="userSpaceOnUse"
       id="clipEmfPath1-051">
      <path
         d="M 0,0 H 863.47668 V 395.60024 H 0 Z"
         id="path7563" />
    </clipPath>
    <pattern
       id="EMFhbasepattern-86"
       patternUnits="userSpaceOnUse"
       width="6"
       height="6"
       x="0"
       y="0" />
    <clipPath
       clipPathUnits="userSpaceOnUse"
       id="clipEmfPath1-30">
      <path
         d="M 0,0 H 263.36039 V 239.85463 H 0 Z"
         id="path7908" />
    </clipPath>
    <pattern
       id="EMFhbasepattern-01"
       patternUnits="userSpaceOnUse"
       width="6"
       height="6"
       x="0"
       y="0" />
    <clipPath
       clipPathUnits="userSpaceOnUse"
       id="clipEmfPath1-52">
      <path
         d="M 0,0 H 263.36039 V 239.85463 H 0 Z"
         id="path7926" />
    </clipPath>
    <pattern
       id="EMFhbasepattern-97"
       patternUnits="userSpaceOnUse"
       width="6"
       height="6"
       x="0"
       y="0" />
    <pattern
       id="EMFhbasepattern-6"
       patternUnits="userSpaceOnUse"
       width="6"
       height="6"
       x="0"
       y="0" />
    <clipPath
       clipPathUnits="userSpaceOnUse"
       id="clipEmfPath1-71">
      <path
         d="M 0,0 H 639.61236 V 673.0321 H 0 Z"
         id="path8251" />
    </clipPath>
    <pattern
       id="EMFhbasepattern-13"
       patternUnits="userSpaceOnUse"
       width="6"
       height="6"
       x="0"
       y="0" />
    <clipPath
       clipPathUnits="userSpaceOnUse"
       id="clipEmfPath1-90">
      <path
         d="M 0,0 H 379.13022 V 165.97941 H 0 Z"
         id="path9139" />
    </clipPath>
    <pattern
       id="EMFhbasepattern-793"
       patternUnits="userSpaceOnUse"
       width="6"
       height="6"
       x="0"
       y="0" />
    <clipPath
       clipPathUnits="userSpaceOnUse"
       id="clipEmfPath1-78">
      <path
         d="M 0,0 H 652.56451 V 329.40036 H 0 Z"
         id="path9301" />
    </clipPath>
    <pattern
       id="EMFhbasepattern-54"
       patternUnits="userSpaceOnUse"
       width="6"
       height="6"
       x="0"
       y="0" />
  </defs>
  <sodipodi:namedview
     id="base"
     pagecolor="#ffffff"
     bordercolor="#666666"
     borderopacity="1.0"
     inkscape:pageopacity="0.0"
     inkscape:pageshadow="2"
     inkscape:zoom="0.49497475"
     inkscape:cx="-161.5102"
     inkscape:cy="371.09668"
     inkscape:document-units="mm"
     inkscape:current-layer="layer1"
     inkscape:document-rotation="0"
     showgrid="false"
     fit-margin-top="0"
     fit-margin-left="0"
     fit-margin-right="0"
     fit-margin-bottom="0.1"
     inkscape:window-width="1920"
     inkscape:window-height="1017"
     inkscape:window-x="1272"
     inkscape:window-y="-8"
     inkscape:window-maximized="1" />
  <metadata
     id="metadata5">
    <rdf:RDF>
      <cc:Work
         rdf:about="">
        <dc:format>image/svg+xml</dc:format>
        <dc:type
           rdf:resource="http://purl.org/dc/dcmitype/StillImage" />
        <dc:title></dc:title>
      </cc:Work>
    </rdf:RDF>
  </metadata>
  <g
     inkscape:label="Layer 1"
     inkscape:groupmode="layer"
     id="layer1"
     transform="translate(-583.93659,107.04759)">
    <g
       transform="matrix(0.26458333,0,0,0.26458333,354.50555,113.51822)"
       clip-path="url(#clipEmfPath1-30)"
       id="g7914" />
    <g
       transform="matrix(0.26458333,0,0,0.26458333,354.50555,113.51822)"
       clip-path="url(#clipEmfPath1-52)"
       id="g7932" />
    <g
       transform="matrix(0.26458333,0,0,0.26458333,583.93659,-107.04759)"
       clip-path="url(#clipEmfPath1-78)"
       id="g9307" />
    <path
       transform="matrix(0.26458333,0,0,0.26458333,583.93659,-107.04759)"
       style="fill:#000000;fill-opacity:1;fill-rule:evenodd;stroke:none"
       clip-path="url(#clipEmfPath1-78)"
       d="m 0,0 m 413.79691,30.086045 c 0,-5.8884 4.78485,-10.672725 10.67389,-10.672725 5.88903,0 10.67388,4.784325 10.67388,10.672725 0,0 0,0 0,0 0,5.8884 -4.78485,10.672726 -10.67388,10.672726 -5.88904,0 -10.67389,-4.784326 -10.67389,-10.672726 z"
       id="path9309" />
    <path
       transform="matrix(0.26458333,0,0,0.26458333,583.93659,-107.04759)"
       style="fill:none;stroke:#000000;stroke-width:0.460056px;stroke-linecap:round;stroke-linejoin:round;stroke-miterlimit:10;stroke-dasharray:none;stroke-opacity:1"
       clip-path="url(#clipEmfPath1-78)"
       d="m 413.79691,30.086045 c 0,-5.8884 4.78485,-10.672725 10.67389,-10.672725 5.88903,0 10.67388,4.784325 10.67388,10.672725 0,0 0,0 0,0 0,5.8884 -4.78485,10.672726 -10.67388,10.672726 -5.88904,0 -10.67389,-4.784326 -10.67389,-10.672726"
       id="path9311" />
    <path
       transform="matrix(0.26458333,0,0,0.26458333,583.93659,-107.04759)"
       style="fill:none;stroke:#000000;stroke-width:0.460056px;stroke-linecap:round;stroke-linejoin:round;stroke-miterlimit:10;stroke-dasharray:none;stroke-opacity:1"
       clip-path="url(#clipEmfPath1-78)"
       d="M 424.4708,30.086045 V 86.393873"
       id="path9313" />
    <path
       transform="matrix(0.26458333,0,0,0.26458333,583.93659,-107.04759)"
       style="fill:none;stroke:#000000;stroke-width:0.460056px;stroke-linecap:round;stroke-linejoin:round;stroke-miterlimit:10;stroke-dasharray:none;stroke-opacity:1"
       clip-path="url(#clipEmfPath1-78)"
       d="m 419.04184,70.108766 5.42896,16.285107 5.42895,-16.285107"
       id="path9315" />
    <path
       transform="matrix(0.26458333,0,0,0.26458333,583.93659,-107.04759)"
       style="fill:none;stroke:#000000;stroke-width:0.460056px;stroke-linecap:round;stroke-linejoin:round;stroke-miterlimit:10;stroke-dasharray:none;stroke-opacity:1"
       clip-path="url(#clipEmfPath1-78)"
       d="M 247.24757,195.6053 H 365.02832 Z"
       id="path9317" />
    <path
       transform="matrix(0.26458333,0,0,0.26458333,583.93659,-107.04759)"
       style="fill:none;stroke:#000000;stroke-width:0.460056px;stroke-linecap:round;stroke-linejoin:round;stroke-miterlimit:10;stroke-dasharray:none;stroke-opacity:1"
       clip-path="url(#clipEmfPath1-78)"
       d="M 247.24757,195.6053 H 365.02832 Z"
       id="path9319" />
    <path
       transform="matrix(0.26458333,0,0,0.26458333,583.93659,-107.04759)"
       style="fill:#ffffff;fill-opacity:1;fill-rule:evenodd;stroke:none"
       clip-path="url(#clipEmfPath1-78)"
       d="m 230.13255,178.49213 c 0,-9.38463 7.72936,-17.02115 17.11502,-17.02115 v 0 h 117.78075 c 9.38565,0 17.023,7.63652 17.023,17.02115 0,0 0,0 0,0 0,9.47665 -7.63735,17.11317 -17.023,17.11317 v 0 H 247.24757 c -9.38566,0 -17.11502,-7.63652 -17.11502,-17.11317 z"
       id="path9321" />
    <path
       transform="matrix(0.26458333,0,0,0.26458333,583.93659,-107.04759)"
       style="fill:none;stroke:#000000;stroke-width:0.460056px;stroke-linecap:round;stroke-linejoin:round;stroke-miterlimit:10;stroke-dasharray:none;stroke-opacity:1"
       clip-path="url(#clipEmfPath1-78)"
       d="m 230.13255,178.49213 c 0,-9.38463 7.72936,-17.02115 17.11502,-17.02115 v 0 h 117.78075 c 9.38565,0 17.023,7.63652 17.023,17.02115 0,0 0,0 0,0 0,9.47665 -7.63735,17.11317 -17.023,17.11317 v 0 H 247.24757 c -9.38566,0 -17.11502,-7.63652 -17.11502,-17.11317 z"
       id="path9323" />
    <g
       transform="matrix(0.26458333,0,0,0.26458333,583.93659,-107.04759)"
       clip-path="url(#clipEmfPath1-78)"
       id="g9325" />
    <g
       transform="matrix(0.26458333,0,0,0.26458333,583.93659,-107.04759)"
       clip-path="url(#clipEmfPath1-78)"
       id="g9333">
      <text
         xml:space="preserve"
         style="font-style:normal;font-variant:normal;font-weight:400;font-size:16.1875px;line-height:125%;font-family:Arial;text-align:start;letter-spacing:0px;word-spacing:0px;text-anchor:start;fill:#000000;fill-opacity:1;stroke:none"
         transform="translate(239.97829,182.54041)"
         x="0"
         y="0"
         id="text9331"><tspan
           sodipodi:role="line"
           x="0"
           y="0"
           id="tspan9329"><tspan
             dx="0"
             dy="0"
             style="font-style:normal;font-variant:normal;font-weight:400;font-size:16.1875px;font-family:Arial;fill:#000000"
             id="tspan9327">Livraison Standard</tspan></tspan></text>
    </g>
    <path
       transform="matrix(0.26458333,0,0,0.26458333,583.93659,-107.04759)"
       style="fill:none;stroke:#000000;stroke-width:0.460056px;stroke-linecap:round;stroke-linejoin:round;stroke-miterlimit:10;stroke-dasharray:none;stroke-opacity:1"
       clip-path="url(#clipEmfPath1-78)"
       d="M 494.58715,195.6053 H 601.69402 Z"
       id="path9335" />
    <path
       transform="matrix(0.26458333,0,0,0.26458333,583.93659,-107.04759)"
       style="fill:none;stroke:#000000;stroke-width:0.460056px;stroke-linecap:round;stroke-linejoin:round;stroke-miterlimit:10;stroke-dasharray:none;stroke-opacity:1"
       clip-path="url(#clipEmfPath1-78)"
       d="M 494.58715,195.6053 H 601.69402 Z"
       id="path9337" />
    <path
       transform="matrix(0.26458333,0,0,0.26458333,583.93659,-107.04759)"
       style="fill:#ffffff;fill-opacity:1;fill-rule:evenodd;stroke:none"
       clip-path="url(#clipEmfPath1-78)"
       d="m 477.47213,178.49213 c 0,-9.38463 7.72937,-17.02115 17.11502,-17.02115 h 107.10687 c 9.47767,0 17.11502,7.63652 17.11502,17.02115 0,0 0,0 0,0 0,9.47665 -7.63735,17.11317 -17.11502,17.11317 v 0 H 494.58715 c -9.38565,0 -17.11502,-7.63652 -17.11502,-17.11317 z"
       id="path9339" />
    <path
       transform="matrix(0.26458333,0,0,0.26458333,583.93659,-107.04759)"
       style="fill:none;stroke:#000000;stroke-width:0.460056px;stroke-linecap:round;stroke-linejoin:round;stroke-miterlimit:10;stroke-dasharray:none;stroke-opacity:1"
       clip-path="url(#clipEmfPath1-78)"
       d="m 477.47213,178.49213 c 0,-9.38463 7.72937,-17.02115 17.11502,-17.02115 h 107.10687 c 9.47767,0 17.11502,7.63652 17.11502,17.02115 0,0 0,0 0,0 0,9.47665 -7.63735,17.11317 -17.11502,17.11317 v 0 H 494.58715 c -9.38565,0 -17.11502,-7.63652 -17.11502,-17.11317 z"
       id="path9341" />
    <g
       transform="matrix(0.26458333,0,0,0.26458333,583.93659,-107.04759)"
       clip-path="url(#clipEmfPath1-78)"
       id="g9349">
      <text
         xml:space="preserve"
         style="font-style:normal;font-variant:normal;font-weight:400;font-size:16.1875px;line-height:125%;font-family:Arial;text-align:start;letter-spacing:0px;word-spacing:0px;text-anchor:start;fill:#000000;fill-opacity:1;stroke:none"
         transform="translate(485.84561,182.54041)"
         x="0"
         y="0"
         id="text9347"><tspan
           sodipodi:role="line"
           x="0"
           y="0"
           id="tspan9345"><tspan
             dx="0"
             dy="0"
             style="font-style:normal;font-variant:normal;font-weight:400;font-size:16.1875px;font-family:Arial;fill:#000000"
             id="tspan9343">Livraison Express</tspan></tspan></text>
    </g>
    <path
       transform="matrix(0.26458333,0,0,0.26458333,583.93659,-107.04759)"
       style="fill:#ffffff;fill-opacity:1;fill-rule:evenodd;stroke:none"
       clip-path="url(#clipEmfPath1-78)"
       d="m 407.4478,288.3476 c 0,-9.38464 7.63734,-17.02116 17.023,-17.02116 9.47767,0 17.11501,7.63652 17.11501,17.02116 0,0 0,0 0,0 0,9.47664 -7.63734,17.11316 -17.11501,17.11316 -9.38566,0 -17.023,-7.63652 -17.023,-17.11316 z"
       id="path9351" />
    <path
       transform="matrix(0.26458333,0,0,0.26458333,583.93659,-107.04759)"
       style="fill:none;stroke:#000000;stroke-width:0.460056px;stroke-linecap:round;stroke-linejoin:round;stroke-miterlimit:10;stroke-dasharray:none;stroke-opacity:1"
       clip-path="url(#clipEmfPath1-78)"
       d="m 407.4478,288.3476 c 0,-9.38464 7.63734,-17.02116 17.023,-17.02116 9.47767,0 17.11501,7.63652 17.11501,17.02116 0,0 0,0 0,0 0,9.47664 -7.63734,17.11316 -17.11501,17.11316 -9.38566,0 -17.023,-7.63652 -17.023,-17.11316"
       id="path9353" />
    <path
       transform="matrix(0.26458333,0,0,0.26458333,583.93659,-107.04759)"
       style="fill:#000000;fill-opacity:1;fill-rule:evenodd;stroke:none"
       clip-path="url(#clipEmfPath1-78)"
       d="m 413.79691,288.3476 c 0,-5.8884 4.78485,-10.67272 10.67389,-10.67272 5.88903,0 10.67388,4.78432 10.67388,10.67272 0,0 0,0 0,0 0,5.8884 -4.78485,10.67273 -10.67388,10.67273 -5.88904,0 -10.67389,-4.78433 -10.67389,-10.67273 z"
       id="path9355" />
    <path
       transform="matrix(0.26458333,0,0,0.26458333,583.93659,-107.04759)"
       style="fill:none;stroke:#000000;stroke-width:0.460056px;stroke-linecap:round;stroke-linejoin:round;stroke-miterlimit:10;stroke-dasharray:none;stroke-opacity:1"
       clip-path="url(#clipEmfPath1-78)"
       d="m 413.79691,288.3476 c 0,-5.8884 4.78485,-10.67272 10.67389,-10.67272 5.88903,0 10.67388,4.78432 10.67388,10.67272 0,0 0,0 0,0 0,5.8884 -4.78485,10.67273 -10.67388,10.67273 -5.88904,0 -10.67389,-4.78433 -10.67389,-10.67273"
       id="path9357" />
    <path
       transform="matrix(0.26458333,0,0,0.26458333,583.93659,-107.04759)"
       style="fill:none;stroke:#000000;stroke-width:0.460056px;stroke-linecap:round;stroke-linejoin:round;stroke-miterlimit:10;stroke-dasharray:none;stroke-opacity:1"
       clip-path="url(#clipEmfPath1-78)"
       d="m 424.4708,235.352 v 35.97444"
       id="path9359" />
    <path
       transform="matrix(0.26458333,0,0,0.26458333,583.93659,-107.04759)"
       style="fill:none;stroke:#000000;stroke-width:0.460056px;stroke-linecap:round;stroke-linejoin:round;stroke-miterlimit:10;stroke-dasharray:none;stroke-opacity:1"
       clip-path="url(#clipEmfPath1-78)"
       d="m 419.04184,255.04134 5.42896,16.2851 5.42895,-16.2851"
       id="path9361" />
    <path
       transform="matrix(0.26458333,0,0,0.26458333,583.93659,-107.04759)"
       style="fill:#ffffff;fill-opacity:1;fill-rule:evenodd;stroke:none"
       clip-path="url(#clipEmfPath1-78)"
       d="m 397.97013,104.05907 26.50067,-17.665197 26.50066,17.665197 -26.50066,17.6652 z"
       id="path9363" />
    <path
       transform="matrix(0.26458333,0,0,0.26458333,583.93659,-107.04759)"
       style="fill:none;stroke:#000000;stroke-width:0.460056px;stroke-linecap:round;stroke-linejoin:round;stroke-miterlimit:10;stroke-dasharray:none;stroke-opacity:1"
       clip-path="url(#clipEmfPath1-78)"
       d="m 397.97013,104.05907 26.50067,-17.665197 26.50066,17.665197 -26.50066,17.6652 z"
       id="path9365" />
    <path
       transform="matrix(0.26458333,0,0,0.26458333,583.93659,-107.04759)"
       style="fill:none;stroke:#000000;stroke-width:0.460056px;stroke-linecap:round;stroke-linejoin:round;stroke-miterlimit:10;stroke-dasharray:none;stroke-opacity:1"
       clip-path="url(#clipEmfPath1-78)"
       d="M 397.97013,104.05907 H 334.847 c -15.82679,0 -28.70906,12.78887 -28.70906,28.70595 v 0 28.70596"
       id="path9367" />
    <path
       transform="matrix(0.26458333,0,0,0.26458333,583.93659,-107.04759)"
       style="fill:none;stroke:#000000;stroke-width:0.460056px;stroke-linecap:round;stroke-linejoin:round;stroke-miterlimit:10;stroke-dasharray:none;stroke-opacity:1"
       clip-path="url(#clipEmfPath1-78)"
       d="m 300.70899,145.18587 5.42895,16.28511 5.42896,-16.28511"
       id="path9369" />
    <path
       transform="matrix(0.26458333,0,0,0.26458333,583.93659,-107.04759)"
       style="fill:none;stroke:#000000;stroke-width:0.460056px;stroke-linecap:round;stroke-linejoin:round;stroke-miterlimit:10;stroke-dasharray:none;stroke-opacity:1"
       clip-path="url(#clipEmfPath1-78)"
       d="m 450.97146,104.05907 h 68.46007 c 15.9188,0 28.70906,12.78887 28.70906,28.70595 0,0 0,0 0,0 v 0 28.70596"
       id="path9371" />
    <path
       transform="matrix(0.26458333,0,0,0.26458333,583.93659,-107.04759)"
       style="fill:none;stroke:#000000;stroke-width:0.460056px;stroke-linecap:round;stroke-linejoin:round;stroke-miterlimit:10;stroke-dasharray:none;stroke-opacity:1"
       clip-path="url(#clipEmfPath1-78)"
       d="m 542.71163,145.18587 5.42896,16.28511 5.42895,-16.28511"
       id="path9373" />
    <path
       transform="matrix(0.26458333,0,0,0.26458333,583.93659,-107.04759)"
       style="fill:#ffffff;fill-opacity:1;fill-rule:evenodd;stroke:none"
       clip-path="url(#clipEmfPath1-78)"
       d="m 467.71842,117.30797 v 17.6652 h 72.41676 v -17.6652 z"
       id="path9375" />
    <g
       transform="matrix(0.26458333,0,0,0.26458333,583.93659,-107.04759)"
       clip-path="url(#clipEmfPath1-78)"
       id="g9387">
      <text
         xml:space="preserve"
         style="font-style:normal;font-variant:normal;font-weight:400;font-size:16.1875px;line-height:125%;font-family:Arial;text-align:start;letter-spacing:0px;word-spacing:0px;text-anchor:start;fill:#000000;fill-opacity:1;stroke:none"
         transform="translate(468.1785,131.01691)"
         x="0"
         y="0"
         id="text9385"><tspan
           sodipodi:role="line"
           x="0"
           y="0"
           id="tspan9383"><tspan
             dx="0"
             dy="0"
             style="font-style:normal;font-variant:normal;font-weight:400;font-size:16.1875px;font-family:Arial;fill:#000000"
             id="tspan9377">[ </tspan><tspan
             dx="0"
             dy="0"
             style="font-style:normal;font-variant:normal;font-weight:400;font-size:16.1875px;font-family:Arial;fill:#000000"
             id="tspan9379">express</tspan><tspan
             dx="2.2104149"
             dy="0"
             style="font-style:normal;font-variant:normal;font-weight:400;font-size:16.1875px;font-family:Arial;fill:#000000"
             id="tspan9381">]</tspan></tspan></text>
    </g>
    <path
       transform="matrix(0.26458333,0,0,0.26458333,583.93659,-107.04759)"
       style="fill:#ffffff;fill-opacity:1;fill-rule:evenodd;stroke:none"
       clip-path="url(#clipEmfPath1-78)"
       d="m 349.29355,117.30797 v 17.6652 h 46.28415 v -17.6652 z"
       id="path9389" />
    <g
       transform="matrix(0.26458333,0,0,0.26458333,583.93659,-107.04759)"
       clip-path="url(#clipEmfPath1-78)"
       id="g9401">
      <text
         xml:space="preserve"
         style="font-style:normal;font-variant:normal;font-weight:400;font-size:16.1875px;line-height:125%;font-family:Arial;text-align:start;letter-spacing:0px;word-spacing:0px;text-anchor:start;fill:#000000;fill-opacity:1;stroke:none"
         transform="translate(348.92548,131.01691)"
         x="0"
         y="0"
         id="text9399"><tspan
           sodipodi:role="line"
           x="0"
           y="0"
           id="tspan9397"><tspan
             dx="0"
             dy="0"
             style="font-style:normal;font-variant:normal;font-weight:400;font-size:16.1875px;font-family:Arial;fill:#000000"
             id="tspan9391">[ </tspan><tspan
             dx="0"
             dy="0"
             style="font-style:normal;font-variant:normal;font-weight:400;font-size:16.1875px;font-family:Arial;fill:#000000"
             id="tspan9393">else </tspan><tspan
             dx="0"
             dy="0"
             style="font-style:normal;font-variant:normal;font-weight:400;font-size:16.1875px;font-family:Arial;fill:#000000"
             id="tspan9395">]</tspan></tspan></text>
    </g>
    <path
       transform="matrix(0.26458333,0,0,0.26458333,583.93659,-107.04759)"
       style="fill:#ffffff;fill-opacity:1;fill-rule:evenodd;stroke:none"
       clip-path="url(#clipEmfPath1-78)"
       d="m 397.97013,217.6868 26.50067,-17.6652 26.50066,17.6652 -26.50066,17.6652 z"
       id="path9403" />
    <path
       transform="matrix(0.26458333,0,0,0.26458333,583.93659,-107.04759)"
       style="fill:none;stroke:#000000;stroke-width:0.460056px;stroke-linecap:round;stroke-linejoin:round;stroke-miterlimit:10;stroke-dasharray:none;stroke-opacity:1"
       clip-path="url(#clipEmfPath1-78)"
       d="m 397.97013,217.6868 26.50067,-17.6652 26.50066,17.6652 -26.50066,17.6652 z"
       id="path9405" />
    <path
       transform="matrix(0.26458333,0,0,0.26458333,583.93659,-107.04759)"
       style="fill:none;stroke:#000000;stroke-width:0.460056px;stroke-linecap:round;stroke-linejoin:round;stroke-miterlimit:10;stroke-dasharray:none;stroke-opacity:1"
       clip-path="url(#clipEmfPath1-78)"
       d="m 306.13794,195.6053 v 11.04075 c 0,6.16442 4.96888,11.04075 11.04195,11.04075 h 80.79024"
       id="path9407" />
    <path
       transform="matrix(0.26458333,0,0,0.26458333,583.93659,-107.04759)"
       style="fill:none;stroke:#000000;stroke-width:0.460056px;stroke-linecap:round;stroke-linejoin:round;stroke-miterlimit:10;stroke-dasharray:none;stroke-opacity:1"
       clip-path="url(#clipEmfPath1-78)"
       d="m 381.77527,223.11517 16.19486,-5.42837 -16.19486,-5.42837"
       id="path9409" />
    <path
       transform="matrix(0.26458333,0,0,0.26458333,583.93659,-107.04759)"
       style="fill:none;stroke:#000000;stroke-width:0.460056px;stroke-linecap:round;stroke-linejoin:round;stroke-miterlimit:10;stroke-dasharray:none;stroke-opacity:1"
       clip-path="url(#clipEmfPath1-78)"
       d="m 548.14059,195.6053 v 11.04075 c 0,6.16442 -4.87686,11.04075 -11.04195,11.04075 h -86.12718"
       id="path9411" />
    <path
       transform="matrix(0.26458333,0,0,0.26458333,583.93659,-107.04759)"
       style="fill:none;stroke:#000000;stroke-width:0.460056px;stroke-linecap:round;stroke-linejoin:round;stroke-miterlimit:10;stroke-dasharray:none;stroke-opacity:1"
       clip-path="url(#clipEmfPath1-78)"
       d="m 467.25833,212.25843 -16.28687,5.42837 16.28687,5.42837"
       id="path9413" />
    <path
       transform="matrix(0.26458333,0,0,0.26458333,583.93659,-107.04759)"
       style="fill:none;stroke:#000000;stroke-width:0.460056px;stroke-linecap:round;stroke-linejoin:round;stroke-miterlimit:10;stroke-dasharray:none;stroke-opacity:1"
       clip-path="url(#clipEmfPath1-78)"
       d="M 243.38289,319.2617 H 614.39226 243.38289"
       id="path9415" />
    <path
       transform="matrix(0.26458333,0,0,0.26458333,583.93659,-107.04759)"
       style="fill:none;stroke:#000000;stroke-width:0.460056px;stroke-linecap:round;stroke-linejoin:round;stroke-miterlimit:10;stroke-dasharray:none;stroke-opacity:1"
       clip-path="url(#clipEmfPath1-78)"
       d="M 243.38289,319.2617 H 614.39226 243.38289"
       id="path9417" />
    <path
       transform="matrix(0.26458333,0,0,0.26458333,583.93659,-107.04759)"
       style="fill:none;stroke:#000000;stroke-width:0.460056px;stroke-linecap:round;stroke-linejoin:round;stroke-miterlimit:10;stroke-dasharray:none;stroke-opacity:1"
       clip-path="url(#clipEmfPath1-78)"
       d="m 208.04866,46.647171 c 0,-19.597332 15.82679,-35.330402 35.33423,-35.330402 v 0 h 371.00937 c 19.50744,0 35.33423,15.73307 35.33423,35.330402 0,0 0,0 0,0 v 0 237.284129 c 0,19.50533 -15.82679,35.3304 -35.33423,35.3304 H 243.38289 c -19.50744,0 -35.33423,-15.82507 -35.33423,-35.3304 v 0 -237.284129"
       id="path9419" />
    <path
       transform="matrix(0.26458333,0,0,0.26458333,583.93659,-107.04759)"
       style="fill:#ffffff;fill-opacity:1;fill-rule:evenodd;stroke:none"
       clip-path="url(#clipEmfPath1-78)"
       d="m 238.04595,20.14937 v 17.6652 h 133.51552 v -17.6652 z"
       id="path9421" />
    <g
       transform="matrix(0.26458333,0,0,0.26458333,583.93659,-107.04759)"
       clip-path="url(#clipEmfPath1-78)"
       id="g9429">
      <text
         xml:space="preserve"
         style="font-style:normal;font-variant:normal;font-weight:700;font-size:16.1875px;line-height:125%;font-family:Arial;text-align:start;letter-spacing:0px;word-spacing:0px;text-anchor:start;fill:#000000;fill-opacity:1;stroke:none"
         transform="translate(238.50603,33.858302)"
         x="0"
         y="0"
         id="text9427"><tspan
           sodipodi:role="line"
           x="0"
           y="0"
           id="tspan9425"><tspan
             dx="0"
             dy="0"
             style="font-style:normal;font-variant:normal;font-weight:700;font-size:16.1875px;font-family:Arial;fill:#000000"
             id="tspan9423">Livrer Commande</tspan></tspan></text>
    </g>
    <path
       transform="matrix(0.26458333,0,0,0.26458333,583.93659,-107.04759)"
       style="fill:#ffffff;fill-opacity:1;fill-rule:evenodd;stroke:none"
       clip-path="url(#clipEmfPath1-78)"
       d="M 183.2963,72.96096 165.62919,55.295759 V 72.96096 Z m 0,0 H 165.62919 V 55.295759 H 8.0054106 V 130.64888 H 183.2963 Z"
       id="path9431" />
    <path
       transform="matrix(0.26458333,0,0,0.26458333,583.93659,-107.04759)"
       style="fill:none;stroke:#000000;stroke-width:0.460056px;stroke-linecap:round;stroke-linejoin:round;stroke-miterlimit:10;stroke-dasharray:none;stroke-opacity:1"
       clip-path="url(#clipEmfPath1-78)"
       d="M 183.2963,72.96096 165.62919,55.295759 V 72.96096 Z"
       id="path9433" />
    <path
       transform="matrix(0.26458333,0,0,0.26458333,583.93659,-107.04759)"
       style="fill:none;stroke:#000000;stroke-width:0.460056px;stroke-linecap:round;stroke-linejoin:round;stroke-miterlimit:10;stroke-dasharray:none;stroke-opacity:1"
       clip-path="url(#clipEmfPath1-78)"
       d="M 183.2963,72.96096 H 165.62919 V 55.295759 H 8.0054106 V 130.64888 H 183.2963 V 72.96096"
       id="path9435" />
    <g
       transform="matrix(0.26458333,0,0,0.26458333,583.93659,-107.04759)"
       clip-path="url(#clipEmfPath1-78)"
       id="g9471">
      <text
         xml:space="preserve"
         style="font-style:normal;font-variant:normal;font-weight:700;font-size:16.1875px;line-height:115.355%;font-family:Arial;text-align:start;letter-spacing:0px;word-spacing:0px;text-anchor:start;fill:#000000;fill-opacity:1;stroke:none"
         transform="translate(16.194854,69.188703)"
         x="0"
         y="0"
         id="text9453"><tspan
           sodipodi:role="line"
           x="0"
           y="0"
           id="tspan9447"><tspan
             dx="0"
             dy="0"
             style="font-style:normal;font-variant:normal;font-weight:700;font-size:16.1875px;font-family:Arial;fill:#000000"
             id="tspan9437">D</tspan><tspan
             dx="-1.3842781"
             dy="0"
             style="font-style:normal;font-variant:normal;font-weight:700;font-size:16.1875px;font-family:Arial;fill:#000000"
             id="tspan9439">é</tspan><tspan
             dx="0"
             dy="0"
             style="font-style:normal;font-variant:normal;font-weight:700;font-size:16.1875px;font-family:Arial;fill:#000000"
             id="tspan9441">cision</tspan><tspan
             dx="3.2806361"
             dy="0"
             style="font-style:normal;font-variant:normal;font-weight:400;font-size:16.1875px;font-family:Arial;fill:#000000"
             id="tspan9443">: </tspan><tspan
             dx="0"
             dy="0"
             style="font-style:normal;font-variant:normal;font-weight:400;font-size:16.1875px;font-family:Arial;fill:#000000"
             id="tspan9445">n’importe </tspan></tspan><tspan
           sodipodi:role="line"
           x="0"
           y="18.673092"
           id="tspan9451"><tspan
             dx="0"
             dy="0"
             style="font-style:normal;font-variant:normal;font-weight:400;font-size:16.1875px;font-family:Arial;fill:#000000"
             id="tspan9449">quel embranchement </tspan></tspan></text>
      <text
         xml:space="preserve"
         style="font-style:normal;font-variant:normal;font-weight:400;font-size:16.1875px;line-height:118.223%;font-family:Arial;text-align:start;letter-spacing:0px;word-spacing:0px;text-anchor:start;fill:#000000;fill-opacity:1;stroke:none"
         transform="translate(16.194854,69.188703)"
         x="0"
         y="38.274601"
         id="text9469"><tspan
           sodipodi:role="line"
           x="0"
           y="38.274601"
           id="tspan9461"><tspan
             dx="0"
             dy="0"
             style="font-style:normal;font-variant:normal;font-weight:400;font-size:16.1875px;font-family:Arial;fill:#000000"
             id="tspan9455">se produit</tspan><tspan
             dx="-1.892857"
             dy="0"
             style="font-style:normal;font-variant:normal;font-weight:400;font-size:16.1875px;font-family:Arial;fill:#000000"
             id="tspan9457">. </tspan><tspan
             dx="0"
             dy="0"
             style="font-style:normal;font-variant:normal;font-weight:400;font-size:16.1875px;font-family:Arial;fill:#000000"
             id="tspan9459">Exclusion </tspan></tspan><tspan
           sodipodi:role="line"
           x="0"
           y="57.411949"
           id="tspan9467"><tspan
             dx="0"
             dy="0"
             style="font-style:normal;font-variant:normal;font-weight:400;font-size:16.1875px;font-family:Arial;fill:#000000"
             id="tspan9463">mutuelle</tspan><tspan
             dx="0"
             dy="0"
             style="font-style:normal;font-variant:normal;font-weight:400;font-size:16.1875px;font-family:Arial;fill:#000000"
             id="tspan9465">.</tspan></tspan></text>
    </g>
    <path
       transform="matrix(0.26458333,0,0,0.26458333,583.93659,-107.04759)"
       style="fill:#ffffff;fill-opacity:1;fill-rule:evenodd;stroke:none"
       clip-path="url(#clipEmfPath1-78)"
       d="m 200.96341,169.29151 -17.66711,-17.6652 v 17.6652 z m 0,0 H 183.2963 v -17.6652 H 8.0054106 V 321.28584 H 200.96341 Z"
       id="path9473" />
    <path
       transform="matrix(0.26458333,0,0,0.26458333,583.93659,-107.04759)"
       style="fill:none;stroke:#000000;stroke-width:0.460056px;stroke-linecap:round;stroke-linejoin:round;stroke-miterlimit:10;stroke-dasharray:none;stroke-opacity:1"
       clip-path="url(#clipEmfPath1-78)"
       d="m 200.96341,169.29151 -17.66711,-17.6652 v 17.6652 z"
       id="path9475" />
    <path
       transform="matrix(0.26458333,0,0,0.26458333,583.93659,-107.04759)"
       style="fill:none;stroke:#000000;stroke-width:0.460056px;stroke-linecap:round;stroke-linejoin:round;stroke-miterlimit:10;stroke-dasharray:none;stroke-opacity:1"
       clip-path="url(#clipEmfPath1-78)"
       d="M 200.96341,169.29151 H 183.2963 v -17.6652 H 8.0054106 V 321.28584 H 200.96341 V 169.29151"
       id="path9477" />
    <g
       transform="matrix(0.26458333,0,0,0.26458333,583.93659,-107.04759)"
       clip-path="url(#clipEmfPath1-78)"
       id="g9547">
      <text
         xml:space="preserve"
         style="font-style:normal;font-variant:normal;font-weight:700;font-size:16.1875px;line-height:106.481%;font-family:Arial;text-align:start;letter-spacing:0px;word-spacing:0px;text-anchor:start;fill:#000000;fill-opacity:1;stroke:none"
         transform="translate(16.194854,166.34731)"
         x="0"
         y="0"
         id="text9495"><tspan
           sodipodi:role="line"
           x="0"
           y="0"
           id="tspan9485"><tspan
             dx="0"
             dy="0"
             style="font-style:normal;font-variant:normal;font-weight:700;font-size:16.1875px;font-family:Arial;fill:#000000"
             id="tspan9479">Fusion </tspan><tspan
             dx="-1.60355"
             dy="0"
             style="font-style:normal;font-variant:normal;font-weight:400;font-size:16.1875px;font-family:Arial;fill:#000000"
             id="tspan9481">: </tspan><tspan
             dx="0"
             dy="0"
             style="font-style:normal;font-variant:normal;font-weight:400;font-size:16.1875px;font-family:Arial;fill:#000000"
             id="tspan9483">dans une </tspan></tspan><tspan
           sodipodi:role="line"
           x="0"
           y="17.236612"
           id="tspan9493"><tspan
             dx="0"
             dy="0"
             style="font-style:normal;font-variant:normal;font-weight:400;font-size:16.1875px;font-family:Arial;fill:#000000"
             id="tspan9487">jointure</tspan><tspan
             dx="-1.5624419"
             dy="0"
             style="font-style:normal;font-variant:normal;font-weight:400;font-size:16.1875px;font-family:Arial;fill:#000000"
             id="tspan9489">, </tspan><tspan
             dx="0"
             dy="0"
             style="font-style:normal;font-variant:normal;font-weight:400;font-size:16.1875px;font-family:Arial;fill:#000000"
             id="tspan9491">la poursuite des </tspan></tspan></text>
      <text
         xml:space="preserve"
         style="font-style:normal;font-variant:normal;font-weight:400;font-size:16.1875px;line-height:117.927%;font-family:Arial;text-align:start;letter-spacing:0px;word-spacing:0px;text-anchor:start;fill:#000000;fill-opacity:1;stroke:none"
         transform="translate(16.194854,166.34731)"
         x="0"
         y="36.802502"
         id="text9525"><tspan
           sodipodi:role="line"
           x="0"
           y="36.802502"
           id="tspan9499"><tspan
             dx="0"
             dy="0"
             style="font-style:normal;font-variant:normal;font-weight:400;font-size:16.1875px;font-family:Arial;fill:#000000"
             id="tspan9497">activités n’a lieu que </tspan></tspan><tspan
           sodipodi:role="line"
           x="0"
           y="55.931259"
           id="tspan9507"><tspan
             dx="0"
             dy="0"
             style="font-style:normal;font-variant:normal;font-weight:400;font-size:16.1875px;font-family:Arial;fill:#000000"
             id="tspan9501">lorsque </tspan><tspan
             dx="-1.64307"
             dy="0"
             style="font-style:italic;font-variant:normal;font-weight:400;font-size:16.1875px;font-family:Arial;fill:#000000"
             id="tspan9503">tous</tspan><tspan
             dx="3.265379"
             dy="0"
             style="font-style:normal;font-variant:normal;font-weight:400;font-size:16.1875px;font-family:Arial;fill:#000000"
             id="tspan9505">les flots </tspan></tspan><tspan
           sodipodi:role="line"
           x="0"
           y="75.020691"
           id="tspan9511"><tspan
             dx="0"
             dy="0"
             style="font-style:normal;font-variant:normal;font-weight:400;font-size:16.1875px;font-family:Arial;fill:#000000"
             id="tspan9509">entrants ont atteint la </tspan></tspan><tspan
           sodipodi:role="line"
           x="0"
           y="94.11013"
           id="tspan9523"><tspan
             dx="0"
             dy="0"
             style="font-style:normal;font-variant:normal;font-weight:400;font-size:16.1875px;font-family:Arial;fill:#000000"
             id="tspan9513">jointure</tspan><tspan
             dx="-1.5624419"
             dy="0"
             style="font-style:normal;font-variant:normal;font-weight:400;font-size:16.1875px;font-family:Arial;fill:#000000"
             id="tspan9515">. </tspan><tspan
             dx="0"
             dy="0"
             style="font-style:normal;font-variant:normal;font-weight:400;font-size:16.1875px;font-family:Arial;fill:#000000"
             id="tspan9517">À l’inverse</tspan><tspan
             dx="0"
             dy="0"
             style="font-style:normal;font-variant:normal;font-weight:400;font-size:16.1875px;font-family:Arial;fill:#000000"
             id="tspan9519">, </tspan><tspan
             dx="0"
             dy="0"
             style="font-style:normal;font-variant:normal;font-weight:400;font-size:16.1875px;font-family:Arial;fill:#000000"
             id="tspan9521">dans </tspan></tspan></text>
      <text
         xml:space="preserve"
         style="font-style:normal;font-variant:normal;font-weight:400;font-size:16.1875px;line-height:117.779%;font-family:Arial;text-align:start;letter-spacing:0px;word-spacing:0px;text-anchor:start;fill:#000000;fill-opacity:1;stroke:none"
         transform="translate(16.194854,166.34731)"
         x="0"
         y="111.87961"
         id="text9545"><tspan
           sodipodi:role="line"
           x="0"
           y="111.87961"
           id="tspan9533"><tspan
             dx="0"
             dy="0"
             style="font-style:normal;font-variant:normal;font-weight:400;font-size:16.1875px;font-family:Arial;fill:#000000"
             id="tspan9527">une fusion il suffit d’</tspan><tspan
             dx="0"
             dy="0"
             style="font-style:italic;font-variant:normal;font-weight:400;font-size:16.1875px;font-family:Arial;fill:#000000"
             id="tspan9529">un</tspan><tspan
             dx="0"
             dy="0"
             style="font-style:normal;font-variant:normal;font-weight:400;font-size:16.1875px;font-family:Arial;fill:#000000"
             id="tspan9531"> </tspan></tspan><tspan
           sodipodi:role="line"
           x="0"
           y="130.94508"
           id="tspan9537"><tspan
             dx="0"
             dy="0"
             style="font-style:normal;font-variant:normal;font-weight:400;font-size:16.1875px;font-family:Arial;fill:#000000"
             id="tspan9535">flot entrant pour que les </tspan></tspan><tspan
           sodipodi:role="line"
           x="0"
           y="150.01056"
           id="tspan9543"><tspan
             dx="0"
             dy="0"
             style="font-style:normal;font-variant:normal;font-weight:400;font-size:16.1875px;font-family:Arial;fill:#000000"
             id="tspan9539">activités se poursuivent</tspan><tspan
             dx="0"
             dy="0"
             style="font-style:normal;font-variant:normal;font-weight:400;font-size:16.1875px;font-family:Arial;fill:#000000"
             id="tspan9541">.</tspan></tspan></text>
    </g>
  </g>
</svg>
