<?xml version="1.0" encoding="UTF-8" standalone="no"?>
<svg
   xmlns:dc="http://purl.org/dc/elements/1.1/"
   xmlns:cc="http://creativecommons.org/ns#"
   xmlns:rdf="http://www.w3.org/1999/02/22-rdf-syntax-ns#"
   xmlns:svg="http://www.w3.org/2000/svg"
   xmlns="http://www.w3.org/2000/svg"
   xmlns:sodipodi="http://sodipodi.sourceforge.net/DTD/sodipodi-0.dtd"
   xmlns:inkscape="http://www.inkscape.org/namespaces/inkscape"
   sodipodi:docname="Fig.A15.8.svg"
   inkscape:version="1.0 (4035a4fb49, 2020-05-01)"
   id="svg8"
   version="1.1"
   viewBox="0 0 222.45117 96.96322"
   height="96.963219mm"
   width="222.45117mm">
  <defs
     id="defs2">
    <clipPath
       clipPathUnits="userSpaceOnUse"
       id="clipEmfPath1">
      <path
         d="M 0,0 H 863.47668 V 389.36402 H 0 Z"
         id="path833" />
    </clipPath>
    <pattern
       id="EMFhbasepattern"
       patternUnits="userSpaceOnUse"
       width="6"
       height="6"
       x="0"
       y="0" />
    <clipPath
       clipPathUnits="userSpaceOnUse"
       id="clipEmfPath1-6">
      <path
         d="M 0,0 H 863.47668 V 346.35009 H 0 Z"
         id="path974" />
    </clipPath>
    <pattern
       id="EMFhbasepattern-7"
       patternUnits="userSpaceOnUse"
       width="6"
       height="6"
       x="0"
       y="0" />
    <clipPath
       clipPathUnits="userSpaceOnUse"
       id="clipEmfPath1-8">
      <path
         d="M 0,0 H 863.47668 V 552.14537 H 0 Z"
         id="path1103" />
    </clipPath>
    <pattern
       id="EMFhbasepattern-8"
       patternUnits="userSpaceOnUse"
       width="6"
       height="6"
       x="0"
       y="0" />
    <clipPath
       clipPathUnits="userSpaceOnUse"
       id="clipEmfPath1-82">
      <path
         d="M 0,0 H 863.47668 V 374.81284 H 0 Z"
         id="path1499" />
    </clipPath>
    <pattern
       id="EMFhbasepattern-9"
       patternUnits="userSpaceOnUse"
       width="6"
       height="6"
       x="0"
       y="0" />
  </defs>
  <sodipodi:namedview
     inkscape:window-maximized="1"
     inkscape:window-y="-8"
     inkscape:window-x="1272"
     inkscape:window-height="1017"
     inkscape:window-width="1920"
     fit-margin-bottom="0.1"
     fit-margin-right="0"
     fit-margin-left="0"
     fit-margin-top="0"
     showgrid="false"
     inkscape:document-rotation="0"
     inkscape:current-layer="layer1"
     inkscape:document-units="mm"
     inkscape:cy="221.75629"
     inkscape:cx="230.11814"
     inkscape:zoom="0.98994949"
     inkscape:pageshadow="2"
     inkscape:pageopacity="0.0"
     borderopacity="1.0"
     bordercolor="#666666"
     pagecolor="#ffffff"
     id="base" />
  <metadata
     id="metadata5">
    <rdf:RDF>
      <cc:Work
         rdf:about="">
        <dc:format>image/svg+xml</dc:format>
        <dc:type
           rdf:resource="http://purl.org/dc/dcmitype/StillImage" />
        <dc:title></dc:title>
      </cc:Work>
    </rdf:RDF>
  </metadata>
  <g
     transform="translate(-259.38138,-115.42358)"
     id="layer1"
     inkscape:groupmode="layer"
     inkscape:label="Layer 1">
    <path
       transform="matrix(0.26458333,0,0,0.26458333,254.62742,114.30449)"
       style="fill:#000000;fill-opacity:1;fill-rule:nonzero;stroke:#000000;stroke-width:0.256682px;stroke-linecap:round;stroke-linejoin:round;stroke-miterlimit:4;stroke-dasharray:none;stroke-opacity:1"
       clip-path="url(#clipEmfPath1-82)"
       d="m 735.64928,81.525638 v 12.305757 0.25637 0 l -0.25668,0.25637 h -0.25669 v 0 l -0.25668,-0.25637 v 0 -0.25637 -12.305757 0 -0.25637 h 0.25668 v 0 h 0.25669 0.25668 z m 0,19.740482 v 12.30576 0.25637 0 l -0.51337,0.25637 -0.25668,-0.25637 v 0 -0.25637 -12.30576 -0.25637 0 h 0.25668 0.51337 v 0 z m 0,19.74049 v 12.30575 0.25637 0 h -0.25668 l -0.25669,0.25637 v -0.25637 h -0.25668 v 0 -0.25637 -12.30575 -0.25637 0 l 0.25668,-0.25637 v 0 h 0.25669 l 0.25668,0.25637 v 0 z m 0,19.74048 v 12.30576 0 0.25637 h -0.25668 -0.25669 v 0 h -0.25668 v -0.25637 0 -12.30576 -0.25637 0 l 0.25668,-0.25637 v 0 h 0.25669 l 0.25668,0.25637 v 0 z m 0,19.74049 v 12.30575 0 0.25637 h -0.51337 -0.25668 v -0.25637 0 -12.30575 -0.25637 -0.25637 h 0.25668 v 0 h 0.25669 0.25668 v 0.25637 z m 0,19.48411 v 12.30576 0.25637 0 l -0.25668,0.25637 h -0.25669 v 0 l -0.25668,-0.25637 v 0 -0.25637 -12.30576 0 -0.25637 h 0.25668 v 0 h 0.25669 0.25668 z m 0,19.74049 v 12.30575 0.25637 0 l -0.51337,0.25637 -0.25668,-0.25637 v 0 -0.25637 -12.30575 -0.25637 0 h 0.25668 0.51337 v 0 z m 0,19.74048 v 12.30576 0.25637 0 h -0.25668 l -0.25669,0.25637 v -0.25637 h -0.25668 v 0 -0.25637 -12.30576 -0.25637 0 l 0.25668,-0.25637 v 0 h 0.25669 l 0.25668,0.25637 v 0 z m 0,19.74049 v 12.30575 0 0.25637 h -0.25668 -0.25669 v 0 h -0.25668 v -0.25637 0 -12.30575 -0.25637 0 l 0.25668,-0.25637 v 0 h 0.25669 l 0.25668,0.25637 v 0 z m 0,19.74048 v 12.30576 0 0.25637 h -0.51337 -0.25668 v -0.25637 0 -12.30576 -0.25637 -0.25637 h 0.25668 v 0 h 0.25669 0.25668 v 0.25637 z m 0,19.48412 v 12.30575 0.25637 0 l -0.25668,0.25637 h -0.25669 v 0 l -0.25668,-0.25637 v 0 -0.25637 -12.30575 0 -0.25637 h 0.25668 v 0 h 0.25669 0.25668 z m 0,19.74048 v 12.30576 0.25637 0 l -0.51337,0.25637 -0.25668,-0.25637 v 0 -0.25637 -12.30576 -0.25637 0 h 0.25668 0.51337 v 0 z m 0,19.74049 v 12.30575 0.25637 0 h -0.25668 l -0.25669,0.25637 v -0.25637 h -0.25668 v 0 -0.25637 -12.30575 -0.25637 0 l 0.25668,-0.25637 v 0 h 0.25669 l 0.25668,0.25637 v 0 z m 0,19.74048 v 12.30576 0 0.25637 h -0.25668 -0.25669 v 0 h -0.25668 v -0.25637 0 -12.30576 -0.25637 0 l 0.25668,-0.25637 v 0 h 0.25669 l 0.25668,0.25637 v 0 z m 0,19.74049 v 12.30575 0 0.25637 h -0.51337 -0.25668 v -0.25637 0 -12.30575 -0.25637 -0.25637 h 0.25668 v 0 h 0.25669 0.25668 v 0.25637 z"
       id="path1505" />
    <path
       transform="matrix(0.26458333,0,0,0.26458333,254.62742,114.30449)"
       style="fill:#ffffff;fill-opacity:1;fill-rule:evenodd;stroke:none"
       clip-path="url(#clipEmfPath1-82)"
       d="M 103.69934,4.6146588 V 81.525638 H 350.11361 V 4.6146588 Z"
       id="path1507" />
    <path
       transform="matrix(0.26458333,0,0,0.26458333,254.62742,114.30449)"
       style="fill:none;stroke:#000000;stroke-width:0.770045px;stroke-linecap:round;stroke-linejoin:round;stroke-miterlimit:4;stroke-dasharray:none;stroke-opacity:1"
       clip-path="url(#clipEmfPath1-82)"
       d="M 103.69934,81.525638 H 350.11361 V 4.6146588 H 103.69934 Z"
       id="path1509" />
    <g
       transform="matrix(0.26458333,0,0,0.26458333,254.62742,114.30449)"
       clip-path="url(#clipEmfPath1-82)"
       id="g1519">
      <text
         xml:space="preserve"
         style="font-style:normal;font-variant:normal;font-weight:400;font-size:27.4375px;line-height:125%;font-family:Helvetica;text-align:start;letter-spacing:0px;word-spacing:0px;text-anchor:start;fill:#000000;fill-opacity:1;stroke:none"
         transform="translate(168.38309,51.273986)"
         x="0"
         y="0"
         id="text1517"><tspan
           sodipodi:role="line"
           x="0"
           y="0"
           id="tspan1515"><tspan
             dx="0"
             dy="0"
             style="font-style:normal;font-variant:normal;font-weight:400;font-size:27.4375px;font-family:Helvetica;fill:#000000"
             id="tspan1511">: </tspan><tspan
             dx="0"
             dy="0"
             style="font-style:normal;font-variant:normal;font-weight:400;font-size:27.4375px;font-family:Helvetica;fill:#000000"
             id="tspan1513">Register</tspan></tspan></text>
    </g>
    <path
       transform="matrix(0.26458333,0,0,0.26458333,254.62742,114.30449)"
       style="fill:#ffffff;fill-opacity:1;fill-rule:evenodd;stroke:none"
       clip-path="url(#clipEmfPath1-82)"
       d="M 611.92878,4.6146588 V 81.525638 H 858.34305 V 4.6146588 Z"
       id="path1521" />
    <path
       transform="matrix(0.26458333,0,0,0.26458333,254.62742,114.30449)"
       style="fill:none;stroke:#000000;stroke-width:0.770045px;stroke-linecap:round;stroke-linejoin:round;stroke-miterlimit:4;stroke-dasharray:none;stroke-opacity:1"
       clip-path="url(#clipEmfPath1-82)"
       d="M 611.92878,81.525638 H 858.34305 V 4.6146588 H 611.92878 Z"
       id="path1523" />
    <g
       transform="matrix(0.26458333,0,0,0.26458333,254.62742,114.30449)"
       clip-path="url(#clipEmfPath1-82)"
       id="g1533">
      <text
         xml:space="preserve"
         style="font-style:normal;font-variant:normal;font-weight:400;font-size:27.4375px;line-height:125%;font-family:Helvetica;text-align:start;letter-spacing:0px;word-spacing:0px;text-anchor:start;fill:#000000;fill-opacity:1;stroke:none"
         transform="translate(700.22722,51.273986)"
         x="0"
         y="0"
         id="text1531"><tspan
           sodipodi:role="line"
           x="0"
           y="0"
           id="tspan1529"><tspan
             dx="0"
             dy="0"
             style="font-style:normal;font-variant:normal;font-weight:400;font-size:27.4375px;font-family:Helvetica;fill:#000000"
             id="tspan1525">: </tspan><tspan
             dx="0"
             dy="0"
             style="font-style:normal;font-variant:normal;font-weight:400;font-size:27.4375px;font-family:Helvetica;fill:#000000"
             id="tspan1527">Sale</tspan></tspan></text>
    </g>
    <path
       transform="matrix(0.26458333,0,0,0.26458333,254.62742,114.30449)"
       style="fill:#000000;fill-opacity:1;fill-rule:nonzero;stroke:#000000;stroke-width:0.256682px;stroke-linecap:round;stroke-linejoin:round;stroke-miterlimit:4;stroke-dasharray:none;stroke-opacity:1"
       clip-path="url(#clipEmfPath1-82)"
       d="m 227.41984,81.525638 v 12.305757 0.25637 0 l -0.25668,0.25637 h -0.25668 v 0 l -0.25669,-0.25637 v 0 -0.25637 -12.305757 0 -0.25637 h 0.25669 v 0 h 0.25668 0.25668 z m 0,19.740482 v 12.30576 0.25637 0 l -0.51336,0.25637 -0.25669,-0.25637 v 0 -0.25637 -12.30576 -0.25637 0 l 0.25669,-0.25637 0.51336,0.25637 v 0 z m 0,19.74049 v 12.30575 0 0.25637 h -0.25668 -0.25668 v 0 h -0.25669 v -0.25637 0 -12.30575 -0.25637 0 l 0.25669,-0.25637 v 0 h 0.25668 l 0.25668,0.25637 v 0 z m 0,19.74048 v 12.30576 0 0.25637 h -0.25668 -0.25668 v 0 h -0.25669 v -0.25637 0 -12.30576 -0.25637 0 l 0.25669,-0.25637 v 0 h 0.25668 l 0.25668,0.25637 v 0 z m 0,19.48412 v 12.30575 0.25637 0.25637 h -0.51336 -0.25669 v -0.25637 -0.25637 -12.30575 0 -0.25637 h 0.25669 v 0 h 0.25668 0.25668 z m 0,19.74048 v 12.30576 0.25637 0 l -0.25668,0.25637 h -0.25668 v 0 l -0.25669,-0.25637 v 0 -0.25637 -12.30576 0 -0.25637 h 0.25669 v 0 h 0.25668 0.25668 z m 0,19.74049 v 12.30575 0.25637 0 l -0.51336,0.25637 -0.25669,-0.25637 v 0 -0.25637 -12.30575 -0.25637 0 l 0.25669,-0.25637 0.51336,0.25637 v 0 z m 0,19.74048 v 12.30576 0 0.25637 h -0.25668 -0.25668 v 0 h -0.25669 v -0.25637 0 -12.30576 -0.25637 0 l 0.25669,-0.25637 v 0 h 0.25668 l 0.25668,0.25637 v 0 z m 0,19.74049 v 12.30575 0 0.25637 h -0.25668 -0.25668 v 0 h -0.25669 v -0.25637 0 -12.30575 -0.25637 0 l 0.25669,-0.25637 v 0 h 0.25668 l 0.25668,0.25637 v 0 z m 0,19.48411 v 12.30576 0.25637 0.25637 h -0.51336 -0.25669 v -0.25637 -0.25637 -12.30576 0 -0.25637 h 0.25669 v 0 h 0.25668 0.25668 z m 0,19.74049 v 12.30575 0.25637 0 l -0.25668,0.25637 h -0.25668 v 0 l -0.25669,-0.25637 v 0 -0.25637 -12.30575 0 -0.25637 h 0.25669 v 0 h 0.25668 0.25668 z m 0,19.74048 v 12.30576 0.25637 0 l -0.51336,0.25637 -0.25669,-0.25637 v 0 -0.25637 -12.30576 -0.25637 0 l 0.25669,-0.25637 0.51336,0.25637 v 0 z m 0,19.74049 v 12.30575 0 0.25637 h -0.25668 -0.25668 v 0 h -0.25669 v -0.25637 0 -12.30575 -0.25637 0 l 0.25669,-0.25637 v 0 h 0.25668 l 0.25668,0.25637 v 0 z m 0,19.74048 v 12.30576 0 0.25637 h -0.25668 -0.25668 v 0 h -0.25669 v -0.25637 0 -12.30576 -0.25637 0 l 0.25669,-0.25637 v 0 h 0.25668 l 0.25668,0.25637 v 0 z m 0,19.48412 v 12.30575 0.25637 0.25637 h -0.51336 -0.25669 v -0.25637 -0.25637 -12.30575 0 -0.25637 h 0.25669 v 0 h 0.25668 0.25668 z"
       id="path1535" />
    <path
       transform="matrix(0.26458333,0,0,0.26458333,254.62742,114.30449)"
       style="fill:none;stroke:#000000;stroke-width:0.770045px;stroke-linecap:round;stroke-linejoin:round;stroke-miterlimit:4;stroke-dasharray:none;stroke-opacity:1"
       clip-path="url(#clipEmfPath1-82)"
       d="M 228.95993,175.6134 H 705.36086"
       id="path1537" />
    <path
       transform="matrix(0.26458333,0,0,0.26458333,254.62742,114.30449)"
       style="fill:#000000;fill-opacity:1;fill-rule:evenodd;stroke:none"
       clip-path="url(#clipEmfPath1-82)"
       d="m 703.05072,166.12772 18.73775,9.48568 -18.73775,9.48569 z"
       id="path1539" />
    <g
       transform="matrix(0.26458333,0,0,0.26458333,254.62742,114.30449)"
       clip-path="url(#clipEmfPath1-82)"
       id="g1553">
      <text
         xml:space="preserve"
         style="font-style:normal;font-variant:normal;font-weight:400;font-size:27.4375px;line-height:125%;font-family:Helvetica;text-align:start;letter-spacing:0px;word-spacing:0px;text-anchor:start;fill:#000000;fill-opacity:1;stroke:none"
         transform="translate(396.57297,169.97326)"
         x="0"
         y="0"
         id="text1551"><tspan
           sodipodi:role="line"
           x="0"
           y="0"
           id="tspan1549"><tspan
             dx="0"
             dy="0"
             style="font-style:normal;font-variant:normal;font-weight:400;font-size:27.4375px;font-family:Helvetica;fill:#000000"
             id="tspan1541">d</tspan><tspan
             dx="0"
             dy="0"
             style="font-style:normal;font-variant:normal;font-weight:400;font-size:27.4375px;font-family:Helvetica;fill:#000000"
             id="tspan1543">1 </tspan><tspan
             dx="0"
             dy="0"
             style="font-style:normal;font-variant:normal;font-weight:400;font-size:27.4375px;font-family:Helvetica;fill:#000000"
             id="tspan1545">= </tspan><tspan
             dx="0"
             dy="0"
             style="font-style:normal;font-variant:normal;font-weight:400;font-size:27.4375px;font-family:Helvetica;fill:#000000"
             id="tspan1547">getDate</tspan></tspan></text>
    </g>
    <path
       transform="matrix(0.26458333,0,0,0.26458333,254.62742,114.30449)"
       style="fill:#ffffff;fill-opacity:1;fill-rule:evenodd;stroke:none"
       clip-path="url(#clipEmfPath1-82)"
       d="m 721.78847,175.6134 v 46.14659 h 30.80179 V 175.6134 Z"
       id="path1555" />
    <path
       transform="matrix(0.26458333,0,0,0.26458333,254.62742,114.30449)"
       style="fill:none;stroke:#000000;stroke-width:0.770045px;stroke-linecap:round;stroke-linejoin:round;stroke-miterlimit:4;stroke-dasharray:none;stroke-opacity:1"
       clip-path="url(#clipEmfPath1-82)"
       d="m 721.78847,221.75999 h 30.80179 V 175.6134 h -30.80179 z"
       id="path1557" />
    <path
       transform="matrix(0.26458333,0,0,0.26458333,254.62742,114.30449)"
       style="fill:none;stroke:#000000;stroke-width:0.770045px;stroke-linecap:round;stroke-linejoin:round;stroke-miterlimit:4;stroke-dasharray:none;stroke-opacity:1"
       clip-path="url(#clipEmfPath1-82)"
       d="M 228.95993,267.90658 H 705.36086"
       id="path1559" />
    <path
       transform="matrix(0.26458333,0,0,0.26458333,254.62742,114.30449)"
       style="fill:#000000;fill-opacity:1;fill-rule:evenodd;stroke:none"
       clip-path="url(#clipEmfPath1-82)"
       d="m 703.05072,258.42089 18.73775,9.48569 -18.73775,9.48569 z"
       id="path1561" />
    <g
       transform="matrix(0.26458333,0,0,0.26458333,254.62742,114.30449)"
       clip-path="url(#clipEmfPath1-82)"
       id="g1569">
      <text
         xml:space="preserve"
         style="font-style:normal;font-variant:normal;font-weight:400;font-size:27.4375px;line-height:125%;font-family:Helvetica;text-align:start;letter-spacing:0px;word-spacing:0px;text-anchor:start;fill:#000000;fill-opacity:1;stroke:none"
         transform="translate(427.63144,262.26644)"
         x="0"
         y="0"
         id="text1567"><tspan
           sodipodi:role="line"
           x="0"
           y="0"
           id="tspan1565"><tspan
             dx="0"
             dy="0"
             style="font-style:normal;font-variant:normal;font-weight:400;font-size:27.4375px;font-family:Helvetica;fill:#000000"
             id="tspan1563">getDate</tspan></tspan></text>
    </g>
    <path
       transform="matrix(0.26458333,0,0,0.26458333,254.62742,114.30449)"
       style="fill:#ffffff;fill-opacity:1;fill-rule:evenodd;stroke:none"
       clip-path="url(#clipEmfPath1-82)"
       d="m 721.78847,267.90658 v 46.14659 h 30.80179 v -46.14659 z"
       id="path1571" />
    <path
       transform="matrix(0.26458333,0,0,0.26458333,254.62742,114.30449)"
       style="fill:none;stroke:#000000;stroke-width:0.770045px;stroke-linecap:round;stroke-linejoin:round;stroke-miterlimit:4;stroke-dasharray:none;stroke-opacity:1"
       clip-path="url(#clipEmfPath1-82)"
       d="m 721.78847,314.05317 h 30.80179 v -46.14659 h -30.80179 z"
       id="path1573" />
    <path
       transform="matrix(0.26458333,0,0,0.26458333,254.62742,114.30449)"
       style="fill:none;stroke:#000000;stroke-width:0.770045px;stroke-linecap:round;stroke-linejoin:round;stroke-miterlimit:4;stroke-dasharray:none;stroke-opacity:1"
       clip-path="url(#clipEmfPath1-82)"
       d="M 24.898109,144.84901 H 193.2812"
       id="path1575" />
    <path
       transform="matrix(0.26458333,0,0,0.26458333,254.62742,114.30449)"
       style="fill:#000000;fill-opacity:1;fill-rule:evenodd;stroke:none"
       clip-path="url(#clipEmfPath1-82)"
       d="m 32.085192,144.84901 v -0.76911 l -0.256682,-0.76911 v -0.76911 l -0.256681,-0.51274 -0.770045,-1.28185 -0.770045,-1.02548 -1.026726,-0.76911 -1.283407,-0.76911 -0.513363,-0.25637 h -0.770045 l -0.770045,-0.25637 h -0.770044 -0.513363 l -0.770045,0.25637 h -0.770044 l -0.513364,0.25637 -1.283407,0.76911 -1.026726,0.76911 -1.026726,1.02548 -0.513364,1.28185 -0.256681,0.51274 -0.256682,0.76911 v 0.76911 0.76911 0 0.51274 0.76911 l 0.256682,0.76911 0.256681,0.51274 0.513364,1.28185 1.026726,1.02548 1.026726,1.02548 1.283407,0.51274 0.513364,0.25637 0.770044,0.25637 h 0.770045 0.513363 0.770044 0.770045 l 0.770045,-0.25637 0.513363,-0.25637 1.283407,-0.51274 1.026726,-1.02548 0.770045,-1.02548 0.770045,-1.28185 0.256681,-0.51274 v -0.76911 l 0.256682,-0.76911 z"
       id="path1577" />
    <path
       transform="matrix(0.26458333,0,0,0.26458333,254.62742,114.30449)"
       style="fill:#000000;fill-opacity:1;fill-rule:evenodd;stroke:none"
       clip-path="url(#clipEmfPath1-82)"
       d="m 190.97106,135.36332 18.73775,9.48569 -18.73775,9.22932 z"
       id="path1579" />
    <g
       transform="matrix(0.26458333,0,0,0.26458333,254.62742,114.30449)"
       clip-path="url(#clipEmfPath1-82)"
       id="g1587">
      <text
         xml:space="preserve"
         style="font-style:normal;font-variant:normal;font-weight:400;font-size:27.4375px;line-height:125%;font-family:Helvetica;text-align:start;letter-spacing:0px;word-spacing:0px;text-anchor:start;fill:#000000;fill-opacity:1;stroke:none"
         transform="translate(92.918715,139.20887)"
         x="0"
         y="0"
         id="text1585"><tspan
           sodipodi:role="line"
           x="0"
           y="0"
           id="tspan1583"><tspan
             dx="0"
             dy="0"
             style="font-style:normal;font-variant:normal;font-weight:400;font-size:27.4375px;font-family:Helvetica;fill:#000000"
             id="tspan1581">doX</tspan></tspan></text>
    </g>
    <path
       transform="matrix(0.26458333,0,0,0.26458333,254.62742,114.30449)"
       style="fill:#ffffff;fill-opacity:1;fill-rule:evenodd;stroke:none"
       clip-path="url(#clipEmfPath1-82)"
       d="m 213.55904,144.84901 v 225.0928 h 30.80178 v -225.0928 z"
       id="path1589" />
    <path
       transform="matrix(0.26458333,0,0,0.26458333,254.62742,114.30449)"
       style="fill:none;stroke:#000000;stroke-width:0.770045px;stroke-linecap:round;stroke-linejoin:round;stroke-miterlimit:4;stroke-dasharray:none;stroke-opacity:1"
       clip-path="url(#clipEmfPath1-82)"
       d="m 213.55904,369.94181 h 30.80178 v -225.0928 h -30.80178 z"
       id="path1591" />
    <path
       transform="matrix(0.26458333,0,0,0.26458333,254.62742,114.30449)"
       style="fill:#000000;fill-opacity:1;fill-rule:nonzero;stroke:#000000;stroke-width:0.256682px;stroke-linecap:round;stroke-linejoin:round;stroke-miterlimit:4;stroke-dasharray:none;stroke-opacity:1"
       clip-path="url(#clipEmfPath1-82)"
       d="m 719.9917,313.02769 h -12.32071 v 0 l -0.25668,-0.25637 v -0.25637 -0.25637 h 0.25668 v -0.25637 h 12.32071 l 0.25668,0.25637 v 0 h 0.25669 v 0.25637 0.25637 h -0.25669 v 0.25637 z m -19.50779,0 h -12.32072 -0.25668 l -0.25668,-0.25637 v 0 -0.25637 -0.25637 0 h 0.25668 l 0.25668,-0.25637 h 12.32072 v 0.25637 h 0.25668 v 0 0.25637 0.25637 0 z m -19.76448,0 h -12.32072 -0.25668 v -0.25637 h -0.25668 v -0.25637 -0.25637 h 0.25668 v 0 l 0.25668,-0.25637 h 12.32072 v 0.25637 h 0.25668 v 0.25637 0.25637 z m -19.76448,0 h -12.32071 -0.25668 v -0.25637 h -0.25669 v -0.25637 -0.25637 h 0.25669 v 0 l 0.25668,-0.25637 h 12.32071 l 0.25668,0.25637 v 0 0 l 0.25668,0.25637 -0.25668,0.25637 v 0 0.25637 z m -19.76448,0 h -12.32071 v 0 l -0.25668,-0.25637 v 0 -0.25637 -0.25637 0 h 0.25668 v -0.25637 h 12.32071 l 0.25668,0.25637 v 0 h 0.25669 v 0.25637 0.25637 h -0.25669 v 0.25637 z m -19.76448,0 h -12.32071 v 0 l -0.25668,-0.25637 v -0.25637 -0.25637 h 0.25668 v -0.25637 h 12.32071 l 0.25669,0.25637 v 0 h 0.25668 v 0.25637 0.25637 h -0.25668 v 0.25637 z m -19.50779,0 h -12.32072 -0.25668 l -0.25668,-0.25637 v 0 -0.25637 -0.25637 0 h 0.25668 l 0.25668,-0.25637 h 12.32072 v 0.25637 h 0.25668 v 0 0.25637 0.25637 0 z m -19.76448,0 h -12.32071 -0.25669 v -0.25637 h -0.25668 v -0.25637 -0.25637 h 0.25668 v 0 l 0.25669,-0.25637 h 12.32071 v 0.25637 h 0.25668 v 0.25637 0.25637 z m -19.76448,0 h -12.32071 -0.25668 v -0.25637 h -0.25669 v -0.25637 -0.25637 h 0.25669 v 0 l 0.25668,-0.25637 h 12.32071 l 0.25668,0.25637 v 0 0 l 0.25668,0.25637 -0.25668,0.25637 v 0 0.25637 z m -19.76448,0 h -12.32071 v 0 l -0.25668,-0.25637 v 0 -0.25637 -0.25637 0 h 0.25668 v -0.25637 h 12.32071 l 0.25668,0.25637 v 0 h 0.25669 v 0.25637 0.25637 h -0.25669 v 0.25637 z m -19.76447,0 h -12.32072 v 0 l -0.25668,-0.25637 v -0.25637 -0.25637 h 0.25668 v -0.25637 h 12.32072 l 0.25668,0.25637 v 0 h 0.25668 v 0.25637 0.25637 h -0.25668 v 0.25637 z m -19.5078,0 h -12.32072 -0.25668 l -0.25668,-0.25637 v 0 -0.25637 -0.25637 0 h 0.25668 l 0.25668,-0.25637 h 12.32072 v 0.25637 h 0.25668 v 0 0.25637 0.25637 0 z m -19.76448,0 h -12.32071 -0.25668 v -0.25637 h -0.25669 v -0.25637 -0.25637 h 0.25669 v 0 l 0.25668,-0.25637 h 12.32071 v 0.25637 h 0.25668 v 0.25637 0.25637 z m -19.76448,0 h -12.32071 -0.25668 v -0.25637 h -0.25668 v -0.25637 -0.25637 h 0.25668 v 0 l 0.25668,-0.25637 h 12.32071 l 0.25668,0.25637 v 0 0 l 0.25669,0.25637 -0.25669,0.25637 v 0 0.25637 z m -19.76448,0 h -12.32071 v 0 l -0.25668,-0.25637 v 0 -0.25637 -0.25637 0 h 0.25668 v -0.25637 h 12.32071 l 0.25669,0.25637 v 0 h 0.25668 v 0.25637 0.25637 h -0.25668 v 0.25637 z m -19.76447,0 h -12.32072 v 0 l -0.25668,-0.25637 v -0.25637 -0.25637 h 0.25668 v -0.25637 h 12.32072 l 0.25668,0.25637 v 0 h 0.25668 v 0.25637 0.25637 h -0.25668 v 0.25637 z m -19.5078,0 h -12.32071 -0.25669 l -0.25668,-0.25637 v 0 -0.25637 -0.25637 0 h 0.25668 l 0.25669,-0.25637 h 12.32071 v 0.25637 h 0.25668 v 0 0.25637 0.25637 0 z m -19.76448,0 h -12.32071 -0.25668 v -0.25637 h -0.25669 v -0.25637 -0.25637 h 0.25669 v 0 l 0.25668,-0.25637 h 12.32071 v 0.25637 h 0.25668 v 0.25637 0.25637 z m -19.76448,0 h -12.32071 -0.25668 v -0.25637 h -0.25668 v -0.25637 -0.25637 h 0.25668 v 0 l 0.25668,-0.25637 h 12.32071 l 0.25668,0.25637 v 0 0 l 0.25669,0.25637 -0.25669,0.25637 v 0 0.25637 z m -19.76448,0 h -12.32071 v 0 l -0.25668,-0.25637 v 0 -0.25637 -0.25637 0 h 0.25668 v -0.25637 h 12.32071 l 0.25669,0.25637 v 0 h 0.25668 v 0.25637 0.25637 h -0.25668 v 0.25637 z m -19.76447,0 h -12.32072 v 0 l -0.25668,-0.25637 v -0.25637 -0.25637 h 0.25668 v -0.25637 h 12.32072 l 0.25668,0.25637 v 0 h 0.25668 v 0.25637 0.25637 h -0.25668 v 0.25637 z m -19.5078,0 h -12.32071 -0.25668 l -0.25669,-0.25637 v 0 -0.25637 -0.25637 0 h 0.25669 l 0.25668,-0.25637 h 12.32071 v 0.25637 h 0.25668 v 0 0.25637 0.25637 0 z m -19.76448,0 h -12.32071 -0.25668 v -0.25637 h -0.25668 v -0.25637 -0.25637 h 0.25668 v 0 l 0.25668,-0.25637 h 12.32071 v 0.25637 h 0.25668 v 0.25637 0.25637 z m -19.76448,0 h -12.32071 -0.25668 v -0.25637 h -0.25668 v -0.25637 -0.25637 h 0.25668 v 0 l 0.25668,-0.25637 h 12.32071 l 0.25669,0.25637 v 0 0 l 0.25668,0.25637 -0.25668,0.25637 v 0 0.25637 z m -19.76447,0 h -2.31014 -0.25668 v -0.25637 l -0.25668,-0.25637 0.25668,-0.25637 v 0 l 0.25668,-0.25637 h 2.31014 l 0.25668,0.25637 v 0 h 0.25668 v 0.25637 0.25637 h -0.25668 v 0.25637 z"
       id="path1593" />
    <path
       transform="matrix(0.26458333,0,0,0.26458333,254.62742,114.30449)"
       style="fill:none;stroke:#000000;stroke-width:0.770045px;stroke-linecap:round;stroke-linejoin:round;stroke-miterlimit:4;stroke-dasharray:none;stroke-opacity:1"
       clip-path="url(#clipEmfPath1-82)"
       d="m 258.99167,298.15823 -14.37417,14.35672 14.37417,14.35671"
       id="path1595" />
    <g
       transform="matrix(0.26458333,0,0,0.26458333,254.62742,114.30449)"
       clip-path="url(#clipEmfPath1-82)"
       id="g1603">
      <text
         xml:space="preserve"
         style="font-style:normal;font-variant:normal;font-weight:400;font-size:27.4375px;line-height:125%;font-family:Helvetica;text-align:start;letter-spacing:0px;word-spacing:0px;text-anchor:start;fill:#000000;fill-opacity:1;stroke:none"
         transform="translate(445.85582,307.13118)"
         x="0"
         y="0"
         id="text1601"><tspan
           sodipodi:role="line"
           x="0"
           y="0"
           id="tspan1599"><tspan
             dx="0"
             dy="0"
             style="font-style:normal;font-variant:normal;font-weight:400;font-size:27.4375px;font-family:Helvetica;fill:#000000"
             id="tspan1597">aDate</tspan></tspan></text>
    </g>
  </g>
</svg>
