<?xml version="1.0" encoding="UTF-8" standalone="no"?>
<svg
   xmlns:dc="http://purl.org/dc/elements/1.1/"
   xmlns:cc="http://creativecommons.org/ns#"
   xmlns:rdf="http://www.w3.org/1999/02/22-rdf-syntax-ns#"
   xmlns:svg="http://www.w3.org/2000/svg"
   xmlns="http://www.w3.org/2000/svg"
   xmlns:sodipodi="http://sodipodi.sourceforge.net/DTD/sodipodi-0.dtd"
   xmlns:inkscape="http://www.inkscape.org/namespaces/inkscape"
   sodipodi:docname="Fig.A15.11.svg"
   inkscape:version="1.0 (4035a4fb49, 2020-05-01)"
   id="svg8"
   version="1.1"
   viewBox="0 0 226.51815 81.920564"
   height="81.920563mm"
   width="226.51816mm">
  <defs
     id="defs2">
    <clipPath
       clipPathUnits="userSpaceOnUse"
       id="clipEmfPath1">
      <path
         d="M 0,0 H 863.47668 V 389.36402 H 0 Z"
         id="path833" />
    </clipPath>
    <pattern
       id="EMFhbasepattern"
       patternUnits="userSpaceOnUse"
       width="6"
       height="6"
       x="0"
       y="0" />
    <clipPath
       clipPathUnits="userSpaceOnUse"
       id="clipEmfPath1-6">
      <path
         d="M 0,0 H 863.47668 V 346.35009 H 0 Z"
         id="path974" />
    </clipPath>
    <pattern
       id="EMFhbasepattern-7"
       patternUnits="userSpaceOnUse"
       width="6"
       height="6"
       x="0"
       y="0" />
    <clipPath
       clipPathUnits="userSpaceOnUse"
       id="clipEmfPath1-8">
      <path
         d="M 0,0 H 863.47668 V 552.14537 H 0 Z"
         id="path1103" />
    </clipPath>
    <pattern
       id="EMFhbasepattern-8"
       patternUnits="userSpaceOnUse"
       width="6"
       height="6"
       x="0"
       y="0" />
    <clipPath
       clipPathUnits="userSpaceOnUse"
       id="clipEmfPath1-82">
      <path
         d="M 0,0 H 863.47668 V 374.81284 H 0 Z"
         id="path1499" />
    </clipPath>
    <pattern
       id="EMFhbasepattern-9"
       patternUnits="userSpaceOnUse"
       width="6"
       height="6"
       x="0"
       y="0" />
    <clipPath
       clipPathUnits="userSpaceOnUse"
       id="clipEmfPath1-64">
      <path
         d="M 0,0 H 743.54936 V 531.99758 H 0 Z"
         id="path1664" />
    </clipPath>
    <pattern
       id="EMFhbasepattern-85"
       patternUnits="userSpaceOnUse"
       width="6"
       height="6"
       x="0"
       y="0" />
    <clipPath
       clipPathUnits="userSpaceOnUse"
       id="clipEmfPath1-1">
      <path
         d="M 0,0 H 863.47668 V 317.88734 H 0 Z"
         id="path1754" />
    </clipPath>
    <pattern
       id="EMFhbasepattern-89"
       patternUnits="userSpaceOnUse"
       width="6"
       height="6"
       x="0"
       y="0" />
  </defs>
  <sodipodi:namedview
     inkscape:window-maximized="1"
     inkscape:window-y="-8"
     inkscape:window-x="1272"
     inkscape:window-height="1017"
     inkscape:window-width="1920"
     fit-margin-bottom="0.1"
     fit-margin-right="0"
     fit-margin-left="0"
     fit-margin-top="0"
     showgrid="false"
     inkscape:document-rotation="0"
     inkscape:current-layer="layer1"
     inkscape:document-units="mm"
     inkscape:cy="119.56082"
     inkscape:cx="51.017148"
     inkscape:zoom="0.98994949"
     inkscape:pageshadow="2"
     inkscape:pageopacity="0.0"
     borderopacity="1.0"
     bordercolor="#666666"
     pagecolor="#ffffff"
     id="base" />
  <metadata
     id="metadata5">
    <rdf:RDF>
      <cc:Work
         rdf:about="">
        <dc:format>image/svg+xml</dc:format>
        <dc:type
           rdf:resource="http://purl.org/dc/dcmitype/StillImage" />
        <dc:title></dc:title>
      </cc:Work>
    </rdf:RDF>
  </metadata>
  <g
     transform="translate(-306.76852,-142.4628)"
     id="layer1"
     inkscape:groupmode="layer"
     inkscape:label="Layer 1">
    <path
       transform="matrix(0.26458333,0,0,0.26458333,305.82541,141.51935)"
       style="fill:#ffffff;fill-opacity:1;fill-rule:evenodd;stroke:none"
       clip-path="url(#clipEmfPath1-1)"
       d="M 3.8885615,3.8898519 V 52.945206 H 133.50728 V 3.8898519 Z"
       id="path1760" />
    <path
       transform="matrix(0.26458333,0,0,0.26458333,305.82541,141.51935)"
       style="fill:none;stroke:#000000;stroke-width:0.648094px;stroke-linecap:round;stroke-linejoin:round;stroke-miterlimit:4;stroke-dasharray:none;stroke-opacity:1"
       clip-path="url(#clipEmfPath1-1)"
       d="M 3.8885615,52.945206 H 133.50728 V 3.8898519 H 3.8885615 Z"
       id="path1762" />
    <g
       transform="matrix(0.26458333,0,0,0.26458333,305.82541,141.51935)"
       clip-path="url(#clipEmfPath1-1)"
       id="g1772">
      <text
         xml:space="preserve"
         style="font-style:normal;font-variant:normal;font-weight:400;font-size:23.125px;line-height:125%;font-family:Helvetica;text-align:start;letter-spacing:0px;word-spacing:0px;text-anchor:start;fill:#000000;fill-opacity:1;stroke:none"
         transform="translate(39.317677,35.440873)"
         x="0"
         y="0"
         id="text1770"><tspan
           sodipodi:role="line"
           x="0"
           y="0"
           id="tspan1768"><tspan
             dx="0"
             dy="0"
             style="font-style:normal;font-variant:normal;font-weight:400;font-size:23.125px;font-family:Helvetica;fill:#000000"
             id="tspan1764">: </tspan><tspan
             dx="0"
             dy="0"
             style="font-style:normal;font-variant:normal;font-weight:400;font-size:23.125px;font-family:Helvetica;fill:#000000"
             id="tspan1766">Sale</tspan></tspan></text>
    </g>
    <path
       transform="matrix(0.26458333,0,0,0.26458333,305.82541,141.51935)"
       style="fill:#ffffff;fill-opacity:1;fill-rule:evenodd;stroke:none"
       clip-path="url(#clipEmfPath1-1)"
       d="M 382.59124,54.890132 V 119.721 H 524.30771 V 54.890132 Z"
       id="path1774" />
    <path
       transform="matrix(0.26458333,0,0,0.26458333,305.82541,141.51935)"
       style="fill:none;stroke:#000000;stroke-width:0.648094px;stroke-linecap:round;stroke-linejoin:round;stroke-miterlimit:4;stroke-dasharray:none;stroke-opacity:1"
       clip-path="url(#clipEmfPath1-1)"
       d="M 382.59124,119.721 H 524.30771 V 54.890132 H 382.59124 Z"
       id="path1776" />
    <g
       transform="matrix(0.26458333,0,0,0.26458333,305.82541,141.51935)"
       clip-path="url(#clipEmfPath1-1)"
       id="g1786">
      <text
         xml:space="preserve"
         style="font-style:normal;font-variant:normal;font-weight:400;font-size:23.125px;line-height:125%;font-family:Helvetica;text-align:start;letter-spacing:0px;word-spacing:0px;text-anchor:start;fill:#000000;fill-opacity:1;stroke:none"
         transform="translate(401.60199,94.220857)"
         x="0"
         y="0"
         id="text1784"><tspan
           sodipodi:role="line"
           x="0"
           y="0"
           id="tspan1782"><tspan
             dx="0"
             dy="0"
             style="font-style:normal;font-variant:normal;font-weight:400;font-size:23.125px;font-family:Helvetica;fill:#000000"
             id="tspan1778">: </tspan><tspan
             dx="0"
             dy="0"
             style="font-style:normal;font-variant:normal;font-weight:400;font-size:23.125px;font-family:Helvetica;fill:#000000"
             id="tspan1780">Payment</tspan></tspan></text>
    </g>
    <path
       transform="matrix(0.26458333,0,0,0.26458333,305.82541,141.51935)"
       style="fill:#000000;fill-opacity:1;fill-rule:nonzero;stroke:#000000;stroke-width:0.216031px;stroke-linecap:round;stroke-linejoin:round;stroke-miterlimit:4;stroke-dasharray:none;stroke-opacity:1"
       clip-path="url(#clipEmfPath1-1)"
       d="m 453.88154,119.721 v 10.37294 l -0.21603,0.2161 v 0 h -0.21603 -0.21604 v 0 -0.2161 -10.37294 -0.21611 -0.2161 h 0.21604 0.21603 v 0.2161 z m 0,16.42382 v 10.37293 l -0.21603,0.43221 v 0 h -0.21603 -0.21604 v 0 -0.43221 -10.37293 -0.21611 0 h 0.21604 0.21603 v 0 z m 0,16.63992 v 10.37294 l -0.21603,0.2161 -0.21603,0.2161 -0.21604,-0.2161 v -0.2161 -10.37294 -0.2161 0 h 0.21604 0.21603 v 0 z m 0,16.63992 v 10.37294 l -0.21603,0.2161 v 0.2161 h -0.21603 -0.21604 v -0.2161 -0.2161 -10.37294 -0.2161 0 l 0.21604,-0.21611 0.21603,0.21611 v 0 z m 0,16.63992 v 10.37294 l -0.21603,0.2161 h -0.21603 -0.21604 v -0.2161 -10.37294 -0.2161 l 0.21604,-0.2161 0.21603,0.2161 z m 0,16.63992 v 10.37294 l -0.21603,0.21611 v 0 h -0.21603 -0.21604 v 0 -0.21611 -10.37294 -0.2161 -0.2161 h 0.21604 0.21603 v 0.2161 z m 0,16.42382 v 4.32206 l -0.21603,0.2161 v 0 h -0.21603 -0.21604 v 0 -0.2161 -4.32206 -0.2161 0 h 0.21604 0.21603 v 0 z"
       id="path1788" />
    <path
       transform="matrix(0.26458333,0,0,0.26458333,305.82541,141.51935)"
       style="fill:#000000;fill-opacity:1;fill-rule:nonzero;stroke:#000000;stroke-width:0.216031px;stroke-linecap:round;stroke-linejoin:round;stroke-miterlimit:4;stroke-dasharray:none;stroke-opacity:1"
       clip-path="url(#clipEmfPath1-1)"
       d="m 71.506325,86.873359 h 10.369497 0.216032 v 0 l 0.216031,0.432206 -0.216031,0.216103 v 0 H 81.875822 71.506325 71.290294 v 0 l -0.216031,-0.216103 0.216031,-0.432206 v 0 z m 16.634402,0 h 10.369497 v 0 h 0.216031 v 0.216103 0.216103 0 0.216103 h -0.216031 v 0 H 88.140727 87.924696 v 0 l -0.216031,-0.216103 v 0 -0.216103 l 0.216031,-0.216103 v 0 z m 16.634403,0 h 10.3695 v 0 h 0.21603 v 0.216103 0.216103 0 0.216103 h -0.21603 v 0 h -10.3695 -0.21603 v 0 l -0.21603,-0.216103 v 0 -0.216103 l 0.21603,-0.216103 v 0 z m 16.41837,0 h 10.3695 0.21603 0.21603 v 0.432206 0.216103 h -0.21603 -0.21603 -10.3695 v 0 h -0.21603 v -0.216103 0 -0.216103 -0.216103 z m 16.6344,0 h 10.3695 0.21603 v 0 l 0.21603,0.216103 v 0.216103 0 l -0.21603,0.216103 v 0 h -0.21603 -10.3695 v 0 h -0.21603 v -0.216103 0 -0.216103 -0.216103 z m 16.6344,0 h 10.3695 0.21603 v 0 l 0.21603,0.432206 -0.21603,0.216103 v 0 h -0.21603 -10.3695 -0.21603 v 0 l -0.21603,-0.216103 0.21603,-0.432206 v 0 z m 16.63441,0 h 10.36949 v 0 h 0.21603 v 0.216103 0.216103 0 0.216103 h -0.21603 v 0 h -10.36949 -0.21604 v 0 l -0.21603,-0.216103 v 0 -0.216103 l 0.21603,-0.216103 v 0 z m 16.6344,0 h 10.36949 v 0 h 0.21604 v 0.216103 0.216103 0 0.216103 h -0.21604 v 0 h -10.36949 -0.21603 v 0 l -0.21604,-0.216103 v 0 -0.216103 l 0.21604,-0.216103 v 0 z m 16.41837,0 h 10.3695 0.21603 0.21603 v 0.432206 0.216103 h -0.21603 -0.21603 -10.3695 v 0 h -0.21603 v -0.216103 0 -0.216103 -0.216103 z m 16.6344,0 h 10.3695 0.21603 v 0 l 0.21603,0.216103 v 0.216103 0 l -0.21603,0.216103 v 0 h -0.21603 -10.3695 v 0 h -0.21603 v -0.216103 0 -0.216103 -0.216103 z m 16.6344,0 h 10.3695 0.21603 v 0 l 0.21603,0.432206 -0.21603,0.216103 v 0 h -0.21603 -10.3695 -0.21603 v 0 l -0.21603,-0.216103 0.21603,-0.432206 v 0 z m 16.6344,0 h 10.3695 v 0 h 0.21603 v 0.216103 0.216103 0 0.216103 h -0.21603 v 0 h -10.3695 -0.21603 v 0 l -0.21603,-0.216103 v 0 -0.216103 l 0.21603,-0.216103 v 0 z m 16.63441,0 h 10.36949 v 0 h 0.21603 v 0.216103 0.216103 0 0.216103 h -0.21603 v 0 h -10.36949 -0.21604 v 0 l -0.21603,-0.216103 v 0 -0.216103 l 0.21603,-0.216103 v 0 z m 16.41837,0 h 10.36949 0.21603 0.21604 v 0.432206 0.216103 h -0.21604 -0.21603 -10.36949 v 0 h -0.21603 v -0.216103 0 -0.216103 -0.216103 z m 16.6344,0 h 10.3695 0.21603 v 0 l 0.21603,0.216103 v 0.216103 0 l -0.21603,0.216103 v 0 h -0.21603 -10.3695 v 0 h -0.21603 v -0.216103 0 -0.216103 -0.216103 z m 16.6344,0 h 10.3695 0.21603 v 0 l 0.21603,0.432206 -0.21603,0.216103 v 0 h -0.21603 -10.3695 -0.21603 v 0 l -0.21603,-0.216103 0.21603,-0.432206 v 0 z m 16.6344,0 h 10.3695 v 0 h 0.21603 v 0.216103 0.216103 0 0.216103 h -0.21603 v 0 h -10.3695 -0.21603 v 0 l -0.21603,-0.216103 v 0 -0.216103 l 0.21603,-0.216103 v 0 z m 16.6344,0 h 10.3695 v 0 h 0.21603 v 0.216103 0.216103 0 0.216103 h -0.21603 v 0 h -10.3695 -0.21603 v 0 L 353.211,87.305565 v 0 -0.216103 l 0.21603,-0.216103 v 0 z"
       id="path1790" />
    <path
       transform="matrix(0.26458333,0,0,0.26458333,305.82541,141.51935)"
       style="fill:#000000;fill-opacity:1;fill-rule:evenodd;stroke:none"
       clip-path="url(#clipEmfPath1-1)"
       d="m 366.60494,79.309758 15.9863,7.995807 -15.9863,7.779704 z"
       id="path1792" />
    <g
       transform="matrix(0.26458333,0,0,0.26458333,305.82541,141.51935)"
       clip-path="url(#clipEmfPath1-1)"
       id="g1806">
      <text
         xml:space="preserve"
         style="font-style:normal;font-variant:normal;font-weight:400;font-size:23.125px;line-height:125%;font-family:Helvetica;text-align:start;letter-spacing:0px;word-spacing:0px;text-anchor:start;fill:#000000;fill-opacity:1;stroke:none"
         transform="translate(113.63241,82.551301)"
         x="0"
         y="0"
         id="text1804"><tspan
           sodipodi:role="line"
           x="0"
           y="0"
           id="tspan1802"><tspan
             dx="0"
             dy="0"
             style="font-style:normal;font-variant:normal;font-weight:400;font-size:23.125px;font-family:Helvetica;fill:#000000"
             id="tspan1794">create</tspan><tspan
             dx="0"
             dy="0"
             style="font-style:normal;font-variant:normal;font-weight:400;font-size:23.125px;font-family:Helvetica;fill:#000000"
             id="tspan1796">(</tspan><tspan
             dx="0"
             dy="0"
             style="font-style:normal;font-variant:normal;font-weight:400;font-size:23.125px;font-family:Helvetica;fill:#000000"
             id="tspan1798">cashTendered</tspan><tspan
             dx="2.0567851"
             dy="0"
             style="font-style:normal;font-variant:normal;font-weight:400;font-size:23.125px;font-family:Helvetica;fill:#000000"
             id="tspan1800">)</tspan></tspan></text>
    </g>
    <path
       transform="matrix(0.26458333,0,0,0.26458333,305.82541,141.51935)"
       style="fill:#000000;fill-opacity:1;fill-rule:nonzero;stroke:#000000;stroke-width:0.216031px;stroke-linecap:round;stroke-linejoin:round;stroke-miterlimit:4;stroke-dasharray:none;stroke-opacity:1"
       clip-path="url(#clipEmfPath1-1)"
       d="m 72.37045,52.945206 v 10.372939 l -0.216031,0.432206 h -0.216032 -0.216031 v -0.432206 -10.372939 0 -0.216103 h 0.216031 v 0 h 0.216032 v 0 z m 0,16.639922 v 10.372939 0.216103 0 l -0.216031,0.216103 h -0.216032 v 0 L 71.722356,80.17417 v 0 -0.216103 -10.372939 0 -0.216103 h 0.216031 v 0 h 0.216032 v 0 z m 0,16.639922 v 10.372939 0.216103 l -0.432063,0.216103 -0.216031,-0.216103 v -0.216103 -10.372939 -0.216103 0 l 0.216031,-0.216102 0.432063,0.216102 z m 0,16.63992 v 10.37294 0 0.2161 h -0.216031 v 0 h -0.216032 -0.216031 v -0.2161 0 -10.37294 -0.2161 0 l 0.216031,-0.2161 v 0 h 0.216032 l 0.216031,0.2161 v 0 z m 0,16.63992 v 10.37294 0.21611 h -0.216031 v 0 h -0.216032 -0.216031 v -0.21611 0 -10.37294 -0.2161 l 0.216031,-0.2161 h 0.216032 v 0 l 0.216031,0.2161 v 0 z m 0,16.42382 v 10.37294 0.2161 0.21611 h -0.216031 -0.216032 l -0.216031,-0.21611 v -0.2161 -10.37294 0 -0.2161 h 0.216031 0.216032 v 0 h 0.216031 z m 0,16.63993 v 10.37293 0.21611 0 l -0.216031,0.2161 v 0 h -0.216032 v -0.2161 l -0.216031,-0.21611 v -10.37293 l 0.216031,-0.21611 v 0 h 0.216032 v 0 h 0.216031 z m 0,16.63992 v 10.37294 0.2161 0 l -0.216031,0.2161 -0.216032,-0.2161 -0.216031,-0.2161 v -10.37294 -0.21611 h 0.216031 l 0.216032,-0.2161 0.216031,0.2161 v 0 z m 0,16.63992 v 10.37294 0 0.2161 h -0.216031 v 0 h -0.216032 v 0 l -0.216031,-0.2161 v 0 -10.37294 l 0.216031,-0.2161 v -0.21611 h 0.216032 v 0 l 0.216031,0.21611 z m 0,16.63992 0.216031,10.37294 -0.216031,0.2161 v 0 h -0.216031 -0.216032 v 0 l -0.216031,-0.2161 v -10.37294 -0.2161 h 0.216031 v -0.2161 h 0.216032 0.216031 v 0.2161 0 z m 0.216031,16.42382 v 10.37294 l -0.216031,0.2161 v 0.2161 h -0.216031 -0.216032 v -0.2161 l -0.216031,-0.2161 v -10.37294 0 l 0.216031,-0.2161 v 0 h 0.216032 0.216031 v 0 z m 0,16.63992 v 10.37294 l -0.216031,0.2161 v 0.21611 h -0.216031 -0.216032 v -0.21611 0 l -0.216031,-0.2161 v -10.37294 h 0.216031 v -0.2161 0 h 0.216032 0.216031 v 0 z m 0,16.63992 v 10.37294 0.21611 H 72.37045 l -0.216031,0.2161 -0.216032,-0.2161 v 0 -0.21611 -10.37294 -0.2161 0 l 0.216032,-0.2161 0.216031,0.2161 h 0.216031 z m 0,16.63993 v 10.37293 0 l -0.216031,0.21611 v 0 h -0.216031 v 0 h -0.216032 v -0.21611 0 -10.37293 -0.21611 l 0.216032,-0.2161 v 0 h 0.216031 v 0.2161 h 0.216031 z m 0,16.63992 v 10.37294 0 l -0.216031,0.2161 v 0 h -0.216031 v 0 h -0.216032 v -0.2161 0 -10.37294 -0.2161 0 l 0.216032,-0.21611 v 0 h 0.216031 v 0.21611 h 0.216031 z m 0,16.42382 v 10.37294 0.2161 l -0.216031,0.2161 h -0.216031 -0.216032 v -0.2161 -0.2161 -10.37294 -0.21611 h 0.216032 v 0 h 0.216031 v 0 z"
       id="path1808" />
    <path
       transform="matrix(0.26458333,0,0,0.26458333,305.82541,141.51935)"
       style="fill:none;stroke:#000000;stroke-width:0.648094px;stroke-linecap:round;stroke-linejoin:round;stroke-miterlimit:4;stroke-dasharray:none;stroke-opacity:1"
       clip-path="url(#clipEmfPath1-1)"
       d="M 88.140727,156.67459 H 275.22374"
       id="path1810" />
    <path
       transform="matrix(0.26458333,0,0,0.26458333,305.82541,141.51935)"
       style="fill:#000000;fill-opacity:1;fill-rule:evenodd;stroke:none"
       clip-path="url(#clipEmfPath1-1)"
       d="m 273.27946,148.89489 15.77028,7.7797 -15.77028,7.99581 z"
       id="path1812" />
    <g
       transform="matrix(0.26458333,0,0,0.26458333,305.82541,141.51935)"
       clip-path="url(#clipEmfPath1-1)"
       id="g1820">
      <text
         xml:space="preserve"
         style="font-style:normal;font-variant:normal;font-weight:400;font-size:23.125px;line-height:125%;font-family:Helvetica;text-align:start;letter-spacing:0px;word-spacing:0px;text-anchor:start;fill:#000000;fill-opacity:1;stroke:none"
         transform="translate(179.08986,152.13643)"
         x="0"
         y="0"
         id="text1818"><tspan
           sodipodi:role="line"
           x="0"
           y="0"
           id="tspan1816"><tspan
             dx="0"
             dy="0"
             style="font-style:normal;font-variant:normal;font-weight:400;font-size:23.125px;font-family:Helvetica;fill:#000000"
             id="tspan1814">...</tspan></tspan></text>
    </g>
    <path
       transform="matrix(0.26458333,0,0,0.26458333,305.82541,141.51935)"
       style="fill:#ffffff;fill-opacity:1;fill-rule:evenodd;stroke:none"
       clip-path="url(#clipEmfPath1-1)"
       d="M 560.38492,69.369025 V 286.55242 H 859.37209 V 69.369025 Z"
       id="path1822" />
    <path
       transform="matrix(0.26458333,0,0,0.26458333,305.82541,141.51935)"
       style="fill:none;stroke:#000000;stroke-width:0.648094px;stroke-linecap:round;stroke-linejoin:round;stroke-miterlimit:4;stroke-dasharray:none;stroke-opacity:1"
       clip-path="url(#clipEmfPath1-1)"
       d="M 560.38492,286.55242 H 859.37209 V 69.369025 H 560.38492 Z"
       id="path1824" />
    <g
       transform="matrix(0.26458333,0,0,0.26458333,305.82541,141.51935)"
       clip-path="url(#clipEmfPath1-1)"
       id="g1852">
      <text
         xml:space="preserve"
         style="font-style:normal;font-variant:normal;font-weight:400;font-size:23.125px;line-height:119.616%;font-family:Helvetica;text-align:start;letter-spacing:0px;word-spacing:0px;text-anchor:start;fill:#000000;fill-opacity:1;stroke:none"
         transform="translate(572.0506,129.44563)"
         x="0"
         y="0"
         id="text1850"><tspan
           sodipodi:role="line"
           x="0"
           y="0"
           id="tspan1828"><tspan
             dx="0"
             dy="0"
             style="font-style:normal;font-variant:normal;font-weight:400;font-size:23.125px;font-family:Helvetica;fill:#000000"
             id="tspan1826">the «destroy» stereotyped </tspan></tspan><tspan
           sodipodi:role="line"
           x="0"
           y="27.6612"
           id="tspan1836"><tspan
             dx="0"
             dy="0"
             style="font-style:normal;font-variant:normal;font-weight:400;font-size:23.125px;font-family:Helvetica;fill:#000000"
             id="tspan1830">message</tspan><tspan
             dx="-0.50692201"
             dy="0"
             style="font-style:normal;font-variant:normal;font-weight:400;font-size:23.125px;font-family:Helvetica;fill:#000000"
             id="tspan1832">, </tspan><tspan
             dx="0"
             dy="0"
             style="font-style:normal;font-variant:normal;font-weight:400;font-size:23.125px;font-family:Helvetica;fill:#000000"
             id="tspan1834">with the large </tspan></tspan><tspan
           sodipodi:role="line"
           x="0"
           y="55.322399"
           id="tspan1840"><tspan
             dx="0"
             dy="0"
             style="font-style:normal;font-variant:normal;font-weight:400;font-size:23.125px;font-family:Helvetica;fill:#000000"
             id="tspan1838">X and short lifeline </tspan></tspan><tspan
           sodipodi:role="line"
           x="0"
           y="82.983597"
           id="tspan1844"><tspan
             dx="0"
             dy="0"
             style="font-style:normal;font-variant:normal;font-weight:400;font-size:23.125px;font-family:Helvetica;fill:#000000"
             id="tspan1842">indicates explicit object </tspan></tspan><tspan
           sodipodi:role="line"
           x="0"
           y="110.6448"
           id="tspan1848"><tspan
             dx="0"
             dy="0"
             style="font-style:normal;font-variant:normal;font-weight:400;font-size:23.125px;font-family:Helvetica;fill:#000000"
             id="tspan1846">destruction</tspan></tspan></text>
    </g>
    <path
       transform="matrix(0.26458333,0,0,0.26458333,305.82541,141.51935)"
       style="fill:#ffffff;fill-opacity:1;fill-rule:evenodd;stroke:none"
       clip-path="url(#clipEmfPath1-1)"
       d="m 830.42391,69.369025 28.94818,28.957787 V 69.369025 Z"
       id="path1854" />
    <path
       transform="matrix(0.26458333,0,0,0.26458333,305.82541,141.51935)"
       style="fill:none;stroke:#ffffff;stroke-width:0.648094px;stroke-linecap:round;stroke-linejoin:round;stroke-miterlimit:4;stroke-dasharray:none;stroke-opacity:1"
       clip-path="url(#clipEmfPath1-1)"
       d="m 830.42391,69.369025 28.94818,28.957787 V 69.369025 Z"
       id="path1856" />
    <path
       transform="matrix(0.26458333,0,0,0.26458333,305.82541,141.51935)"
       style="fill:#000000;fill-opacity:1;fill-rule:evenodd;stroke:none"
       clip-path="url(#clipEmfPath1-1)"
       d="M 859.37209,98.326812 830.42391,69.369025 v 28.957787 z"
       id="path1858" />
    <path
       transform="matrix(0.26458333,0,0,0.26458333,305.82541,141.51935)"
       style="fill:none;stroke:#000000;stroke-width:0.648094px;stroke-linecap:round;stroke-linejoin:round;stroke-miterlimit:4;stroke-dasharray:none;stroke-opacity:1"
       clip-path="url(#clipEmfPath1-1)"
       d="M 859.37209,98.326812 830.42391,69.369025 v 28.957787 z"
       id="path1860" />
    <path
       transform="matrix(0.26458333,0,0,0.26458333,305.82541,141.51935)"
       style="fill:none;stroke:#000000;stroke-width:0.648094px;stroke-linecap:round;stroke-linejoin:round;stroke-miterlimit:4;stroke-dasharray:none;stroke-opacity:1"
       clip-path="url(#clipEmfPath1-1)"
       d="M 81.659791,218.26391 H 434.00667"
       id="path1862" />
    <path
       transform="matrix(0.26458333,0,0,0.26458333,305.82541,141.51935)"
       style="fill:#000000;fill-opacity:1;fill-rule:evenodd;stroke:none"
       clip-path="url(#clipEmfPath1-1)"
       d="m 432.06239,210.48421 15.77027,7.9958 -15.77027,7.77971 z"
       id="path1864" />
    <g
       transform="matrix(0.26458333,0,0,0.26458333,305.82541,141.51935)"
       clip-path="url(#clipEmfPath1-1)"
       id="g1878">
      <text
         xml:space="preserve"
         style="font-style:normal;font-variant:normal;font-weight:400;font-size:23.125px;line-height:125%;font-family:Helvetica;text-align:start;letter-spacing:0px;word-spacing:0px;text-anchor:start;fill:#000000;fill-opacity:1;stroke:none"
         transform="translate(214.08691,213.72575)"
         x="0"
         y="0"
         id="text1870"><tspan
           sodipodi:role="line"
           x="0"
           y="0"
           id="tspan1868"><tspan
             dx="0"
             dy="0"
             style="font-style:normal;font-variant:normal;font-weight:400;font-size:23.125px;font-family:Helvetica;fill:#000000"
             id="tspan1866">«destroy»</tspan></tspan></text>
      <text
         xml:space="preserve"
         style="font-style:normal;font-variant:normal;font-weight:400;font-size:40.375px;line-height:125%;font-family:Helvetica;text-align:start;letter-spacing:0px;word-spacing:0px;text-anchor:start;fill:#000000;fill-opacity:1;stroke:none"
         transform="translate(214.08691,213.72575)"
         x="226.61671"
         y="19.881466"
         id="text1876"><tspan
           sodipodi:role="line"
           x="226.61671"
           y="19.881466"
           id="tspan1874"><tspan
             dx="0"
             dy="0"
             style="font-style:normal;font-variant:normal;font-weight:400;font-size:40.375px;font-family:Helvetica;fill:#000000"
             id="tspan1872">X</tspan></tspan></text>
    </g>
    <path
       transform="matrix(0.26458333,0,0,0.26458333,305.82541,141.51935)"
       style="fill:#000000;fill-opacity:1;fill-rule:nonzero;stroke:#000000;stroke-width:0.216031px;stroke-linecap:round;stroke-linejoin:round;stroke-miterlimit:4;stroke-dasharray:none;stroke-opacity:1"
       clip-path="url(#clipEmfPath1-1)"
       d="m 560.60095,178.28488 v 0 l -0.21603,-0.2161 h -0.21604 v 0 -0.43221 h 0.21604 v 0 -0.2161 l 0.21603,0.2161 v 0 h 0.21603 v 0.2161 0.21611 z m -3.24047,1.08051 v 0 l -0.21603,0.21611 v -0.21611 h -0.21603 v -0.4322 l 0.21603,-0.21611 v 0 h 0.21603 l 0.21603,0.21611 v 0 0.2161 0.2161 0 z m -3.24047,1.29662 v 0 h -0.21603 l -0.21603,-0.2161 v -0.21611 0 l 0.21603,-0.2161 v 0 h 0.21603 v 0 l 0.21603,0.2161 v 0.21611 0.2161 z m -3.24047,1.29662 v 0 0 h -0.21603 l -0.21603,-0.21611 v -0.2161 l 0.21603,-0.2161 v 0 h 0.21603 l 0.21603,0.2161 v 0.43221 z m -3.24046,1.29661 v 0 h -0.21604 l -0.21603,-0.2161 v 0 -0.2161 h 0.21603 v -0.2161 0 h 0.43207 v 0.2161 0.2161 0.2161 z m -3.02444,1.29662 v 0 h -0.43206 v -0.2161 h -0.21603 l 0.21603,-0.2161 v -0.21611 0 h 0.21603 0.21603 l 0.21603,0.21611 -0.21603,0.2161 z m -3.24047,1.29662 v 0 h -0.21603 -0.21603 v 0 -0.2161 0 -0.21611 l 0.21603,-0.2161 v 0 h 0.21603 v 0.2161 h 0.21603 v 0.21611 z m -3.24047,1.29662 v 0 h -0.21603 -0.21603 v -0.21611 -0.2161 l 0.21603,-0.2161 v 0 0 h 0.21603 v 0.2161 h 0.21603 v 0.2161 0 z m -3.24046,1.29661 v 0 h -0.21604 v 0 l -0.21603,-0.2161 v -0.2161 l 0.21603,-0.2161 v 0 h 0.21604 0.21603 v 0.2161 0.2161 0 z m -3.24047,1.29662 v 0 h -0.21603 l -0.21603,-0.2161 v -0.2161 -0.21611 h 0.21603 v 0 h 0.21603 v 0 l 0.21603,0.21611 v 0.2161 0 z m -3.24047,1.29662 v 0 0 h -0.21603 l -0.21603,-0.2161 v -0.21611 l 0.21603,-0.2161 v 0 h 0.21603 l 0.21603,0.2161 v 0.21611 0 z m -3.24047,1.29662 v 0 h -0.21603 l -0.21603,-0.21611 v -0.2161 0 l 0.21603,-0.2161 v 0 0 h 0.43206 v 0.2161 0.2161 0.21611 z m -3.02444,1.29661 v 0 h -0.43206 v -0.2161 l -0.21603,-0.2161 h 0.21603 v -0.21611 0 h 0.21603 0.21603 l 0.21604,0.21611 -0.21604,0.2161 z m -3.24046,1.29662 v 0 h -0.21603 -0.21604 v -0.2161 0 -0.21611 0 l 0.21604,-0.2161 v 0 h 0.21603 v 0 l 0.21603,0.2161 v 0.21611 h -0.21603 z m -3.24047,1.29662 v 0 h -0.21603 l -0.21603,-0.21611 v 0 -0.2161 l 0.21603,-0.2161 v 0 0 h 0.21603 v 0 l 0.21603,0.2161 v 0.2161 z m -3.24047,1.29662 v 0 h -0.21603 v 0 l -0.21603,-0.21611 v -0.2161 l 0.21603,-0.2161 v 0 h 0.21603 0.21603 v 0.2161 0 0.2161 z m -3.24047,1.29661 v 0 h -0.21603 l -0.21603,-0.2161 v -0.43221 0 h 0.21603 v 0 h 0.21603 v 0 l 0.21603,0.21611 v 0 0.2161 z m -3.24046,1.29662 v 0 0 h -0.21604 l -0.21603,-0.2161 v -0.43221 h 0.21603 v 0 h 0.21604 l 0.21603,0.2161 v 0 0.21611 z m -3.24047,1.29662 v 0 l -0.21603,-0.21611 h -0.21603 v -0.2161 -0.2161 h 0.21603 v 0 0 h 0.43206 v 0.2161 0.2161 0 z m -3.02444,1.29661 v 0 l -0.43206,-0.2161 v 0 l -0.21603,-0.2161 0.21603,-0.2161 v 0 0 l 0.21603,-0.21611 0.21603,0.21611 h 0.21603 l -0.21603,0.4322 z m -3.24047,1.08052 v 0 l -0.21603,0.2161 -0.21603,-0.2161 v 0 0 -0.2161 -0.21611 l 0.21603,-0.2161 v 0 h 0.21603 v 0.2161 h 0.21603 v 0.43221 z m -3.24047,1.29662 v 0 h -0.21603 -0.21603 v -0.21611 -0.2161 0 l 0.21603,-0.2161 v 0 0 h 0.21603 v 0.2161 h 0.21604 v 0.2161 0.21611 z m -3.24046,1.29661 v 0 h -0.21603 v 0 l -0.21604,-0.2161 v -0.2161 l 0.21604,-0.21611 v 0 h 0.21603 l 0.21603,0.21611 v 0 0.2161 0.2161 z"
       id="path1880" />
    <path
       transform="matrix(0.26458333,0,0,0.26458333,305.82541,141.51935)"
       style="fill:none;stroke:#000000;stroke-width:0.648094px;stroke-linecap:round;stroke-linejoin:round;stroke-miterlimit:4;stroke-dasharray:none;stroke-opacity:1"
       clip-path="url(#clipEmfPath1-1)"
       d="m 489.09462,206.37825 0.21603,0.64831 v 0.64831 l 0.21603,0.43221 v 0.64831 0.6483 l -0.21603,0.43221 -0.21603,1.08051 -0.64809,1.08052 -0.64809,0.86441 -1.08016,0.86441 -0.86413,0.43221 -0.64809,0.2161 -0.64809,0.2161 h -0.6481 -0.43206 -0.64809 l -0.6481,-0.2161 -1.08015,-0.2161 -0.86413,-0.64831 -0.86412,-0.64831 -0.86413,-0.86441 -0.43206,-1.08052 v 0 l -0.21603,-0.6483 -0.21603,-0.64831 v -0.43221 -0.64831 -0.64831 -0.4322 l 0.43206,-1.08052 0.43206,-1.08051 0.86413,-0.86441 0.86412,-0.86441 1.08016,-0.43221 0.64809,-0.2161 0.43207,-0.21611 h 0.64809 0.64809 0.43206 0.6481 l 1.08015,0.43221 1.08016,0.64831 0.86413,0.64831 0.64809,0.86441 0.64809,1.08051"
       id="path1882" />
    <path
       transform="matrix(0.26458333,0,0,0.26458333,305.82541,141.51935)"
       style="fill:#ffffff;fill-opacity:1;fill-rule:evenodd;stroke:none"
       clip-path="url(#clipEmfPath1-1)"
       d="M 58.544453,61.373219 V 305.35337 H 84.468197 V 61.373219 Z"
       id="path1884" />
    <path
       transform="matrix(0.26458333,0,0,0.26458333,305.82541,141.51935)"
       style="fill:none;stroke:#000000;stroke-width:0.648094px;stroke-linecap:round;stroke-linejoin:round;stroke-miterlimit:4;stroke-dasharray:none;stroke-opacity:1"
       clip-path="url(#clipEmfPath1-1)"
       d="M 58.544453,305.35337 H 84.468197 V 61.373219 H 58.544453 Z"
       id="path1886" />
  </g>
</svg>
