<?xml version="1.0" encoding="UTF-8" standalone="no"?>
<svg
   xmlns:dc="http://purl.org/dc/elements/1.1/"
   xmlns:cc="http://creativecommons.org/ns#"
   xmlns:rdf="http://www.w3.org/1999/02/22-rdf-syntax-ns#"
   xmlns:svg="http://www.w3.org/2000/svg"
   xmlns="http://www.w3.org/2000/svg"
   xmlns:sodipodi="http://sodipodi.sourceforge.net/DTD/sodipodi-0.dtd"
   xmlns:inkscape="http://www.inkscape.org/namespaces/inkscape"
   sodipodi:docname="Fig.A15.22.svg"
   inkscape:version="1.0 (4035a4fb49, 2020-05-01)"
   id="svg8"
   version="1.1"
   viewBox="0 0 227.1925 92.356218"
   height="92.356216mm"
   width="227.1925mm">
  <defs
     id="defs2">
    <clipPath
       clipPathUnits="userSpaceOnUse"
       id="clipEmfPath1">
      <path
         d="M 0,0 H 863.47668 V 389.36402 H 0 Z"
         id="path833" />
    </clipPath>
    <pattern
       id="EMFhbasepattern"
       patternUnits="userSpaceOnUse"
       width="6"
       height="6"
       x="0"
       y="0" />
    <clipPath
       clipPathUnits="userSpaceOnUse"
       id="clipEmfPath1-6">
      <path
         d="M 0,0 H 863.47668 V 346.35009 H 0 Z"
         id="path974" />
    </clipPath>
    <pattern
       id="EMFhbasepattern-7"
       patternUnits="userSpaceOnUse"
       width="6"
       height="6"
       x="0"
       y="0" />
    <clipPath
       clipPathUnits="userSpaceOnUse"
       id="clipEmfPath1-8">
      <path
         d="M 0,0 H 863.47668 V 552.14537 H 0 Z"
         id="path1103" />
    </clipPath>
    <pattern
       id="EMFhbasepattern-8"
       patternUnits="userSpaceOnUse"
       width="6"
       height="6"
       x="0"
       y="0" />
    <clipPath
       clipPathUnits="userSpaceOnUse"
       id="clipEmfPath1-82">
      <path
         d="M 0,0 H 863.47668 V 374.81284 H 0 Z"
         id="path1499" />
    </clipPath>
    <pattern
       id="EMFhbasepattern-9"
       patternUnits="userSpaceOnUse"
       width="6"
       height="6"
       x="0"
       y="0" />
    <clipPath
       clipPathUnits="userSpaceOnUse"
       id="clipEmfPath1-64">
      <path
         d="M 0,0 H 743.54936 V 531.99758 H 0 Z"
         id="path1664" />
    </clipPath>
    <pattern
       id="EMFhbasepattern-85"
       patternUnits="userSpaceOnUse"
       width="6"
       height="6"
       x="0"
       y="0" />
    <clipPath
       clipPathUnits="userSpaceOnUse"
       id="clipEmfPath1-1">
      <path
         d="M 0,0 H 863.47668 V 317.88734 H 0 Z"
         id="path1754" />
    </clipPath>
    <pattern
       id="EMFhbasepattern-89"
       patternUnits="userSpaceOnUse"
       width="6"
       height="6"
       x="0"
       y="0" />
    <clipPath
       clipPathUnits="userSpaceOnUse"
       id="clipEmfPath1-86">
      <path
         d="M 0,0 H 863.47668 V 295.1811 H 0 Z"
         id="path1961" />
    </clipPath>
    <pattern
       id="EMFhbasepattern-1"
       patternUnits="userSpaceOnUse"
       width="6"
       height="6"
       x="0"
       y="0" />
    <clipPath
       clipPathUnits="userSpaceOnUse"
       id="clipEmfPath1-0">
      <path
         d="M 0,0 H 863.47668 V 320.28589 H 0 Z"
         id="path2372" />
    </clipPath>
    <pattern
       id="EMFhbasepattern-3"
       patternUnits="userSpaceOnUse"
       width="6"
       height="6"
       x="0"
       y="0" />
    <clipPath
       clipPathUnits="userSpaceOnUse"
       id="clipEmfPath1-2">
      <path
         d="M 0,0 H 863.47668 V 430.61902 H 0 Z"
         id="path2540" />
    </clipPath>
    <pattern
       id="EMFhbasepattern-5"
       patternUnits="userSpaceOnUse"
       width="6"
       height="6"
       x="0"
       y="0" />
    <clipPath
       clipPathUnits="userSpaceOnUse"
       id="clipEmfPath1-7">
      <path
         d="M 0,0 H 863.47668 V 356.58389 H 0 Z"
         id="path2978" />
    </clipPath>
    <pattern
       id="EMFhbasepattern-0"
       patternUnits="userSpaceOnUse"
       width="6"
       height="6"
       x="0"
       y="0" />
  </defs>
  <sodipodi:namedview
     inkscape:window-maximized="1"
     inkscape:window-y="-8"
     inkscape:window-x="1272"
     inkscape:window-height="1017"
     inkscape:window-width="1920"
     fit-margin-bottom="0.1"
     fit-margin-right="0"
     fit-margin-left="0"
     fit-margin-top="0"
     showgrid="false"
     inkscape:document-rotation="0"
     inkscape:current-layer="layer1"
     inkscape:document-units="mm"
     inkscape:cy="161.13837"
     inkscape:cx="30.721409"
     inkscape:zoom="0.98994949"
     inkscape:pageshadow="2"
     inkscape:pageopacity="0.0"
     borderopacity="1.0"
     bordercolor="#666666"
     pagecolor="#ffffff"
     id="base" />
  <metadata
     id="metadata5">
    <rdf:RDF>
      <cc:Work
         rdf:about="">
        <dc:format>image/svg+xml</dc:format>
        <dc:type
           rdf:resource="http://purl.org/dc/dcmitype/StillImage" />
        <dc:title></dc:title>
      </cc:Work>
    </rdf:RDF>
  </metadata>
  <g
     transform="translate(-312.13843,-131.46207)"
     id="layer1"
     inkscape:groupmode="layer"
     inkscape:label="Layer 1">
    <path
       transform="matrix(0.26458333,0,0,0.26458333,311.52258,130.84629)"
       style="fill:#ffffff;fill-opacity:1;fill-rule:evenodd;stroke:none"
       clip-path="url(#clipEmfPath1-7)"
       d="M 506.71593,45.84247 V 88.158596 H 650.6052 V 45.84247 Z"
       id="path2984" />
    <path
       transform="matrix(0.26458333,0,0,0.26458333,311.52258,130.84629)"
       style="fill:none;stroke:#000000;stroke-width:0.423204px;stroke-linecap:round;stroke-linejoin:round;stroke-miterlimit:4;stroke-dasharray:none;stroke-opacity:1"
       clip-path="url(#clipEmfPath1-7)"
       d="M 506.71593,88.158596 H 650.6052 V 45.84247 H 506.71593 Z"
       id="path2986" />
    <g
       transform="matrix(0.26458333,0,0,0.26458333,311.52258,130.84629)"
       clip-path="url(#clipEmfPath1-7)"
       id="g2996">
      <text
         xml:space="preserve"
         style="font-style:normal;font-variant:normal;font-weight:400;font-size:15.125px;line-height:125%;font-family:Helvetica;text-align:start;letter-spacing:0px;word-spacing:0px;text-anchor:start;fill:#000000;fill-opacity:1;stroke:none"
         transform="translate(535.21165,71.514253)"
         x="0"
         y="0"
         id="text2994"><tspan
           sodipodi:role="line"
           x="0"
           y="0"
           id="tspan2992"><tspan
             dx="0"
             dy="0"
             style="font-style:normal;font-variant:normal;font-weight:400;font-size:15.125px;font-family:Helvetica;fill:#000000"
             id="tspan2988">:</tspan><tspan
             dx="0"
             dy="0"
             style="font-style:normal;font-variant:normal;font-weight:400;font-size:15.125px;font-family:Helvetica;fill:#000000"
             id="tspan2990">ClockStarter</tspan></tspan></text>
    </g>
    <path
       transform="matrix(0.26458333,0,0,0.26458333,311.52258,130.84629)"
       style="fill:#ffffff;fill-opacity:1;fill-rule:evenodd;stroke:none"
       clip-path="url(#clipEmfPath1-7)"
       d="m 710.27693,159.10863 v 33.28869 h 82.80686 v -33.28869 z"
       id="path2998" />
    <path
       transform="matrix(0.26458333,0,0,0.26458333,311.52258,130.84629)"
       style="fill:none;stroke:#000000;stroke-width:0.423204px;stroke-linecap:round;stroke-linejoin:round;stroke-miterlimit:4;stroke-dasharray:none;stroke-opacity:1"
       clip-path="url(#clipEmfPath1-7)"
       d="m 710.27693,192.39732 h 82.80686 v -33.28869 h -82.80686 z"
       id="path3000" />
    <g
       transform="matrix(0.26458333,0,0,0.26458333,311.52258,130.84629)"
       clip-path="url(#clipEmfPath1-7)"
       id="g3010">
      <text
         xml:space="preserve"
         style="font-style:normal;font-variant:normal;font-weight:400;font-size:15.125px;line-height:125%;font-family:Helvetica;text-align:start;letter-spacing:0px;word-spacing:0px;text-anchor:start;fill:#000000;fill-opacity:1;stroke:none"
         transform="translate(730.73178,180.2667)"
         x="0"
         y="0"
         id="text3008"><tspan
           sodipodi:role="line"
           x="0"
           y="0"
           id="tspan3006"><tspan
             dx="0"
             dy="0"
             style="font-style:normal;font-variant:normal;font-weight:400;font-size:15.125px;font-family:Helvetica;fill:#000000"
             id="tspan3002">:</tspan><tspan
             dx="0"
             dy="0"
             style="font-style:normal;font-variant:normal;font-weight:400;font-size:15.125px;font-family:Helvetica;fill:#000000"
             id="tspan3004">Clock</tspan></tspan></text>
    </g>
    <path
       transform="matrix(0.26458333,0,0,0.26458333,311.52258,130.84629)"
       style="fill:none;stroke:#000000;stroke-width:0.423204px;stroke-linecap:round;stroke-linejoin:round;stroke-miterlimit:4;stroke-dasharray:none;stroke-opacity:1"
       clip-path="url(#clipEmfPath1-7)"
       d="M 577.24989,226.81444 H 746.53138"
       id="path3012" />
    <path
       transform="matrix(0.26458333,0,0,0.26458333,311.52258,130.84629)"
       style="fill:none;stroke:#000000;stroke-width:0.423204px;stroke-linecap:round;stroke-linejoin:round;stroke-miterlimit:4;stroke-dasharray:none;stroke-opacity:1"
       clip-path="url(#clipEmfPath1-7)"
       d="m 733.55314,233.44396 0.56427,-0.84632 0.56427,-0.70527 0.70534,-0.56421 0.70534,-0.70527 0.70534,-0.56422 0.8464,-0.56421 0.84641,-0.42316 0.70534,-0.42317 0.84641,-0.42316 0.98747,-0.42316 0.84641,-0.28211 0.84641,-0.2821 0.98747,-0.14106 0.98748,-0.14105 0.84641,-0.14105 h 0.98747 -0.98747 l -0.84641,-0.14106 h -0.98748 l -0.98747,-0.28211 -0.84641,-0.2821 -0.84641,-0.28211 -0.98747,-0.28211 -0.84641,-0.42316 -0.70534,-0.42316 -0.84641,-0.42316 -0.8464,-0.56422 -0.70534,-0.56421 -0.70534,-0.70527 -0.70534,-0.70527 -0.56427,-0.70527 -0.56427,-0.70527"
       id="path3014" />
    <g
       transform="matrix(0.26458333,0,0,0.26458333,311.52258,130.84629)"
       clip-path="url(#clipEmfPath1-7)"
       id="g3022">
      <text
         xml:space="preserve"
         style="font-style:normal;font-variant:normal;font-weight:400;font-size:15.125px;line-height:125%;font-family:Helvetica;text-align:start;letter-spacing:0px;word-spacing:0px;text-anchor:start;fill:#000000;fill-opacity:1;stroke:none"
         transform="translate(624.78978,223.28809)"
         x="0"
         y="0"
         id="text3020"><tspan
           sodipodi:role="line"
           x="0"
           y="0"
           id="tspan3018"><tspan
             dx="0"
             dy="0"
             style="font-style:normal;font-variant:normal;font-weight:400;font-size:15.125px;font-family:Helvetica;fill:#000000"
             id="tspan3016">run</tspan></tspan></text>
    </g>
    <path
       transform="matrix(0.26458333,0,0,0.26458333,311.52258,130.84629)"
       style="fill:none;stroke:#000000;stroke-width:0.423204px;stroke-linecap:round;stroke-linejoin:round;stroke-miterlimit:4;stroke-dasharray:none;stroke-opacity:1"
       clip-path="url(#clipEmfPath1-7)"
       d="M 444.36392,143.02851 H 570.6197"
       id="path3024" />
    <path
       transform="matrix(0.26458333,0,0,0.26458333,311.52258,130.84629)"
       style="fill:#000000;fill-opacity:1;fill-rule:evenodd;stroke:none"
       clip-path="url(#clipEmfPath1-7)"
       d="m 569.35009,137.80952 10.43902,5.21899 -10.43902,5.21898 z"
       id="path3026" />
    <g
       transform="matrix(0.26458333,0,0,0.26458333,311.52258,130.84629)"
       clip-path="url(#clipEmfPath1-7)"
       id="g3034">
      <text
         xml:space="preserve"
         style="font-style:normal;font-variant:normal;font-weight:400;font-size:15.125px;line-height:125%;font-family:Helvetica;text-align:start;letter-spacing:0px;word-spacing:0px;text-anchor:start;fill:#000000;fill-opacity:1;stroke:none"
         transform="translate(478.64342,139.92532)"
         x="0"
         y="0"
         id="text3032"><tspan
           sodipodi:role="line"
           x="0"
           y="0"
           id="tspan3030"><tspan
             dx="0"
             dy="0"
             style="font-style:normal;font-variant:normal;font-weight:400;font-size:15.125px;font-family:Helvetica;fill:#000000"
             id="tspan3028">startClock</tspan></tspan></text>
    </g>
    <path
       transform="matrix(0.26458333,0,0,0.26458333,311.52258,130.84629)"
       style="fill:#000000;fill-opacity:1;fill-rule:nonzero;stroke:#000000;stroke-width:0.141068px;stroke-linecap:round;stroke-linejoin:round;stroke-miterlimit:4;stroke-dasharray:none;stroke-opacity:1"
       clip-path="url(#clipEmfPath1-7)"
       d="m 578.94271,88.158596 v 6.77058 h -0.14107 v 0.141054 h -0.14107 v 0.141054 L 578.5195,95.07023 v 0 l -0.14107,-0.141054 v 0 -6.77058 -0.141054 h 0.14107 v -0.141054 h 0.14107 v 0 l 0.14107,0.141054 v 0 z m 0,10.861139 v 6.770585 h -0.14107 v 0.14105 h -0.14107 v 0 h -0.14107 v 0 l -0.14107,-0.14105 v 0 -6.770585 -0.141054 l 0.14107,-0.141054 v 0 h 0.14107 v 0 h 0.14107 v 0.141054 z m 0,10.861135 v 6.77058 h -0.14107 v 0.14106 h -0.14107 v 0 h -0.14107 v 0 l -0.14107,-0.14106 v 0 -6.77058 -0.14105 l 0.14107,-0.14105 v 0 h 0.14107 v 0 h 0.14107 v 0.14105 z m 0,10.72009 v 6.77058 l -0.14107,0.14105 v 0 l -0.14107,0.14106 v 0 h -0.14107 v -0.14106 h -0.14107 v -0.14105 -6.77058 0 l 0.14107,-0.14105 v 0 h 0.14107 v 0 h 0.14107 v 0.14105 z m 0,10.86114 v 6.77058 l -0.14107,0.14105 v 0 l -0.14107,0.14106 -0.14107,-0.14106 h -0.14107 v -0.14105 -6.77058 -0.14106 h 0.14107 0.14107 0.14107 v 0 z m 0,10.86114 v 6.77058 h -0.14107 v 0.14105 h -0.14107 v 0.14105 l -0.14107,-0.14105 v 0 l -0.14107,-0.14105 v 0 -6.77058 -0.14106 h 0.14107 v -0.14105 h 0.14107 v 0 l 0.14107,0.14105 v 0 z m 0,10.86114 v 6.77058 h -0.14107 v 0.14105 h -0.14107 v 0 h -0.14107 v 0 l -0.14107,-0.14105 v 0 -6.77058 -0.14106 l 0.14107,-0.14105 v 0 h 0.14107 v 0 h 0.14107 v 0.14105 z m 0,10.86114 v 6.77058 h -0.14107 v 0.14105 h -0.14107 v 0 h -0.14107 v 0 l -0.14107,-0.14105 v 0 -6.77058 -0.14106 l 0.14107,-0.14105 v 0 h 0.14107 v 0 h 0.14107 v 0.14105 z m 0,10.72008 v 6.77058 l -0.14107,0.14105 v 0 l -0.14107,0.14106 v 0 h -0.14107 v -0.14106 h -0.14107 v -0.14105 -6.77058 0 l 0.14107,-0.14105 v 0 h 0.14107 v 0 h 0.14107 v 0.14105 z m 0,10.86114 v 6.77058 l -0.14107,0.14105 v 0 l -0.14107,0.14106 -0.14107,-0.14106 h -0.14107 v -0.14105 -6.77058 -0.14105 h 0.14107 0.14107 0.14107 v 0 z m 0,10.86114 v 6.77058 h -0.14107 v 0.14105 h -0.14107 v 0.14106 l -0.14107,-0.14106 v 0 l -0.14107,-0.14105 v 0 -6.77058 -0.14106 h 0.14107 v -0.14105 h 0.14107 v 0 l 0.14107,0.14105 v 0 z m 0,10.86114 v 6.77058 h -0.14107 v 0.14105 h -0.14107 v 0 h -0.14107 v 0 l -0.14107,-0.14105 v 0 -6.77058 -0.14106 l 0.14107,-0.14105 v 0 h 0.14107 v 0 h 0.14107 v 0.14105 z m 0,10.86114 v 6.77058 h -0.14107 v 0.14105 h -0.14107 v 0 h -0.14107 v 0 l -0.14107,-0.14105 v 0 -6.77058 -0.14106 l 0.14107,-0.14105 v 0 h 0.14107 v 0 h 0.14107 v 0.14105 z m 0,10.72008 v 6.77058 l -0.14107,0.14106 v 0 l -0.14107,0.14105 v 0 h -0.14107 v -0.14105 h -0.14107 v -0.14106 -6.77058 0 l 0.14107,-0.14105 v 0 h 0.14107 v 0 h 0.14107 v 0.14105 z m 0,10.86114 v 6.77058 l -0.14107,0.14105 v 0 l -0.14107,0.14106 -0.14107,-0.14106 h -0.14107 v -0.14105 -6.77058 -0.14105 h 0.14107 0.14107 0.14107 v 0 z m 0,10.86114 v 6.77058 h -0.14107 v 0.14105 h -0.14107 v 0.14106 l -0.14107,-0.14106 v 0 l -0.14107,-0.14105 v 0 -6.77058 -0.14105 h 0.14107 v -0.14106 h 0.14107 v 0 l 0.14107,0.14106 v 0 z m 0,10.86114 v 6.77058 h -0.14107 v 0.14105 h -0.14107 v 0 h -0.14107 v 0 l -0.14107,-0.14105 v 0 -6.77058 -0.14105 l 0.14107,-0.14106 v 0 h 0.14107 v 0 h 0.14107 v 0.14106 z m 0,10.86114 v 6.77058 h -0.14107 v 0.14105 h -0.14107 v 0 h -0.14107 v 0 l -0.14107,-0.14105 v 0 -6.77058 -0.14106 l 0.14107,-0.14105 v 0 h 0.14107 v 0 h 0.14107 v 0.14105 z m 0,10.72008 v 6.77058 l -0.14107,0.14106 v 0 l -0.14107,0.14105 v 0 h -0.14107 v -0.14105 h -0.14107 v -0.14106 -6.77058 0 l 0.14107,-0.14105 v 0 h 0.14107 v 0 h 0.14107 v 0.14105 z m 0,10.86114 v 6.77058 l -0.14107,0.14106 v 0 l -0.14107,0.14105 -0.14107,-0.14105 h -0.14107 v -0.14106 -6.77058 -0.14105 h 0.14107 0.14107 0.14107 v 0 z m 0,10.86114 v 6.77058 h -0.14107 v 0.14105 h -0.14107 v 0.14106 l -0.14107,-0.14106 v 0 l -0.14107,-0.14105 v 0 -6.77058 -0.14105 h 0.14107 v -0.14106 h 0.14107 v 0 l 0.14107,0.14106 v 0 z m 0,10.86114 v 6.77058 h -0.14107 v 0.14105 h -0.14107 v 0 h -0.14107 v 0 l -0.14107,-0.14105 v 0 -6.77058 -0.14105 l 0.14107,-0.14106 v 0 h 0.14107 v 0 h 0.14107 v 0.14106 z m 0,10.86114 v 6.77058 h -0.14107 v 0.14105 h -0.14107 v 0 h -0.14107 v 0 l -0.14107,-0.14105 v 0 -6.77058 -0.14105 l 0.14107,-0.14106 v 0 h 0.14107 v 0 h 0.14107 v 0.14106 z m 0,10.72008 v 6.77058 l -0.14107,0.14106 v 0 l -0.14107,0.14105 v 0 h -0.14107 v -0.14105 h -0.14107 v -0.14106 -6.77058 0 l 0.14107,-0.14105 v 0 h 0.14107 v 0 h 0.14107 v 0.14105 z"
       id="path3036" />
    <path
       transform="matrix(0.26458333,0,0,0.26458333,311.52258,130.84629)"
       style="fill:#000000;fill-opacity:1;fill-rule:nonzero;stroke:#000000;stroke-width:0.141068px;stroke-linecap:round;stroke-linejoin:round;stroke-miterlimit:4;stroke-dasharray:none;stroke-opacity:1"
       clip-path="url(#clipEmfPath1-7)"
       d="m 579.78911,176.5993 h 6.77126 v 0 l 0.14107,0.14105 v 0 l 0.14107,0.14106 h -0.14107 v 0.14105 h -0.14107 v 0 h -6.77126 -0.14107 v 0 l -0.14106,-0.14105 v 0 -0.14106 h 0.14106 v -0.14105 z m 10.86223,0 h 6.77126 v 0 l 0.14107,0.14105 v 0 0.14106 0 0.14105 h -0.14107 v 0 h -6.77126 -0.14107 v 0 l -0.14106,-0.14105 v 0 -0.14106 h 0.14106 v -0.14105 z m 10.86223,0 h 6.77126 v 0 l 0.14107,0.14105 v 0 0.14106 0 0.14105 h -0.14107 v 0 h -6.77126 -0.14107 -0.14107 v -0.14105 0 -0.14106 0 l 0.14107,-0.14105 z m 10.72116,0 h 6.77126 0.14107 v 0.14105 h 0.14107 v 0.14106 0 l -0.14107,0.14105 v 0 h -0.14107 -6.77126 v 0 h -0.14107 v -0.14105 -0.14106 z m 10.86223,0 h 6.77126 0.14107 v 0.14105 h 0.14107 v 0.14106 0 l -0.14107,0.14105 v 0 h -0.14107 -6.77126 -0.14107 v 0 -0.14105 0 -0.14106 0 -0.14105 z m 10.86223,0 h 6.77126 v 0 l 0.14107,0.14105 v 0 l 0.14107,0.14106 h -0.14107 v 0.14105 h -0.14107 v 0 h -6.77126 -0.14107 v 0 l -0.14107,-0.14105 v 0 -0.14106 h 0.14107 v -0.14105 z m 10.86223,0 h 0.56427 l -0.28213,0.28211 v -0.14106 0 l 0.14106,-0.14105 v 0 h 0.14107 6.06592 0.14107 v 0 l 0.14107,0.14105 v 0 0.14106 h -0.14107 v 0.14105 h -0.14107 -6.06592 l 0.28214,-0.28211 v 0.14106 h -0.14107 v 0.14105 h -0.14107 v 0 h -0.56427 -0.14107 v 0 l -0.14107,-0.14105 v 0 -0.14106 h 0.14107 v -0.14105 z m 10.72116,0 h 6.77126 0.14107 v 0 0.14105 h 0.14107 l -0.14107,0.14106 v 0 0.14105 h -0.14107 -6.77126 -0.14107 v -0.14105 h -0.14107 v -0.14106 0 l 0.14107,-0.14105 v 0 z m 10.86223,0 h 6.77126 v 0 h 0.14107 v 0.14105 0 0.14106 0 l -0.14107,0.14105 v 0 h -6.77126 -0.14107 v -0.14105 h -0.14107 v -0.14106 0 l 0.14107,-0.14105 v 0 z m 10.86223,0 h 6.77126 v 0 h 0.14107 v 0.14105 0 0.14106 0 l -0.14107,0.14105 v 0 h -6.77126 -0.14107 l -0.14107,-0.14105 v -0.14106 -0.14105 h 0.14107 z m 10.72116,0 h 6.77126 0.14107 0.14107 v 0.14105 0 0.14106 0 l -0.14107,0.14105 h -0.14107 -6.77126 v 0 l -0.14107,-0.14105 v 0 -0.14106 0 -0.14105 z m 10.86223,0 h 3.10349 v 0 h 0.14107 v 0.14105 0 0.14106 0 l -0.14107,0.14105 v 0 h -3.10349 -0.14107 v -0.14105 0 -0.14106 0 -0.14105 0 z"
       id="path3038" />
    <path
       transform="matrix(0.26458333,0,0,0.26458333,311.52258,130.84629)"
       style="fill:#000000;fill-opacity:1;fill-rule:evenodd;stroke:none"
       clip-path="url(#clipEmfPath1-7)"
       d="m 700.54324,171.52136 10.43903,5.21899 -10.43903,5.21899 z"
       id="path3040" />
    <g
       transform="matrix(0.26458333,0,0,0.26458333,311.52258,130.84629)"
       clip-path="url(#clipEmfPath1-7)"
       id="g3048">
      <text
         xml:space="preserve"
         style="font-style:normal;font-variant:normal;font-weight:400;font-size:15.125px;line-height:125%;font-family:Helvetica;text-align:start;letter-spacing:0px;word-spacing:0px;text-anchor:start;fill:#000000;fill-opacity:1;stroke:none"
         transform="translate(624.36657,173.77822)"
         x="0"
         y="0"
         id="text3046"><tspan
           sodipodi:role="line"
           x="0"
           y="0"
           id="tspan3044"><tspan
             dx="0"
             dy="0"
             style="font-style:normal;font-variant:normal;font-weight:400;font-size:15.125px;font-family:Helvetica;fill:#000000"
             id="tspan3042">create</tspan></tspan></text>
    </g>
    <path
       transform="matrix(0.26458333,0,0,0.26458333,311.52258,130.84629)"
       style="fill:#000000;fill-opacity:1;fill-rule:nonzero;stroke:#000000;stroke-width:0.141068px;stroke-linecap:round;stroke-linejoin:round;stroke-miterlimit:4;stroke-dasharray:none;stroke-opacity:1"
       clip-path="url(#clipEmfPath1-7)"
       d="m 751.04556,192.39732 v 6.77058 l -0.14107,0.14105 v 0 h -0.14107 v 0 h -0.14107 v -0.14105 0 -6.77058 -0.14105 -0.14106 h 0.14107 0.14107 z m 0,10.72008 v 6.77059 l -0.14107,0.2821 v 0 h -0.14107 v 0 h -0.14107 v -0.14105 -0.14105 -6.77059 0 -0.14105 h 0.14107 v 0 h 0.14107 v 0 z m 0,10.86114 v 6.77058 l -0.14107,0.14106 v 0.14105 h -0.14107 v 0 l -0.14107,-0.14105 v 0 -0.14106 -6.77058 -0.14105 0 h 0.14107 v 0 h 0.14107 v 0 z m 0,10.86114 v 6.77058 l -0.14107,0.14106 v 0 l -0.14107,0.14105 v -0.14105 h -0.14107 v 0 -0.14106 -6.77058 -0.14105 0 l 0.14107,-0.14105 v 0 h 0.14107 v 0.14105 z m 0,10.86114 v 6.77058 l -0.14107,0.14106 v 0 h -0.14107 v 0 h -0.14107 v -0.14106 0 -6.77058 -0.14105 0 l 0.14107,-0.14106 v 0 h 0.14107 v 0.14106 z m 0,10.86114 v 6.77058 l -0.14107,0.14105 v 0 h -0.14107 v 0 h -0.14107 v -0.14105 0 -6.77058 -0.14105 -0.14106 h 0.14107 0.14107 z m 0,10.72009 v 6.77058 l -0.14107,0.2821 v 0 h -0.14107 v 0 h -0.14107 v -0.14105 -0.14105 -6.77058 0 -0.14106 h 0.14107 v 0 h 0.14107 v 0 z m 0,10.86114 v 6.77058 l -0.14107,0.14105 v 0.14105 h -0.14107 v 0 l -0.14107,-0.14105 v 0 -0.14105 -6.77058 -0.14106 0 h 0.14107 v 0 h 0.14107 v 0 z m 0,10.86113 v 6.77058 l -0.14107,0.14106 v 0 l -0.14107,0.14105 v -0.14105 h -0.14107 v 0 -0.14106 -6.77058 -0.14105 0 l 0.14107,-0.14105 v 0 h 0.14107 v 0.14105 z m 0,10.86114 v 6.77058 l -0.14107,0.14106 v 0 h -0.14107 v 0 h -0.14107 v -0.14106 0 -6.77058 -0.14105 0 l 0.14107,-0.14105 v 0 h 0.14107 v 0.14105 z m 0,10.86114 v 6.77058 l -0.14107,0.14106 v 0 h -0.14107 v 0 h -0.14107 v -0.14106 0 -6.77058 -0.14105 -0.14106 h 0.14107 0.14107 z m 0,10.72009 v 6.77058 l -0.14107,0.28211 v 0 h -0.14107 v 0 h -0.14107 v -0.14106 -0.14105 -6.77058 0 -0.14106 h 0.14107 v 0 h 0.14107 v 0 z m 0,10.86114 v 6.77058 l -0.14107,0.14105 v 0.14105 h -0.14107 v 0 l -0.14107,-0.14105 v 0 -0.14105 -6.77058 -0.14106 0 h 0.14107 v 0 h 0.14107 v 0 z m 0,10.86114 v 6.77058 l -0.14107,0.14105 v 0 l -0.14107,0.14105 v -0.14105 h -0.14107 v 0 -0.14105 -6.77058 -0.14106 0 l 0.14107,-0.14105 v 0 h 0.14107 v 0.14105 z m 0,10.86113 v 6.77058 l -0.14107,0.14106 v 0 h -0.14107 v 0 h -0.14107 v -0.14106 0 -6.77058 -0.14105 0 l 0.14107,-0.14105 v 0 h 0.14107 v 0.14105 z"
       id="path3050" />
    <path
       transform="matrix(0.26458333,0,0,0.26458333,311.52258,130.84629)"
       style="fill:#ffffff;fill-opacity:1;fill-rule:evenodd;stroke:none"
       clip-path="url(#clipEmfPath1-7)"
       d="M 2.5392224,2.5389676 V 343.46589 H 411.35403 V 2.5389676 Z"
       id="path3052" />
    <path
       transform="matrix(0.26458333,0,0,0.26458333,311.52258,130.84629)"
       style="fill:none;stroke:#000000;stroke-width:0.423204px;stroke-linecap:round;stroke-linejoin:round;stroke-miterlimit:4;stroke-dasharray:none;stroke-opacity:1"
       clip-path="url(#clipEmfPath1-7)"
       d="M 2.5392224,343.46589 H 411.35403 V 2.5389676 H 2.5392224 Z"
       id="path3054" />
    <g
       transform="matrix(0.26458333,0,0,0.26458333,311.52258,130.84629)"
       clip-path="url(#clipEmfPath1-7)"
       id="g3198">
      <text
         xml:space="preserve"
         style="font-style:normal;font-variant:normal;font-weight:400;font-size:15.125px;line-height:238.742%;font-family:Helvetica;text-align:start;letter-spacing:0px;word-spacing:0px;text-anchor:start;fill:#000000;fill-opacity:1;stroke:none"
         transform="translate(10.15689,24.120192)"
         x="0"
         y="0"
         id="text3076"><tspan
           sodipodi:role="line"
           x="0"
           y="0"
           id="tspan3058"><tspan
             dx="0"
             dy="0"
             style="font-style:normal;font-variant:normal;font-weight:400;font-size:15.125px;font-family:Helvetica;fill:#000000"
             id="tspan3056">a stick arrow in UML implies an asynchronous call</tspan></tspan><tspan
           sodipodi:role="line"
           x="0"
           y="36.109726"
           id="tspan3062"><tspan
             dx="0"
             dy="0"
             style="font-style:normal;font-variant:normal;font-weight:400;font-size:15.125px;font-family:Helvetica;fill:#000000"
             id="tspan3060">a filled arrow is the more common synchronous call</tspan></tspan><tspan
           sodipodi:role="line"
           x="0"
           y="72.219452"
           id="tspan3074"><tspan
             dx="0"
             dy="0"
             style="font-style:normal;font-variant:normal;font-weight:400;font-size:15.125px;font-family:Helvetica;fill:#000000"
             id="tspan3064">In Java</tspan><tspan
             dx="0"
             dy="0"
             style="font-style:normal;font-variant:normal;font-weight:400;font-size:15.125px;font-family:Helvetica;fill:#000000"
             id="tspan3066">, </tspan><tspan
             dx="0"
             dy="0"
             style="font-style:normal;font-variant:normal;font-weight:400;font-size:15.125px;font-family:Helvetica;fill:#000000"
             id="tspan3068">for example</tspan><tspan
             dx="-0.447391"
             dy="0"
             style="font-style:normal;font-variant:normal;font-weight:400;font-size:15.125px;font-family:Helvetica;fill:#000000"
             id="tspan3070">, </tspan><tspan
             dx="0"
             dy="0"
             style="font-style:normal;font-variant:normal;font-weight:400;font-size:15.125px;font-family:Helvetica;fill:#000000"
             id="tspan3072">an asynchronous call may occur as </tspan></tspan></text>
      <text
         xml:space="preserve"
         style="font-style:normal;font-variant:normal;font-weight:400;font-size:15.125px;line-height:238.742%;font-family:Helvetica;text-align:start;letter-spacing:0px;word-spacing:0px;text-anchor:start;fill:#000000;fill-opacity:1;stroke:none"
         transform="translate(10.15689,24.120192)"
         x="0"
         y="90.274399"
         id="text3090"><tspan
           sodipodi:role="line"
           x="0"
           y="90.274399"
           id="tspan3082"><tspan
             dx="0"
             dy="0"
             style="font-style:normal;font-variant:normal;font-weight:400;font-size:15.125px;font-family:Helvetica;fill:#000000"
             id="tspan3078">follows</tspan><tspan
             dx="0"
             dy="0"
             style="font-style:normal;font-variant:normal;font-weight:400;font-size:15.125px;font-family:Helvetica;fill:#000000"
             id="tspan3080">:</tspan></tspan><tspan
           sodipodi:role="line"
           x="0"
           y="126.38412"
           id="tspan3088"><tspan
             dx="0"
             dy="0"
             style="font-style:normal;font-variant:normal;font-weight:400;font-size:15.125px;font-family:Helvetica;fill:#000000"
             id="tspan3084">// </tspan><tspan
             dx="0"
             dy="0"
             style="font-style:normal;font-variant:normal;font-weight:400;font-size:15.125px;font-family:Helvetica;fill:#000000"
             id="tspan3086">Clock implements the Runnable interface</tspan></tspan></text>
      <text
         xml:space="preserve"
         style="font-style:normal;font-variant:normal;font-weight:400;font-size:15.125px;line-height:119.371%;font-family:Helvetica;text-align:start;letter-spacing:0px;word-spacing:0px;text-anchor:start;fill:#000000;fill-opacity:1;stroke:none"
         transform="translate(10.15689,24.120192)"
         x="0"
         y="144.43904"
         id="text3120"><tspan
           sodipodi:role="line"
           x="0"
           y="144.43904"
           id="tspan3106"><tspan
             dx="0"
             dy="0"
             style="font-style:normal;font-variant:normal;font-weight:400;font-size:15.125px;font-family:Helvetica;fill:#000000"
             id="tspan3092">Thread t </tspan><tspan
             dx="-0.43461099"
             dy="0"
             style="font-style:normal;font-variant:normal;font-weight:400;font-size:15.125px;font-family:Helvetica;fill:#000000"
             id="tspan3094">= </tspan><tspan
             dx="0"
             dy="0"
             style="font-style:normal;font-variant:normal;font-weight:400;font-size:15.125px;font-family:Helvetica;fill:#000000"
             id="tspan3096">new Thread</tspan><tspan
             dx="0"
             dy="0"
             style="font-style:normal;font-variant:normal;font-weight:400;font-size:15.125px;font-family:Helvetica;fill:#000000"
             id="tspan3098">( </tspan><tspan
             dx="0"
             dy="0"
             style="font-style:normal;font-variant:normal;font-weight:400;font-size:15.125px;font-family:Helvetica;fill:#000000"
             id="tspan3100">new Clock</tspan><tspan
             dx="0"
             dy="0"
             style="font-style:normal;font-variant:normal;font-weight:400;font-size:15.125px;font-family:Helvetica;fill:#000000"
             id="tspan3102">() )</tspan><tspan
             dx="0"
             dy="0"
             style="font-style:normal;font-variant:normal;font-weight:400;font-size:15.125px;font-family:Helvetica;fill:#000000"
             id="tspan3104">;</tspan></tspan><tspan
           sodipodi:role="line"
           x="0"
           y="162.49391"
           id="tspan3118"><tspan
             dx="0"
             dy="0"
             style="font-style:normal;font-variant:normal;font-weight:400;font-size:15.125px;font-family:Helvetica;fill:#000000"
             id="tspan3108">t</tspan><tspan
             dx="0"
             dy="0"
             style="font-style:normal;font-variant:normal;font-weight:400;font-size:15.125px;font-family:Helvetica;fill:#000000"
             id="tspan3110">.</tspan><tspan
             dx="0"
             dy="0"
             style="font-style:normal;font-variant:normal;font-weight:400;font-size:15.125px;font-family:Helvetica;fill:#000000"
             id="tspan3112">start</tspan><tspan
             dx="0"
             dy="0"
             style="font-style:normal;font-variant:normal;font-weight:400;font-size:15.125px;font-family:Helvetica;fill:#000000"
             id="tspan3114">()</tspan><tspan
             dx="0"
             dy="0"
             style="font-style:normal;font-variant:normal;font-weight:400;font-size:15.125px;font-family:Helvetica;fill:#000000"
             id="tspan3116">;</tspan></tspan></text>
      <text
         xml:space="preserve"
         style="font-style:normal;font-variant:normal;font-weight:400;font-size:15.125px;line-height:118.476%;font-family:Helvetica;text-align:start;letter-spacing:0px;word-spacing:0px;text-anchor:start;fill:#000000;fill-opacity:1;stroke:none"
         transform="translate(10.15689,24.120192)"
         x="0"
         y="198.60368"
         id="text3148"><tspan
           sodipodi:role="line"
           x="0"
           y="198.60368"
           id="tspan3132"><tspan
             dx="0"
             dy="0"
             style="font-style:normal;font-variant:normal;font-weight:400;font-size:15.125px;font-family:Helvetica;fill:#000000"
             id="tspan3122">the asynchronous </tspan><tspan
             dx="-0.72945899"
             dy="0"
             style="font-style:italic;font-variant:normal;font-weight:400;font-size:15.125px;font-family:Helvetica;fill:#000000"
             id="tspan3124">start </tspan><tspan
             dx="0"
             dy="0"
             style="font-style:normal;font-variant:normal;font-weight:400;font-size:15.125px;font-family:Helvetica;fill:#000000"
             id="tspan3126">call always invokes the </tspan><tspan
             dx="-0.75371301"
             dy="0"
             style="font-style:italic;font-variant:normal;font-weight:400;font-size:15.125px;font-family:Helvetica;fill:#000000"
             id="tspan3128">run </tspan><tspan
             dx="0"
             dy="0"
             style="font-style:normal;font-variant:normal;font-weight:400;font-size:15.125px;font-family:Helvetica;fill:#000000"
             id="tspan3130">method </tspan></tspan><tspan
           sodipodi:role="line"
           x="0"
           y="216.55992"
           id="tspan3146"><tspan
             dx="0"
             dy="0"
             style="font-style:normal;font-variant:normal;font-weight:400;font-size:15.125px;font-family:Helvetica;fill:#000000"
             id="tspan3134">on the </tspan><tspan
             dx="0"
             dy="0"
             style="font-style:italic;font-variant:normal;font-weight:400;font-size:15.125px;font-family:Helvetica;fill:#000000"
             id="tspan3136">Runnable </tspan><tspan
             dx="0"
             dy="0"
             style="font-style:normal;font-variant:normal;font-weight:400;font-size:15.125px;font-family:Helvetica;fill:#000000"
             id="tspan3138">(</tspan><tspan
             dx="0"
             dy="0"
             style="font-style:italic;font-variant:normal;font-weight:400;font-size:15.125px;font-family:Helvetica;fill:#000000"
             id="tspan3140">Clock</tspan><tspan
             dx="0"
             dy="0"
             style="font-style:normal;font-variant:normal;font-weight:400;font-size:15.125px;font-family:Helvetica;fill:#000000"
             id="tspan3142">) </tspan><tspan
             dx="0"
             dy="0"
             style="font-style:normal;font-variant:normal;font-weight:400;font-size:15.125px;font-family:Helvetica;fill:#000000"
             id="tspan3144">object</tspan></tspan></text>
      <text
         xml:space="preserve"
         style="font-style:normal;font-variant:normal;font-weight:400;font-size:15.125px;line-height:118.476%;font-family:Helvetica;text-align:start;letter-spacing:0px;word-spacing:0px;text-anchor:start;fill:#000000;fill-opacity:1;stroke:none"
         transform="translate(10.15689,24.120192)"
         x="0"
         y="252.76833"
         id="text3196"><tspan
           sodipodi:role="line"
           x="0"
           y="252.76833"
           id="tspan3160"><tspan
             dx="0"
             dy="0"
             style="font-style:normal;font-variant:normal;font-weight:400;font-size:15.125px;font-family:Helvetica;fill:#000000"
             id="tspan3150">to simplify the UML diagram</tspan><tspan
             dx="-0.53314"
             dy="0"
             style="font-style:normal;font-variant:normal;font-weight:400;font-size:15.125px;font-family:Helvetica;fill:#000000"
             id="tspan3152">, </tspan><tspan
             dx="0"
             dy="0"
             style="font-style:normal;font-variant:normal;font-weight:400;font-size:15.125px;font-family:Helvetica;fill:#000000"
             id="tspan3154">the </tspan><tspan
             dx="0"
             dy="0"
             style="font-style:italic;font-variant:normal;font-weight:400;font-size:15.125px;font-family:Helvetica;fill:#000000"
             id="tspan3156">Thread </tspan><tspan
             dx="0"
             dy="0"
             style="font-style:normal;font-variant:normal;font-weight:400;font-size:15.125px;font-family:Helvetica;fill:#000000"
             id="tspan3158">object and the </tspan></tspan><tspan
           sodipodi:role="line"
           x="0"
           y="270.72455"
           id="tspan3170"><tspan
             dx="0"
             dy="0"
             style="font-style:italic;font-variant:normal;font-weight:400;font-size:15.125px;font-family:Helvetica;fill:#000000"
             id="tspan3162">start </tspan><tspan
             dx="0"
             dy="0"
             style="font-style:normal;font-variant:normal;font-weight:400;font-size:15.125px;font-family:Helvetica;fill:#000000"
             id="tspan3164">message may be avoided </tspan><tspan
             dx="-0.92971599"
             dy="0"
             style="font-style:normal;font-variant:normal;font-weight:400;font-size:15.125px;font-family:Helvetica;fill:#000000"
             id="tspan3166">(</tspan><tspan
             dx="0"
             dy="0"
             style="font-style:normal;font-variant:normal;font-weight:400;font-size:15.125px;font-family:Helvetica;fill:#000000"
             id="tspan3168">they are standard </tspan></tspan><tspan
           sodipodi:role="line"
           x="0"
           y="288.68079"
           id="tspan3186"><tspan
             dx="0"
             dy="0"
             style="font-style:normal;font-variant:normal;font-weight:400;font-size:15.125px;font-family:Helvetica;fill:#000000"
             id="tspan3172">“overhead”</tspan><tspan
             dx="-0.493581"
             dy="0"
             style="font-style:normal;font-variant:normal;font-weight:400;font-size:15.125px;font-family:Helvetica;fill:#000000"
             id="tspan3174">)</tspan><tspan
             dx="0"
             dy="0"
             style="font-style:normal;font-variant:normal;font-weight:400;font-size:15.125px;font-family:Helvetica;fill:#000000"
             id="tspan3176">; </tspan><tspan
             dx="0"
             dy="0"
             style="font-style:normal;font-variant:normal;font-weight:400;font-size:15.125px;font-family:Helvetica;fill:#000000"
             id="tspan3178">instead</tspan><tspan
             dx="0"
             dy="0"
             style="font-style:normal;font-variant:normal;font-weight:400;font-size:15.125px;font-family:Helvetica;fill:#000000"
             id="tspan3180">, </tspan><tspan
             dx="0"
             dy="0"
             style="font-style:normal;font-variant:normal;font-weight:400;font-size:15.125px;font-family:Helvetica;fill:#000000"
             id="tspan3182">the essential detail of the </tspan><tspan
             dx="-0.837735"
             dy="0"
             style="font-style:italic;font-variant:normal;font-weight:400;font-size:15.125px;font-family:Helvetica;fill:#000000"
             id="tspan3184">Clock </tspan></tspan><tspan
           sodipodi:role="line"
           x="0"
           y="306.63702"
           id="tspan3194"><tspan
             dx="0"
             dy="0"
             style="font-style:normal;font-variant:normal;font-weight:400;font-size:15.125px;font-family:Helvetica;fill:#000000"
             id="tspan3188">creation and the </tspan><tspan
             dx="-0.66889799"
             dy="0"
             style="font-style:italic;font-variant:normal;font-weight:400;font-size:15.125px;font-family:Helvetica;fill:#000000"
             id="tspan3190">run </tspan><tspan
             dx="0"
             dy="0"
             style="font-style:normal;font-variant:normal;font-weight:400;font-size:15.125px;font-family:Helvetica;fill:#000000"
             id="tspan3192">message imply the asynchronous call</tspan></tspan></text>
    </g>
    <path
       transform="matrix(0.26458333,0,0,0.26458333,311.52258,130.84629)"
       style="fill:#ffffff;fill-opacity:1;fill-rule:evenodd;stroke:none"
       clip-path="url(#clipEmfPath1-7)"
       d="M 392.30986,2.5389676 411.35403,21.581224 V 2.5389676 Z"
       id="path3200" />
    <path
       transform="matrix(0.26458333,0,0,0.26458333,311.52258,130.84629)"
       style="fill:none;stroke:#ffffff;stroke-width:0.423204px;stroke-linecap:round;stroke-linejoin:round;stroke-miterlimit:4;stroke-dasharray:none;stroke-opacity:1"
       clip-path="url(#clipEmfPath1-7)"
       d="M 392.30986,2.5389676 411.35403,21.581224 V 2.5389676 Z"
       id="path3202" />
    <path
       transform="matrix(0.26458333,0,0,0.26458333,311.52258,130.84629)"
       style="fill:#000000;fill-opacity:1;fill-rule:evenodd;stroke:none"
       clip-path="url(#clipEmfPath1-7)"
       d="M 411.35403,21.581224 392.30986,2.5389676 V 21.581224 Z"
       id="path3204" />
    <path
       transform="matrix(0.26458333,0,0,0.26458333,311.52258,130.84629)"
       style="fill:none;stroke:#000000;stroke-width:0.423204px;stroke-linecap:round;stroke-linejoin:round;stroke-miterlimit:4;stroke-dasharray:none;stroke-opacity:1"
       clip-path="url(#clipEmfPath1-7)"
       d="M 411.35403,21.581224 392.30986,2.5389676 V 21.581224 Z"
       id="path3206" />
    <path
       transform="matrix(0.26458333,0,0,0.26458333,311.52258,130.84629)"
       style="fill:#000000;fill-opacity:1;fill-rule:nonzero;stroke:#000000;stroke-width:0.141068px;stroke-linecap:round;stroke-linejoin:round;stroke-miterlimit:4;stroke-dasharray:none;stroke-opacity:1"
       clip-path="url(#clipEmfPath1-7)"
       d="m 716.34285,66.577372 v 0 0 0.141053 l -0.14107,0.141054 -0.14107,-0.141054 v 0 h -0.14106 v 0 -0.282107 h 0.14106 v 0 l 0.14107,-0.141054 v 0.141054 h 0.14107 z m 0.84641,2.115806 v 0 0 0.141054 0 l -0.14107,0.141053 h -0.14107 v -0.141053 h -0.14107 v 0 -0.282108 0 h 0.14107 l 0.14107,-0.141054 v 0.141054 h 0.14107 z m 0.8464,2.115806 v 0 0 0.141054 h -0.14106 v 0.141054 h -0.14107 l -0.14107,-0.141054 v 0 0 -0.141054 -0.141054 0 h 0.14107 0.14107 v 0 z m 0.84641,2.115806 v 0 0 l -0.14107,0.141054 v 0 0.141054 h -0.14106 l -0.14107,-0.141054 v 0 0 L 718.3178,72.92479 v -0.141053 h 0.14107 l 0.14107,-0.141054 v 0 h 0.14106 v 0.141054 z m 0.70534,1.974753 v 0 0.141054 0.141054 h -0.14107 v 0 h -0.14106 v 0 l -0.14107,-0.141054 v 0 0 -0.141054 h 0.14107 v -0.141054 h 0.14106 v 0 z m 0.84641,2.115806 v 0 0.141054 0 0.141054 h -0.14107 -0.14107 v 0 l -0.14106,-0.141054 v 0 0 -0.141054 0 l 0.14106,-0.141053 v 0 h 0.14107 z m 0.84641,2.115807 v 0 0.141053 0 l -0.14107,0.141054 v 0 h -0.14107 -0.14107 v -0.141054 0 h -0.14106 l 0.14106,-0.141053 0.14107,-0.141054 h 0.14107 v 0.141054 z m 0.70534,2.115806 v 0 0.141054 0 0.141053 h -0.14107 v 0 h -0.14107 v 0 l -0.14107,-0.141053 v 0 0 -0.141054 l 0.14107,-0.141054 h 0.14107 0.14107 z m 0.8464,2.115806 v 0 0.141054 0 0.141054 h -0.14106 -0.14107 v 0 h -0.14107 v -0.141054 0 -0.141054 0 l 0.14107,-0.141054 v 0 h 0.14107 v 0 z m 0.84641,2.115807 v 0 0.141053 l -0.14107,0.141054 v 0 h -0.14106 v 0 h -0.14107 v -0.141054 0 -0.141053 0 -0.141054 h 0.14107 v 0 h 0.14106 z m 0.84641,2.115806 v 0 l -0.14107,0.141054 v 0.141053 0 h -0.14107 -0.14106 v 0 -0.141053 0 l -0.14107,-0.141054 h 0.14107 v -0.141054 h 0.14106 0.14107 v 0 z m 0.70534,2.115806 v 0 0.141054 0.141054 h -0.14107 v 0 h -0.14107 v 0 l -0.14107,-0.141054 v 0 -0.141054 0 l 0.14107,-0.141054 h 0.14107 0.14107 v 0 z m 0.84641,2.115806 v 0 0.141054 0 l -0.14107,0.141054 h -0.14107 v 0 l -0.14107,-0.141054 v 0 0 -0.141054 0 l 0.14107,-0.141053 v 0 h 0.14107 v 0 h 0.14107 z m 0.8464,2.115807 v 0 0 0.141054 h -0.14106 v 0.141053 h -0.14107 l -0.14107,-0.141053 v 0 0 -0.141054 0 -0.141054 h 0.14107 v 0 h 0.14107 v 0 z m 0.84641,2.115806 v 0 0 l -0.14107,0.141054 v 0 0.141054 h -0.14107 -0.14106 v -0.141054 0 0 l -0.14107,-0.141054 h 0.14107 v -0.141054 h 0.14106 v 0 h 0.14107 v 0 z m 0.70534,2.115806 v 0 0 0.141054 0 l -0.14107,0.141054 v 0 h -0.14107 v -0.141054 h -0.14106 v 0 -0.141054 -0.141053 h 0.14106 0.14107 v 0 h 0.14107 z m 0.84641,2.115808 v 0 0 0.14105 l -0.14107,0.14106 h -0.14107 v 0 l -0.14107,-0.14106 v 0 0 -0.14105 -0.14106 h 0.14107 v 0 l 0.14107,-0.14105 v 0.14105 h 0.14107 z m 0.84641,2.1158 v 0 0 0.14106 h -0.14107 v 0.14105 l -0.14107,-0.14105 h -0.14107 v 0 0 -0.14106 -0.14105 0 h 0.14107 v -0.14105 l 0.14107,0.14105 v 0 z m 0.8464,2.11581 v 0 0 l -0.14107,0.14106 v 0 0.14105 h -0.14106 l -0.14107,-0.14105 v 0 0 0 -0.28211 0 h 0.14107 v -0.14106 l 0.14106,0.14106 v 0 z m 0.70534,2.11581 v 0 0 0.14105 0 l -0.14107,0.14106 v 0 l -0.14106,-0.14106 h -0.14107 v 0 -0.28211 h 0.14107 v 0 l 0.14106,-0.14105 v 0 l 0.14107,0.14105 z m 0.84641,1.97475 v 0 0.14105 0.14106 l -0.14107,0.14105 h -0.14107 v -0.14105 l -0.14106,-0.14106 v 0 -0.14105 0 l 0.14106,-0.14105 h 0.14107 v 0 z m 0.84641,2.11581 v 0 0.14105 0.14105 h -0.14107 -0.28214 v 0 -0.14105 0 0 -0.14105 0 l 0.14107,-0.14106 v 0 h 0.14107 v 0.14106 z m 0.8464,2.1158 v 0 0.14106 h -0.14106 v 0.14105 0 h -0.14107 -0.14107 v -0.14105 0 H 733.6942 V 112.843 h 0.14107 l 0.14107,-0.14105 v 0 h 0.14107 v 0.14105 z m 0.70534,2.11581 v 0 0.14105 0 0.14106 h -0.14106 v 0 h -0.14107 l -0.14107,-0.14106 v 0 0 -0.14105 l 0.14107,-0.14105 h 0.14107 z m 0.84641,2.11581 v 0 0.14105 0 l -0.14107,0.14105 h -0.14106 v 0 l -0.14107,-0.14105 v 0 -0.14105 0 l 0.14107,-0.14106 v 0 h 0.14106 z m 0.84641,2.1158 v 0 0.14106 0 l -0.14107,0.14105 h -0.28213 v 0 -0.14105 0 l -0.14107,-0.14106 h 0.14107 v -0.14105 h 0.14106 v 0 h 0.14107 z m 0.70534,2.11581 v 0 0.14105 0 0.14106 h -0.14107 v 0 h -0.14107 v 0 l -0.14107,-0.14106 v 0 -0.14105 0 l 0.14107,-0.14106 v 0 h 0.14107 0.14107 z m 0.84641,2.1158 v 0 0.14106 0 0.14105 h -0.14107 -0.14107 v 0 h -0.14107 v -0.14105 0 -0.14106 0 l 0.14107,-0.14105 h 0.14107 0.14107 z m 0.8464,2.11581 v 0 0.14105 l -0.14106,0.14106 v 0 h -0.14107 v 0 h -0.14107 v -0.14106 0 -0.14105 0 l 0.14107,-0.14105 v 0 h 0.14107 z m 0.84641,2.11581 v 0 l -0.14107,0.14105 v 0 0.14105 h -0.28213 v -0.14105 0 0 l -0.14107,-0.14105 h 0.14107 v -0.14106 h 0.14107 v 0 h 0.14106 z m 0.70534,2.1158 v 0 0.14106 0 l -0.14107,0.14105 v 0 h -0.14107 v -0.14105 h -0.14106 v 0 -0.14106 0 l 0.14106,-0.14105 v 0 h 0.14107 0.14107 z m 0.84641,2.11581 v 0 0.14105 0 l -0.14107,0.14106 h -0.14107 v 0 l -0.14107,-0.14106 v 0 0 -0.14105 -0.14105 h 0.14107 0.14107 0.14107 z m 0.84641,2.11581 v 0 0 0.14105 l -0.14107,0.14105 h -0.14107 v 0 l -0.14107,-0.14105 v 0 0 -0.14105 -0.14106 h 0.14107 v -0.14105 l 0.14107,0.14105 v 0 z m 0.8464,2.1158 v 0 0 l -0.14106,0.14106 v 0.14105 l -0.28214,-0.14105 v 0 0 0 l -0.14107,-0.14106 0.14107,-0.14105 v 0 h 0.14107 v -0.14106 l 0.14107,0.14106 v 0 z m 0.70534,2.11581 v 0 0 0.14105 0 l -0.14107,0.14106 v 0 l -0.14106,-0.14106 v 0 h -0.14107 v 0 -0.14105 -0.14106 h 0.14107 v 0 l 0.14106,-0.14105 v 0.14105 h 0.14107 z m 0.84641,2.1158 v 0 0 0.14106 0 l -0.14107,0.14105 h -0.14107 v -0.14105 h -0.14106 v 0 0 -0.14106 -0.14105 h 0.14106 0.14107 0.14107 z m 0.84641,2.11581 v 0 0 0.14105 h -0.14107 v 0.14106 h -0.14107 v -0.14106 h -0.14107 v 0 0 -0.14105 -0.14105 l 0.14107,-0.14106 v 0 h 0.14107 v 0.14106 z m 0.8464,1.97475 v 0 0.14106 l -0.14106,0.14105 v 0 h -0.14107 -0.14107 v 0 -0.14105 0 -0.14106 0 l 0.14107,-0.14105 v 0 h 0.14107 v 0.14105 z m 0.70534,2.11581 v 0 0.14105 0 0.14106 h -0.14106 v 0 h -0.14107 l -0.14107,-0.14106 v 0 -0.14105 h 0.14107 v -0.14105 h 0.14107 v 0 z m 0.84641,2.11581 v 0 0.14105 0 0.14105 h -0.14107 -0.14106 v 0 l -0.14107,-0.14105 v 0 -0.14105 0 l 0.14107,-0.14106 h 0.14106 z m 0.84641,2.1158 v 0 0.14106 0 l -0.14107,0.14105 v 0 h -0.14107 -0.14106 v -0.14105 0 -0.14106 0 l 0.14106,-0.14105 v 0 h 0.14107 v 0.14105 z m 0.84641,2.11581 v 0 0.14105 h -0.14107 v 0.14106 h -0.14107 -0.14107 v 0 -0.14106 0 l -0.14106,-0.14105 v 0 l 0.14106,-0.14106 h 0.14107 v 0 h 0.14107 v 0.14106 z m 0.70534,2.1158 v 0 0.14106 0 0.14105 h -0.14107 v 0 h -0.14107 l -0.14107,-0.14105 v 0 -0.14106 0 l 0.14107,-0.14105 v 0 h 0.14107 v 0 z"
       id="path3208" />
    <path
       transform="matrix(0.26458333,0,0,0.26458333,311.52258,130.84629)"
       style="fill:none;stroke:#000000;stroke-width:0.423204px;stroke-linecap:round;stroke-linejoin:round;stroke-miterlimit:4;stroke-dasharray:none;stroke-opacity:1"
       clip-path="url(#clipEmfPath1-7)"
       d="m 750.34022,155.44124 -0.70534,0.42316 -0.70534,0.42316 -0.42321,0.56421 -0.4232,0.70527 -0.14107,0.70527 -0.14107,0.28211 v 0.42316 0.42316 0.28211 l 0.14107,0.42316 0.14107,0.42316 0.28214,0.70527 0.56427,0.56422 0.56427,0.42316 0.56427,0.42316 0.70534,0.28211 h 0.4232 0.42321 0.28213 0.42321 l 0.4232,-0.14106 h 0.4232 v 0 l 0.56428,-0.42316 0.70534,-0.42316 0.4232,-0.56422 0.4232,-0.70526 0.14107,-0.70527 0.14107,-0.42316 v -0.28211 -0.42316 -0.42316 l -0.14107,-0.42317 -0.14107,-0.2821 -0.28213,-0.70527 -0.56427,-0.56422 -0.56428,-0.56421 -0.56427,-0.28211 -0.70534,-0.28211 -0.4232,-0.14105 h -0.4232 -0.28214 l -0.4232,0.14105 h -0.42321 l -0.28213,0.14106"
       id="path3210" />
    <path
       transform="matrix(0.26458333,0,0,0.26458333,311.52258,130.84629)"
       style="fill:none;stroke:#000000;stroke-width:0.423204px;stroke-linecap:round;stroke-linejoin:round;stroke-miterlimit:4;stroke-dasharray:none;stroke-opacity:1"
       clip-path="url(#clipEmfPath1-7)"
       d="M 581.48193,277.59379 H 809.44767"
       id="path3212" />
    <path
       transform="matrix(0.26458333,0,0,0.26458333,311.52258,130.84629)"
       style="fill:#000000;fill-opacity:1;fill-rule:evenodd;stroke:none"
       clip-path="url(#clipEmfPath1-7)"
       d="m 808.17806,272.51585 10.29796,5.07794 -10.29796,5.21899 z"
       id="path3214" />
    <g
       transform="matrix(0.26458333,0,0,0.26458333,311.52258,130.84629)"
       clip-path="url(#clipEmfPath1-7)"
       id="g3222">
      <text
         xml:space="preserve"
         style="font-style:normal;font-variant:normal;font-weight:400;font-size:15.125px;line-height:125%;font-family:Helvetica;text-align:start;letter-spacing:0px;word-spacing:0px;text-anchor:start;fill:#000000;fill-opacity:1;stroke:none"
         transform="translate(651.02841,274.63166)"
         x="0"
         y="0"
         id="text3220"><tspan
           sodipodi:role="line"
           x="0"
           y="0"
           id="tspan3218"><tspan
             dx="0"
             dy="0"
             style="font-style:normal;font-variant:normal;font-weight:400;font-size:15.125px;font-family:Helvetica;fill:#000000"
             id="tspan3216">runFinalization</tspan></tspan></text>
    </g>
    <path
       transform="matrix(0.26458333,0,0,0.26458333,311.52258,130.84629)"
       style="fill:#000000;fill-opacity:1;fill-rule:nonzero;stroke:#000000;stroke-width:0.141068px;stroke-linecap:round;stroke-linejoin:round;stroke-miterlimit:4;stroke-dasharray:none;stroke-opacity:1"
       clip-path="url(#clipEmfPath1-7)"
       d="m 823.55446,94.364961 v 6.770579 h -0.14107 v 0.14105 h -0.14106 v 0 h -0.14107 v 0 l -0.14107,-0.14105 v 0 -6.770579 -0.141054 l 0.14107,-0.141053 v 0 h 0.14107 v 0 h 0.14106 v 0.141053 z m 0,10.720089 v 6.77058 l -0.14107,0.14105 v 0 l -0.14106,0.14105 -0.14107,-0.14105 h -0.14107 v -0.14105 -6.77058 0 l 0.14107,-0.14106 v 0 h 0.14107 v 0 h 0.14106 v 0.14106 z m 0,10.86114 v 6.77058 l -0.14107,0.14105 v 0 l -0.14106,0.14105 v 0 h -0.14107 v -0.14105 h -0.14107 v -0.14105 -6.77058 -0.14106 h 0.14107 v 0 h 0.14107 v 0 h 0.14106 v 0 z m 0,10.86113 v 6.77058 h -0.14107 v 0.14106 h -0.14106 v 0.14105 l -0.14107,-0.14105 v 0 l -0.14107,-0.14106 v 0 -6.77058 -0.14105 h 0.14107 v -0.14105 h 0.14107 v 0 l 0.14106,0.14105 v 0 z m 0,10.86114 v 6.77058 h -0.14107 v 0.14106 h -0.14106 v 0 h -0.14107 v 0 l -0.14107,-0.14106 v 0 -6.77058 -0.14105 h 0.14107 v -0.14105 h 0.14107 v 0 l 0.14106,0.14105 v 0 z m 0,10.86114 v 6.77058 h -0.14107 v 0.14106 h -0.14106 v 0 h -0.14107 v 0 l -0.14107,-0.14106 v 0 -6.77058 -0.14105 l 0.14107,-0.14106 v 0 h 0.14107 v 0 h 0.14106 v 0.14106 z m 0,10.72009 v 6.77058 l -0.14107,0.14105 v 0 l -0.14106,0.14106 -0.14107,-0.14106 h -0.14107 v -0.14105 -6.77058 0 l 0.14107,-0.14106 v 0 h 0.14107 v 0 h 0.14106 v 0.14106 z m 0,10.86114 v 6.77058 l -0.14107,0.14105 v 0 l -0.14106,0.14105 v 0 h -0.14107 v -0.14105 h -0.14107 v -0.14105 -6.77058 -0.14106 h 0.14107 v 0 h 0.14107 v 0 h 0.14106 v 0 z m 0,10.86114 v 6.77058 h -0.14107 v 0.14105 h -0.14106 v 0.14105 l -0.14107,-0.14105 v 0 l -0.14107,-0.14105 v 0 -6.77058 -0.14106 h 0.14107 v -0.14105 h 0.14107 v 0 l 0.14106,0.14105 v 0 z m 0,10.86113 v 6.77058 h -0.14107 v 0.14106 h -0.14106 v 0 h -0.14107 v 0 l -0.14107,-0.14106 v 0 -6.77058 -0.14105 h 0.14107 V 191.551 h 0.14107 v 0 l 0.14106,0.14105 v 0 z m 0,10.86114 v 6.77058 h -0.14107 v 0.14106 h -0.14106 v 0 h -0.14107 v 0 l -0.14107,-0.14106 v 0 -6.77058 -0.14105 l 0.14107,-0.14105 v 0 h 0.14107 v 0 h 0.14106 v 0.14105 z m 0,10.72009 v 6.77058 l -0.14107,0.14105 v 0 l -0.14106,0.14106 -0.14107,-0.14106 h -0.14107 v -0.14105 -6.77058 0 l 0.14107,-0.14105 v 0 h 0.14107 v 0 h 0.14106 v 0.14105 z m 0,10.86114 v 6.77058 l -0.14107,0.14105 v 0 l -0.14106,0.14106 v 0 h -0.14107 v -0.14106 h -0.14107 v -0.14105 -6.77058 -0.14106 h 0.14107 v 0 h 0.14107 v 0 h 0.14106 v 0 z m 0,10.86114 v 6.77058 h -0.14107 v 0.14105 h -0.14106 v 0.14105 l -0.14107,-0.14105 v 0 l -0.14107,-0.14105 v 0 -6.77058 -0.14106 h 0.14107 v -0.14105 h 0.14107 v 0 l 0.14106,0.14105 v 0 z m 0,10.86114 v 6.77058 h -0.14107 v 0.14105 h -0.14106 v 0 h -0.14107 v 0 l -0.14107,-0.14105 v 0 -6.77058 -0.14106 h 0.14107 v -0.14105 h 0.14107 v 0 l 0.14106,0.14105 v 0 z m 0,10.86113 v 6.77059 h -0.14107 v 0.14105 h -0.14106 v 0 h -0.14107 v 0 l -0.14107,-0.14105 v 0 -6.77059 -0.14105 l 0.14107,-0.14105 v 0 h 0.14107 v 0 h 0.14106 v 0.14105 z m 0,10.72009 v 6.77058 l -0.14107,0.14105 v 0 l -0.14106,0.14106 -0.14107,-0.14106 h -0.14107 v -0.14105 -6.77058 0 l 0.14107,-0.14105 v 0 h 0.14107 v 0 h 0.14106 v 0.14105 z m 0,10.86114 v 6.77058 l -0.14107,0.14105 v 0 l -0.14106,0.14106 v 0 h -0.14107 v -0.14106 h -0.14107 v -0.14105 -6.77058 -0.14105 h 0.14107 v 0 h 0.14107 v 0 h 0.14106 v 0 z m 0,10.86114 v 6.77058 h -0.14107 v 0.14105 h -0.14106 v 0.14106 l -0.14107,-0.14106 v 0 l -0.14107,-0.14105 v 0 -6.77058 -0.14106 h 0.14107 v -0.14105 h 0.14107 v 0 l 0.14106,0.14105 v 0 z m 0,10.86114 v 6.77058 h -0.14107 v 0.14105 h -0.14106 v 0 h -0.14107 v 0 l -0.14107,-0.14105 v 0 -6.77058 -0.14106 h 0.14107 v -0.14105 h 0.14107 v 0 l 0.14106,0.14105 v 0 z m 0,10.86114 v 6.77058 h -0.14107 v 0.14105 h -0.14106 v 0 h -0.14107 v 0 l -0.14107,-0.14105 v 0 -6.77058 -0.14106 l 0.14107,-0.14105 v 0 h 0.14107 v 0 h 0.14106 v 0.14105 z m 0,10.72008 v 6.77058 l -0.14107,0.14106 v 0 l -0.14106,0.14105 -0.14107,-0.14105 h -0.14107 v -0.14106 -6.77058 0 l 0.14107,-0.14105 v 0 h 0.14107 v 0 h 0.14106 v 0.14105 z m 0,10.86114 v 6.77058 l -0.14107,0.14105 v 0 l -0.14106,0.14106 v 0 h -0.14107 v -0.14106 h -0.14107 v -0.14105 -6.77058 -0.14105 h 0.14107 v 0 h 0.14107 v 0 h 0.14106 v 0 z m 0,10.86114 v 6.77058 h -0.14107 v 0.14105 h -0.14106 v 0.14106 l -0.14107,-0.14106 v 0 l -0.14107,-0.14105 v 0 -6.77058 -0.14105 h 0.14107 v -0.14106 h 0.14107 v 0 l 0.14106,0.14106 v 0 z"
       id="path3224" />
    <path
       transform="matrix(0.26458333,0,0,0.26458333,311.52258,130.84629)"
       style="fill:#ffffff;fill-opacity:1;fill-rule:evenodd;stroke:none"
       clip-path="url(#clipEmfPath1-7)"
       d="m 785.74826,52.048835 v 42.316126 h 75.04813 V 52.048835 Z"
       id="path3226" />
    <path
       transform="matrix(0.26458333,0,0,0.26458333,311.52258,130.84629)"
       style="fill:none;stroke:#000000;stroke-width:0.423204px;stroke-linecap:round;stroke-linejoin:round;stroke-miterlimit:4;stroke-dasharray:none;stroke-opacity:1"
       clip-path="url(#clipEmfPath1-7)"
       d="m 785.74826,94.364961 h 75.04813 V 52.048835 h -75.04813 z"
       id="path3228" />
    <g
       transform="matrix(0.26458333,0,0,0.26458333,311.52258,130.84629)"
       clip-path="url(#clipEmfPath1-7)"
       id="g3244">
      <text
         xml:space="preserve"
         style="font-style:normal;font-variant:normal;font-weight:400;font-size:15.125px;line-height:125%;font-family:Helvetica;text-align:start;letter-spacing:0px;word-spacing:0px;text-anchor:start;fill:#000000;fill-opacity:1;stroke:none"
         transform="translate(793.9302,68.552124)"
         x="0"
         y="0"
         id="text3236"><tspan
           sodipodi:role="line"
           x="0"
           y="0"
           id="tspan3234"><tspan
             dx="0"
             dy="0"
             style="font-style:normal;font-variant:normal;font-weight:400;font-size:15.125px;font-family:Helvetica;fill:#000000"
             id="tspan3230">System </tspan><tspan
             dx="0"
             dy="0"
             style="font-style:normal;font-variant:normal;font-weight:400;font-size:15.125px;font-family:Helvetica;fill:#000000"
             id="tspan3232">: </tspan></tspan></text>
      <text
         xml:space="preserve"
         style="font-style:normal;font-variant:normal;font-weight:400;font-size:15.125px;line-height:125%;font-family:Helvetica;text-align:start;letter-spacing:0px;word-spacing:0px;text-anchor:start;fill:#000000;fill-opacity:1;stroke:none"
         transform="translate(793.9302,68.552124)"
         x="10.439025"
         y="18.05488"
         id="text3242"><tspan
           sodipodi:role="line"
           x="10.439025"
           y="18.05488"
           id="tspan3240"><tspan
             dx="0"
             dy="0"
             style="font-style:normal;font-variant:normal;font-weight:400;font-size:15.125px;font-family:Helvetica;fill:#000000"
             id="tspan3238">Class</tspan></tspan></text>
    </g>
    <path
       transform="matrix(0.26458333,0,0,0.26458333,311.52258,130.84629)"
       style="fill:none;stroke:#000000;stroke-width:0.423204px;stroke-linecap:round;stroke-linejoin:round;stroke-miterlimit:4;stroke-dasharray:none;stroke-opacity:1"
       clip-path="url(#clipEmfPath1-7)"
       d="m 717.33033,159.67285 v 31.73709"
       id="path3246" />
    <path
       transform="matrix(0.26458333,0,0,0.26458333,311.52258,130.84629)"
       style="fill:none;stroke:#000000;stroke-width:0.423204px;stroke-linecap:round;stroke-linejoin:round;stroke-miterlimit:4;stroke-dasharray:none;stroke-opacity:1"
       clip-path="url(#clipEmfPath1-7)"
       d="m 787.15894,159.67285 v 31.73709"
       id="path3248" />
    <path
       transform="matrix(0.26458333,0,0,0.26458333,311.52258,130.84629)"
       style="fill:#ffffff;fill-opacity:1;fill-rule:evenodd;stroke:none"
       clip-path="url(#clipEmfPath1-7)"
       d="m 679.24199,15.79802 v 50.779352 h 73.77852 V 15.79802 Z"
       id="path3250" />
    <path
       transform="matrix(0.26458333,0,0,0.26458333,311.52258,130.84629)"
       style="fill:none;stroke:#000000;stroke-width:0.423204px;stroke-linecap:round;stroke-linejoin:round;stroke-miterlimit:4;stroke-dasharray:none;stroke-opacity:1"
       clip-path="url(#clipEmfPath1-7)"
       d="m 679.24199,66.577372 h 73.77852 V 15.79802 h -73.77852 z"
       id="path3252" />
    <g
       transform="matrix(0.26458333,0,0,0.26458333,311.52258,130.84629)"
       clip-path="url(#clipEmfPath1-7)"
       id="g3264">
      <text
         xml:space="preserve"
         style="font-style:normal;font-variant:normal;font-weight:400;font-size:15.125px;line-height:119.371%;font-family:Helvetica;text-align:start;letter-spacing:0px;word-spacing:0px;text-anchor:start;fill:#000000;fill-opacity:1;stroke:none"
         transform="translate(686.71859,36.673976)"
         x="0"
         y="0"
         id="text3262"><tspan
           sodipodi:role="line"
           x="0"
           y="0"
           id="tspan3256"><tspan
             dx="0"
             dy="0"
             style="font-style:normal;font-variant:normal;font-weight:400;font-size:15.125px;font-family:Helvetica;fill:#000000"
             id="tspan3254">active </tspan></tspan><tspan
           sodipodi:role="line"
           x="0"
           y="18.054863"
           id="tspan3260"><tspan
             dx="0"
             dy="0"
             style="font-style:normal;font-variant:normal;font-weight:400;font-size:15.125px;font-family:Helvetica;fill:#000000"
             id="tspan3258">object</tspan></tspan></text>
    </g>
    <path
       transform="matrix(0.26458333,0,0,0.26458333,311.52258,130.84629)"
       style="fill:#ffffff;fill-opacity:1;fill-rule:evenodd;stroke:none"
       clip-path="url(#clipEmfPath1-7)"
       d="m 734.11741,15.79802 18.9031,19.042257 V 15.79802 Z"
       id="path3266" />
    <path
       transform="matrix(0.26458333,0,0,0.26458333,311.52258,130.84629)"
       style="fill:none;stroke:#ffffff;stroke-width:0.423204px;stroke-linecap:round;stroke-linejoin:round;stroke-miterlimit:4;stroke-dasharray:none;stroke-opacity:1"
       clip-path="url(#clipEmfPath1-7)"
       d="m 734.11741,15.79802 18.9031,19.042257 V 15.79802 Z"
       id="path3268" />
    <path
       transform="matrix(0.26458333,0,0,0.26458333,311.52258,130.84629)"
       style="fill:#000000;fill-opacity:1;fill-rule:evenodd;stroke:none"
       clip-path="url(#clipEmfPath1-7)"
       d="M 753.02051,34.840277 734.11741,15.79802 v 19.042257 z"
       id="path3270" />
    <path
       transform="matrix(0.26458333,0,0,0.26458333,311.52258,130.84629)"
       style="fill:none;stroke:#000000;stroke-width:0.423204px;stroke-linecap:round;stroke-linejoin:round;stroke-miterlimit:4;stroke-dasharray:none;stroke-opacity:1"
       clip-path="url(#clipEmfPath1-7)"
       d="M 753.02051,34.840277 734.11741,15.79802 v 19.042257 z"
       id="path3272" />
  </g>
</svg>
