<?xml version="1.0" encoding="UTF-8" standalone="no"?>
<svg
   xmlns:dc="http://purl.org/dc/elements/1.1/"
   xmlns:cc="http://creativecommons.org/ns#"
   xmlns:rdf="http://www.w3.org/1999/02/22-rdf-syntax-ns#"
   xmlns:svg="http://www.w3.org/2000/svg"
   xmlns="http://www.w3.org/2000/svg"
   xmlns:sodipodi="http://sodipodi.sourceforge.net/DTD/sodipodi-0.dtd"
   xmlns:inkscape="http://www.inkscape.org/namespaces/inkscape"
   width="226.95001mm"
   height="100.14654mm"
   viewBox="0 0 226.95001 100.14653"
   version="1.1"
   id="svg8"
   inkscape:version="1.0 (4035a4fb49, 2020-05-01)"
   sodipodi:docname="Fig.F25.10.svg">
  <defs
     id="defs2">
    <clipPath
       id="clipEmfPath1"
       clipPathUnits="userSpaceOnUse">
      <path
         id="path833"
         d="M 0,0 H 863.47668 V 389.36402 H 0 Z" />
    </clipPath>
    <pattern
       y="0"
       x="0"
       height="6"
       width="6"
       patternUnits="userSpaceOnUse"
       id="EMFhbasepattern" />
    <clipPath
       id="clipEmfPath1-6"
       clipPathUnits="userSpaceOnUse">
      <path
         id="path974"
         d="M 0,0 H 863.47668 V 346.35009 H 0 Z" />
    </clipPath>
    <pattern
       y="0"
       x="0"
       height="6"
       width="6"
       patternUnits="userSpaceOnUse"
       id="EMFhbasepattern-7" />
    <clipPath
       id="clipEmfPath1-8"
       clipPathUnits="userSpaceOnUse">
      <path
         id="path1103"
         d="M 0,0 H 863.47668 V 552.14537 H 0 Z" />
    </clipPath>
    <pattern
       y="0"
       x="0"
       height="6"
       width="6"
       patternUnits="userSpaceOnUse"
       id="EMFhbasepattern-8" />
    <clipPath
       id="clipEmfPath1-82"
       clipPathUnits="userSpaceOnUse">
      <path
         id="path1499"
         d="M 0,0 H 863.47668 V 374.81284 H 0 Z" />
    </clipPath>
    <pattern
       y="0"
       x="0"
       height="6"
       width="6"
       patternUnits="userSpaceOnUse"
       id="EMFhbasepattern-9" />
    <clipPath
       id="clipEmfPath1-64"
       clipPathUnits="userSpaceOnUse">
      <path
         id="path1664"
         d="M 0,0 H 743.54936 V 531.99758 H 0 Z" />
    </clipPath>
    <pattern
       y="0"
       x="0"
       height="6"
       width="6"
       patternUnits="userSpaceOnUse"
       id="EMFhbasepattern-85" />
    <clipPath
       id="clipEmfPath1-1"
       clipPathUnits="userSpaceOnUse">
      <path
         id="path1754"
         d="M 0,0 H 863.47668 V 317.88734 H 0 Z" />
    </clipPath>
    <pattern
       y="0"
       x="0"
       height="6"
       width="6"
       patternUnits="userSpaceOnUse"
       id="EMFhbasepattern-89" />
    <clipPath
       id="clipEmfPath1-86"
       clipPathUnits="userSpaceOnUse">
      <path
         id="path1961"
         d="M 0,0 H 863.47668 V 295.1811 H 0 Z" />
    </clipPath>
    <pattern
       y="0"
       x="0"
       height="6"
       width="6"
       patternUnits="userSpaceOnUse"
       id="EMFhbasepattern-1" />
    <clipPath
       id="clipEmfPath1-0"
       clipPathUnits="userSpaceOnUse">
      <path
         id="path2372"
         d="M 0,0 H 863.47668 V 320.28589 H 0 Z" />
    </clipPath>
    <pattern
       y="0"
       x="0"
       height="6"
       width="6"
       patternUnits="userSpaceOnUse"
       id="EMFhbasepattern-3" />
    <clipPath
       id="clipEmfPath1-2"
       clipPathUnits="userSpaceOnUse">
      <path
         id="path2540"
         d="M 0,0 H 863.47668 V 430.61902 H 0 Z" />
    </clipPath>
    <pattern
       y="0"
       x="0"
       height="6"
       width="6"
       patternUnits="userSpaceOnUse"
       id="EMFhbasepattern-5" />
    <clipPath
       id="clipEmfPath1-7"
       clipPathUnits="userSpaceOnUse">
      <path
         id="path2978"
         d="M 0,0 H 863.47668 V 356.58389 H 0 Z" />
    </clipPath>
    <pattern
       y="0"
       x="0"
       height="6"
       width="6"
       patternUnits="userSpaceOnUse"
       id="EMFhbasepattern-0" />
    <clipPath
       id="clipEmfPath1-67"
       clipPathUnits="userSpaceOnUse">
      <path
         id="path3428"
         d="M 0,0 H 863.47668 V 272.15506 H 0 Z" />
    </clipPath>
    <pattern
       y="0"
       x="0"
       height="6"
       width="6"
       patternUnits="userSpaceOnUse"
       id="EMFhbasepattern-34" />
    <clipPath
       id="clipEmfPath1-9"
       clipPathUnits="userSpaceOnUse">
      <path
         id="path3602"
         d="M 0,0 H 863.47668 V 310.21199 H 0 Z" />
    </clipPath>
    <pattern
       y="0"
       x="0"
       height="6"
       width="6"
       patternUnits="userSpaceOnUse"
       id="EMFhbasepattern-03" />
    <clipPath
       id="clipEmfPath1-3"
       clipPathUnits="userSpaceOnUse">
      <path
         id="path3821"
         d="M 0,0 H 863.47668 V 220.98607 H 0 Z" />
    </clipPath>
    <pattern
       y="0"
       x="0"
       height="6"
       width="6"
       patternUnits="userSpaceOnUse"
       id="EMFhbasepattern-2" />
    <clipPath
       id="clipEmfPath1-5"
       clipPathUnits="userSpaceOnUse">
      <path
         id="path3983"
         d="M 0,0 H 431.41853 V 527.68019 H 0 Z" />
    </clipPath>
    <pattern
       y="0"
       x="0"
       height="6"
       width="6"
       patternUnits="userSpaceOnUse"
       id="EMFhbasepattern-4" />
    <clipPath
       id="clipEmfPath1-28"
       clipPathUnits="userSpaceOnUse">
      <path
         id="path4070"
         d="M 0,0 H 863.47668 V 498.09812 H 0 Z" />
    </clipPath>
    <pattern
       y="0"
       x="0"
       height="6"
       width="6"
       patternUnits="userSpaceOnUse"
       id="EMFhbasepattern-39" />
    <clipPath
       id="clipEmfPath1-05"
       clipPathUnits="userSpaceOnUse">
      <path
         id="path4475"
         d="M 0,0 H 863.47668 V 238.73531 H 0 Z" />
    </clipPath>
    <pattern
       y="0"
       x="0"
       height="6"
       width="6"
       patternUnits="userSpaceOnUse"
       id="EMFhbasepattern-83" />
    <clipPath
       id="clipEmfPath1-79"
       clipPathUnits="userSpaceOnUse">
      <path
         id="path4715"
         d="M 0,0 H 863.47668 V 519.68504 H 0 Z" />
    </clipPath>
    <pattern
       y="0"
       x="0"
       height="6"
       width="6"
       patternUnits="userSpaceOnUse"
       id="EMFhbasepattern-24" />
    <clipPath
       id="clipEmfPath1-02"
       clipPathUnits="userSpaceOnUse">
      <path
         id="path5213"
         d="M 0,0 H 863.47668 V 495.69958 H 0 Z" />
    </clipPath>
    <pattern
       y="0"
       x="0"
       height="6"
       width="6"
       patternUnits="userSpaceOnUse"
       id="EMFhbasepattern-79" />
    <clipPath
       id="clipEmfPath1-54"
       clipPathUnits="userSpaceOnUse">
      <path
         id="path5675"
         d="M 0,0 H 863.47668 V 422.94367 H 0 Z" />
    </clipPath>
    <pattern
       y="0"
       x="0"
       height="6"
       width="6"
       patternUnits="userSpaceOnUse"
       id="EMFhbasepattern-08" />
    <clipPath
       id="clipEmfPath1-4"
       clipPathUnits="userSpaceOnUse">
      <path
         id="path6137"
         d="M 0,0 H 863.47668 V 510.41066 H 0 Z" />
    </clipPath>
    <pattern
       y="0"
       x="0"
       height="6"
       width="6"
       patternUnits="userSpaceOnUse"
       id="EMFhbasepattern-26" />
    <clipPath
       clipPathUnits="userSpaceOnUse"
       id="clipEmfPath1-22">
      <path
         d="M 0,0 H 863.47668 V 422.94367 H 0 Z"
         id="path7101" />
    </clipPath>
    <pattern
       id="EMFhbasepattern-23"
       patternUnits="userSpaceOnUse"
       width="6"
       height="6"
       x="0"
       y="0" />
    <clipPath
       clipPathUnits="userSpaceOnUse"
       id="clipEmfPath1-051">
      <path
         d="M 0,0 H 863.47668 V 395.60024 H 0 Z"
         id="path7563" />
    </clipPath>
    <pattern
       id="EMFhbasepattern-86"
       patternUnits="userSpaceOnUse"
       width="6"
       height="6"
       x="0"
       y="0" />
  </defs>
  <sodipodi:namedview
     id="base"
     pagecolor="#ffffff"
     bordercolor="#666666"
     borderopacity="1.0"
     inkscape:pageopacity="0.0"
     inkscape:pageshadow="2"
     inkscape:zoom="0.98994949"
     inkscape:cx="398.28542"
     inkscape:cy="153.72058"
     inkscape:document-units="mm"
     inkscape:current-layer="layer1"
     inkscape:document-rotation="0"
     showgrid="false"
     fit-margin-top="0"
     fit-margin-left="0"
     fit-margin-right="0"
     fit-margin-bottom="0.1"
     inkscape:window-width="1920"
     inkscape:window-height="1017"
     inkscape:window-x="1272"
     inkscape:window-y="-8"
     inkscape:window-maximized="1" />
  <metadata
     id="metadata5">
    <rdf:RDF>
      <cc:Work
         rdf:about="">
        <dc:format>image/svg+xml</dc:format>
        <dc:type
           rdf:resource="http://purl.org/dc/dcmitype/StillImage" />
        <dc:title></dc:title>
      </cc:Work>
    </rdf:RDF>
  </metadata>
  <g
     inkscape:label="Layer 1"
     inkscape:groupmode="layer"
     id="layer1"
     transform="translate(-354.50555,-113.51822)">
    <path
       transform="matrix(0.26458333,0,0,0.26458333,353.77202,109.67367)"
       style="fill:#ffffff;fill-opacity:1;fill-rule:evenodd;stroke:none"
       clip-path="url(#clipEmfPath1-051)"
       d="m 124.00191,140.32549 h 2.18431 l 2.01629,-0.16805 2.01629,-0.33611 2.01629,-0.33611 1.84827,-0.33611 2.01629,-0.67222 1.84827,-0.50416 1.84827,-0.84028 1.68024,-0.84027 1.84827,-0.84027 1.68024,-1.00833 1.51222,-1.00832 1.68024,-1.17639 1.51222,-1.17638 1.51222,-1.17638 1.34419,-1.34443 1.34419,-1.51249 1.17617,-1.34444 1.3442,-1.51249 1.00814,-1.68055 1.17617,-1.51249 0.84012,-1.68054 1.00815,-1.8486 0.6721,-1.68054 0.84012,-1.8486 0.50407,-2.01666 0.6721,-1.8486 0.33605,-1.8486 0.50407,-2.01665 0.16802,-2.01665 0.16803,-2.18471 v -2.016655 0 -2.016654 l -0.16803,-2.016654 -0.16802,-2.016654 -0.50407,-2.016653 -0.33605,-2.016654 -0.6721,-1.848599 -0.50407,-1.8486 -0.84012,-1.848599 -0.6721,-1.848599 -1.00815,-1.680545 -0.84012,-1.680545 -1.17617,-1.680544 -1.00814,-1.512491 -1.3442,-1.680545 -1.17617,-1.344435 -1.34419,-1.512491 -1.34419,-1.344435 -1.51222,-1.176382 -1.51222,-1.176381 -1.68024,-1.176382 -1.51222,-1.008326 -1.68024,-1.008327 -1.84827,-0.840273 -1.68024,-0.840272 -1.84827,-0.672218 -1.84827,-0.672218 -2.01629,-0.504163 -1.84827,-0.504164 -2.01629,-0.336109 -2.01629,-0.336109 -2.01629,-0.168054 h -2.18431 v 0 H 43.35026 41.333968 l -2.016291,0.168054 -2.016291,0.336109 -2.016291,0.336109 -2.016291,0.504164 -1.848267,0.504163 -1.848267,0.672218 -1.848267,0.672218 -1.848267,0.840272 -1.680242,0.840273 -1.680243,1.008327 -1.680243,1.008326 -1.512218,1.176382 -1.512218,1.176381 -1.512219,1.176382 -1.344194,1.344435 -1.344194,1.512491 -1.344194,1.344435 -1.17617,1.680545 -1.1761696,1.512491 -1.0081455,1.680544 -1.0081456,1.680545 -0.8401213,1.680545 -0.8401213,1.848599 -0.6720971,1.848599 -0.672097,1.8486 L 4.3686308,89.909146 3.864558,91.9258 3.5285095,93.942453 3.192461,95.959107 v 2.016654 l -0.1680243,2.016654 0.1680243,2.016655 0.1680242,2.18471 0.1680243,2.01665 0.3360485,2.01665 0.5040728,1.8486 0.5040728,1.8486 0.672097,2.01666 0.6720971,1.8486 0.8401213,1.68054 0.8401213,1.8486 1.0081456,1.68054 1.0081455,1.51249 1.1761696,1.68055 1.17617,1.51249 1.344194,1.34444 1.344194,1.51249 1.344194,1.34443 1.512219,1.17638 1.512218,1.17638 1.512218,1.17639 1.680243,1.00832 1.680243,1.00833 1.680242,0.84027 1.848267,0.84027 1.848267,0.84028 1.848267,0.50416 1.848267,0.67222 2.016291,0.33611 2.016291,0.33611 2.016291,0.33611 2.016291,0.16805 h 2.016292 v 0 z"
       id="path7569" />
    <path
       transform="matrix(0.26458333,0,0,0.26458333,353.77202,109.67367)"
       style="fill:none;stroke:#000000;stroke-width:0.504073px;stroke-linecap:round;stroke-linejoin:round;stroke-miterlimit:4;stroke-dasharray:none;stroke-opacity:1"
       clip-path="url(#clipEmfPath1-051)"
       d="m 124.00191,140.32549 h 2.18431 l 2.01629,-0.16805 2.01629,-0.33611 2.01629,-0.33611 1.84827,-0.33611 2.01629,-0.67222 1.84827,-0.50416 1.84827,-0.84028 1.68024,-0.84027 1.84827,-0.84027 1.68024,-1.00833 1.51222,-1.00832 1.68024,-1.17639 1.51222,-1.17638 1.51222,-1.17638 1.34419,-1.34443 1.34419,-1.51249 1.17617,-1.34444 1.3442,-1.51249 1.00814,-1.68055 1.17617,-1.51249 0.84012,-1.68054 1.00815,-1.8486 0.6721,-1.68054 0.84012,-1.8486 0.50407,-2.01666 0.6721,-1.8486 0.33605,-1.8486 0.50407,-2.01665 0.16802,-2.01665 0.16803,-2.18471 v -2.016655 0 -2.016654 l -0.16803,-2.016654 -0.16802,-2.016654 -0.50407,-2.016653 -0.33605,-2.016654 -0.6721,-1.848599 -0.50407,-1.8486 -0.84012,-1.848599 -0.6721,-1.848599 -1.00815,-1.680545 -0.84012,-1.680545 -1.17617,-1.680544 -1.00814,-1.512491 -1.3442,-1.680545 -1.17617,-1.344435 -1.34419,-1.512491 -1.34419,-1.344435 -1.51222,-1.176382 -1.51222,-1.176381 -1.68024,-1.176382 -1.51222,-1.008326 -1.68024,-1.008327 -1.84827,-0.840273 -1.68024,-0.840272 -1.84827,-0.672218 -1.84827,-0.672218 -2.01629,-0.504163 -1.84827,-0.504164 -2.01629,-0.336109 -2.01629,-0.336109 -2.01629,-0.168054 h -2.18431 v 0 H 43.35026 41.333968 l -2.016291,0.168054 -2.016291,0.336109 -2.016291,0.336109 -2.016291,0.504164 -1.848267,0.504163 -1.848267,0.672218 -1.848267,0.672218 -1.848267,0.840272 -1.680242,0.840273 -1.680243,1.008327 -1.680243,1.008326 -1.512218,1.176382 -1.512218,1.176381 -1.512219,1.176382 -1.344194,1.344435 -1.344194,1.512491 -1.344194,1.344435 -1.17617,1.680545 -1.1761696,1.512491 -1.0081455,1.680544 -1.0081456,1.680545 -0.8401213,1.680545 -0.8401213,1.848599 -0.6720971,1.848599 -0.672097,1.8486 L 4.3686308,89.909146 3.864558,91.9258 3.5285095,93.942453 3.192461,95.959107 v 2.016654 l -0.1680243,2.016654 0.1680243,2.016655 0.1680242,2.18471 0.1680243,2.01665 0.3360485,2.01665 0.5040728,1.8486 0.5040728,1.8486 0.672097,2.01666 0.6720971,1.8486 0.8401213,1.68054 0.8401213,1.8486 1.0081456,1.68054 1.0081455,1.51249 1.1761696,1.68055 1.17617,1.51249 1.344194,1.34444 1.344194,1.51249 1.344194,1.34443 1.512219,1.17638 1.512218,1.17638 1.512218,1.17639 1.680243,1.00832 1.680243,1.00833 1.680242,0.84027 1.848267,0.84027 1.848267,0.84028 1.848267,0.50416 1.848267,0.67222 2.016291,0.33611 2.016291,0.33611 2.016291,0.33611 2.016291,0.16805 h 2.016292 v 0 h 80.65165 v 0"
       id="path7571" />
    <g
       transform="matrix(0.26458333,0,0,0.26458333,353.77202,109.67367)"
       clip-path="url(#clipEmfPath1-051)"
       id="g7579">
      <text
         xml:space="preserve"
         style="font-style:normal;font-variant:normal;font-weight:400;font-size:18px;line-height:125%;font-family:Helvetica;text-align:center;letter-spacing:0px;word-spacing:0px;text-anchor:middle;fill:#000000;fill-opacity:1;stroke:none"
         transform="translate(69.225996,105.37016)"
         x="13.302246"
         y="0"
         id="text7577"><tspan
           sodipodi:role="line"
           x="13.302246"
           y="0"
           id="tspan7575">Inactif<tspan
   style="font-style:normal;font-variant:normal;font-weight:400;font-size:18px;font-family:Helvetica;text-align:center;text-anchor:middle;fill:#000000"
   id="tspan7573" /></tspan></text>
    </g>
    <path
       transform="matrix(0.26458333,0,0,0.26458333,353.77202,109.67367)"
       style="fill:none;stroke:#000000;stroke-width:0.504073px;stroke-linecap:round;stroke-linejoin:round;stroke-miterlimit:4;stroke-dasharray:none;stroke-opacity:1"
       clip-path="url(#clipEmfPath1-051)"
       d="m 152.56603,71.423153 8.23319,-3.529144 8.23319,-3.529144 8.23319,-3.193035 8.40121,-3.02498 8.40121,-2.856927 8.56924,-2.520817 8.56924,-2.352762 8.56923,-2.184709 8.56924,-1.848599 8.73726,-1.680545 8.73726,-1.344436 8.73727,-1.344435 8.73726,-1.008327 8.73726,-0.672218 8.73726,-0.672218 8.73726,-0.336109 h 8.90529 8.73726 l 8.73726,0.336109 8.90529,0.672218 8.73726,0.840272 8.73726,1.008327 8.73726,1.176381 8.73726,1.512491 8.73727,1.680545 8.56923,1.848599 8.56924,2.184708 8.56924,2.352763 8.56924,2.520817 8.40121,2.856926 8.56924,3.024981 8.23318,3.361089"
       id="path7581" />
    <path
       transform="matrix(0.26458333,0,0,0.26458333,353.77202,109.67367)"
       style="fill:none;stroke:#000000;stroke-width:0.504073px;stroke-linecap:round;stroke-linejoin:round;stroke-miterlimit:4;stroke-dasharray:none;stroke-opacity:1"
       clip-path="url(#clipEmfPath1-051)"
       d="m 414.17981,65.709301 13.77798,-1.008327 -9.07331,-10.419377"
       id="path7583" />
    <g
       transform="matrix(0.26458333,0,0,0.26458333,353.77202,109.67367)"
       clip-path="url(#clipEmfPath1-051)"
       id="g7639">
      <text
         xml:space="preserve"
         style="font-style:normal;font-variant:normal;font-weight:400;font-size:18px;line-height:125%;font-family:Helvetica;text-align:center;letter-spacing:0px;word-spacing:0px;text-anchor:middle;fill:#000000;fill-opacity:1;stroke:none"
         transform="rotate(-1.3999905,1365.3341,-8146.5522)"
         x="91.907227"
         y="0"
         id="text7637"><tspan
           sodipodi:role="line"
           x="91.907227"
           y="0"
           id="tspan7635">décrocher / tonalité</tspan></text>
    </g>
    <path
       transform="matrix(0.26458333,0,0,0.26458333,353.77202,109.67367)"
       style="fill:none;stroke:#000000;stroke-width:0.504073px;stroke-linecap:round;stroke-linejoin:round;stroke-miterlimit:4;stroke-dasharray:none;stroke-opacity:1"
       clip-path="url(#clipEmfPath1-051)"
       d="m 152.56603,128.56168 5.37678,8.23467 5.5448,7.89856 5.88085,7.56245 6.21689,7.39439 6.55295,7.05829 6.72097,6.72218 6.88899,6.21802 7.22505,6.04996 7.39307,5.71385 7.72911,5.5458 7.89714,5.04163 8.06517,4.70553 8.23319,4.36941 8.23318,3.86526 8.56924,3.6972 8.73726,3.36109 8.73726,2.85692 9.07331,2.68887 8.90529,2.18471 9.24134,1.8486 9.07331,1.34444 9.40935,1.17638 9.24134,0.67222 9.40936,0.16805 h 9.40936 l 9.40935,-0.50416 9.57739,-1.00833 9.40936,-1.34444 9.40935,-1.68054 9.40936,-2.18471 9.40936,-2.52082 9.24134,-3.02498"
       id="path7641" />
    <path
       transform="matrix(0.26458333,0,0,0.26458333,353.77202,109.67367)"
       style="fill:none;stroke:#000000;stroke-width:0.504073px;stroke-linecap:round;stroke-linejoin:round;stroke-miterlimit:4;stroke-dasharray:none;stroke-opacity:1"
       clip-path="url(#clipEmfPath1-051)"
       d="m 164.32773,135.78802 -11.7617,-7.22634 1.17617,13.78046"
       id="path7643" />
    <g
       transform="matrix(0.26458333,0,0,0.26458333,353.77202,109.67367)"
       clip-path="url(#clipEmfPath1-051)"
       id="g7663">
      <text
         xml:space="preserve"
         style="font-style:normal;font-variant:normal;font-weight:400;font-size:18px;line-height:125%;font-family:Helvetica;text-align:center;letter-spacing:0px;word-spacing:0px;text-anchor:middle;fill:#000000;fill-opacity:1;stroke:none"
         transform="rotate(19.600032,-422.8194,806.33576)"
         x="31.710938"
         y="0"
         id="text7661"><tspan
           sodipodi:role="line"
           x="31.710938"
           y="0"
           id="tspan7659">raccrocher</tspan></text>
    </g>
    <path
       transform="matrix(0.26458333,0,0,0.26458333,353.77202,109.67367)"
       style="fill:#ffffff;fill-opacity:1;fill-rule:evenodd;stroke:none"
       clip-path="url(#clipEmfPath1-051)"
       d="m 819.9584,392.40721 h 2.01629 l 2.01629,-0.16806 2.01629,-0.16805 2.01629,-0.50417 2.01629,-0.3361 1.84827,-0.67222 1.84827,-0.50417 1.84826,-0.84027 1.84827,-0.67222 1.68024,-1.00832 1.68025,-0.84028 1.68024,-1.17638 1.51222,-1.00832 1.51221,-1.34444 1.51222,-1.17638 1.3442,-1.34444 1.34419,-1.34443 1.3442,-1.51249 1.17617,-1.51249 1.17617,-1.68055 1.00814,-1.51249 1.00815,-1.68054 0.84012,-1.8486 0.84012,-1.68055 0.6721,-1.8486 0.67209,-1.8486 0.50408,-2.01665 0.50407,-1.8486 0.33605,-2.01665 0.16802,-2.01666 0.16803,-2.01665 0.16802,-2.18471 v 0 -258.803894 l -0.16802,-2.184709 -0.16803,-2.016653 -0.16802,-2.016654 -0.33605,-2.016654 -0.50407,-2.016654 -0.50408,-1.848599 -0.67209,-1.848599 -0.6721,-1.848599 -0.84012,-1.8486 -0.84012,-1.680544 -1.00815,-1.680545 -1.00814,-1.680545 -1.17617,-1.51249 -1.17617,-1.512491 -1.3442,-1.51249 -1.34419,-1.344436 -1.3442,-1.344436 -1.51222,-1.344435 -1.51221,-1.176382 -1.51222,-1.176381 -1.68024,-1.008327 -1.68025,-1.008327 -1.68024,-0.840272 -1.84827,-0.840273 -1.84826,-0.672218 -1.84827,-0.672218 -1.84827,-0.504163 -2.01629,-0.504163 -2.01629,-0.336109 -2.01629,-0.168055 -2.01629,-0.168054 h -2.01629 -363.43648 -2.01629 l -2.18432,0.168054 -2.01629,0.168055 -1.84827,0.336109 -2.01629,0.504163 -1.84826,0.504163 -1.84827,0.672218 -1.84827,0.672218 -1.84826,0.840273 -1.68025,0.840272 -1.68024,1.008327 -1.68024,1.008327 -1.68024,1.176381 -1.51222,1.176382 -1.3442,1.344435 -1.51222,1.344436 -1.34419,1.344436 -1.17617,1.51249 -1.17617,1.512491 -1.17617,1.51249 -1.00814,1.680545 -1.00815,1.680545 -0.84012,1.680544 -0.84012,1.8486 -0.6721,1.848599 -0.6721,1.848599 -0.50407,1.848599 -0.50407,2.016654 -0.33605,2.016654 -0.33605,2.016654 -0.16802,2.016653 v 2.184709 0 258.803894 2.18471 l 0.16802,2.01665 0.33605,2.01666 0.33605,2.01665 0.50407,1.8486 0.50407,2.01665 0.6721,1.8486 0.6721,1.8486 0.84012,1.68055 0.84012,1.8486 1.00815,1.68054 1.00814,1.51249 1.17617,1.68055 1.17617,1.51249 1.17617,1.51249 1.34419,1.34443 1.51222,1.34444 1.3442,1.17638 1.51222,1.34444 1.68024,1.00832 1.68024,1.17638 1.68024,0.84028 1.68025,1.00832 1.84826,0.67222 1.84827,0.84027 1.84827,0.50417 1.84826,0.67222 2.01629,0.3361 1.84827,0.50417 2.01629,0.16805 2.18432,0.16806 h 2.01629 v 0 z"
       id="path7665" />
    <path
       transform="matrix(0.26458333,0,0,0.26458333,353.77202,109.67367)"
       style="fill:none;stroke:#000000;stroke-width:0.504073px;stroke-linecap:round;stroke-linejoin:round;stroke-miterlimit:4;stroke-dasharray:none;stroke-opacity:1"
       clip-path="url(#clipEmfPath1-051)"
       d="m 819.9584,392.40721 h 2.01629 l 2.01629,-0.16806 2.01629,-0.16805 2.01629,-0.50417 2.01629,-0.3361 1.84827,-0.67222 1.84827,-0.50417 1.84826,-0.84027 1.84827,-0.67222 1.68024,-1.00832 1.68025,-0.84028 1.68024,-1.17638 1.51222,-1.00832 1.51221,-1.34444 1.51222,-1.17638 1.3442,-1.34444 1.34419,-1.34443 1.3442,-1.51249 1.17617,-1.51249 1.17617,-1.68055 1.00814,-1.51249 1.00815,-1.68054 0.84012,-1.8486 0.84012,-1.68055 0.6721,-1.8486 0.67209,-1.8486 0.50408,-2.01665 0.50407,-1.8486 0.33605,-2.01665 0.16802,-2.01666 0.16803,-2.01665 0.16802,-2.18471 v 0 -258.803894 l -0.16802,-2.184709 -0.16803,-2.016653 -0.16802,-2.016654 -0.33605,-2.016654 -0.50407,-2.016654 -0.50408,-1.848599 -0.67209,-1.848599 -0.6721,-1.848599 -0.84012,-1.8486 -0.84012,-1.680544 -1.00815,-1.680545 -1.00814,-1.680545 -1.17617,-1.51249 -1.17617,-1.512491 -1.3442,-1.51249 -1.34419,-1.344436 -1.3442,-1.344436 -1.51222,-1.344435 -1.51221,-1.176382 -1.51222,-1.176381 -1.68024,-1.008327 -1.68025,-1.008327 -1.68024,-0.840272 -1.84827,-0.840273 -1.84826,-0.672218 -1.84827,-0.672218 -1.84827,-0.504163 -2.01629,-0.504163 -2.01629,-0.336109 -2.01629,-0.168055 -2.01629,-0.168054 h -2.01629 -363.43648 -2.01629 l -2.18432,0.168054 -2.01629,0.168055 -1.84827,0.336109 -2.01629,0.504163 -1.84826,0.504163 -1.84827,0.672218 -1.84827,0.672218 -1.84826,0.840273 -1.68025,0.840272 -1.68024,1.008327 -1.68024,1.008327 -1.68024,1.176381 -1.51222,1.176382 -1.3442,1.344435 -1.51222,1.344436 -1.34419,1.344436 -1.17617,1.51249 -1.17617,1.512491 -1.17617,1.51249 -1.00814,1.680545 -1.00815,1.680545 -0.84012,1.680544 -0.84012,1.8486 -0.6721,1.848599 -0.6721,1.848599 -0.50407,1.848599 -0.50407,2.016654 -0.33605,2.016654 -0.33605,2.016654 -0.16802,2.016653 v 2.184709 0 258.803894 2.18471 l 0.16802,2.01665 0.33605,2.01666 0.33605,2.01665 0.50407,1.8486 0.50407,2.01665 0.6721,1.8486 0.6721,1.8486 0.84012,1.68055 0.84012,1.8486 1.00815,1.68054 1.00814,1.51249 1.17617,1.68055 1.17617,1.51249 1.17617,1.51249 1.34419,1.34443 1.51222,1.34444 1.3442,1.17638 1.51222,1.34444 1.68024,1.00832 1.68024,1.17638 1.68024,0.84028 1.68025,1.00832 1.84826,0.67222 1.84827,0.84027 1.84827,0.50417 1.84826,0.67222 2.01629,0.3361 1.84827,0.50417 2.01629,0.16805 2.18432,0.16806 h 2.01629 v 0 H 819.9584 v 0"
       id="path7667" />
    <g
       transform="matrix(0.26458333,0,0,0.26458333,353.77202,109.67367)"
       clip-path="url(#clipEmfPath1-051)"
       id="g7685">
      <text
         xml:space="preserve"
         style="font-style:normal;font-variant:normal;font-weight:400;font-size:18px;line-height:125%;font-family:Helvetica;text-align:center;letter-spacing:0px;word-spacing:0px;text-anchor:middle;fill:#000000;fill-opacity:1;stroke:none"
         transform="translate(613.79263,75.624515)"
         x="24.156738"
         y="0"
         id="text7673"><tspan
           sodipodi:role="line"
           x="24.156738"
           y="0"
           id="tspan7671">Actif<tspan
   style="font-style:normal;font-variant:normal;font-weight:400;font-size:18px;font-family:Helvetica;text-align:center;text-anchor:middle;fill:#000000"
   id="tspan7669" /></tspan></text>
      <text
         xml:space="preserve"
         style="font-style:normal;font-variant:normal;font-weight:400;font-size:18px;line-height:125%;font-family:Helvetica;text-align:center;letter-spacing:0px;word-spacing:0px;text-anchor:middle;fill:#000000;fill-opacity:1;stroke:none"
         transform="translate(613.79263,75.624515)"
         x="-319.5087"
         y="9.5791054"
         id="text7683"><tspan
           sodipodi:role="line"
           x="-319.5087"
           y="9.5791054"
           id="tspan7681"><tspan
             dx="0 0 0 0 0 0 0 0 0 0 0 0 0 0 -0.54480302"
             dy="0 0 0 0 0 0 0 0 0 0 0 0 0 0 0"
             style="font-style:normal;font-variant:normal;font-weight:400;font-size:18px;font-family:Helvetica;text-align:center;text-anchor:middle;fill:#000000"
             id="tspan7675">[abonné valide]</tspan></tspan></text>
    </g>
    <path
       transform="matrix(0.26458333,0,0,0.26458333,353.77202,109.67367)"
       style="fill:#ffffff;fill-opacity:1;fill-rule:evenodd;stroke:none"
       clip-path="url(#clipEmfPath1-051)"
       d="m 597.83032,190.74183 h 1.68025 l 1.51221,-0.16805 1.51222,-0.16806 1.51222,-0.3361 1.34419,-0.33611 1.51222,-0.33611 1.3442,-0.50417 1.34419,-0.50416 1.3442,-0.67222 1.34419,-0.67222 1.34419,-0.67221 1.17617,-0.84028 1.17617,-0.84027 1.17617,-0.84027 1.00815,-1.00833 1.17617,-1.00832 0.84012,-1.00833 1.00815,-1.00833 0.84012,-1.17638 1.00814,-1.17638 0.6721,-1.34444 0.84012,-1.17638 0.6721,-1.34443 0.50407,-1.34444 0.50407,-1.34444 0.50408,-1.34443 0.50407,-1.51249 0.33605,-1.51249 0.16802,-1.34444 0.16803,-1.51249 0.16802,-1.68054 v -1.51249 0 -1.51249 l -0.16802,-1.51249 -0.16803,-1.51249 -0.16802,-1.51249 -0.33605,-1.51249 -0.50407,-1.34444 -0.50408,-1.51249 -0.50407,-1.34444 -0.50407,-1.34443 -0.6721,-1.34444 -0.84012,-1.17638 -0.6721,-1.17638 -1.00814,-1.34444 -0.84012,-1.00832 -1.00815,-1.17638 -0.84012,-1.00833 -1.17617,-1.00833 -1.00815,-1.00833 -1.17617,-0.84027 -1.17617,-0.84027 -1.17617,-0.84027 -1.34419,-0.67222 -1.34419,-0.67222 -1.3442,-0.67222 -1.34419,-0.50416 -1.3442,-0.50416 -1.51222,-0.33611 -1.34419,-0.33611 -1.51222,-0.33611 -1.51222,-0.16805 -1.51221,-0.16806 h -1.68025 -131.05892 -1.51222 l -1.51222,0.16806 -1.51222,0.16805 -1.51221,0.33611 -1.51222,0.33611 -1.3442,0.33611 -1.51222,0.50416 -1.34419,0.50416 -1.34419,0.67222 -1.3442,0.67222 -1.17617,0.67222 -1.17617,0.84027 -1.17617,0.84027 -1.17617,0.84027 -1.17617,1.00833 -1.00814,1.00833 -1.00815,1.00833 -1.00814,1.17638 -0.84012,1.00832 -0.84013,1.34444 -0.84012,1.17638 -0.67209,1.17638 -0.6721,1.34444 -0.6721,1.34443 -0.50407,1.34444 -0.50407,1.51249 -0.33605,1.34444 -0.33605,1.51249 -0.33605,1.51249 -0.16802,1.51249 -0.16803,1.51249 v 1.51249 l 0.16803,1.51249 v 1.68054 l 0.16802,1.51249 0.33605,1.34444 0.33605,1.51249 0.33605,1.51249 0.50407,1.34443 0.50407,1.34444 0.6721,1.34444 0.6721,1.34443 0.67209,1.17638 0.84012,1.34444 0.84013,1.17638 0.84012,1.17638 1.00814,1.00833 1.00815,1.00833 1.00814,1.00832 1.17617,1.00833 1.17617,0.84027 1.17617,0.84027 1.17617,0.84028 1.17617,0.67221 1.3442,0.67222 1.34419,0.67222 1.34419,0.50416 1.51222,0.50417 1.3442,0.33611 1.51222,0.33611 1.51221,0.3361 1.51222,0.16806 1.51222,0.16805 h 1.51222 v 0 z"
       id="path7687" />
    <path
       transform="matrix(0.26458333,0,0,0.26458333,353.77202,109.67367)"
       style="fill:none;stroke:#000000;stroke-width:0.504073px;stroke-linecap:round;stroke-linejoin:round;stroke-miterlimit:4;stroke-dasharray:none;stroke-opacity:1"
       clip-path="url(#clipEmfPath1-051)"
       d="m 597.83032,190.74183 h 1.68025 l 1.51221,-0.16805 1.51222,-0.16806 1.51222,-0.3361 1.34419,-0.33611 1.51222,-0.33611 1.3442,-0.50417 1.34419,-0.50416 1.3442,-0.67222 1.34419,-0.67222 1.34419,-0.67221 1.17617,-0.84028 1.17617,-0.84027 1.17617,-0.84027 1.00815,-1.00833 1.17617,-1.00832 0.84012,-1.00833 1.00815,-1.00833 0.84012,-1.17638 1.00814,-1.17638 0.6721,-1.34444 0.84012,-1.17638 0.6721,-1.34443 0.50407,-1.34444 0.50407,-1.34444 0.50408,-1.34443 0.50407,-1.51249 0.33605,-1.51249 0.16802,-1.34444 0.16803,-1.51249 0.16802,-1.68054 v -1.51249 0 -1.51249 l -0.16802,-1.51249 -0.16803,-1.51249 -0.16802,-1.51249 -0.33605,-1.51249 -0.50407,-1.34444 -0.50408,-1.51249 -0.50407,-1.34444 -0.50407,-1.34443 -0.6721,-1.34444 -0.84012,-1.17638 -0.6721,-1.17638 -1.00814,-1.34444 -0.84012,-1.00832 -1.00815,-1.17638 -0.84012,-1.00833 -1.17617,-1.00833 -1.00815,-1.00833 -1.17617,-0.84027 -1.17617,-0.84027 -1.17617,-0.84027 -1.34419,-0.67222 -1.34419,-0.67222 -1.3442,-0.67222 -1.34419,-0.50416 -1.3442,-0.50416 -1.51222,-0.33611 -1.34419,-0.33611 -1.51222,-0.33611 -1.51222,-0.16805 -1.51221,-0.16806 h -1.68025 -131.05892 -1.51222 l -1.51222,0.16806 -1.51222,0.16805 -1.51221,0.33611 -1.51222,0.33611 -1.3442,0.33611 -1.51222,0.50416 -1.34419,0.50416 -1.34419,0.67222 -1.3442,0.67222 -1.17617,0.67222 -1.17617,0.84027 -1.17617,0.84027 -1.17617,0.84027 -1.17617,1.00833 -1.00814,1.00833 -1.00815,1.00833 -1.00814,1.17638 -0.84012,1.00832 -0.84013,1.34444 -0.84012,1.17638 -0.67209,1.17638 -0.6721,1.34444 -0.6721,1.34443 -0.50407,1.34444 -0.50407,1.51249 -0.33605,1.34444 -0.33605,1.51249 -0.33605,1.51249 -0.16802,1.51249 -0.16803,1.51249 v 1.51249 l 0.16803,1.51249 v 1.68054 l 0.16802,1.51249 0.33605,1.34444 0.33605,1.51249 0.33605,1.51249 0.50407,1.34443 0.50407,1.34444 0.6721,1.34444 0.6721,1.34443 0.67209,1.17638 0.84012,1.34444 0.84013,1.17638 0.84012,1.17638 1.00814,1.00833 1.00815,1.00833 1.00814,1.00832 1.17617,1.00833 1.17617,0.84027 1.17617,0.84027 1.17617,0.84028 1.17617,0.67221 1.3442,0.67222 1.34419,0.67222 1.34419,0.50416 1.51222,0.50417 1.3442,0.33611 1.51222,0.33611 1.51221,0.3361 1.51222,0.16806 1.51222,0.16805 h 1.51222 v 0 h 131.05892 v 0"
       id="path7689" />
    <g
       transform="matrix(0.26458333,0,0,0.26458333,353.77202,109.67367)"
       clip-path="url(#clipEmfPath1-051)"
       id="g7697">
      <text
         xml:space="preserve"
         style="font-style:normal;font-variant:normal;font-weight:400;font-size:18px;line-height:125%;font-family:Helvetica;text-align:start;letter-spacing:0px;word-spacing:0px;text-anchor:start;fill:#000000;fill-opacity:1;stroke:none"
         transform="translate(467.10745,165.86977)"
         x="63.527344"
         y="0"
         id="text7695"><tspan
           style="text-align:center;text-anchor:middle"
           sodipodi:role="line"
           x="63.527344"
           y="0"
           id="tspan7693">ÉmissionTonalité</tspan></text>
    </g>
    <path
       transform="matrix(0.26458333,0,0,0.26458333,353.77202,109.67367)"
       style="fill:none;stroke:#000000;stroke-width:0.504073px;stroke-linecap:round;stroke-linejoin:round;stroke-miterlimit:4;stroke-dasharray:none;stroke-opacity:1"
       clip-path="url(#clipEmfPath1-051)"
       d="M 532.30086,130.24222 V 69.742609"
       id="path7699" />
    <path
       transform="matrix(0.26458333,0,0,0.26458333,353.77202,109.67367)"
       style="fill:none;stroke:#000000;stroke-width:0.504073px;stroke-linecap:round;stroke-linejoin:round;stroke-miterlimit:4;stroke-dasharray:none;stroke-opacity:1"
       clip-path="url(#clipEmfPath1-051)"
       d="m 522.8915,111.42012 9.40936,18.8221 9.40936,-18.8221"
       id="path7701" />
    <path
       transform="matrix(0.26458333,0,0,0.26458333,353.77202,109.67367)"
       style="fill:#000000;fill-opacity:1;fill-rule:evenodd;stroke:none"
       clip-path="url(#clipEmfPath1-051)"
       d="m 532.30086,76.800897 h 0.84012 l 0.6721,-0.168055 0.6721,-0.168054 0.67209,-0.168055 0.50408,-0.336109 0.67209,-0.336109 0.50408,-0.336109 0.50407,-0.504163 0.50407,-0.504164 0.33605,-0.504163 0.33605,-0.672218 0.33605,-0.504163 0.16802,-0.672218 0.16803,-0.672218 0.16802,-0.840273 v -0.672217 -0.672218 l -0.16802,-0.672218 -0.16803,-0.672218 -0.16802,-0.672218 -0.33605,-0.672218 -0.33605,-0.504163 -0.33605,-0.672218 -0.50407,-0.504164 -0.50407,-0.336109 -0.50408,-0.504163 -0.67209,-0.336109 -0.50408,-0.336109 -0.67209,-0.168055 -0.6721,-0.168054 -0.6721,-0.168055 h -0.84012 v 0 h -0.6721 l -0.67209,0.168055 -0.6721,0.168054 -0.6721,0.168055 -0.67209,0.336109 -0.50408,0.336109 -0.50407,0.504163 -0.50407,0.336109 -0.50408,0.504164 -0.50407,0.672218 -0.33605,0.504163 -0.16802,0.672218 -0.33605,0.672218 -0.16802,0.672218 -0.16803,0.672218 v 0.672218 0.672217 l 0.16803,0.840273 0.16802,0.672218 0.33605,0.672218 0.16802,0.504163 0.33605,0.672218 0.50407,0.504163 0.50408,0.504164 0.50407,0.504163 0.50407,0.336109 0.50408,0.336109 0.67209,0.336109 0.6721,0.168055 0.6721,0.168054 0.67209,0.168055 z"
       id="path7703" />
    <path
       transform="matrix(0.26458333,0,0,0.26458333,353.77202,109.67367)"
       style="fill:#ffffff;fill-opacity:1;fill-rule:evenodd;stroke:none"
       clip-path="url(#clipEmfPath1-051)"
       d="m 562.54523,372.24067 h 1.68024 l 1.51222,-0.16805 1.51222,-0.16806 1.51222,-0.33611 1.34419,-0.33611 1.51222,-0.33611 1.34419,-0.50416 1.3442,-0.50416 1.34419,-0.67222 1.34419,-0.67222 1.3442,-0.67222 1.17617,-0.84027 1.17617,-0.84027 1.17617,-0.84027 1.00814,-1.00833 1.17617,-1.00833 0.84012,-1.00832 1.00815,-1.00833 0.84012,-1.17638 1.00815,-1.17638 0.67209,-1.34444 0.84013,-1.17638 0.67209,-1.34444 0.50408,-1.34443 0.50407,-1.34444 0.50407,-1.34443 0.50407,-1.51249 0.33605,-1.5125 0.16803,-1.34443 0.16802,-1.51249 0.16803,-1.68055 v -1.51249 0 -1.51249 l -0.16803,-1.51249 -0.16802,-1.51249 -0.16803,-1.51249 -0.33605,-1.51249 -0.50407,-1.34443 -0.50407,-1.51249 -0.50407,-1.34444 -0.50408,-1.34444 -0.67209,-1.34443 -0.84013,-1.17638 -0.67209,-1.17638 -1.00815,-1.34444 -0.84012,-1.00833 -1.00815,-1.17638 -0.84012,-1.00833 -1.17617,-1.00832 -1.00814,-1.00833 -1.17617,-0.84027 -1.17617,-0.84027 -1.17617,-0.84028 -1.3442,-0.67221 -1.34419,-0.67222 -1.34419,-0.67222 -1.3442,-0.50416 -1.34419,-0.50417 -1.51222,-0.33611 -1.34419,-0.3361 -1.51222,-0.33611 -1.51222,-0.16806 -1.51222,-0.16805 h -1.68024 -60.48874 -1.51221 l -1.51222,0.16805 -1.51222,0.16806 -1.51222,0.33611 -1.51222,0.3361 -1.34419,0.33611 -1.51222,0.50417 -1.34419,0.50416 -1.3442,0.67222 -1.34419,0.67222 -1.17617,0.67221 -1.17617,0.84028 -1.17617,0.84027 -1.17617,0.84027 -1.17617,1.00833 -1.00815,1.00832 -1.00814,1.00833 -1.00815,1.17638 -0.84012,1.00833 -0.84012,1.34444 -0.84012,1.17638 -0.6721,1.17638 -0.6721,1.34443 -0.67209,1.34444 -0.50408,1.34444 -0.50407,1.51249 -0.33605,1.34443 -0.33605,1.51249 -0.33604,1.51249 -0.16803,1.51249 -0.16802,1.51249 v 1.51249 l 0.16802,1.51249 v 1.68055 l 0.16803,1.51249 0.33604,1.34443 0.33605,1.5125 0.33605,1.51249 0.50407,1.34443 0.50408,1.34444 0.67209,1.34443 0.6721,1.34444 0.6721,1.17638 0.84012,1.34444 0.84012,1.17638 0.84012,1.17638 1.00815,1.00833 1.00814,1.00832 1.00815,1.00833 1.17617,1.00833 1.17617,0.84027 1.17617,0.84027 1.17617,0.84027 1.17617,0.67222 1.34419,0.67222 1.3442,0.67222 1.34419,0.50416 1.51222,0.50416 1.34419,0.33611 1.51222,0.33611 1.51222,0.33611 1.51222,0.16806 1.51222,0.16805 h 1.51221 v 0 z"
       id="path7705" />
    <path
       transform="matrix(0.26458333,0,0,0.26458333,353.77202,109.67367)"
       style="fill:none;stroke:#000000;stroke-width:0.504073px;stroke-linecap:round;stroke-linejoin:round;stroke-miterlimit:4;stroke-dasharray:none;stroke-opacity:1"
       clip-path="url(#clipEmfPath1-051)"
       d="m 562.54523,372.24067 h 1.68024 l 1.51222,-0.16805 1.51222,-0.16806 1.51222,-0.33611 1.34419,-0.33611 1.51222,-0.33611 1.34419,-0.50416 1.3442,-0.50416 1.34419,-0.67222 1.34419,-0.67222 1.3442,-0.67222 1.17617,-0.84027 1.17617,-0.84027 1.17617,-0.84027 1.00814,-1.00833 1.17617,-1.00833 0.84012,-1.00832 1.00815,-1.00833 0.84012,-1.17638 1.00815,-1.17638 0.67209,-1.34444 0.84013,-1.17638 0.67209,-1.34444 0.50408,-1.34443 0.50407,-1.34444 0.50407,-1.34443 0.50407,-1.51249 0.33605,-1.5125 0.16803,-1.34443 0.16802,-1.51249 0.16803,-1.68055 v -1.51249 0 -1.51249 l -0.16803,-1.51249 -0.16802,-1.51249 -0.16803,-1.51249 -0.33605,-1.51249 -0.50407,-1.34443 -0.50407,-1.51249 -0.50407,-1.34444 -0.50408,-1.34444 -0.67209,-1.34443 -0.84013,-1.17638 -0.67209,-1.17638 -1.00815,-1.34444 -0.84012,-1.00833 -1.00815,-1.17638 -0.84012,-1.00833 -1.17617,-1.00832 -1.00814,-1.00833 -1.17617,-0.84027 -1.17617,-0.84027 -1.17617,-0.84028 -1.3442,-0.67221 -1.34419,-0.67222 -1.34419,-0.67222 -1.3442,-0.50416 -1.34419,-0.50417 -1.51222,-0.33611 -1.34419,-0.3361 -1.51222,-0.33611 -1.51222,-0.16806 -1.51222,-0.16805 h -1.68024 -60.48874 -1.51221 l -1.51222,0.16805 -1.51222,0.16806 -1.51222,0.33611 -1.51222,0.3361 -1.34419,0.33611 -1.51222,0.50417 -1.34419,0.50416 -1.3442,0.67222 -1.34419,0.67222 -1.17617,0.67221 -1.17617,0.84028 -1.17617,0.84027 -1.17617,0.84027 -1.17617,1.00833 -1.00815,1.00832 -1.00814,1.00833 -1.00815,1.17638 -0.84012,1.00833 -0.84012,1.34444 -0.84012,1.17638 -0.6721,1.17638 -0.6721,1.34443 -0.67209,1.34444 -0.50408,1.34444 -0.50407,1.51249 -0.33605,1.34443 -0.33605,1.51249 -0.33604,1.51249 -0.16803,1.51249 -0.16802,1.51249 v 1.51249 l 0.16802,1.51249 v 1.68055 l 0.16803,1.51249 0.33604,1.34443 0.33605,1.5125 0.33605,1.51249 0.50407,1.34443 0.50408,1.34444 0.67209,1.34443 0.6721,1.34444 0.6721,1.17638 0.84012,1.34444 0.84012,1.17638 0.84012,1.17638 1.00815,1.00833 1.00814,1.00832 1.00815,1.00833 1.17617,1.00833 1.17617,0.84027 1.17617,0.84027 1.17617,0.84027 1.17617,0.67222 1.34419,0.67222 1.3442,0.67222 1.34419,0.50416 1.51222,0.50416 1.34419,0.33611 1.51222,0.33611 1.51222,0.33611 1.51222,0.16806 1.51222,0.16805 h 1.51221 v 0 h 60.48874 v 0"
       id="path7707" />
    <g
       transform="matrix(0.26458333,0,0,0.26458333,353.77202,109.67367)"
       clip-path="url(#clipEmfPath1-051)"
       id="g7715">
      <text
         xml:space="preserve"
         style="font-style:normal;font-variant:normal;font-weight:400;font-size:18px;line-height:125%;font-family:Helvetica;text-align:center;letter-spacing:0px;word-spacing:0px;text-anchor:middle;fill:#000000;fill-opacity:1;stroke:none"
         transform="translate(504.91291,347.36861)"
         x="26.244141"
         y="0"
         id="text7713"><tspan
           sodipodi:role="line"
           x="26.244141"
           y="0"
           id="tspan7711">Composition<tspan
   style="font-style:normal;font-variant:normal;font-weight:400;font-size:18px;font-family:Helvetica;text-align:center;text-anchor:middle;fill:#000000"
   id="tspan7709" /></tspan></text>
    </g>
    <path
       transform="matrix(0.26458333,0,0,0.26458333,353.77202,109.67367)"
       style="fill:#ffffff;fill-opacity:1;fill-rule:evenodd;stroke:none"
       clip-path="url(#clipEmfPath1-051)"
       d="m 819.62235,372.24067 h 1.68024 l 1.51222,-0.16805 1.51222,-0.16806 1.51222,-0.16805 1.34419,-0.33611 1.51222,-0.50417 1.34419,-0.50416 1.3442,-0.50416 1.34419,-0.67222 1.3442,-0.50416 1.34419,-0.84028 1.17617,-0.84027 1.17617,-0.84027 1.17617,-0.84027 1.00814,-1.00833 1.17617,-1.00833 1.00815,-1.00832 0.84012,-1.00833 1.00815,-1.17638 0.84012,-1.17638 0.67209,-1.17639 0.84013,-1.34443 0.67209,-1.34444 0.50408,-1.34443 0.50407,-1.34444 0.50407,-1.34443 0.50407,-1.51249 0.33605,-1.34444 0.16803,-1.51249 0.16802,-1.51249 0.16803,-1.51249 v -1.68055 0 -1.51249 l -0.16803,-1.51249 -0.16802,-1.51249 -0.16803,-1.51249 -0.33605,-1.51249 -0.50407,-1.34443 -0.50407,-1.51249 -0.50407,-1.34444 -0.50408,-1.34444 -0.67209,-1.34443 -0.84013,-1.17638 -0.67209,-1.17638 -0.84012,-1.17639 -1.00815,-1.17638 -0.84012,-1.17638 -1.00815,-1.00833 -1.17617,-1.00832 -1.00814,-1.00833 -1.17617,-0.84027 -1.17617,-0.84027 -1.17617,-0.84028 -1.34419,-0.67221 -1.3442,-0.67222 -1.34419,-0.67222 -1.3442,-0.50416 -1.34419,-0.50417 -1.51222,-0.33611 -1.34419,-0.3361 -1.51222,-0.33611 -1.51222,-0.16806 h -1.51222 l -1.68024,-0.16805 h -70.57019 l -1.51222,0.16805 h -1.51222 l -1.51222,0.16806 -1.51221,0.33611 -1.51222,0.3361 -1.3442,0.33611 -1.51222,0.50417 -1.34419,0.50416 -1.34419,0.67222 -1.17617,0.67222 -1.3442,0.67221 -1.17617,0.84028 -1.17617,0.84027 -1.17617,0.84027 -1.17617,1.00833 -1.00814,1.00832 -1.00815,1.00833 -1.00814,1.17638 -0.84013,1.17638 -0.84012,1.17639 -0.84012,1.17638 -0.67209,1.17638 -0.6721,1.34443 -0.6721,1.34444 -0.50407,1.34444 -0.50407,1.51249 -0.33605,1.34443 -0.33605,1.51249 -0.33605,1.51249 -0.16802,1.51249 v 1.51249 l -0.16803,1.51249 0.16803,1.68055 v 1.51249 l 0.16802,1.51249 0.33605,1.51249 0.33605,1.34444 0.33605,1.51249 0.50407,1.34443 0.50407,1.34444 0.6721,1.34443 0.6721,1.34444 0.67209,1.34443 0.84012,1.17639 0.84012,1.17638 0.84013,1.17638 1.00814,1.00833 1.00815,1.00832 1.00814,1.00833 1.17617,1.00833 1.17617,0.84027 1.17617,0.84027 1.17617,0.84027 1.3442,0.84028 1.17617,0.50416 1.34419,0.67222 1.34419,0.50416 1.51222,0.50416 1.3442,0.50417 1.51222,0.33611 1.51221,0.16805 1.51222,0.16806 1.51222,0.16805 h 1.51222 z"
       id="path7717" />
    <path
       transform="matrix(0.26458333,0,0,0.26458333,353.77202,109.67367)"
       style="fill:none;stroke:#000000;stroke-width:0.504073px;stroke-linecap:round;stroke-linejoin:round;stroke-miterlimit:4;stroke-dasharray:none;stroke-opacity:1"
       clip-path="url(#clipEmfPath1-051)"
       d="m 819.62235,372.24067 h 1.68024 l 1.51222,-0.16805 1.51222,-0.16806 1.51222,-0.16805 1.34419,-0.33611 1.51222,-0.50417 1.34419,-0.50416 1.3442,-0.50416 1.34419,-0.67222 1.3442,-0.50416 1.34419,-0.84028 1.17617,-0.84027 1.17617,-0.84027 1.17617,-0.84027 1.00814,-1.00833 1.17617,-1.00833 1.00815,-1.00832 0.84012,-1.00833 1.00815,-1.17638 0.84012,-1.17638 0.67209,-1.17639 0.84013,-1.34443 0.67209,-1.34444 0.50408,-1.34443 0.50407,-1.34444 0.50407,-1.34443 0.50407,-1.51249 0.33605,-1.34444 0.16803,-1.51249 0.16802,-1.51249 0.16803,-1.51249 v -1.68055 0 -1.51249 l -0.16803,-1.51249 -0.16802,-1.51249 -0.16803,-1.51249 -0.33605,-1.51249 -0.50407,-1.34443 -0.50407,-1.51249 -0.50407,-1.34444 -0.50408,-1.34444 -0.67209,-1.34443 -0.84013,-1.17638 -0.67209,-1.17638 -0.84012,-1.17639 -1.00815,-1.17638 -0.84012,-1.17638 -1.00815,-1.00833 -1.17617,-1.00832 -1.00814,-1.00833 -1.17617,-0.84027 -1.17617,-0.84027 -1.17617,-0.84028 -1.34419,-0.67221 -1.3442,-0.67222 -1.34419,-0.67222 -1.3442,-0.50416 -1.34419,-0.50417 -1.51222,-0.33611 -1.34419,-0.3361 -1.51222,-0.33611 -1.51222,-0.16806 h -1.51222 l -1.68024,-0.16805 h -70.57019 l -1.51222,0.16805 h -1.51222 l -1.51222,0.16806 -1.51221,0.33611 -1.51222,0.3361 -1.3442,0.33611 -1.51222,0.50417 -1.34419,0.50416 -1.34419,0.67222 -1.17617,0.67222 -1.3442,0.67221 -1.17617,0.84028 -1.17617,0.84027 -1.17617,0.84027 -1.17617,1.00833 -1.00814,1.00832 -1.00815,1.00833 -1.00814,1.17638 -0.84013,1.17638 -0.84012,1.17639 -0.84012,1.17638 -0.67209,1.17638 -0.6721,1.34443 -0.6721,1.34444 -0.50407,1.34444 -0.50407,1.51249 -0.33605,1.34443 -0.33605,1.51249 -0.33605,1.51249 -0.16802,1.51249 v 1.51249 l -0.16803,1.51249 0.16803,1.68055 v 1.51249 l 0.16802,1.51249 0.33605,1.51249 0.33605,1.34444 0.33605,1.51249 0.50407,1.34443 0.50407,1.34444 0.6721,1.34443 0.6721,1.34444 0.67209,1.34443 0.84012,1.17639 0.84012,1.17638 0.84013,1.17638 1.00814,1.00833 1.00815,1.00832 1.00814,1.00833 1.17617,1.00833 1.17617,0.84027 1.17617,0.84027 1.17617,0.84027 1.3442,0.84028 1.17617,0.50416 1.34419,0.67222 1.34419,0.50416 1.51222,0.50416 1.3442,0.50417 1.51222,0.33611 1.51221,0.16805 1.51222,0.16806 1.51222,0.16805 h 1.51222 70.57019 v 0"
       id="path7719" />
    <g
       transform="matrix(0.26458333,0,0,0.26458333,353.77202,109.67367)"
       clip-path="url(#clipEmfPath1-051)"
       id="g7727">
      <text
         xml:space="preserve"
         style="font-style:normal;font-variant:normal;font-weight:400;font-size:18px;line-height:125%;font-family:Helvetica;text-align:start;letter-spacing:0px;word-spacing:0px;text-anchor:start;fill:#000000;fill-opacity:1;stroke:none"
         transform="translate(738.9707,347.36861)"
         x="44.507812"
         y="0"
         id="text7725"><tspan
           style="text-align:center;text-anchor:middle"
           sodipodi:role="line"
           x="44.507812"
           y="0"
           id="tspan7723">Connexion<tspan
   style="font-style:normal;font-variant:normal;font-weight:400;font-size:18px;font-family:Helvetica;text-align:center;text-anchor:middle;fill:#000000"
   id="tspan7721" /></tspan></text>
    </g>
    <path
       transform="matrix(0.26458333,0,0,0.26458333,353.77202,109.67367)"
       style="fill:none;stroke:#000000;stroke-width:0.504073px;stroke-linecap:round;stroke-linejoin:round;stroke-miterlimit:4;stroke-dasharray:none;stroke-opacity:1"
       clip-path="url(#clipEmfPath1-051)"
       d="M 532.30086,311.74106 V 190.74183"
       id="path7729" />
    <path
       transform="matrix(0.26458333,0,0,0.26458333,353.77202,109.67367)"
       style="fill:none;stroke:#000000;stroke-width:0.504073px;stroke-linecap:round;stroke-linejoin:round;stroke-miterlimit:4;stroke-dasharray:none;stroke-opacity:1"
       clip-path="url(#clipEmfPath1-051)"
       d="m 526.25199,299.47308 6.04887,12.26798 6.2169,-12.26798"
       id="path7731" />
    <g
       transform="matrix(0.26458333,0,0,0.26458333,353.77202,109.67367)"
       clip-path="url(#clipEmfPath1-051)"
       id="g7739">
      <text
         xml:space="preserve"
         style="font-style:normal;font-variant:normal;font-weight:400;font-size:18px;line-height:125%;font-family:Helvetica;text-align:start;letter-spacing:0px;word-spacing:0px;text-anchor:start;fill:#000000;fill-opacity:1;stroke:none"
         transform="translate(542.04627,271.40798)"
         x="0"
         y="0"
         id="text7737"><tspan
           sodipodi:role="line"
           x="0"
           y="0"
           id="tspan7735">chiffre<tspan
   style="font-style:normal;font-variant:normal;font-weight:400;font-size:18px;font-family:Helvetica;fill:#000000"
   id="tspan7733" /></tspan></text>
    </g>
    <path
       transform="matrix(0.26458333,0,0,0.26458333,353.77202,109.67367)"
       style="fill:none;stroke:#000000;stroke-width:0.504073px;stroke-linecap:round;stroke-linejoin:round;stroke-miterlimit:4;stroke-dasharray:none;stroke-opacity:1"
       clip-path="url(#clipEmfPath1-051)"
       d="m 502.05649,311.74106 v -1.51249 -1.51249 l -0.33604,-1.68055 -0.16803,-1.51249 -0.33605,-1.34443 -0.33605,-1.51249 -0.50407,-1.34444 -0.50407,-1.51249 -0.6721,-1.34444 -0.6721,-1.34443 -0.67209,-1.17638 -0.84012,-1.34444 -0.84013,-1.17638 -0.84012,-1.17638 -1.00814,-1.17638 -1.00815,-1.00833 -1.00814,-1.00833 -1.17617,-1.00832 -1.00815,-0.84028 -1.17617,-0.84027 -1.34419,-0.84027 -1.17617,-0.84027 -1.3442,-0.67222 -1.34419,-0.50416 -1.34419,-0.67222 -1.51222,-0.50417 -1.3442,-0.33611 -1.51222,-0.3361 -1.51221,-0.33611 -1.51222,-0.16806 -1.51222,-0.16805 h -1.68024 -1.51222 -1.51222 l -1.51222,0.16805 -1.51222,0.33611 -1.51221,0.33611 -1.51222,0.33611 -1.3442,0.50416 -1.51222,0.50417 -1.34419,0.67221 -1.34419,0.67222 -1.17617,0.67222 -1.3442,0.84027 -1.17617,0.84027 -1.17617,0.84028 -1.00814,1.00832 -1.17617,1.00833 -1.00815,1.00833 -1.00814,1.00832 -0.84013,1.17639 -0.84012,1.17638 -0.84012,1.34443 -0.6721,1.17638 -0.84012,1.34444 -0.50407,1.34444 -0.6721,1.34443 -0.50407,1.51249 -0.33605,1.34444 -0.33605,1.51249 -0.33604,1.51249 -0.16803,1.51249 -0.16802,1.51249 v 1.68054 1.51249 l 0.16802,1.51249 0.16803,1.5125 0.16802,1.51249 0.33605,1.51249 0.33605,1.51249 0.50407,1.34443 0.50407,1.51249 0.6721,1.34444 0.6721,1.17638 0.67209,1.34444 0.84012,1.34443 0.84013,1.17638 0.84012,1.17638 1.00814,1.00833 1.00815,1.17638 1.00814,1.00833 1.17617,1.00833 1.00815,0.84027 1.17617,0.84027 1.34419,0.84027 1.17617,0.67222 1.3442,0.67222 1.34419,0.67222 1.3442,0.50416 1.51221,0.50416 1.3442,0.50417 1.51222,0.33611 1.51221,0.3361 1.51222,0.16806 1.51222,0.16805 h 1.68024 0.50408"
       id="path7741" />
    <path
       transform="matrix(0.26458333,0,0,0.26458333,353.77202,109.67367)"
       style="fill:none;stroke:#000000;stroke-width:0.504073px;stroke-linecap:round;stroke-linejoin:round;stroke-miterlimit:4;stroke-dasharray:none;stroke-opacity:1"
       clip-path="url(#clipEmfPath1-051)"
       d="m 496.00762,299.30503 6.04887,12.43603 6.38493,-12.26798"
       id="path7743" />
    <g
       transform="matrix(0.26458333,0,0,0.26458333,353.77202,109.67367)"
       clip-path="url(#clipEmfPath1-051)"
       id="g7751">
      <text
         xml:space="preserve"
         style="font-style:normal;font-variant:normal;font-weight:400;font-size:18px;line-height:125%;font-family:Helvetica;text-align:start;letter-spacing:0px;word-spacing:0px;text-anchor:start;fill:#000000;fill-opacity:1;stroke:none"
         transform="translate(436.52703,271.40798)"
         x="0"
         y="0"
         id="text7749"><tspan
           sodipodi:role="line"
           x="0"
           y="0"
           id="tspan7747">chiffre<tspan
   style="font-style:normal;font-variant:normal;font-weight:400;font-size:18px;font-family:Helvetica;fill:#000000"
   id="tspan7745" /></tspan></text>
    </g>
    <path
       transform="matrix(0.26458333,0,0,0.26458333,353.77202,109.67367)"
       style="fill:none;stroke:#000000;stroke-width:0.504073px;stroke-linecap:round;stroke-linejoin:round;stroke-miterlimit:4;stroke-dasharray:none;stroke-opacity:1"
       clip-path="url(#clipEmfPath1-051)"
       d="M 592.7896,341.99086 H 718.80779"
       id="path7753" />
    <path
       transform="matrix(0.26458333,0,0,0.26458333,353.77202,109.67367)"
       style="fill:none;stroke:#000000;stroke-width:0.504073px;stroke-linecap:round;stroke-linejoin:round;stroke-miterlimit:4;stroke-dasharray:none;stroke-opacity:1"
       clip-path="url(#clipEmfPath1-051)"
       d="m 706.54202,348.20888 12.26577,-6.21802 -12.26577,-6.04996"
       id="path7755" />
    <g
       transform="matrix(0.26458333,0,0,0.26458333,353.77202,109.67367)"
       clip-path="url(#clipEmfPath1-051)"
       id="g7763">
      <text
         xml:space="preserve"
         style="font-style:normal;font-variant:normal;font-weight:400;font-size:18px;line-height:125%;font-family:Helvetica;text-align:start;letter-spacing:0px;word-spacing:0px;text-anchor:start;fill:#000000;fill-opacity:1;stroke:none"
         transform="translate(619.50545,327.70623)"
         x="35.81543"
         y="0"
         id="text7761"><tspan
           style="text-align:center;text-anchor:middle"
           sodipodi:role="line"
           x="35.81543"
           y="0"
           id="tspan7759">terminé<tspan
   style="font-style:normal;font-variant:normal;font-weight:400;font-size:18px;font-family:Helvetica;text-align:center;text-anchor:middle;fill:#000000"
   id="tspan7757" /></tspan></text>
    </g>
    <path
       transform="matrix(0.26458333,0,0,0.26458333,353.77202,109.67367)"
       style="fill:#ffffff;fill-opacity:1;fill-rule:evenodd;stroke:none"
       clip-path="url(#clipEmfPath1-051)"
       d="m 819.62235,190.74183 h 1.68024 l 1.51222,-0.16805 1.51222,-0.16806 1.51222,-0.16805 1.34419,-0.33611 1.51222,-0.50416 1.34419,-0.50417 1.3442,-0.50416 1.34419,-0.67222 1.3442,-0.50416 1.34419,-0.84027 1.17617,-0.84028 1.17617,-0.84027 1.17617,-0.84027 1.00814,-1.00833 1.17617,-1.00832 1.00815,-1.00833 0.84012,-1.00833 1.00815,-1.17638 0.84012,-1.17638 0.67209,-1.17638 0.84013,-1.34444 0.67209,-1.34443 0.50408,-1.34444 0.50407,-1.34444 0.50407,-1.34443 0.50407,-1.51249 0.33605,-1.34444 0.16803,-1.51249 0.16802,-1.51249 0.16803,-1.51249 v -1.68054 0 -1.51249 l -0.16803,-1.51249 -0.16802,-1.51249 -0.16803,-1.51249 -0.33605,-1.51249 -0.50407,-1.34444 -0.50407,-1.51249 -0.50407,-1.34444 -0.50408,-1.34443 -0.67209,-1.34444 -0.84013,-1.17638 -0.67209,-1.17638 -0.84012,-1.17638 -1.00815,-1.17638 -0.84012,-1.17638 -1.00815,-1.00833 -1.17617,-1.00833 -1.00814,-1.00833 -1.17617,-0.84027 -1.17617,-0.84027 -1.17617,-0.84027 -1.34419,-0.67222 -1.3442,-0.67222 -1.34419,-0.67222 -1.3442,-0.50416 -1.34419,-0.50416 -1.51222,-0.33611 -1.34419,-0.33611 -1.51222,-0.33611 -1.51222,-0.16805 h -1.51222 l -1.68024,-0.16806 h -70.57019 l -1.51222,0.16806 h -1.51222 l -1.51222,0.16805 -1.51221,0.33611 -1.51222,0.33611 -1.3442,0.33611 -1.51222,0.50416 -1.34419,0.50416 -1.34419,0.67222 -1.17617,0.67222 -1.3442,0.67222 -1.17617,0.84027 -1.17617,0.84027 -1.17617,0.84027 -1.17617,1.00833 -1.00814,1.00833 -1.00815,1.00833 -1.00814,1.17638 -0.84013,1.17638 -0.84012,1.17638 -0.84012,1.17638 -0.67209,1.17638 -0.6721,1.34444 -0.6721,1.34443 -0.50407,1.34444 -0.50407,1.51249 -0.33605,1.34444 -0.33605,1.51249 -0.33605,1.51249 -0.16802,1.51249 v 1.51249 l -0.16803,1.51249 0.16803,1.68054 v 1.51249 l 0.16802,1.51249 0.33605,1.51249 0.33605,1.34444 0.33605,1.51249 0.50407,1.34443 0.50407,1.34444 0.6721,1.34444 0.6721,1.34443 0.67209,1.34444 0.84012,1.17638 0.84012,1.17638 0.84013,1.17638 1.00814,1.00833 1.00815,1.00833 1.00814,1.00832 1.17617,1.00833 1.17617,0.84027 1.17617,0.84027 1.17617,0.84028 1.3442,0.84027 1.17617,0.50416 1.34419,0.67222 1.34419,0.50416 1.51222,0.50417 1.3442,0.50416 1.51222,0.33611 1.51221,0.16805 1.51222,0.16806 1.51222,0.16805 h 1.51222 z"
       id="path7765" />
    <path
       transform="matrix(0.26458333,0,0,0.26458333,353.77202,109.67367)"
       style="fill:none;stroke:#000000;stroke-width:0.504073px;stroke-linecap:round;stroke-linejoin:round;stroke-miterlimit:4;stroke-dasharray:none;stroke-opacity:1"
       clip-path="url(#clipEmfPath1-051)"
       d="m 819.62235,190.74183 h 1.68024 l 1.51222,-0.16805 1.51222,-0.16806 1.51222,-0.16805 1.34419,-0.33611 1.51222,-0.50416 1.34419,-0.50417 1.3442,-0.50416 1.34419,-0.67222 1.3442,-0.50416 1.34419,-0.84027 1.17617,-0.84028 1.17617,-0.84027 1.17617,-0.84027 1.00814,-1.00833 1.17617,-1.00832 1.00815,-1.00833 0.84012,-1.00833 1.00815,-1.17638 0.84012,-1.17638 0.67209,-1.17638 0.84013,-1.34444 0.67209,-1.34443 0.50408,-1.34444 0.50407,-1.34444 0.50407,-1.34443 0.50407,-1.51249 0.33605,-1.34444 0.16803,-1.51249 0.16802,-1.51249 0.16803,-1.51249 v -1.68054 0 -1.51249 l -0.16803,-1.51249 -0.16802,-1.51249 -0.16803,-1.51249 -0.33605,-1.51249 -0.50407,-1.34444 -0.50407,-1.51249 -0.50407,-1.34444 -0.50408,-1.34443 -0.67209,-1.34444 -0.84013,-1.17638 -0.67209,-1.17638 -0.84012,-1.17638 -1.00815,-1.17638 -0.84012,-1.17638 -1.00815,-1.00833 -1.17617,-1.00833 -1.00814,-1.00833 -1.17617,-0.84027 -1.17617,-0.84027 -1.17617,-0.84027 -1.34419,-0.67222 -1.3442,-0.67222 -1.34419,-0.67222 -1.3442,-0.50416 -1.34419,-0.50416 -1.51222,-0.33611 -1.34419,-0.33611 -1.51222,-0.33611 -1.51222,-0.16805 h -1.51222 l -1.68024,-0.16806 h -70.57019 l -1.51222,0.16806 h -1.51222 l -1.51222,0.16805 -1.51221,0.33611 -1.51222,0.33611 -1.3442,0.33611 -1.51222,0.50416 -1.34419,0.50416 -1.34419,0.67222 -1.17617,0.67222 -1.3442,0.67222 -1.17617,0.84027 -1.17617,0.84027 -1.17617,0.84027 -1.17617,1.00833 -1.00814,1.00833 -1.00815,1.00833 -1.00814,1.17638 -0.84013,1.17638 -0.84012,1.17638 -0.84012,1.17638 -0.67209,1.17638 -0.6721,1.34444 -0.6721,1.34443 -0.50407,1.34444 -0.50407,1.51249 -0.33605,1.34444 -0.33605,1.51249 -0.33605,1.51249 -0.16802,1.51249 v 1.51249 l -0.16803,1.51249 0.16803,1.68054 v 1.51249 l 0.16802,1.51249 0.33605,1.51249 0.33605,1.34444 0.33605,1.51249 0.50407,1.34443 0.50407,1.34444 0.6721,1.34444 0.6721,1.34443 0.67209,1.34444 0.84012,1.17638 0.84012,1.17638 0.84013,1.17638 1.00814,1.00833 1.00815,1.00833 1.00814,1.00832 1.17617,1.00833 1.17617,0.84027 1.17617,0.84027 1.17617,0.84028 1.3442,0.84027 1.17617,0.50416 1.34419,0.67222 1.34419,0.50416 1.51222,0.50417 1.3442,0.50416 1.51222,0.33611 1.51221,0.16805 1.51222,0.16806 1.51222,0.16805 h 1.51222 70.57019 v 0"
       id="path7767" />
    <g
       transform="matrix(0.26458333,0,0,0.26458333,353.77202,109.67367)"
       clip-path="url(#clipEmfPath1-051)"
       id="g7775">
      <text
         xml:space="preserve"
         style="font-style:normal;font-variant:normal;font-weight:400;font-size:18px;line-height:125%;font-family:Helvetica;text-align:start;letter-spacing:0px;word-spacing:0px;text-anchor:start;fill:#000000;fill-opacity:1;stroke:none"
         transform="translate(755.43708,165.86977)"
         x="27.219727"
         y="0"
         id="text7773"><tspan
           sodipodi:role="line"
           style="text-align:center;text-anchor:middle"
           x="27.219727"
           y="0"
           id="tspan7771">Conversation<tspan
   style="font-style:normal;font-variant:normal;font-weight:400;font-size:18px;font-family:Helvetica;text-align:center;text-anchor:middle;fill:#000000"
   id="tspan7769" /></tspan></text>
    </g>
    <path
       transform="matrix(0.26458333,0,0,0.26458333,353.77202,109.67367)"
       style="fill:none;stroke:#000000;stroke-width:0.504073px;stroke-linecap:round;stroke-linejoin:round;stroke-miterlimit:4;stroke-dasharray:none;stroke-opacity:1"
       clip-path="url(#clipEmfPath1-051)"
       d="M 784.33725,311.74106 V 190.74183"
       id="path7777" />
    <path
       transform="matrix(0.26458333,0,0,0.26458333,353.77202,109.67367)"
       style="fill:none;stroke:#000000;stroke-width:0.504073px;stroke-linecap:round;stroke-linejoin:round;stroke-miterlimit:4;stroke-dasharray:none;stroke-opacity:1"
       clip-path="url(#clipEmfPath1-051)"
       d="m 792.23439,206.3709 -7.89714,-15.62907 -7.72911,15.62907"
       id="path7779" />
    <g
       transform="matrix(0.26458333,0,0,0.26458333,353.77202,109.67367)"
       clip-path="url(#clipEmfPath1-051)"
       id="g7787">
      <text
         xml:space="preserve"
         style="font-style:normal;font-variant:normal;font-weight:400;font-size:18px;line-height:125%;font-family:Helvetica;text-align:start;letter-spacing:0px;word-spacing:0px;text-anchor:start;fill:#000000;fill-opacity:1;stroke:none"
         transform="translate(658.31906,271.40798)"
         x="0"
         y="0"
         id="text7785"><tspan
           sodipodi:role="line"
           x="0"
           y="0"
           id="tspan7783"><tspan
             dx="0"
             dy="0"
             style="font-style:normal;font-variant:normal;font-weight:400;font-size:18px;font-family:Helvetica;fill:#000000"
             id="tspan7781">connecté</tspan></tspan></text>
    </g>
  </g>
</svg>
