<?xml version="1.0" encoding="UTF-8" standalone="no"?>
<svg
   xmlns:dc="http://purl.org/dc/elements/1.1/"
   xmlns:cc="http://creativecommons.org/ns#"
   xmlns:rdf="http://www.w3.org/1999/02/22-rdf-syntax-ns#"
   xmlns:svg="http://www.w3.org/2000/svg"
   xmlns="http://www.w3.org/2000/svg"
   xmlns:sodipodi="http://sodipodi.sourceforge.net/DTD/sodipodi-0.dtd"
   xmlns:inkscape="http://www.inkscape.org/namespaces/inkscape"
   sodipodi:docname="Fig.A15.23.svg"
   inkscape:version="1.0 (4035a4fb49, 2020-05-01)"
   id="svg8"
   version="1.1"
   viewBox="0 0 226.32579 67.743798"
   height="67.743797mm"
   width="226.32579mm">
  <defs
     id="defs2">
    <clipPath
       clipPathUnits="userSpaceOnUse"
       id="clipEmfPath1">
      <path
         d="M 0,0 H 863.47668 V 389.36402 H 0 Z"
         id="path833" />
    </clipPath>
    <pattern
       id="EMFhbasepattern"
       patternUnits="userSpaceOnUse"
       width="6"
       height="6"
       x="0"
       y="0" />
    <clipPath
       clipPathUnits="userSpaceOnUse"
       id="clipEmfPath1-6">
      <path
         d="M 0,0 H 863.47668 V 346.35009 H 0 Z"
         id="path974" />
    </clipPath>
    <pattern
       id="EMFhbasepattern-7"
       patternUnits="userSpaceOnUse"
       width="6"
       height="6"
       x="0"
       y="0" />
    <clipPath
       clipPathUnits="userSpaceOnUse"
       id="clipEmfPath1-8">
      <path
         d="M 0,0 H 863.47668 V 552.14537 H 0 Z"
         id="path1103" />
    </clipPath>
    <pattern
       id="EMFhbasepattern-8"
       patternUnits="userSpaceOnUse"
       width="6"
       height="6"
       x="0"
       y="0" />
    <clipPath
       clipPathUnits="userSpaceOnUse"
       id="clipEmfPath1-82">
      <path
         d="M 0,0 H 863.47668 V 374.81284 H 0 Z"
         id="path1499" />
    </clipPath>
    <pattern
       id="EMFhbasepattern-9"
       patternUnits="userSpaceOnUse"
       width="6"
       height="6"
       x="0"
       y="0" />
    <clipPath
       clipPathUnits="userSpaceOnUse"
       id="clipEmfPath1-64">
      <path
         d="M 0,0 H 743.54936 V 531.99758 H 0 Z"
         id="path1664" />
    </clipPath>
    <pattern
       id="EMFhbasepattern-85"
       patternUnits="userSpaceOnUse"
       width="6"
       height="6"
       x="0"
       y="0" />
    <clipPath
       clipPathUnits="userSpaceOnUse"
       id="clipEmfPath1-1">
      <path
         d="M 0,0 H 863.47668 V 317.88734 H 0 Z"
         id="path1754" />
    </clipPath>
    <pattern
       id="EMFhbasepattern-89"
       patternUnits="userSpaceOnUse"
       width="6"
       height="6"
       x="0"
       y="0" />
    <clipPath
       clipPathUnits="userSpaceOnUse"
       id="clipEmfPath1-86">
      <path
         d="M 0,0 H 863.47668 V 295.1811 H 0 Z"
         id="path1961" />
    </clipPath>
    <pattern
       id="EMFhbasepattern-1"
       patternUnits="userSpaceOnUse"
       width="6"
       height="6"
       x="0"
       y="0" />
    <clipPath
       clipPathUnits="userSpaceOnUse"
       id="clipEmfPath1-0">
      <path
         d="M 0,0 H 863.47668 V 320.28589 H 0 Z"
         id="path2372" />
    </clipPath>
    <pattern
       id="EMFhbasepattern-3"
       patternUnits="userSpaceOnUse"
       width="6"
       height="6"
       x="0"
       y="0" />
    <clipPath
       clipPathUnits="userSpaceOnUse"
       id="clipEmfPath1-2">
      <path
         d="M 0,0 H 863.47668 V 430.61902 H 0 Z"
         id="path2540" />
    </clipPath>
    <pattern
       id="EMFhbasepattern-5"
       patternUnits="userSpaceOnUse"
       width="6"
       height="6"
       x="0"
       y="0" />
    <clipPath
       clipPathUnits="userSpaceOnUse"
       id="clipEmfPath1-7">
      <path
         d="M 0,0 H 863.47668 V 356.58389 H 0 Z"
         id="path2978" />
    </clipPath>
    <pattern
       id="EMFhbasepattern-0"
       patternUnits="userSpaceOnUse"
       width="6"
       height="6"
       x="0"
       y="0" />
    <clipPath
       clipPathUnits="userSpaceOnUse"
       id="clipEmfPath1-67">
      <path
         d="M 0,0 H 863.47668 V 272.15506 H 0 Z"
         id="path3428" />
    </clipPath>
    <pattern
       id="EMFhbasepattern-34"
       patternUnits="userSpaceOnUse"
       width="6"
       height="6"
       x="0"
       y="0" />
  </defs>
  <sodipodi:namedview
     inkscape:window-maximized="1"
     inkscape:window-y="-8"
     inkscape:window-x="1272"
     inkscape:window-height="1017"
     inkscape:window-width="1920"
     fit-margin-bottom="0.1"
     fit-margin-right="0"
     fit-margin-left="0"
     fit-margin-top="0"
     showgrid="false"
     inkscape:document-rotation="0"
     inkscape:current-layer="layer1"
     inkscape:document-units="mm"
     inkscape:cy="163.71024"
     inkscape:cx="68.504807"
     inkscape:zoom="0.98994949"
     inkscape:pageshadow="2"
     inkscape:pageopacity="0.0"
     borderopacity="1.0"
     bordercolor="#666666"
     pagecolor="#ffffff"
     id="base" />
  <metadata
     id="metadata5">
    <rdf:RDF>
      <cc:Work
         rdf:about="">
        <dc:format>image/svg+xml</dc:format>
        <dc:type
           rdf:resource="http://purl.org/dc/dcmitype/StillImage" />
        <dc:title></dc:title>
      </cc:Work>
    </rdf:RDF>
  </metadata>
  <g
     transform="translate(-302.14157,-130.7816)"
     id="layer1"
     inkscape:groupmode="layer"
     inkscape:label="Layer 1">
    <path
       transform="matrix(0.26458333,0,0,0.26458333,301.10511,127.57797)"
       style="fill:none;stroke:#000000;stroke-width:0.712244px;stroke-linecap:round;stroke-linejoin:round;stroke-miterlimit:4;stroke-dasharray:none;stroke-opacity:1"
       clip-path="url(#clipEmfPath1-67)"
       d="M 189.4568,81.077552 H 673.78246"
       id="path3434" />
    <g
       transform="matrix(0.26458333,0,0,0.26458333,301.10511,127.57797)"
       clip-path="url(#clipEmfPath1-67)"
       id="g3474">
      <text
         xml:space="preserve"
         style="font-style:normal;font-variant:normal;font-weight:400;font-size:25.375px;line-height:119.585%;font-family:Helvetica;text-align:start;letter-spacing:0px;word-spacing:0px;text-anchor:start;fill:#000000;fill-opacity:1;stroke:none"
         transform="translate(242.63766,30.581884)"
         x="0"
         y="0"
         id="text3458"><tspan
           sodipodi:role="line"
           x="0"
           y="0"
           id="tspan3448"><tspan
             dx="0"
             dy="0"
             style="font-style:normal;font-variant:normal;font-weight:400;font-size:25.375px;font-family:Helvetica;fill:#000000"
             id="tspan3436">1</tspan><tspan
             dx="0"
             dy="0"
             style="font-style:normal;font-variant:normal;font-weight:400;font-size:25.375px;font-family:Helvetica;fill:#000000"
             id="tspan3438">: </tspan><tspan
             dx="0"
             dy="0"
             style="font-style:normal;font-variant:normal;font-weight:400;font-size:25.375px;font-family:Helvetica;fill:#000000"
             id="tspan3440">makePayment</tspan><tspan
             dx="0"
             dy="0"
             style="font-style:normal;font-variant:normal;font-weight:400;font-size:25.375px;font-family:Helvetica;fill:#000000"
             id="tspan3442">(</tspan><tspan
             dx="0"
             dy="0"
             style="font-style:normal;font-variant:normal;font-weight:400;font-size:25.375px;font-family:Helvetica;fill:#000000"
             id="tspan3444">cashTendered</tspan><tspan
             dx="2.5052171"
             dy="0"
             style="font-style:normal;font-variant:normal;font-weight:400;font-size:25.375px;font-family:Helvetica;fill:#000000"
             id="tspan3446">)</tspan></tspan><tspan
           sodipodi:role="line"
           x="0"
           y="30.344694"
           id="tspan3456"><tspan
             dx="0"
             dy="0"
             style="font-style:normal;font-variant:normal;font-weight:400;font-size:25.375px;font-family:Helvetica;fill:#000000"
             id="tspan3450">2</tspan><tspan
             dx="0"
             dy="0"
             style="font-style:normal;font-variant:normal;font-weight:400;font-size:25.375px;font-family:Helvetica;fill:#000000"
             id="tspan3452">: </tspan><tspan
             dx="0"
             dy="0"
             style="font-style:normal;font-variant:normal;font-weight:400;font-size:25.375px;font-family:Helvetica;fill:#000000"
             id="tspan3454">foo</tspan></tspan></text>
      <text
         xml:space="preserve"
         style="font-style:normal;font-variant:normal;font-weight:400;font-size:25.375px;line-height:125%;font-family:Helvetica;text-align:start;letter-spacing:0px;word-spacing:0px;text-anchor:start;fill:#000000;fill-opacity:1;stroke:none"
         transform="translate(242.63766,30.581884)"
         x="0"
         y="91.034447"
         id="text3472"><tspan
           sodipodi:role="line"
           x="0"
           y="91.034447"
           id="tspan3470"><tspan
             dx="0"
             dy="0"
             style="font-style:normal;font-variant:normal;font-weight:400;font-size:25.375px;font-family:Helvetica;fill:#000000"
             id="tspan3460">2</tspan><tspan
             dx="0"
             dy="0"
             style="font-style:normal;font-variant:normal;font-weight:400;font-size:25.375px;font-family:Helvetica;fill:#000000"
             id="tspan3462">.</tspan><tspan
             dx="0"
             dy="0"
             style="font-style:normal;font-variant:normal;font-weight:400;font-size:25.375px;font-family:Helvetica;fill:#000000"
             id="tspan3464">1</tspan><tspan
             dx="0"
             dy="0"
             style="font-style:normal;font-variant:normal;font-weight:400;font-size:25.375px;font-family:Helvetica;fill:#000000"
             id="tspan3466">: </tspan><tspan
             dx="0"
             dy="0"
             style="font-style:normal;font-variant:normal;font-weight:400;font-size:25.375px;font-family:Helvetica;fill:#000000"
             id="tspan3468">bar</tspan></tspan></text>
    </g>
    <path
       transform="matrix(0.26458333,0,0,0.26458333,301.10511,127.57797)"
       style="fill:#ffffff;fill-opacity:1;fill-rule:evenodd;stroke:none"
       clip-path="url(#clipEmfPath1-67)"
       d="M 4.2734617,45.517222 V 116.63788 H 189.4568 V 45.517222 Z"
       id="path3476" />
    <path
       transform="matrix(0.26458333,0,0,0.26458333,301.10511,127.57797)"
       style="fill:none;stroke:#000000;stroke-width:0.712244px;stroke-linecap:round;stroke-linejoin:round;stroke-miterlimit:4;stroke-dasharray:none;stroke-opacity:1"
       clip-path="url(#clipEmfPath1-67)"
       d="M 4.2734617,116.63788 H 189.4568 V 45.517222 H 4.2734617 Z"
       id="path3478" />
    <g
       transform="matrix(0.26458333,0,0,0.26458333,301.10511,127.57797)"
       clip-path="url(#clipEmfPath1-67)"
       id="g3488">
      <text
         xml:space="preserve"
         style="font-style:normal;font-variant:normal;font-weight:400;font-size:25.375px;line-height:125%;font-family:Helvetica;text-align:start;letter-spacing:0px;word-spacing:0px;text-anchor:start;fill:#000000;fill-opacity:1;stroke:none"
         transform="translate(42.734617,88.663756)"
         x="0"
         y="0"
         id="text3486"><tspan
           sodipodi:role="line"
           x="0"
           y="0"
           id="tspan3484"><tspan
             dx="0"
             dy="0"
             style="font-style:normal;font-variant:normal;font-weight:400;font-size:25.375px;font-family:Helvetica;fill:#000000"
             id="tspan3480">: </tspan><tspan
             dx="0"
             dy="0"
             style="font-style:normal;font-variant:normal;font-weight:400;font-size:25.375px;font-family:Helvetica;fill:#000000"
             id="tspan3482">Register</tspan></tspan></text>
    </g>
    <path
       transform="matrix(0.26458333,0,0,0.26458333,301.10511,127.57797)"
       style="fill:#ffffff;fill-opacity:1;fill-rule:evenodd;stroke:none"
       clip-path="url(#clipEmfPath1-67)"
       d="M 673.78246,45.517222 V 116.63788 H 858.9658 V 45.517222 Z"
       id="path3490" />
    <path
       transform="matrix(0.26458333,0,0,0.26458333,301.10511,127.57797)"
       style="fill:none;stroke:#000000;stroke-width:0.712244px;stroke-linecap:round;stroke-linejoin:round;stroke-miterlimit:4;stroke-dasharray:none;stroke-opacity:1"
       clip-path="url(#clipEmfPath1-67)"
       d="M 673.78246,116.63788 H 858.9658 V 45.517222 H 673.78246 Z"
       id="path3492" />
    <g
       transform="matrix(0.26458333,0,0,0.26458333,301.10511,127.57797)"
       clip-path="url(#clipEmfPath1-67)"
       id="g3502">
      <text
         xml:space="preserve"
         style="font-style:normal;font-variant:normal;font-weight:400;font-size:25.375px;line-height:125%;font-family:Helvetica;text-align:start;letter-spacing:0px;word-spacing:0px;text-anchor:start;fill:#000000;fill-opacity:1;stroke:none"
         transform="translate(737.64697,88.663756)"
         x="0"
         y="0"
         id="text3500"><tspan
           sodipodi:role="line"
           x="0"
           y="0"
           id="tspan3498"><tspan
             dx="0"
             dy="0"
             style="font-style:normal;font-variant:normal;font-weight:400;font-size:25.375px;font-family:Helvetica;fill:#000000"
             id="tspan3494">:</tspan><tspan
             dx="0"
             dy="0"
             style="font-style:normal;font-variant:normal;font-weight:400;font-size:25.375px;font-family:Helvetica;fill:#000000"
             id="tspan3496">Sale</tspan></tspan></text>
    </g>
    <path
       transform="matrix(0.26458333,0,0,0.26458333,301.10511,127.57797)"
       style="fill:none;stroke:#000000;stroke-width:0.712244px;stroke-linecap:round;stroke-linejoin:round;stroke-miterlimit:4;stroke-dasharray:none;stroke-opacity:1"
       clip-path="url(#clipEmfPath1-67)"
       d="M 358.97078,54.051701 H 386.9857"
       id="path3504" />
    <path
       transform="matrix(0.26458333,0,0,0.26458333,301.10511,127.57797)"
       style="fill:#000000;fill-opacity:1;fill-rule:evenodd;stroke:none"
       clip-path="url(#clipEmfPath1-67)"
       d="M 385.79863,59.504285 401.7054,54.051701 385.79863,48.836186 Z"
       id="path3506" />
    <path
       transform="matrix(0.26458333,0,0,0.26458333,301.10511,127.57797)"
       style="fill:#ffffff;fill-opacity:1;fill-rule:evenodd;stroke:none"
       clip-path="url(#clipEmfPath1-67)"
       d="m 544.15412,210.51715 v 56.89653 h 227.91796 v -56.89653 z"
       id="path3508" />
    <path
       transform="matrix(0.26458333,0,0,0.26458333,301.10511,127.57797)"
       style="fill:none;stroke:#000000;stroke-width:0.712244px;stroke-linecap:round;stroke-linejoin:round;stroke-miterlimit:4;stroke-dasharray:none;stroke-opacity:1"
       clip-path="url(#clipEmfPath1-67)"
       d="M 544.15412,267.41368 H 772.07208 V 210.51715 H 544.15412 Z"
       id="path3510" />
    <g
       transform="matrix(0.26458333,0,0,0.26458333,301.10511,127.57797)"
       clip-path="url(#clipEmfPath1-67)"
       id="g3518">
      <text
         xml:space="preserve"
         style="font-style:normal;font-variant:normal;font-weight:400;font-size:25.375px;line-height:125%;font-family:Helvetica;text-align:start;letter-spacing:0px;word-spacing:0px;text-anchor:start;fill:#000000;fill-opacity:1;stroke:none"
         transform="translate(556.7371,246.55162)"
         x="0"
         y="0"
         id="text3516"><tspan
           sodipodi:role="line"
           x="0"
           y="0"
           id="tspan3514"><tspan
             dx="0"
             dy="0"
             style="font-style:normal;font-variant:normal;font-weight:400;font-size:25.375px;font-family:Helvetica;fill:#000000"
             id="tspan3512">link line</tspan></tspan></text>
    </g>
    <path
       transform="matrix(0.26458333,0,0,0.26458333,301.10511,127.57797)"
       style="fill:#ffffff;fill-opacity:1;fill-rule:evenodd;stroke:none"
       clip-path="url(#clipEmfPath1-67)"
       d="m 740.25853,210.51715 31.81355,32.0043 v -32.0043 z"
       id="path3520" />
    <path
       transform="matrix(0.26458333,0,0,0.26458333,301.10511,127.57797)"
       style="fill:none;stroke:#ffffff;stroke-width:0.712244px;stroke-linecap:round;stroke-linejoin:round;stroke-miterlimit:4;stroke-dasharray:none;stroke-opacity:1"
       clip-path="url(#clipEmfPath1-67)"
       d="m 740.25853,210.51715 31.81355,32.0043 v -32.0043 z"
       id="path3522" />
    <path
       transform="matrix(0.26458333,0,0,0.26458333,301.10511,127.57797)"
       style="fill:#000000;fill-opacity:1;fill-rule:evenodd;stroke:none"
       clip-path="url(#clipEmfPath1-67)"
       d="m 772.07208,242.52145 -31.81355,-32.0043 v 32.0043 z"
       id="path3524" />
    <path
       transform="matrix(0.26458333,0,0,0.26458333,301.10511,127.57797)"
       style="fill:none;stroke:#000000;stroke-width:0.712244px;stroke-linecap:round;stroke-linejoin:round;stroke-miterlimit:4;stroke-dasharray:none;stroke-opacity:1"
       clip-path="url(#clipEmfPath1-67)"
       d="m 772.07208,242.52145 -31.81355,-32.0043 v 32.0043 z"
       id="path3526" />
    <path
       transform="matrix(0.26458333,0,0,0.26458333,301.10511,127.57797)"
       style="fill:#000000;fill-opacity:1;fill-rule:nonzero;stroke:#000000;stroke-width:0.237415px;stroke-linecap:round;stroke-linejoin:round;stroke-miterlimit:4;stroke-dasharray:none;stroke-opacity:1"
       clip-path="url(#clipEmfPath1-67)"
       d="m 657.87569,210.75422 v 0 h -0.23742 v -0.23707 l 0.23742,-0.23707 h 0.23741 l 0.23742,0.23707 v 0 0.23707 0.23707 h -0.23742 -0.23741 z m -1.89932,-3.31896 v 0 -0.23707 0 l 0.23742,-0.23707 v 0 h 0.23741 0.23742 v 0 0.47414 l -0.23742,0.23707 h -0.23741 z m -1.6619,-3.31897 v 0 -0.23707 0 -0.23706 l 0.23742,-0.23707 v 0 l 0.47482,0.23707 v 0 0.23706 l -0.23741,0.23707 -0.23741,0.23707 v 0 z m -1.89931,-3.31896 v 0 -0.23707 -0.23707 l 0.23741,-0.23707 h 0.23741 l 0.23742,0.23707 v 0 0.23707 0.23707 h -0.23742 -0.23741 z m -1.66191,-3.55603 v 0 -0.23707 l 0.23742,-0.23707 v 0 h 0.23741 l 0.23742,0.23707 v 0 0 0.23707 l -0.23742,0.23706 v 0 h -0.23741 -0.23742 z m -1.6619,-3.31897 v 0 l -0.23741,-0.23707 0.23741,-0.23707 h 0.23742 l 0.23741,0.23707 v 0 h 0.23742 l -0.23742,0.23707 v 0.23707 h -0.23741 v 0 z m -1.89931,-3.31896 v 0 -0.23707 l 0.23741,-0.23707 v 0 h 0.23741 0.23742 v 0 0.23707 0.23707 l -0.23742,0.23707 h -0.23741 z m -1.66191,-3.31897 v 0 -0.23707 0 -0.23706 h 0.47483 0.23742 v 0 0.23706 0 l -0.23742,0.23707 -0.23741,0.23707 v 0 z m -1.89931,-3.31896 v 0 -0.23707 -0.23707 h 0.23741 v -0.23707 h 0.23742 l 0.23741,0.23707 v 0 0.23707 0 0.23707 0 h -0.47483 z m -1.6619,-3.31896 v 0 -0.23707 -0.23707 l 0.23741,-0.23707 v 0 h 0.23741 v 0 l 0.23742,0.23707 v 0 0.23707 l -0.23742,0.23707 v 0 h -0.23741 z m -1.66191,-3.55604 v 0 h -0.23741 v -0.23707 l 0.23741,-0.23707 h 0.23742 v 0 l 0.23741,0.23707 v 0 l 0.23742,0.23707 -0.23742,0.23707 h -0.23741 z m -1.89931,-3.31896 v 0 -0.23707 0 l 0.23741,-0.23707 v 0 h 0.23742 0.23741 v 0 0.47414 l -0.23741,0.23707 v 0 h -0.23742 z m -1.6619,-3.31897 v 0 -0.23706 -0.23707 h 0.47482 0.23742 v 0 0.23707 0 l -0.23742,0.23706 -0.23741,0.23707 v 0 z m -1.89932,-3.31896 v 0 -0.47414 h 0.23741 l 0.23742,-0.23707 v 0 l 0.23741,0.23707 v 0 0.23707 0 0.23707 h -0.47483 z m -1.6619,-3.31896 v 0 -0.47414 l 0.23741,-0.23707 h 0.23742 l 0.23741,0.23707 v 0 0 0.23707 l -0.23741,0.23707 v 0 h -0.23742 z m -1.6619,-3.55604 v 0 l -0.23742,-0.23707 h 0.23742 v -0.23706 h 0.23741 v 0 l 0.23741,0.23706 v 0 h 0.23742 v 0.23707 l -0.23742,0.23707 h -0.23741 z m -1.89932,-3.31896 v 0 0 -0.23707 l 0.23741,-0.23707 h 0.23742 l 0.23741,0.23707 v 0 0 0.23707 0.23707 h -0.23741 -0.23742 z m -1.6619,-3.31897 v 0 -0.23706 0 -0.23707 h 0.23741 0.23742 0.23741 v 0 0.23707 0 0.23706 l -0.23741,0.23707 h -0.23742 z m -1.6619,-3.31896 v 0 l -0.23742,-0.23707 v 0 l 0.23742,-0.23707 0.23741,-0.23707 v 0 l 0.23741,0.23707 v 0 0.23707 0.23707 l -0.23741,0.23707 z m -1.89932,-3.31896 v 0 -0.23707 -0.23707 l 0.23741,-0.23707 h 0.23742 l 0.23741,0.23707 v 0 0.23707 l -0.23741,0.23707 v 0 h -0.23742 z m -1.6619,-3.55604 v 0 0 -0.23707 -0.23706 h 0.23741 v 0 l 0.47483,0.23706 v 0 0.23707 l -0.23741,0.23707 h -0.23742 v 0 h -0.23741 z m -1.89932,-3.31896 v 0 -0.23707 l 0.23742,-0.23707 h 0.23741 l 0.23741,0.23707 v 0 0 0.23707 0.23707 h -0.23741 -0.23741 z m -1.6619,-3.31896 v 0 -0.23707 l 0.23741,-0.23707 v 0 h 0.23742 0.23741 v 0 0.23707 0 l -0.23741,0.47413 h -0.23742 z m -1.6619,-3.31897 v 0 l -0.23742,-0.23707 0.23742,-0.23707 0.23741,-0.23707 0.23742,0.23707 v 0 l 0.23741,0.23707 h -0.23741 v 0.23707 l -0.23742,0.23707 v -0.23707 z m -1.89932,-3.31896 v 0 -0.23707 -0.23707 0 l 0.23742,-0.23707 v 0 h 0.23741 l 0.23741,0.23707 v 0 0 0.23707 l -0.23741,0.23707 h -0.23741 z m -1.6619,-3.55604 v 0 0 -0.23706 -0.23707 h 0.23741 v 0 h 0.23742 l 0.23741,0.23707 v 0 0 0.23706 l -0.23741,0.23707 h -0.23742 v 0 z m -1.89932,-3.31896 v 0 0 -0.23707 l 0.23742,-0.23707 v 0 h 0.23741 l 0.23742,0.23707 v 0 0.23707 0.23707 h -0.47483 z m -1.6619,-3.31896 v 0 -0.23707 0 l 0.23742,-0.23707 v 0 h 0.23741 0.23742 v 0 0.47414 l -0.23742,0.23706 v 0 h -0.23741 z m -1.6619,-3.31897 v 0 l -0.23741,-0.23707 v 0 l 0.23741,-0.23707 0.23741,-0.23706 0.23742,0.23706 v 0 l 0.23741,0.23707 -0.23741,0.23707 -0.23742,0.23707 v -0.23707 z m -1.89932,-3.31896 v 0 -0.23707 -0.23707 l 0.23742,-0.23707 v 0 h 0.23741 l 0.23742,0.23707 v 0 0.23707 l -0.23742,0.23707 h -0.23741 z m -1.6619,-3.55604 v 0 -0.23706 -0.23707 h 0.47483 l 0.23742,0.23707 v 0 0 0.23706 l -0.23742,0.23707 h -0.23741 v 0 z m -1.89931,-3.31896 v 0 -0.23707 l 0.23741,-0.23707 h 0.23741 v 0 l 0.23742,0.23707 v 0 0 0.23707 0.23707 h -0.47483 z m -1.66191,-3.31896 v 0 -0.23707 l 0.23742,-0.23707 h 0.23741 0.23742 v 0 0.23707 0.23707 l -0.23742,0.23707 v 0 h -0.23741 z m -1.6619,-3.318968 v 0 l -0.23741,-0.237069 v 0 l 0.23741,-0.237068 v 0 l 0.23742,-0.237069 v 0 l 0.23741,0.237069 v 0 l 0.23742,0.237068 v 0 l -0.23742,0.237069 -0.23741,0.237068 z m -1.89931,-3.318964 v 0 -0.237069 -0.237068 l 0.23741,-0.237069 v 0 h 0.23741 l 0.23742,0.237069 v 0 0.237068 0 0.237069 h -0.23742 -0.23741 z m -1.66191,-3.556033 v 0 0 -0.237069 -0.237068 h 0.47483 l 0.23742,0.237068 v 0 0.237069 l -0.23742,0.237069 h -0.23741 z m -1.6619,-3.318964 v 0 h -0.23741 v -0.237069 l 0.23741,-0.237069 h 0.23742 v 0 l 0.23741,0.237069 v 0 0.237069 0.237069 h -0.23741 -0.23742 z"
       id="path3528" />
    <path
       transform="matrix(0.26458333,0,0,0.26458333,301.10511,127.57797)"
       style="fill:none;stroke:#000000;stroke-width:0.712244px;stroke-linecap:round;stroke-linejoin:round;stroke-miterlimit:4;stroke-dasharray:none;stroke-opacity:1"
       clip-path="url(#clipEmfPath1-67)"
       d="m 593.53635,86.530136 0.94966,-0.711207 0.94966,-0.711206 0.71224,-1.185345 0.47483,-1.185344 0.23741,-0.474138 V 81.55169 80.840483 80.366345 79.655139 l -0.23741,-0.711207 v -0.474138 l -0.47483,-0.711206 -0.71224,-1.185344 -0.94966,-0.711207 -0.94966,-0.711207 -1.18707,-0.474137 -0.47483,-0.237069 -0.71225,-0.237069 h -0.71224 -0.47483 l -0.71224,0.237069 h -0.71225 l -0.47483,0.237069 -0.71224,0.237068 v 0 l -1.18707,0.711207 -0.71225,0.948276 -0.71224,1.185344 -0.47483,1.185344 -0.23741,0.474138 -0.23742,0.711207 v 0.474137 0.711207 l 0.23742,0.711206 v 0.474138 l 0.23741,0.711207 0.23742,0.711206 0.71224,0.948276 0.94966,0.948275 1.18707,0.711207 1.18707,0.474138 0.47483,0.237068 h 0.71225 0.47483 0.71224 0.71224 l 0.47483,-0.237068 h 0.71225 l 0.71224,-0.474138"
       id="path3530" />
    <path
       transform="matrix(0.26458333,0,0,0.26458333,301.10511,127.57797)"
       style="fill:none;stroke:#000000;stroke-width:0.712244px;stroke-linecap:round;stroke-linejoin:round;stroke-miterlimit:4;stroke-dasharray:none;stroke-opacity:1"
       clip-path="url(#clipEmfPath1-67)"
       d="m 629.62336,20.387922 h 28.01491"
       id="path3532" />
    <path
       transform="matrix(0.26458333,0,0,0.26458333,301.10511,127.57797)"
       style="fill:#000000;fill-opacity:1;fill-rule:evenodd;stroke:none"
       clip-path="url(#clipEmfPath1-67)"
       d="M 656.4512,25.603437 672.35798,20.387922 656.4512,15.172407 Z"
       id="path3534" />
    <path
       transform="matrix(0.26458333,0,0,0.26458333,301.10511,127.57797)"
       style="fill:none;stroke:#000000;stroke-width:0.712244px;stroke-linecap:round;stroke-linejoin:round;stroke-miterlimit:4;stroke-dasharray:none;stroke-opacity:1"
       clip-path="url(#clipEmfPath1-67)"
       d="M 330.48104,135.84046 H 302.22871"
       id="path3536" />
    <path
       transform="matrix(0.26458333,0,0,0.26458333,301.10511,127.57797)"
       style="fill:#000000;fill-opacity:1;fill-rule:evenodd;stroke:none"
       clip-path="url(#clipEmfPath1-67)"
       d="m 303.6532,141.29304 -15.90678,-5.45258 15.90678,-5.21552 z"
       id="path3538" />
  </g>
</svg>
