<?xml version="1.0" encoding="UTF-8" standalone="no"?>
<svg
   xmlns:dc="http://purl.org/dc/elements/1.1/"
   xmlns:cc="http://creativecommons.org/ns#"
   xmlns:rdf="http://www.w3.org/1999/02/22-rdf-syntax-ns#"
   xmlns:svg="http://www.w3.org/2000/svg"
   xmlns="http://www.w3.org/2000/svg"
   xmlns:sodipodi="http://sodipodi.sourceforge.net/DTD/sodipodi-0.dtd"
   xmlns:inkscape="http://www.inkscape.org/namespaces/inkscape"
   sodipodi:docname="Fig.A15.20.svg"
   inkscape:version="1.0 (4035a4fb49, 2020-05-01)"
   id="svg8"
   version="1.1"
   viewBox="0 0 226.68829 56.799474"
   height="56.799473mm"
   width="226.68829mm">
  <defs
     id="defs2">
    <clipPath
       clipPathUnits="userSpaceOnUse"
       id="clipEmfPath1">
      <path
         d="M 0,0 H 863.47668 V 389.36402 H 0 Z"
         id="path833" />
    </clipPath>
    <pattern
       id="EMFhbasepattern"
       patternUnits="userSpaceOnUse"
       width="6"
       height="6"
       x="0"
       y="0" />
    <clipPath
       clipPathUnits="userSpaceOnUse"
       id="clipEmfPath1-6">
      <path
         d="M 0,0 H 863.47668 V 346.35009 H 0 Z"
         id="path974" />
    </clipPath>
    <pattern
       id="EMFhbasepattern-7"
       patternUnits="userSpaceOnUse"
       width="6"
       height="6"
       x="0"
       y="0" />
    <clipPath
       clipPathUnits="userSpaceOnUse"
       id="clipEmfPath1-8">
      <path
         d="M 0,0 H 863.47668 V 552.14537 H 0 Z"
         id="path1103" />
    </clipPath>
    <pattern
       id="EMFhbasepattern-8"
       patternUnits="userSpaceOnUse"
       width="6"
       height="6"
       x="0"
       y="0" />
    <clipPath
       clipPathUnits="userSpaceOnUse"
       id="clipEmfPath1-82">
      <path
         d="M 0,0 H 863.47668 V 374.81284 H 0 Z"
         id="path1499" />
    </clipPath>
    <pattern
       id="EMFhbasepattern-9"
       patternUnits="userSpaceOnUse"
       width="6"
       height="6"
       x="0"
       y="0" />
    <clipPath
       clipPathUnits="userSpaceOnUse"
       id="clipEmfPath1-64">
      <path
         d="M 0,0 H 743.54936 V 531.99758 H 0 Z"
         id="path1664" />
    </clipPath>
    <pattern
       id="EMFhbasepattern-85"
       patternUnits="userSpaceOnUse"
       width="6"
       height="6"
       x="0"
       y="0" />
    <clipPath
       clipPathUnits="userSpaceOnUse"
       id="clipEmfPath1-1">
      <path
         d="M 0,0 H 863.47668 V 317.88734 H 0 Z"
         id="path1754" />
    </clipPath>
    <pattern
       id="EMFhbasepattern-89"
       patternUnits="userSpaceOnUse"
       width="6"
       height="6"
       x="0"
       y="0" />
    <clipPath
       clipPathUnits="userSpaceOnUse"
       id="clipEmfPath1-86">
      <path
         d="M 0,0 H 863.47668 V 295.1811 H 0 Z"
         id="path1961" />
    </clipPath>
    <pattern
       id="EMFhbasepattern-1"
       patternUnits="userSpaceOnUse"
       width="6"
       height="6"
       x="0"
       y="0" />
    <clipPath
       clipPathUnits="userSpaceOnUse"
       id="clipEmfPath1-0">
      <path
         d="M 0,0 H 863.47668 V 320.28589 H 0 Z"
         id="path2372" />
    </clipPath>
    <pattern
       id="EMFhbasepattern-3"
       patternUnits="userSpaceOnUse"
       width="6"
       height="6"
       x="0"
       y="0" />
    <clipPath
       clipPathUnits="userSpaceOnUse"
       id="clipEmfPath1-2">
      <path
         d="M 0,0 H 863.47668 V 430.61902 H 0 Z"
         id="path2540" />
    </clipPath>
    <pattern
       id="EMFhbasepattern-5"
       patternUnits="userSpaceOnUse"
       width="6"
       height="6"
       x="0"
       y="0" />
    <clipPath
       clipPathUnits="userSpaceOnUse"
       id="clipEmfPath1-7">
      <path
         d="M 0,0 H 863.47668 V 356.58389 H 0 Z"
         id="path2978" />
    </clipPath>
    <pattern
       id="EMFhbasepattern-0"
       patternUnits="userSpaceOnUse"
       width="6"
       height="6"
       x="0"
       y="0" />
    <clipPath
       clipPathUnits="userSpaceOnUse"
       id="clipEmfPath1-67">
      <path
         d="M 0,0 H 863.47668 V 272.15506 H 0 Z"
         id="path3428" />
    </clipPath>
    <pattern
       id="EMFhbasepattern-34"
       patternUnits="userSpaceOnUse"
       width="6"
       height="6"
       x="0"
       y="0" />
    <clipPath
       clipPathUnits="userSpaceOnUse"
       id="clipEmfPath1-9">
      <path
         d="M 0,0 H 863.47668 V 310.21199 H 0 Z"
         id="path3602" />
    </clipPath>
    <pattern
       id="EMFhbasepattern-03"
       patternUnits="userSpaceOnUse"
       width="6"
       height="6"
       x="0"
       y="0" />
    <clipPath
       clipPathUnits="userSpaceOnUse"
       id="clipEmfPath1-3">
      <path
         d="M 0,0 H 863.47668 V 220.98607 H 0 Z"
         id="path3821" />
    </clipPath>
    <pattern
       id="EMFhbasepattern-2"
       patternUnits="userSpaceOnUse"
       width="6"
       height="6"
       x="0"
       y="0" />
  </defs>
  <sodipodi:namedview
     inkscape:window-maximized="1"
     inkscape:window-y="-8"
     inkscape:window-x="1272"
     inkscape:window-height="1017"
     inkscape:window-width="1920"
     fit-margin-bottom="0.1"
     fit-margin-right="0"
     fit-margin-left="0"
     fit-margin-top="0"
     showgrid="false"
     inkscape:document-rotation="0"
     inkscape:current-layer="layer1"
     inkscape:document-units="mm"
     inkscape:cy="270.97701"
     inkscape:cx="-134.48405"
     inkscape:zoom="0.98994949"
     inkscape:pageshadow="2"
     inkscape:pageopacity="0.0"
     borderopacity="1.0"
     bordercolor="#666666"
     pagecolor="#ffffff"
     id="base" />
  <metadata
     id="metadata5">
    <rdf:RDF>
      <cc:Work
         rdf:about="">
        <dc:format>image/svg+xml</dc:format>
        <dc:type
           rdf:resource="http://purl.org/dc/dcmitype/StillImage" />
        <dc:title></dc:title>
      </cc:Work>
    </rdf:RDF>
  </metadata>
  <g
     transform="translate(-355.84904,-59.637475)"
     id="layer1"
     inkscape:groupmode="layer"
     inkscape:label="Layer 1">
    <path
       transform="matrix(0.26458333,0,0,0.26458333,354.96242,58.752596)"
       style="fill:none;stroke:#000000;stroke-width:0.64858px;stroke-linecap:round;stroke-linejoin:round;stroke-miterlimit:4;stroke-dasharray:none;stroke-opacity:1"
       clip-path="url(#clipEmfPath1-3)"
       d="M 211.22101,184.94635 H 613.34085"
       id="path3827" />
    <g
       transform="matrix(0.26458333,0,0,0.26458333,354.96242,58.752596)"
       clip-path="url(#clipEmfPath1-3)"
       id="g3843">
      <text
         xml:space="preserve"
         style="font-style:normal;font-variant:normal;font-weight:400;font-size:23.125px;line-height:125%;font-family:Arial;text-align:start;letter-spacing:0px;word-spacing:0px;text-anchor:start;fill:#000000;fill-opacity:1;stroke:none"
         transform="translate(273.48473,166.81859)"
         x="0"
         y="0"
         id="text3841"><tspan
           sodipodi:role="line"
           x="0"
           y="0"
           id="tspan3839"><tspan
             dx="0"
             dy="0"
             style="font-style:normal;font-variant:normal;font-weight:400;font-size:23.125px;font-family:Arial;fill:#000000"
             id="tspan3829">1</tspan><tspan
             dx="0"
             dy="0"
             style="font-style:normal;font-variant:normal;font-weight:400;font-size:23.125px;font-family:Arial;fill:#000000"
             id="tspan3831">: </tspan><tspan
             dx="0"
             dy="0"
             style="font-style:normal;font-variant:normal;font-weight:400;font-size:23.125px;font-family:Arial;fill:#000000"
             id="tspan3833">locs </tspan><tspan
             dx="0"
             dy="0"
             style="font-style:normal;font-variant:normal;font-weight:400;font-size:23.125px;font-family:Arial;fill:#000000"
             id="tspan3835">= </tspan><tspan
             dx="0"
             dy="0"
             style="font-style:normal;font-variant:normal;font-weight:400;font-size:23.125px;font-family:Arial;fill:#000000"
             id="tspan3837">getAvailableLocales</tspan></tspan></text>
    </g>
    <path
       transform="matrix(0.26458333,0,0,0.26458333,354.96242,58.752596)"
       style="fill:#ffffff;fill-opacity:1;fill-rule:evenodd;stroke:none"
       clip-path="url(#clipEmfPath1-3)"
       d="m 3.6752888,152.57534 v 64.74202 H 211.22101 v -64.74202 z"
       id="path3845" />
    <path
       transform="matrix(0.26458333,0,0,0.26458333,354.96242,58.752596)"
       style="fill:none;stroke:#000000;stroke-width:0.64858px;stroke-linecap:round;stroke-linejoin:round;stroke-miterlimit:4;stroke-dasharray:none;stroke-opacity:1"
       clip-path="url(#clipEmfPath1-3)"
       d="M 3.6752888,217.31736 H 211.22101 V 152.57534 H 3.6752888 Z"
       id="path3847" />
    <g
       transform="matrix(0.26458333,0,0,0.26458333,354.96242,58.752596)"
       clip-path="url(#clipEmfPath1-3)"
       id="g3857">
      <text
         xml:space="preserve"
         style="font-style:normal;font-variant:normal;font-weight:400;font-size:23.125px;line-height:125%;font-family:Arial;text-align:start;letter-spacing:0px;word-spacing:0px;text-anchor:start;fill:#000000;fill-opacity:1;stroke:none"
         transform="translate(81.072548,191.85216)"
         x="0"
         y="0"
         id="text3855"><tspan
           sodipodi:role="line"
           x="0"
           y="0"
           id="tspan3853"><tspan
             dx="0"
             dy="0"
             style="font-style:normal;font-variant:normal;font-weight:400;font-size:23.125px;font-family:Arial;fill:#000000"
             id="tspan3849">: </tspan><tspan
             dx="0"
             dy="0"
             style="font-style:normal;font-variant:normal;font-weight:400;font-size:23.125px;font-family:Arial;fill:#000000"
             id="tspan3851">Foo</tspan></tspan></text>
    </g>
    <path
       transform="matrix(0.26458333,0,0,0.26458333,354.96242,58.752596)"
       style="fill:#ffffff;fill-opacity:1;fill-rule:evenodd;stroke:none"
       clip-path="url(#clipEmfPath1-3)"
       d="m 613.34085,152.57534 v 64.74202 h 246.46054 v -64.74202 z"
       id="path3859" />
    <path
       transform="matrix(0.26458333,0,0,0.26458333,354.96242,58.752596)"
       style="fill:none;stroke:#000000;stroke-width:0.64858px;stroke-linecap:round;stroke-linejoin:round;stroke-miterlimit:4;stroke-dasharray:none;stroke-opacity:1"
       clip-path="url(#clipEmfPath1-3)"
       d="M 613.34085,217.31736 H 859.80139 V 152.57534 H 613.34085 Z"
       id="path3861" />
    <g
       transform="matrix(0.26458333,0,0,0.26458333,354.96242,58.752596)"
       clip-path="url(#clipEmfPath1-3)"
       id="g3873">
      <text
         xml:space="preserve"
         style="font-style:normal;font-variant:normal;font-weight:700;font-size:23.125px;line-height:116.554%;font-family:Arial;text-align:center;letter-spacing:0px;word-spacing:0px;text-anchor:middle;fill:#000000;fill-opacity:1;stroke:none"
         transform="translate(667.8216,178.04053)"
         x="68.787842"
         y="0"
         id="text3871"><tspan
           sodipodi:role="line"
           x="68.787842"
           y="0"
           id="tspan3865"><tspan
             dx="0"
             dy="0"
             style="font-style:normal;font-variant:normal;font-weight:700;font-size:23.125px;font-family:Arial;fill:#000000"
             id="tspan3863">«metaclass»</tspan></tspan><tspan
           sodipodi:role="line"
           x="68.787842"
           y="26.953112"
           id="tspan3869"><tspan
             dx="0"
             dy="0"
             style="font-style:normal;font-variant:normal;font-weight:400;font-size:23.125px;font-family:Arial;fill:#000000"
             id="tspan3867">Calendar</tspan></tspan></text>
    </g>
    <path
       transform="matrix(0.26458333,0,0,0.26458333,354.96242,58.752596)"
       style="fill:none;stroke:#000000;stroke-width:0.64858px;stroke-linecap:round;stroke-linejoin:round;stroke-miterlimit:4;stroke-dasharray:none;stroke-opacity:1"
       clip-path="url(#clipEmfPath1-3)"
       d="M 107.44815,152.57534 V 81.359129"
       id="path3875" />
    <g
       transform="matrix(0.26458333,0,0,0.26458333,354.96242,58.752596)"
       clip-path="url(#clipEmfPath1-3)"
       id="g3883">
      <text
         xml:space="preserve"
         style="font-style:normal;font-variant:normal;font-weight:400;font-size:23.125px;line-height:125%;font-family:Arial;text-align:start;letter-spacing:0px;word-spacing:0px;text-anchor:start;fill:#000000;fill-opacity:1;stroke:none"
         transform="translate(150.90303,116.10401)"
         x="0"
         y="0"
         id="text3881"><tspan
           sodipodi:role="line"
           x="0"
           y="0"
           id="tspan3879"><tspan
             dx="0"
             dy="0"
             style="font-style:normal;font-variant:normal;font-weight:400;font-size:23.125px;font-family:Arial;fill:#000000"
             id="tspan3877">doX</tspan></tspan></text>
    </g>
    <path
       transform="matrix(0.26458333,0,0,0.26458333,354.96242,58.752596)"
       style="fill:#ffffff;fill-opacity:1;fill-rule:evenodd;stroke:none"
       clip-path="url(#clipEmfPath1-3)"
       d="M 438.22414,3.668714 V 81.359129 H 741.32738 V 3.668714 Z"
       id="path3885" />
    <path
       transform="matrix(0.26458333,0,0,0.26458333,354.96242,58.752596)"
       style="fill:none;stroke:#000000;stroke-width:0.64858px;stroke-linecap:round;stroke-linejoin:round;stroke-miterlimit:4;stroke-dasharray:none;stroke-opacity:1"
       clip-path="url(#clipEmfPath1-3)"
       d="M 438.22414,81.359129 H 741.32738 V 3.668714 H 438.22414 Z"
       id="path3887" />
    <g
       transform="matrix(0.26458333,0,0,0.26458333,354.96242,58.752596)"
       clip-path="url(#clipEmfPath1-3)"
       id="g3903">
      <text
         xml:space="preserve"
         style="font-style:normal;font-variant:normal;font-weight:400;font-size:23.125px;line-height:119.452%;font-family:Arial;text-align:start;letter-spacing:0px;word-spacing:0px;text-anchor:start;fill:#000000;fill-opacity:1;stroke:none"
         transform="translate(449.6824,35.608107)"
         x="0"
         y="0"
         id="text3901"><tspan
           sodipodi:role="line"
           x="0"
           y="0"
           id="tspan3895"><tspan
             dx="0"
             dy="0"
             style="font-style:normal;font-variant:normal;font-weight:400;font-size:23.125px;font-family:Arial;fill:#000000"
             id="tspan3889">message to class</tspan><tspan
             dx="-0.51076299"
             dy="0"
             style="font-style:normal;font-variant:normal;font-weight:400;font-size:23.125px;font-family:Arial;fill:#000000"
             id="tspan3891">, </tspan><tspan
             dx="0"
             dy="0"
             style="font-style:normal;font-variant:normal;font-weight:400;font-size:23.125px;font-family:Arial;fill:#000000"
             id="tspan3893">or a </tspan></tspan><tspan
           sodipodi:role="line"
           x="0"
           y="27.623276"
           id="tspan3899"><tspan
             dx="0"
             dy="0"
             style="font-style:normal;font-variant:normal;font-weight:400;font-size:23.125px;font-family:Arial;fill:#000000"
             id="tspan3897">static method call</tspan></tspan></text>
    </g>
    <path
       transform="matrix(0.26458333,0,0,0.26458333,354.96242,58.752596)"
       style="fill:#ffffff;fill-opacity:1;fill-rule:evenodd;stroke:none"
       clip-path="url(#clipEmfPath1-3)"
       d="m 712.35745,3.668714 28.96993,28.918099 V 3.668714 Z"
       id="path3905" />
    <path
       transform="matrix(0.26458333,0,0,0.26458333,354.96242,58.752596)"
       style="fill:none;stroke:#ffffff;stroke-width:0.64858px;stroke-linecap:round;stroke-linejoin:round;stroke-miterlimit:4;stroke-dasharray:none;stroke-opacity:1"
       clip-path="url(#clipEmfPath1-3)"
       d="m 712.35745,3.668714 28.96993,28.918099 V 3.668714 Z"
       id="path3907" />
    <path
       transform="matrix(0.26458333,0,0,0.26458333,354.96242,58.752596)"
       style="fill:#000000;fill-opacity:1;fill-rule:evenodd;stroke:none"
       clip-path="url(#clipEmfPath1-3)"
       d="M 741.32738,32.586813 712.35745,3.668714 v 28.918099 z"
       id="path3909" />
    <path
       transform="matrix(0.26458333,0,0,0.26458333,354.96242,58.752596)"
       style="fill:none;stroke:#000000;stroke-width:0.64858px;stroke-linecap:round;stroke-linejoin:round;stroke-miterlimit:4;stroke-dasharray:none;stroke-opacity:1"
       clip-path="url(#clipEmfPath1-3)"
       d="M 741.32738,32.586813 712.35745,3.668714 v 28.918099 z"
       id="path3911" />
    <path
       transform="matrix(0.26458333,0,0,0.26458333,354.96242,58.752596)"
       style="fill:#000000;fill-opacity:1;fill-rule:nonzero;stroke:#000000;stroke-width:0.216193px;stroke-linecap:round;stroke-linejoin:round;stroke-miterlimit:4;stroke-dasharray:none;stroke-opacity:1"
       clip-path="url(#clipEmfPath1-3)"
       d="m 589.77576,81.574936 v 0 0 h -0.21619 l -0.2162,-0.215807 v -0.215807 h 0.2162 l 0.21619,-0.215806 v 0 0 h 0.21619 l 0.2162,0.215806 v 0.215807 l -0.2162,0.215807 z m -3.2429,1.079033 v 0 h -0.2162 v 0 l -0.21619,-0.215807 v -0.215806 0 l 0.21619,-0.215807 v 0 h 0.2162 v 0 l 0.21619,0.215807 v 0.215806 0 z m -3.2429,1.079034 v 0 h -0.2162 v -0.215807 l -0.21619,-0.215807 v 0 -0.215806 l 0.21619,-0.215807 v 0 0 l 0.2162,0.215807 h 0.21619 v 0.215806 0.215807 z m -3.4591,0.863227 v 0 0 h -0.21619 l -0.2162,-0.215807 v -0.215807 h 0.2162 v -0.215807 h 0.21619 v 0 0 h 0.21619 l 0.2162,0.215807 v 0.215807 h -0.2162 z m -3.2429,1.079033 v 0 h -0.21619 v 0 l -0.2162,-0.215807 v -0.215806 0 l 0.2162,-0.215807 v 0 h 0.21619 v 0 h 0.21619 v 0.215807 0.215806 z m -3.2429,0.863227 v 0 h -0.2162 v 0 l -0.21619,-0.215807 v 0 -0.215806 l 0.21619,-0.215807 v 0 h 0.2162 v 0.215807 l 0.21619,0.215806 v 0 0.215807 z m -3.2429,1.079033 v 0 h -0.43239 v -0.215806 l -0.2162,-0.215807 h 0.2162 l 0.21619,-0.215807 v 0 0 h 0.2162 v 0.215807 h 0.21619 l -0.21619,0.215807 z m -3.4591,1.079034 v 0 h -0.21619 v 0 l -0.2162,-0.215807 v -0.215806 -0.215807 h 0.2162 v 0 h 0.21619 0.21619 v 0.215807 0 0.215806 z m -3.2429,0.863227 v 0 h -0.2162 v 0 l -0.21619,-0.215807 v 0 -0.215807 l 0.21619,-0.215806 v 0 h 0.2162 v 0 l 0.21619,0.215806 v 0.215807 0.215807 z m -3.2429,1.079033 v 0 h -0.2162 -0.21619 v -0.215806 l -0.21619,-0.215807 h 0.21619 l 0.21619,-0.215807 v 0 0 h 0.2162 l 0.21619,0.215807 v 0.215807 0 z m -3.4591,1.079034 v 0 0 h -0.21619 l -0.2162,-0.215807 v -0.215806 -0.215807 h 0.2162 v 0 h 0.21619 0.21619 v 0.215807 0 0.215806 z m -3.2429,0.863227 v 0 h -0.21619 v 0 l -0.2162,-0.215807 v 0 -0.215807 l 0.2162,-0.215806 v 0 h 0.21619 v 0 l 0.21619,0.215806 v 0.215807 0.215807 z m -3.2429,1.079033 v 0 h -0.43239 v -0.215806 -0.215807 0 l 0.21619,-0.215807 v 0 0 h 0.2162 l 0.21619,0.215807 v 0.215807 0 z m -3.4591,1.079034 v 0 0 h -0.21619 l -0.2162,-0.215807 v -0.215807 -0.215806 h 0.2162 v 0 l 0.21619,-0.215807 0.21619,0.215807 v 0.215806 0 0.215807 z m -3.2429,0.863227 v 0 h -0.21619 v 0 l -0.2162,-0.215807 v -0.215807 0 l 0.2162,-0.215806 v 0 h 0.21619 v 0 l 0.21619,0.215806 v 0.215807 0.215807 z m -3.2429,1.079033 v 0 h -0.2162 -0.21619 v -0.215806 -0.215807 0 l 0.21619,-0.215807 v 0 0 h 0.2162 l 0.21619,0.215807 v 0.215807 0 z m -3.4591,1.079034 v 0 0 l -0.21619,-0.215807 -0.21619,-0.215807 v 0 l 0.21619,-0.215806 v 0 0 h 0.43239 v 0.215806 0 0.215807 z m -3.2429,0.863227 v 0 h -0.21619 v 0 l -0.2162,-0.215807 v -0.215807 0 l 0.2162,-0.215807 v 0 h 0.21619 v 0 l 0.21619,0.215807 v 0.215807 0 z m -3.2429,1.079033 v 0 h -0.2162 l -0.21619,-0.215807 v -0.215806 0 l 0.21619,-0.215807 v 0 0 h 0.2162 l 0.21619,0.215807 v 0 0.215806 z m -3.4591,1.079031 v 0 0 l -0.21619,-0.2158 -0.21619,-0.21581 v 0 l 0.21619,-0.21581 0.21619,-0.215804 v 0 0 l 0.2162,0.215804 0.21619,0.21581 v 0 l -0.21619,0.21581 z m -3.2429,0.86323 v 0 h -0.21619 v 0 l -0.2162,-0.21581 v -0.2158 0 l 0.2162,-0.21581 v 0 h 0.21619 v 0 l 0.21619,0.21581 v 0.2158 0 z m -3.2429,1.07903 v 0 h -0.21619 v 0 l -0.2162,-0.2158 v -0.21581 -0.21581 h 0.2162 v 0 h 0.21619 v 0 l 0.21619,0.21581 v 0 0.21581 z m -3.4591,0.86323 v 0 0 h -0.21619 v -0.21581 h -0.21619 l 0.21619,-0.2158 v 0 l 0.21619,-0.21581 v 0 h 0.2162 l 0.21619,0.21581 v 0.2158 l -0.21619,0.21581 z m -3.2429,1.07903 v 0 h -0.21619 v 0 l -0.2162,-0.2158 v -0.21581 0 l 0.2162,-0.21581 v 0 h 0.21619 0.2162 v 0.21581 0.21581 0 z m -3.2429,1.07904 v 0 h -0.21619 v 0 l -0.2162,-0.21581 v -0.21581 -0.2158 h 0.2162 v 0 h 0.21619 v 0 l 0.21619,0.2158 v 0 0.21581 z m -3.2429,0.86322 v 0 h -0.2162 -0.21619 v -0.2158 h -0.21619 l 0.21619,-0.21581 0.21619,-0.21581 v 0 0 h 0.2162 l 0.21619,0.21581 v 0.21581 0.2158 z m -3.4591,1.07904 v 0 0 h -0.21619 l -0.21619,-0.21581 v -0.21581 0 l 0.21619,-0.2158 v 0 h 0.21619 0.2162 v 0.2158 0.21581 0 z m -3.2429,1.07903 v 0 h -0.21619 v 0 l -0.2162,-0.21581 v -0.2158 -0.21581 h 0.2162 v 0 l 0.21619,-0.21581 v 0.21581 l 0.21619,0.21581 v 0 0.2158 z m -3.2429,0.86323 v 0 h -0.21619 -0.2162 v 0 -0.21581 -0.21581 -0.2158 h 0.2162 v 0 h 0.21619 l 0.21619,0.2158 v 0.21581 0.21581 z m -3.4591,1.07903 v 0 0 h -0.21619 l -0.21619,-0.21581 v -0.2158 0 l 0.21619,-0.21581 v 0 h 0.21619 0.2162 v 0.21581 0.2158 0 z m -3.2429,1.07903 v 0 h -0.21619 v -0.2158 h -0.2162 v 0 -0.43162 h 0.2162 v 0 l 0.21619,-0.2158 v 0.2158 l 0.2162,0.21581 v 0 0.21581 z m -3.2429,0.86323 v 0 h -0.21619 -0.2162 v -0.21581 -0.2158 0 l 0.2162,-0.21581 v 0 0 h 0.21619 l 0.21619,0.21581 v 0.2158 0 z m -3.4591,1.07904 v 0 0 h -0.21619 v -0.21581 h -0.21619 v -0.21581 l 0.21619,-0.2158 v 0 h 0.21619 0.2162 v 0.2158 0.21581 0 z m -3.2429,1.07903 v 0 h -0.21619 v -0.21581 l -0.21619,-0.2158 v 0 -0.21581 l 0.21619,-0.21581 v 0 h 0.21619 v 0.21581 l 0.2162,0.21581 v 0 0.2158 z m -3.2429,0.86323 v 0 h -0.21619 -0.2162 v -0.21581 -0.21581 0 l 0.2162,-0.2158 v 0 0 h 0.21619 l 0.21619,0.2158 v 0.21581 0 z m -3.45909,1.07903 v 0 0 h -0.2162 l -0.21619,-0.21581 v -0.2158 h 0.21619 l 0.2162,-0.21581 v 0 0 h 0.21619 v 0 l 0.21619,0.21581 v 0 l -0.21619,0.2158 z m -3.24291,0.86323 v 0 h -0.21619 v 0 l -0.21619,-0.21581 v 0 -0.21581 l 0.21619,-0.2158 v 0 h 0.21619 v 0.2158 h 0.2162 v 0.21581 0.21581 z m -3.2429,1.07903 v 0 h -0.21619 l -0.2162,-0.21581 v -0.2158 0 l 0.2162,-0.21581 v 0 0 h 0.21619 l 0.21619,0.21581 v 0 0.2158 z m -3.45909,1.07903 v 0 0 h -0.2162 l -0.21619,-0.2158 v -0.21581 l 0.21619,-0.21581 h 0.2162 v 0 0 h 0.21619 l 0.21619,0.21581 v 0 l -0.21619,0.21581 z m -3.24291,0.86323 v 0 h -0.21619 v 0 l -0.21619,-0.21581 v 0 -0.2158 l 0.21619,-0.21581 v 0 h 0.21619 v 0 l 0.2162,0.21581 v 0 0.43161 z m -3.2429,1.07903 v 0 h -0.21619 v 0 l -0.21619,-0.2158 v -0.21581 0 l 0.21619,-0.21581 v 0 h 0.21619 v 0 l 0.2162,0.21581 v 0.21581 0 z m -3.2429,1.07904 v 0 h -0.21619 -0.2162 v -0.21581 l -0.21619,-0.21581 0.21619,-0.2158 h 0.2162 v 0 0 h 0.21619 v 0 l 0.21619,0.2158 -0.21619,0.21581 z m -3.4591,0.86322 v 0 h -0.21619 v 0 l -0.21619,-0.2158 v 0 -0.21581 l 0.21619,-0.21581 v 0 h 0.21619 0.2162 v 0.21581 0.21581 0.2158 z m -3.2429,1.07904 v 0 h -0.21619 l -0.21619,-0.21581 v -0.21581 0 l 0.21619,-0.2158 v 0 h 0.21619 v 0 l 0.2162,0.2158 v 0.21581 0 z m -3.2429,1.07903 v 0 h -0.21619 -0.2162 v -0.21581 l -0.21619,-0.2158 0.21619,-0.21581 h 0.2162 v 0 -0.21581 l 0.21619,0.21581 0.21619,0.21581 v 0 0.2158 z m -3.45909,0.86323 v 0 0 h -0.2162 l -0.21619,-0.21581 v -0.21581 0 l 0.21619,-0.2158 v 0 h 0.2162 0.21619 v 0.2158 0.21581 0.21581 z m -3.24291,1.07903 v 0 h -0.21619 v 0 l -0.21619,-0.21581 v -0.2158 0 l 0.21619,-0.21581 v 0 h 0.21619 v 0 l 0.2162,0.21581 v 0.2158 0 z m -3.2429,1.07903 v 0 h -0.21619 l -0.21619,-0.2158 v -0.21581 0 -0.21581 0 h 0.21619 v 0 h 0.21619 l 0.2162,0.21581 v 0 0.21581 z m -3.45909,0.86323 v 0 0 h -0.2162 l -0.21619,-0.21581 v -0.2158 0 l 0.21619,-0.21581 v 0 h 0.2162 0.21619 v 0.21581 0.2158 0 z m -3.24291,1.07904 v 0 h -0.21619 v 0 l -0.21619,-0.21581 v -0.21581 0 l 0.21619,-0.21581 v 0 h 0.21619 v 0 l 0.2162,0.21581 v 0 0.21581 z"
       id="path3913" />
    <path
       transform="matrix(0.26458333,0,0,0.26458333,354.96242,58.752596)"
       style="fill:none;stroke:#000000;stroke-width:0.64858px;stroke-linecap:round;stroke-linejoin:round;stroke-miterlimit:4;stroke-dasharray:none;stroke-opacity:1"
       clip-path="url(#clipEmfPath1-3)"
       d="m 424.38776,131.42629 0.2162,0.43161 v 0.64742 0.64742 0.64742 0.43161 l -0.2162,0.64742 -0.43238,1.07904 -0.64858,0.86322 -0.86478,0.86323 -0.86477,0.64742 -0.64858,0.21581 -0.43239,0.2158 -0.64858,0.21581 h -0.64858 -0.64858 -0.43239 -0.64858 l -0.43238,-0.21581 -1.08097,-0.43161 -1.08097,-0.64742 -0.86477,-0.86323 -0.64858,-0.86322 -0.2162,-0.64742 -0.21619,-0.43162 v 0 -0.64742 l -0.21619,-0.64742 v -0.64742 -0.43161 l 0.21619,-0.64742 v -0.43161 l 0.43239,-1.07904 0.64858,-1.07903 0.86477,-0.86323 1.08097,-0.64742 0.43238,-0.21581 0.64859,-0.2158 h 0.43238 l 0.64858,-0.21581 h 0.64858 0.64858 l 0.43239,0.21581 h 0.64858 l 1.08097,0.43161 0.86477,0.64742 0.86478,0.86323 0.64858,1.07903 0.21619,0.43162 0.21619,0.64742"
       id="path3915" />
    <path
       transform="matrix(0.26458333,0,0,0.26458333,354.96242,58.752596)"
       style="fill:none;stroke:#000000;stroke-width:0.64858px;stroke-linecap:round;stroke-linejoin:round;stroke-miterlimit:4;stroke-dasharray:none;stroke-opacity:1"
       clip-path="url(#clipEmfPath1-3)"
       d="m 535.5112,133.15274 h 25.51083"
       id="path3917" />
    <path
       transform="matrix(0.26458333,0,0,0.26458333,354.96242,58.752596)"
       style="fill:#000000;fill-opacity:1;fill-rule:evenodd;stroke:none"
       clip-path="url(#clipEmfPath1-3)"
       d="m 559.94106,137.90049 14.48496,-4.74775 -14.48496,-4.96356 z"
       id="path3919" />
    <path
       transform="matrix(0.26458333,0,0,0.26458333,354.96242,58.752596)"
       style="fill:none;stroke:#000000;stroke-width:0.64858px;stroke-linecap:round;stroke-linejoin:round;stroke-miterlimit:4;stroke-dasharray:none;stroke-opacity:1"
       clip-path="url(#clipEmfPath1-3)"
       d="M 220.94972,94.307531 V 119.77272"
       id="path3921" />
    <path
       transform="matrix(0.26458333,0,0,0.26458333,354.96242,58.752596)"
       style="fill:#000000;fill-opacity:1;fill-rule:evenodd;stroke:none"
       clip-path="url(#clipEmfPath1-3)"
       d="m 215.97727,118.47788 4.97245,14.67486 4.75625,-14.67486 z"
       id="path3923" />
  </g>
</svg>
