<?xml version="1.0" encoding="UTF-8" standalone="no"?>
<svg
   xmlns:dc="http://purl.org/dc/elements/1.1/"
   xmlns:cc="http://creativecommons.org/ns#"
   xmlns:rdf="http://www.w3.org/1999/02/22-rdf-syntax-ns#"
   xmlns:svg="http://www.w3.org/2000/svg"
   xmlns="http://www.w3.org/2000/svg"
   xmlns:sodipodi="http://sodipodi.sourceforge.net/DTD/sodipodi-0.dtd"
   xmlns:inkscape="http://www.inkscape.org/namespaces/inkscape"
   width="225.67728mm"
   height="110.70804mm"
   viewBox="0 0 225.67727 110.70803"
   version="1.1"
   id="svg8"
   inkscape:version="1.0 (4035a4fb49, 2020-05-01)"
   sodipodi:docname="Fig.A15.34.svg">
  <defs
     id="defs2">
    <clipPath
       id="clipEmfPath1"
       clipPathUnits="userSpaceOnUse">
      <path
         id="path833"
         d="M 0,0 H 863.47668 V 389.36402 H 0 Z" />
    </clipPath>
    <pattern
       y="0"
       x="0"
       height="6"
       width="6"
       patternUnits="userSpaceOnUse"
       id="EMFhbasepattern" />
    <clipPath
       id="clipEmfPath1-6"
       clipPathUnits="userSpaceOnUse">
      <path
         id="path974"
         d="M 0,0 H 863.47668 V 346.35009 H 0 Z" />
    </clipPath>
    <pattern
       y="0"
       x="0"
       height="6"
       width="6"
       patternUnits="userSpaceOnUse"
       id="EMFhbasepattern-7" />
    <clipPath
       id="clipEmfPath1-8"
       clipPathUnits="userSpaceOnUse">
      <path
         id="path1103"
         d="M 0,0 H 863.47668 V 552.14537 H 0 Z" />
    </clipPath>
    <pattern
       y="0"
       x="0"
       height="6"
       width="6"
       patternUnits="userSpaceOnUse"
       id="EMFhbasepattern-8" />
    <clipPath
       id="clipEmfPath1-82"
       clipPathUnits="userSpaceOnUse">
      <path
         id="path1499"
         d="M 0,0 H 863.47668 V 374.81284 H 0 Z" />
    </clipPath>
    <pattern
       y="0"
       x="0"
       height="6"
       width="6"
       patternUnits="userSpaceOnUse"
       id="EMFhbasepattern-9" />
    <clipPath
       id="clipEmfPath1-64"
       clipPathUnits="userSpaceOnUse">
      <path
         id="path1664"
         d="M 0,0 H 743.54936 V 531.99758 H 0 Z" />
    </clipPath>
    <pattern
       y="0"
       x="0"
       height="6"
       width="6"
       patternUnits="userSpaceOnUse"
       id="EMFhbasepattern-85" />
    <clipPath
       id="clipEmfPath1-1"
       clipPathUnits="userSpaceOnUse">
      <path
         id="path1754"
         d="M 0,0 H 863.47668 V 317.88734 H 0 Z" />
    </clipPath>
    <pattern
       y="0"
       x="0"
       height="6"
       width="6"
       patternUnits="userSpaceOnUse"
       id="EMFhbasepattern-89" />
    <clipPath
       id="clipEmfPath1-86"
       clipPathUnits="userSpaceOnUse">
      <path
         id="path1961"
         d="M 0,0 H 863.47668 V 295.1811 H 0 Z" />
    </clipPath>
    <pattern
       y="0"
       x="0"
       height="6"
       width="6"
       patternUnits="userSpaceOnUse"
       id="EMFhbasepattern-1" />
    <clipPath
       id="clipEmfPath1-0"
       clipPathUnits="userSpaceOnUse">
      <path
         id="path2372"
         d="M 0,0 H 863.47668 V 320.28589 H 0 Z" />
    </clipPath>
    <pattern
       y="0"
       x="0"
       height="6"
       width="6"
       patternUnits="userSpaceOnUse"
       id="EMFhbasepattern-3" />
    <clipPath
       id="clipEmfPath1-2"
       clipPathUnits="userSpaceOnUse">
      <path
         id="path2540"
         d="M 0,0 H 863.47668 V 430.61902 H 0 Z" />
    </clipPath>
    <pattern
       y="0"
       x="0"
       height="6"
       width="6"
       patternUnits="userSpaceOnUse"
       id="EMFhbasepattern-5" />
    <clipPath
       id="clipEmfPath1-7"
       clipPathUnits="userSpaceOnUse">
      <path
         id="path2978"
         d="M 0,0 H 863.47668 V 356.58389 H 0 Z" />
    </clipPath>
    <pattern
       y="0"
       x="0"
       height="6"
       width="6"
       patternUnits="userSpaceOnUse"
       id="EMFhbasepattern-0" />
    <clipPath
       id="clipEmfPath1-67"
       clipPathUnits="userSpaceOnUse">
      <path
         id="path3428"
         d="M 0,0 H 863.47668 V 272.15506 H 0 Z" />
    </clipPath>
    <pattern
       y="0"
       x="0"
       height="6"
       width="6"
       patternUnits="userSpaceOnUse"
       id="EMFhbasepattern-34" />
    <clipPath
       id="clipEmfPath1-9"
       clipPathUnits="userSpaceOnUse">
      <path
         id="path3602"
         d="M 0,0 H 863.47668 V 310.21199 H 0 Z" />
    </clipPath>
    <pattern
       y="0"
       x="0"
       height="6"
       width="6"
       patternUnits="userSpaceOnUse"
       id="EMFhbasepattern-03" />
    <clipPath
       id="clipEmfPath1-3"
       clipPathUnits="userSpaceOnUse">
      <path
         id="path3821"
         d="M 0,0 H 863.47668 V 220.98607 H 0 Z" />
    </clipPath>
    <pattern
       y="0"
       x="0"
       height="6"
       width="6"
       patternUnits="userSpaceOnUse"
       id="EMFhbasepattern-2" />
    <clipPath
       id="clipEmfPath1-5"
       clipPathUnits="userSpaceOnUse">
      <path
         id="path3983"
         d="M 0,0 H 431.41853 V 527.68019 H 0 Z" />
    </clipPath>
    <pattern
       y="0"
       x="0"
       height="6"
       width="6"
       patternUnits="userSpaceOnUse"
       id="EMFhbasepattern-4" />
    <clipPath
       id="clipEmfPath1-28"
       clipPathUnits="userSpaceOnUse">
      <path
         id="path4070"
         d="M 0,0 H 863.47668 V 498.09812 H 0 Z" />
    </clipPath>
    <pattern
       y="0"
       x="0"
       height="6"
       width="6"
       patternUnits="userSpaceOnUse"
       id="EMFhbasepattern-39" />
    <clipPath
       id="clipEmfPath1-05"
       clipPathUnits="userSpaceOnUse">
      <path
         id="path4475"
         d="M 0,0 H 863.47668 V 238.73531 H 0 Z" />
    </clipPath>
    <pattern
       y="0"
       x="0"
       height="6"
       width="6"
       patternUnits="userSpaceOnUse"
       id="EMFhbasepattern-83" />
    <clipPath
       id="clipEmfPath1-79"
       clipPathUnits="userSpaceOnUse">
      <path
         id="path4715"
         d="M 0,0 H 863.47668 V 519.68504 H 0 Z" />
    </clipPath>
    <pattern
       y="0"
       x="0"
       height="6"
       width="6"
       patternUnits="userSpaceOnUse"
       id="EMFhbasepattern-24" />
    <clipPath
       id="clipEmfPath1-02"
       clipPathUnits="userSpaceOnUse">
      <path
         id="path5213"
         d="M 0,0 H 863.47668 V 495.69958 H 0 Z" />
    </clipPath>
    <pattern
       y="0"
       x="0"
       height="6"
       width="6"
       patternUnits="userSpaceOnUse"
       id="EMFhbasepattern-79" />
    <clipPath
       id="clipEmfPath1-54"
       clipPathUnits="userSpaceOnUse">
      <path
         id="path5675"
         d="M 0,0 H 863.47668 V 422.94367 H 0 Z" />
    </clipPath>
    <pattern
       y="0"
       x="0"
       height="6"
       width="6"
       patternUnits="userSpaceOnUse"
       id="EMFhbasepattern-08" />
    <clipPath
       id="clipEmfPath1-4"
       clipPathUnits="userSpaceOnUse">
      <path
         id="path6137"
         d="M 0,0 H 863.47668 V 510.41066 H 0 Z" />
    </clipPath>
    <pattern
       y="0"
       x="0"
       height="6"
       width="6"
       patternUnits="userSpaceOnUse"
       id="EMFhbasepattern-26" />
    <clipPath
       clipPathUnits="userSpaceOnUse"
       id="clipEmfPath1-22">
      <path
         d="M 0,0 H 863.47668 V 422.94367 H 0 Z"
         id="path7101" />
    </clipPath>
    <pattern
       id="EMFhbasepattern-23"
       patternUnits="userSpaceOnUse"
       width="6"
       height="6"
       x="0"
       y="0" />
  </defs>
  <sodipodi:namedview
     id="base"
     pagecolor="#ffffff"
     bordercolor="#666666"
     borderopacity="1.0"
     inkscape:pageopacity="0.0"
     inkscape:pageshadow="2"
     inkscape:zoom="0.98994949"
     inkscape:cx="148.89826"
     inkscape:cy="379.82896"
     inkscape:document-units="mm"
     inkscape:current-layer="layer1"
     inkscape:document-rotation="0"
     showgrid="false"
     fit-margin-top="0"
     fit-margin-left="0"
     fit-margin-right="0"
     fit-margin-bottom="0.1"
     inkscape:window-width="1920"
     inkscape:window-height="1017"
     inkscape:window-x="1272"
     inkscape:window-y="-8"
     inkscape:window-maximized="1" />
  <metadata
     id="metadata5">
    <rdf:RDF>
      <cc:Work
         rdf:about="">
        <dc:format>image/svg+xml</dc:format>
        <dc:type
           rdf:resource="http://purl.org/dc/dcmitype/StillImage" />
        <dc:title></dc:title>
      </cc:Work>
    </rdf:RDF>
  </metadata>
  <g
     inkscape:label="Layer 1"
     inkscape:groupmode="layer"
     id="layer1"
     transform="translate(-371.76353,-53.69371)">
    <path
       transform="matrix(0.26458333,0,0,0.26458333,371.01979,53.064862)"
       style="fill:#ffffff;fill-opacity:1;fill-rule:evenodd;stroke:none"
       clip-path="url(#clipEmfPath1-22)"
       d="m 188.26386,123.74272 v 43.21631 h 86.49183 v -43.21631 z"
       id="path7107" />
    <path
       transform="matrix(0.26458333,0,0,0.26458333,371.01979,53.064862)"
       style="fill:none;stroke:#000000;stroke-width:0.432459px;stroke-linecap:round;stroke-linejoin:round;stroke-miterlimit:4;stroke-dasharray:none;stroke-opacity:1"
       clip-path="url(#clipEmfPath1-22)"
       d="m 188.26386,166.95903 h 86.49183 v -43.21631 h -86.49183 z"
       id="path7109" />
    <g
       transform="matrix(0.26458333,0,0,0.26458333,371.01979,53.064862)"
       clip-path="url(#clipEmfPath1-22)"
       id="g7119">
      <text
         xml:space="preserve"
         style="font-style:normal;font-variant:normal;font-weight:400;font-size:15.4375px;line-height:125%;font-family:Helvetica;text-align:start;letter-spacing:0px;word-spacing:0px;text-anchor:start;fill:#000000;fill-opacity:1;stroke:none"
         transform="translate(200.66102,149.96061)"
         x="0"
         y="0"
         id="text7117"><tspan
           sodipodi:role="line"
           x="0"
           y="0"
           id="tspan7115"><tspan
             dx="0"
             dy="0"
             style="font-style:normal;font-variant:normal;font-weight:400;font-size:15.4375px;font-family:Helvetica;fill:#000000"
             id="tspan7111">:</tspan><tspan
             dx="0"
             dy="0"
             style="font-style:normal;font-variant:normal;font-weight:400;font-size:15.4375px;font-family:Helvetica;fill:#000000"
             id="tspan7113">Register</tspan></tspan></text>
    </g>
    <path
       transform="matrix(0.26458333,0,0,0.26458333,371.01979,53.064862)"
       style="fill:none;stroke:#000000;stroke-width:0.432459px;stroke-linecap:round;stroke-linejoin:round;stroke-miterlimit:4;stroke-dasharray:none;stroke-opacity:1"
       clip-path="url(#clipEmfPath1-22)"
       d="M 274.75569,145.49493 H 432.74741"
       id="path7121" />
    <g
       transform="matrix(0.26458333,0,0,0.26458333,371.01979,53.064862)"
       clip-path="url(#clipEmfPath1-22)"
       id="g7129">
      <text
         xml:space="preserve"
         style="font-style:normal;font-variant:normal;font-weight:400;font-size:15.4375px;line-height:125%;font-family:Helvetica;text-align:start;letter-spacing:0px;word-spacing:0px;text-anchor:start;fill:#000000;fill-opacity:1;stroke:none"
         transform="translate(322.03788,142.32573)"
         x="0"
         y="0"
         id="text7127"><tspan
           sodipodi:role="line"
           x="0"
           y="0"
           id="tspan7125"><tspan
             dx="0"
             dy="0"
             style="font-style:normal;font-variant:normal;font-weight:400;font-size:15.4375px;font-family:Helvetica;fill:#000000"
             id="tspan7123">authorize</tspan></tspan></text>
    </g>
    <path
       transform="matrix(0.26458333,0,0,0.26458333,371.01979,53.064862)"
       style="fill:none;stroke:#000000;stroke-width:0.432459px;stroke-linecap:round;stroke-linejoin:round;stroke-miterlimit:4;stroke-dasharray:none;stroke-opacity:1"
       clip-path="url(#clipEmfPath1-22)"
       d="M 85.626903,145.35087 H 188.26386"
       id="path7131" />
    <g
       transform="matrix(0.26458333,0,0,0.26458333,371.01979,53.064862)"
       clip-path="url(#clipEmfPath1-22)"
       id="g7139">
      <text
         xml:space="preserve"
         style="font-style:normal;font-variant:normal;font-weight:400;font-size:15.4375px;line-height:125%;font-family:Helvetica;text-align:start;letter-spacing:0px;word-spacing:0px;text-anchor:start;fill:#000000;fill-opacity:1;stroke:none"
         transform="translate(123.25084,142.32573)"
         x="0"
         y="0"
         id="text7137"><tspan
           sodipodi:role="line"
           x="0"
           y="0"
           id="tspan7135"><tspan
             dx="0"
             dy="0"
             style="font-style:normal;font-variant:normal;font-weight:400;font-size:15.4375px;font-family:Helvetica;fill:#000000"
             id="tspan7133">doX</tspan></tspan></text>
    </g>
    <path
       transform="matrix(0.26458333,0,0,0.26458333,371.01979,53.064862)"
       style="fill:#ffffff;fill-opacity:1;fill-rule:evenodd;stroke:none"
       clip-path="url(#clipEmfPath1-22)"
       d="m 432.74741,123.88677 v 43.21632 h 164.33446 v -43.21632 z"
       id="path7141" />
    <path
       transform="matrix(0.26458333,0,0,0.26458333,371.01979,53.064862)"
       style="fill:none;stroke:#000000;stroke-width:0.432459px;stroke-linecap:round;stroke-linejoin:round;stroke-miterlimit:4;stroke-dasharray:none;stroke-opacity:1"
       clip-path="url(#clipEmfPath1-22)"
       d="M 432.74741,167.10309 H 597.08187 V 123.88677 H 432.74741 Z"
       id="path7143" />
    <g
       transform="matrix(0.26458333,0,0,0.26458333,371.01979,53.064862)"
       clip-path="url(#clipEmfPath1-22)"
       id="g7159">
      <text
         xml:space="preserve"
         style="font-style:normal;font-variant:normal;font-weight:400;font-size:15.4375px;line-height:125%;font-family:Helvetica;text-align:start;letter-spacing:0px;word-spacing:0px;text-anchor:start;fill:#000000;fill-opacity:1;stroke:none"
         transform="translate(447.73933,149.96061)"
         x="0"
         y="0"
         id="text7157"><tspan
           sodipodi:role="line"
           x="0"
           y="0"
           id="tspan7155"><tspan
             dx="0"
             dy="0"
             style="font-style:normal;font-variant:normal;font-weight:400;font-size:15.4375px;font-family:Helvetica;fill:#000000"
             id="tspan7145">:</tspan><tspan
             dx="0"
             dy="0"
             style="font-style:normal;font-variant:normal;font-weight:400;font-size:15.4375px;font-family:Helvetica;fill:#000000"
             id="tspan7147">Payment </tspan><tspan
             dx="0"
             dy="0"
             style="font-style:normal;font-variant:normal;font-weight:400;font-size:15.4375px;font-family:Helvetica;fill:#000000"
             id="tspan7149">{</tspan><tspan
             dx="0"
             dy="0"
             style="font-style:normal;font-variant:normal;font-weight:400;font-size:15.4375px;font-family:Helvetica;fill:#000000"
             id="tspan7151">abstract</tspan><tspan
             dx="0"
             dy="0"
             style="font-style:normal;font-variant:normal;font-weight:400;font-size:15.4375px;font-family:Helvetica;fill:#000000"
             id="tspan7153">}</tspan></tspan></text>
    </g>
    <path
       transform="matrix(0.26458333,0,0,0.26458333,371.01979,53.064862)"
       style="fill:#ffffff;fill-opacity:1;fill-rule:evenodd;stroke:none"
       clip-path="url(#clipEmfPath1-22)"
       d="M 147.3244,19.879505 V 71.739083 H 349.57111 V 19.879505 Z"
       id="path7161" />
    <path
       transform="matrix(0.26458333,0,0,0.26458333,371.01979,53.064862)"
       style="fill:none;stroke:#000000;stroke-width:0.432459px;stroke-linecap:round;stroke-linejoin:round;stroke-miterlimit:4;stroke-dasharray:none;stroke-opacity:1"
       clip-path="url(#clipEmfPath1-22)"
       d="M 147.3244,71.739083 H 349.57111 V 19.879505 H 147.3244 Z"
       id="path7163" />
    <g
       transform="matrix(0.26458333,0,0,0.26458333,371.01979,53.064862)"
       clip-path="url(#clipEmfPath1-22)"
       id="g7171">
      <text
         xml:space="preserve"
         style="font-style:normal;font-variant:normal;font-weight:400;font-size:15.4375px;line-height:125%;font-family:Helvetica;text-align:start;letter-spacing:0px;word-spacing:0px;text-anchor:start;fill:#000000;fill-opacity:1;stroke:none"
         transform="translate(154.96451,50.419034)"
         x="0"
         y="0"
         id="text7169"><tspan
           sodipodi:role="line"
           x="0"
           y="0"
           id="tspan7167"><tspan
             dx="0"
             dy="0"
             style="font-style:normal;font-variant:normal;font-weight:400;font-size:15.4375px;font-family:Helvetica;fill:#000000"
             id="tspan7165">polymorphic message</tspan></tspan></text>
    </g>
    <path
       transform="matrix(0.26458333,0,0,0.26458333,371.01979,53.064862)"
       style="fill:#ffffff;fill-opacity:1;fill-rule:evenodd;stroke:none"
       clip-path="url(#clipEmfPath1-22)"
       d="m 330.11045,19.879505 19.46066,19.447342 V 19.879505 Z"
       id="path7173" />
    <path
       transform="matrix(0.26458333,0,0,0.26458333,371.01979,53.064862)"
       style="fill:none;stroke:#ffffff;stroke-width:0.432459px;stroke-linecap:round;stroke-linejoin:round;stroke-miterlimit:4;stroke-dasharray:none;stroke-opacity:1"
       clip-path="url(#clipEmfPath1-22)"
       d="m 330.11045,19.879505 19.46066,19.447342 V 19.879505 Z"
       id="path7175" />
    <path
       transform="matrix(0.26458333,0,0,0.26458333,371.01979,53.064862)"
       style="fill:#000000;fill-opacity:1;fill-rule:evenodd;stroke:none"
       clip-path="url(#clipEmfPath1-22)"
       d="M 349.57111,39.326847 330.11045,19.879505 v 19.447342 z"
       id="path7177" />
    <path
       transform="matrix(0.26458333,0,0,0.26458333,371.01979,53.064862)"
       style="fill:none;stroke:#000000;stroke-width:0.432459px;stroke-linecap:round;stroke-linejoin:round;stroke-miterlimit:4;stroke-dasharray:none;stroke-opacity:1"
       clip-path="url(#clipEmfPath1-22)"
       d="M 349.57111,39.326847 330.11045,19.879505 v 19.447342 z"
       id="path7179" />
    <path
       transform="matrix(0.26458333,0,0,0.26458333,371.01979,53.064862)"
       style="fill:#000000;fill-opacity:1;fill-rule:nonzero;stroke:#000000;stroke-width:0.144153px;stroke-linecap:round;stroke-linejoin:round;stroke-miterlimit:4;stroke-dasharray:none;stroke-opacity:1"
       clip-path="url(#clipEmfPath1-22)"
       d="m 248.51983,71.595029 v 0 l 0.14416,0.144054 v 0.144054 0 l -0.14416,0.144055 h -0.14415 v 0 0 l -0.14415,-0.144055 v -0.288108 h 0.14415 z m 2.01815,1.152435 v 0 l 0.14415,0.144054 v 0.144055 l -0.14415,0.144054 h -0.14416 v 0 h -0.14415 v 0 l -0.14415,-0.144054 0.14415,-0.144055 0.14415,-0.144054 v 0 z m 2.01814,1.296489 v 0 0.144055 0 0.144054 l -0.14416,0.144054 h -0.14415 v 0 0 l -0.14415,-0.288108 v 0 -0.144055 h 0.14415 0.14415 z m 1.87399,1.152435 v 0 l 0.14415,0.144055 v 0.144054 l -0.14415,0.144054 h -0.14416 -0.14415 v 0 -0.144054 -0.144054 0 l 0.14415,-0.144055 z m 2.01814,1.29649 v 0 0.144054 0.144055 l -0.14415,0.144054 -0.14416,-0.144054 v 0 l -0.14415,-0.144055 v 0 l 0.14415,-0.144054 v -0.144055 h 0.14416 z m 1.87399,1.152435 v 0 l 0.14415,0.144054 v 0.144055 0 l -0.14415,0.144054 h -0.14415 v 0 0 l -0.14416,-0.144054 v -0.144055 0 l 0.14416,-0.144054 z m 2.01814,1.296489 v 0 h 0.14415 v 0.144055 l -0.14415,0.144054 h -0.14415 v 0 h -0.14415 v 0 -0.144054 -0.144055 l 0.14415,-0.144054 v 0 z m 2.01814,1.152435 v 0 0.144055 0.144054 0 l -0.14415,0.144054 h -0.14415 v 0 0 l -0.14416,-0.144054 v -0.288109 h 0.14416 0.14415 z m 1.87399,1.152435 v 0 l 0.14416,0.144055 v 0.144054 0.144055 h -0.14416 -0.14415 -0.14415 v 0 -0.144055 -0.144054 0 l 0.14415,-0.144055 z m 2.01815,1.29649 v 0 0.144054 0.144055 l -0.14416,0.144054 h -0.14415 v 0 l -0.14415,-0.288109 v 0 l 0.14415,-0.144054 h 0.14415 v 0 z m 1.87399,1.152435 v 0 l 0.14415,0.144054 v 0.144055 l -0.14415,0.144054 h -0.14416 v 0 0 l -0.14415,-0.144054 v -0.144055 0 l 0.14415,-0.144054 z m 2.01814,1.296489 v 0 l 0.14415,0.144055 v 0 l -0.14415,0.144054 -0.14416,0.144055 -0.14415,-0.144055 v 0 -0.144054 0 -0.144055 l 0.14415,-0.144054 v 0 z m 2.01814,1.152435 v 0 0.144055 0.144054 0 l -0.14415,0.144055 h -0.14416 v 0 0 l -0.14415,-0.144055 v -0.144054 l 0.14415,-0.144055 h 0.14416 z m 1.87399,1.152436 v 0.144054 h 0.14415 v 0.144054 0.144055 h -0.14415 -0.14415 v 0 h -0.14416 v -0.144055 -0.144054 l 0.14416,-0.144054 z m 2.01814,1.296489 v 0 0.144054 l 0.14416,0.144055 h -0.14416 l -0.14415,0.144054 h -0.14415 v 0 L 275.6206,88.881555 V 88.7375 l 0.14416,-0.144054 h 0.14415 v 0 z m 1.87399,1.152435 v 0 l 0.14415,0.144054 v 0.288109 h -0.14415 -0.14415 v 0 0 l -0.14415,-0.144054 v -0.144055 0 l 0.14415,-0.144054 z m 2.01814,1.296489 v 0 l 0.14416,0.144055 v 0.144054 l -0.28831,0.144055 h -0.14415 v 0 -0.288109 0 -0.144055 h 0.14415 v 0 z m 2.01815,1.152436 v 0 0.144054 0.144054 0 l -0.14416,0.144055 h -0.14415 v 0 0 l -0.14415,-0.144055 v -0.144054 0 l 0.14415,-0.144054 h 0.14415 z m 1.87399,1.296489 v 0 l 0.14415,0.144054 v 0 0.144055 h -0.14415 l -0.14416,0.144054 v -0.144054 0 l -0.14415,-0.144055 v -0.144054 l 0.14415,-0.144054 h 0.14416 z m 2.01814,1.152435 v 0 0.144054 l 0.14415,0.144055 h -0.14415 l -0.14415,0.144054 h -0.14416 v 0 l -0.14415,-0.144054 0.14415,-0.144055 0.14416,-0.144054 v 0 z m 1.87399,1.152435 v 0 l 0.14415,0.144055 v 0.144054 0.144054 h -0.14415 -0.14415 v 0 0 l -0.14416,-0.144054 v 0 -0.144054 l 0.14416,-0.144055 z m 2.01814,1.29649 v 0 l 0.14415,0.144054 v 0 0.144054 l -0.2883,0.144055 h -0.14416 v 0 -0.144055 -0.144054 -0.144054 h 0.14416 v 0 z m 2.01814,1.152435 v 0 0.144054 0.288109 h -0.14415 -0.14415 v 0 0 l -0.14416,-0.144055 v -0.144054 0 l 0.14416,-0.144054 h 0.14415 z m 1.87399,1.296489 v 0 l 0.14416,0.144055 v 0.144054 l -0.14416,0.144054 h -0.14415 v -0.144054 0 l -0.14415,-0.144054 v 0 -0.144055 h 0.14415 z m 2.01815,1.152431 v 0 0.14406 l 0.14415,0.14405 h -0.14415 l -0.14416,0.14406 v 0 h -0.14415 v 0 l -0.14415,-0.14406 v -0.14405 h 0.14415 l 0.14415,-0.14406 v 0 z m 1.87398,1.29649 v 0 l 0.14416,0.14406 v 0 0.14405 h -0.14416 l -0.14415,0.14406 v -0.14406 0 l -0.14415,-0.14405 v -0.14406 l 0.14415,-0.14405 z m 2.01815,1.15244 v 0 l 0.14415,0.14405 v 0.14406 0 l -0.28831,0.14405 h -0.14415 v 0 -0.14405 -0.14406 l 0.14415,-0.14405 v 0 z m 2.01814,1.15243 v 0 0.14406 0.14405 0.14406 h -0.14415 -0.14416 v 0 0 l -0.14415,-0.14406 v -0.14405 0 l 0.14415,-0.14406 z m 1.87399,1.29649 v 0 l 0.14415,0.14406 v 0.14405 l -0.14415,0.14406 h -0.14415 v 0 0 l -0.14416,-0.14406 v -0.14405 -0.14406 h 0.14416 z m 2.01814,1.15244 v 0 l 0.14415,0.14405 -0.14415,0.28811 h -0.14415 v 0 h -0.14415 v 0 l -0.14416,-0.14405 v -0.14406 h 0.14416 l 0.14415,-0.14405 v 0 z m 1.87399,1.29649 v 0 l 0.14415,0.14405 v 0 0.14406 l -0.14415,0.14405 h -0.14415 v -0.14405 0 l -0.14416,-0.14406 v 0 -0.14405 h 0.14416 z m 2.01814,1.15243 v 0 l 0.14416,0.14406 v 0.14405 0 l -0.14416,0.14406 h -0.2883 v 0 -0.14406 -0.14405 l 0.14415,-0.14406 v 0 z m 2.01815,1.29649 v 0 0.14406 0 0.14405 h -0.14416 v 0.14406 l -0.14415,-0.14406 v 0 l -0.14415,-0.14405 v -0.14406 h 0.14415 v -0.14405 z m 1.87399,1.15244 v 0 l 0.14415,0.14405 v 0.14406 0 l -0.14415,0.14405 h -0.14416 v 0 l -0.14415,-0.14405 v -0.14406 0 l 0.14415,-0.14405 z m 2.01814,1.15243 v 0 l 0.14415,0.14406 -0.14415,0.28811 h -0.14416 v 0 h -0.14415 v 0 l -0.14415,-0.14406 v -0.14405 h 0.14415 l 0.14415,-0.14406 v 0 z m 1.87399,1.29649 v 0 l 0.14415,0.14406 v 0.14405 l -0.14415,0.14406 h -0.14416 v 0 0 l -0.14415,-0.14406 v -0.14405 -0.14406 h 0.14415 z m 2.01814,1.15244 v 0 l 0.14415,0.14405 v 0.14406 0.14405 h -0.14415 -0.28831 v 0 -0.14405 -0.14406 0 l 0.14416,-0.14405 v 0 z m 2.01814,1.29649 v 0 0.14405 0 0.14406 l -0.14415,0.14405 v 0 l -0.14415,-0.14405 v 0 l -0.14416,-0.14406 V 116.54 h 0.14416 z m 1.87399,1.15243 v 0 l 0.14415,0.14406 v 0.14405 0 l -0.14415,0.14405 h -0.14415 v 0 l -0.14415,-0.14405 v 0 -0.14405 l 0.14415,-0.14406 z m 2.01814,1.29649 v 0 l 0.14416,0.14406 v 0 l -0.14416,0.14405 h -0.14415 v 0.14405 l -0.14415,-0.14405 v 0 l -0.14415,-0.14405 v 0 l 0.14415,-0.14406 0.14415,-0.14405 v 0 z m 2.01815,1.15244 v 0 0.14405 0.14405 0 l -0.14416,0.14406 h -0.14415 v 0 0 l -0.14415,-0.14406 v -0.14405 0 l 0.14415,-0.14405 h 0.14415 z"
       id="path7181" />
    <path
       transform="matrix(0.26458333,0,0,0.26458333,371.01979,53.064862)"
       style="fill:none;stroke:#000000;stroke-width:0.432459px;stroke-linecap:round;stroke-linejoin:round;stroke-miterlimit:4;stroke-dasharray:none;stroke-opacity:1"
       clip-path="url(#clipEmfPath1-22)"
       d="m 328.81307,121.5819 -0.14415,0.28811 -0.14415,0.43216 -0.14416,0.28811 -0.14415,0.43216 v 0.43217 0.28811 0.43216 l 0.14415,0.43216 0.14416,0.72027 0.43246,0.57622 0.57661,0.57622 0.57661,0.57622 0.43246,0.14405 0.28831,0.14406 0.43245,0.14405 0.28831,0.14405 h 0.43246 0.43246 0.28831 l 0.43245,-0.14405 0.72077,-0.28811 0.72076,-0.28811 0.57662,-0.57622 0.43246,-0.57621 v 0 l 0.2883,-0.43217 0.14416,-0.2881 v -0.43217 l 0.14415,-0.28811 v -0.43216 -0.43216 -0.28811 -0.43217 l -0.28831,-0.72027 -0.43246,-0.72027 -0.43246,-0.57622 -0.72076,-0.43216 -0.28831,-0.28811 -0.43246,-0.14405 h -0.2883 l -0.43246,-0.14406 h -0.43246 -0.28831 -0.43246 -0.43246 l -0.72076,0.28811 -0.57661,0.43216 -0.57661,0.43217 -0.57662,0.72027"
       id="path7183" />
    <path
       transform="matrix(0.26458333,0,0,0.26458333,371.01979,53.064862)"
       style="fill:#ffffff;fill-opacity:1;fill-rule:evenodd;stroke:none"
       clip-path="url(#clipEmfPath1-22)"
       d="m 643.6433,114.9554 v 51.85958 H 845.74586 V 114.9554 Z"
       id="path7185" />
    <path
       transform="matrix(0.26458333,0,0,0.26458333,371.01979,53.064862)"
       style="fill:none;stroke:#000000;stroke-width:0.432459px;stroke-linecap:round;stroke-linejoin:round;stroke-miterlimit:4;stroke-dasharray:none;stroke-opacity:1"
       clip-path="url(#clipEmfPath1-22)"
       d="M 643.6433,166.81498 H 845.74586 V 114.9554 H 643.6433 Z"
       id="path7187" />
    <g
       transform="matrix(0.26458333,0,0,0.26458333,371.01979,53.064862)"
       clip-path="url(#clipEmfPath1-22)"
       id="g7199">
      <text
         xml:space="preserve"
         style="font-style:normal;font-variant:normal;font-weight:400;font-size:15.4375px;line-height:119.443%;font-family:Helvetica;text-align:start;letter-spacing:0px;word-spacing:0px;text-anchor:start;fill:#000000;fill-opacity:1;stroke:none"
         transform="translate(651.28341,136.27545)"
         x="0"
         y="0"
         id="text7197"><tspan
           sodipodi:role="line"
           x="0"
           y="0"
           id="tspan7191"><tspan
             dx="0"
             dy="0"
             style="font-style:normal;font-variant:normal;font-weight:400;font-size:15.4375px;font-family:Helvetica;fill:#000000"
             id="tspan7189">object in role of abstract </tspan></tspan><tspan
           sodipodi:role="line"
           x="0"
           y="18.439013"
           id="tspan7195"><tspan
             dx="0"
             dy="0"
             style="font-style:normal;font-variant:normal;font-weight:400;font-size:15.4375px;font-family:Helvetica;fill:#000000"
             id="tspan7193">superclass</tspan></tspan></text>
    </g>
    <path
       transform="matrix(0.26458333,0,0,0.26458333,371.01979,53.064862)"
       style="fill:#ffffff;fill-opacity:1;fill-rule:evenodd;stroke:none"
       clip-path="url(#clipEmfPath1-22)"
       d="m 826.42935,114.9554 19.31651,19.44734 V 114.9554 Z"
       id="path7201" />
    <path
       transform="matrix(0.26458333,0,0,0.26458333,371.01979,53.064862)"
       style="fill:none;stroke:#ffffff;stroke-width:0.432459px;stroke-linecap:round;stroke-linejoin:round;stroke-miterlimit:4;stroke-dasharray:none;stroke-opacity:1"
       clip-path="url(#clipEmfPath1-22)"
       d="m 826.42935,114.9554 19.31651,19.44734 V 114.9554 Z"
       id="path7203" />
    <path
       transform="matrix(0.26458333,0,0,0.26458333,371.01979,53.064862)"
       style="fill:#000000;fill-opacity:1;fill-rule:evenodd;stroke:none"
       clip-path="url(#clipEmfPath1-22)"
       d="M 845.74586,134.40274 826.42935,114.9554 v 19.44734 z"
       id="path7205" />
    <path
       transform="matrix(0.26458333,0,0,0.26458333,371.01979,53.064862)"
       style="fill:none;stroke:#000000;stroke-width:0.432459px;stroke-linecap:round;stroke-linejoin:round;stroke-miterlimit:4;stroke-dasharray:none;stroke-opacity:1"
       clip-path="url(#clipEmfPath1-22)"
       d="M 845.74586,134.40274 826.42935,114.9554 v 19.44734 z"
       id="path7207" />
    <path
       transform="matrix(0.26458333,0,0,0.26458333,371.01979,53.064862)"
       style="fill:#000000;fill-opacity:1;fill-rule:nonzero;stroke:#000000;stroke-width:0.144153px;stroke-linecap:round;stroke-linejoin:round;stroke-miterlimit:4;stroke-dasharray:none;stroke-opacity:1"
       clip-path="url(#clipEmfPath1-22)"
       d="m 643.6433,141.1733 v 0 h -0.14415 v 0 l -0.14415,-0.14406 v -0.14405 -0.14406 h 0.14415 0.14415 v 0 h 0.14416 v 0.14406 0 0.14405 0 z m -2.30645,0.2881 v 0 l -0.14415,-0.14405 h -0.14415 v -0.14405 -0.14406 h 0.14415 v -0.14405 h 0.14415 v 0 l 0.14416,0.14405 0.14415,0.14406 h -0.14415 v 0.14405 z m -2.30644,0.14406 v 0 h -0.14416 l -0.14415,-0.14406 v 0 l 0.14415,-0.2881 h 0.14416 v 0 h 0.14415 l 0.14415,0.14405 -0.14415,0.28811 v 0 z m -2.30645,0.28811 v 0 l -0.14416,-0.14406 -0.14415,-0.14405 v -0.14406 h 0.14415 l 0.14416,-0.14405 v 0 0 l 0.14415,0.14405 v 0 l 0.14415,0.14406 -0.14415,0.14405 v 0 z m -2.30645,0.14405 v 0 0 h -0.14416 v -0.14405 0 -0.14406 -0.14405 0 h 0.14416 v 0 0 h 0.14415 v 0.14405 h 0.14415 v 0.14406 l -0.14415,0.14405 v 0 z m -2.30645,0.28811 v 0 0 l -0.14415,-0.14405 v 0 -0.14406 -0.14405 0 h 0.14415 v 0 h 0.14415 v 0 l 0.14416,0.14405 v 0 l -0.14416,0.14406 v 0 z m -2.30645,0.14406 v 0 0 h -0.14415 v -0.14406 0 -0.14405 -0.14406 h 0.14415 v 0 h 0.14415 l 0.14416,0.14406 v 0.14405 l -0.14416,0.14406 z m -2.30645,0.2881 v 0 0 l -0.14415,-0.14405 v -0.14405 0 -0.14406 0 h 0.14415 v 0 h 0.14416 0.14415 v 0.14406 0.14405 h -0.14415 z m -2.16229,0.14406 v 0 h -0.28831 v -0.14406 0 -0.14405 0 l 0.14415,-0.14405 v 0 0 h 0.14416 l 0.14415,0.2881 v 0 0.14406 z m -2.30645,0.28811 v 0 l -0.28831,-0.14406 v 0 -0.14405 -0.14406 h 0.14416 v 0 h 0.14415 v 0 l 0.14415,0.14406 v 0.14405 z m -2.30645,0.14405 v 0 h -0.14415 -0.14416 v -0.14405 -0.14406 0 l 0.14416,-0.14405 v 0 h 0.14415 0.14415 v 0.14405 0.14406 0.14405 z m -2.30645,0.28811 v 0 h -0.14415 v 0 l -0.14416,-0.14405 v 0 -0.14406 -0.14405 h 0.14416 v 0 0 h 0.14415 0.14415 v 0 0.14405 0.14406 0 z m -2.30645,0.28811 v 0 l -0.14415,-0.14406 v 0 h -0.14415 v -0.14405 -0.14405 l 0.14415,-0.14406 h 0.14415 v 0 0 l 0.14416,0.14406 v 0.14405 0 0.14405 z m -2.30645,0.14405 v 0 h -0.14415 v 0 l -0.14415,-0.14405 v 0 -0.28811 h 0.14415 0.14415 v 0 h 0.14416 v 0.14405 0 0.14406 z m -2.30644,0.28811 v 0 l -0.14416,-0.14405 -0.14415,-0.14406 v -0.14405 0 l 0.14415,-0.14406 h 0.14416 v 0 l 0.14415,0.14406 v 0 0.14405 0 0.14406 h -0.14415 z m -2.30645,0.14406 v 0 h -0.14416 l -0.14415,-0.14406 v 0 -0.14405 l 0.14415,-0.14406 h 0.14416 v 0 0 h 0.14415 v 0.14406 0 0.14405 0.14406 0 z m -2.30645,0.28811 v 0 l -0.14415,-0.14406 h -0.14416 v -0.14405 l 0.14416,-0.14406 0.14415,-0.14405 v 0 0 l 0.14415,0.14405 0.14415,0.14406 h -0.14415 v 0.14405 0 z m -2.30645,0.14405 v 0 h -0.14415 v 0 l -0.14416,-0.14405 v -0.14406 h 0.14416 v -0.14405 h 0.14415 v 0 0 h 0.14415 v 0.14405 h 0.14416 l -0.14416,0.28811 v 0 z m -2.30645,0.28811 v 0 0 l -0.14415,-0.14406 v 0 -0.14405 0 -0.14405 0 h 0.14415 v 0 0 h 0.14415 v 0 l 0.14416,0.14405 v 0.14405 h -0.14416 v 0 z"
       id="path7209" />
    <path
       transform="matrix(0.26458333,0,0,0.26458333,371.01979,53.064862)"
       style="fill:none;stroke:#000000;stroke-width:0.432459px;stroke-linecap:round;stroke-linejoin:round;stroke-miterlimit:4;stroke-dasharray:none;stroke-opacity:1"
       clip-path="url(#clipEmfPath1-22)"
       d="m 600.974,145.06276 v 0.43217 0.28811 0.43216 l -0.14415,0.43216 -0.28831,0.72027 -0.43245,0.57622 -0.57662,0.57622 -0.57661,0.43216 -0.2883,0.14406 -0.43246,0.14405 -0.43246,0.14406 h -0.28831 -0.43246 -0.43246 -0.43246 l -0.2883,-0.14406 -0.72077,-0.28811 -0.72076,-0.43216 -0.57662,-0.57622 -0.43245,-0.57622 -0.14416,-0.43216 -0.14415,-0.28811 v -0.43216 l -0.14415,-0.43216 v 0 -0.43217 -0.28811 l 0.14415,-0.43216 0.14415,-0.43216 0.28831,-0.72027 0.43246,-0.57622 0.43246,-0.57622 0.72076,-0.43216 0.28831,-0.14406 0.43246,-0.14405 0.2883,-0.14406 h 0.43246 0.43246 0.43246 0.28831 l 0.43246,0.14406 0.72076,0.28811 0.57661,0.43216 0.57662,0.57622 0.43245,0.57622 0.14416,0.43216 0.14415,0.28811 0.14415,0.43216 v 0.43216"
       id="path7211" />
    <path
       transform="matrix(0.26458333,0,0,0.26458333,371.01979,53.064862)"
       style="fill:#ffffff;fill-opacity:1;fill-rule:evenodd;stroke:none"
       clip-path="url(#clipEmfPath1-22)"
       d="m 24.073557,294.87932 v 43.21632 H 171.10965 v -43.21632 z"
       id="path7213" />
    <path
       transform="matrix(0.26458333,0,0,0.26458333,371.01979,53.064862)"
       style="fill:none;stroke:#000000;stroke-width:0.432459px;stroke-linecap:round;stroke-linejoin:round;stroke-miterlimit:4;stroke-dasharray:none;stroke-opacity:1"
       clip-path="url(#clipEmfPath1-22)"
       d="M 24.073557,338.09564 H 171.10965 V 294.87932 H 24.073557 Z"
       id="path7215" />
    <g
       transform="matrix(0.26458333,0,0,0.26458333,371.01979,53.064862)"
       clip-path="url(#clipEmfPath1-22)"
       id="g7225">
      <text
         xml:space="preserve"
         style="font-style:normal;font-variant:normal;font-weight:400;font-size:15.4375px;line-height:125%;font-family:Helvetica;text-align:start;letter-spacing:0px;word-spacing:0px;text-anchor:start;fill:#000000;fill-opacity:1;stroke:none"
         transform="translate(47.138043,320.95317)"
         x="0"
         y="0"
         id="text7223"><tspan
           sodipodi:role="line"
           x="0"
           y="0"
           id="tspan7221"><tspan
             dx="0"
             dy="0"
             style="font-style:normal;font-variant:normal;font-weight:400;font-size:15.4375px;font-family:Helvetica;fill:#000000"
             id="tspan7217">:</tspan><tspan
             dx="0"
             dy="0"
             style="font-style:normal;font-variant:normal;font-weight:400;font-size:15.4375px;font-family:Helvetica;fill:#000000"
             id="tspan7219">DebitPayment</tspan></tspan></text>
    </g>
    <path
       transform="matrix(0.26458333,0,0,0.26458333,371.01979,53.064862)"
       style="fill:none;stroke:#000000;stroke-width:0.432459px;stroke-linecap:round;stroke-linejoin:round;stroke-miterlimit:4;stroke-dasharray:none;stroke-opacity:1"
       clip-path="url(#clipEmfPath1-22)"
       d="M 97.591605,294.87932 V 234.37648"
       id="path7227" />
    <g
       transform="matrix(0.26458333,0,0,0.26458333,371.01979,53.064862)"
       clip-path="url(#clipEmfPath1-22)"
       id="g7235">
      <text
         xml:space="preserve"
         style="font-style:normal;font-variant:normal;font-weight:400;font-size:15.4375px;line-height:125%;font-family:Helvetica;text-align:start;letter-spacing:0px;word-spacing:0px;text-anchor:start;fill:#000000;fill-opacity:1;stroke:none"
         transform="translate(100.61882,264.77196)"
         x="0"
         y="0"
         id="text7233"><tspan
           sodipodi:role="line"
           x="0"
           y="0"
           id="tspan7231"><tspan
             dx="0"
             dy="0"
             style="font-style:normal;font-variant:normal;font-weight:400;font-size:15.4375px;font-family:Helvetica;fill:#000000"
             id="tspan7229">authorize</tspan></tspan></text>
    </g>
    <path
       transform="matrix(0.26458333,0,0,0.26458333,371.01979,53.064862)"
       style="fill:#ffffff;fill-opacity:1;fill-rule:evenodd;stroke:none"
       clip-path="url(#clipEmfPath1-22)"
       d="m 330.11045,294.87932 v 43.21632 h 64.86887 v -43.21632 z"
       id="path7237" />
    <path
       transform="matrix(0.26458333,0,0,0.26458333,371.01979,53.064862)"
       style="fill:none;stroke:#000000;stroke-width:0.432459px;stroke-linecap:round;stroke-linejoin:round;stroke-miterlimit:4;stroke-dasharray:none;stroke-opacity:1"
       clip-path="url(#clipEmfPath1-22)"
       d="m 330.11045,338.09564 h 64.86887 v -43.21632 h -64.86887 z"
       id="path7239" />
    <g
       transform="matrix(0.26458333,0,0,0.26458333,371.01979,53.064862)"
       clip-path="url(#clipEmfPath1-22)"
       id="g7249">
      <text
         xml:space="preserve"
         style="font-style:normal;font-variant:normal;font-weight:400;font-size:15.4375px;line-height:125%;font-family:Helvetica;text-align:start;letter-spacing:0px;word-spacing:0px;text-anchor:start;fill:#000000;fill-opacity:1;stroke:none"
         transform="translate(347.12051,320.95317)"
         x="0"
         y="0"
         id="text7247"><tspan
           sodipodi:role="line"
           x="0"
           y="0"
           id="tspan7245"><tspan
             dx="0"
             dy="0"
             style="font-style:normal;font-variant:normal;font-weight:400;font-size:15.4375px;font-family:Helvetica;fill:#000000"
             id="tspan7241">:</tspan><tspan
             dx="0"
             dy="0"
             style="font-style:normal;font-variant:normal;font-weight:400;font-size:15.4375px;font-family:Helvetica;fill:#000000"
             id="tspan7243">Foo</tspan></tspan></text>
    </g>
    <path
       transform="matrix(0.26458333,0,0,0.26458333,371.01979,53.064862)"
       style="fill:#ffffff;fill-opacity:1;fill-rule:evenodd;stroke:none"
       clip-path="url(#clipEmfPath1-22)"
       d="M 366.86947,2.5929789 V 71.739083 H 626.34494 V 2.5929789 Z"
       id="path7251" />
    <path
       transform="matrix(0.26458333,0,0,0.26458333,371.01979,53.064862)"
       style="fill:none;stroke:#000000;stroke-width:0.432459px;stroke-linecap:round;stroke-linejoin:round;stroke-miterlimit:4;stroke-dasharray:none;stroke-opacity:1"
       clip-path="url(#clipEmfPath1-22)"
       d="M 366.86947,71.739083 H 626.34494 V 2.5929789 H 366.86947 Z"
       id="path7253" />
    <g
       transform="matrix(0.26458333,0,0,0.26458333,371.01979,53.064862)"
       clip-path="url(#clipEmfPath1-22)"
       id="g7269">
      <text
         xml:space="preserve"
         style="font-style:normal;font-variant:normal;font-weight:400;font-size:15.4375px;line-height:119.443%;font-family:Helvetica;text-align:start;letter-spacing:0px;word-spacing:0px;text-anchor:start;fill:#000000;fill-opacity:1;stroke:none"
         transform="translate(374.50959,32.556291)"
         x="0"
         y="0"
         id="text7267"><tspan
           sodipodi:role="line"
           x="0"
           y="0"
           id="tspan7261"><tspan
             dx="0"
             dy="0"
             style="font-style:normal;font-variant:normal;font-weight:400;font-size:15.4375px;font-family:Helvetica;fill:#000000"
             id="tspan7255">stop at this point </tspan><tspan
             dx="-0.52105802"
             dy="0"
             style="font-style:normal;font-variant:normal;font-weight:400;font-size:15.4375px;font-family:Helvetica;fill:#000000"
             id="tspan7257">–</tspan><tspan
             dx="0"
             dy="0"
             style="font-style:normal;font-variant:normal;font-weight:400;font-size:15.4375px;font-family:Helvetica;fill:#000000"
             id="tspan7259"> don’t show any </tspan></tspan><tspan
           sodipodi:role="line"
           x="0"
           y="18.439013"
           id="tspan7265"><tspan
             dx="0"
             dy="0"
             style="font-style:normal;font-variant:normal;font-weight:400;font-size:15.4375px;font-family:Helvetica;fill:#000000"
             id="tspan7263">further details for this message</tspan></tspan></text>
    </g>
    <path
       transform="matrix(0.26458333,0,0,0.26458333,371.01979,53.064862)"
       style="fill:#ffffff;fill-opacity:1;fill-rule:evenodd;stroke:none"
       clip-path="url(#clipEmfPath1-22)"
       d="M 606.88428,2.5929789 626.34494,22.040321 V 2.5929789 Z"
       id="path7271" />
    <path
       transform="matrix(0.26458333,0,0,0.26458333,371.01979,53.064862)"
       style="fill:none;stroke:#ffffff;stroke-width:0.432459px;stroke-linecap:round;stroke-linejoin:round;stroke-miterlimit:4;stroke-dasharray:none;stroke-opacity:1"
       clip-path="url(#clipEmfPath1-22)"
       d="M 606.88428,2.5929789 626.34494,22.040321 V 2.5929789 Z"
       id="path7273" />
    <path
       transform="matrix(0.26458333,0,0,0.26458333,371.01979,53.064862)"
       style="fill:#000000;fill-opacity:1;fill-rule:evenodd;stroke:none"
       clip-path="url(#clipEmfPath1-22)"
       d="M 626.34494,22.040321 606.88428,2.5929789 V 22.040321 Z"
       id="path7275" />
    <path
       transform="matrix(0.26458333,0,0,0.26458333,371.01979,53.064862)"
       style="fill:none;stroke:#000000;stroke-width:0.432459px;stroke-linecap:round;stroke-linejoin:round;stroke-miterlimit:4;stroke-dasharray:none;stroke-opacity:1"
       clip-path="url(#clipEmfPath1-22)"
       d="M 626.34494,22.040321 606.88428,2.5929789 V 22.040321 Z"
       id="path7277" />
    <path
       transform="matrix(0.26458333,0,0,0.26458333,371.01979,53.064862)"
       style="fill:#000000;fill-opacity:1;fill-rule:nonzero;stroke:#000000;stroke-width:0.144153px;stroke-linecap:round;stroke-linejoin:round;stroke-miterlimit:4;stroke-dasharray:none;stroke-opacity:1"
       clip-path="url(#clipEmfPath1-22)"
       d="m 496.60721,72.027192 v 0 h -0.14416 l -0.14415,-0.144055 v 0 -0.144054 l 0.14415,-0.144054 v 0 0 h 0.14416 l 0.14415,0.144054 v 0 0.144054 z m -2.1623,0.720272 v 0 h -0.14415 l -0.14416,-0.144055 v -0.144054 h 0.14416 v -0.144054 0 h 0.14415 l 0.14415,0.144054 v 0.144054 0.144055 z m -2.16229,0.864326 v 0 h -0.14416 l -0.14415,-0.144054 v -0.144055 0 l 0.14415,-0.144054 v 0 h 0.14416 l 0.14415,0.144054 v 0.144055 0 0.144054 z m -2.1623,0.864326 v 0 h -0.14415 l -0.14416,-0.144054 v -0.144054 -0.144055 h 0.14416 v 0 h 0.14415 l 0.14415,0.144055 v 0.144054 0 z m -2.1623,0.720272 v 0 h -0.14415 l -0.14415,-0.144054 v 0 -0.144054 l 0.14415,-0.144055 v 0 h 0.14415 v 0 l 0.14416,0.144055 v 0 0.144054 0.144054 z m -2.16229,0.864327 v 0 h -0.14415 l -0.14416,-0.144055 v -0.144054 0 l 0.14416,-0.144055 v 0 h 0.14415 v 0 h 0.14415 v 0.144055 0.144054 0.144055 z m -2.1623,0.864326 v 0 l -0.14415,-0.144054 h -0.14415 v -0.288109 h 0.14415 v 0 l 0.14415,-0.144055 0.14416,0.144055 v 0.144054 0.144055 0 z m -2.16229,0.720272 v 0 h -0.14416 v 0 l -0.14415,-0.144055 v -0.144054 l 0.14415,-0.144054 v 0 h 0.14416 0.14415 v 0.144054 0.144054 0 0.144055 z m -2.1623,0.864326 v 0 h -0.14415 v -0.144054 h -0.14415 V 78.22153 l 0.14415,-0.144054 v 0 h 0.14415 0.14416 v 0.144054 0 0.144055 z m -2.16229,0.720272 v 0 h -0.14416 l -0.14415,-0.144054 v -0.144055 l 0.14415,-0.144054 v 0 h 0.14416 0.14415 v 0.144054 0.144055 0.144054 z m -2.1623,0.864326 v 0 0 h -0.14415 l -0.14416,-0.144054 v -0.144054 0 l 0.14416,-0.144055 v 0 h 0.14415 0.14415 v 0.144055 0.144054 0 z m -2.16229,0.864327 v 0 0 h -0.14416 l -0.14415,-0.144055 V 80.670455 80.5264 h 0.14415 v 0 l 0.14416,-0.144054 0.14415,0.144054 v 0.144055 0 0.144054 z m -2.1623,0.720272 v 0 0 h -0.14415 l -0.14416,-0.144055 v 0 -0.144054 l 0.14416,-0.144055 v 0 h 0.14415 0.14415 v 0.144055 0 0.144054 z m -2.1623,0.864326 v 0 0 h -0.14415 l -0.14415,-0.144055 v -0.144054 0 l 0.14415,-0.144054 v 0 h 0.14415 0.14416 v 0 0.144054 0.144054 z m -2.16229,0.720272 v 0.144054 0 l -0.14415,-0.144054 h -0.14416 v -0.288109 l 0.14416,-0.144054 v 0 h 0.14415 l 0.14415,0.144054 v 0 0 0.288109 z m -2.1623,0.864326 v 0 0 h -0.14415 v 0 l -0.14415,-0.144054 v -0.144055 l 0.14415,-0.144054 v 0 h 0.28831 v 0.144054 l 0.14415,0.144055 h -0.14415 z m -2.16229,0.864326 v 0 0 h -0.14416 v -0.144054 h -0.14415 v -0.144054 l 0.14415,-0.144055 v 0 h 0.28831 v 0.144055 h 0.14415 l -0.14415,0.144054 z m -2.01814,0.720272 v 0 h -0.14416 -0.14415 l -0.14415,-0.144054 V 85.42425 h 0.14415 v -0.144055 0 h 0.28831 v 0.144055 l 0.14415,0.144054 z m -2.1623,0.864327 v 0 h -0.14415 -0.14416 l -0.14415,-0.144055 v -0.144054 h 0.14415 v -0.144055 0 0 h 0.28831 l 0.14415,0.144055 v 0.144054 h -0.14415 z m -2.1623,0.864326 v 0 h -0.14415 l -0.14415,-0.144054 v 0 l -0.14415,-0.144055 0.14415,-0.144054 v 0 0 0 h 0.2883 l 0.14416,0.144054 v 0 l -0.14416,0.144055 z m -2.16229,0.720272 v 0 h -0.14415 -0.14416 v -0.144055 h -0.14415 l 0.14415,-0.144054 V 87.72912 h 0.14416 v 0 h 0.14415 v 0.144054 h 0.14415 l -0.14415,0.144054 z m -2.1623,0.864326 v 0 h -0.2883 V 88.881555 L 450.91069,88.7375 h 0.14416 v -0.144054 h 0.14415 v 0 h 0.14415 v 0 l 0.14416,0.144054 -0.14416,0.144055 z m -2.16229,0.720272 v 0 h -0.28831 v -0.144054 -0.144055 0 l 0.14415,-0.144054 v 0 h 0.14416 v 0.144054 h 0.14415 z m -2.1623,0.864326 v 0 h -0.2883 v 0 -0.144054 -0.144054 l 0.14415,-0.144055 v 0 h 0.14415 l 0.14416,0.144055 v 0.144054 h -0.14416 z m -2.16229,0.864327 v 0 h -0.28831 v -0.144055 0 -0.288109 h 0.14415 v 0 h 0.14416 l 0.14415,0.144055 v 0 l -0.14415,0.144054 v 0 z m -2.1623,0.720272 v 0 h -0.2883 v -0.144055 -0.144054 l 0.14415,-0.144055 v 0 0 h 0.14415 l 0.14415,0.144055 v 0.144054 0 z m -2.16229,0.864326 v 0 h -0.28831 v -0.144055 l -0.14415,-0.144054 h 0.14415 l 0.14415,-0.144054 v 0 0 h 0.14416 l 0.14415,0.144054 v 0 0.144054 z m -2.1623,0.864326 v 0 l -0.28831,-0.144054 v 0 -0.144055 -0.144054 h 0.14416 v 0 -0.144054 l 0.14415,0.144054 0.14415,0.144054 v 0 0.144055 h -0.14415 z m -2.1623,0.720272 v 0 h -0.2883 v -0.144054 -0.144055 0 l 0.14415,-0.144054 v 0 0 h 0.14415 v 0.144054 h 0.14416 v 0.144055 z m -2.16229,0.864326 v 0 h -0.28831 v -0.144054 -0.144054 0 l 0.14416,-0.144055 v 0 0 h 0.14415 v 0 l 0.14415,0.144055 v 0.144054 z m -2.1623,0.720272 v 0 h -0.2883 V 96.084274 95.94022 l 0.14415,-0.144055 v 0 0 h 0.14415 v 0.144055 h 0.14416 v 0.288108 z m -2.16229,0.864327 v 0 h -0.14416 -0.14415 v 0 -0.144055 -0.144054 l 0.14415,-0.144055 v 0 0 h 0.14416 l 0.14415,0.144055 v 0.144054 0 z m -2.1623,0.864326 v 0 h -0.14415 -0.14415 v -0.144054 0 -0.288109 h 0.14415 v 0 -0.144055 l 0.14415,0.144055 0.14416,0.144054 v 0 0.144055 z m -2.16229,0.720272 v 0 h -0.14416 v 0 l -0.14415,-0.144055 v -0.144054 l 0.14415,-0.144054 v 0 0 h 0.14416 l 0.14415,0.144054 v 0.144054 0 z m -2.1623,0.864326 v 0 h -0.14415 v 0 l -0.14415,-0.144054 v -0.144055 0 l 0.14415,-0.144054 v 0 0 h 0.14415 l 0.14415,0.144054 v 0 0.144055 z m -2.16229,0.864331 v 0 h -0.14416 v -0.14406 h -0.14415 v -0.14405 -0.144058 l 0.14415,-0.144054 v 0 0 l 0.14416,0.144054 h 0.14415 v 0.144058 0.14405 z m -2.1623,0.72027 v 0 h -0.14415 v 0 l -0.14416,-0.14406 v -0.14405 0 l 0.14416,-0.14406 v 0 h 0.14415 v 0 l 0.14415,0.14406 v 0.14405 z m -2.1623,0.86432 v 0 h -0.14415 v 0 l -0.14415,-0.14405 v -0.14406 0 l 0.14415,-0.14405 v 0 h 0.14415 v 0 l 0.14416,0.14405 v 0.14406 z m -2.16229,0.72028 v 0 h -0.14415 v 0 l -0.14416,-0.14406 v -0.14405 0 l 0.14416,-0.14406 v 0 h 0.14415 v 0.14406 h 0.14415 v 0.28811 z m -2.1623,0.86432 v 0 h -0.14415 v 0 l -0.14415,-0.14405 v 0 -0.14406 -0.14405 h 0.14415 v 0 h 0.14415 l 0.14416,0.14405 v 0.14406 0 z m -2.16229,0.86433 v 0 h -0.14415 v -0.14406 h -0.14416 v 0 -0.2881 0 h 0.14416 v 0 h 0.14415 l 0.14415,0.14405 v 0 0.14405 z m -2.1623,0.72027 v 0 h -0.14415 v 0 l -0.14415,-0.14405 v -0.14406 -0.14405 h 0.14415 v 0 h 0.14415 l 0.14416,0.14405 v 0.14406 0 z m -2.16229,0.86433 v 0 h -0.14416 l -0.14415,-0.14406 v -0.14405 0 -0.14406 h 0.14415 v 0 h 0.14416 l 0.14415,0.14406 v 0 0.14405 z m -2.1623,0.72027 v 0 h -0.14415 l -0.14415,-0.14406 v 0 -0.14405 0 l 0.14415,-0.14405 v 0 h 0.14415 l 0.14415,0.14405 v 0.14405 0.14406 z m -2.16229,0.86432 v 0 h -0.14416 l -0.14415,-0.14405 v -0.14405 0 l 0.14415,-0.14406 v 0 h 0.14416 0.14415 v 0.14406 0.14405 z m -2.1623,0.86433 v 0 h -0.14415 l -0.14416,-0.14405 v -0.14406 -0.14405 h 0.14416 v 0 h 0.14415 0.14415 v 0.14405 0.14406 h -0.14415 z m -2.1623,0.72027 v 0 h -0.14415 l -0.14415,-0.14405 v -0.14406 l 0.14415,-0.14405 v 0 0 h 0.14415 l 0.14416,0.14405 v 0 0.14406 z m -2.16229,0.86433 v 0 h -0.14415 l -0.14416,-0.14406 v 0 -0.14405 l 0.14416,-0.14405 v 0 h 0.14415 v 0 l 0.14415,0.14405 v 0 0.14405 z m -2.1623,0.86433 v 0 l -0.14415,-0.14406 h -0.14415 v 0 -0.28811 h 0.14415 v 0 l 0.14415,-0.14405 v 0.14405 l 0.14416,0.14406 v 0 0.14405 h -0.14416 z m -2.16229,0.72027 v 0 h -0.14415 l -0.14416,-0.14406 v -0.14405 l 0.14416,-0.14406 v 0 h 0.14415 v 0 l 0.14415,0.14406 v 0.14405 0 0.14406 z m -2.1623,0.86432 v 0 h -0.14415 l -0.14415,-0.14405 v -0.14406 0 l 0.14415,-0.14405 v 0 h 0.14415 v 0 l 0.14416,0.14405 v 0 0.14406 z m -2.16229,0.72028 v 0 h -0.14416 l -0.14415,-0.14406 v 0 -0.14405 l 0.14415,-0.14406 v 0 h 0.14416 v 0 l 0.14415,0.14406 v 0.28811 z m -2.1623,0.86432 v 0 h -0.14415 v 0 l -0.14415,-0.14405 v -0.14406 0 l 0.14415,-0.14405 v 0 h 0.14415 v 0 h 0.14415 v 0.14405 0.14406 z m -2.16229,0.86433 v 0 h -0.14416 v 0 l -0.14415,-0.14406 v -0.14405 -0.14405 h 0.14415 v 0 l 0.14416,-0.14406 v 0.14406 h 0.14415 v 0.14405 0.14405 z m -2.1623,0.72027 v 0 h -0.14415 v 0 h -0.14416 v -0.14405 -0.14406 l 0.14416,-0.14405 v 0 h 0.14415 v 0 l 0.14415,0.14405 v 0.14406 z m -2.16229,0.86433 v 0 h -0.14416 v 0 l -0.14415,-0.14406 v 0 -0.14405 l 0.14415,-0.14406 v 0 h 0.14416 v 0 l 0.14415,0.14406 v 0 0.14405 z m -2.1623,0.86432 v 0 h -0.14415 v -0.14405 h -0.14416 v 0 -0.28811 l 0.14416,-0.14405 v 0 h 0.14415 v 0.14405 h 0.14415 v 0.14405 0.14406 z m -2.1623,0.72027 v 0 h -0.14415 v 0 l -0.14415,-0.14405 v -0.14405 0 l 0.14415,-0.14406 v 0 h 0.14415 v 0 l 0.14416,0.14406 v 0.14405 0 z m -2.16229,0.86433 v 0 h -0.14415 v 0 l -0.14416,-0.14405 v -0.14406 0 l 0.14416,-0.14405 v 0 h 0.14415 l 0.14415,0.14405 v 0 0.14406 z m -2.1623,0.72027 v 0 h -0.14415 v 0 l -0.14415,-0.14405 v 0 -0.14406 l 0.14415,-0.14405 v 0 h 0.14415 l 0.14416,0.14405 v 0.28811 z m -2.16229,0.86433 v 0 h -0.14416 v 0 l -0.14415,-0.14406 v -0.14405 0 l 0.14415,-0.14405 v 0 0 h 0.14416 0.14415 v 0.14405 0.14405 z m -2.1623,0.86433 v 0 h -0.14415 v -0.14406 h -0.14415 v -0.14405 -0.14406 h 0.14415 v 0 0 h 0.14415 0.14416 v 0.14406 0.14405 z m -2.16229,0.72027 v 0 0 h -0.14416 -0.14415 v -0.14406 -0.14405 l 0.14415,-0.14406 v 0 0 h 0.14416 l 0.14415,0.14406 v 0.14405 z"
       id="path7279" />
    <path
       transform="matrix(0.26458333,0,0,0.26458333,371.01979,53.064862)"
       style="fill:none;stroke:#000000;stroke-width:0.432459px;stroke-linecap:round;stroke-linejoin:round;stroke-miterlimit:4;stroke-dasharray:none;stroke-opacity:1"
       clip-path="url(#clipEmfPath1-22)"
       d="m 361.96827,122.30217 v 0.28811 l 0.14415,0.43216 v 0.43217 0.28811 0.43216 0.43216 l -0.2883,0.72027 -0.43246,0.57622 -0.43246,0.57622 -0.72077,0.57622 -0.72076,0.28811 -0.28831,0.14405 -0.43246,0.14405 h -0.43245 -0.28831 -0.43246 l -0.43246,-0.14405 -0.72076,-0.28811 -0.57662,-0.28811 -0.57661,-0.57622 -0.57661,-0.57621 -0.14415,-0.28811 -0.14416,-0.43216 v 0 l -0.14415,-0.43217 -0.14415,-0.28811 v -0.43216 -0.43216 -0.43217 l 0.14415,-0.28811 0.28831,-0.72027 0.2883,-0.72027 0.57661,-0.57622 0.57662,-0.43216 0.72076,-0.43216 h 0.43246 l 0.28831,-0.14406 h 0.43246 0.43246 0.2883 0.43246 l 0.72077,0.28811 0.72076,0.43216 0.57661,0.43217 0.43246,0.72027 0.43246,0.72027"
       id="path7281" />
    <path
       transform="matrix(0.26458333,0,0,0.26458333,371.01979,53.064862)"
       style="fill:#000000;fill-opacity:1;fill-rule:nonzero;stroke:#000000;stroke-width:0.144153px;stroke-linecap:round;stroke-linejoin:round;stroke-miterlimit:4;stroke-dasharray:none;stroke-opacity:1"
       clip-path="url(#clipEmfPath1-22)"
       d="M 3.6038259,191.59233 H 24.361863 l 0.288306,0.14405 0.144153,0.14406 0.144153,0.14405 0.144153,0.28811 -0.144153,0.28811 -0.144153,0.28811 -0.144153,0.14405 H 24.361863 3.6038259 3.3155198 l -0.2883061,-0.14405 -0.144153,-0.28811 v -0.28811 -0.28811 l 0.144153,-0.14405 0.2883061,-0.14406 z m 33.1551981,0 h 20.758037 l 0.288306,0.14405 0.288306,0.14406 0.144153,0.14405 v 0.28811 0.28811 l -0.144153,0.28811 -0.288306,0.14405 H 57.517061 36.759024 36.470718 l -0.144153,-0.14405 -0.144153,-0.28811 -0.144153,-0.28811 0.144153,-0.28811 0.144153,-0.14405 0.144153,-0.14406 z m 33.299351,0 h 20.758037 l 0.144153,0.14405 0.288306,0.14406 0.144153,0.14405 v 0.28811 0.28811 l -0.144153,0.28811 -0.288306,0.14405 H 90.816412 70.058375 69.770069 l -0.288306,-0.14405 -0.144153,-0.28811 v -0.28811 -0.28811 l 0.144153,-0.14405 0.288306,-0.14406 z m 33.155195,0 h 20.75804 l 0.28831,0.14405 0.14415,0.14406 0.14415,0.14405 0.14416,0.28811 -0.14416,0.28811 -0.14415,0.28811 -0.14415,0.14405 h -0.28831 -20.75804 -0.2883 l -0.28831,-0.14405 -0.14415,-0.28811 v -0.28811 -0.28811 l 0.14415,-0.14405 0.28831,-0.14406 z m 33.1552,0 h 20.75804 l 0.2883,0.14405 0.28831,0.14406 0.14415,0.14405 v 0.28811 0.28811 l -0.14415,0.28811 -0.28831,0.14405 h -0.2883 -20.75804 -0.2883 l -0.14416,-0.14405 -0.14415,-0.28811 v -0.28811 -0.28811 l 0.14415,-0.14405 0.14416,-0.14406 z m 33.29935,0 h 20.75804 l 0.28831,0.14405 0.14415,0.14406 0.14415,0.14405 0.14415,0.28811 -0.14415,0.28811 -0.14415,0.28811 -0.14415,0.14405 h -0.28831 -20.75804 -0.2883 l -0.28831,-0.14405 -0.14415,-0.28811 v -0.28811 -0.28811 l 0.14415,-0.14405 0.28831,-0.14406 z m 33.1552,0 h 20.75804 l 0.2883,0.14405 0.28831,0.14406 0.14415,0.14405 v 0.28811 0.28811 l -0.14415,0.28811 -0.28831,0.14405 h -0.2883 -20.75804 -0.28831 l -0.14415,-0.14405 -0.14415,-0.28811 -0.14415,-0.28811 0.14415,-0.28811 0.14415,-0.14405 0.14415,-0.14406 z m 33.29935,0 h 20.75804 l 0.14415,0.14405 0.28831,0.14406 0.14415,0.14405 v 0.28811 0.28811 l -0.14415,0.28811 -0.28831,0.14405 h -0.14415 -20.75804 -0.2883 l -0.28831,-0.14405 -0.14415,-0.28811 v -0.28811 -0.28811 l 0.14415,-0.14405 0.28831,-0.14406 z m 33.1552,0 h 20.75804 l 0.2883,0.14405 0.14416,0.14406 0.14415,0.14405 0.14415,0.28811 -0.14415,0.28811 -0.14415,0.28811 -0.14416,0.14405 h -0.2883 -20.75804 -0.28831 l -0.2883,-0.14405 -0.14416,-0.28811 v -0.28811 -0.28811 l 0.14416,-0.14405 0.2883,-0.14406 z m 33.1552,0 h 20.75803 l 0.28831,0.14405 0.28831,0.14406 0.14415,0.14405 v 0.28811 0.28811 l -0.14415,0.28811 -0.28831,0.14405 h -0.28831 -20.75803 -0.28831 l -0.14415,-0.14405 -0.14415,-0.28811 v -0.28811 -0.28811 l 0.14415,-0.14405 0.14415,-0.14406 z m 33.29935,0 h 20.75804 l 0.2883,0.14405 0.14416,0.14406 0.14415,0.14405 0.14415,0.28811 -0.14415,0.28811 -0.14415,0.28811 -0.14416,0.14405 h -0.2883 -20.75804 -0.28831 l -0.2883,-0.14405 -0.14416,-0.28811 v -0.28811 -0.28811 l 0.14416,-0.14405 0.2883,-0.14406 z m 33.1552,0 h 20.75803 l 0.28831,0.14405 0.28831,0.14406 0.14415,0.14405 v 0.28811 0.28811 l -0.14415,0.28811 -0.28831,0.14405 h -0.28831 -20.75803 -0.28831 l -0.14415,-0.14405 -0.14416,-0.28811 -0.14415,-0.28811 0.14415,-0.28811 0.14416,-0.14405 0.14415,-0.14406 z m 33.29935,0 h 20.75804 l 0.14415,0.14405 0.2883,0.14406 0.14416,0.14405 v 0.28811 0.28811 l -0.14416,0.28811 -0.2883,0.14405 h -0.14415 -20.75804 -0.28831 l -0.2883,-0.14405 -0.14416,-0.28811 v -0.28811 -0.28811 l 0.14416,-0.14405 0.2883,-0.14406 z m 33.1552,0 h 20.75803 l 0.28831,0.14405 0.14415,0.14406 0.14416,0.14405 0.14415,0.28811 -0.14415,0.28811 -0.14416,0.28811 -0.14415,0.14405 h -0.28831 -20.75803 -0.28831 l -0.28831,-0.14405 -0.14415,-0.28811 v -0.28811 -0.28811 l 0.14415,-0.14405 0.28831,-0.14406 z m 33.15519,0 h 20.75804 l 0.28831,0.14405 0.2883,0.14406 0.14416,0.14405 v 0.28811 0.28811 l -0.14416,0.28811 -0.2883,0.14405 h -0.28831 -20.75804 -0.2883 l -0.14415,-0.14405 -0.14416,-0.28811 v -0.28811 -0.28811 l 0.14416,-0.14405 0.14415,-0.14406 z m 33.29936,0 h 20.75803 l 0.28831,0.14405 0.14415,0.14406 0.14415,0.14405 0.14416,0.28811 -0.14416,0.28811 -0.14415,0.28811 -0.14415,0.14405 h -0.28831 -20.75803 -0.28831 l -0.28831,-0.14405 -0.14415,-0.28811 v -0.28811 -0.28811 l 0.14415,-0.14405 0.28831,-0.14406 z m 33.15519,0 h 20.75804 l 0.28831,0.14405 0.2883,0.14406 0.14416,0.14405 v 0.28811 0.28811 l -0.14416,0.28811 -0.2883,0.14405 h -0.28831 -20.75804 -0.2883 l -0.14416,-0.14405 -0.14415,-0.28811 -0.14415,-0.28811 0.14415,-0.28811 0.14415,-0.14405 0.14416,-0.14406 z m 33.29935,0 h 20.75804 l 0.14415,0.14405 0.28831,0.14406 0.14415,0.14405 v 0.28811 0.28811 l -0.14415,0.28811 -0.28831,0.14405 h -0.14415 -20.75804 -0.2883 l -0.28831,-0.14405 -0.14415,-0.28811 v -0.28811 -0.28811 l 0.14415,-0.14405 0.28831,-0.14406 z m 33.1552,0 h 20.75804 l 0.28831,0.14405 0.14415,0.14406 0.14415,0.14405 0.14416,0.28811 -0.14416,0.28811 -0.14415,0.28811 -0.14415,0.14405 h -0.28831 -20.75804 -0.2883 l -0.28831,-0.14405 -0.14415,-0.28811 v -0.28811 -0.28811 l 0.14415,-0.14405 0.28831,-0.14406 z m 33.1552,0 h 20.75804 l 0.2883,0.14405 0.28831,0.14406 0.14415,0.14405 v 0.28811 0.28811 l -0.14415,0.28811 -0.28831,0.14405 h -0.2883 -20.75804 -0.28831 l -0.14415,-0.14405 -0.14415,-0.28811 v -0.28811 -0.28811 l 0.14415,-0.14405 0.14415,-0.14406 z m 33.29935,0 h 20.75804 l 0.28831,0.14405 0.14415,0.14406 0.14415,0.14405 0.14415,0.28811 -0.14415,0.28811 -0.14415,0.28811 -0.14415,0.14405 h -0.28831 -20.75804 -0.2883 l -0.28831,-0.14405 -0.14415,-0.28811 v -0.28811 -0.28811 l 0.14415,-0.14405 0.28831,-0.14406 z m 33.1552,0 h 20.75804 l 0.2883,0.14405 0.28831,0.14406 0.14415,0.14405 v 0.28811 0.28811 l -0.14415,0.28811 -0.28831,0.14405 h -0.2883 -20.75804 -0.28831 l -0.14415,-0.14405 -0.14415,-0.28811 -0.14416,-0.28811 0.14416,-0.28811 0.14415,-0.14405 0.14415,-0.14406 z m 33.29935,0 h 20.75804 l 0.14415,0.14405 0.28831,0.14406 0.14415,0.14405 v 0.28811 0.28811 l -0.14415,0.28811 -0.28831,0.14405 h -0.14415 -20.75804 -0.2883 l -0.28831,-0.14405 -0.14415,-0.28811 v -0.28811 -0.28811 l 0.14415,-0.14405 0.28831,-0.14406 z m 33.1552,0 h 20.75804 l 0.2883,0.14405 0.14416,0.14406 0.14415,0.14405 0.14415,0.28811 -0.14415,0.28811 -0.14415,0.28811 -0.14416,0.14405 h -0.2883 -20.75804 -0.28831 l -0.2883,-0.14405 -0.14416,-0.28811 v -0.28811 -0.28811 l 0.14416,-0.14405 0.2883,-0.14406 z m 33.1552,0 h 20.75803 l 0.28831,0.14405 0.28831,0.14406 0.14415,0.14405 v 0.28811 0.28811 l -0.14415,0.28811 -0.28831,0.14405 h -0.28831 -20.75803 -0.28831 l -0.14415,-0.14405 -0.14415,-0.28811 v -0.28811 -0.28811 l 0.14415,-0.14405 0.14415,-0.14406 z m 33.29935,0 h 20.75804 l 0.2883,0.14405 0.14415,0.14406 0.14416,0.14405 0.14415,0.28811 -0.14415,0.28811 -0.14416,0.28811 -0.14415,0.14405 h -0.2883 -20.75804 -0.28831 l -0.2883,-0.14405 -0.14416,-0.28811 v -0.28811 -0.28811 l 0.14416,-0.14405 0.2883,-0.14406 z"
       id="path7283" />
    <path
       transform="matrix(0.26458333,0,0,0.26458333,371.01979,53.064862)"
       style="fill:#000000;fill-opacity:1;fill-rule:nonzero;stroke:#000000;stroke-width:0.144153px;stroke-linecap:round;stroke-linejoin:round;stroke-miterlimit:4;stroke-dasharray:none;stroke-opacity:1"
       clip-path="url(#clipEmfPath1-22)"
       d="m 444.27965,192.3126 v 20.74383 l -0.14415,0.28811 -0.14415,0.14406 -0.14415,0.28811 h -0.28831 -0.28831 l -0.14415,-0.28811 -0.14415,-0.14406 -0.14416,-0.28811 V 192.3126 l 0.14416,-0.28811 0.14415,-0.14405 0.14415,-0.14406 0.28831,-0.14405 0.28831,0.14405 0.14415,0.14406 0.14415,0.14405 z m 0,33.27656 V 246.333 l -0.14415,0.14405 -0.14415,0.28811 -0.14415,0.14405 h -0.28831 -0.28831 l -0.14415,-0.14405 -0.14415,-0.28811 -0.14416,-0.14405 v -20.74384 l 0.14416,-0.2881 0.14415,-0.28811 0.14415,-0.14406 h 0.28831 0.28831 l 0.14415,0.14406 0.14415,0.28811 z m 0,33.13251 v 20.74383 l -0.14415,0.28811 -0.14415,0.14406 -0.14415,0.14405 -0.28831,0.14406 -0.28831,-0.14406 -0.14415,-0.14405 -0.14415,-0.14406 -0.14416,-0.28811 v -20.74383 l 0.14416,-0.28811 0.14415,-0.2881 0.14415,-0.14406 h 0.28831 0.28831 l 0.14415,0.14406 0.14415,0.2881 z m 0,33.13251 v 20.74383 l -0.14415,0.28811 -0.14415,0.28811 -0.14415,0.14405 h -0.28831 -0.28831 l -0.14415,-0.14405 -0.14415,-0.28811 -0.14416,-0.28811 v -20.74383 l 0.14416,-0.28811 0.14415,-0.14405 0.14415,-0.14406 h 0.28831 0.28831 l 0.14415,0.14406 0.14415,0.14405 z m 0,33.27656 v 5.90623 l -0.14415,0.28811 -0.14415,0.28811 -0.14415,0.14406 h -0.28831 -0.28831 l -0.14415,-0.14406 -0.14415,-0.28811 -0.14416,-0.28811 v -5.90623 l 0.14416,-0.2881 0.14415,-0.28811 0.14415,-0.14406 h 0.28831 0.28831 l 0.14415,0.14406 0.14415,0.28811 z"
       id="path7285" />
    <path
       transform="matrix(0.26458333,0,0,0.26458333,371.01979,53.064862)"
       style="fill:#ffffff;fill-opacity:1;fill-rule:evenodd;stroke:none"
       clip-path="url(#clipEmfPath1-22)"
       d="m 227.32934,389.95522 v 30.25142 h 423.80992 v -30.25142 z"
       id="path7287" />
    <path
       transform="matrix(0.26458333,0,0,0.26458333,371.01979,53.064862)"
       style="fill:none;stroke:#000000;stroke-width:0.432459px;stroke-linecap:round;stroke-linejoin:round;stroke-miterlimit:4;stroke-dasharray:none;stroke-opacity:1"
       clip-path="url(#clipEmfPath1-22)"
       d="M 227.32934,420.20664 H 651.13926 V 389.95522 H 227.32934 Z"
       id="path7289" />
    <g
       transform="matrix(0.26458333,0,0,0.26458333,371.01979,53.064862)"
       clip-path="url(#clipEmfPath1-22)"
       id="g7297">
      <text
         xml:space="preserve"
         style="font-style:normal;font-variant:normal;font-weight:400;font-size:15.4375px;line-height:125%;font-family:Helvetica;text-align:start;letter-spacing:0px;word-spacing:0px;text-anchor:start;fill:#000000;fill-opacity:1;stroke:none"
         transform="translate(234.96945,409.54661)"
         x="0"
         y="0"
         id="text7295"><tspan
           sodipodi:role="line"
           x="0"
           y="0"
           id="tspan7293"><tspan
             dx="0"
             dy="0"
             style="font-style:normal;font-variant:normal;font-weight:400;font-size:15.4375px;font-family:Helvetica;fill:#000000"
             id="tspan7291">separate diagrams for each polymorphic concrete case</tspan></tspan></text>
    </g>
    <path
       transform="matrix(0.26458333,0,0,0.26458333,371.01979,53.064862)"
       style="fill:#ffffff;fill-opacity:1;fill-rule:evenodd;stroke:none"
       clip-path="url(#clipEmfPath1-22)"
       d="m 631.82275,389.95522 19.31651,19.30328 v -19.30328 z"
       id="path7299" />
    <path
       transform="matrix(0.26458333,0,0,0.26458333,371.01979,53.064862)"
       style="fill:none;stroke:#ffffff;stroke-width:0.432459px;stroke-linecap:round;stroke-linejoin:round;stroke-miterlimit:4;stroke-dasharray:none;stroke-opacity:1"
       clip-path="url(#clipEmfPath1-22)"
       d="m 631.82275,389.95522 19.31651,19.30328 v -19.30328 z"
       id="path7301" />
    <path
       transform="matrix(0.26458333,0,0,0.26458333,371.01979,53.064862)"
       style="fill:#000000;fill-opacity:1;fill-rule:evenodd;stroke:none"
       clip-path="url(#clipEmfPath1-22)"
       d="M 651.13926,409.2585 631.82275,389.95522 V 409.2585 Z"
       id="path7303" />
    <path
       transform="matrix(0.26458333,0,0,0.26458333,371.01979,53.064862)"
       style="fill:none;stroke:#000000;stroke-width:0.432459px;stroke-linecap:round;stroke-linejoin:round;stroke-miterlimit:4;stroke-dasharray:none;stroke-opacity:1"
       clip-path="url(#clipEmfPath1-22)"
       d="M 651.13926,409.2585 631.82275,389.95522 V 409.2585 Z"
       id="path7305" />
    <path
       transform="matrix(0.26458333,0,0,0.26458333,371.01979,53.064862)"
       style="fill:#000000;fill-opacity:1;fill-rule:nonzero;stroke:#000000;stroke-width:0.144153px;stroke-linecap:round;stroke-linejoin:round;stroke-miterlimit:4;stroke-dasharray:none;stroke-opacity:1"
       clip-path="url(#clipEmfPath1-22)"
       d="m 439.09015,390.09927 v 0 l -0.14416,-0.14405 v -0.14406 h 0.14416 v -0.14405 h 0.14415 v 0 h 0.14415 v 0 l 0.14415,0.14405 -0.14415,0.14406 v 0.14405 h -0.14415 z m -1.72984,-1.44054 v 0 l -0.14415,-0.28811 v 0 -0.14406 h 0.14415 0.14415 0.14415 v 0 0.14406 0.14405 0 l -0.14415,0.14406 z m -1.87399,-1.5846 v 0 -0.14406 -0.14405 h 0.14415 0.14416 v 0 0 h 0.14415 v 0.14405 0.14406 h -0.14415 l -0.14416,0.14405 v 0 z m -1.72984,-1.44054 v 0 l -0.14415,-0.14406 0.14415,-0.14405 0.14416,-0.14406 v 0.14406 h 0.14415 v 0 0 0.14405 0.14406 0 l -0.14415,0.14405 h -0.14416 z m -1.87399,-1.44055 v 0 -0.14405 -0.14406 l 0.14416,-0.14405 0.14415,0.14405 v 0 h 0.14415 v 0.14406 0 0.14405 h -0.14415 v 0.14406 l -0.14415,-0.14406 z m -1.72983,-1.44054 v 0 l -0.14416,-0.14406 0.14416,-0.14405 0.14415,-0.14406 0.14415,0.14406 v 0 0 l 0.14416,0.14405 v 0 l -0.14416,0.14406 v 0 h -0.14415 v 0 z m -1.72984,-1.44055 v 0 l -0.14415,-0.14405 v 0 -0.14406 l 0.2883,-0.14405 h 0.14416 v 0 0.14405 0.14406 0.14405 h -0.14416 v 0 z m -1.87399,-1.44054 v 0 -0.14405 0 -0.14406 l 0.14415,-0.14405 h 0.14416 v 0 l 0.14415,0.14405 v 0 0.28811 h -0.14415 -0.14416 v 0 z m -1.72984,-1.44054 v 0 l -0.14415,-0.14406 v 0 -0.14405 l 0.14415,-0.14406 v 0 h 0.14416 0.14415 v 0 0.14406 0.14405 0.14406 h -0.14415 z m -1.72983,-1.44055 v 0 l -0.14415,-0.14405 v -0.14406 0 -0.14405 h 0.14415 v 0 h 0.2883 v 0 0.14405 0.14406 l -0.14415,0.14405 v 0 z m -1.87399,-1.5846 v 0 0 -0.14405 0 -0.14405 0 h 0.14415 0.14415 v 0 l 0.14416,0.14405 -0.14416,0.14405 v 0.14406 h -0.14415 z m -1.72984,-1.44054 v 0 l -0.14415,-0.14405 v 0 l 0.14415,-0.14406 v 0 l 0.14416,-0.14405 v 0 l 0.14415,0.14405 v 0 0.14406 0.14405 l -0.14415,0.14405 z m -1.87399,-1.44054 v 0 -0.14406 -0.14405 0 l 0.14416,-0.14406 v 0 h 0.14415 v 0.14406 0 l 0.14415,0.14405 v 0 0.14406 h -0.2883 z m -1.72983,-1.44055 v 0 l -0.14416,-0.14405 0.14416,-0.14406 v -0.14405 h 0.14415 v 0 l 0.14415,0.14405 v 0 l 0.14416,0.14406 h -0.14416 v 0.14405 h -0.14415 z m -1.72984,-1.44054 v 0 l -0.14415,-0.14406 v -0.14405 l 0.14415,-0.14405 v 0 h 0.14415 0.14416 v 0 0.14405 0 0.14405 0.14406 h -0.14416 z m -1.87399,-1.44055 v 0 -0.14405 -0.28811 h 0.14415 0.14416 v 0 0 l 0.14415,0.14406 v 0 0.14405 l -0.14415,0.14405 h -0.14416 v 0 z m -1.72984,-1.44054 v 0 l -0.14415,-0.28811 0.14415,-0.14405 h 0.14416 v 0 h 0.14415 v 0 0.14405 0 0.14406 0 l -0.14415,0.14405 z m -1.87399,-1.5846 v 0 0 -0.14405 -0.14406 h 0.14416 0.14415 v 0 0 h 0.14415 v 0.14406 0.14405 l -0.14415,0.14406 h -0.14415 z m -1.72983,-1.44054 v 0 0 l -0.14415,-0.14406 0.14415,-0.14405 0.14415,-0.14405 0.14415,0.14405 v 0 0 l 0.14416,0.14405 -0.14416,0.14406 v 0 l -0.14415,0.14405 v 0 z m -1.72984,-1.44055 v 0 h -0.14415 v -0.14405 -0.14405 0 l 0.14415,-0.14406 0.28831,0.14406 v 0 0.14405 0.14405 h -0.14416 v 0.14406 z m -1.87399,-1.44054 v 0 0 -0.14405 -0.14406 0 l 0.14416,-0.14405 0.14415,0.14405 v 0 l 0.14415,0.14406 v 0.14405 h -0.14415 -0.14415 v 0 z m -1.72983,-1.44054 v 0 l -0.14416,-0.14406 v 0 -0.14405 h 0.14416 l 0.14415,-0.14406 h 0.14415 v 0 0.28811 0.14406 0 h -0.14415 z m -1.72984,-1.44055 v 0 l -0.14415,-0.14405 v 0 -0.14406 0 l 0.14415,-0.14405 h 0.28831 v 0 0.14405 0.28811 h -0.14416 v 0 z m -1.87399,-1.44054 v 0 l -0.14415,-0.14405 0.14415,-0.14406 v -0.14405 0 h 0.14415 0.14416 v 0 l 0.14415,0.14405 v 0.14406 h -0.14415 v 0.14405 h -0.14416 z m -1.72984,-1.44054 v 0 l -0.14415,-0.28811 v 0 l 0.14415,-0.14406 v 0 h 0.14416 0.14415 v 0 0.14406 0.14405 0 l -0.14415,0.14406 v 0 z"
       id="path7307" />
    <path
       transform="matrix(0.26458333,0,0,0.26458333,371.01979,53.064862)"
       style="fill:none;stroke:#000000;stroke-width:0.432459px;stroke-linecap:round;stroke-linejoin:round;stroke-miterlimit:4;stroke-dasharray:none;stroke-opacity:1"
       clip-path="url(#clipEmfPath1-22)"
       d="m 394.69101,353.50946 0.28831,-0.28811 0.14415,-0.43216 0.28831,-0.28811 v -0.43217 l 0.14415,-0.28811 v -0.43216 l 0.14415,-0.43216 -0.14415,-0.28811 v -0.43216 l -0.14415,-0.28811 -0.28831,-0.72027 -0.43246,-0.72028 -0.57661,-0.57621 -0.28831,-0.28811 -0.2883,-0.14406 -0.43246,-0.14405 -0.28831,-0.14406 -0.43246,-0.14405 h -0.2883 -0.43246 -0.43246 -0.28831 l -0.43246,0.14405 -0.72076,0.28811 -0.57661,0.43217 -0.57662,0.57621 v 0 l -0.2883,0.28811 -0.14416,0.43217 -0.2883,0.2881 -0.14416,0.43217 v 0.28811 l -0.14415,0.43216 v 0.43216 0.28811 l 0.14415,0.43216 0.14416,0.28811 0.2883,0.72028 0.43246,0.72027 0.57662,0.57622 0.2883,0.2881 0.28831,0.14406 0.43246,0.14405 0.2883,0.14406 0.43246,0.14405 h 0.28831 0.43246 0.43246 0.2883 l 0.43246,-0.14405 0.72077,-0.28811 0.57661,-0.43216 0.57661,-0.57622"
       id="path7309" />
    <path
       transform="matrix(0.26458333,0,0,0.26458333,371.01979,53.064862)"
       style="fill:#000000;fill-opacity:1;fill-rule:nonzero;stroke:#000000;stroke-width:0.144153px;stroke-linecap:round;stroke-linejoin:round;stroke-miterlimit:4;stroke-dasharray:none;stroke-opacity:1"
       clip-path="url(#clipEmfPath1-22)"
       d="m 439.09015,389.66711 v 0 h 0.14415 v 0 h 0.14415 v 0.14405 l 0.14415,0.14406 -0.14415,0.14405 v 0 h -0.14415 -0.14415 l -0.14416,-0.14405 v -0.14406 h 0.14416 z m 1.87398,-1.29649 v 0 h 0.14416 v 0 h 0.14415 v 0 l 0.14415,0.28811 -0.14415,0.14405 v 0 h -0.14415 l -0.14416,-0.14405 v 0 -0.14406 0 z m 1.87399,-1.29649 v 0 h 0.14416 v 0 h 0.14415 0.14415 v 0.14405 0 0.14406 l -0.14415,0.14405 v 0 h -0.14415 l -0.14416,-0.14405 v -0.14406 z m 1.87399,-1.29649 v 0 h 0.28831 0.14415 v 0.14405 0 0.14406 h -0.14415 v 0 l -0.14415,0.14405 v 0 l -0.14416,-0.14405 v -0.14406 z m 2.01815,-1.29649 v 0 l 0.14415,-0.14405 0.14415,0.14405 v 0.14405 0.14406 0 l -0.14415,0.14405 h -0.14415 v -0.14405 h -0.14416 v -0.14406 0 -0.14405 z m 1.87399,-1.29649 v 0 l 0.14415,-0.14405 0.14415,0.14405 v 0.14405 0.14406 0 h -0.14415 v 0.14405 l -0.14415,-0.14405 v 0 l -0.14416,-0.14406 v 0 -0.14405 z m 1.87398,-1.29649 v 0 l 0.14416,-0.14405 0.14415,0.14405 v 0 l 0.14415,0.14406 -0.14415,0.14405 v 0 0 h -0.14415 v 0 h -0.14416 v 0 l -0.14415,-0.14405 z m 1.87399,-1.29649 v 0 l 0.14416,-0.14405 v 0 h 0.14415 v 0.14405 h 0.14415 v 0.14406 h -0.14415 v 0.14405 0 h -0.14415 -0.14416 l -0.14415,-0.14405 z m 1.87399,-1.44054 v 0 h 0.14416 v 0 h 0.14415 l 0.14415,0.14405 v 0.14406 l -0.14415,0.14405 v 0 h -0.14415 -0.14416 v -0.14405 -0.14406 0 z m 1.87399,-1.29649 v 0 h 0.14416 0.14415 v 0 l 0.14415,0.14405 v 0.14406 l -0.14415,0.14405 v 0 h -0.14415 -0.14416 v -0.14405 -0.14406 0 z m 2.01815,-1.29649 v 0 0 h 0.14415 v 0 h 0.14415 v 0.14405 0.14406 0 0.14405 0 h -0.2883 l -0.14416,-0.14405 v -0.14406 z m 1.87399,-1.29649 v 0 h 0.14415 0.14415 v 0.14405 0 0.14406 0.14405 0 h -0.14415 -0.14415 l -0.14416,-0.14405 v -0.14406 z m 1.87398,-1.29649 v 0 h 0.14416 0.14415 v 0.14405 0.14406 0 l -0.14415,0.14405 v 0 h -0.14416 v -0.14405 h -0.14415 v -0.14406 -0.14405 z m 1.87399,-1.29649 v 0 l 0.14416,-0.14405 0.14415,0.14405 0.14415,0.14405 -0.14415,0.14406 v 0 l -0.14415,0.14405 v 0 l -0.14416,-0.14405 v 0 l -0.14415,-0.14406 z m 1.87399,-1.29649 v 0 l 0.14416,-0.14405 0.14415,0.14405 h 0.14415 v 0.14406 0.14405 h -0.14415 v 0 0 l -0.14415,0.14405 -0.14416,-0.14405 v 0 -0.14405 z m 1.87399,-1.29649 v 0 l 0.14416,-0.14405 v 0 h 0.14415 l 0.14415,0.14405 v 0 0.14406 0.14405 h -0.14415 v 0 h -0.14415 -0.14416 v -0.14405 z m 2.01815,-1.29649 v 0 -0.14405 h 0.14415 v 0 l 0.14415,0.14405 v 0.14406 0.14405 0 h -0.2883 -0.14416 v -0.14405 0 -0.14406 z m 1.87399,-1.44054 v 0 0 h 0.14415 v 0 l 0.14415,0.14405 v 0.14406 0 0.14405 0 h -0.2883 -0.14416 v -0.28811 0 z m 1.87398,-1.29649 v 0 0 h 0.14416 0.14415 v 0.14405 0 0.14406 0 0.14405 0 h -0.14415 -0.14416 l -0.14415,-0.28811 z m 1.87399,-1.29649 v 0 h 0.14416 0.14415 l 0.14415,0.28811 -0.14415,0.14405 v 0 h -0.14415 -0.14416 v -0.14405 h -0.14415 v -0.14406 h 0.14415 z m 1.87399,-1.29649 v 0 h 0.14416 0.14415 l 0.14415,0.14405 -0.14415,0.28811 v 0 0 h -0.14415 -0.14416 v -0.14405 0 -0.14406 0 z m 1.87399,-1.29649 v 0 h 0.14416 0.2883 v 0.14405 0.14406 h -0.14415 v 0 0.14405 h -0.14415 -0.14416 v -0.14405 -0.14406 z m 1.87399,-1.29649 v 0 l 0.28831,-0.14405 0.14415,0.14405 v 0.14406 0 0.14405 h -0.14415 v 0 0.14405 h -0.14415 v -0.14405 h -0.14416 v -0.14405 z m 2.01814,-1.29649 v 0 -0.14405 h 0.14416 v 0.14405 h 0.14415 v 0.14406 0.14405 0 l -0.28831,0.14405 -0.14415,-0.14405 v -0.14405 0 -0.14406 z m 1.87399,-1.29649 v 0 -0.14405 h 0.14416 v 0 l 0.14415,0.14405 v 0.14406 0.14405 0 h -0.14415 -0.14416 l -0.14415,-0.14405 v 0 -0.14406 z m 1.87399,-1.29649 v 0 -0.14405 h 0.14416 0.14415 v 0.14405 0 l 0.14415,0.14406 h -0.14415 v 0.14405 0 h -0.14415 -0.14416 l -0.14415,-0.14405 z m 1.87399,-1.44054 v 0 h 0.14416 0.14415 v 0.14405 h 0.14415 v 0.14406 h -0.14415 v 0.14405 0 h -0.14415 -0.14416 l -0.14415,-0.28811 z m 1.87399,-1.29649 v 0 h 0.14416 l 0.2883,0.14405 v 0.14406 l -0.14415,0.14405 v 0 h -0.14415 -0.14416 v 0 -0.14405 -0.14406 0 z"
       id="path7311" />
    <path
       transform="matrix(0.26458333,0,0,0.26458333,371.01979,53.064862)"
       style="fill:none;stroke:#000000;stroke-width:0.432459px;stroke-linecap:round;stroke-linejoin:round;stroke-miterlimit:4;stroke-dasharray:none;stroke-opacity:1"
       clip-path="url(#clipEmfPath1-22)"
       d="m 492.13846,353.22135 -0.14415,-0.28811 -0.14415,-0.43216 -0.14416,-0.28811 -0.14415,-0.43217 v -0.43216 l -0.14415,-0.28811 v -0.43216 l 0.14415,-0.28811 0.14415,-0.86433 0.43246,-0.57621 0.43246,-0.72027 0.57661,-0.43217 0.43246,-0.28811 0.28831,-0.14405 0.43246,-0.14406 0.2883,-0.14405 h 0.43246 0.43246 0.28831 0.43246 l 0.72076,0.28811 0.72077,0.28811 0.57661,0.57622 0.57661,0.57621 v 0 l 0.14415,0.28811 0.14416,0.43216 0.14415,0.28811 0.14415,0.43217 v 0.28811 l 0.14416,0.43216 v 0.43216 l -0.14416,0.28811 v 0.43216 l -0.14415,0.43217 -0.43246,0.57621 -0.43246,0.72028 -0.57661,0.43216 -0.43246,0.28811 -0.2883,0.14405 -0.43246,0.14406 -0.28831,0.14405 h -0.43246 -0.43246 -0.2883 -0.43246 l -0.43246,-0.14405 -0.28831,-0.14406 -0.72076,-0.28811 -0.57662,-0.57621 -0.57661,-0.57622"
       id="path7313" />
    <path
       transform="matrix(0.26458333,0,0,0.26458333,371.01979,53.064862)"
       style="fill:none;stroke:#000000;stroke-width:0.432459px;stroke-linecap:round;stroke-linejoin:round;stroke-miterlimit:4;stroke-dasharray:none;stroke-opacity:1"
       clip-path="url(#clipEmfPath1-22)"
       d="m 154.96451,136.56356 h 17.01006"
       id="path7315" />
    <path
       transform="matrix(0.26458333,0,0,0.26458333,371.01979,53.064862)"
       style="fill:#000000;fill-opacity:1;fill-rule:evenodd;stroke:none"
       clip-path="url(#clipEmfPath1-22)"
       d="m 171.10965,139.87681 9.80241,-3.31325 -9.80241,-3.1692 z"
       id="path7317" />
    <path
       transform="matrix(0.26458333,0,0,0.26458333,371.01979,53.064862)"
       style="fill:none;stroke:#000000;stroke-width:0.432459px;stroke-linecap:round;stroke-linejoin:round;stroke-miterlimit:4;stroke-dasharray:none;stroke-opacity:1"
       clip-path="url(#clipEmfPath1-22)"
       d="m 392.81702,136.56356 h 17.01006"
       id="path7319" />
    <path
       transform="matrix(0.26458333,0,0,0.26458333,371.01979,53.064862)"
       style="fill:#000000;fill-opacity:1;fill-rule:evenodd;stroke:none"
       clip-path="url(#clipEmfPath1-22)"
       d="m 409.10631,139.87681 9.65826,-3.31325 -9.65826,-3.1692 z"
       id="path7321" />
    <path
       transform="matrix(0.26458333,0,0,0.26458333,371.01979,53.064862)"
       style="fill:none;stroke:#000000;stroke-width:0.432459px;stroke-linecap:round;stroke-linejoin:round;stroke-miterlimit:4;stroke-dasharray:none;stroke-opacity:1"
       clip-path="url(#clipEmfPath1-22)"
       d="M 171.10965,316.48748 H 329.10138"
       id="path7323" />
    <g
       transform="matrix(0.26458333,0,0,0.26458333,371.01979,53.064862)"
       clip-path="url(#clipEmfPath1-22)"
       id="g7335">
      <text
         xml:space="preserve"
         style="font-style:normal;font-variant:normal;font-weight:400;font-size:15.4375px;line-height:119.443%;font-family:Helvetica;text-align:start;letter-spacing:0px;word-spacing:0px;text-anchor:start;fill:#000000;fill-opacity:1;stroke:none"
         transform="translate(232.08639,294.87932)"
         x="0"
         y="0"
         id="text7333"><tspan
           sodipodi:role="line"
           x="0"
           y="0"
           id="tspan7327"><tspan
             dx="0"
             dy="0"
             style="font-style:normal;font-variant:normal;font-weight:400;font-size:15.4375px;font-family:Helvetica;fill:#000000"
             id="tspan7325">doA</tspan></tspan><tspan
           sodipodi:role="line"
           x="0"
           y="18.439013"
           id="tspan7331"><tspan
             dx="0"
             dy="0"
             style="font-style:normal;font-variant:normal;font-weight:400;font-size:15.4375px;font-family:Helvetica;fill:#000000"
             id="tspan7329">doB</tspan></tspan></text>
    </g>
    <path
       transform="matrix(0.26458333,0,0,0.26458333,371.01979,53.064862)"
       style="fill:none;stroke:#000000;stroke-width:0.432459px;stroke-linecap:round;stroke-linejoin:round;stroke-miterlimit:4;stroke-dasharray:none;stroke-opacity:1"
       clip-path="url(#clipEmfPath1-22)"
       d="m 263.07929,289.83742 h 17.01006"
       id="path7337" />
    <path
       transform="matrix(0.26458333,0,0,0.26458333,371.01979,53.064862)"
       style="fill:#000000;fill-opacity:1;fill-rule:evenodd;stroke:none"
       clip-path="url(#clipEmfPath1-22)"
       d="m 279.22443,293.00662 9.80241,-3.1692 -9.80241,-3.1692 z"
       id="path7339" />
    <path
       transform="matrix(0.26458333,0,0,0.26458333,371.01979,53.064862)"
       style="fill:none;stroke:#000000;stroke-width:0.432459px;stroke-linecap:round;stroke-linejoin:round;stroke-miterlimit:4;stroke-dasharray:none;stroke-opacity:1"
       clip-path="url(#clipEmfPath1-22)"
       d="m 263.07929,307.12395 h 17.01006"
       id="path7341" />
    <path
       transform="matrix(0.26458333,0,0,0.26458333,371.01979,53.064862)"
       style="fill:#000000;fill-opacity:1;fill-rule:evenodd;stroke:none"
       clip-path="url(#clipEmfPath1-22)"
       d="m 279.36858,310.4372 9.65826,-3.31325 -9.65826,-3.1692 z"
       id="path7343" />
    <path
       transform="matrix(0.26458333,0,0,0.26458333,371.01979,53.064862)"
       style="fill:none;stroke:#000000;stroke-width:0.432459px;stroke-linecap:round;stroke-linejoin:round;stroke-miterlimit:4;stroke-dasharray:none;stroke-opacity:1"
       clip-path="url(#clipEmfPath1-22)"
       d="m 172.26288,246.6211 v 16.99842"
       id="path7345" />
    <path
       transform="matrix(0.26458333,0,0,0.26458333,371.01979,53.064862)"
       style="fill:#000000;fill-opacity:1;fill-rule:evenodd;stroke:none"
       clip-path="url(#clipEmfPath1-22)"
       d="m 168.94736,262.89925 3.31552,9.65164 3.17136,-9.65164 z"
       id="path7347" />
    <path
       transform="matrix(0.26458333,0,0,0.26458333,371.01979,53.064862)"
       style="fill:#ffffff;fill-opacity:1;fill-rule:evenodd;stroke:none"
       clip-path="url(#clipEmfPath1-22)"
       d="m 484.6425,294.87932 v 43.21632 h 147.0361 v -43.21632 z"
       id="path7349" />
    <path
       transform="matrix(0.26458333,0,0,0.26458333,371.01979,53.064862)"
       style="fill:none;stroke:#000000;stroke-width:0.432459px;stroke-linecap:round;stroke-linejoin:round;stroke-miterlimit:4;stroke-dasharray:none;stroke-opacity:1"
       clip-path="url(#clipEmfPath1-22)"
       d="M 484.6425,338.09564 H 631.6786 V 294.87932 H 484.6425 Z"
       id="path7351" />
    <g
       transform="matrix(0.26458333,0,0,0.26458333,371.01979,53.064862)"
       clip-path="url(#clipEmfPath1-22)"
       id="g7361">
      <text
         xml:space="preserve"
         style="font-style:normal;font-variant:normal;font-weight:400;font-size:15.4375px;line-height:125%;font-family:Helvetica;text-align:start;letter-spacing:0px;word-spacing:0px;text-anchor:start;fill:#000000;fill-opacity:1;stroke:none"
         transform="translate(505.11223,320.95317)"
         x="0"
         y="0"
         id="text7359"><tspan
           sodipodi:role="line"
           x="0"
           y="0"
           id="tspan7357"><tspan
             dx="0"
             dy="0"
             style="font-style:normal;font-variant:normal;font-weight:400;font-size:15.4375px;font-family:Helvetica;fill:#000000"
             id="tspan7353">:</tspan><tspan
             dx="0"
             dy="0"
             style="font-style:normal;font-variant:normal;font-weight:400;font-size:15.4375px;font-family:Helvetica;fill:#000000"
             id="tspan7355">CreditPayment</tspan></tspan></text>
    </g>
    <path
       transform="matrix(0.26458333,0,0,0.26458333,371.01979,53.064862)"
       style="fill:none;stroke:#000000;stroke-width:0.432459px;stroke-linecap:round;stroke-linejoin:round;stroke-miterlimit:4;stroke-dasharray:none;stroke-opacity:1"
       clip-path="url(#clipEmfPath1-22)"
       d="M 558.16055,294.87932 V 234.37648"
       id="path7363" />
    <g
       transform="matrix(0.26458333,0,0,0.26458333,371.01979,53.064862)"
       clip-path="url(#clipEmfPath1-22)"
       id="g7371">
      <text
         xml:space="preserve"
         style="font-style:normal;font-variant:normal;font-weight:400;font-size:15.4375px;line-height:125%;font-family:Helvetica;text-align:start;letter-spacing:0px;word-spacing:0px;text-anchor:start;fill:#000000;fill-opacity:1;stroke:none"
         transform="translate(561.18777,264.77196)"
         x="0"
         y="0"
         id="text7369"><tspan
           sodipodi:role="line"
           x="0"
           y="0"
           id="tspan7367"><tspan
             dx="0"
             dy="0"
             style="font-style:normal;font-variant:normal;font-weight:400;font-size:15.4375px;font-family:Helvetica;fill:#000000"
             id="tspan7365">authorize</tspan></tspan></text>
    </g>
    <path
       transform="matrix(0.26458333,0,0,0.26458333,371.01979,53.064862)"
       style="fill:#ffffff;fill-opacity:1;fill-rule:evenodd;stroke:none"
       clip-path="url(#clipEmfPath1-22)"
       d="m 790.6794,294.87932 v 43.21632 h 64.86886 v -43.21632 z"
       id="path7373" />
    <path
       transform="matrix(0.26458333,0,0,0.26458333,371.01979,53.064862)"
       style="fill:none;stroke:#000000;stroke-width:0.432459px;stroke-linecap:round;stroke-linejoin:round;stroke-miterlimit:4;stroke-dasharray:none;stroke-opacity:1"
       clip-path="url(#clipEmfPath1-22)"
       d="m 790.6794,338.09564 h 64.86886 V 294.87932 H 790.6794 Z"
       id="path7375" />
    <g
       transform="matrix(0.26458333,0,0,0.26458333,371.01979,53.064862)"
       clip-path="url(#clipEmfPath1-22)"
       id="g7385">
      <text
         xml:space="preserve"
         style="font-style:normal;font-variant:normal;font-weight:400;font-size:15.4375px;line-height:125%;font-family:Helvetica;text-align:start;letter-spacing:0px;word-spacing:0px;text-anchor:start;fill:#000000;fill-opacity:1;stroke:none"
         transform="translate(808.98683,320.95317)"
         x="0"
         y="0"
         id="text7383"><tspan
           sodipodi:role="line"
           x="0"
           y="0"
           id="tspan7381"><tspan
             dx="0"
             dy="0"
             style="font-style:normal;font-variant:normal;font-weight:400;font-size:15.4375px;font-family:Helvetica;fill:#000000"
             id="tspan7377">:</tspan><tspan
             dx="0"
             dy="0"
             style="font-style:normal;font-variant:normal;font-weight:400;font-size:15.4375px;font-family:Helvetica;fill:#000000"
             id="tspan7379">Bar</tspan></tspan></text>
    </g>
    <path
       transform="matrix(0.26458333,0,0,0.26458333,371.01979,53.064862)"
       style="fill:none;stroke:#000000;stroke-width:0.432459px;stroke-linecap:round;stroke-linejoin:round;stroke-miterlimit:4;stroke-dasharray:none;stroke-opacity:1"
       clip-path="url(#clipEmfPath1-22)"
       d="M 631.6786,316.48748 H 789.67033"
       id="path7387" />
    <g
       transform="matrix(0.26458333,0,0,0.26458333,371.01979,53.064862)"
       clip-path="url(#clipEmfPath1-22)"
       id="g7395">
      <text
         xml:space="preserve"
         style="font-style:normal;font-variant:normal;font-weight:400;font-size:15.4375px;line-height:125%;font-family:Helvetica;text-align:start;letter-spacing:0px;word-spacing:0px;text-anchor:start;fill:#000000;fill-opacity:1;stroke:none"
         transform="translate(692.65533,304.0988)"
         x="0"
         y="0"
         id="text7393"><tspan
           sodipodi:role="line"
           x="0"
           y="0"
           id="tspan7391"><tspan
             dx="0"
             dy="0"
             style="font-style:normal;font-variant:normal;font-weight:400;font-size:15.4375px;font-family:Helvetica;fill:#000000"
             id="tspan7389">doX</tspan></tspan></text>
    </g>
    <path
       transform="matrix(0.26458333,0,0,0.26458333,371.01979,53.064862)"
       style="fill:none;stroke:#000000;stroke-width:0.432459px;stroke-linecap:round;stroke-linejoin:round;stroke-miterlimit:4;stroke-dasharray:none;stroke-opacity:1"
       clip-path="url(#clipEmfPath1-22)"
       d="m 725.81053,299.20095 h 17.01006"
       id="path7397" />
    <path
       transform="matrix(0.26458333,0,0,0.26458333,371.01979,53.064862)"
       style="fill:#000000;fill-opacity:1;fill-rule:evenodd;stroke:none"
       clip-path="url(#clipEmfPath1-22)"
       d="m 742.09983,302.37015 9.65825,-3.1692 -9.65825,-3.31325 z"
       id="path7399" />
    <path
       transform="matrix(0.26458333,0,0,0.26458333,371.01979,53.064862)"
       style="fill:none;stroke:#000000;stroke-width:0.432459px;stroke-linecap:round;stroke-linejoin:round;stroke-miterlimit:4;stroke-dasharray:none;stroke-opacity:1"
       clip-path="url(#clipEmfPath1-22)"
       d="m 632.83182,246.6211 v 17.14248"
       id="path7401" />
    <path
       transform="matrix(0.26458333,0,0,0.26458333,371.01979,53.064862)"
       style="fill:#000000;fill-opacity:1;fill-rule:evenodd;stroke:none"
       clip-path="url(#clipEmfPath1-22)"
       d="m 629.5163,262.89925 3.31552,9.65164 3.17137,-9.65164 z"
       id="path7403" />
  </g>
</svg>
