<?xml version="1.0" encoding="UTF-8" standalone="no"?>
<svg
   xmlns:dc="http://purl.org/dc/elements/1.1/"
   xmlns:cc="http://creativecommons.org/ns#"
   xmlns:rdf="http://www.w3.org/1999/02/22-rdf-syntax-ns#"
   xmlns:svg="http://www.w3.org/2000/svg"
   xmlns="http://www.w3.org/2000/svg"
   xmlns:sodipodi="http://sodipodi.sourceforge.net/DTD/sodipodi-0.dtd"
   xmlns:inkscape="http://www.inkscape.org/namespaces/inkscape"
   sodipodi:docname="Fig.A15.24.svg"
   inkscape:version="1.0 (4035a4fb49, 2020-05-01)"
   id="svg8"
   version="1.1"
   viewBox="0 0 226.62823 80.343385"
   height="80.343384mm"
   width="226.62823mm">
  <defs
     id="defs2">
    <clipPath
       clipPathUnits="userSpaceOnUse"
       id="clipEmfPath1">
      <path
         d="M 0,0 H 863.47668 V 389.36402 H 0 Z"
         id="path833" />
    </clipPath>
    <pattern
       id="EMFhbasepattern"
       patternUnits="userSpaceOnUse"
       width="6"
       height="6"
       x="0"
       y="0" />
    <clipPath
       clipPathUnits="userSpaceOnUse"
       id="clipEmfPath1-6">
      <path
         d="M 0,0 H 863.47668 V 346.35009 H 0 Z"
         id="path974" />
    </clipPath>
    <pattern
       id="EMFhbasepattern-7"
       patternUnits="userSpaceOnUse"
       width="6"
       height="6"
       x="0"
       y="0" />
    <clipPath
       clipPathUnits="userSpaceOnUse"
       id="clipEmfPath1-8">
      <path
         d="M 0,0 H 863.47668 V 552.14537 H 0 Z"
         id="path1103" />
    </clipPath>
    <pattern
       id="EMFhbasepattern-8"
       patternUnits="userSpaceOnUse"
       width="6"
       height="6"
       x="0"
       y="0" />
    <clipPath
       clipPathUnits="userSpaceOnUse"
       id="clipEmfPath1-82">
      <path
         d="M 0,0 H 863.47668 V 374.81284 H 0 Z"
         id="path1499" />
    </clipPath>
    <pattern
       id="EMFhbasepattern-9"
       patternUnits="userSpaceOnUse"
       width="6"
       height="6"
       x="0"
       y="0" />
    <clipPath
       clipPathUnits="userSpaceOnUse"
       id="clipEmfPath1-64">
      <path
         d="M 0,0 H 743.54936 V 531.99758 H 0 Z"
         id="path1664" />
    </clipPath>
    <pattern
       id="EMFhbasepattern-85"
       patternUnits="userSpaceOnUse"
       width="6"
       height="6"
       x="0"
       y="0" />
    <clipPath
       clipPathUnits="userSpaceOnUse"
       id="clipEmfPath1-1">
      <path
         d="M 0,0 H 863.47668 V 317.88734 H 0 Z"
         id="path1754" />
    </clipPath>
    <pattern
       id="EMFhbasepattern-89"
       patternUnits="userSpaceOnUse"
       width="6"
       height="6"
       x="0"
       y="0" />
    <clipPath
       clipPathUnits="userSpaceOnUse"
       id="clipEmfPath1-86">
      <path
         d="M 0,0 H 863.47668 V 295.1811 H 0 Z"
         id="path1961" />
    </clipPath>
    <pattern
       id="EMFhbasepattern-1"
       patternUnits="userSpaceOnUse"
       width="6"
       height="6"
       x="0"
       y="0" />
    <clipPath
       clipPathUnits="userSpaceOnUse"
       id="clipEmfPath1-0">
      <path
         d="M 0,0 H 863.47668 V 320.28589 H 0 Z"
         id="path2372" />
    </clipPath>
    <pattern
       id="EMFhbasepattern-3"
       patternUnits="userSpaceOnUse"
       width="6"
       height="6"
       x="0"
       y="0" />
    <clipPath
       clipPathUnits="userSpaceOnUse"
       id="clipEmfPath1-2">
      <path
         d="M 0,0 H 863.47668 V 430.61902 H 0 Z"
         id="path2540" />
    </clipPath>
    <pattern
       id="EMFhbasepattern-5"
       patternUnits="userSpaceOnUse"
       width="6"
       height="6"
       x="0"
       y="0" />
    <clipPath
       clipPathUnits="userSpaceOnUse"
       id="clipEmfPath1-7">
      <path
         d="M 0,0 H 863.47668 V 356.58389 H 0 Z"
         id="path2978" />
    </clipPath>
    <pattern
       id="EMFhbasepattern-0"
       patternUnits="userSpaceOnUse"
       width="6"
       height="6"
       x="0"
       y="0" />
    <clipPath
       clipPathUnits="userSpaceOnUse"
       id="clipEmfPath1-67">
      <path
         d="M 0,0 H 863.47668 V 272.15506 H 0 Z"
         id="path3428" />
    </clipPath>
    <pattern
       id="EMFhbasepattern-34"
       patternUnits="userSpaceOnUse"
       width="6"
       height="6"
       x="0"
       y="0" />
    <clipPath
       clipPathUnits="userSpaceOnUse"
       id="clipEmfPath1-9">
      <path
         d="M 0,0 H 863.47668 V 310.21199 H 0 Z"
         id="path3602" />
    </clipPath>
    <pattern
       id="EMFhbasepattern-03"
       patternUnits="userSpaceOnUse"
       width="6"
       height="6"
       x="0"
       y="0" />
  </defs>
  <sodipodi:namedview
     inkscape:window-maximized="1"
     inkscape:window-y="-8"
     inkscape:window-x="1272"
     inkscape:window-height="1017"
     inkscape:window-width="1920"
     fit-margin-bottom="0.1"
     fit-margin-right="0"
     fit-margin-left="0"
     fit-margin-top="0"
     showgrid="false"
     inkscape:document-rotation="0"
     inkscape:current-layer="layer1"
     inkscape:document-units="mm"
     inkscape:cy="293.12792"
     inkscape:cx="557.38779"
     inkscape:zoom="0.98994949"
     inkscape:pageshadow="2"
     inkscape:pageopacity="0.0"
     borderopacity="1.0"
     bordercolor="#666666"
     pagecolor="#ffffff"
     id="base" />
  <metadata
     id="metadata5">
    <rdf:RDF>
      <cc:Work
         rdf:about="">
        <dc:format>image/svg+xml</dc:format>
        <dc:type
           rdf:resource="http://purl.org/dc/dcmitype/StillImage" />
        <dc:title></dc:title>
      </cc:Work>
    </rdf:RDF>
  </metadata>
  <g
     transform="translate(-172.79128,-96.539837)"
     id="layer1"
     inkscape:groupmode="layer"
     inkscape:label="Layer 1">
    <path
       transform="matrix(0.26458333,0,0,0.26458333,171.90159,95.650032)"
       style="fill:none;stroke:#000000;stroke-width:0.611383px;stroke-linecap:round;stroke-linejoin:round;stroke-miterlimit:4;stroke-dasharray:none;stroke-opacity:1"
       clip-path="url(#clipEmfPath1-9)"
       d="M 284.90451,132.07449 H 700.64499"
       id="path3608" />
    <g
       transform="matrix(0.26458333,0,0,0.26458333,171.90159,95.650032)"
       clip-path="url(#clipEmfPath1-9)"
       id="g3658">
      <text
         xml:space="preserve"
         style="font-style:normal;font-variant:normal;font-weight:400;font-size:21.8125px;line-height:119.605%;font-family:Helvetica;text-align:start;letter-spacing:0px;word-spacing:0px;text-anchor:start;fill:#000000;fill-opacity:1;stroke:none"
         transform="translate(449.36655,63.183783)"
         x="0"
         y="0"
         id="text3640"><tspan
           sodipodi:role="line"
           x="0"
           y="0"
           id="tspan3618"><tspan
             dx="0"
             dy="0"
             style="font-style:normal;font-variant:normal;font-weight:400;font-size:21.8125px;font-family:Helvetica;fill:#000000"
             id="tspan3610">1</tspan><tspan
             dx="0"
             dy="0"
             style="font-style:normal;font-variant:normal;font-weight:400;font-size:21.8125px;font-family:Helvetica;fill:#000000"
             id="tspan3612">: </tspan><tspan
             dx="0"
             dy="0"
             style="font-style:normal;font-variant:normal;font-weight:400;font-size:21.8125px;font-family:Helvetica;fill:#000000"
             id="tspan3614">msg</tspan><tspan
             dx="0"
             dy="0"
             style="font-style:normal;font-variant:normal;font-weight:400;font-size:21.8125px;font-family:Helvetica;fill:#000000"
             id="tspan3616">2</tspan></tspan><tspan
           sodipodi:role="line"
           x="0"
           y="26.088842"
           id="tspan3628"><tspan
             dx="0"
             dy="0"
             style="font-style:normal;font-variant:normal;font-weight:400;font-size:21.8125px;font-family:Helvetica;fill:#000000"
             id="tspan3620">2</tspan><tspan
             dx="0"
             dy="0"
             style="font-style:normal;font-variant:normal;font-weight:400;font-size:21.8125px;font-family:Helvetica;fill:#000000"
             id="tspan3622">: </tspan><tspan
             dx="0"
             dy="0"
             style="font-style:normal;font-variant:normal;font-weight:400;font-size:21.8125px;font-family:Helvetica;fill:#000000"
             id="tspan3624">msg</tspan><tspan
             dx="0"
             dy="0"
             style="font-style:normal;font-variant:normal;font-weight:400;font-size:21.8125px;font-family:Helvetica;fill:#000000"
             id="tspan3626">3</tspan></tspan><tspan
           sodipodi:role="line"
           x="0"
           y="52.177685"
           id="tspan3638"><tspan
             dx="0"
             dy="0"
             style="font-style:normal;font-variant:normal;font-weight:400;font-size:21.8125px;font-family:Helvetica;fill:#000000"
             id="tspan3630">3</tspan><tspan
             dx="0"
             dy="0"
             style="font-style:normal;font-variant:normal;font-weight:400;font-size:21.8125px;font-family:Helvetica;fill:#000000"
             id="tspan3632">: </tspan><tspan
             dx="0"
             dy="0"
             style="font-style:normal;font-variant:normal;font-weight:400;font-size:21.8125px;font-family:Helvetica;fill:#000000"
             id="tspan3634">msg</tspan><tspan
             dx="0"
             dy="0"
             style="font-style:normal;font-variant:normal;font-weight:400;font-size:21.8125px;font-family:Helvetica;fill:#000000"
             id="tspan3636">4</tspan></tspan></text>
      <text
         xml:space="preserve"
         style="font-style:normal;font-variant:normal;font-weight:400;font-size:21.8125px;line-height:125%;font-family:Helvetica;text-align:start;letter-spacing:0px;word-spacing:0px;text-anchor:start;fill:#000000;fill-opacity:1;stroke:none"
         transform="translate(449.36655,63.183783)"
         x="0"
         y="104.35515"
         id="text3656"><tspan
           sodipodi:role="line"
           x="0"
           y="104.35515"
           id="tspan3654"><tspan
             dx="0"
             dy="0"
             style="font-style:normal;font-variant:normal;font-weight:400;font-size:21.8125px;font-family:Helvetica;fill:#000000"
             id="tspan3642">3</tspan><tspan
             dx="0"
             dy="0"
             style="font-style:normal;font-variant:normal;font-weight:400;font-size:21.8125px;font-family:Helvetica;fill:#000000"
             id="tspan3644">.</tspan><tspan
             dx="0"
             dy="0"
             style="font-style:normal;font-variant:normal;font-weight:400;font-size:21.8125px;font-family:Helvetica;fill:#000000"
             id="tspan3646">1</tspan><tspan
             dx="0"
             dy="0"
             style="font-style:normal;font-variant:normal;font-weight:400;font-size:21.8125px;font-family:Helvetica;fill:#000000"
             id="tspan3648">: </tspan><tspan
             dx="0"
             dy="0"
             style="font-style:normal;font-variant:normal;font-weight:400;font-size:21.8125px;font-family:Helvetica;fill:#000000"
             id="tspan3650">msg</tspan><tspan
             dx="0"
             dy="0"
             style="font-style:normal;font-variant:normal;font-weight:400;font-size:21.8125px;font-family:Helvetica;fill:#000000"
             id="tspan3652">5</tspan></tspan></text>
    </g>
    <path
       transform="matrix(0.26458333,0,0,0.26458333,171.90159,95.650032)"
       style="fill:#ffffff;fill-opacity:1;fill-rule:evenodd;stroke:none"
       clip-path="url(#clipEmfPath1-9)"
       d="m 125.94491,101.50169 v 61.1456 h 158.9596 v -61.1456 z"
       id="path3660" />
    <path
       transform="matrix(0.26458333,0,0,0.26458333,171.90159,95.650032)"
       style="fill:none;stroke:#000000;stroke-width:0.611383px;stroke-linecap:round;stroke-linejoin:round;stroke-miterlimit:4;stroke-dasharray:none;stroke-opacity:1"
       clip-path="url(#clipEmfPath1-9)"
       d="m 125.94491,162.64729 h 158.9596 v -61.1456 h -158.9596 z"
       id="path3662" />
    <g
       transform="matrix(0.26458333,0,0,0.26458333,171.90159,95.650032)"
       clip-path="url(#clipEmfPath1-9)"
       id="g3672">
      <text
         xml:space="preserve"
         style="font-style:normal;font-variant:normal;font-weight:400;font-size:21.8125px;line-height:125%;font-family:Helvetica;text-align:start;letter-spacing:0px;word-spacing:0px;text-anchor:start;fill:#000000;fill-opacity:1;stroke:none"
         transform="translate(158.9596,138.59668)"
         x="0"
         y="0"
         id="text3670"><tspan
           sodipodi:role="line"
           x="0"
           y="0"
           id="tspan3668"><tspan
             dx="0"
             dy="0"
             style="font-style:normal;font-variant:normal;font-weight:400;font-size:21.8125px;font-family:Helvetica;fill:#000000"
             id="tspan3664">: </tspan><tspan
             dx="0"
             dy="0"
             style="font-style:normal;font-variant:normal;font-weight:400;font-size:21.8125px;font-family:Helvetica;fill:#000000"
             id="tspan3666">Register</tspan></tspan></text>
    </g>
    <path
       transform="matrix(0.26458333,0,0,0.26458333,171.90159,95.650032)"
       style="fill:#ffffff;fill-opacity:1;fill-rule:evenodd;stroke:none"
       clip-path="url(#clipEmfPath1-9)"
       d="m 700.64499,101.50169 v 61.1456 h 158.9596 v -61.1456 z"
       id="path3674" />
    <path
       transform="matrix(0.26458333,0,0,0.26458333,171.90159,95.650032)"
       style="fill:none;stroke:#000000;stroke-width:0.611383px;stroke-linecap:round;stroke-linejoin:round;stroke-miterlimit:4;stroke-dasharray:none;stroke-opacity:1"
       clip-path="url(#clipEmfPath1-9)"
       d="m 700.64499,162.64729 h 158.9596 v -61.1456 h -158.9596 z"
       id="path3676" />
    <g
       transform="matrix(0.26458333,0,0,0.26458333,171.90159,95.650032)"
       clip-path="url(#clipEmfPath1-9)"
       id="g3686">
      <text
         xml:space="preserve"
         style="font-style:normal;font-variant:normal;font-weight:400;font-size:21.8125px;line-height:125%;font-family:Helvetica;text-align:start;letter-spacing:0px;word-spacing:0px;text-anchor:start;fill:#000000;fill-opacity:1;stroke:none"
         transform="translate(755.46567,138.59668)"
         x="0"
         y="0"
         id="text3684"><tspan
           sodipodi:role="line"
           x="0"
           y="0"
           id="tspan3682"><tspan
             dx="0"
             dy="0"
             style="font-style:normal;font-variant:normal;font-weight:400;font-size:21.8125px;font-family:Helvetica;fill:#000000"
             id="tspan3678">:</tspan><tspan
             dx="0"
             dy="0"
             style="font-style:normal;font-variant:normal;font-weight:400;font-size:21.8125px;font-family:Helvetica;fill:#000000"
             id="tspan3680">Sale</tspan></tspan></text>
    </g>
    <path
       transform="matrix(0.26458333,0,0,0.26458333,171.90159,95.650032)"
       style="fill:#ffffff;fill-opacity:1;fill-rule:evenodd;stroke:none"
       clip-path="url(#clipEmfPath1-9)"
       d="m 3.6682984,251.3084 v 55.03104 H 419.40878 V 251.3084 Z"
       id="path3688" />
    <path
       transform="matrix(0.26458333,0,0,0.26458333,171.90159,95.650032)"
       style="fill:none;stroke:#000000;stroke-width:0.611383px;stroke-linecap:round;stroke-linejoin:round;stroke-miterlimit:4;stroke-dasharray:none;stroke-opacity:1"
       clip-path="url(#clipEmfPath1-9)"
       d="M 3.6682984,306.33944 H 419.40878 V 251.3084 H 3.6682984 Z"
       id="path3690" />
    <g
       transform="matrix(0.26458333,0,0,0.26458333,171.90159,95.650032)"
       clip-path="url(#clipEmfPath1-9)"
       id="g3698">
      <text
         xml:space="preserve"
         style="font-style:normal;font-variant:normal;font-weight:400;font-size:21.8125px;line-height:125%;font-family:Helvetica;text-align:start;letter-spacing:0px;word-spacing:0px;text-anchor:start;fill:#000000;fill-opacity:1;stroke:none"
         transform="translate(14.673194,285.34612)"
         x="0"
         y="0"
         id="text3696"><tspan
           sodipodi:role="line"
           x="0"
           y="0"
           id="tspan3694"><tspan
             dx="0"
             dy="0"
             style="font-style:normal;font-variant:normal;font-weight:400;font-size:21.8125px;font-family:Helvetica;fill:#000000"
             id="tspan3692">all messages flow on the same link</tspan></tspan></text>
    </g>
    <path
       transform="matrix(0.26458333,0,0,0.26458333,171.90159,95.650032)"
       style="fill:#ffffff;fill-opacity:1;fill-rule:evenodd;stroke:none"
       clip-path="url(#clipEmfPath1-9)"
       d="m 392.10034,251.3084 27.30844,27.51552 V 251.3084 Z"
       id="path3700" />
    <path
       transform="matrix(0.26458333,0,0,0.26458333,171.90159,95.650032)"
       style="fill:none;stroke:#ffffff;stroke-width:0.611383px;stroke-linecap:round;stroke-linejoin:round;stroke-miterlimit:4;stroke-dasharray:none;stroke-opacity:1"
       clip-path="url(#clipEmfPath1-9)"
       d="m 392.10034,251.3084 27.30844,27.51552 V 251.3084 Z"
       id="path3702" />
    <path
       transform="matrix(0.26458333,0,0,0.26458333,171.90159,95.650032)"
       style="fill:#000000;fill-opacity:1;fill-rule:evenodd;stroke:none"
       clip-path="url(#clipEmfPath1-9)"
       d="M 419.40878,278.82392 392.10034,251.3084 v 27.51552 z"
       id="path3704" />
    <path
       transform="matrix(0.26458333,0,0,0.26458333,171.90159,95.650032)"
       style="fill:none;stroke:#000000;stroke-width:0.611383px;stroke-linecap:round;stroke-linejoin:round;stroke-miterlimit:4;stroke-dasharray:none;stroke-opacity:1"
       clip-path="url(#clipEmfPath1-9)"
       d="M 419.40878,278.82392 392.10034,251.3084 v 27.51552 z"
       id="path3706" />
    <path
       transform="matrix(0.26458333,0,0,0.26458333,171.90159,95.650032)"
       style="fill:#000000;fill-opacity:1;fill-rule:nonzero;stroke:#000000;stroke-width:0.203794px;stroke-linecap:round;stroke-linejoin:round;stroke-miterlimit:4;stroke-dasharray:none;stroke-opacity:1"
       clip-path="url(#clipEmfPath1-9)"
       d="m 419.40878,278.6201 v 0 h 0.2038 0.20379 v 0.20382 0 0.20382 l -0.20379,0.20382 v 0 h -0.2038 v 0 0 l -0.20379,-0.20382 v 0 -0.20382 0 -0.20382 z m 3.26071,0 v 0 l 0.2038,0.20382 v 0 l 0.20379,0.20382 v 0.20382 h -0.20379 l -0.2038,0.20382 v 0 0 l -0.20379,-0.20382 v 0 -0.20382 -0.20382 0 z m 3.26071,0.20382 v 0 h 0.2038 v 0 l 0.20379,0.20382 v 0 l -0.20379,0.20382 v 0.20382 h -0.2038 v 0 l -0.20379,-0.20382 v 0 -0.20382 0 -0.20382 z m 3.26071,0 v 0 h 0.2038 v 0 h 0.20379 v 0.20382 0.20382 0 l -0.20379,0.20382 h -0.2038 v 0 0 l -0.20379,-0.20382 v 0 -0.20382 0 -0.20382 z m 3.26071,-0.20382 v 0 h 0.20379 v 0 l 0.2038,0.20382 v 0 0.20382 0.20382 h -0.40759 v 0 h -0.20379 v -0.20382 -0.40764 z m 3.26071,-0.20382 v 0 h 0.20379 v 0 l 0.2038,0.20382 -0.2038,0.20382 -0.20379,0.20382 v 0 0 h -0.20379 v -0.20382 -0.20382 -0.20382 z m 3.26071,-0.40763 v 0 h 0.20379 v 0 l 0.2038,0.20381 v 0.20382 0 l -0.2038,0.20382 v 0 h -0.20379 v 0 0 h -0.20379 v -0.20382 -0.20382 z m 3.26071,-0.40764 v 0 h 0.20379 v 0.20382 h 0.2038 v 0.20382 l -0.2038,0.20381 v 0 h -0.20379 v 0 h -0.20379 v -0.20381 l -0.2038,-0.20382 h 0.2038 v -0.20382 z m 3.26071,-0.40764 v 0 h 0.20379 v 0 0.20382 0 0.20382 0 l -0.20379,0.20382 v 0 0 l -0.2038,-0.20382 h -0.20379 v -0.20382 l 0.20379,-0.20382 z m 3.05691,-0.61146 v 0 l 0.2038,-0.20381 v 0.20381 l 0.20379,0.20382 v 0.20382 l -0.20379,0.20382 v 0 h -0.2038 v 0 l -0.20379,-0.20382 v -0.20382 -0.20382 z m 3.26071,-0.81527 v 0 0 h 0.2038 l 0.20379,0.20382 v 0.20382 0.20382 h -0.20379 v 0 h -0.2038 -0.20379 v -0.20382 -0.20382 0 z m 3.05692,-0.81527 v 0 h 0.20379 v 0 l 0.2038,0.20381 v 0 0.20382 0 l -0.2038,0.20382 v 0 H 454.869 v 0 l -0.20379,-0.20382 v -0.20382 0 z m 3.26071,-0.81528 v 0 0 h 0.20379 l 0.2038,0.20382 v 0 l -0.2038,0.20382 v 0.20382 0 h -0.20379 -0.2038 v -0.20382 0 -0.20382 z m 3.05691,-1.01909 v 0 h 0.2038 v 0 l 0.20379,0.20382 v 0 0.20381 l -0.20379,0.20382 v 0 0 h -0.2038 v 0 l -0.20379,-0.20382 v -0.20381 z m 3.05692,-1.0191 v 0 0 h 0.20379 0.2038 v 0.20382 0 0.20382 l -0.2038,0.20382 v 0 h -0.20379 l -0.20379,-0.20382 v -0.40764 0 z m 3.05692,-1.22291 v 0 0 h 0.20379 l 0.20379,0.20382 v 0 0.20382 l -0.20379,0.20382 v 0 h -0.20379 v 0 l -0.2038,-0.20382 v 0 -0.20382 0 z m 2.85312,-1.22291 v 0 h 0.40758 0.2038 v 0.20382 0.20382 l -0.2038,0.20382 v 0 h -0.20379 v 0 l -0.20379,-0.20382 v -0.20382 z m 3.05691,-1.42673 v 0 h 0.2038 l 0.20379,0.20382 v 0 0.20382 l -0.20379,0.20382 v 0 h -0.2038 l -0.20379,-0.20382 v 0 -0.20382 z m 2.85312,-1.42673 v 0 h 0.2038 v 0 l 0.20379,0.20382 0.2038,0.20382 -0.2038,0.20382 v 0 h -0.20379 v 0 l -0.2038,-0.20382 -0.20379,-0.20382 z m 2.85312,-1.63055 v 0 h 0.2038 l 0.40759,0.20382 v 0.20382 l -0.2038,0.20382 v 0 h -0.20379 v 0 h -0.2038 v -0.20382 -0.20382 z m 2.85312,-1.42673 v 0 l 0.2038,-0.20382 0.20379,0.20382 0.2038,0.20382 -0.2038,0.20382 v 0 l -0.20379,0.20382 v -0.20382 h -0.2038 l -0.20379,-0.20382 v 0 z m 2.85313,-1.83437 v 0 h 0.20379 l 0.20379,0.20382 v 0 0.20382 0.20382 0 h -0.20379 -0.20379 -0.2038 v -0.20382 -0.20382 z m 2.64932,-1.63055 v 0 l 0.2038,-0.20382 0.20379,0.20382 0.2038,0.20382 -0.2038,0.20382 v 0 h -0.20379 -0.2038 l -0.20379,-0.20382 z m 2.64933,-1.83437 v 0 l 0.20379,-0.20381 v 0 h 0.2038 v 0.20381 h 0.20379 v 0.20382 0 l -0.20379,0.20382 v 0 h -0.2038 -0.20379 v -0.20382 z m 2.64933,-2.03818 v 0 h 0.20379 0.20379 v 0 l 0.2038,0.20382 v 0 l -0.2038,0.40763 v 0 h -0.20379 -0.20379 v -0.20381 0 l -0.2038,-0.20382 z m 2.64932,-2.03819 v 0 0 h 0.2038 0.20379 v 0.20382 0 0.40764 0 h -0.20379 l -0.2038,-0.20382 h -0.20379 v -0.20382 z m 2.44553,-2.03819 v 0 l 0.2038,-0.20381 0.20379,0.20381 v 0.20382 0.20382 0 l -0.20379,0.20382 -0.2038,-0.20382 -0.20379,-0.20382 z m 2.44554,-2.242 v 0 h 0.20379 0.2038 v 0.20382 0.40764 0 h -0.2038 -0.20379 l -0.2038,-0.40764 z m 2.24173,-2.24201 v 0 h 0.40759 0.2038 v 0.40764 0.20382 0 h -0.2038 -0.20379 l -0.2038,-0.20382 z m 2.44554,-2.242 v 0 h 0.20379 0.2038 v 0.20382 0.20382 0 l -0.2038,0.20382 -0.20379,-0.20382 -0.2038,-0.20382 z m 2.24173,-2.24201 v 0 -0.20381 h 0.2038 0.20379 v 0.20381 0.40764 0 0 h -0.20379 -0.2038 l -0.20379,-0.20382 v 0 -0.20382 z m 2.03795,-2.44582 v 0 l 0.20379,-0.20382 h 0.40759 v 0.20382 0.40764 0 h -0.20379 -0.2038 l -0.20379,-0.20382 v 0 z m 2.24174,-2.64964 v 0 h 0.20379 0.20379 v 0.20382 0.20381 0 0 l -0.20379,0.20382 h -0.20379 l -0.2038,-0.20382 z m 1.83415,-2.44583 v 0 l 0.20379,-0.20381 h 0.40759 v 0.20381 0.40764 0 h -0.2038 -0.20379 v 0 l -0.20379,-0.20382 z m 2.03794,-2.64964 v 0 l 0.20379,-0.20382 0.2038,0.20382 h 0.20379 v 0.20382 l -0.20379,0.20382 v 0 h -0.2038 v 0 h -0.20379 v -0.20382 z m 1.83415,-2.64964 v 0 l 0.20379,-0.20382 h 0.2038 v 0 l 0.20379,0.20382 v 0.20382 0.20382 0 h -0.20379 -0.2038 -0.20379 v -0.20382 z m 1.83415,-2.85346 v 0 h 0.20379 v 0 h 0.2038 l 0.20379,0.20382 -0.20379,0.20381 v 0 l -0.2038,0.20382 v 0 h -0.20379 l -0.2038,-0.20382 v -0.20381 z m 1.63035,-2.64965 v 0 l 0.2038,-0.20381 h 0.20379 l 0.20379,0.20381 v 0.20382 0 0 l -0.20379,0.20382 h -0.20379 l -0.2038,-0.20382 z m 1.63036,-2.85346 v 0 l 0.20379,-0.20381 h 0.2038 l 0.20379,0.20381 v 0.20382 0 0 l -0.20379,0.20382 h -0.2038 v 0 l -0.20379,-0.20382 z m 1.42656,-2.85346 v 0 l 0.20379,-0.20382 h 0.40759 v 0.20382 0.20382 0 l -0.20379,0.20382 h -0.2038 l -0.20379,-0.20382 z m 1.42656,-2.85346 v 0 l 0.20379,-0.20382 h 0.2038 l 0.20379,0.20382 v 0 0.20382 0 0 l -0.20379,0.20382 v 0 h -0.2038 l -0.20379,-0.20382 z m 1.42656,-3.05728 v 0 -0.20382 h 0.20379 v 0 h 0.2038 v 0 l 0.20379,0.20382 v 0.20382 0 0 l -0.20379,0.20382 v 0 h -0.2038 l -0.20379,-0.20382 v 0 z m 1.22276,-3.05728 v 0 l 0.2038,-0.20382 h 0.20379 l 0.2038,0.20382 v 0.20382 0 0 l -0.2038,0.20382 h -0.20379 -0.2038 v -0.20382 z m 1.22277,-3.05728 v 0 h 0.20379 v -0.20382 h 0.2038 l 0.20379,0.20382 v 0.20382 0 l -0.20379,0.20382 -0.2038,0.20382 v -0.20382 h -0.20379 z m 1.01897,-3.05728 v 0 l 0.2038,-0.20382 v 0 h 0.20379 l 0.2038,0.20382 v 0 0.20382 0 0 0.20382 h -0.2038 v 0 h -0.20379 v 0 h -0.2038 v -0.20382 z"
       id="path3708" />
    <path
       transform="matrix(0.26458333,0,0,0.26458333,171.90159,95.650032)"
       style="fill:none;stroke:#000000;stroke-width:0.611383px;stroke-linecap:round;stroke-linejoin:round;stroke-miterlimit:4;stroke-dasharray:none;stroke-opacity:1"
       clip-path="url(#clipEmfPath1-9)"
       d="m 531.08809,201.78047 -0.61138,-0.20382 -0.40759,-0.20382 -1.01898,-0.61145 -0.81517,-0.81528 -0.61139,-0.81527 -0.40758,-1.0191 -0.2038,-0.61145 v -0.40764 -0.61146 -0.61145 -0.40764 l 0.2038,-0.61146 0.20379,-0.61145 0.20379,-0.40764 0.61139,-1.01909 0.61138,-0.81528 1.01897,-0.61145 1.01897,-0.40764 0.40759,-0.20382 h 0.61139 0.40758 0.61139 0.61138 l 0.61138,0.20382 v 0 l 0.40759,0.20382 0.61139,0.20382 0.81517,0.61145 0.81518,0.61146 0.61138,1.01909 0.61139,1.0191 v 0.40763 l 0.20379,0.61146 v 0.40764 0.61145 0.61146 l -0.20379,0.61145 -0.2038,0.40764 -0.20379,0.61146 -0.61139,0.81527 -0.81517,0.81528 -0.81518,0.61145 -1.01897,0.61146 h -0.61139 l -0.40758,0.20382 h -0.61139 -0.61138 -0.40759 l -0.61138,-0.20382"
       id="path3710" />
    <path
       transform="matrix(0.26458333,0,0,0.26458333,171.90159,95.650032)"
       style="fill:none;stroke:#000000;stroke-width:0.611383px;stroke-linecap:round;stroke-linejoin:round;stroke-miterlimit:4;stroke-dasharray:none;stroke-opacity:1"
       clip-path="url(#clipEmfPath1-9)"
       d="m 602.8237,58.699773 h 24.25153"
       id="path3712" />
    <path
       transform="matrix(0.26458333,0,0,0.26458333,171.90159,95.650032)"
       style="fill:#000000;fill-opacity:1;fill-rule:evenodd;stroke:none"
       clip-path="url(#clipEmfPath1-9)"
       d="m 625.85246,63.387602 13.65423,-4.687829 -13.65423,-4.484011 z"
       id="path3714" />
    <path
       transform="matrix(0.26458333,0,0,0.26458333,171.90159,95.650032)"
       style="fill:none;stroke:#000000;stroke-width:0.611383px;stroke-linecap:round;stroke-linejoin:round;stroke-miterlimit:4;stroke-dasharray:none;stroke-opacity:1"
       clip-path="url(#clipEmfPath1-9)"
       d="m 602.8237,83.158011 h 24.25153"
       id="path3716" />
    <path
       transform="matrix(0.26458333,0,0,0.26458333,171.90159,95.650032)"
       style="fill:#000000;fill-opacity:1;fill-rule:evenodd;stroke:none"
       clip-path="url(#clipEmfPath1-9)"
       d="m 625.85246,87.84584 13.65423,-4.687829 -13.65423,-4.48401 z"
       id="path3718" />
    <path
       transform="matrix(0.26458333,0,0,0.26458333,171.90159,95.650032)"
       style="fill:none;stroke:#000000;stroke-width:0.611383px;stroke-linecap:round;stroke-linejoin:round;stroke-miterlimit:4;stroke-dasharray:none;stroke-opacity:1"
       clip-path="url(#clipEmfPath1-9)"
       d="m 602.8237,107.61625 h 24.25153"
       id="path3720" />
    <path
       transform="matrix(0.26458333,0,0,0.26458333,171.90159,95.650032)"
       style="fill:#000000;fill-opacity:1;fill-rule:evenodd;stroke:none"
       clip-path="url(#clipEmfPath1-9)"
       d="m 625.85246,112.30408 13.65423,-4.68783 -13.65423,-4.48401 z"
       id="path3722" />
    <path
       transform="matrix(0.26458333,0,0,0.26458333,171.90159,95.650032)"
       style="fill:none;stroke:#000000;stroke-width:0.611383px;stroke-linecap:round;stroke-linejoin:round;stroke-miterlimit:4;stroke-dasharray:none;stroke-opacity:1"
       clip-path="url(#clipEmfPath1-9)"
       d="M 431.63644,156.53273 H 407.58871"
       id="path3724" />
    <path
       transform="matrix(0.26458333,0,0,0.26458333,171.90159,95.650032)"
       style="fill:#000000;fill-opacity:1;fill-rule:evenodd;stroke:none"
       clip-path="url(#clipEmfPath1-9)"
       d="m 408.60768,152.04872 -13.65422,4.48401 13.65422,4.68783 z"
       id="path3726" />
    <path
       transform="matrix(0.26458333,0,0,0.26458333,171.90159,95.650032)"
       style="fill:none;stroke:#000000;stroke-width:0.611383px;stroke-linecap:round;stroke-linejoin:round;stroke-miterlimit:4;stroke-dasharray:none;stroke-opacity:1"
       clip-path="url(#clipEmfPath1-9)"
       d="M 205.42471,3.6687358 V 101.50169"
       id="path3728" />
    <g
       transform="matrix(0.26458333,0,0,0.26458333,171.90159,95.650032)"
       clip-path="url(#clipEmfPath1-9)"
       id="g3738">
      <text
         xml:space="preserve"
         style="font-style:normal;font-variant:normal;font-weight:400;font-size:21.8125px;line-height:125%;font-family:Helvetica;text-align:start;letter-spacing:0px;word-spacing:0px;text-anchor:start;fill:#000000;fill-opacity:1;stroke:none"
         transform="translate(244.75702,48.305021)"
         x="0"
         y="0"
         id="text3736"><tspan
           sodipodi:role="line"
           x="0"
           y="0"
           id="tspan3734"><tspan
             dx="0"
             dy="0"
             style="font-style:normal;font-variant:normal;font-weight:400;font-size:21.8125px;font-family:Helvetica;fill:#000000"
             id="tspan3730">msg</tspan><tspan
             dx="0"
             dy="0"
             style="font-style:normal;font-variant:normal;font-weight:400;font-size:21.8125px;font-family:Helvetica;fill:#000000"
             id="tspan3732">1</tspan></tspan></text>
    </g>
    <path
       transform="matrix(0.26458333,0,0,0.26458333,171.90159,95.650032)"
       style="fill:none;stroke:#000000;stroke-width:0.611383px;stroke-linecap:round;stroke-linejoin:round;stroke-miterlimit:4;stroke-dasharray:none;stroke-opacity:1"
       clip-path="url(#clipEmfPath1-9)"
       d="M 320.36473,26.496425 V 50.547026"
       id="path3740" />
    <path
       transform="matrix(0.26458333,0,0,0.26458333,171.90159,95.650032)"
       style="fill:#000000;fill-opacity:1;fill-rule:evenodd;stroke:none"
       clip-path="url(#clipEmfPath1-9)"
       d="m 315.67746,49.324114 4.68727,13.859669 4.48347,-13.859669 z"
       id="path3742" />
  </g>
</svg>
