<?xml version="1.0" encoding="UTF-8" standalone="no"?>
<svg
   xmlns:dc="http://purl.org/dc/elements/1.1/"
   xmlns:cc="http://creativecommons.org/ns#"
   xmlns:rdf="http://www.w3.org/1999/02/22-rdf-syntax-ns#"
   xmlns:svg="http://www.w3.org/2000/svg"
   xmlns="http://www.w3.org/2000/svg"
   xmlns:sodipodi="http://sodipodi.sourceforge.net/DTD/sodipodi-0.dtd"
   xmlns:inkscape="http://www.inkscape.org/namespaces/inkscape"
   sodipodi:docname="Fig.A15.18.svg"
   inkscape:version="1.0 (4035a4fb49, 2020-05-01)"
   id="svg8"
   version="1.1"
   viewBox="0 0 226.50346 105.74431"
   height="105.74431mm"
   width="226.50346mm">
  <defs
     id="defs2">
    <clipPath
       clipPathUnits="userSpaceOnUse"
       id="clipEmfPath1">
      <path
         d="M 0,0 H 863.47668 V 389.36402 H 0 Z"
         id="path833" />
    </clipPath>
    <pattern
       id="EMFhbasepattern"
       patternUnits="userSpaceOnUse"
       width="6"
       height="6"
       x="0"
       y="0" />
    <clipPath
       clipPathUnits="userSpaceOnUse"
       id="clipEmfPath1-6">
      <path
         d="M 0,0 H 863.47668 V 346.35009 H 0 Z"
         id="path974" />
    </clipPath>
    <pattern
       id="EMFhbasepattern-7"
       patternUnits="userSpaceOnUse"
       width="6"
       height="6"
       x="0"
       y="0" />
    <clipPath
       clipPathUnits="userSpaceOnUse"
       id="clipEmfPath1-8">
      <path
         d="M 0,0 H 863.47668 V 552.14537 H 0 Z"
         id="path1103" />
    </clipPath>
    <pattern
       id="EMFhbasepattern-8"
       patternUnits="userSpaceOnUse"
       width="6"
       height="6"
       x="0"
       y="0" />
    <clipPath
       clipPathUnits="userSpaceOnUse"
       id="clipEmfPath1-82">
      <path
         d="M 0,0 H 863.47668 V 374.81284 H 0 Z"
         id="path1499" />
    </clipPath>
    <pattern
       id="EMFhbasepattern-9"
       patternUnits="userSpaceOnUse"
       width="6"
       height="6"
       x="0"
       y="0" />
    <clipPath
       clipPathUnits="userSpaceOnUse"
       id="clipEmfPath1-64">
      <path
         d="M 0,0 H 743.54936 V 531.99758 H 0 Z"
         id="path1664" />
    </clipPath>
    <pattern
       id="EMFhbasepattern-85"
       patternUnits="userSpaceOnUse"
       width="6"
       height="6"
       x="0"
       y="0" />
    <clipPath
       clipPathUnits="userSpaceOnUse"
       id="clipEmfPath1-1">
      <path
         d="M 0,0 H 863.47668 V 317.88734 H 0 Z"
         id="path1754" />
    </clipPath>
    <pattern
       id="EMFhbasepattern-89"
       patternUnits="userSpaceOnUse"
       width="6"
       height="6"
       x="0"
       y="0" />
    <clipPath
       clipPathUnits="userSpaceOnUse"
       id="clipEmfPath1-86">
      <path
         d="M 0,0 H 863.47668 V 295.1811 H 0 Z"
         id="path1961" />
    </clipPath>
    <pattern
       id="EMFhbasepattern-1"
       patternUnits="userSpaceOnUse"
       width="6"
       height="6"
       x="0"
       y="0" />
    <clipPath
       clipPathUnits="userSpaceOnUse"
       id="clipEmfPath1-0">
      <path
         d="M 0,0 H 863.47668 V 320.28589 H 0 Z"
         id="path2372" />
    </clipPath>
    <pattern
       id="EMFhbasepattern-3"
       patternUnits="userSpaceOnUse"
       width="6"
       height="6"
       x="0"
       y="0" />
    <clipPath
       clipPathUnits="userSpaceOnUse"
       id="clipEmfPath1-2">
      <path
         d="M 0,0 H 863.47668 V 430.61902 H 0 Z"
         id="path2540" />
    </clipPath>
    <pattern
       id="EMFhbasepattern-5"
       patternUnits="userSpaceOnUse"
       width="6"
       height="6"
       x="0"
       y="0" />
  </defs>
  <sodipodi:namedview
     inkscape:window-maximized="1"
     inkscape:window-y="-8"
     inkscape:window-x="1272"
     inkscape:window-height="1017"
     inkscape:window-width="1920"
     fit-margin-bottom="0.1"
     fit-margin-right="0"
     fit-margin-left="0"
     fit-margin-top="0"
     showgrid="false"
     inkscape:document-rotation="0"
     inkscape:current-layer="layer1"
     inkscape:document-units="mm"
     inkscape:cy="443.38485"
     inkscape:cx="604.46272"
     inkscape:zoom="0.98994949"
     inkscape:pageshadow="2"
     inkscape:pageopacity="0.0"
     borderopacity="1.0"
     bordercolor="#666666"
     pagecolor="#ffffff"
     id="base" />
  <metadata
     id="metadata5">
    <rdf:RDF>
      <cc:Work
         rdf:about="">
        <dc:format>image/svg+xml</dc:format>
        <dc:type
           rdf:resource="http://purl.org/dc/dcmitype/StillImage" />
        <dc:title></dc:title>
      </cc:Work>
    </rdf:RDF>
  </metadata>
  <g
     transform="translate(-160.33604,-56.784357)"
     id="layer1"
     inkscape:groupmode="layer"
     inkscape:label="Layer 1">
    <path
       transform="matrix(0.26458333,0,0,0.26458333,159.3858,55.83445)"
       style="fill:none;stroke:#000000;stroke-width:0.652995px;stroke-linecap:round;stroke-linejoin:round;stroke-miterlimit:4;stroke-dasharray:none;stroke-opacity:1"
       clip-path="url(#clipEmfPath1-2)"
       d="M 734.83672,290.70592 H 151.9301"
       id="path2546" />
    <path
       transform="matrix(0.26458333,0,0,0.26458333,159.3858,55.83445)"
       style="fill:#000000;fill-opacity:1;fill-rule:evenodd;stroke:none"
       clip-path="url(#clipEmfPath1-2)"
       d="m 732.44241,300.93285 20.24283,-10.22693 -20.24283,-10.00934 z"
       id="path2548" />
    <g
       transform="matrix(0.26458333,0,0,0.26458333,159.3858,55.83445)"
       clip-path="url(#clipEmfPath1-2)"
       id="g2556">
      <text
         xml:space="preserve"
         style="font-style:normal;font-variant:normal;font-weight:400;font-size:23.3125px;line-height:125%;font-family:Helvetica;text-align:start;letter-spacing:0px;word-spacing:0px;text-anchor:start;fill:#000000;fill-opacity:1;stroke:none"
         transform="translate(406.38038,286.13644)"
         x="0"
         y="0"
         id="text2554"><tspan
           sodipodi:role="line"
           x="0"
           y="0"
           id="tspan2552"><tspan
             dx="0"
             dy="0"
             style="font-style:normal;font-variant:normal;font-weight:400;font-size:23.3125px;font-family:Helvetica;fill:#000000"
             id="tspan2550">calculate</tspan></tspan></text>
    </g>
    <path
       transform="matrix(0.26458333,0,0,0.26458333,159.3858,55.83445)"
       style="fill:#ffffff;fill-opacity:1;fill-rule:evenodd;stroke:none"
       clip-path="url(#clipEmfPath1-2)"
       d="M 650.38274,3.9166965 V 69.194971 H 859.34105 V 3.9166965 Z"
       id="path2558" />
    <path
       transform="matrix(0.26458333,0,0,0.26458333,159.3858,55.83445)"
       style="fill:none;stroke:#000000;stroke-width:0.652995px;stroke-linecap:round;stroke-linejoin:round;stroke-miterlimit:4;stroke-dasharray:none;stroke-opacity:1"
       clip-path="url(#clipEmfPath1-2)"
       d="M 650.38274,69.194971 H 859.34105 V 3.9166965 H 650.38274 Z"
       id="path2560" />
    <g
       transform="matrix(0.26458333,0,0,0.26458333,159.3858,55.83445)"
       clip-path="url(#clipEmfPath1-2)"
       id="g2570">
      <text
         xml:space="preserve"
         style="font-style:normal;font-variant:normal;font-weight:400;font-size:23.3125px;line-height:125%;font-family:Helvetica;text-align:start;letter-spacing:0px;word-spacing:0px;text-anchor:start;fill:#000000;fill-opacity:1;stroke:none"
         transform="translate(730.48342,43.51885)"
         x="0"
         y="0"
         id="text2568"><tspan
           sodipodi:role="line"
           x="0"
           y="0"
           id="tspan2566"><tspan
             dx="0"
             dy="0"
             style="font-style:normal;font-variant:normal;font-weight:400;font-size:23.3125px;font-family:Helvetica;fill:#000000"
             id="tspan2562">: </tspan><tspan
             dx="0"
             dy="0"
             style="font-style:normal;font-variant:normal;font-weight:400;font-size:23.3125px;font-family:Helvetica;fill:#000000"
             id="tspan2564">Bar</tspan></tspan></text>
    </g>
    <path
       transform="matrix(0.26458333,0,0,0.26458333,159.3858,55.83445)"
       style="fill:#000000;fill-opacity:1;fill-rule:nonzero;stroke:#000000;stroke-width:0.217665px;stroke-linecap:round;stroke-linejoin:round;stroke-miterlimit:4;stroke-dasharray:none;stroke-opacity:1"
       clip-path="url(#clipEmfPath1-2)"
       d="m 753.99123,402.33177 v -10.44453 0 -0.21759 h 0.21767 v 0 h 0.21766 v 0 l 0.21767,0.21759 v 0 10.44453 l -0.21767,0.43518 v 0 h -0.21766 -0.21767 v 0 z m 0,-16.53717 v -10.44452 -0.21759 -0.2176 h 0.21767 0.21766 v 0.2176 l 0.21767,0.21759 v 10.44452 0 l -0.21767,0.2176 h -0.21766 -0.21767 z m 0,-16.75475 v -10.44453 -0.21759 0 l 0.21767,-0.2176 h 0.21766 v 0 l 0.21767,0.2176 v 0 0.21759 10.44453 0 0.21759 h -0.21767 -0.21766 v 0 h -0.21767 z m 0,-16.75476 v -10.44452 -0.2176 h 0.21767 v 0 l 0.21766,-0.21759 v 0.21759 h 0.21767 v 0 0.2176 10.44452 0.21759 0 l -0.21767,0.2176 v 0 h -0.21766 l -0.21767,-0.2176 v 0 z m 0,-16.75476 v -10.44452 l 0.21767,-0.2176 h 0.21766 0.21767 v 0.2176 0 10.44452 0.2176 l -0.21767,0.21759 v 0 h -0.21766 v -0.21759 h -0.21767 z m 0,-16.75476 v -10.44452 h 0.21767 v -0.21759 0 h 0.21766 0.21767 v 0 l 0.21766,0.21759 v 10.44452 l -0.21766,0.2176 v 0.21759 0 h -0.21767 -0.21766 v 0 l -0.21767,-0.21759 z m 0,-16.53716 0.21767,-10.44452 v -0.2176 -0.21759 h 0.21766 0.21767 v 0.21759 h 0.21766 v 0.2176 10.44452 0 l -0.21766,0.2176 h -0.21767 -0.21766 v -0.2176 z m 0.21767,-16.75476 v -10.44452 -0.21759 0 l 0.21766,-0.2176 v 0 h 0.21767 v 0.2176 h 0.21766 v 0.21759 10.44452 0 l -0.21766,0.2176 v 0 h -0.21767 v 0 h -0.21766 z m 0,-16.75475 v -10.44453 -0.21759 h 0.21766 l 0.21767,-0.21759 v 0.21759 h 0.21766 v 0.21759 10.44453 0.21759 0 l -0.21766,0.2176 h -0.21767 v 0 l -0.21766,-0.2176 v 0 z m 0,-16.75476 v -10.44452 0 l 0.21766,-0.2176 h 0.21767 0.21766 v 0.2176 0 10.44452 0.21759 0 l -0.21766,0.2176 v 0 h -0.21767 l -0.21766,-0.2176 v 0 z m 0,-16.75476 v -10.44452 0 l 0.21766,-0.2176 v 0 h 0.21767 v 0 h 0.21766 v 0.2176 0 10.44452 0.2176 0.21759 h -0.21766 v 0 h -0.21767 v 0 l -0.21766,-0.21759 z m 0,-16.53716 V 208.2377 l 0.21766,-0.43519 h 0.21767 0.21766 v 0.21759 0 l 0.21767,0.2176 -0.21767,10.44452 v 0.21759 h -0.21766 -0.21767 z m 0,-16.75476 0.21766,-10.44452 v -0.2176 0 l 0.21767,-0.21759 v 0 h 0.21766 v 0.21759 l 0.21767,0.2176 v 10.44452 0 l -0.21767,0.2176 v 0 h -0.21766 -0.21767 v 0 -0.2176 z m 0.21766,-16.75475 v -10.44453 -0.21759 0 h 0.21767 v -0.2176 l 0.21766,0.2176 v 0 h 0.21767 v 0.21759 10.44453 0.21759 h -0.21767 v 0.21759 h -0.21766 v 0 l -0.21767,-0.21759 v 0 z m 0,-16.75476 v -10.44453 0 -0.21759 h 0.21767 0.43533 v 0.21759 0 10.44453 0.21759 h -0.21767 v 0.2176 h -0.21766 v 0 l -0.21767,-0.2176 z m 0,-16.75476 v -10.44452 -0.2176 h 0.21767 0.21766 v 0 h 0.21767 v 0.2176 10.44452 0.2176 0.21759 h -0.21767 v 0 h -0.21766 -0.21767 v -0.21759 z m 0,-16.53716 v -10.44453 -0.21759 h 0.21767 v -0.21759 h 0.21766 v 0 l 0.21767,0.21759 v 0 0.21759 10.44453 0 0.21759 h -0.21767 -0.21766 z m 0,-16.75476 v -10.44452 -0.2176 h 0.21767 v -0.21759 h 0.21766 0.21767 v 0.21759 0 l 0.21766,0.2176 -0.21766,10.44452 v 0 0.2176 h -0.21767 v 0 h -0.21766 v 0 z m 0,-16.75476 0.21767,-10.44452 v -0.217594 0 l 0.21766,-0.217594 0.21767,0.217594 v 0 h 0.21766 v 0.217594 10.44452 l -0.21766,0.2176 v 0.21759 h -0.21767 -0.21766 v -0.21759 z m 0.21767,-16.754753 v -10.444524 0 -0.217594 h 0.21766 0.21767 l 0.21766,0.217594 v 10.444524 0.217594 h -0.21766 v 0.217595 h -0.21767 v 0 l -0.21766,-0.217595 v 0 z"
       id="path2572" />
    <path
       transform="matrix(0.26458333,0,0,0.26458333,159.3858,55.83445)"
       style="fill:#000000;fill-opacity:1;fill-rule:nonzero;stroke:#000000;stroke-width:0.217665px;stroke-linecap:round;stroke-linejoin:round;stroke-miterlimit:4;stroke-dasharray:none;stroke-opacity:1"
       clip-path="url(#clipEmfPath1-2)"
       d="m 146.48848,402.33177 0.21767,-10.44453 v -0.21759 h 0.21766 v 0 h 0.21767 v 0 l 0.21766,0.21759 v 0 10.44453 l -0.21766,0.43518 v 0 h -0.21767 -0.21766 v 0 z m 0.21767,-16.53717 v -10.44452 -0.21759 -0.2176 h 0.21766 v 0 h 0.21767 v 0 l 0.21766,0.43519 v 10.44452 0 l -0.21766,0.2176 h -0.21767 -0.21766 z m 0,-16.75475 v -10.44453 -0.21759 0 l 0.21766,-0.2176 v 0 h 0.21767 l 0.21766,0.2176 v 0 0.21759 10.44453 0 0.21759 h -0.21766 -0.21767 v 0 h -0.21766 z m 0,-16.75476 v -10.44452 -0.2176 h 0.21766 v -0.21759 h 0.21767 l 0.21766,0.21759 v 0 0.2176 10.44452 0.21759 0 h -0.21766 v 0.2176 l -0.21767,-0.2176 h -0.21766 z m 0,-16.75476 v -10.44452 l 0.21766,-0.2176 h 0.21767 0.21766 v 0.2176 10.44452 0.2176 l -0.21766,0.21759 v 0 h -0.21767 v -0.21759 h -0.21766 z m 0,-16.75476 v -10.44452 0 l 0.21766,-0.21759 v 0 h 0.21767 0.21766 v 0 0.21759 h 0.21767 l -0.21767,10.44452 v 0.2176 0.21759 h -0.21766 v 0 h -0.21767 v 0 l -0.21766,-0.21759 z m 0,-16.53716 0.21766,-10.44452 v -0.2176 -0.21759 h 0.21767 v 0 h 0.21766 v 0 l 0.21767,0.21759 v 0.2176 10.44452 h -0.21767 v 0.2176 h -0.21766 -0.21767 v -0.2176 z m 0.21766,-16.75476 v -10.44452 -0.21759 0 l 0.21767,-0.2176 v 0 h 0.21766 v 0.2176 h 0.21767 v 0.21759 10.44452 l -0.21767,0.2176 v 0 h -0.21766 -0.21767 z m 0,-16.75475 v -10.44453 -0.21759 0 h 0.21767 v -0.21759 l 0.21766,0.21759 h 0.21767 v 0.21759 10.44453 0.21759 h -0.21767 v 0 l -0.21766,0.2176 v -0.2176 h -0.21767 v 0 z m 0,-16.75476 v -10.44452 0 -0.2176 h 0.43533 0.21767 v 0.2176 0 10.44452 0.21759 0 l -0.21767,0.2176 v 0 h -0.21766 l -0.21767,-0.2176 v 0 z m 0,-16.75476 v -10.44452 0 l 0.21767,-0.2176 v 0 h 0.21766 v 0 h 0.21767 v 0.2176 0 10.44452 0.2176 0.21759 h -0.21767 v 0 h -0.21766 v 0 z m 0,-16.53716 V 208.2377 l 0.21767,-0.43519 v 0 h 0.21766 0.21767 v 0 l 0.21766,0.43519 -0.21766,10.44452 v 0.21759 h -0.21767 -0.21766 z m 0,-16.75476 v -10.44452 l 0.21767,-0.2176 v 0 -0.21759 h 0.21766 0.21767 v 0.21759 h 0.21766 v 0.2176 10.44452 h -0.21766 v 0.2176 0 h -0.21767 -0.21766 v -0.2176 z m 0.21767,-16.75475 v -10.44453 -0.21759 0 h 0.21766 v -0.2176 l 0.21767,0.2176 v 0 h 0.21766 v 0.21759 10.44453 0.21759 h -0.21766 v 0 l -0.21767,0.21759 v -0.21759 h -0.21766 v 0 z m 0,-16.75476 v -10.44453 0 -0.21759 h 0.21766 0.43533 v 0.21759 0 10.44453 l -0.21766,0.21759 -0.21767,0.2176 v 0 l -0.21766,-0.2176 z m 0,-16.75476 v -10.44452 0 -0.2176 h 0.21766 0.21767 v 0 h 0.21766 v 0.2176 10.44452 0.2176 0.21759 h -0.21766 -0.21767 v 0 h -0.21766 v -0.21759 z m 0,-16.53716 v -10.44453 -0.21759 l 0.21766,-0.21759 v 0 h 0.21767 v 0 h 0.21766 v 0.21759 0.21759 10.44453 0 0.21759 h -0.21766 -0.43533 z m 0,-16.75476 v -10.44452 -0.2176 h 0.21766 v -0.21759 h 0.21767 0.21766 v 0.21759 0 0.2176 10.44452 0 0.2176 h -0.21766 v 0 h -0.21767 z m 0,-16.75476 V 91.17199 l 0.21766,-0.217594 v 0 l 0.21767,-0.217594 0.21766,0.217594 v 0 h 0.21767 v 0.217594 10.44452 l -0.21767,0.2176 v 0 l -0.21766,0.21759 -0.21767,-0.21759 v 0 z m 0.21766,-16.754753 v -10.444524 0 -0.217594 h 0.21767 0.21766 l 0.21767,0.217594 v 10.444524 0.217594 h -0.21767 l -0.21766,0.217595 h -0.21767 v -0.217595 0 z"
       id="path2574" />
    <path
       transform="matrix(0.26458333,0,0,0.26458333,159.3858,55.83445)"
       style="fill:none;stroke:#000000;stroke-width:0.652995px;stroke-linecap:round;stroke-linejoin:round;stroke-miterlimit:4;stroke-dasharray:none;stroke-opacity:1"
       clip-path="url(#clipEmfPath1-2)"
       d="M 734.83672,93.783121 H 151.9301"
       id="path2576" />
    <path
       transform="matrix(0.26458333,0,0,0.26458333,159.3858,55.83445)"
       style="fill:#000000;fill-opacity:1;fill-rule:evenodd;stroke:none"
       clip-path="url(#clipEmfPath1-2)"
       d="M 732.44241,103.79246 752.68524,93.783121 732.44241,83.556192 Z"
       id="path2578" />
    <g
       transform="matrix(0.26458333,0,0,0.26458333,159.3858,55.83445)"
       clip-path="url(#clipEmfPath1-2)"
       id="g2586">
      <text
         xml:space="preserve"
         style="font-style:normal;font-variant:normal;font-weight:400;font-size:23.3125px;line-height:125%;font-family:Helvetica;text-align:start;letter-spacing:0px;word-spacing:0px;text-anchor:start;fill:#000000;fill-opacity:1;stroke:none"
         transform="translate(440.55377,88.996048)"
         x="0"
         y="0"
         id="text2584"><tspan
           sodipodi:role="line"
           x="0"
           y="0"
           id="tspan2582"><tspan
             dx="0"
             dy="0"
             style="font-style:normal;font-variant:normal;font-weight:400;font-size:23.3125px;font-family:Helvetica;fill:#000000"
             id="tspan2580">xx</tspan></tspan></text>
    </g>
    <path
       transform="matrix(0.26458333,0,0,0.26458333,159.3858,55.83445)"
       style="fill:none;stroke:#000000;stroke-width:0.652995px;stroke-linecap:round;stroke-linejoin:round;stroke-miterlimit:4;stroke-dasharray:none;stroke-opacity:1"
       clip-path="url(#clipEmfPath1-2)"
       d="M 3.9179683,375.56767 H 812.97842 V 134.69084 H 3.9179683 Z"
       id="path2588" />
    <path
       transform="matrix(0.26458333,0,0,0.26458333,159.3858,55.83445)"
       style="fill:#ffffff;fill-opacity:1;fill-rule:evenodd;stroke:none"
       clip-path="url(#clipEmfPath1-2)"
       d="m 111.44443,152.31597 v 27.85207 H 247.485 v -27.85207 z"
       id="path2590" />
    <g
       transform="matrix(0.26458333,0,0,0.26458333,159.3858,55.83445)"
       clip-path="url(#clipEmfPath1-2)"
       id="g2606">
      <text
         xml:space="preserve"
         style="font-style:normal;font-variant:normal;font-weight:400;font-size:23.3125px;line-height:125%;font-family:Arial;text-align:start;letter-spacing:0px;word-spacing:0px;text-anchor:start;fill:#000000;fill-opacity:1;stroke:none"
         transform="translate(112.31509,172.98743)"
         x="0"
         y="0"
         id="text2604"><tspan
           sodipodi:role="line"
           x="0"
           y="0"
           id="tspan2602"><tspan
             dx="0"
             dy="0"
             style="font-style:normal;font-variant:normal;font-weight:400;font-size:23.3125px;font-family:Arial;fill:#000000"
             id="tspan2592">[ </tspan><tspan
             dx="0"
             dy="0"
             style="font-style:normal;font-variant:normal;font-weight:400;font-size:23.3125px;font-family:Arial;fill:#000000"
             id="tspan2594">color </tspan><tspan
             dx="0"
             dy="0"
             style="font-style:normal;font-variant:normal;font-weight:400;font-size:23.3125px;font-family:Arial;fill:#000000"
             id="tspan2596">= </tspan><tspan
             dx="0"
             dy="0"
             style="font-style:normal;font-variant:normal;font-weight:400;font-size:23.3125px;font-family:Arial;fill:#000000"
             id="tspan2598">red </tspan><tspan
             dx="0"
             dy="0"
             style="font-style:normal;font-variant:normal;font-weight:400;font-size:23.3125px;font-family:Arial;fill:#000000"
             id="tspan2600">]</tspan></tspan></text>
    </g>
    <path
       transform="matrix(0.26458333,0,0,0.26458333,159.3858,55.83445)"
       style="fill:none;stroke:#000000;stroke-width:0.652995px;stroke-linecap:round;stroke-linejoin:round;stroke-miterlimit:4;stroke-dasharray:none;stroke-opacity:1"
       clip-path="url(#clipEmfPath1-2)"
       d="M 3.9179683,375.56767 H 812.97842"
       id="path2608" />
    <path
       transform="matrix(0.26458333,0,0,0.26458333,159.3858,55.83445)"
       style="fill:none;stroke:#000000;stroke-width:0.652995px;stroke-linecap:round;stroke-linejoin:round;stroke-miterlimit:4;stroke-dasharray:none;stroke-opacity:1"
       clip-path="url(#clipEmfPath1-2)"
       d="M 3.9179683,375.56767 H 812.97842"
       id="path2610" />
    <path
       transform="matrix(0.26458333,0,0,0.26458333,159.3858,55.83445)"
       style="fill:none;stroke:#000000;stroke-width:0.652995px;stroke-linecap:round;stroke-linejoin:round;stroke-miterlimit:4;stroke-dasharray:none;stroke-opacity:1"
       clip-path="url(#clipEmfPath1-2)"
       d="M 3.9179683,375.56767 H 812.97842"
       id="path2612" />
    <path
       transform="matrix(0.26458333,0,0,0.26458333,159.3858,55.83445)"
       style="fill:none;stroke:#000000;stroke-width:0.652995px;stroke-linecap:round;stroke-linejoin:round;stroke-miterlimit:4;stroke-dasharray:none;stroke-opacity:1"
       clip-path="url(#clipEmfPath1-2)"
       d="M 3.9179683,375.56767 H 812.97842"
       id="path2614" />
    <path
       transform="matrix(0.26458333,0,0,0.26458333,159.3858,55.83445)"
       style="fill:none;stroke:#000000;stroke-width:0.652995px;stroke-linecap:round;stroke-linejoin:round;stroke-miterlimit:4;stroke-dasharray:none;stroke-opacity:1"
       clip-path="url(#clipEmfPath1-2)"
       d="M 3.9179683,375.56767 H 812.97842"
       id="path2616" />
    <path
       transform="matrix(0.26458333,0,0,0.26458333,159.3858,55.83445)"
       style="fill:none;stroke:#000000;stroke-width:0.652995px;stroke-linecap:round;stroke-linejoin:round;stroke-miterlimit:4;stroke-dasharray:none;stroke-opacity:1"
       clip-path="url(#clipEmfPath1-2)"
       d="M 3.9179683,375.56767 H 812.97842"
       id="path2618" />
    <path
       transform="matrix(0.26458333,0,0,0.26458333,159.3858,55.83445)"
       style="fill:none;stroke:#000000;stroke-width:0.652995px;stroke-linecap:round;stroke-linejoin:round;stroke-miterlimit:4;stroke-dasharray:none;stroke-opacity:1"
       clip-path="url(#clipEmfPath1-2)"
       d="M 3.9179683,375.56767 H 812.97842"
       id="path2620" />
    <path
       transform="matrix(0.26458333,0,0,0.26458333,159.3858,55.83445)"
       style="fill:none;stroke:#000000;stroke-width:0.652995px;stroke-linecap:round;stroke-linejoin:round;stroke-miterlimit:4;stroke-dasharray:none;stroke-opacity:1"
       clip-path="url(#clipEmfPath1-2)"
       d="M 3.9179683,375.56767 H 812.97842"
       id="path2622" />
    <path
       transform="matrix(0.26458333,0,0,0.26458333,159.3858,55.83445)"
       style="fill:none;stroke:#000000;stroke-width:0.652995px;stroke-linecap:round;stroke-linejoin:round;stroke-miterlimit:4;stroke-dasharray:none;stroke-opacity:1"
       clip-path="url(#clipEmfPath1-2)"
       d="M 3.9179683,186.91346 H 69.21744 L 95.337229,160.80215 V 134.69084 H 3.9179683 Z"
       id="path2624" />
    <g
       transform="matrix(0.26458333,0,0,0.26458333,159.3858,55.83445)"
       clip-path="url(#clipEmfPath1-2)"
       id="g2632">
      <text
         xml:space="preserve"
         style="font-style:normal;font-variant:normal;font-weight:700;font-size:23.3125px;line-height:125%;font-family:Arial;text-align:start;letter-spacing:0px;word-spacing:0px;text-anchor:start;fill:#000000;fill-opacity:1;stroke:none"
         transform="translate(31.561411,167.76517)"
         x="0"
         y="0"
         id="text2630"><tspan
           sodipodi:role="line"
           x="0"
           y="0"
           id="tspan2628"><tspan
             dx="0"
             dy="0"
             style="font-style:normal;font-variant:normal;font-weight:700;font-size:23.3125px;font-family:Arial;fill:#000000"
             id="tspan2626">opt</tspan></tspan></text>
    </g>
    <path
       transform="matrix(0.26458333,0,0,0.26458333,159.3858,55.83445)"
       style="fill:#ffffff;fill-opacity:1;fill-rule:evenodd;stroke:none"
       clip-path="url(#clipEmfPath1-2)"
       d="M 43.097651,3.9166965 V 69.194971 H 252.05596 V 3.9166965 Z"
       id="path2634" />
    <path
       transform="matrix(0.26458333,0,0,0.26458333,159.3858,55.83445)"
       style="fill:none;stroke:#000000;stroke-width:0.652995px;stroke-linecap:round;stroke-linejoin:round;stroke-miterlimit:4;stroke-dasharray:none;stroke-opacity:1"
       clip-path="url(#clipEmfPath1-2)"
       d="M 43.097651,69.194971 H 252.05596 V 3.9166965 H 43.097651 Z"
       id="path2636" />
    <g
       transform="matrix(0.26458333,0,0,0.26458333,159.3858,55.83445)"
       clip-path="url(#clipEmfPath1-2)"
       id="g2646">
      <text
         xml:space="preserve"
         style="font-style:normal;font-variant:normal;font-weight:400;font-size:23.3125px;line-height:125%;font-family:Helvetica;text-align:start;letter-spacing:0px;word-spacing:0px;text-anchor:start;fill:#000000;fill-opacity:1;stroke:none"
         transform="translate(121.23935,43.51885)"
         x="0"
         y="0"
         id="text2644"><tspan
           sodipodi:role="line"
           x="0"
           y="0"
           id="tspan2642"><tspan
             dx="0"
             dy="0"
             style="font-style:normal;font-variant:normal;font-weight:400;font-size:23.3125px;font-family:Helvetica;fill:#000000"
             id="tspan2638">: </tspan><tspan
             dx="0"
             dy="0"
             style="font-style:normal;font-variant:normal;font-weight:400;font-size:23.3125px;font-family:Helvetica;fill:#000000"
             id="tspan2640">Foo</tspan></tspan></text>
    </g>
    <path
       transform="matrix(0.26458333,0,0,0.26458333,159.3858,55.83445)"
       style="fill:none;stroke:#000000;stroke-width:0.652995px;stroke-linecap:round;stroke-linejoin:round;stroke-miterlimit:4;stroke-dasharray:none;stroke-opacity:1"
       clip-path="url(#clipEmfPath1-2)"
       d="M 29.384762,349.45636 H 786.85863 V 218.89981 H 29.384762 Z"
       id="path2648" />
    <path
       transform="matrix(0.26458333,0,0,0.26458333,159.3858,55.83445)"
       style="fill:none;stroke:#000000;stroke-width:0.652995px;stroke-linecap:round;stroke-linejoin:round;stroke-miterlimit:4;stroke-dasharray:none;stroke-opacity:1"
       clip-path="url(#clipEmfPath1-2)"
       d="M 29.384762,349.45636 H 786.85863"
       id="path2650" />
    <path
       transform="matrix(0.26458333,0,0,0.26458333,159.3858,55.83445)"
       style="fill:none;stroke:#000000;stroke-width:0.652995px;stroke-linecap:round;stroke-linejoin:round;stroke-miterlimit:4;stroke-dasharray:none;stroke-opacity:1"
       clip-path="url(#clipEmfPath1-2)"
       d="M 29.384762,349.45636 H 786.85863"
       id="path2652" />
    <path
       transform="matrix(0.26458333,0,0,0.26458333,159.3858,55.83445)"
       style="fill:none;stroke:#000000;stroke-width:0.652995px;stroke-linecap:round;stroke-linejoin:round;stroke-miterlimit:4;stroke-dasharray:none;stroke-opacity:1"
       clip-path="url(#clipEmfPath1-2)"
       d="M 29.384762,349.45636 H 786.85863"
       id="path2654" />
    <path
       transform="matrix(0.26458333,0,0,0.26458333,159.3858,55.83445)"
       style="fill:none;stroke:#000000;stroke-width:0.652995px;stroke-linecap:round;stroke-linejoin:round;stroke-miterlimit:4;stroke-dasharray:none;stroke-opacity:1"
       clip-path="url(#clipEmfPath1-2)"
       d="M 29.384762,349.45636 H 786.85863"
       id="path2656" />
    <path
       transform="matrix(0.26458333,0,0,0.26458333,159.3858,55.83445)"
       style="fill:none;stroke:#000000;stroke-width:0.652995px;stroke-linecap:round;stroke-linejoin:round;stroke-miterlimit:4;stroke-dasharray:none;stroke-opacity:1"
       clip-path="url(#clipEmfPath1-2)"
       d="M 29.384762,349.45636 H 786.85863"
       id="path2658" />
    <path
       transform="matrix(0.26458333,0,0,0.26458333,159.3858,55.83445)"
       style="fill:none;stroke:#000000;stroke-width:0.652995px;stroke-linecap:round;stroke-linejoin:round;stroke-miterlimit:4;stroke-dasharray:none;stroke-opacity:1"
       clip-path="url(#clipEmfPath1-2)"
       d="M 29.384762,349.45636 H 786.85863"
       id="path2660" />
    <path
       transform="matrix(0.26458333,0,0,0.26458333,159.3858,55.83445)"
       style="fill:none;stroke:#000000;stroke-width:0.652995px;stroke-linecap:round;stroke-linejoin:round;stroke-miterlimit:4;stroke-dasharray:none;stroke-opacity:1"
       clip-path="url(#clipEmfPath1-2)"
       d="M 29.384762,349.45636 H 786.85863"
       id="path2662" />
    <path
       transform="matrix(0.26458333,0,0,0.26458333,159.3858,55.83445)"
       style="fill:none;stroke:#000000;stroke-width:0.652995px;stroke-linecap:round;stroke-linejoin:round;stroke-miterlimit:4;stroke-dasharray:none;stroke-opacity:1"
       clip-path="url(#clipEmfPath1-2)"
       d="M 29.384762,349.45636 H 786.85863"
       id="path2664" />
    <path
       transform="matrix(0.26458333,0,0,0.26458333,159.3858,55.83445)"
       style="fill:none;stroke:#000000;stroke-width:0.652995px;stroke-linecap:round;stroke-linejoin:round;stroke-miterlimit:4;stroke-dasharray:none;stroke-opacity:1"
       clip-path="url(#clipEmfPath1-2)"
       d="M 29.384762,275.90951 H 113.83875 L 139.95853,249.7982 V 218.89981 H 29.384762 Z"
       id="path2666" />
    <g
       transform="matrix(0.26458333,0,0,0.26458333,159.3858,55.83445)"
       clip-path="url(#clipEmfPath1-2)"
       id="g2680">
      <text
         xml:space="preserve"
         style="font-style:normal;font-variant:normal;font-weight:700;font-size:23.3125px;line-height:125%;font-family:Arial;text-align:start;letter-spacing:0px;word-spacing:0px;text-anchor:start;fill:#000000;fill-opacity:1;stroke:none"
         transform="translate(45.2743,257.1964)"
         x="0"
         y="0"
         id="text2678"><tspan
           sodipodi:role="line"
           x="0"
           y="0"
           id="tspan2676"><tspan
             dx="0"
             dy="0"
             style="font-style:normal;font-variant:normal;font-weight:700;font-size:23.3125px;font-family:Arial;fill:#000000"
             id="tspan2668">loop</tspan><tspan
             dx="0"
             dy="0"
             style="font-style:normal;font-variant:normal;font-weight:700;font-size:23.3125px;font-family:Arial;fill:#000000"
             id="tspan2670">(</tspan><tspan
             dx="0"
             dy="0"
             style="font-style:normal;font-variant:normal;font-weight:700;font-size:23.3125px;font-family:Arial;fill:#000000"
             id="tspan2672">n</tspan><tspan
             dx="0"
             dy="0"
             style="font-style:normal;font-variant:normal;font-weight:700;font-size:23.3125px;font-family:Arial;fill:#000000"
             id="tspan2674">)</tspan></tspan></text>
    </g>
  </g>
</svg>
