<?xml version="1.0" encoding="UTF-8" standalone="no"?><svg xmlns="http://www.w3.org/2000/svg" xmlns:xlink="http://www.w3.org/1999/xlink" contentScriptType="application/ecmascript" contentStyleType="text/css" height="345px" preserveAspectRatio="none" style="width:731px;height:345px;" version="1.1" viewBox="0 0 731 345" width="731px" zoomAndPan="magnify"><defs><filter height="300%" id="f168rbhp4mzljn" width="300%" x="-1" y="-1"><feGaussianBlur result="blurOut" stdDeviation="2.0"/><feColorMatrix in="blurOut" result="blurOut2" type="matrix" values="0 0 0 0 0 0 0 0 0 0 0 0 0 0 0 0 0 0 .4 0"/><feOffset dx="4.0" dy="4.0" in="blurOut2" result="blurOut3"/><feBlend in="SourceGraphic" in2="blurOut3" mode="normal"/></filter></defs><g><text fill="#000000" font-family="sans-serif" font-size="18" lengthAdjust="spacing" textLength="53" x="338" y="26.708">Achat</text><rect fill="#FEFECE" filter="url(#f168rbhp4mzljn)" height="33.9688" rx="12.5" ry="12.5" style="stroke:#A80036;stroke-width:1.5;" width="107" x="148" y="59.6514"/><text fill="#000000" font-family="sans-serif" font-size="12" lengthAdjust="spacing" textLength="87" x="158" y="80.79">Choisit produit</text><polygon fill="#FEFECE" filter="url(#f168rbhp4mzljn)" points="165.5,167.5889,237.5,167.5889,249.5,179.5889,237.5,191.5889,165.5,191.5889,153.5,179.5889,165.5,167.5889" style="stroke:#A80036;stroke-width:1.5;"/><text fill="#000000" font-family="sans-serif" font-size="11" lengthAdjust="spacing" textLength="72" x="165.5" y="183.397">defectueux?</text><text fill="#000000" font-family="sans-serif" font-size="11" lengthAdjust="spacing" textLength="21" x="132.5" y="176.9946">yes</text><rect fill="#FEFECE" filter="url(#f168rbhp4mzljn)" height="33.9688" rx="12.5" ry="12.5" style="stroke:#A80036;stroke-width:1.5;" width="136" x="21" y="211.5889"/><text fill="#000000" font-family="sans-serif" font-size="12" lengthAdjust="spacing" textLength="116" x="31" y="232.7275">Retourne le produit</text><polygon fill="#FEFECE" filter="url(#f168rbhp4mzljn)" points="201.5,309.5264,213.5,321.5264,201.5,333.5264,189.5,321.5264,201.5,309.5264" style="stroke:#A80036;stroke-width:1.5;"/><line style="stroke:#000000;stroke-width:2.0;" x1="15" x2="15" y1="33.6982" y2="333.5264"/><rect fill="#FEFECE" filter="url(#f168rbhp4mzljn)" height="33.9688" rx="12.5" ry="12.5" style="stroke:#A80036;stroke-width:1.5;" width="237" x="364" y="113.6201"/><text fill="#000000" font-family="sans-serif" font-size="12" lengthAdjust="spacing" textLength="217" x="374" y="134.7588">Analyse les commandes et expédie</text><rect fill="#FEFECE" filter="url(#f168rbhp4mzljn)" height="33.9688" rx="12.5" ry="12.5" style="stroke:#A80036;stroke-width:1.5;" width="198" x="271" y="265.5576"/><text fill="#000000" font-family="sans-serif" font-size="12" lengthAdjust="spacing" textLength="178" x="281" y="286.6963">Expedie accusé de reception</text><rect fill="#FEFECE" filter="url(#f168rbhp4mzljn)" height="33.9688" rx="12.5" ry="12.5" style="stroke:#A80036;stroke-width:1.5;" width="212" x="489" y="211.5889"/><text fill="#000000" font-family="sans-serif" font-size="12" lengthAdjust="spacing" textLength="192" x="499" y="232.7275">Autoriser paiement via site web</text><line style="stroke:#000000;stroke-width:2.0;" x1="265" x2="265" y1="33.6982" y2="333.5264"/><line style="stroke:#000000;stroke-width:2.0;" x1="711" x2="711" y1="33.6982" y2="333.5264"/><line style="stroke:#A80036;stroke-width:1.5;" x1="153.5" x2="89" y1="179.5889" y2="179.5889"/><line style="stroke:#A80036;stroke-width:1.5;" x1="89" x2="89" y1="179.5889" y2="211.5889"/><polygon fill="#A80036" points="85,201.5889,89,211.5889,93,201.5889,89,205.5889" style="stroke:#A80036;stroke-width:1.0;"/><line style="stroke:#A80036;stroke-width:1.5;" x1="201.5" x2="201.5" y1="93.6201" y2="98.6201"/><line style="stroke:#A80036;stroke-width:1.5;" x1="201.5" x2="482.5" y1="98.6201" y2="98.6201"/><line style="stroke:#A80036;stroke-width:1.5;" x1="482.5" x2="482.5" y1="98.6201" y2="113.6201"/><polygon fill="#A80036" points="478.5,103.6201,482.5,113.6201,486.5,103.6201,482.5,107.6201" style="stroke:#A80036;stroke-width:1.0;"/><line style="stroke:#A80036;stroke-width:1.5;" x1="89" x2="89" y1="245.5576" y2="250.5576"/><line style="stroke:#A80036;stroke-width:1.5;" x1="89" x2="370" y1="250.5576" y2="250.5576"/><line style="stroke:#A80036;stroke-width:1.5;" x1="370" x2="370" y1="250.5576" y2="265.5576"/><polygon fill="#A80036" points="366,255.5576,370,265.5576,374,255.5576,370,259.5576" style="stroke:#A80036;stroke-width:1.0;"/><line style="stroke:#A80036;stroke-width:1.5;" x1="249.5" x2="595" y1="179.5889" y2="179.5889"/><line style="stroke:#A80036;stroke-width:1.5;" x1="595" x2="595" y1="179.5889" y2="211.5889"/><polygon fill="#A80036" points="591,201.5889,595,211.5889,599,201.5889,595,205.5889" style="stroke:#A80036;stroke-width:1.0;"/><line style="stroke:#A80036;stroke-width:1.5;" x1="370" x2="370" y1="299.5264" y2="303.5264"/><line style="stroke:#A80036;stroke-width:1.5;" x1="370" x2="171.5" y1="303.5264" y2="303.5264"/><line style="stroke:#A80036;stroke-width:1.5;" x1="171.5" x2="171.5" y1="303.5264" y2="321.5264"/><line style="stroke:#A80036;stroke-width:1.5;" x1="171.5" x2="189.5" y1="321.5264" y2="321.5264"/><polygon fill="#A80036" points="179.5,317.5264,189.5,321.5264,179.5,325.5264,183.5,321.5264" style="stroke:#A80036;stroke-width:1.0;"/><line style="stroke:#A80036;stroke-width:1.5;" x1="595" x2="595" y1="245.5576" y2="321.5264"/><line style="stroke:#A80036;stroke-width:1.5;" x1="595" x2="213.5" y1="321.5264" y2="321.5264"/><polygon fill="#A80036" points="223.5,317.5264,213.5,321.5264,223.5,325.5264,219.5,321.5264" style="stroke:#A80036;stroke-width:1.0;"/><line style="stroke:#A80036;stroke-width:1.5;" x1="482.5" x2="482.5" y1="147.5889" y2="152.5889"/><line style="stroke:#A80036;stroke-width:1.5;" x1="482.5" x2="201.5" y1="152.5889" y2="152.5889"/><line style="stroke:#A80036;stroke-width:1.5;" x1="201.5" x2="201.5" y1="152.5889" y2="167.5889"/><polygon fill="#A80036" points="197.5,157.5889,201.5,167.5889,205.5,157.5889,201.5,161.5889" style="stroke:#A80036;stroke-width:1.0;"/><text fill="#000000" font-family="sans-serif" font-size="18" lengthAdjust="spacing" textLength="53" x="113.5" y="50.4063">Client</text><text fill="#000000" font-family="sans-serif" font-size="18" lengthAdjust="spacing" textLength="112" x="432" y="50.4063">Fournisseur</text><!--MD5=[11465db8fd7ee12dbaacc961b224a73a]
@startuml
title Achat
|Client|
:Choisit produit;
|Fournisseur|
:Analyse les commandes et expédie;
|Client|
if (defectueux?) then (yes)
  :Retourne le produit;
  |Fournisseur|
  :Expedie accusé de reception;
else
  :Autoriser paiement via site web;
endif
@enduml

PlantUML version 1.2021.3beta7(Unknown compile time)
(GPL source distribution)
Java Runtime: Java(TM) SE Runtime Environment
JVM: Java HotSpot(TM) 64-Bit Server VM
Default Encoding: UTF-8
Language: en
Country: US
--></g></svg>