<?xml version="1.0" encoding="UTF-8" standalone="no"?><svg xmlns="http://www.w3.org/2000/svg" xmlns:xlink="http://www.w3.org/1999/xlink" contentScriptType="application/ecmascript" contentStyleType="text/css" height="373px" preserveAspectRatio="none" style="width:581px;height:373px;" version="1.1" viewBox="0 0 581 373" width="581px" zoomAndPan="magnify"><defs><filter height="300%" id="fs8glnubgn3q7" width="300%" x="-1" y="-1"><feGaussianBlur result="blurOut" stdDeviation="2.0"/><feColorMatrix in="blurOut" result="blurOut2" type="matrix" values="0 0 0 0 0 0 0 0 0 0 0 0 0 0 0 0 0 0 .4 0"/><feOffset dx="4.0" dy="4.0" in="blurOut2" result="blurOut3"/><feBlend in="SourceGraphic" in2="blurOut3" mode="normal"/></filter></defs><g><text fill="#000000" font-family="sans-serif" font-size="18" lengthAdjust="spacing" textLength="149" x="209.5" y="16.708">Authentifiaction</text><ellipse cx="67.5" cy="36.9531" fill="#000000" filter="url(#fs8glnubgn3q7)" rx="10" ry="10" style="stroke:none;stroke-width:1.0;"/><rect fill="#FEFECE" filter="url(#fs8glnubgn3q7)" height="40" rx="12.5" ry="12.5" style="stroke:#A80036;stroke-width:1.5;" width="121" x="7" y="107.9531"/><text fill="#000000" font-family="sans-serif" font-size="14" lengthAdjust="spacing" textLength="111" x="12" y="132.7998">IntroduireCarte</text><rect fill="#FEFECE" filter="url(#fs8glnubgn3q7)" height="40" rx="12.5" ry="12.5" style="stroke:#A80036;stroke-width:1.5;" width="111" x="255" y="107.9531"/><text fill="#000000" font-family="sans-serif" font-size="14" lengthAdjust="spacing" textLength="101" x="260" y="132.7998">AttenteDeNIP</text><ellipse cx="309.5" cy="351.9531" filter="url(#fs8glnubgn3q7)" rx="10" ry="10" style="stroke:#000000;stroke-width:1.0;fill:none;"/><ellipse cx="310" cy="352.4531" fill="#000000" rx="6" ry="6" style="stroke:none;stroke-width:1.0;"/><rect fill="#FEFECE" filter="url(#fs8glnubgn3q7)" height="40" rx="12.5" ry="12.5" style="stroke:#A80036;stroke-width:1.5;" width="225" x="342" y="224.9531"/><text fill="#000000" font-family="sans-serif" font-size="14" lengthAdjust="spacing" textLength="215" x="347" y="249.7998">AttenteDeRecuperationCarte</text><!--MD5=[7184fc4a61b9c766c342a589dd70979d]
link *start to IntroduireCarte--><path d="M67.5,47.1421 C67.5,60.1331 67.5,84.3291 67.5,102.6871 " fill="none" id="*start-to-IntroduireCarte" style="stroke:#A80036;stroke-width:1.0;"/><polygon fill="#A80036" points="67.5,107.6961,71.5,98.6961,67.5,102.6961,63.5,98.6961,67.5,107.6961" style="stroke:#A80036;stroke-width:1.0;"/><!--MD5=[ece0f38183c3edcd5d6e50c8169bca89]
link IntroduireCarte to AttenteDeNIP--><path d="M128.192,127.9531 C165.173,127.9531 212.279,127.9531 249.343,127.9531 " fill="none" id="IntroduireCarte-to-AttenteDeNIP" style="stroke:#A80036;stroke-width:1.0;"/><polygon fill="#A80036" points="254.737,127.9531,245.737,123.9531,249.737,127.9531,245.737,131.9531,254.737,127.9531" style="stroke:#A80036;stroke-width:1.0;"/><text fill="#000000" font-family="sans-serif" font-size="13" lengthAdjust="spacing" textLength="90" x="146.5" y="121.02">Introduit carte</text><!--MD5=[2274dac34407b69e9c3bbb59cfa18a07]
link AttenteDeNIP to *end--><path d="M295.582,147.9571 C277.047,173.9221 249.163,222.1541 260.5,264.9531 C268.222,294.1056 288.385,323.7051 300.302,339.4378 " fill="none" id="AttenteDeNIP-to-*end" style="stroke:#A80036;stroke-width:1.0;"/><polygon fill="#A80036" points="303.428,343.4956,301.1054,333.9245,300.3771,339.5343,294.7673,338.806,303.428,343.4956" style="stroke:#A80036;stroke-width:1.0;"/><text fill="#000000" font-family="sans-serif" font-size="13" lengthAdjust="spacing" textLength="62" x="261.5" y="249.52">NIP valide</text><!--MD5=[e878b08d3629c803b81a97839b078984]
link AttenteDeNIP to AttenteDeNIP--><path d="M366.176,118.5801 C385.442,118.4811 401,121.6051 401,127.9531 C401,133.7061 388.222,136.8111 371.487,137.2691 " fill="none" id="AttenteDeNIP-to-AttenteDeNIP" style="stroke:#A80036;stroke-width:1.0;"/><polygon fill="#A80036" points="366.176,137.3261,375.2189,141.2282,371.1757,137.2718,375.132,133.2287,366.176,137.3261" style="stroke:#A80036;stroke-width:1.0;"/><text fill="#000000" font-family="sans-serif" font-size="13" lengthAdjust="spacing" textLength="73" x="407" y="132.52">NIP invalide</text><!--MD5=[95d7798c5d68c5185be138e0d6e6db15]
link AttenteDeNIP to AttenteDeRecuperationCarte--><path d="M334.602,148.2011 C359.834,168.3521 399.428,199.9721 426.146,221.3091 " fill="none" id="AttenteDeNIP-to-AttenteDeRecuperationCarte" style="stroke:#A80036;stroke-width:1.0;"/><polygon fill="#A80036" points="430.319,224.6421,425.7822,215.9004,426.4119,221.5221,420.7902,222.1518,430.319,224.6421" style="stroke:#A80036;stroke-width:1.0;"/><text fill="#000000" font-family="sans-serif" font-size="13" lengthAdjust="spacing" textLength="49" x="391.5" y="191.02">Annuler</text><!--MD5=[b79b8bebc38a42a305a55789292a4dad]
link AttenteDeRecuperationCarte to *end--><path d="M428.242,264.9678 C396.566,287.9052 344.679,325.4783 321.426,342.3168 " fill="none" id="AttenteDeRecuperationCarte-to-*end" style="stroke:#A80036;stroke-width:1.0;"/><polygon fill="#A80036" points="317.172,345.3976,326.8074,343.3583,321.2216,342.4649,322.115,336.879,317.172,345.3976" style="stroke:#A80036;stroke-width:1.0;"/><text fill="#000000" font-family="sans-serif" font-size="13" lengthAdjust="spacing" textLength="101" x="386.5" y="308.02">Carte recuperer</text><!--MD5=[5c843813f63c5528e34b1a206b640e8e]
@startuml
title Authentifiaction
hide empty description
[*] - -> IntroduireCarte
IntroduireCarte -> AttenteDeNIP : Introduit carte
AttenteDeNIP - -> [*] : NIP valide
AttenteDeNIP - -> AttenteDeNIP : NIP invalide
AttenteDeNIP - -> AttenteDeRecuperationCarte : Annuler
AttenteDeRecuperationCarte - -> [*] : Carte recuperer
@enduml

PlantUML version 1.2021.3beta7(Unknown compile time)
(GPL source distribution)
Java Runtime: Java(TM) SE Runtime Environment
JVM: Java HotSpot(TM) 64-Bit Server VM
Default Encoding: UTF-8
Language: en
Country: US
--></g></svg>