<?xml version="1.0" encoding="UTF-8" standalone="no"?><svg xmlns="http://www.w3.org/2000/svg" xmlns:xlink="http://www.w3.org/1999/xlink" contentScriptType="application/ecmascript" contentStyleType="text/css" height="272px" preserveAspectRatio="none" style="width:264px;height:272px;" version="1.1" viewBox="0 0 264 272" width="264px" zoomAndPan="magnify"><defs><filter height="300%" id="f1tlhnfxpqz16h" width="300%" x="-1" y="-1"><feGaussianBlur result="blurOut" stdDeviation="2.0"/><feColorMatrix in="blurOut" result="blurOut2" type="matrix" values="0 0 0 0 0 0 0 0 0 0 0 0 0 0 0 0 0 0 .4 0"/><feOffset dx="4.0" dy="4.0" in="blurOut2" result="blurOut3"/><feBlend in="SourceGraphic" in2="blurOut3" mode="normal"/></filter></defs><g><text fill="#000000" font-family="sans-serif" font-size="18" lengthAdjust="spacing" textLength="129" x="61" y="16.708">Gerer guichet</text><ellipse cx="96" cy="36.9531" fill="#000000" filter="url(#f1tlhnfxpqz16h)" rx="10" ry="10" style="stroke:none;stroke-width:1.0;"/><rect fill="#FEFECE" filter="url(#f1tlhnfxpqz16h)" height="40" rx="12.5" ry="12.5" style="stroke:#A80036;stroke-width:1.5;" width="178" x="7" y="123.9531"/><text fill="#000000" font-family="sans-serif" font-size="14" lengthAdjust="spacing" textLength="168" x="12" y="148.7998">AttendreCarteBancaire</text><ellipse cx="96" cy="250.9531" filter="url(#f1tlhnfxpqz16h)" rx="10" ry="10" style="stroke:#000000;stroke-width:1.0;fill:none;"/><ellipse cx="96.5" cy="251.4531" fill="#000000" rx="6" ry="6" style="stroke:none;stroke-width:1.0;"/><!--MD5=[4dd6949d0ac21318123a619a2ae8295c]
link *start to AttendreCarteBancaire--><path d="M96,47.2711 C96,63.0691 96,95.6061 96,118.3291 " fill="none" id="*start-to-AttendreCarteBancaire" style="stroke:#A80036;stroke-width:1.0;"/><polygon fill="#A80036" points="96,123.5911,100,114.5911,96,118.5911,92,114.5911,96,123.5911" style="stroke:#A80036;stroke-width:1.0;"/><text fill="#000000" font-family="sans-serif" font-size="13" lengthAdjust="spacing" textLength="159" x="97" y="90.02">Carte bancaire introduite</text><!--MD5=[8d10e8d3c43ee06abcab5ed305a0b478]
link AttendreCarteBancaire to *end--><path d="M68.965,164.1721 C59.8901,172.2254 50.849,182.4117 46,193.9531 C37.0015,215.3709 64.7724,234.1115 82.4729,243.5201 " fill="none" id="AttendreCarteBancaire-to-*end" style="stroke:#A80036;stroke-width:1.0;"/><polygon fill="#A80036" points="87.1594,245.9208,80.9728,238.2575,82.7093,243.6413,77.3255,245.3777,87.1594,245.9208" style="stroke:#A80036;stroke-width:1.0;"/><text fill="#000000" font-family="sans-serif" font-size="13" lengthAdjust="spacing" textLength="53" x="47" y="207.02">Eteindre</text><!--MD5=[8d10e8d3c43ee06abcab5ed305a0b478]
link AttendreCarteBancaire to *end--><path d="M101.1248,163.9871 C104.0495,177.1567 106.8058,195.0968 105,210.9531 C104.0476,219.3158 101.9816,228.4957 100.0691,235.8474 " fill="none" id="AttendreCarteBancaire-to-*end-1" style="stroke:#A80036;stroke-width:1.0;"/><polygon fill="#A80036" points="98.6575,241.0691,104.8676,233.4249,99.9624,236.2424,97.1449,231.3371,98.6575,241.0691" style="stroke:#A80036;stroke-width:1.0;"/><text fill="#000000" font-family="sans-serif" font-size="13" lengthAdjust="spacing" textLength="142" x="106" y="207.02">Carte valide introduite</text><!--MD5=[7633eb89fd4dd779573aec911248feef]
@startuml
title Gerer guichet
hide empty description
[*] - -> AttendreCarteBancaire : Carte bancaire introduite
AttendreCarteBancaire - -> [*] : Eteindre
AttendreCarteBancaire - -> [*] : Carte valide introduite
@enduml

PlantUML version 1.2021.3beta7(Unknown compile time)
(GPL source distribution)
Java Runtime: Java(TM) SE Runtime Environment
JVM: Java HotSpot(TM) 64-Bit Server VM
Default Encoding: UTF-8
Language: en
Country: US
--></g></svg>