<?xml version="1.0" encoding="UTF-8" standalone="no"?><svg xmlns="http://www.w3.org/2000/svg" xmlns:xlink="http://www.w3.org/1999/xlink" contentScriptType="application/ecmascript" contentStyleType="text/css" height="321px" preserveAspectRatio="none" style="width:775px;height:321px;" version="1.1" viewBox="0 0 775 321" width="775px" zoomAndPan="magnify"><defs/><g><text fill="#000000" font-family="sans-serif" font-size="18" lengthAdjust="spacing" textLength="150" x="312.25" y="28.708">rechercherLivre</text><line style="stroke:#A80036;stroke-width:1.0;stroke-dasharray:5.0,5.0;" x1="264" x2="264" y1="71.25" y2="314.3125"/><line style="stroke:#A80036;stroke-width:1.0;stroke-dasharray:5.0,5.0;" x1="523.5" x2="523.5" y1="71.25" y2="314.3125"/><line style="stroke:#A80036;stroke-width:1.0;stroke-dasharray:5.0,5.0;" x1="711.5" x2="711.5" y1="71.25" y2="314.3125"/><rect fill="#FEFECE" height="30.2969" style="stroke:#A80036;stroke-width:1.5;" width="182" x="173" y="39.9531"/><text fill="#000000" font-family="sans-serif" font-size="14" lengthAdjust="spacing" textLength="168" x="180" y="59.9482">:ControleurReservation</text><rect fill="#FEFECE" height="30.2969" style="stroke:#A80036;stroke-width:1.5;" width="111" x="468.5" y="39.9531"/><text fill="#000000" font-family="sans-serif" font-size="14" lengthAdjust="spacing" textLength="97" x="475.5" y="59.9482">:Bibliotheque</text><rect fill="#FEFECE" height="30.2969" style="stroke:#A80036;stroke-width:1.5;" width="115" x="654.5" y="39.9531"/><text fill="#000000" font-family="sans-serif" font-size="14" lengthAdjust="spacing" textLength="101" x="661.5" y="59.9482">ll:List&lt;:Livre&gt;</text><path d="M96,86.25 L96,111.25 L259,111.25 L259,96.25 L249,86.25 L96,86.25 " fill="#FBFB77" style="stroke:#A80036;stroke-width:1.0;"/><path d="M249,86.25 L249,96.25 L259,96.25 L249,86.25 " fill="#FBFB77" style="stroke:#A80036;stroke-width:1.0;"/><text fill="#000000" font-family="sans-serif" font-size="13" lengthAdjust="spacing" textLength="142" x="102" y="103.3169">Controlleur de session</text><polygon fill="#A80036" points="252,133.5156,262,137.5156,252,141.5156" style="stroke:#A80036;stroke-width:1.0;"/><line style="stroke:#A80036;stroke-width:1.0;" x1="0" x2="258" y1="137.5156" y2="137.5156"/><text fill="#000000" font-family="sans-serif" font-size="13" lengthAdjust="spacing" textLength="240" x="7" y="132.4497">[livre] = rechercherLivre(texte:string)</text><path d="M266,150.5156 L266,205.5156 L519,205.5156 L519,160.5156 L509,150.5156 L266,150.5156 " fill="#FBFB77" style="stroke:#A80036;stroke-width:1.0;"/><path d="M509,150.5156 L509,160.5156 L519,160.5156 L509,150.5156 " fill="#FBFB77" style="stroke:#A80036;stroke-width:1.0;"/><text fill="#000000" font-family="sans-serif" font-size="13" lengthAdjust="spacing" textLength="144" x="272" y="167.5825">Expert en information,</text><text fill="#000000" font-family="sans-serif" font-size="13" lengthAdjust="spacing" textLength="224" x="272" y="182.7153">controleur possède la Bibliotheque,</text><text fill="#000000" font-family="sans-serif" font-size="13" lengthAdjust="spacing" textLength="232" x="272" y="197.8481">Bibliotheque possède la liste de livre</text><polygon fill="#A80036" points="512,228.0469,522,232.0469,512,236.0469" style="stroke:#A80036;stroke-width:1.0;"/><line style="stroke:#A80036;stroke-width:1.0;" x1="264" x2="518" y1="232.0469" y2="232.0469"/><text fill="#000000" font-family="sans-serif" font-size="13" lengthAdjust="spacing" textLength="236" x="271" y="226.981">[livre] =rechercherLivre(texte:string)</text><path d="M255,245.0469 L255,270.0469 L707,270.0469 L707,255.0469 L697,245.0469 L255,245.0469 " fill="#FBFB77" style="stroke:#A80036;stroke-width:1.0;"/><path d="M697,245.0469 L697,255.0469 L707,255.0469 L697,245.0469 " fill="#FBFB77" style="stroke:#A80036;stroke-width:1.0;"/><text fill="#000000" font-family="sans-serif" font-size="13" lengthAdjust="spacing" textLength="431" x="261" y="262.1138">List&lt;:Livre&gt; est l'expert pour trouver les livres en sachant un texte</text><polygon fill="#A80036" points="700,292.3125,710,296.3125,700,300.3125" style="stroke:#A80036;stroke-width:1.0;"/><line style="stroke:#A80036;stroke-width:1.0;" x1="524" x2="706" y1="296.3125" y2="296.3125"/><text fill="#000000" font-family="sans-serif" font-size="13" lengthAdjust="spacing" textLength="164" x="531" y="291.2466">[livre] = find(texte:string)</text><!--MD5=[2cb69c7836a3d0712aafdea96e5cd80f]
@startuml
title: rechercherLivre
skinparam style strictuml
participant ":ControleurReservation" as S
note left of S: Controlleur de session
participant ":Bibliotheque" as B
participant "ll:List<:Livre>" as LL

 -> S: [livre] = rechercherLivre(texte:string)
note left of B: Expert en information,\ncontroleur possède la Bibliotheque,\nBibliotheque possède la liste de livre
S -> B: [livre] =rechercherLivre(texte:string)
note left of LL: List<:Livre> est l'expert pour trouver les livres en sachant un texte
B -> LL: [livre] = find(texte:string)
@enduml

PlantUML version 1.2021.01beta3(Unknown compile time)
(GPL source distribution)
Java Runtime: Java(TM) SE Runtime Environment
JVM: Java HotSpot(TM) 64-Bit Server VM
Default Encoding: UTF-8
Language: en
Country: US
--></g></svg>