<?xml version="1.0" encoding="UTF-8" standalone="no"?><svg xmlns="http://www.w3.org/2000/svg" xmlns:xlink="http://www.w3.org/1999/xlink" contentScriptType="application/ecmascript" contentStyleType="text/css" height="568px" preserveAspectRatio="none" style="width:1411px;height:568px;" version="1.1" viewBox="0 0 1411 568" width="1411px" zoomAndPan="magnify"><defs/><g><text fill="#000000" font-family="sans-serif" font-size="18" lengthAdjust="spacing" textLength="322" x="544.25" y="28.708">Réserver un livre à la bibliothèque</text><line style="stroke:#A80036;stroke-width:1.0;stroke-dasharray:5.0,5.0;" x1="308" x2="308" y1="71.25" y2="561.4063"/><line style="stroke:#A80036;stroke-width:1.0;stroke-dasharray:5.0,5.0;" x1="662" x2="662" y1="498.625" y2="561.4063"/><line style="stroke:#A80036;stroke-width:1.0;stroke-dasharray:5.0,5.0;" x1="805" x2="805" y1="71.25" y2="561.4063"/><line style="stroke:#A80036;stroke-width:1.0;stroke-dasharray:5.0,5.0;" x1="955" x2="955" y1="71.25" y2="561.4063"/><line style="stroke:#A80036;stroke-width:1.0;stroke-dasharray:5.0,5.0;" x1="1094.5" x2="1094.5" y1="71.25" y2="561.4063"/><line style="stroke:#A80036;stroke-width:1.0;stroke-dasharray:5.0,5.0;" x1="1270.5" x2="1270.5" y1="71.25" y2="561.4063"/><rect fill="#FEFECE" height="30.2969" style="stroke:#A80036;stroke-width:1.5;" width="182" x="217" y="39.9531"/><text fill="#000000" font-family="sans-serif" font-size="14" lengthAdjust="spacing" textLength="168" x="224" y="59.9482">:ControleurReservation</text><rect fill="#FEFECE" height="30.2969" style="stroke:#A80036;stroke-width:1.5;" width="111" x="750" y="39.9531"/><text fill="#000000" font-family="sans-serif" font-size="14" lengthAdjust="spacing" textLength="97" x="757" y="59.9482">:Bibliotheque</text><rect fill="#FEFECE" height="30.2969" style="stroke:#A80036;stroke-width:1.5;" width="169" x="871" y="39.9531"/><text fill="#000000" font-family="sans-serif" font-size="14" lengthAdjust="spacing" textLength="155" x="878" y="59.9482">ml:Map&lt;nom, :Livre&gt;</text><rect fill="#FEFECE" height="30.2969" style="stroke:#A80036;stroke-width:1.5;" width="58" x="1065.5" y="39.9531"/><text fill="#000000" font-family="sans-serif" font-size="14" lengthAdjust="spacing" textLength="44" x="1072.5" y="59.9482">l:Livre</text><rect fill="#FEFECE" height="30.2969" style="stroke:#A80036;stroke-width:1.5;" width="270" x="1135.5" y="39.9531"/><text fill="#000000" font-family="sans-serif" font-size="14" lengthAdjust="spacing" textLength="256" x="1142.5" y="59.9482">me:Map&lt;code:string, :Exemplaire&gt;</text><path d="M140,86.25 L140,111.25 L303,111.25 L303,96.25 L293,86.25 L140,86.25 " fill="#FBFB77" style="stroke:#A80036;stroke-width:1.0;"/><path d="M293,86.25 L293,96.25 L303,96.25 L293,86.25 " fill="#FBFB77" style="stroke:#A80036;stroke-width:1.0;"/><text fill="#000000" font-family="sans-serif" font-size="13" lengthAdjust="spacing" textLength="142" x="146" y="103.3169">Controlleur de session</text><polygon fill="#A80036" points="296,133.5156,306,137.5156,296,141.5156" style="stroke:#A80036;stroke-width:1.0;"/><line style="stroke:#A80036;stroke-width:1.0;" x1="0" x2="302" y1="137.5156" y2="137.5156"/><text fill="#000000" font-family="sans-serif" font-size="13" lengthAdjust="spacing" textLength="284" x="7" y="132.4497">reserverExemplaire(livre:string, code:string)</text><path d="M313,150.5156 L313,190.5156 L612,190.5156 L612,160.5156 L602,150.5156 L313,150.5156 " fill="#FBFB77" style="stroke:#A80036;stroke-width:1.0;"/><path d="M602,150.5156 L602,160.5156 L612,160.5156 L602,150.5156 " fill="#FBFB77" style="stroke:#A80036;stroke-width:1.0;"/><text fill="#000000" font-family="sans-serif" font-size="13" lengthAdjust="spacing" textLength="134" x="319" y="167.5825">Createur par default,</text><text fill="#000000" font-family="sans-serif" font-size="13" lengthAdjust="spacing" textLength="278" x="319" y="182.7153">faible couplage avec parametre m:Membre</text><polygon fill="#A80036" points="793.5,212.9141,803.5,216.9141,793.5,220.9141" style="stroke:#A80036;stroke-width:1.0;"/><line style="stroke:#A80036;stroke-width:1.0;" x1="308" x2="799.5" y1="216.9141" y2="216.9141"/><text fill="#000000" font-family="sans-serif" font-size="13" lengthAdjust="spacing" textLength="345" x="315" y="211.8481">exemplaire =  getExemplaire(livre:string, code:string)</text><polygon fill="#A80036" points="943.5,242.0469,953.5,246.0469,943.5,250.0469" style="stroke:#A80036;stroke-width:1.0;"/><line style="stroke:#A80036;stroke-width:1.0;" x1="805.5" x2="949.5" y1="246.0469" y2="246.0469"/><text fill="#000000" font-family="sans-serif" font-size="13" lengthAdjust="spacing" textLength="120" x="812.5" y="240.981">l = get(livre:string)</text><path d="M839,259.0469 L839,299.0469 L1089,299.0469 L1089,269.0469 L1079,259.0469 L839,259.0469 " fill="#FBFB77" style="stroke:#A80036;stroke-width:1.0;"/><path d="M1079,259.0469 L1079,269.0469 L1089,269.0469 L1079,259.0469 " fill="#FBFB77" style="stroke:#A80036;stroke-width:1.0;"/><text fill="#000000" font-family="sans-serif" font-size="13" lengthAdjust="spacing" textLength="140" x="845" y="276.1138">expert en information</text><text fill="#000000" font-family="sans-serif" font-size="13" lengthAdjust="spacing" textLength="229" x="845" y="291.2466">l possède une map d'exemmplaires</text><polygon fill="#A80036" points="1082.5,321.4453,1092.5,325.4453,1082.5,329.4453" style="stroke:#A80036;stroke-width:1.0;"/><line style="stroke:#A80036;stroke-width:1.0;" x1="805.5" x2="1088.5" y1="325.4453" y2="325.4453"/><text fill="#000000" font-family="sans-serif" font-size="13" lengthAdjust="spacing" textLength="265" x="812.5" y="320.3794">exemplaire = getExemplaire(code:string)</text><path d="M928,338.4453 L928,363.4453 L1089,363.4453 L1089,348.4453 L1079,338.4453 L928,338.4453 " fill="#FBFB77" style="stroke:#A80036;stroke-width:1.0;"/><path d="M1079,338.4453 L1079,348.4453 L1089,348.4453 L1079,338.4453 " fill="#FBFB77" style="stroke:#A80036;stroke-width:1.0;"/><text fill="#000000" font-family="sans-serif" font-size="13" lengthAdjust="spacing" textLength="140" x="934" y="355.5122">expert en information</text><polygon fill="#A80036" points="1258.5,385.7109,1268.5,389.7109,1258.5,393.7109" style="stroke:#A80036;stroke-width:1.0;"/><line style="stroke:#A80036;stroke-width:1.0;" x1="1094.5" x2="1264.5" y1="389.7109" y2="389.7109"/><text fill="#000000" font-family="sans-serif" font-size="13" lengthAdjust="spacing" textLength="152" x="1101.5" y="384.645">exemplaire = get(code)</text><path d="M331,402.7109 L331,427.7109 L657,427.7109 L657,412.7109 L647,402.7109 L331,402.7109 " fill="#FBFB77" style="stroke:#A80036;stroke-width:1.0;"/><path d="M647,402.7109 L647,412.7109 L657,412.7109 L647,402.7109 " fill="#FBFB77" style="stroke:#A80036;stroke-width:1.0;"/><text fill="#000000" font-family="sans-serif" font-size="13" lengthAdjust="spacing" textLength="305" x="337" y="419.7778">createur par default, PUCE n'est pas application</text><path d="M385,437.8438 L385,462.8438 L657,462.8438 L657,447.8438 L647,437.8438 L385,437.8438 " fill="#FBFB77" style="stroke:#A80036;stroke-width:1.0;"/><path d="M647,437.8438 L647,447.8438 L657,447.8438 L647,437.8438 " fill="#FBFB77" style="stroke:#A80036;stroke-width:1.0;"/><text fill="#000000" font-family="sans-serif" font-size="13" lengthAdjust="spacing" textLength="251" x="391" y="454.9106">r.noConfirmation est devenu no unique</text><polygon fill="#A80036" points="598,485.1094,608,489.1094,598,493.1094" style="stroke:#A80036;stroke-width:1.0;"/><line style="stroke:#A80036;stroke-width:1.0;" x1="308" x2="604" y1="489.1094" y2="489.1094"/><text fill="#000000" font-family="sans-serif" font-size="13" lengthAdjust="spacing" textLength="278" x="315" y="484.0435">create(m:Membre, exemplaire:Exemplaire)</text><rect fill="#FEFECE" height="30.2969" style="stroke:#A80036;stroke-width:1.5;" width="105" x="610" y="467.9766"/><text fill="#000000" font-family="sans-serif" font-size="14" lengthAdjust="spacing" textLength="91" x="617" y="487.9717">:Reservation</text><line style="stroke:#A80036;stroke-width:1.0;" x1="662.5" x2="704.5" y1="530.4063" y2="530.4063"/><line style="stroke:#A80036;stroke-width:1.0;" x1="704.5" x2="704.5" y1="530.4063" y2="543.4063"/><line style="stroke:#A80036;stroke-width:1.0;" x1="663.5" x2="704.5" y1="543.4063" y2="543.4063"/><polygon fill="#A80036" points="673.5,539.4063,663.5,543.4063,673.5,547.4063" style="stroke:#A80036;stroke-width:1.0;"/><text fill="#000000" font-family="sans-serif" font-size="13" lengthAdjust="spacing" textLength="129" x="669.5" y="525.3403">initNoConfirmation()</text><!--MD5=[d5a6bb09aade4057fe9d5f49b0078b79]
@startuml
title: Réserver un livre à la bibliothèque
skinparam style strictuml
participant ":ControleurReservation" as S
note left of S: Controlleur de session
participant ":Reservation" as Reservation
participant ":Bibliotheque" as B
participant "ml:Map<nom, :Livre>" as ML
participant "l:Livre" as L
participant "me:Map<code:string, :Exemplaire>" as ME

 -> S**: reserverExemplaire(livre:string, code:string)
note right of S: Createur par default, \nfaible couplage avec parametre m:Membre
S->B: exemplaire =  getExemplaire(livre:string, code:string)
B -> ML: l = get(livre:string)
note left of L: expert en information\nl possède une map d'exemmplaires
B -> L: exemplaire = getExemplaire(code:string) 
note left of L: expert en information 
L -> ME: exemplaire = get(code)

note left of Reservation: createur par default, PUCE n'est pas application
note left of Reservation: r.noConfirmation est devenu no unique
S -> Reservation**: create(m:Membre, exemplaire:Exemplaire)
Reservation ->Reservation: initNoConfirmation()
@enduml

PlantUML version 1.2021.01beta3(Unknown compile time)
(GPL source distribution)
Java Runtime: Java(TM) SE Runtime Environment
JVM: Java HotSpot(TM) 64-Bit Server VM
Default Encoding: UTF-8
Language: en
Country: US
--></g></svg>