<?xml version="1.0" encoding="UTF-8" standalone="no"?><svg xmlns="http://www.w3.org/2000/svg" xmlns:xlink="http://www.w3.org/1999/xlink" contentScriptType="application/ecmascript" contentStyleType="text/css" height="570px" preserveAspectRatio="none" style="width:382px;height:570px;" version="1.1" viewBox="0 0 382 570" width="382px" zoomAndPan="magnify"><defs><filter height="300%" id="f1naldz3d5707v" width="300%" x="-1" y="-1"><feGaussianBlur result="blurOut" stdDeviation="2.0"/><feColorMatrix in="blurOut" result="blurOut2" type="matrix" values="0 0 0 0 0 0 0 0 0 0 0 0 0 0 0 0 0 0 .4 0"/><feOffset dx="4.0" dy="4.0" in="blurOut2" result="blurOut3"/><feBlend in="SourceGraphic" in2="blurOut3" mode="normal"/></filter></defs><g><text fill="#000000" font-family="sans-serif" font-size="18" lengthAdjust="spacing" textLength="276" x="52" y="26.708">Entrer dans le stationnement</text><ellipse cx="85" cy="69.6514" fill="#000000" filter="url(#f1naldz3d5707v)" rx="10" ry="10" style="stroke:none;stroke-width:1.0;"/><rect fill="#FEFECE" filter="url(#f1naldz3d5707v)" height="33.9688" rx="12.5" ry="12.5" style="stroke:#A80036;stroke-width:1.5;" width="128" x="21" y="99.6514"/><text fill="#000000" font-family="sans-serif" font-size="12" lengthAdjust="spacing" textLength="108" x="31" y="120.79">enter Carte Credit</text><rect fill="#FEFECE" filter="url(#f1naldz3d5707v)" height="33.9688" rx="12.5" ry="12.5" style="stroke:#A80036;stroke-width:1.5;" width="117" x="26.5" y="315.5264"/><text fill="#000000" font-family="sans-serif" font-size="12" lengthAdjust="spacing" textLength="97" x="36.5" y="336.665">reprendre carte</text><line style="stroke:#000000;stroke-width:2.0;" x1="15" x2="15" y1="33.6982" y2="553.4014"/><rect fill="#FEFECE" filter="url(#f1naldz3d5707v)" height="33.9688" rx="12.5" ry="12.5" style="stroke:#A80036;stroke-width:1.5;" width="97" x="210" y="153.6201"/><text fill="#000000" font-family="sans-serif" font-size="12" lengthAdjust="spacing" textLength="77" x="220" y="174.7588">lecture carte</text><polygon fill="#FEFECE" filter="url(#f1naldz3d5707v)" points="242.5,207.5889,284.5,207.5889,274.5,241.5576,232.5,241.5576" style="stroke:#A80036;stroke-width:1.5;"/><text fill="#000000" font-family="sans-serif" font-size="12" lengthAdjust="spacing" textLength="32" x="242.5" y="228.7275">Carte</text><rect fill="#FEFECE" filter="url(#f1naldz3d5707v)" height="33.9688" rx="12.5" ry="12.5" style="stroke:#A80036;stroke-width:1.5;" width="108" x="204.5" y="261.5576"/><text fill="#000000" font-family="sans-serif" font-size="12" lengthAdjust="spacing" textLength="88" x="214.5" y="282.6963">remettre carte</text><rect fill="#FEFECE" filter="url(#f1naldz3d5707v)" height="33.9688" rx="12.5" ry="12.5" style="stroke:#A80036;stroke-width:1.5;" width="108" x="204.5" y="369.4951"/><text fill="#000000" font-family="sans-serif" font-size="12" lengthAdjust="spacing" textLength="88" x="214.5" y="390.6338">ouvrir barrière</text><rect fill="#FEFECE" filter="url(#f1naldz3d5707v)" height="33.9688" rx="12.5" ry="12.5" style="stroke:#A80036;stroke-width:1.5;" width="146" x="185.5" y="423.4639"/><text fill="#000000" font-family="sans-serif" font-size="12" lengthAdjust="spacing" textLength="126" x="195.5" y="444.6025">detecter entree auto</text><rect fill="#FEFECE" filter="url(#f1naldz3d5707v)" height="33.9688" rx="12.5" ry="12.5" style="stroke:#A80036;stroke-width:1.5;" width="114" x="201.5" y="477.4326"/><text fill="#000000" font-family="sans-serif" font-size="12" lengthAdjust="spacing" textLength="94" x="211.5" y="498.5713">fermer barrière</text><ellipse cx="258.5" cy="542.4014" fill="#FFFFFF" filter="url(#f1naldz3d5707v)" rx="11" ry="11" style="stroke:#000000;stroke-width:1.0;"/><ellipse cx="258.5" cy="542.4014" fill="#000000" rx="6" ry="6" style="stroke:#7F7F7F;stroke-width:1.0;"/><line style="stroke:#000000;stroke-width:2.0;" x1="159" x2="159" y1="33.6982" y2="553.4014"/><line style="stroke:#000000;stroke-width:2.0;" x1="362" x2="362" y1="33.6982" y2="553.4014"/><line style="stroke:#A80036;stroke-width:1.5;" x1="85" x2="85" y1="79.6514" y2="99.6514"/><polygon fill="#A80036" points="81,89.6514,85,99.6514,89,89.6514,85,93.6514" style="stroke:#A80036;stroke-width:1.0;"/><line style="stroke:#A80036;stroke-width:1.5;" x1="258.5" x2="258.5" y1="187.5889" y2="207.5889"/><polygon fill="#A80036" points="254.5,197.5889,258.5,207.5889,262.5,197.5889,258.5,201.5889" style="stroke:#A80036;stroke-width:1.0;"/><line style="stroke:#A80036;stroke-width:1.5;" x1="258.5" x2="258.5" y1="241.5576" y2="261.5576"/><polygon fill="#A80036" points="254.5,251.5576,258.5,261.5576,262.5,251.5576,258.5,255.5576" style="stroke:#A80036;stroke-width:1.0;"/><line style="stroke:#A80036;stroke-width:1.5;" x1="258.5" x2="258.5" y1="403.4639" y2="423.4639"/><polygon fill="#A80036" points="254.5,413.4639,258.5,423.4639,262.5,413.4639,258.5,417.4639" style="stroke:#A80036;stroke-width:1.0;"/><line style="stroke:#A80036;stroke-width:1.5;" x1="258.5" x2="258.5" y1="457.4326" y2="477.4326"/><polygon fill="#A80036" points="254.5,467.4326,258.5,477.4326,262.5,467.4326,258.5,471.4326" style="stroke:#A80036;stroke-width:1.0;"/><line style="stroke:#A80036;stroke-width:1.5;" x1="258.5" x2="258.5" y1="511.4014" y2="531.4014"/><polygon fill="#A80036" points="254.5,521.4014,258.5,531.4014,262.5,521.4014,258.5,525.4014" style="stroke:#A80036;stroke-width:1.0;"/><line style="stroke:#A80036;stroke-width:1.5;" x1="85" x2="85" y1="133.6201" y2="138.6201"/><line style="stroke:#A80036;stroke-width:1.5;" x1="85" x2="258.5" y1="138.6201" y2="138.6201"/><line style="stroke:#A80036;stroke-width:1.5;" x1="258.5" x2="258.5" y1="138.6201" y2="153.6201"/><polygon fill="#A80036" points="254.5,143.6201,258.5,153.6201,262.5,143.6201,258.5,147.6201" style="stroke:#A80036;stroke-width:1.0;"/><line style="stroke:#A80036;stroke-width:1.5;" x1="258.5" x2="258.5" y1="295.5264" y2="300.5264"/><line style="stroke:#A80036;stroke-width:1.5;" x1="258.5" x2="85" y1="300.5264" y2="300.5264"/><line style="stroke:#A80036;stroke-width:1.5;" x1="85" x2="85" y1="300.5264" y2="315.5264"/><polygon fill="#A80036" points="81,305.5264,85,315.5264,89,305.5264,85,309.5264" style="stroke:#A80036;stroke-width:1.0;"/><line style="stroke:#A80036;stroke-width:1.5;" x1="85" x2="85" y1="349.4951" y2="354.4951"/><line style="stroke:#A80036;stroke-width:1.5;" x1="85" x2="258.5" y1="354.4951" y2="354.4951"/><line style="stroke:#A80036;stroke-width:1.5;" x1="258.5" x2="258.5" y1="354.4951" y2="369.4951"/><polygon fill="#A80036" points="254.5,359.4951,258.5,369.4951,262.5,359.4951,258.5,363.4951" style="stroke:#A80036;stroke-width:1.0;"/><text fill="#000000" font-family="sans-serif" font-size="18" lengthAdjust="spacing" textLength="53" x="60.5" y="50.4063">Client</text><text fill="#000000" font-family="sans-serif" font-size="18" lengthAdjust="spacing" textLength="193" x="164" y="50.4063">BorneStationnement</text><!--MD5=[7c112c0a1383528262ff43eb028caa12]
@startuml
title Entrer dans le stationnement
|Client|
start
:enter Carte Credit;
|BorneStationnement|
:lecture carte;
:Carte/
:remettre carte;
|Client|
:reprendre carte;

|BorneStationnement|
:ouvrir barrière;
:detecter entree auto;
:fermer barrière;
stop
@enduml

PlantUML version 1.2021.3beta7(Unknown compile time)
(GPL source distribution)
Java Runtime: Java(TM) SE Runtime Environment
JVM: Java HotSpot(TM) 64-Bit Server VM
Default Encoding: UTF-8
Language: en
Country: US
--></g></svg>