<?xml version="1.0" encoding="UTF-8" standalone="no"?><svg xmlns="http://www.w3.org/2000/svg" xmlns:xlink="http://www.w3.org/1999/xlink" contentScriptType="application/ecmascript" contentStyleType="text/css" height="794px" preserveAspectRatio="none" style="width:472px;height:794px;" version="1.1" viewBox="0 0 472 794" width="472px" zoomAndPan="magnify"><defs><filter height="300%" id="f3lg25alnshz7" width="300%" x="-1" y="-1"><feGaussianBlur result="blurOut" stdDeviation="2.0"/><feColorMatrix in="blurOut" result="blurOut2" type="matrix" values="0 0 0 0 0 0 0 0 0 0 0 0 0 0 0 0 0 0 .4 0"/><feOffset dx="4.0" dy="4.0" in="blurOut2" result="blurOut3"/><feBlend in="SourceGraphic" in2="blurOut3" mode="normal"/></filter></defs><g><text fill="#000000" font-family="sans-serif" font-size="18" lengthAdjust="spacing" textLength="225" x="122.5" y="26.708">Sortir du stationnement</text><ellipse cx="85" cy="69.6514" fill="#000000" filter="url(#f3lg25alnshz7)" rx="10" ry="10" style="stroke:none;stroke-width:1.0;"/><rect fill="#FEFECE" filter="url(#f3lg25alnshz7)" height="33.9688" rx="12.5" ry="12.5" style="stroke:#A80036;stroke-width:1.5;" width="128" x="21" y="99.6514"/><text fill="#000000" font-family="sans-serif" font-size="12" lengthAdjust="spacing" textLength="108" x="31" y="120.79">enter Carte Credit</text><rect fill="#FEFECE" filter="url(#f3lg25alnshz7)" height="33.9688" rx="12.5" ry="12.5" style="stroke:#A80036;stroke-width:1.5;" width="117" x="26.5" y="485.4014"/><text fill="#000000" font-family="sans-serif" font-size="12" lengthAdjust="spacing" textLength="97" x="36.5" y="506.54">reprendre carte</text><rect fill="#FEFECE" filter="url(#f3lg25alnshz7)" height="33.9688" rx="12.5" ry="12.5" style="stroke:#A80036;stroke-width:1.5;" width="100" x="35" y="539.3701"/><text fill="#000000" font-family="sans-serif" font-size="12" lengthAdjust="spacing" textLength="80" x="45" y="560.5088">prendre recu</text><line style="stroke:#000000;stroke-width:2.0;" x1="15" x2="15" y1="33.6982" y2="777.2451"/><rect fill="#FEFECE" filter="url(#f3lg25alnshz7)" height="33.9688" rx="12.5" ry="12.5" style="stroke:#A80036;stroke-width:1.5;" width="97" x="241" y="153.6201"/><text fill="#000000" font-family="sans-serif" font-size="12" lengthAdjust="spacing" textLength="77" x="251" y="174.7588">lecture carte</text><polygon fill="#FEFECE" filter="url(#f3lg25alnshz7)" points="261,207.5889,328,207.5889,318,241.5576,251,241.5576" style="stroke:#A80036;stroke-width:1.5;"/><text fill="#000000" font-family="sans-serif" font-size="12" lengthAdjust="spacing" textLength="57" x="261" y="228.7275">Carte Out</text><polygon fill="#FEFECE" filter="url(#f3lg25alnshz7)" points="255,261.5576,324,261.5576,336,273.5576,324,285.5576,255,285.5576,243,273.5576,255,261.5576" style="stroke:#A80036;stroke-width:1.5;"/><text fill="#000000" font-family="sans-serif" font-size="11" lengthAdjust="spacing" textLength="69" x="255" y="277.3657">carte existe</text><text fill="#000000" font-family="sans-serif" font-size="11" lengthAdjust="spacing" textLength="21" x="222" y="270.9634">yes</text><text fill="#000000" font-family="sans-serif" font-size="11" lengthAdjust="spacing" textLength="14" x="336" y="270.9634">no</text><rect fill="#FEFECE" filter="url(#f3lg25alnshz7)" height="47.9375" rx="12.5" ry="12.5" style="stroke:#A80036;stroke-width:1.5;" width="103" x="167.5" y="295.5576"/><text fill="#000000" font-family="sans-serif" font-size="12" lengthAdjust="spacing" textLength="74" x="177.5" y="316.6963">calculer tarif</text><text fill="#000000" font-family="sans-serif" font-size="12" lengthAdjust="spacing" textLength="83" x="177.5" y="330.665">facturer client</text><rect fill="#FEFECE" filter="url(#f3lg25alnshz7)" height="33.9688" rx="12.5" ry="12.5" style="stroke:#A80036;stroke-width:1.5;" width="105" x="166.5" y="377.4639"/><text fill="#000000" font-family="sans-serif" font-size="12" lengthAdjust="spacing" textLength="85" x="176.5" y="398.6025">imprimer recu</text><rect fill="#FEFECE" filter="url(#f3lg25alnshz7)" height="33.9688" rx="12.5" ry="12.5" style="stroke:#A80036;stroke-width:1.5;" width="108" x="165" y="431.4326"/><text fill="#000000" font-family="sans-serif" font-size="12" lengthAdjust="spacing" textLength="88" x="175" y="452.5713">remettre carte</text><polygon fill="#FEFECE" filter="url(#f3lg25alnshz7)" points="293,295.5576,427,295.5576,437,312.542,427,329.5264,293,329.5264" style="stroke:#A80036;stroke-width:1.5;"/><text fill="#000000" font-family="sans-serif" font-size="12" lengthAdjust="spacing" textLength="114" x="303" y="316.6963">generateExecption</text><ellipse cx="360" cy="374.4951" fill="#FFFFFF" filter="url(#f3lg25alnshz7)" rx="11" ry="11" style="stroke:#000000;stroke-width:1.0;"/><ellipse cx="360" cy="374.4951" fill="#000000" rx="6" ry="6" style="stroke:#7F7F7F;stroke-width:1.0;"/><rect fill="#FEFECE" filter="url(#f3lg25alnshz7)" height="33.9688" rx="12.5" ry="12.5" style="stroke:#A80036;stroke-width:1.5;" width="108" x="235.5" y="593.3389"/><text fill="#000000" font-family="sans-serif" font-size="12" lengthAdjust="spacing" textLength="88" x="245.5" y="614.4775">ouvrir barrière</text><rect fill="#FEFECE" filter="url(#f3lg25alnshz7)" height="33.9688" rx="12.5" ry="12.5" style="stroke:#A80036;stroke-width:1.5;" width="141" x="219" y="647.3076"/><text fill="#000000" font-family="sans-serif" font-size="12" lengthAdjust="spacing" textLength="121" x="229" y="668.4463">detecter sortie auto</text><rect fill="#FEFECE" filter="url(#f3lg25alnshz7)" height="33.9688" rx="12.5" ry="12.5" style="stroke:#A80036;stroke-width:1.5;" width="114" x="232.5" y="701.2764"/><text fill="#000000" font-family="sans-serif" font-size="12" lengthAdjust="spacing" textLength="94" x="242.5" y="722.415">fermer barrière</text><ellipse cx="289.5" cy="766.2451" fill="#FFFFFF" filter="url(#f3lg25alnshz7)" rx="11" ry="11" style="stroke:#000000;stroke-width:1.0;"/><ellipse cx="289.5" cy="766.2451" fill="#000000" rx="6" ry="6" style="stroke:#7F7F7F;stroke-width:1.0;"/><line style="stroke:#000000;stroke-width:2.0;" x1="159" x2="159" y1="33.6982" y2="777.2451"/><line style="stroke:#000000;stroke-width:2.0;" x1="452" x2="452" y1="33.6982" y2="777.2451"/><line style="stroke:#A80036;stroke-width:1.5;" x1="85" x2="85" y1="79.6514" y2="99.6514"/><polygon fill="#A80036" points="81,89.6514,85,99.6514,89,89.6514,85,93.6514" style="stroke:#A80036;stroke-width:1.0;"/><line style="stroke:#A80036;stroke-width:1.5;" x1="85" x2="85" y1="519.3701" y2="539.3701"/><polygon fill="#A80036" points="81,529.3701,85,539.3701,89,529.3701,85,533.3701" style="stroke:#A80036;stroke-width:1.0;"/><line style="stroke:#A80036;stroke-width:1.5;" x1="289.5" x2="289.5" y1="187.5889" y2="207.5889"/><polygon fill="#A80036" points="285.5,197.5889,289.5,207.5889,293.5,197.5889,289.5,201.5889" style="stroke:#A80036;stroke-width:1.0;"/><line style="stroke:#A80036;stroke-width:1.5;" x1="219" x2="219" y1="343.4951" y2="377.4639"/><polygon fill="#A80036" points="215,367.4639,219,377.4639,223,367.4639,219,371.4639" style="stroke:#A80036;stroke-width:1.0;"/><line style="stroke:#A80036;stroke-width:1.5;" x1="219" x2="219" y1="411.4326" y2="431.4326"/><polygon fill="#A80036" points="215,421.4326,219,431.4326,223,421.4326,219,425.4326" style="stroke:#A80036;stroke-width:1.0;"/><line style="stroke:#A80036;stroke-width:1.5;" x1="360" x2="360" y1="329.5264" y2="363.4951"/><polygon fill="#A80036" points="356,353.4951,360,363.4951,364,353.4951,360,357.4951" style="stroke:#A80036;stroke-width:1.0;"/><line style="stroke:#A80036;stroke-width:1.5;" x1="243" x2="219" y1="273.5576" y2="273.5576"/><line style="stroke:#A80036;stroke-width:1.5;" x1="219" x2="219" y1="273.5576" y2="295.5576"/><polygon fill="#A80036" points="215,285.5576,219,295.5576,223,285.5576,219,289.5576" style="stroke:#A80036;stroke-width:1.0;"/><line style="stroke:#A80036;stroke-width:1.5;" x1="336" x2="360" y1="273.5576" y2="273.5576"/><line style="stroke:#A80036;stroke-width:1.5;" x1="360" x2="360" y1="273.5576" y2="295.5576"/><polygon fill="#A80036" points="356,285.5576,360,295.5576,364,285.5576,360,289.5576" style="stroke:#A80036;stroke-width:1.0;"/><line style="stroke:#A80036;stroke-width:1.5;" x1="219" x2="219" y1="465.4014" y2="470.4014"/><line style="stroke:#A80036;stroke-width:1.5;" x1="219" x2="85" y1="470.4014" y2="470.4014"/><line style="stroke:#A80036;stroke-width:1.5;" x1="85" x2="85" y1="470.4014" y2="485.4014"/><polygon fill="#A80036" points="81,475.4014,85,485.4014,89,475.4014,85,479.4014" style="stroke:#A80036;stroke-width:1.0;"/><line style="stroke:#A80036;stroke-width:1.5;" x1="289.5" x2="289.5" y1="241.5576" y2="261.5576"/><polygon fill="#A80036" points="285.5,251.5576,289.5,261.5576,293.5,251.5576,289.5,255.5576" style="stroke:#A80036;stroke-width:1.0;"/><line style="stroke:#A80036;stroke-width:1.5;" x1="289.5" x2="289.5" y1="627.3076" y2="647.3076"/><polygon fill="#A80036" points="285.5,637.3076,289.5,647.3076,293.5,637.3076,289.5,641.3076" style="stroke:#A80036;stroke-width:1.0;"/><line style="stroke:#A80036;stroke-width:1.5;" x1="289.5" x2="289.5" y1="681.2764" y2="701.2764"/><polygon fill="#A80036" points="285.5,691.2764,289.5,701.2764,293.5,691.2764,289.5,695.2764" style="stroke:#A80036;stroke-width:1.0;"/><line style="stroke:#A80036;stroke-width:1.5;" x1="289.5" x2="289.5" y1="735.2451" y2="755.2451"/><polygon fill="#A80036" points="285.5,745.2451,289.5,755.2451,293.5,745.2451,289.5,749.2451" style="stroke:#A80036;stroke-width:1.0;"/><line style="stroke:#A80036;stroke-width:1.5;" x1="85" x2="85" y1="133.6201" y2="138.6201"/><line style="stroke:#A80036;stroke-width:1.5;" x1="85" x2="289.5" y1="138.6201" y2="138.6201"/><line style="stroke:#A80036;stroke-width:1.5;" x1="289.5" x2="289.5" y1="138.6201" y2="153.6201"/><polygon fill="#A80036" points="285.5,143.6201,289.5,153.6201,293.5,143.6201,289.5,147.6201" style="stroke:#A80036;stroke-width:1.0;"/><line style="stroke:#A80036;stroke-width:1.5;" x1="85" x2="85" y1="573.3389" y2="578.3389"/><line style="stroke:#A80036;stroke-width:1.5;" x1="85" x2="289.5" y1="578.3389" y2="578.3389"/><line style="stroke:#A80036;stroke-width:1.5;" x1="289.5" x2="289.5" y1="578.3389" y2="593.3389"/><polygon fill="#A80036" points="285.5,583.3389,289.5,593.3389,293.5,583.3389,289.5,587.3389" style="stroke:#A80036;stroke-width:1.0;"/><text fill="#000000" font-family="sans-serif" font-size="18" lengthAdjust="spacing" textLength="53" x="60.5" y="50.4063">Client</text><text fill="#000000" font-family="sans-serif" font-size="18" lengthAdjust="spacing" textLength="193" x="209" y="50.4063">BorneStationnement</text><!--MD5=[91de58337b50f0eb90165a914df827cd]
@startuml
title Sortir du stationnement
|Client|
start
:enter Carte Credit;
|BorneStationnement|
:lecture carte;
:Carte Out/
if (carte existe) then (yes)
:calculer tarif\nfacturer client;
:imprimer recu;
:remettre carte;
else (no)
:generateExecption>
stop
endif
|Client|
:reprendre carte;
:prendre recu;
|BorneStationnement|
:ouvrir barrière;
:detecter sortie auto;
:fermer barrière;
stop
@enduml

PlantUML version 1.2021.3beta7(Unknown compile time)
(GPL source distribution)
Java Runtime: Java(TM) SE Runtime Environment
JVM: Java HotSpot(TM) 64-Bit Server VM
Default Encoding: UTF-8
Language: en
Country: US
--></g></svg>