<?xml version="1.0" encoding="UTF-8" standalone="no"?><svg xmlns="http://www.w3.org/2000/svg" xmlns:xlink="http://www.w3.org/1999/xlink" contentScriptType="application/ecmascript" contentStyleType="text/css" height="891px" preserveAspectRatio="none" style="width:800px;height:891px;" version="1.1" viewBox="0 0 800 891" width="800px" zoomAndPan="magnify"><defs><filter height="300%" id="fdbd5wgqomcym" width="300%" x="-1" y="-1"><feGaussianBlur result="blurOut" stdDeviation="2.0"/><feColorMatrix in="blurOut" result="blurOut2" type="matrix" values="0 0 0 0 0 0 0 0 0 0 0 0 0 0 0 0 0 0 .4 0"/><feOffset dx="4.0" dy="4.0" in="blurOut2" result="blurOut3"/><feBlend in="SourceGraphic" in2="blurOut3" mode="normal"/></filter></defs><g><!--MD5=[378b18254a1b2429f435e93f5e5cc50c]
class C--><rect codeLine="1" fill="#FEFECE" filter="url(#fdbd5wgqomcym)" height="48" id="C" style="stroke:#A80036;stroke-width:1.5;" width="122" x="351.6055" y="10"/><ellipse cx="366.6055" cy="26" fill="#ADD1B2" rx="11" ry="11" style="stroke:#A80036;stroke-width:1.0;"/><path d="M368.9493,21.6719 C368.0118,21.2344 367.418,21.0938 366.543,21.0938 C363.918,21.0938 361.918,23.1719 361.918,25.8906 L361.918,27.0156 C361.918,29.5938 364.0274,31.4844 366.918,31.4844 C368.1368,31.4844 369.293,31.1875 370.043,30.6406 C370.6211,30.2344 370.9493,29.7813 370.9493,29.3906 C370.9493,28.9375 370.5586,28.5469 370.0899,28.5469 C369.8711,28.5469 369.668,28.625 369.4805,28.8125 C369.0274,29.2969 369.0274,29.2969 368.8399,29.3906 C368.418,29.6563 367.7305,29.7813 366.9649,29.7813 C364.918,29.7813 363.6211,28.6875 363.6211,26.9844 L363.6211,25.8906 C363.6211,24.1094 364.8711,22.7969 366.6055,22.7969 C367.1836,22.7969 367.793,22.9531 368.2618,23.2031 C368.7461,23.4844 368.918,23.7031 369.0118,24.1094 C369.0743,24.5156 369.1055,24.6406 369.2461,24.7656 C369.3868,24.9063 369.6211,25.0156 369.8399,25.0156 C370.1055,25.0156 370.3711,24.875 370.543,24.6563 C370.6524,24.5 370.6836,24.3125 370.6836,23.8906 L370.6836,22.4688 C370.6836,22.0313 370.668,21.9063 370.5743,21.75 C370.418,21.4844 370.1368,21.3438 369.8399,21.3438 C369.543,21.3438 369.3399,21.4375 369.1211,21.75 L368.9493,21.6719 Z " fill="#000000"/><text fill="#000000" font-family="sans-serif" font-size="12" lengthAdjust="spacing" textLength="90" x="380.6055" y="30.1543">Coordonnateur</text><line style="stroke:#A80036;stroke-width:1.5;" x1="352.6055" x2="472.6055" y1="42" y2="42"/><line style="stroke:#A80036;stroke-width:1.5;" x1="352.6055" x2="472.6055" y1="50" y2="50"/><!--MD5=[fda5e595a57073d6f9589a47950fedee]
class VS--><rect codeLine="4" fill="#FEFECE" filter="url(#fdbd5wgqomcym)" height="53.9375" id="VS" style="stroke:#A80036;stroke-width:1.5;" width="130" x="382.6055" y="138"/><ellipse cx="397.6055" cy="156.9688" fill="#ADD1B2" rx="11" ry="11" style="stroke:#A80036;stroke-width:1.0;"/><path d="M399.9493,152.6406 C399.0118,152.2031 398.418,152.0625 397.543,152.0625 C394.918,152.0625 392.918,154.1406 392.918,156.8594 L392.918,157.9844 C392.918,160.5625 395.0274,162.4531 397.918,162.4531 C399.1368,162.4531 400.293,162.1563 401.043,161.6094 C401.6211,161.2031 401.9493,160.75 401.9493,160.3594 C401.9493,159.9063 401.5586,159.5156 401.0899,159.5156 C400.8711,159.5156 400.668,159.5938 400.4805,159.7813 C400.0274,160.2656 400.0274,160.2656 399.8399,160.3594 C399.418,160.625 398.7305,160.75 397.9649,160.75 C395.918,160.75 394.6211,159.6563 394.6211,157.9531 L394.6211,156.8594 C394.6211,155.0781 395.8711,153.7656 397.6055,153.7656 C398.1836,153.7656 398.793,153.9219 399.2618,154.1719 C399.7461,154.4531 399.918,154.6719 400.0118,155.0781 C400.0743,155.4844 400.1055,155.6094 400.2461,155.7344 C400.3868,155.875 400.6211,155.9844 400.8399,155.9844 C401.1055,155.9844 401.3711,155.8438 401.543,155.625 C401.6524,155.4688 401.6836,155.2813 401.6836,154.8594 L401.6836,153.4375 C401.6836,153 401.668,152.875 401.5743,152.7188 C401.418,152.4531 401.1368,152.3125 400.8399,152.3125 C400.543,152.3125 400.3399,152.4063 400.1211,152.7188 L399.9493,152.6406 Z " fill="#000000"/><text fill="#000000" font-family="sans-serif" font-size="12" lengthAdjust="spacing" textLength="86" x="417.6055" y="154.1387">&lt;&lt;Service&gt;&gt;</text><text fill="#000000" font-family="sans-serif" font-size="12" lengthAdjust="spacing" textLength="94" x="411.6055" y="168.1074">VisiteSupervise</text><line style="stroke:#A80036;stroke-width:1.5;" x1="383.6055" x2="511.6055" y1="175.9375" y2="175.9375"/><line style="stroke:#A80036;stroke-width:1.5;" x1="383.6055" x2="511.6055" y1="183.9375" y2="183.9375"/><!--MD5=[7372bbf51d55cfb0901280a97d9d0909]
class PS--><rect codeLine="5" fill="#FEFECE" filter="url(#fdbd5wgqomcym)" height="53.9375" id="PS" style="stroke:#A80036;stroke-width:1.5;" width="110" x="126.6055" y="7"/><ellipse cx="141.6055" cy="25.9688" fill="#ADD1B2" rx="11" ry="11" style="stroke:#A80036;stroke-width:1.0;"/><path d="M143.9493,21.6406 C143.0118,21.2031 142.418,21.0625 141.543,21.0625 C138.918,21.0625 136.918,23.1406 136.918,25.8594 L136.918,26.9844 C136.918,29.5625 139.0274,31.4531 141.918,31.4531 C143.1368,31.4531 144.293,31.1563 145.043,30.6094 C145.6211,30.2031 145.9493,29.75 145.9493,29.3594 C145.9493,28.9063 145.5586,28.5156 145.0899,28.5156 C144.8711,28.5156 144.668,28.5938 144.4805,28.7813 C144.0274,29.2656 144.0274,29.2656 143.8399,29.3594 C143.418,29.625 142.7305,29.75 141.9649,29.75 C139.918,29.75 138.6211,28.6563 138.6211,26.9531 L138.6211,25.8594 C138.6211,24.0781 139.8711,22.7656 141.6055,22.7656 C142.1836,22.7656 142.793,22.9219 143.2618,23.1719 C143.7461,23.4531 143.918,23.6719 144.0118,24.0781 C144.0743,24.4844 144.1055,24.6094 144.2461,24.7344 C144.3868,24.875 144.6211,24.9844 144.8399,24.9844 C145.1055,24.9844 145.3711,24.8438 145.543,24.625 C145.6524,24.4688 145.6836,24.2813 145.6836,23.8594 L145.6836,22.4375 C145.6836,22 145.668,21.875 145.5743,21.7188 C145.418,21.4531 145.1368,21.3125 144.8399,21.3125 C144.543,21.3125 144.3399,21.4063 144.1211,21.7188 L143.9493,21.6406 Z " fill="#000000"/><text fill="#000000" font-family="sans-serif" font-size="12" lengthAdjust="spacing" textLength="64" x="162.6055" y="23.1387">&lt;&lt;Lieu&gt;&gt;</text><text fill="#000000" font-family="sans-serif" font-size="12" lengthAdjust="spacing" textLength="74" x="155.6055" y="37.1074">PointService</text><line style="stroke:#A80036;stroke-width:1.5;" x1="127.6055" x2="235.6055" y1="44.9375" y2="44.9375"/><line style="stroke:#A80036;stroke-width:1.5;" x1="127.6055" x2="235.6055" y1="52.9375" y2="52.9375"/><!--MD5=[c7caf5ef47bfcf7ce2ac54592a280705]
class H--><rect codeLine="6" fill="#FEFECE" filter="url(#fdbd5wgqomcym)" height="67.9063" id="H" style="stroke:#A80036;stroke-width:1.5;" width="141" x="385.1055" y="435"/><ellipse cx="400.1055" cy="460.9531" fill="#ADD1B2" rx="11" ry="11" style="stroke:#A80036;stroke-width:1.0;"/><path d="M402.4493,456.625 C401.5118,456.1875 400.918,456.0469 400.043,456.0469 C397.418,456.0469 395.418,458.125 395.418,460.8438 L395.418,461.9688 C395.418,464.5469 397.5274,466.4375 400.418,466.4375 C401.6368,466.4375 402.793,466.1406 403.543,465.5938 C404.1211,465.1875 404.4493,464.7344 404.4493,464.3438 C404.4493,463.8906 404.0586,463.5 403.5899,463.5 C403.3711,463.5 403.168,463.5781 402.9805,463.7656 C402.5274,464.25 402.5274,464.25 402.3399,464.3438 C401.918,464.6094 401.2305,464.7344 400.4649,464.7344 C398.418,464.7344 397.1211,463.6406 397.1211,461.9375 L397.1211,460.8438 C397.1211,459.0625 398.3711,457.75 400.1055,457.75 C400.6836,457.75 401.293,457.9063 401.7618,458.1563 C402.2461,458.4375 402.418,458.6563 402.5118,459.0625 C402.5743,459.4688 402.6055,459.5938 402.7461,459.7188 C402.8868,459.8594 403.1211,459.9688 403.3399,459.9688 C403.6055,459.9688 403.8711,459.8281 404.043,459.6094 C404.1524,459.4531 404.1836,459.2656 404.1836,458.8438 L404.1836,457.4219 C404.1836,456.9844 404.168,456.8594 404.0743,456.7031 C403.918,456.4375 403.6368,456.2969 403.3399,456.2969 C403.043,456.2969 402.8399,456.3906 402.6211,456.7031 L402.4493,456.625 Z " fill="#000000"/><text fill="#000000" font-family="sans-serif" font-size="12" lengthAdjust="spacing" textLength="90" x="423.6055" y="451.1387">&lt;&lt;Abstract&gt;&gt;</text><text fill="#000000" font-family="sans-serif" font-size="12" lengthAdjust="spacing" textLength="109" x="414.1055" y="465.1074">&lt;&lt;Planification&gt;&gt;</text><text fill="#000000" font-family="sans-serif" font-size="12" lengthAdjust="spacing" textLength="45" x="446.1055" y="479.0762">Horaire</text><line style="stroke:#A80036;stroke-width:1.5;" x1="386.1055" x2="525.1055" y1="486.9063" y2="486.9063"/><line style="stroke:#A80036;stroke-width:1.5;" x1="386.1055" x2="525.1055" y1="494.9063" y2="494.9063"/><!--MD5=[47cc33c214268213a11c28dd4581a698]
class PH--><rect codeLine="7" fill="#FEFECE" filter="url(#fdbd5wgqomcym)" height="73.6094" id="PH" style="stroke:#A80036;stroke-width:1.5;" width="133" x="383.1055" y="269"/><ellipse cx="408.9055" cy="285" fill="#ADD1B2" rx="11" ry="11" style="stroke:#A80036;stroke-width:1.0;"/><path d="M411.2493,280.6719 C410.3118,280.2344 409.718,280.0938 408.843,280.0938 C406.218,280.0938 404.218,282.1719 404.218,284.8906 L404.218,286.0156 C404.218,288.5938 406.3274,290.4844 409.218,290.4844 C410.4368,290.4844 411.593,290.1875 412.343,289.6406 C412.9211,289.2344 413.2493,288.7813 413.2493,288.3906 C413.2493,287.9375 412.8586,287.5469 412.3899,287.5469 C412.1711,287.5469 411.968,287.625 411.7805,287.8125 C411.3274,288.2969 411.3274,288.2969 411.1399,288.3906 C410.718,288.6563 410.0305,288.7813 409.2649,288.7813 C407.218,288.7813 405.9211,287.6875 405.9211,285.9844 L405.9211,284.8906 C405.9211,283.1094 407.1711,281.7969 408.9055,281.7969 C409.4836,281.7969 410.093,281.9531 410.5618,282.2031 C411.0461,282.4844 411.218,282.7031 411.3118,283.1094 C411.3743,283.5156 411.4055,283.6406 411.5461,283.7656 C411.6868,283.9063 411.9211,284.0156 412.1399,284.0156 C412.4055,284.0156 412.6711,283.875 412.843,283.6563 C412.9524,283.5 412.9836,283.3125 412.9836,282.8906 L412.9836,281.4688 C412.9836,281.0313 412.968,280.9063 412.8743,280.75 C412.718,280.4844 412.4368,280.3438 412.1399,280.3438 C411.843,280.3438 411.6399,280.4375 411.4211,280.75 L411.2493,280.6719 Z " fill="#000000"/><text fill="#000000" font-family="sans-serif" font-size="12" lengthAdjust="spacing" textLength="77" x="425.3055" y="289.1543">PlageHoraire</text><line style="stroke:#A80036;stroke-width:1.5;" x1="384.1055" x2="515.1055" y1="301" y2="301"/><text fill="#000000" font-family="sans-serif" font-size="11" lengthAdjust="spacing" textLength="121" x="389.1055" y="315.2104">dateDebut:DateTime</text><text fill="#000000" font-family="sans-serif" font-size="11" lengthAdjust="spacing" textLength="102" x="389.1055" y="328.0151">dateFin:DateTime</text><line style="stroke:#A80036;stroke-width:1.5;" x1="384.1055" x2="515.1055" y1="334.6094" y2="334.6094"/><!--MD5=[aa116959468819569f4ab01e6b42a7b7]
class VR--><rect codeLine="11" fill="#FEFECE" filter="url(#fdbd5wgqomcym)" height="53.9375" id="VR" style="stroke:#A80036;stroke-width:1.5;" width="162" x="185.6055" y="279"/><ellipse cx="200.6055" cy="297.9688" fill="#ADD1B2" rx="11" ry="11" style="stroke:#A80036;stroke-width:1.0;"/><path d="M202.9493,293.6406 C202.0118,293.2031 201.418,293.0625 200.543,293.0625 C197.918,293.0625 195.918,295.1406 195.918,297.8594 L195.918,298.9844 C195.918,301.5625 198.0274,303.4531 200.918,303.4531 C202.1368,303.4531 203.293,303.1563 204.043,302.6094 C204.6211,302.2031 204.9493,301.75 204.9493,301.3594 C204.9493,300.9063 204.5586,300.5156 204.0899,300.5156 C203.8711,300.5156 203.668,300.5938 203.4805,300.7813 C203.0274,301.2656 203.0274,301.2656 202.8399,301.3594 C202.418,301.625 201.7305,301.75 200.9649,301.75 C198.918,301.75 197.6211,300.6563 197.6211,298.9531 L197.6211,297.8594 C197.6211,296.0781 198.8711,294.7656 200.6055,294.7656 C201.1836,294.7656 201.793,294.9219 202.2618,295.1719 C202.7461,295.4531 202.918,295.6719 203.0118,296.0781 C203.0743,296.4844 203.1055,296.6094 203.2461,296.7344 C203.3868,296.875 203.6211,296.9844 203.8399,296.9844 C204.1055,296.9844 204.3711,296.8438 204.543,296.625 C204.6524,296.4688 204.6836,296.2813 204.6836,295.8594 L204.6836,294.4375 C204.6836,294 204.668,293.875 204.5743,293.7188 C204.418,293.4531 204.1368,293.3125 203.8399,293.3125 C203.543,293.3125 203.3399,293.4063 203.1211,293.7188 L202.9493,293.6406 Z " fill="#000000"/><text fill="#000000" font-family="sans-serif" font-size="12" lengthAdjust="spacing" textLength="130" x="214.6055" y="295.1387">&lt;&lt;Sercice a offrir&gt;&gt;</text><text fill="#000000" font-family="sans-serif" font-size="12" lengthAdjust="spacing" textLength="89" x="235.1055" y="309.1074">VisiteARealiser</text><line style="stroke:#A80036;stroke-width:1.5;" x1="186.6055" x2="346.6055" y1="316.9375" y2="316.9375"/><line style="stroke:#A80036;stroke-width:1.5;" x1="186.6055" x2="346.6055" y1="324.9375" y2="324.9375"/><!--MD5=[54d0f7ca6f9898010b87b67e67e7a5e0]
class E--><rect codeLine="12" fill="#FEFECE" filter="url(#fdbd5wgqomcym)" height="53.9375" id="E" style="stroke:#A80036;stroke-width:1.5;" width="98" x="83.6055" y="571"/><ellipse cx="98.6055" cy="589.9688" fill="#ADD1B2" rx="11" ry="11" style="stroke:#A80036;stroke-width:1.0;"/><path d="M100.9493,585.6406 C100.0118,585.2031 99.418,585.0625 98.543,585.0625 C95.918,585.0625 93.918,587.1406 93.918,589.8594 L93.918,590.9844 C93.918,593.5625 96.0274,595.4531 98.918,595.4531 C100.1368,595.4531 101.293,595.1563 102.043,594.6094 C102.6211,594.2031 102.9493,593.75 102.9493,593.3594 C102.9493,592.9063 102.5586,592.5156 102.0899,592.5156 C101.8711,592.5156 101.668,592.5938 101.4805,592.7813 C101.0274,593.2656 101.0274,593.2656 100.8399,593.3594 C100.418,593.625 99.7305,593.75 98.9649,593.75 C96.918,593.75 95.6211,592.6563 95.6211,590.9531 L95.6211,589.8594 C95.6211,588.0781 96.8711,586.7656 98.6055,586.7656 C99.1836,586.7656 99.793,586.9219 100.2618,587.1719 C100.7461,587.4531 100.918,587.6719 101.0118,588.0781 C101.0743,588.4844 101.1055,588.6094 101.2461,588.7344 C101.3868,588.875 101.6211,588.9844 101.8399,588.9844 C102.1055,588.9844 102.3711,588.8438 102.543,588.625 C102.6524,588.4688 102.6836,588.2813 102.6836,587.8594 L102.6836,586.4375 C102.6836,586 102.668,585.875 102.5743,585.7188 C102.418,585.4531 102.1368,585.3125 101.8399,585.3125 C101.543,585.3125 101.3399,585.4063 101.1211,585.7188 L100.9493,585.6406 Z " fill="#000000"/><text fill="#000000" font-family="sans-serif" font-size="12" lengthAdjust="spacing" textLength="66" x="112.6055" y="587.1387">&lt;&lt;Role&gt;&gt;</text><text fill="#000000" font-family="sans-serif" font-size="12" lengthAdjust="spacing" textLength="52" x="119.6055" y="601.1074">Employe</text><line style="stroke:#A80036;stroke-width:1.5;" x1="84.6055" x2="180.6055" y1="608.9375" y2="608.9375"/><line style="stroke:#A80036;stroke-width:1.5;" x1="84.6055" x2="180.6055" y1="616.9375" y2="616.9375"/><!--MD5=[8832394f0f955ca405dbc7ff727aede1]
class L--><rect codeLine="13" fill="#FEFECE" filter="url(#fdbd5wgqomcym)" height="53.9375" id="L" style="stroke:#A80036;stroke-width:1.5;" width="96" x="536.6055" y="571"/><ellipse cx="551.6055" cy="589.9688" fill="#ADD1B2" rx="11" ry="11" style="stroke:#A80036;stroke-width:1.0;"/><path d="M553.9493,585.6406 C553.0118,585.2031 552.418,585.0625 551.543,585.0625 C548.918,585.0625 546.918,587.1406 546.918,589.8594 L546.918,590.9844 C546.918,593.5625 549.0274,595.4531 551.918,595.4531 C553.1368,595.4531 554.293,595.1563 555.043,594.6094 C555.6211,594.2031 555.9493,593.75 555.9493,593.3594 C555.9493,592.9063 555.5586,592.5156 555.0899,592.5156 C554.8711,592.5156 554.668,592.5938 554.4805,592.7813 C554.0274,593.2656 554.0274,593.2656 553.8399,593.3594 C553.418,593.625 552.7305,593.75 551.9649,593.75 C549.918,593.75 548.6211,592.6563 548.6211,590.9531 L548.6211,589.8594 C548.6211,588.0781 549.8711,586.7656 551.6055,586.7656 C552.1836,586.7656 552.793,586.9219 553.2618,587.1719 C553.7461,587.4531 553.918,587.6719 554.0118,588.0781 C554.0743,588.4844 554.1055,588.6094 554.2461,588.7344 C554.3868,588.875 554.6211,588.9844 554.8399,588.9844 C555.1055,588.9844 555.3711,588.8438 555.543,588.625 C555.6524,588.4688 555.6836,588.2813 555.6836,587.8594 L555.6836,586.4375 C555.6836,586 555.668,585.875 555.5743,585.7188 C555.418,585.4531 555.1368,585.3125 554.8399,585.3125 C554.543,585.3125 554.3399,585.4063 554.1211,585.7188 L553.9493,585.6406 Z " fill="#000000"/><text fill="#000000" font-family="sans-serif" font-size="12" lengthAdjust="spacing" textLength="64" x="565.6055" y="587.1387">&lt;&lt;Lieu&gt;&gt;</text><text fill="#000000" font-family="sans-serif" font-size="12" lengthAdjust="spacing" textLength="31" x="582.1055" y="601.1074">Local</text><line style="stroke:#A80036;stroke-width:1.5;" x1="537.6055" x2="631.6055" y1="608.9375" y2="608.9375"/><line style="stroke:#A80036;stroke-width:1.5;" x1="537.6055" x2="631.6055" y1="616.9375" y2="616.9375"/><!--MD5=[3b33aac52bf85bcbfceea1b1d7f3c296]
class P--><rect codeLine="14" fill="#FEFECE" filter="url(#fdbd5wgqomcym)" height="53.9375" id="P" style="stroke:#A80036;stroke-width:1.5;" width="98" x="330.6055" y="824"/><ellipse cx="345.6055" cy="842.9688" fill="#ADD1B2" rx="11" ry="11" style="stroke:#A80036;stroke-width:1.0;"/><path d="M347.9493,838.6406 C347.0118,838.2031 346.418,838.0625 345.543,838.0625 C342.918,838.0625 340.918,840.1406 340.918,842.8594 L340.918,843.9844 C340.918,846.5625 343.0274,848.4531 345.918,848.4531 C347.1368,848.4531 348.293,848.1563 349.043,847.6094 C349.6211,847.2031 349.9493,846.75 349.9493,846.3594 C349.9493,845.9063 349.5586,845.5156 349.0899,845.5156 C348.8711,845.5156 348.668,845.5938 348.4805,845.7813 C348.0274,846.2656 348.0274,846.2656 347.8399,846.3594 C347.418,846.625 346.7305,846.75 345.9649,846.75 C343.918,846.75 342.6211,845.6563 342.6211,843.9531 L342.6211,842.8594 C342.6211,841.0781 343.8711,839.7656 345.6055,839.7656 C346.1836,839.7656 346.793,839.9219 347.2618,840.1719 C347.7461,840.4531 347.918,840.6719 348.0118,841.0781 C348.0743,841.4844 348.1055,841.6094 348.2461,841.7344 C348.3868,841.875 348.6211,841.9844 348.8399,841.9844 C349.1055,841.9844 349.3711,841.8438 349.543,841.625 C349.6524,841.4688 349.6836,841.2813 349.6836,840.8594 L349.6836,839.4375 C349.6836,839 349.668,838.875 349.5743,838.7188 C349.418,838.4531 349.1368,838.3125 348.8399,838.3125 C348.543,838.3125 348.3399,838.4063 348.1211,838.7188 L347.9493,838.6406 Z " fill="#000000"/><text fill="#000000" font-family="sans-serif" font-size="12" lengthAdjust="spacing" textLength="66" x="359.6055" y="840.1387">&lt;&lt;Role&gt;&gt;</text><text fill="#000000" font-family="sans-serif" font-size="12" lengthAdjust="spacing" textLength="37" x="374.1055" y="854.1074">Parent</text><line style="stroke:#A80036;stroke-width:1.5;" x1="331.6055" x2="427.6055" y1="861.9375" y2="861.9375"/><line style="stroke:#A80036;stroke-width:1.5;" x1="331.6055" x2="427.6055" y1="869.9375" y2="869.9375"/><!--MD5=[1ae2715697942bd221ebc3232bf48911]
class V--><rect codeLine="15" fill="#FEFECE" filter="url(#fdbd5wgqomcym)" height="53.9375" id="V" style="stroke:#A80036;stroke-width:1.5;" width="98" x="359.6055" y="693"/><ellipse cx="374.6055" cy="711.9688" fill="#ADD1B2" rx="11" ry="11" style="stroke:#A80036;stroke-width:1.0;"/><path d="M376.9493,707.6406 C376.0118,707.2031 375.418,707.0625 374.543,707.0625 C371.918,707.0625 369.918,709.1406 369.918,711.8594 L369.918,712.9844 C369.918,715.5625 372.0274,717.4531 374.918,717.4531 C376.1368,717.4531 377.293,717.1563 378.043,716.6094 C378.6211,716.2031 378.9493,715.75 378.9493,715.3594 C378.9493,714.9063 378.5586,714.5156 378.0899,714.5156 C377.8711,714.5156 377.668,714.5938 377.4805,714.7813 C377.0274,715.2656 377.0274,715.2656 376.8399,715.3594 C376.418,715.625 375.7305,715.75 374.9649,715.75 C372.918,715.75 371.6211,714.6563 371.6211,712.9531 L371.6211,711.8594 C371.6211,710.0781 372.8711,708.7656 374.6055,708.7656 C375.1836,708.7656 375.793,708.9219 376.2618,709.1719 C376.7461,709.4531 376.918,709.6719 377.0118,710.0781 C377.0743,710.4844 377.1055,710.6094 377.2461,710.7344 C377.3868,710.875 377.6211,710.9844 377.8399,710.9844 C378.1055,710.9844 378.3711,710.8438 378.543,710.625 C378.6524,710.4688 378.6836,710.2813 378.6836,709.8594 L378.6836,708.4375 C378.6836,708 378.668,707.875 378.5743,707.7188 C378.418,707.4531 378.1368,707.3125 377.8399,707.3125 C377.543,707.3125 377.3399,707.4063 377.1211,707.7188 L376.9493,707.6406 Z " fill="#000000"/><text fill="#000000" font-family="sans-serif" font-size="12" lengthAdjust="spacing" textLength="66" x="388.6055" y="709.1387">&lt;&lt;Role&gt;&gt;</text><text fill="#000000" font-family="sans-serif" font-size="12" lengthAdjust="spacing" textLength="45" x="399.1055" y="723.1074">Visiteur</text><line style="stroke:#A80036;stroke-width:1.5;" x1="360.6055" x2="456.6055" y1="730.9375" y2="730.9375"/><line style="stroke:#A80036;stroke-width:1.5;" x1="360.6055" x2="456.6055" y1="738.9375" y2="738.9375"/><!--MD5=[557b4988ec89ca2b1f6072312f82b120]
class CH--><rect codeLine="16" fill="#FEFECE" filter="url(#fdbd5wgqomcym)" height="53.9375" id="CH" style="stroke:#A80036;stroke-width:1.5;" width="98" x="492.6055" y="693"/><ellipse cx="507.6055" cy="711.9688" fill="#ADD1B2" rx="11" ry="11" style="stroke:#A80036;stroke-width:1.0;"/><path d="M509.9493,707.6406 C509.0118,707.2031 508.418,707.0625 507.543,707.0625 C504.918,707.0625 502.918,709.1406 502.918,711.8594 L502.918,712.9844 C502.918,715.5625 505.0274,717.4531 507.918,717.4531 C509.1368,717.4531 510.293,717.1563 511.043,716.6094 C511.6211,716.2031 511.9493,715.75 511.9493,715.3594 C511.9493,714.9063 511.5586,714.5156 511.0899,714.5156 C510.8711,714.5156 510.668,714.5938 510.4805,714.7813 C510.0274,715.2656 510.0274,715.2656 509.8399,715.3594 C509.418,715.625 508.7305,715.75 507.9649,715.75 C505.918,715.75 504.6211,714.6563 504.6211,712.9531 L504.6211,711.8594 C504.6211,710.0781 505.8711,708.7656 507.6055,708.7656 C508.1836,708.7656 508.793,708.9219 509.2618,709.1719 C509.7461,709.4531 509.918,709.6719 510.0118,710.0781 C510.0743,710.4844 510.1055,710.6094 510.2461,710.7344 C510.3868,710.875 510.6211,710.9844 510.8399,710.9844 C511.1055,710.9844 511.3711,710.8438 511.543,710.625 C511.6524,710.4688 511.6836,710.2813 511.6836,709.8594 L511.6836,708.4375 C511.6836,708 511.668,707.875 511.5743,707.7188 C511.418,707.4531 511.1368,707.3125 510.8399,707.3125 C510.543,707.3125 510.3399,707.4063 510.1211,707.7188 L509.9493,707.6406 Z " fill="#000000"/><text fill="#000000" font-family="sans-serif" font-size="12" lengthAdjust="spacing" textLength="66" x="521.6055" y="709.1387">&lt;&lt;Role&gt;&gt;</text><text fill="#000000" font-family="sans-serif" font-size="12" lengthAdjust="spacing" textLength="36" x="536.6055" y="723.1074">Enfant</text><line style="stroke:#A80036;stroke-width:1.5;" x1="493.6055" x2="589.6055" y1="730.9375" y2="730.9375"/><line style="stroke:#A80036;stroke-width:1.5;" x1="493.6055" x2="589.6055" y1="738.9375" y2="738.9375"/><!--MD5=[3948de7321e8f5268222a1adac03d41c]
class CL--><rect codeLine="17" fill="#FEFECE" filter="url(#fdbd5wgqomcym)" height="67.9063" id="CL" style="stroke:#A80036;stroke-width:1.5;" width="122" x="347.6055" y="564"/><ellipse cx="362.6055" cy="589.9531" fill="#ADD1B2" rx="11" ry="11" style="stroke:#A80036;stroke-width:1.0;"/><path d="M364.9493,585.625 C364.0118,585.1875 363.418,585.0469 362.543,585.0469 C359.918,585.0469 357.918,587.125 357.918,589.8438 L357.918,590.9688 C357.918,593.5469 360.0274,595.4375 362.918,595.4375 C364.1368,595.4375 365.293,595.1406 366.043,594.5938 C366.6211,594.1875 366.9493,593.7344 366.9493,593.3438 C366.9493,592.8906 366.5586,592.5 366.0899,592.5 C365.8711,592.5 365.668,592.5781 365.4805,592.7656 C365.0274,593.25 365.0274,593.25 364.8399,593.3438 C364.418,593.6094 363.7305,593.7344 362.9649,593.7344 C360.918,593.7344 359.6211,592.6406 359.6211,590.9375 L359.6211,589.8438 C359.6211,588.0625 360.8711,586.75 362.6055,586.75 C363.1836,586.75 363.793,586.9063 364.2618,587.1563 C364.7461,587.4375 364.918,587.6563 365.0118,588.0625 C365.0743,588.4688 365.1055,588.5938 365.2461,588.7188 C365.3868,588.8594 365.6211,588.9688 365.8399,588.9688 C366.1055,588.9688 366.3711,588.8281 366.543,588.6094 C366.6524,588.4531 366.6836,588.2656 366.6836,587.8438 L366.6836,586.4219 C366.6836,585.9844 366.668,585.8594 366.5743,585.7031 C366.418,585.4375 366.1368,585.2969 365.8399,585.2969 C365.543,585.2969 365.3399,585.3906 365.1211,585.7031 L364.9493,585.625 Z " fill="#000000"/><text fill="#000000" font-family="sans-serif" font-size="12" lengthAdjust="spacing" textLength="66" x="388.6055" y="580.1387">&lt;&lt;Role&gt;&gt;</text><text fill="#000000" font-family="sans-serif" font-size="12" lengthAdjust="spacing" textLength="90" x="376.6055" y="594.1074">&lt;&lt;Abstract&gt;&gt;</text><text fill="#000000" font-family="sans-serif" font-size="12" lengthAdjust="spacing" textLength="33" x="405.1055" y="608.0762">Client</text><line style="stroke:#A80036;stroke-width:1.5;" x1="348.6055" x2="468.6055" y1="615.9063" y2="615.9063"/><line style="stroke:#A80036;stroke-width:1.5;" x1="348.6055" x2="468.6055" y1="623.9063" y2="623.9063"/><!--MD5=[b3df23b1fed24f8c3b9d195413c1fe1b]
link PS to VR--><path codeLine="19" d="M179.2345,61.072 C177.2435,92.879 176.7455,147.867 191.6055,192 C202.6505,224.803 225.7405,257.193 243.4005,278.828 " fill="none" id="PS-VR" style="stroke:#A80036;stroke-width:1.0;"/><text fill="#000000" font-family="sans-serif" font-size="13" lengthAdjust="spacing" textLength="171" x="192.6055" y="169.5669">doit offrir des services aux</text><text fill="#000000" font-family="sans-serif" font-size="13" lengthAdjust="spacing" textLength="8" x="169.7612" y="81.1563">1</text><text fill="#000000" font-family="sans-serif" font-size="13" lengthAdjust="spacing" textLength="7" x="230.225" y="267.8996">*</text><!--MD5=[9c4674601dcadd07de9940cff96cdee3]
link PS to E--><path codeLine="20" d="M126.5965,51.696 C77.6001,70.377 13.6055,105.898 13.6055,164 C13.6055,164 13.6055,164 13.6055,470 C13.6055,513.812 51.7826,548.737 84.8893,570.787 " fill="none" id="PS-E" style="stroke:#A80036;stroke-width:1.0;"/><polygon fill="#000000" points="18.2051,311.0503,21.859,302.2697,16,301.7989,18.2051,311.0503" style="stroke:#000000;stroke-width:1.0;"/><text fill="#000000" font-family="sans-serif" font-size="13" lengthAdjust="spacing" textLength="51" x="27.6055" y="310.5669">emploie</text><text fill="#000000" font-family="sans-serif" font-size="13" lengthAdjust="spacing" textLength="8" x="110.6672" y="50.1461">1</text><text fill="#000000" font-family="sans-serif" font-size="13" lengthAdjust="spacing" textLength="7" x="68.4463" y="561.4717">*</text><!--MD5=[c43bdc1fd52b606e1f58b1bbdd111190]
link PS to L--><path codeLine="21" d="M236.8355,44.468 C265.6715,49.406 301.5385,55.54 333.6055,61 C422.1835,76.082 724.6055,74.147 724.6055,164 C724.6055,164 724.6055,164 724.6055,470 C724.6055,520.865 673.2825,556.693 632.7855,577.046 " fill="none" id="PS-L" style="stroke:#A80036;stroke-width:1.0;"/><polygon fill="#000000" points="732.5887,310.079,729.5506,301.0667,724.8336,304.5736,732.5887,310.079" style="stroke:#000000;stroke-width:1.0;"/><text fill="#000000" font-family="sans-serif" font-size="13" lengthAdjust="spacing" textLength="54" x="738.6055" y="310.5669">possède</text><text fill="#000000" font-family="sans-serif" font-size="13" lengthAdjust="spacing" textLength="8" x="244.4244" y="58.8496">1</text><text fill="#000000" font-family="sans-serif" font-size="13" lengthAdjust="spacing" textLength="7" x="640.699" y="569.7708">*</text><!--MD5=[31257a29e186519085a9b839fb43df2c]
link PS to C--><path codeLine="23" d="M236.6425,34 C271.2055,34 315.8275,34 351.4885,34 " fill="none" id="PS-C" style="stroke:#A80036;stroke-width:1.0;"/><polygon fill="#000000" points="261.1055,22.5664,270.1506,25.5053,270.1506,19.6275,261.1055,22.5664" style="stroke:#000000;stroke-width:1.0;"/><text fill="#000000" font-family="sans-serif" font-size="13" lengthAdjust="spacing" textLength="51" x="275.1055" y="27.0669">travaille</text><text fill="#000000" font-family="sans-serif" font-size="13" lengthAdjust="spacing" textLength="8" x="244.5756" y="30.0722">1</text><text fill="#000000" font-family="sans-serif" font-size="13" lengthAdjust="spacing" textLength="7" x="336.6133" y="30.1609">*</text><!--MD5=[9d9b671740d724901a47c6552b6adb5d]
link VR to CL--><path codeLine="25" d="M265.5535,333.272 C265.1275,372.718 268.8685,448.432 299.6055,503 C313.2185,527.167 335.5185,548.049 356.4135,563.951 " fill="none" id="VR-CL" style="stroke:#A80036;stroke-width:1.0;"/><polygon fill="#000000" points="306.4379,473.7185,305.8575,464.2257,300.3886,466.3798,306.4379,473.7185" style="stroke:#000000;stroke-width:1.0;"/><text fill="#000000" font-family="sans-serif" font-size="13" lengthAdjust="spacing" textLength="53" x="313.6055" y="473.5669">est pour</text><text fill="#000000" font-family="sans-serif" font-size="13" lengthAdjust="spacing" textLength="8" x="256.4484" y="352.9666">1</text><text fill="#000000" font-family="sans-serif" font-size="13" lengthAdjust="spacing" textLength="23" x="320.8742" y="552.8602">2..*</text><!--MD5=[bb60ec8a5956b84045891b9ce6f1e0fd]
link VS to PH--><path codeLine="29" d="M445.9115,192.199 C445.3805,201.593 444.8665,212.267 444.6055,222 C444.1965,237.297 444.9825,254.156 446.0455,268.661 " fill="none" id="VS-PH" style="stroke:#A80036;stroke-width:1.0;"/><polygon fill="#000000" points="449.6143,235.5664,452.5374,226.5162,446.6595,226.5265,449.6143,235.5664" style="stroke:#000000;stroke-width:1.0;"/><text fill="#000000" font-family="sans-serif" font-size="13" lengthAdjust="spacing" textLength="99" x="458.6055" y="235.0669">sont fait durant</text><text fill="#000000" font-family="sans-serif" font-size="13" lengthAdjust="spacing" textLength="7" x="437.7753" y="211.8777">*</text><text fill="#000000" font-family="sans-serif" font-size="13" lengthAdjust="spacing" textLength="8" x="436.7461" y="258.0662">1</text><!--MD5=[5b41607cf48cb5ca283d9fdbe4eaaefa]
link VS to VR--><path codeLine="33" d="M389.5245,192.026 C373.3005,200.51 356.1455,210.692 341.6055,222 C320.4495,238.454 300.3085,261.287 286.2355,278.841 " fill="none" id="VS-VR" style="stroke:#A80036;stroke-width:1.0;"/><polygon fill="#000000" points="350.4331,227.3493,341.618,230.9193,345.3999,235.4189,350.4331,227.3493" style="stroke:#000000;stroke-width:1.0;"/><text fill="#000000" font-family="sans-serif" font-size="13" lengthAdjust="spacing" textLength="80" x="355.6055" y="235.0669">a lien durant</text><text fill="#000000" font-family="sans-serif" font-size="13" lengthAdjust="spacing" textLength="7" x="368.2839" y="212.0996">*</text><text fill="#000000" font-family="sans-serif" font-size="13" lengthAdjust="spacing" textLength="8" x="281.85" y="267.9156">1</text><!--MD5=[946f3a7a06697e18035d1f14111d9b68]
link VS to E--><path codeLine="34" d="M382.4305,189.185 C300.9375,218.287 171.5375,264.922 167.6055,269 C87.1154,352.485 112.0635,509.126 126.0065,570.95 " fill="none" id="VS-E" style="stroke:#A80036;stroke-width:1.0;"/><polygon fill="#000000" points="119.8176,393.217,127.3006,387.3472,122.4213,384.0698,119.8176,393.217" style="stroke:#000000;stroke-width:1.0;"/><text fill="#000000" font-family="sans-serif" font-size="13" lengthAdjust="spacing" textLength="111" x="131.6055" y="393.5669">est supervisé par</text><text fill="#000000" font-family="sans-serif" font-size="13" lengthAdjust="spacing" textLength="7" x="367.49" y="188.1924">*</text><text fill="#000000" font-family="sans-serif" font-size="13" lengthAdjust="spacing" textLength="8" x="115.5555" y="560.0498">1</text><!--MD5=[441a9ba58e7c8c119ea516c0ca1bf982]
link VS to L--><path codeLine="35" d="M512.6605,183.629 C531.8485,192.083 550.8395,204.356 562.6055,222 C572.2725,236.497 581.1335,488.22 583.7955,570.913 " fill="none" id="VS-L" style="stroke:#A80036;stroke-width:1.0;"/><polygon fill="#000000" points="583.5088,393.9841,584.7653,384.5569,578.9842,385.6188,583.5088,393.9841" style="stroke:#000000;stroke-width:1.0;"/><text fill="#000000" font-family="sans-serif" font-size="13" lengthAdjust="spacing" textLength="102" x="591.6055" y="393.5669">se déroule dans</text><text fill="#000000" font-family="sans-serif" font-size="13" lengthAdjust="spacing" textLength="7" x="520.5872" y="181.994">*</text><text fill="#000000" font-family="sans-serif" font-size="13" lengthAdjust="spacing" textLength="8" x="574.6832" y="560.0042">1</text><!--MD5=[353d58c24978b3323a8ee6d288f05270]
link CH to P--><path codeLine="36" d="M508.8225,747.105 C480.7165,769.486 440.4325,801.5641 412.3395,823.9337 " fill="none" id="CH-P" style="stroke:#A80036;stroke-width:1.0;"/><polygon fill="#000000" points="471.6941,788.681,480.6006,785.3457,476.9392,780.7476,471.6941,788.681" style="stroke:#000000;stroke-width:1.0;"/><text fill="#000000" font-family="sans-serif" font-size="13" lengthAdjust="spacing" textLength="92" x="484.6055" y="790.0669">est l'enfant de</text><text fill="#000000" font-family="sans-serif" font-size="13" lengthAdjust="spacing" textLength="8" x="492.3165" y="767.1969">1</text><text fill="#000000" font-family="sans-serif" font-size="13" lengthAdjust="spacing" textLength="7" x="412.0999" y="813.0297">*</text><!--MD5=[ad3bfa602072f13bd429e32598485f33]
link C to VS--><path codeLine="40" d="M418.8625,58.063 C424.9185,80.384 434.0905,114.186 440.4365,137.579 " fill="none" id="C-VS" style="stroke:#A80036;stroke-width:1.0;"/><polygon fill="#000000" points="438.9148,104.3919,439.3827,94.8929,433.7099,96.432,438.9148,104.3919" style="stroke:#000000;stroke-width:1.0;"/><text fill="#000000" font-family="sans-serif" font-size="13" lengthAdjust="spacing" textLength="55" x="446.6055" y="104.0669">organise</text><text fill="#000000" font-family="sans-serif" font-size="13" lengthAdjust="spacing" textLength="8" x="411.4409" y="78.2349">1</text><text fill="#000000" font-family="sans-serif" font-size="13" lengthAdjust="spacing" textLength="7" x="431.1027" y="127.0283">*</text><!--MD5=[fc17139ef9a3951c09786ba663e9db0c]
link PH to H--><path codeLine="43" d="M430.5575,343.177 C423.1625,361.618 417.5455,384.436 422.6055,405 C425.1135,415.191 429.5935,425.56 434.4605,434.865 " fill="none" id="PH-H" style="stroke:#A80036;stroke-width:1.0;"/><text fill="#000000" font-family="sans-serif" font-size="13" lengthAdjust="spacing" textLength="107" x="428.6055" y="386.0669">Permet d'obtenir</text><polygon fill="#000000" points="428.8182,401.6947,431.3698,392.5328,425.4972,392.7828,428.8182,401.6947" style="stroke:#000000;stroke-width:1.0;"/><text fill="#000000" font-family="sans-serif" font-size="13" lengthAdjust="spacing" textLength="104" x="436.6055" y="401.1997">un service selon</text><text fill="#000000" font-family="sans-serif" font-size="13" lengthAdjust="spacing" textLength="7" x="419.823" y="362.6869">*</text><text fill="#000000" font-family="sans-serif" font-size="13" lengthAdjust="spacing" textLength="8" x="421.6673" y="424.0168">1</text><!--MD5=[271623c4989ac883ab0dfc48fde1e9f1]
reverse link H to CL--><path codeLine="45" d="M436.3275,522.091 C431.1265,536.144 425.6405,550.969 420.9335,563.688 " fill="none" id="H-backto-CL" style="stroke:#A80036;stroke-width:1.0;"/><polygon fill="none" points="429.8735,519.363,443.3795,503.036,443.0025,524.223,429.8735,519.363" style="stroke:#A80036;stroke-width:1.0;"/><!--MD5=[2fc0fd7cc734df74513360568e813f76]
reverse link H to E--><path codeLine="46" d="M366.0275,505.221 C306.5085,528.623 230.6105,558.466 181.8065,577.655 " fill="none" id="H-backto-E" style="stroke:#A80036;stroke-width:1.0;"/><polygon fill="none" points="363.5475,498.675,384.7215,497.871,368.6705,511.704,363.5475,498.675" style="stroke:#A80036;stroke-width:1.0;"/><!--MD5=[2c60a563842c6351ebed7ecaf0d54d6e]
reverse link H to L--><path codeLine="47" d="M503.4425,517.095 C521.9325,535.298 542.3835,555.432 558.1305,570.936 " fill="none" id="H-backto-L" style="stroke:#A80036;stroke-width:1.0;"/><polygon fill="none" points="498.5035,522.056,489.1615,503.036,508.3255,512.079,498.5035,522.056" style="stroke:#A80036;stroke-width:1.0;"/><!--MD5=[9ced6c9454d7795937d9ff8c41b39b5b]
reverse link CL to CH--><path codeLine="49" d="M460.3745,645.709 C478.1145,661.715 497.3265,679.049 512.6105,692.839 " fill="none" id="CL-backto-CH" style="stroke:#A80036;stroke-width:1.0;"/><polygon fill="none" points="455.4605,650.703,445.3005,632.108,464.8385,640.309,455.4605,650.703" style="stroke:#A80036;stroke-width:1.0;"/><!--MD5=[0fe5364dfad4e2312a14cbf028e401a4]
reverse link CL to P--><path codeLine="50" d="M364.8565,648.421 C355.3425,661.98 346.6285,677.297 341.6055,693 C327.1215,738.274 348.4765,792.4225 364.5615,823.846 " fill="none" id="CL-backto-P" style="stroke:#A80036;stroke-width:1.0;"/><polygon fill="none" points="359.4405,643.978,377.1165,632.292,370.5865,652.45,359.4405,643.978" style="stroke:#A80036;stroke-width:1.0;"/><!--MD5=[d9af5b1966f97b371f89f9cdcf86baa9]
reverse link CL to V--><path codeLine="51" d="M408.6055,652.565 C408.6055,666.546 408.6055,680.999 408.6055,692.839 " fill="none" id="CL-backto-V" style="stroke:#A80036;stroke-width:1.0;"/><polygon fill="none" points="401.6055,652.108,408.6055,632.108,415.6055,652.108,401.6055,652.108" style="stroke:#A80036;stroke-width:1.0;"/><!--MD5=[8beac9ed5c30ed82be2a04d822aea3fb]
@startuml
class "Coordonnateur" as C {

}
class "<<Service>>\nVisiteSupervise " as VS 
class "<<Lieu>>\nPointService " as PS 
class "<<Abstract>>\n<<Planification>>\nHoraire" as H 
class "PlageHoraire" as PH {
    dateDebut:DateTime 
    dateFin:DateTime
}
class "<<Sercice a offrir>>\nVisiteARealiser" as VR 
class "<<Role>>\nEmploye" as E 
class "<<Lieu>>\nLocal" as L 
class "<<Role>>\nParent" as P 
class "<<Role>>\nVisiteur" as V 
class "<<Role>>\nEnfant" as CH
class "<<Role>>\n<<Abstract>>\nClient" as CL

PS "1" - - "*" VR: doit offrir des services aux 
PS "1" - - "*" E: emploie >
PS  "1" - - "*" L: possède >

C "*" -l- "1" PS: travaille >

VR "1" - - "2..*" CL: est pour >

'VR "1" - - "*" V: est pour
'VR "1" - - "*" CH: est pour
VS "*" - - "1" PH: sont fait durant >

'VS "*" - - "2..*" CL: offre un service a >

VS "*" - - "1" VR: a lien durant <
VS "*" - - "1" E: est supervisé par >
VS "*" - - "1" L: se déroule dans >
CH "1" - - "*" P : est l'enfant de >

'VS "*" -d- "1..*" V: offre un service aux
'VS "*" -d- "1..*" CH: est pour
C "1" - - "*" VS: organise >


H "1" -u- "*" PH: Permet d'obtenir\nun service selon >

CL  -u-|>  H
E  -u-|>  H
L  -u-|>  H

CH -u-|> CL
P -u-|> CL
V -u-|> CL
@enduml

@startuml
class "Coordonnateur" as C {

}
class "<<Service>>\nVisiteSupervise " as VS 
class "<<Lieu>>\nPointService " as PS 
class "<<Abstract>>\n<<Planification>>\nHoraire" as H 
class "PlageHoraire" as PH {
    dateDebut:DateTime 
    dateFin:DateTime
}
class "<<Sercice a offrir>>\nVisiteARealiser" as VR 
class "<<Role>>\nEmploye" as E 
class "<<Lieu>>\nLocal" as L 
class "<<Role>>\nParent" as P 
class "<<Role>>\nVisiteur" as V 
class "<<Role>>\nEnfant" as CH
class "<<Role>>\n<<Abstract>>\nClient" as CL

PS "1" - - "*" VR: doit offrir des services aux 
PS "1" - - "*" E: emploie >
PS  "1" - - "*" L: possède >

C "*" -l- "1" PS: travaille >

VR "1" - - "2..*" CL: est pour >

VS "*" - - "1" PH: sont fait durant >


VS "*" - - "1" VR: a lien durant <
VS "*" - - "1" E: est supervisé par >
VS "*" - - "1" L: se déroule dans >
CH "1" - - "*" P : est l'enfant de >

C "1" - - "*" VS: organise >


H "1" -u- "*" PH: Permet d'obtenir\nun service selon >

CL  -u-|>  H
E  -u-|>  H
L  -u-|>  H

CH -u-|> CL
P -u-|> CL
V -u-|> CL
@enduml

PlantUML version 1.2021.01beta10(Unknown compile time)
(GPL source distribution)
Java Runtime: Java(TM) SE Runtime Environment
JVM: Java HotSpot(TM) 64-Bit Server VM
Default Encoding: UTF-8
Language: en
Country: US
--></g></svg>