<?xml version="1.0" encoding="UTF-8" standalone="no"?><svg xmlns="http://www.w3.org/2000/svg" xmlns:xlink="http://www.w3.org/1999/xlink" contentScriptType="application/ecmascript" contentStyleType="text/css" height="795px" preserveAspectRatio="none" style="width:873px;height:795px;" version="1.1" viewBox="0 0 873 795" width="873px" zoomAndPan="magnify"><defs><filter height="300%" id="f1qje18t1q8h8s" width="300%" x="-1" y="-1"><feGaussianBlur result="blurOut" stdDeviation="2.0"/><feColorMatrix in="blurOut" result="blurOut2" type="matrix" values="0 0 0 0 0 0 0 0 0 0 0 0 0 0 0 0 0 0 .4 0"/><feOffset dx="4.0" dy="4.0" in="blurOut2" result="blurOut3"/><feBlend in="SourceGraphic" in2="blurOut3" mode="normal"/></filter></defs><g><ellipse cx="276.25" cy="48.6982" fill="#000000" filter="url(#f1qje18t1q8h8s)" rx="10" ry="10" style="stroke:none;stroke-width:1.0;"/><rect fill="#FEFECE" filter="url(#f1qje18t1q8h8s)" height="33.9688" rx="12.5" ry="12.5" style="stroke:#A80036;stroke-width:1.5;" width="204" x="174.25" y="78.6982"/><text fill="#000000" font-family="sans-serif" font-size="12" lengthAdjust="spacing" textLength="184" x="184.25" y="99.8369">Choisir produit dans catalogue</text><rect fill="#FEFECE" filter="url(#f1qje18t1q8h8s)" height="33.9688" rx="12.5" ry="12.5" style="stroke:#A80036;stroke-width:1.5;" width="284" x="134.25" y="132.667"/><text fill="#000000" font-family="sans-serif" font-size="12" lengthAdjust="spacing" textLength="264" x="144.25" y="153.8057">Acheminer commande et no carte de crédit</text><rect fill="#FEFECE" filter="url(#f1qje18t1q8h8s)" height="33.9688" rx="12.5" ry="12.5" style="stroke:#A80036;stroke-width:1.5;" width="63" x="244.75" y="509.9131"/><text fill="#000000" font-family="sans-serif" font-size="12" lengthAdjust="spacing" textLength="43" x="254.75" y="531.0518">produit</text><polygon fill="#FEFECE" filter="url(#f1qje18t1q8h8s)" points="221.75,563.8818,330.75,563.8818,342.75,575.8818,330.75,587.8818,221.75,587.8818,209.75,575.8818,221.75,563.8818" style="stroke:#A80036;stroke-width:1.5;"/><text fill="#000000" font-family="sans-serif" font-size="11" lengthAdjust="spacing" textLength="109" x="221.75" y="579.6899">produit défectueux</text><text fill="#000000" font-family="sans-serif" font-size="11" lengthAdjust="spacing" textLength="21" x="188.75" y="573.2876">yes</text><text fill="#000000" font-family="sans-serif" font-size="11" lengthAdjust="spacing" textLength="14" x="342.75" y="573.2876">no</text><rect fill="#FEFECE" filter="url(#f1qje18t1q8h8s)" height="33.9688" rx="12.5" ry="12.5" style="stroke:#A80036;stroke-width:1.5;" width="249" x="21" y="607.8818"/><text fill="#000000" font-family="sans-serif" font-size="12" lengthAdjust="spacing" textLength="229" x="31" y="629.0205">Aviser fournisseur produit défectueux</text><rect fill="#FEFECE" filter="url(#f1qje18t1q8h8s)" height="33.9688" rx="12.5" ry="12.5" style="stroke:#A80036;stroke-width:1.5;" width="124" x="83.5" y="661.8506"/><text fill="#000000" font-family="sans-serif" font-size="12" lengthAdjust="spacing" textLength="104" x="93.5" y="682.9893">retourner produit</text><polygon fill="#FEFECE" filter="url(#f1qje18t1q8h8s)" points="276.25,759.7881,288.25,771.7881,276.25,783.7881,264.25,771.7881,276.25,759.7881" style="stroke:#A80036;stroke-width:1.5;"/><line style="stroke:#000000;stroke-width:2.0;" x1="15" x2="15" y1="12.7451" y2="783.7881"/><rect fill="#FEFECE" filter="url(#f1qje18t1q8h8s)" height="33.9688" style="stroke:#A80036;stroke-width:1.5;" width="88" x="551.25" y="186.6357"/><text fill="#000000" font-family="sans-serif" font-size="12" lengthAdjust="spacing" textLength="68" x="561.25" y="207.7744">Commande</text><rect fill="#FEFECE" filter="url(#f1qje18t1q8h8s)" height="33.9688" rx="12.5" ry="12.5" style="stroke:#A80036;stroke-width:1.5;" width="150" x="520.25" y="240.6045"/><text fill="#000000" font-family="sans-serif" font-size="12" lengthAdjust="spacing" textLength="130" x="530.25" y="261.7432">Analyser commandes</text><rect fill="#FEFECE" filter="url(#f1qje18t1q8h8s)" height="33.9688" rx="12.5" ry="12.5" style="stroke:#A80036;stroke-width:1.5;" width="152" x="519.25" y="342.9756"/><text fill="#000000" font-family="sans-serif" font-size="12" lengthAdjust="spacing" textLength="132" x="529.25" y="364.1143">Expédier commandes</text><rect fill="#FEFECE" filter="url(#f1qje18t1q8h8s)" height="33.9688" style="stroke:#A80036;stroke-width:1.5;" width="130" x="530.25" y="411.9443"/><text fill="#000000" font-family="sans-serif" font-size="12" lengthAdjust="spacing" textLength="110" x="540.25" y="433.083">Bon de facturation</text><polygon fill="#FEFECE" filter="url(#f1qje18t1q8h8s)" points="517.25,294.5732,673.25,294.5732,685.25,306.5732,673.25,318.5732,517.25,318.5732,505.25,306.5732,517.25,294.5732" style="stroke:#A80036;stroke-width:1.5;"/><text fill="#000000" font-family="sans-serif" font-size="11" lengthAdjust="spacing" textLength="21" x="599.25" y="328.7837">yes</text><text fill="#000000" font-family="sans-serif" font-size="11" lengthAdjust="spacing" textLength="156" x="517.25" y="310.3813">livraison désiré aujourdhui?</text><text fill="#000000" font-family="sans-serif" font-size="11" lengthAdjust="spacing" textLength="14" x="685.25" y="303.979">no</text><polygon fill="#FEFECE" filter="url(#f1qje18t1q8h8s)" points="595.25,465.9131,607.25,477.9131,595.25,489.9131,583.25,477.9131,595.25,465.9131" style="stroke:#A80036;stroke-width:1.5;"/><rect fill="#FEFECE" filter="url(#f1qje18t1q8h8s)" height="33.9688" style="stroke:#A80036;stroke-width:1.5;" width="61" x="434.25" y="715.8193"/><text fill="#000000" font-family="sans-serif" font-size="12" lengthAdjust="spacing" textLength="41" x="444.25" y="736.958">Produit</text><rect fill="#FEFECE" filter="url(#f1qje18t1q8h8s)" height="33.9688" rx="12.5" ry="12.5" style="stroke:#A80036;stroke-width:1.5;" width="234" x="609" y="607.8818"/><text fill="#000000" font-family="sans-serif" font-size="12" lengthAdjust="spacing" textLength="214" x="619" y="629.0205">Confirmer paiement par le site web</text><line style="stroke:#000000;stroke-width:2.0;" x1="428.25" x2="428.25" y1="12.7451" y2="783.7881"/><line style="stroke:#000000;stroke-width:2.0;" x1="853" x2="853" y1="12.7451" y2="783.7881"/><line style="stroke:#A80036;stroke-width:1.5;" x1="276.25" x2="276.25" y1="58.6982" y2="78.6982"/><polygon fill="#A80036" points="272.25,68.6982,276.25,78.6982,280.25,68.6982,276.25,72.6982" style="stroke:#A80036;stroke-width:1.0;"/><line style="stroke:#A80036;stroke-width:1.5;" x1="276.25" x2="276.25" y1="112.667" y2="132.667"/><polygon fill="#A80036" points="272.25,122.667,276.25,132.667,280.25,122.667,276.25,126.667" style="stroke:#A80036;stroke-width:1.0;"/><line style="stroke:#A80036;stroke-width:1.5;" x1="145.5" x2="145.5" y1="641.8506" y2="661.8506"/><polygon fill="#A80036" points="141.5,651.8506,145.5,661.8506,149.5,651.8506,145.5,655.8506" style="stroke:#A80036;stroke-width:1.0;"/><line style="stroke:#A80036;stroke-width:1.5;" x1="209.75" x2="145.5" y1="575.8818" y2="575.8818"/><line style="stroke:#A80036;stroke-width:1.5;" x1="145.5" x2="145.5" y1="575.8818" y2="607.8818"/><polygon fill="#A80036" points="141.5,597.8818,145.5,607.8818,149.5,597.8818,145.5,601.8818" style="stroke:#A80036;stroke-width:1.0;"/><line style="stroke:#A80036;stroke-width:1.5;" x1="276.25" x2="276.25" y1="543.8818" y2="563.8818"/><polygon fill="#A80036" points="272.25,553.8818,276.25,563.8818,280.25,553.8818,276.25,557.8818" style="stroke:#A80036;stroke-width:1.0;"/><line style="stroke:#A80036;stroke-width:1.5;" x1="595.25" x2="595.25" y1="220.6045" y2="240.6045"/><polygon fill="#A80036" points="591.25,230.6045,595.25,240.6045,599.25,230.6045,595.25,234.6045" style="stroke:#A80036;stroke-width:1.0;"/><line style="stroke:#A80036;stroke-width:1.5;" x1="595.25" x2="595.25" y1="376.9443" y2="411.9443"/><polygon fill="#A80036" points="591.25,401.9443,595.25,411.9443,599.25,401.9443,595.25,405.9443" style="stroke:#A80036;stroke-width:1.0;"/><line style="stroke:#A80036;stroke-width:1.5;" x1="595.25" x2="595.25" y1="318.5732" y2="342.9756"/><polygon fill="#A80036" points="591.25,332.9756,595.25,342.9756,599.25,332.9756,595.25,336.9756" style="stroke:#A80036;stroke-width:1.0;"/><line style="stroke:#A80036;stroke-width:1.5;" x1="685.25" x2="697.25" y1="306.5732" y2="306.5732"/><polygon fill="#A80036" points="693.25,384.4443,697.25,394.4443,701.25,384.4443,697.25,388.4443" style="stroke:#A80036;stroke-width:1.5;"/><line style="stroke:#A80036;stroke-width:1.5;" x1="697.25" x2="697.25" y1="306.5732" y2="477.9131"/><line style="stroke:#A80036;stroke-width:1.5;" x1="697.25" x2="607.25" y1="477.9131" y2="477.9131"/><polygon fill="#A80036" points="617.25,473.9131,607.25,477.9131,617.25,481.9131,613.25,477.9131" style="stroke:#A80036;stroke-width:1.0;"/><line style="stroke:#A80036;stroke-width:1.5;" x1="595.25" x2="595.25" y1="445.9131" y2="465.9131"/><polygon fill="#A80036" points="591.25,455.9131,595.25,465.9131,599.25,455.9131,595.25,459.9131" style="stroke:#A80036;stroke-width:1.0;"/><line style="stroke:#A80036;stroke-width:1.5;" x1="595.25" x2="595.25" y1="274.5732" y2="294.5732"/><polygon fill="#A80036" points="591.25,284.5732,595.25,294.5732,599.25,284.5732,595.25,288.5732" style="stroke:#A80036;stroke-width:1.0;"/><line style="stroke:#A80036;stroke-width:1.5;" x1="276.25" x2="276.25" y1="166.6357" y2="171.6357"/><line style="stroke:#A80036;stroke-width:1.5;" x1="276.25" x2="595.25" y1="171.6357" y2="171.6357"/><line style="stroke:#A80036;stroke-width:1.5;" x1="595.25" x2="595.25" y1="171.6357" y2="186.6357"/><polygon fill="#A80036" points="591.25,176.6357,595.25,186.6357,599.25,176.6357,595.25,180.6357" style="stroke:#A80036;stroke-width:1.0;"/><line style="stroke:#A80036;stroke-width:1.5;" x1="595.25" x2="595.25" y1="489.9131" y2="494.9131"/><line style="stroke:#A80036;stroke-width:1.5;" x1="595.25" x2="276.25" y1="494.9131" y2="494.9131"/><line style="stroke:#A80036;stroke-width:1.5;" x1="276.25" x2="276.25" y1="494.9131" y2="509.9131"/><polygon fill="#A80036" points="272.25,499.9131,276.25,509.9131,280.25,499.9131,276.25,503.9131" style="stroke:#A80036;stroke-width:1.0;"/><line style="stroke:#A80036;stroke-width:1.5;" x1="145.5" x2="145.5" y1="695.8193" y2="700.8193"/><line style="stroke:#A80036;stroke-width:1.5;" x1="145.5" x2="464.75" y1="700.8193" y2="700.8193"/><line style="stroke:#A80036;stroke-width:1.5;" x1="464.75" x2="464.75" y1="700.8193" y2="715.8193"/><polygon fill="#A80036" points="460.75,705.8193,464.75,715.8193,468.75,705.8193,464.75,709.8193" style="stroke:#A80036;stroke-width:1.0;"/><line style="stroke:#A80036;stroke-width:1.5;" x1="342.75" x2="726" y1="575.8818" y2="575.8818"/><line style="stroke:#A80036;stroke-width:1.5;" x1="726" x2="726" y1="575.8818" y2="607.8818"/><polygon fill="#A80036" points="722,597.8818,726,607.8818,730,597.8818,726,601.8818" style="stroke:#A80036;stroke-width:1.0;"/><line style="stroke:#A80036;stroke-width:1.5;" x1="464.75" x2="464.75" y1="749.7881" y2="753.7881"/><line style="stroke:#A80036;stroke-width:1.5;" x1="464.75" x2="246.25" y1="753.7881" y2="753.7881"/><line style="stroke:#A80036;stroke-width:1.5;" x1="246.25" x2="246.25" y1="753.7881" y2="771.7881"/><line style="stroke:#A80036;stroke-width:1.5;" x1="246.25" x2="264.25" y1="771.7881" y2="771.7881"/><polygon fill="#A80036" points="254.25,767.7881,264.25,771.7881,254.25,775.7881,258.25,771.7881" style="stroke:#A80036;stroke-width:1.0;"/><line style="stroke:#A80036;stroke-width:1.5;" x1="726" x2="726" y1="641.8506" y2="771.7881"/><line style="stroke:#A80036;stroke-width:1.5;" x1="726" x2="288.25" y1="771.7881" y2="771.7881"/><polygon fill="#A80036" points="298.25,767.7881,288.25,771.7881,298.25,775.7881,294.25,771.7881" style="stroke:#A80036;stroke-width:1.0;"/><text fill="#000000" font-family="sans-serif" font-size="18" lengthAdjust="spacing" textLength="53" x="195.125" y="29.4531">Client</text><text fill="#000000" font-family="sans-serif" font-size="18" lengthAdjust="spacing" textLength="112" x="584.625" y="29.4531">Fournisseur</text><!--MD5=[e528ff6bf88f58d28bb0bb82a3ec66c9]
@startuml
|Client|
start
:Choisir produit dans catalogue;
:Acheminer commande et no carte de crédit;

|Fournisseur|
:Commande]
:Analyser commandes;
if (livraison désiré aujourdhui?) then (yes)
:Expédier commandes;
:Bon de facturation]
else (no)

endif
|Client|
:produit;
if (produit défectueux) then (yes)
:Aviser fournisseur produit défectueux;
:retourner produit;
|Fournisseur|
:Produit]
else (no)
:Confirmer paiement par le site web;
@enduml

PlantUML version 1.2021.3beta7(Unknown compile time)
(GPL source distribution)
Java Runtime: Java(TM) SE Runtime Environment
JVM: Java HotSpot(TM) 64-Bit Server VM
Default Encoding: UTF-8
Language: en
Country: US
--></g></svg>