<?xml version="1.0" encoding="UTF-8" standalone="no"?><svg xmlns="http://www.w3.org/2000/svg" xmlns:xlink="http://www.w3.org/1999/xlink" contentScriptType="application/ecmascript" contentStyleType="text/css" height="857px" preserveAspectRatio="none" style="width:939px;height:857px;" version="1.1" viewBox="0 0 939 857" width="939px" zoomAndPan="magnify"><defs><filter height="300%" id="f1hdn26gknszgj" width="300%" x="-1" y="-1"><feGaussianBlur result="blurOut" stdDeviation="2.0"/><feColorMatrix in="blurOut" result="blurOut2" type="matrix" values="0 0 0 0 0 0 0 0 0 0 0 0 0 0 0 0 0 0 .4 0"/><feOffset dx="4.0" dy="4.0" in="blurOut2" result="blurOut3"/><feBlend in="SourceGraphic" in2="blurOut3" mode="normal"/></filter></defs><g><ellipse cx="276.25" cy="48.6982" fill="#000000" filter="url(#f1hdn26gknszgj)" rx="10" ry="10" style="stroke:none;stroke-width:1.0;"/><rect fill="#FEFECE" filter="url(#f1hdn26gknszgj)" height="33.9688" rx="12.5" ry="12.5" style="stroke:#A80036;stroke-width:1.5;" width="204" x="174.25" y="78.6982"/><text fill="#000000" font-family="sans-serif" font-size="12" lengthAdjust="spacing" textLength="184" x="184.25" y="99.8369">Choisir produit dans catalogue</text><rect fill="#FEFECE" filter="url(#f1hdn26gknszgj)" height="33.9688" rx="12.5" ry="12.5" style="stroke:#A80036;stroke-width:1.5;" width="284" x="134.25" y="132.667"/><text fill="#000000" font-family="sans-serif" font-size="12" lengthAdjust="spacing" textLength="264" x="144.25" y="153.8057">Acheminer commande et no carte de crédit</text><rect fill="#FEFECE" filter="url(#f1hdn26gknszgj)" height="33.9688" style="stroke:#A80036;stroke-width:1.5;" width="130" x="211.25" y="348.542"/><text fill="#000000" font-family="sans-serif" font-size="12" lengthAdjust="spacing" textLength="110" x="221.25" y="369.6807">Bon de facturation</text><rect fill="#FEFECE" filter="url(#f1hdn26gknszgj)" height="33.9688" style="stroke:#A80036;stroke-width:1.5;" width="63" x="244.75" y="402.5107"/><text fill="#000000" font-family="sans-serif" font-size="12" lengthAdjust="spacing" textLength="43" x="254.75" y="423.6494">produit</text><polygon fill="#FEFECE" filter="url(#f1hdn26gknszgj)" points="221.75,456.4795,330.75,456.4795,342.75,468.4795,330.75,480.4795,221.75,480.4795,209.75,468.4795,221.75,456.4795" style="stroke:#A80036;stroke-width:1.5;"/><text fill="#000000" font-family="sans-serif" font-size="11" lengthAdjust="spacing" textLength="109" x="221.75" y="472.2876">produit défectueux</text><text fill="#000000" font-family="sans-serif" font-size="11" lengthAdjust="spacing" textLength="21" x="188.75" y="465.8853">yes</text><text fill="#000000" font-family="sans-serif" font-size="11" lengthAdjust="spacing" textLength="14" x="342.75" y="465.8853">no</text><rect fill="#FEFECE" filter="url(#f1hdn26gknszgj)" height="33.9688" rx="12.5" ry="12.5" style="stroke:#A80036;stroke-width:1.5;" width="249" x="21" y="500.4795"/><text fill="#000000" font-family="sans-serif" font-size="12" lengthAdjust="spacing" textLength="229" x="31" y="521.6182">Aviser fournisseur produit défectueux</text><rect fill="#FEFECE" filter="url(#f1hdn26gknszgj)" height="33.9688" rx="12.5" ry="12.5" style="stroke:#A80036;stroke-width:1.5;" width="124" x="83.5" y="554.4482"/><text fill="#000000" font-family="sans-serif" font-size="12" lengthAdjust="spacing" textLength="104" x="93.5" y="575.5869">retourner produit</text><rect fill="#FEFECE" filter="url(#f1hdn26gknszgj)" height="33.9688" style="stroke:#A80036;stroke-width:1.5;" width="125" x="83" y="730.3232"/><text fill="#000000" font-family="sans-serif" font-size="12" lengthAdjust="spacing" textLength="105" x="93" y="751.4619">accusé reception</text><polygon fill="#FEFECE" filter="url(#f1hdn26gknszgj)" points="276.25,774.292,288.25,786.292,276.25,798.292,264.25,786.292,276.25,774.292" style="stroke:#A80036;stroke-width:1.5;"/><line style="stroke:#000000;stroke-width:2.0;" x1="15" x2="15" y1="12.7451" y2="840.292"/><rect fill="#FEFECE" filter="url(#f1hdn26gknszgj)" height="33.9688" style="stroke:#A80036;stroke-width:1.5;" width="88" x="618" y="186.6357"/><text fill="#000000" font-family="sans-serif" font-size="12" lengthAdjust="spacing" textLength="68" x="628" y="207.7744">Commande</text><rect fill="#FEFECE" filter="url(#f1hdn26gknszgj)" height="33.9688" rx="12.5" ry="12.5" style="stroke:#A80036;stroke-width:1.5;" width="150" x="587" y="240.6045"/><text fill="#000000" font-family="sans-serif" font-size="12" lengthAdjust="spacing" textLength="130" x="597" y="261.7432">Analyser commandes</text><rect fill="#FEFECE" filter="url(#f1hdn26gknszgj)" height="33.9688" rx="12.5" ry="12.5" style="stroke:#A80036;stroke-width:1.5;" width="198" x="563" y="294.5732"/><text fill="#000000" font-family="sans-serif" font-size="12" lengthAdjust="spacing" textLength="178" x="573" y="315.7119">Expédier commandes du jour</text><rect fill="#FEFECE" filter="url(#f1hdn26gknszgj)" height="47.9375" style="stroke:#A80036;stroke-width:1.5;" width="98" x="482.25" y="608.417"/><text fill="#000000" font-family="sans-serif" font-size="12" lengthAdjust="spacing" textLength="43" x="492.25" y="629.5557">produit</text><text fill="#000000" font-family="sans-serif" font-size="12" lengthAdjust="spacing" textLength="78" x="492.25" y="643.5244">!défectueux!</text><rect fill="#FEFECE" filter="url(#f1hdn26gknszgj)" height="33.9688" rx="12.5" ry="12.5" style="stroke:#A80036;stroke-width:1.5;" width="194" x="434.25" y="676.3545"/><text fill="#000000" font-family="sans-serif" font-size="12" lengthAdjust="spacing" textLength="174" x="444.25" y="697.4932">Génére accusé de réception</text><rect fill="#FEFECE" filter="url(#f1hdn26gknszgj)" height="33.9688" rx="12.5" ry="12.5" style="stroke:#A80036;stroke-width:1.5;" width="234" x="675.75" y="500.4795"/><text fill="#000000" font-family="sans-serif" font-size="12" lengthAdjust="spacing" textLength="214" x="685.75" y="521.6182">Confirmer paiement par le site web</text><ellipse cx="662" cy="829.292" fill="#FFFFFF" filter="url(#f1hdn26gknszgj)" rx="11" ry="11" style="stroke:#000000;stroke-width:1.0;"/><ellipse cx="662" cy="829.292" fill="#000000" rx="6" ry="6" style="stroke:#7F7F7F;stroke-width:1.0;"/><line style="stroke:#000000;stroke-width:2.0;" x1="428.25" x2="428.25" y1="12.7451" y2="840.292"/><line style="stroke:#000000;stroke-width:2.0;" x1="919.75" x2="919.75" y1="12.7451" y2="840.292"/><line style="stroke:#A80036;stroke-width:1.5;" x1="276.25" x2="276.25" y1="58.6982" y2="78.6982"/><polygon fill="#A80036" points="272.25,68.6982,276.25,78.6982,280.25,68.6982,276.25,72.6982" style="stroke:#A80036;stroke-width:1.0;"/><line style="stroke:#A80036;stroke-width:1.5;" x1="276.25" x2="276.25" y1="112.667" y2="132.667"/><polygon fill="#A80036" points="272.25,122.667,276.25,132.667,280.25,122.667,276.25,126.667" style="stroke:#A80036;stroke-width:1.0;"/><line style="stroke:#A80036;stroke-width:1.5;" x1="276.25" x2="276.25" y1="382.5107" y2="402.5107"/><polygon fill="#A80036" points="272.25,392.5107,276.25,402.5107,280.25,392.5107,276.25,396.5107" style="stroke:#A80036;stroke-width:1.0;"/><line style="stroke:#A80036;stroke-width:1.5;" x1="145.5" x2="145.5" y1="534.4482" y2="554.4482"/><polygon fill="#A80036" points="141.5,544.4482,145.5,554.4482,149.5,544.4482,145.5,548.4482" style="stroke:#A80036;stroke-width:1.0;"/><line style="stroke:#A80036;stroke-width:1.5;" x1="209.75" x2="145.5" y1="468.4795" y2="468.4795"/><line style="stroke:#A80036;stroke-width:1.5;" x1="145.5" x2="145.5" y1="468.4795" y2="500.4795"/><polygon fill="#A80036" points="141.5,490.4795,145.5,500.4795,149.5,490.4795,145.5,494.4795" style="stroke:#A80036;stroke-width:1.0;"/><line style="stroke:#A80036;stroke-width:1.5;" x1="145.5" x2="145.5" y1="764.292" y2="786.292"/><line style="stroke:#A80036;stroke-width:1.5;" x1="145.5" x2="264.25" y1="786.292" y2="786.292"/><polygon fill="#A80036" points="254.25,782.292,264.25,786.292,254.25,790.292,258.25,786.292" style="stroke:#A80036;stroke-width:1.0;"/><line style="stroke:#A80036;stroke-width:1.5;" x1="276.25" x2="276.25" y1="436.4795" y2="456.4795"/><polygon fill="#A80036" points="272.25,446.4795,276.25,456.4795,280.25,446.4795,276.25,450.4795" style="stroke:#A80036;stroke-width:1.0;"/><line style="stroke:#A80036;stroke-width:1.5;" x1="662" x2="662" y1="220.6045" y2="240.6045"/><polygon fill="#A80036" points="658,230.6045,662,240.6045,666,230.6045,662,234.6045" style="stroke:#A80036;stroke-width:1.0;"/><line style="stroke:#A80036;stroke-width:1.5;" x1="662" x2="662" y1="274.5732" y2="294.5732"/><polygon fill="#A80036" points="658,284.5732,662,294.5732,666,284.5732,662,288.5732" style="stroke:#A80036;stroke-width:1.0;"/><line style="stroke:#A80036;stroke-width:1.5;" x1="531.25" x2="531.25" y1="656.3545" y2="676.3545"/><polygon fill="#A80036" points="527.25,666.3545,531.25,676.3545,535.25,666.3545,531.25,670.3545" style="stroke:#A80036;stroke-width:1.0;"/><line style="stroke:#A80036;stroke-width:1.5;" x1="276.25" x2="276.25" y1="166.6357" y2="171.6357"/><line style="stroke:#A80036;stroke-width:1.5;" x1="276.25" x2="662" y1="171.6357" y2="171.6357"/><line style="stroke:#A80036;stroke-width:1.5;" x1="662" x2="662" y1="171.6357" y2="186.6357"/><polygon fill="#A80036" points="658,176.6357,662,186.6357,666,176.6357,662,180.6357" style="stroke:#A80036;stroke-width:1.0;"/><line style="stroke:#A80036;stroke-width:1.5;" x1="662" x2="662" y1="328.542" y2="333.542"/><line style="stroke:#A80036;stroke-width:1.5;" x1="662" x2="276.25" y1="333.542" y2="333.542"/><line style="stroke:#A80036;stroke-width:1.5;" x1="276.25" x2="276.25" y1="333.542" y2="348.542"/><polygon fill="#A80036" points="272.25,338.542,276.25,348.542,280.25,338.542,276.25,342.542" style="stroke:#A80036;stroke-width:1.0;"/><line style="stroke:#A80036;stroke-width:1.5;" x1="145.5" x2="145.5" y1="588.417" y2="593.417"/><line style="stroke:#A80036;stroke-width:1.5;" x1="145.5" x2="531.25" y1="593.417" y2="593.417"/><line style="stroke:#A80036;stroke-width:1.5;" x1="531.25" x2="531.25" y1="593.417" y2="608.417"/><polygon fill="#A80036" points="527.25,598.417,531.25,608.417,535.25,598.417,531.25,602.417" style="stroke:#A80036;stroke-width:1.0;"/><line style="stroke:#A80036;stroke-width:1.5;" x1="531.25" x2="531.25" y1="710.3232" y2="715.3232"/><line style="stroke:#A80036;stroke-width:1.5;" x1="531.25" x2="145.5" y1="715.3232" y2="715.3232"/><line style="stroke:#A80036;stroke-width:1.5;" x1="145.5" x2="145.5" y1="715.3232" y2="730.3232"/><polygon fill="#A80036" points="141.5,720.3232,145.5,730.3232,149.5,720.3232,145.5,724.3232" style="stroke:#A80036;stroke-width:1.0;"/><line style="stroke:#A80036;stroke-width:1.5;" x1="342.75" x2="792.75" y1="468.4795" y2="468.4795"/><line style="stroke:#A80036;stroke-width:1.5;" x1="792.75" x2="792.75" y1="468.4795" y2="500.4795"/><polygon fill="#A80036" points="788.75,490.4795,792.75,500.4795,796.75,490.4795,792.75,494.4795" style="stroke:#A80036;stroke-width:1.0;"/><line style="stroke:#A80036;stroke-width:1.5;" x1="792.75" x2="792.75" y1="534.4482" y2="786.292"/><line style="stroke:#A80036;stroke-width:1.5;" x1="792.75" x2="288.25" y1="786.292" y2="786.292"/><polygon fill="#A80036" points="298.25,782.292,288.25,786.292,298.25,790.292,294.25,786.292" style="stroke:#A80036;stroke-width:1.0;"/><line style="stroke:#A80036;stroke-width:1.5;" x1="276.25" x2="276.25" y1="798.292" y2="803.292"/><line style="stroke:#A80036;stroke-width:1.5;" x1="276.25" x2="662" y1="803.292" y2="803.292"/><line style="stroke:#A80036;stroke-width:1.5;" x1="662" x2="662" y1="803.292" y2="818.292"/><polygon fill="#A80036" points="658,808.292,662,818.292,666,808.292,662,812.292" style="stroke:#A80036;stroke-width:1.0;"/><text fill="#000000" font-family="sans-serif" font-size="18" lengthAdjust="spacing" textLength="53" x="195.125" y="29.4531">Client</text><text fill="#000000" font-family="sans-serif" font-size="18" lengthAdjust="spacing" textLength="112" x="618" y="29.4531">Fournisseur</text><!--MD5=[f5819c9007b4d21d1a01ba21599093ee]
@startuml
|Client|
start
:Choisir produit dans catalogue;
:Acheminer commande et no carte de crédit;

|Fournisseur|
:Commande]
:Analyser commandes;
:Expédier commandes du jour;
|Client|
:Bon de facturation]
:produit]
if (produit défectueux) then (yes)
:Aviser fournisseur produit défectueux;
:retourner produit;
|Fournisseur|
:produit\n!défectueux!]
:Génére accusé de réception;
|Client|
:accusé reception]
else (no)
|Fournisseur|
:Confirmer paiement par le site web;
endif

stop
@enduml

PlantUML version 1.2021.3beta7(Unknown compile time)
(GPL source distribution)
Java Runtime: Java(TM) SE Runtime Environment
JVM: Java HotSpot(TM) 64-Bit Server VM
Default Encoding: UTF-8
Language: en
Country: US
--></g></svg>