<?xml version="1.0" encoding="UTF-8" standalone="no"?><svg xmlns="http://www.w3.org/2000/svg" xmlns:xlink="http://www.w3.org/1999/xlink" contentScriptType="application/ecmascript" contentStyleType="text/css" height="832px" preserveAspectRatio="none" style="width:858px;height:832px;background:#FFFFFF;" version="1.1" viewBox="0 0 858 832" width="858px" zoomAndPan="magnify"><defs><filter height="300%" id="ftdpjzz0mwt6k" width="300%" x="-1" y="-1"><feGaussianBlur result="blurOut" stdDeviation="2.0"/><feColorMatrix in="blurOut" result="blurOut2" type="matrix" values="0 0 0 0 0 0 0 0 0 0 0 0 0 0 0 0 0 0 .4 0"/><feOffset dx="4.0" dy="4.0" in="blurOut2" result="blurOut3"/><feBlend in="SourceGraphic" in2="blurOut3" mode="normal"/></filter></defs><g><!--MD5=[378b18254a1b2429f435e93f5e5cc50c]
class C--><rect codeLine="1" fill="#FEFECE" filter="url(#ftdpjzz0mwt6k)" height="124.8281" id="C" style="stroke:#A80036;stroke-width:1.5;" width="270" x="511.5" y="7"/><ellipse cx="575.25" cy="23" fill="#ADD1B2" rx="11" ry="11" style="stroke:#A80036;stroke-width:1.0;"/><path d="M577.5938,18.6719 C576.6563,18.2344 576.0625,18.0938 575.1875,18.0938 C572.5625,18.0938 570.5625,20.1719 570.5625,22.8906 L570.5625,24.0156 C570.5625,26.5938 572.6719,28.4844 575.5625,28.4844 C576.7813,28.4844 577.9375,28.1875 578.6875,27.6406 C579.2656,27.2344 579.5938,26.7813 579.5938,26.3906 C579.5938,25.9375 579.2031,25.5469 578.7344,25.5469 C578.5156,25.5469 578.3125,25.625 578.125,25.8125 C577.6719,26.2969 577.6719,26.2969 577.4844,26.3906 C577.0625,26.6563 576.375,26.7813 575.6094,26.7813 C573.5625,26.7813 572.2656,25.6875 572.2656,23.9844 L572.2656,22.8906 C572.2656,21.1094 573.5156,19.7969 575.25,19.7969 C575.8281,19.7969 576.4375,19.9531 576.9063,20.2031 C577.3906,20.4844 577.5625,20.7031 577.6563,21.1094 C577.7188,21.5156 577.75,21.6406 577.8906,21.7656 C578.0313,21.9063 578.2656,22.0156 578.4844,22.0156 C578.75,22.0156 579.0156,21.875 579.1875,21.6563 C579.2969,21.5 579.3281,21.3125 579.3281,20.8906 L579.3281,19.4688 C579.3281,19.0313 579.3125,18.9063 579.2188,18.75 C579.0625,18.4844 578.7813,18.3438 578.4844,18.3438 C578.1875,18.3438 577.9844,18.4375 577.7656,18.75 L577.5938,18.6719 Z " fill="#000000"/><text fill="#000000" font-family="sans-serif" font-size="12" lengthAdjust="spacing" textLength="134" x="595.75" y="27.1543">ControleurReservation</text><line style="stroke:#A80036;stroke-width:1.5;" x1="512.5" x2="780.5" y1="39" y2="39"/><text fill="#000000" font-family="sans-serif" font-size="11" lengthAdjust="spacing" textLength="141" x="517.5" y="53.2104">listLivres: List&lt;:Livre&gt;" {</text><text fill="#000000" font-family="sans-serif" font-size="11" lengthAdjust="spacing" textLength="186" x="517.5" y="66.0151">mapLivres: Map&lt;nom, :Livre&gt;" {</text><line style="stroke:#A80036;stroke-width:1.5;" x1="512.5" x2="780.5" y1="72.6094" y2="72.6094"/><text fill="#000000" font-family="sans-serif" font-size="11" lengthAdjust="spacing" textLength="150" x="517.5" y="86.8198">demarrerRechercheLivre()</text><text fill="#000000" font-family="sans-serif" font-size="11" lengthAdjust="spacing" textLength="258" x="517.5" y="99.6245">rechercherLivre(texte:string): list&lt;Livre:json&gt;</text><text fill="#000000" font-family="sans-serif" font-size="11" lengthAdjust="spacing" textLength="204" x="517.5" y="112.4292">selectionnerLivre(livre:string): string</text><text fill="#000000" font-family="sans-serif" font-size="11" lengthAdjust="spacing" textLength="184" x="517.5" y="125.2339">reserverExemplaire(code:string)</text><!--MD5=[ca86e0a6a0e0c1496e70ac1078033fbc]
class M--><rect codeLine="9" fill="#FEFECE" filter="url(#ftdpjzz0mwt6k)" height="66.7422" id="M" style="stroke:#A80036;stroke-width:1.5;" width="82" x="267.5" y="362"/><ellipse cx="282.5" cy="380.9688" fill="#ADD1B2" rx="11" ry="11" style="stroke:#A80036;stroke-width:1.0;"/><path d="M284.8438,376.6406 C283.9063,376.2031 283.3125,376.0625 282.4375,376.0625 C279.8125,376.0625 277.8125,378.1406 277.8125,380.8594 L277.8125,381.9844 C277.8125,384.5625 279.9219,386.4531 282.8125,386.4531 C284.0313,386.4531 285.1875,386.1563 285.9375,385.6094 C286.5156,385.2031 286.8438,384.75 286.8438,384.3594 C286.8438,383.9063 286.4531,383.5156 285.9844,383.5156 C285.7656,383.5156 285.5625,383.5938 285.375,383.7813 C284.9219,384.2656 284.9219,384.2656 284.7344,384.3594 C284.3125,384.625 283.625,384.75 282.8594,384.75 C280.8125,384.75 279.5156,383.6563 279.5156,381.9531 L279.5156,380.8594 C279.5156,379.0781 280.7656,377.7656 282.5,377.7656 C283.0781,377.7656 283.6875,377.9219 284.1563,378.1719 C284.6406,378.4531 284.8125,378.6719 284.9063,379.0781 C284.9688,379.4844 285,379.6094 285.1406,379.7344 C285.2813,379.875 285.5156,379.9844 285.7344,379.9844 C286,379.9844 286.2656,379.8438 286.4375,379.625 C286.5469,379.4688 286.5781,379.2813 286.5781,378.8594 L286.5781,377.4375 C286.5781,377 286.5625,376.875 286.4688,376.7188 C286.3125,376.4531 286.0313,376.3125 285.7344,376.3125 C285.4375,376.3125 285.2344,376.4063 285.0156,376.7188 L284.8438,376.6406 Z " fill="#000000"/><text fill="#000000" font-family="sans-serif" font-size="12" font-style="italic" lengthAdjust="spacing" textLength="39" x="302" y="378.1387">«Role»</text><text fill="#000000" font-family="sans-serif" font-size="12" lengthAdjust="spacing" textLength="50" x="296.5" y="392.1074">Membre</text><line style="stroke:#A80036;stroke-width:1.5;" x1="268.5" x2="348.5" y1="399.9375" y2="399.9375"/><text fill="#000000" font-family="sans-serif" font-size="11" lengthAdjust="spacing" textLength="63" x="273.5" y="414.1479">nom: string</text><line style="stroke:#A80036;stroke-width:1.5;" x1="268.5" x2="348.5" y1="420.7422" y2="420.7422"/><!--MD5=[69c451c751c414e37549b782190fef46]
class B--><rect codeLine="13" fill="#FEFECE" filter="url(#ftdpjzz0mwt6k)" height="92.3516" id="B" style="stroke:#A80036;stroke-width:1.5;" width="303" x="273" y="193"/><ellipse cx="382.75" cy="211.9688" fill="#ADD1B2" rx="11" ry="11" style="stroke:#A80036;stroke-width:1.0;"/><path d="M385.0938,207.6406 C384.1563,207.2031 383.5625,207.0625 382.6875,207.0625 C380.0625,207.0625 378.0625,209.1406 378.0625,211.8594 L378.0625,212.9844 C378.0625,215.5625 380.1719,217.4531 383.0625,217.4531 C384.2813,217.4531 385.4375,217.1563 386.1875,216.6094 C386.7656,216.2031 387.0938,215.75 387.0938,215.3594 C387.0938,214.9063 386.7031,214.5156 386.2344,214.5156 C386.0156,214.5156 385.8125,214.5938 385.625,214.7813 C385.1719,215.2656 385.1719,215.2656 384.9844,215.3594 C384.5625,215.625 383.875,215.75 383.1094,215.75 C381.0625,215.75 379.7656,214.6563 379.7656,212.9531 L379.7656,211.8594 C379.7656,210.0781 381.0156,208.7656 382.75,208.7656 C383.3281,208.7656 383.9375,208.9219 384.4063,209.1719 C384.8906,209.4531 385.0625,209.6719 385.1563,210.0781 C385.2188,210.4844 385.25,210.6094 385.3906,210.7344 C385.5313,210.875 385.7656,210.9844 385.9844,210.9844 C386.25,210.9844 386.5156,210.8438 386.6875,210.625 C386.7969,210.4688 386.8281,210.2813 386.8281,209.8594 L386.8281,208.4375 C386.8281,208 386.8125,207.875 386.7188,207.7188 C386.5625,207.4531 386.2813,207.3125 385.9844,207.3125 C385.6875,207.3125 385.4844,207.4063 385.2656,207.7188 L385.0938,207.6406 Z " fill="#000000"/><text fill="#000000" font-family="sans-serif" font-size="12" font-style="italic" lengthAdjust="spacing" textLength="77" x="402.25" y="209.1387">«Conteneur»</text><text fill="#000000" font-family="sans-serif" font-size="12" lengthAdjust="spacing" textLength="75" x="403.25" y="223.1074">Bibliotheque</text><line style="stroke:#A80036;stroke-width:1.5;" x1="274" x2="575" y1="230.9375" y2="230.9375"/><line style="stroke:#A80036;stroke-width:1.5;" x1="274" x2="575" y1="238.9375" y2="238.9375"/><text fill="#000000" font-family="sans-serif" font-size="11" lengthAdjust="spacing" textLength="209" x="279" y="253.1479">rechercherLivre(texte:string): [:Livre]</text><text fill="#000000" font-family="sans-serif" font-size="11" lengthAdjust="spacing" textLength="291" x="279" y="265.9526">selectionnerLivre(livre:string): [:Livre,[:Exemplaire]]</text><text fill="#000000" font-family="sans-serif" font-size="11" lengthAdjust="spacing" textLength="226" x="279" y="278.7573">getExemplaire(code:string): Exemplaire</text><!--MD5=[8832394f0f955ca405dbc7ff727aede1]
class L--><rect codeLine="19" fill="#FEFECE" filter="url(#ftdpjzz0mwt6k)" height="169.1797" id="L" style="stroke:#A80036;stroke-width:1.5;" width="293" x="500" y="506"/><ellipse cx="578.25" cy="524.9688" fill="#ADD1B2" rx="11" ry="11" style="stroke:#A80036;stroke-width:1.0;"/><path d="M580.5938,520.6406 C579.6563,520.2031 579.0625,520.0625 578.1875,520.0625 C575.5625,520.0625 573.5625,522.1406 573.5625,524.8594 L573.5625,525.9844 C573.5625,528.5625 575.6719,530.4531 578.5625,530.4531 C579.7813,530.4531 580.9375,530.1563 581.6875,529.6094 C582.2656,529.2031 582.5938,528.75 582.5938,528.3594 C582.5938,527.9063 582.2031,527.5156 581.7344,527.5156 C581.5156,527.5156 581.3125,527.5938 581.125,527.7813 C580.6719,528.2656 580.6719,528.2656 580.4844,528.3594 C580.0625,528.625 579.375,528.75 578.6094,528.75 C576.5625,528.75 575.2656,527.6563 575.2656,525.9531 L575.2656,524.8594 C575.2656,523.0781 576.5156,521.7656 578.25,521.7656 C578.8281,521.7656 579.4375,521.9219 579.9063,522.1719 C580.3906,522.4531 580.5625,522.6719 580.6563,523.0781 C580.7188,523.4844 580.75,523.6094 580.8906,523.7344 C581.0313,523.875 581.2656,523.9844 581.4844,523.9844 C581.75,523.9844 582.0156,523.8438 582.1875,523.625 C582.2969,523.4688 582.3281,523.2813 582.3281,522.8594 L582.3281,521.4375 C582.3281,521 582.3125,520.875 582.2188,520.7188 C582.0625,520.4531 581.7813,520.3125 581.4844,520.3125 C581.1875,520.3125 580.9844,520.4063 580.7656,520.7188 L580.5938,520.6406 Z " fill="#000000"/><text fill="#000000" font-family="sans-serif" font-size="12" font-style="italic" lengthAdjust="spacing" textLength="132" x="596.75" y="522.1387">«Description d'entité»</text><text fill="#000000" font-family="sans-serif" font-size="12" lengthAdjust="spacing" textLength="29" x="648.25" y="536.1074">Livre</text><line style="stroke:#A80036;stroke-width:1.5;" x1="501" x2="792" y1="543.9375" y2="543.9375"/><text fill="#000000" font-family="sans-serif" font-size="11" lengthAdjust="spacing" textLength="281" x="506" y="558.1479">mapExemplaires: Map&lt;code:string, :Exemplaire&gt;</text><text fill="#000000" font-family="sans-serif" font-size="11" lengthAdjust="spacing" textLength="63" x="506" y="570.9526">titre: String</text><text fill="#000000" font-family="sans-serif" font-size="11" lengthAdjust="spacing" text-decoration="line-through" textLength="77" x="506" y="583.7573">auteur: String</text><text fill="#000000" font-family="sans-serif" font-size="11" lengthAdjust="spacing" textLength="63" x="506" y="596.562">isbn: String</text><text fill="#000000" font-family="sans-serif" font-size="11" lengthAdjust="spacing" text-decoration="line-through" textLength="119" x="506" y="609.3667">maisonEdition: String</text><text fill="#000000" font-family="sans-serif" font-size="11" lengthAdjust="spacing" textLength="92" x="506" y="622.1714">noEdition: String</text><text fill="#000000" font-family="sans-serif" font-size="11" lengthAdjust="spacing" textLength="85" x="506" y="634.9761">annee: integer</text><line style="stroke:#A80036;stroke-width:1.5;" x1="501" x2="792" y1="641.5703" y2="641.5703"/><text fill="#000000" font-family="sans-serif" font-size="11" lengthAdjust="spacing" textLength="188" x="506" y="655.7808">[Exemplaire] = getExemplaires()</text><text fill="#000000" font-family="sans-serif" font-size="11" lengthAdjust="spacing" textLength="237" x="506" y="668.5854">exemplaire = getExemplaire(code:string)</text><!--MD5=[5770339cf2a060176908a0b962164876]
class ME--><rect codeLine="30" fill="#FEFECE" filter="url(#ftdpjzz0mwt6k)" height="53.9375" id="ME" style="stroke:#A80036;stroke-width:1.5;" width="160" x="577.5" y="758.5"/><ellipse cx="592.5" cy="777.4688" fill="#ADD1B2" rx="11" ry="11" style="stroke:#A80036;stroke-width:1.0;"/><path d="M594.8438,773.1406 C593.9063,772.7031 593.3125,772.5625 592.4375,772.5625 C589.8125,772.5625 587.8125,774.6406 587.8125,777.3594 L587.8125,778.4844 C587.8125,781.0625 589.9219,782.9531 592.8125,782.9531 C594.0313,782.9531 595.1875,782.6563 595.9375,782.1094 C596.5156,781.7031 596.8438,781.25 596.8438,780.8594 C596.8438,780.4063 596.4531,780.0156 595.9844,780.0156 C595.7656,780.0156 595.5625,780.0938 595.375,780.2813 C594.9219,780.7656 594.9219,780.7656 594.7344,780.8594 C594.3125,781.125 593.625,781.25 592.8594,781.25 C590.8125,781.25 589.5156,780.1563 589.5156,778.4531 L589.5156,777.3594 C589.5156,775.5781 590.7656,774.2656 592.5,774.2656 C593.0781,774.2656 593.6875,774.4219 594.1563,774.6719 C594.6406,774.9531 594.8125,775.1719 594.9063,775.5781 C594.9688,775.9844 595,776.1094 595.1406,776.2344 C595.2813,776.375 595.5156,776.4844 595.7344,776.4844 C596,776.4844 596.2656,776.3438 596.4375,776.125 C596.5469,775.9688 596.5781,775.7813 596.5781,775.3594 L596.5781,773.9375 C596.5781,773.5 596.5625,773.375 596.4688,773.2188 C596.3125,772.9531 596.0313,772.8125 595.7344,772.8125 C595.4375,772.8125 595.2344,772.9063 595.0156,773.2188 L594.8438,773.1406 Z " fill="#000000"/><text fill="#000000" font-family="sans-serif" font-size="12" font-style="italic" lengthAdjust="spacing" textLength="132" x="604.5" y="774.6387">«Description d'entité»</text><text fill="#000000" font-family="sans-serif" font-size="12" lengthAdjust="spacing" textLength="82" x="629.5" y="788.6074">MaisonEdition</text><line style="stroke:#A80036;stroke-width:1.5;" x1="578.5" x2="736.5" y1="796.4375" y2="796.4375"/><line style="stroke:#A80036;stroke-width:1.5;" x1="578.5" x2="736.5" y1="804.4375" y2="804.4375"/><!--MD5=[a46ee5ce0ceb0380cf446a08a056dce4]
class A--><rect codeLine="31" fill="#FEFECE" filter="url(#ftdpjzz0mwt6k)" height="53.9375" id="A" style="stroke:#A80036;stroke-width:1.5;" width="71" x="773" y="758.5"/><ellipse cx="788" cy="777.4688" fill="#ADD1B2" rx="11" ry="11" style="stroke:#A80036;stroke-width:1.0;"/><path d="M790.3438,773.1406 C789.4063,772.7031 788.8125,772.5625 787.9375,772.5625 C785.3125,772.5625 783.3125,774.6406 783.3125,777.3594 L783.3125,778.4844 C783.3125,781.0625 785.4219,782.9531 788.3125,782.9531 C789.5313,782.9531 790.6875,782.6563 791.4375,782.1094 C792.0156,781.7031 792.3438,781.25 792.3438,780.8594 C792.3438,780.4063 791.9531,780.0156 791.4844,780.0156 C791.2656,780.0156 791.0625,780.0938 790.875,780.2813 C790.4219,780.7656 790.4219,780.7656 790.2344,780.8594 C789.8125,781.125 789.125,781.25 788.3594,781.25 C786.3125,781.25 785.0156,780.1563 785.0156,778.4531 L785.0156,777.3594 C785.0156,775.5781 786.2656,774.2656 788,774.2656 C788.5781,774.2656 789.1875,774.4219 789.6563,774.6719 C790.1406,774.9531 790.3125,775.1719 790.4063,775.5781 C790.4688,775.9844 790.5,776.1094 790.6406,776.2344 C790.7813,776.375 791.0156,776.4844 791.2344,776.4844 C791.5,776.4844 791.7656,776.3438 791.9375,776.125 C792.0469,775.9688 792.0781,775.7813 792.0781,775.3594 L792.0781,773.9375 C792.0781,773.5 792.0625,773.375 791.9688,773.2188 C791.8125,772.9531 791.5313,772.8125 791.2344,772.8125 C790.9375,772.8125 790.7344,772.9063 790.5156,773.2188 L790.3438,773.1406 Z " fill="#000000"/><text fill="#000000" font-family="sans-serif" font-size="12" font-style="italic" lengthAdjust="spacing" textLength="39" x="802" y="774.6387">«Role»</text><text fill="#000000" font-family="sans-serif" font-size="12" lengthAdjust="spacing" textLength="39" x="802" y="788.6074">Auteur</text><line style="stroke:#A80036;stroke-width:1.5;" x1="774" x2="843" y1="796.4375" y2="796.4375"/><line style="stroke:#A80036;stroke-width:1.5;" x1="774" x2="843" y1="804.4375" y2="804.4375"/><!--MD5=[21477f35ad8a308409b4785c1fd11580]
class EL--><rect codeLine="32" fill="#FEFECE" filter="url(#ftdpjzz0mwt6k)" height="66.7422" id="EL" style="stroke:#A80036;stroke-width:1.5;" width="535" x="7" y="752"/><ellipse cx="22" cy="770.9688" fill="#ADD1B2" rx="11" ry="11" style="stroke:#A80036;stroke-width:1.0;"/><path d="M24.3438,766.6406 C23.4063,766.2031 22.8125,766.0625 21.9375,766.0625 C19.3125,766.0625 17.3125,768.1406 17.3125,770.8594 L17.3125,771.9844 C17.3125,774.5625 19.4219,776.4531 22.3125,776.4531 C23.5313,776.4531 24.6875,776.1563 25.4375,775.6094 C26.0156,775.2031 26.3438,774.75 26.3438,774.3594 C26.3438,773.9063 25.9531,773.5156 25.4844,773.5156 C25.2656,773.5156 25.0625,773.5938 24.875,773.7813 C24.4219,774.2656 24.4219,774.2656 24.2344,774.3594 C23.8125,774.625 23.125,774.75 22.3594,774.75 C20.3125,774.75 19.0156,773.6563 19.0156,771.9531 L19.0156,770.8594 C19.0156,769.0781 20.2656,767.7656 22,767.7656 C22.5781,767.7656 23.1875,767.9219 23.6563,768.1719 C24.1406,768.4531 24.3125,768.6719 24.4063,769.0781 C24.4688,769.4844 24.5,769.6094 24.6406,769.7344 C24.7813,769.875 25.0156,769.9844 25.2344,769.9844 C25.5,769.9844 25.7656,769.8438 25.9375,769.625 C26.0469,769.4688 26.0781,769.2813 26.0781,768.8594 L26.0781,767.4375 C26.0781,767 26.0625,766.875 25.9688,766.7188 C25.8125,766.4531 25.5313,766.3125 25.2344,766.3125 C24.9375,766.3125 24.7344,766.4063 24.5156,766.7188 L24.3438,766.6406 Z " fill="#000000"/><text fill="#000000" font-family="sans-serif" font-size="12" font-style="italic" lengthAdjust="spacing" textLength="507" x="34" y="768.1387">«Objet physique, contenue de Bibiliotheque, Produit ou service lié a un transaction»</text><text fill="#000000" font-family="sans-serif" font-size="12" lengthAdjust="spacing" textLength="96" x="239.5" y="782.1074">ExemplaireLivre</text><line style="stroke:#A80036;stroke-width:1.5;" x1="8" x2="541" y1="789.9375" y2="789.9375"/><text fill="#000000" font-family="sans-serif" font-size="11" lengthAdjust="spacing" textLength="66" x="13" y="804.1479">code: string</text><line style="stroke:#A80036;stroke-width:1.5;" x1="8" x2="541" y1="810.7422" y2="810.7422"/><!--MD5=[c75e629d71444dd998043aef5ce1a035]
class R--><rect codeLine="35" fill="#FEFECE" filter="url(#ftdpjzz0mwt6k)" height="79.5469" id="R" style="stroke:#A80036;stroke-width:1.5;" width="259" x="173" y="550.5"/><ellipse cx="258.25" cy="569.4688" fill="#ADD1B2" rx="11" ry="11" style="stroke:#A80036;stroke-width:1.0;"/><path d="M260.5938,565.1406 C259.6563,564.7031 259.0625,564.5625 258.1875,564.5625 C255.5625,564.5625 253.5625,566.6406 253.5625,569.3594 L253.5625,570.4844 C253.5625,573.0625 255.6719,574.9531 258.5625,574.9531 C259.7813,574.9531 260.9375,574.6563 261.6875,574.1094 C262.2656,573.7031 262.5938,573.25 262.5938,572.8594 C262.5938,572.4063 262.2031,572.0156 261.7344,572.0156 C261.5156,572.0156 261.3125,572.0938 261.125,572.2813 C260.6719,572.7656 260.6719,572.7656 260.4844,572.8594 C260.0625,573.125 259.375,573.25 258.6094,573.25 C256.5625,573.25 255.2656,572.1563 255.2656,570.4531 L255.2656,569.3594 C255.2656,567.5781 256.5156,566.2656 258.25,566.2656 C258.8281,566.2656 259.4375,566.4219 259.9063,566.6719 C260.3906,566.9531 260.5625,567.1719 260.6563,567.5781 C260.7188,567.9844 260.75,568.1094 260.8906,568.2344 C261.0313,568.375 261.2656,568.4844 261.4844,568.4844 C261.75,568.4844 262.0156,568.3438 262.1875,568.125 C262.2969,567.9688 262.3281,567.7813 262.3281,567.3594 L262.3281,565.9375 C262.3281,565.5 262.3125,565.375 262.2188,565.2188 C262.0625,564.9531 261.7813,564.8125 261.4844,564.8125 C261.1875,564.8125 260.9844,564.9063 260.7656,565.2188 L260.5938,565.1406 Z " fill="#000000"/><text fill="#000000" font-family="sans-serif" font-size="12" font-style="italic" lengthAdjust="spacing" textLength="84" x="276.75" y="566.6387">«Transaction»</text><text fill="#000000" font-family="sans-serif" font-size="12" lengthAdjust="spacing" textLength="71" x="283.25" y="580.6074">Reservation</text><line style="stroke:#A80036;stroke-width:1.5;" x1="174" x2="431" y1="588.4375" y2="588.4375"/><text fill="#000000" font-family="sans-serif" font-size="11" lengthAdjust="spacing" textLength="118" x="179" y="602.6479">noReservation:String</text><line style="stroke:#A80036;stroke-width:1.5;" x1="174" x2="431" y1="609.2422" y2="609.2422"/><text fill="#000000" font-family="sans-serif" font-size="11" lengthAdjust="spacing" textLength="247" x="179" y="623.4526">create(m:Membre, exemplaire:Exemplaire)</text><!--MD5=[42e092837d90c53e9069d09c19a87a72]
link C to L--><path codeLine="40" d="M637.897,132.074 C632.838,223.437 632.408,395.386 636.606,500.463 " fill="none" id="C-to-L" style="stroke:#A80036;stroke-width:1.0;"/><polygon fill="#A80036" points="636.822,505.726,640.4509,496.5701,636.6177,500.7302,632.4576,496.8969,636.822,505.726" style="stroke:#A80036;stroke-width:1.0;"/><text fill="#000000" font-family="sans-serif" font-size="13" lengthAdjust="spacing" textLength="7" x="602.3195" y="479.8456">*</text><text fill="#000000" font-family="sans-serif" font-size="13" lengthAdjust="spacing" textLength="56" x="577.8195" y="494.9784">listLivres</text><!--MD5=[42e092837d90c53e9069d09c19a87a72]
link C to L--><path codeLine="41" d="M655.609,132.074 C660.965,223.437 661.421,395.386 656.976,500.463 " fill="none" id="C-to-L-1" style="stroke:#A80036;stroke-width:1.0;"/><polygon fill="#A80036" points="656.747,505.726,661.1341,496.9082,656.9641,500.7307,653.1416,496.5608,656.747,505.726" style="stroke:#A80036;stroke-width:1.0;"/><text fill="#000000" font-family="sans-serif" font-size="13" lengthAdjust="spacing" textLength="7" x="690.2331" y="479.8456">*</text><text fill="#000000" font-family="sans-serif" font-size="13" lengthAdjust="spacing" textLength="67" x="660.2331" y="494.9784">mapLivres</text><!--MD5=[6291c0d3307b2cbc2af8540ba9b7bf8b]
link L to EL--><path codeLine="42" d="M499.743,667.64 C445.128,695.975 385.784,726.7641 341.725,749.6224 " fill="none" id="L-to-EL" style="stroke:#A80036;stroke-width:1.0;"/><polygon fill="#A80036" points="337.241,751.949,347.0719,751.3544,341.6791,749.6462,343.3873,744.2534,337.241,751.949" style="stroke:#A80036;stroke-width:1.0;"/><text fill="#000000" font-family="sans-serif" font-size="13" lengthAdjust="spacing" textLength="7" x="341.9041" y="740.9724">*</text><!--MD5=[a9a08eed061a1d2941776fe900dc520e]
link C to B--><path codeLine="43" d="M564.781,132.157 C539.537,151.204 512.117,171.893 488.271,189.884 " fill="none" id="C-to-B" style="stroke:#A80036;stroke-width:1.0;"/><polygon fill="#A80036" points="484.17,192.979,493.7637,190.7516,488.1614,189.9676,488.9454,184.3653,484.17,192.979" style="stroke:#A80036;stroke-width:1.0;"/><!--MD5=[6809d0e1032577198481489005663320]
link B to L--><path codeLine="45" d="M450.493,285.124 C472.946,323.696 506.562,380.49 537.5,429 C552.675,452.794 569.592,478.205 585.486,501.627 " fill="none" id="B-to-L" style="stroke:#A80036;stroke-width:1.0;"/><polygon fill="#A80036" points="588.442,505.976,586.6926,496.2838,585.632,501.8403,580.0755,500.7797,588.442,505.976" style="stroke:#A80036;stroke-width:1.0;"/><text fill="#000000" font-family="sans-serif" font-size="13" lengthAdjust="spacing" textLength="62" x="539.5" y="392.5669">permet la</text><text fill="#000000" font-family="sans-serif" font-size="13" lengthAdjust="spacing" textLength="64" x="538.5" y="407.6997">recherche</text><text fill="#000000" font-family="sans-serif" font-size="13" lengthAdjust="spacing" textLength="7" x="575.9595" y="494.8449">*</text><!--MD5=[e421206e26d51baba452c60eb8654270]
reverse link M to R--><path codeLine="46" d="M307.319,434.474 C306.28,467.92 304.771,516.44 303.72,550.26 " fill="none" id="M-backto-R" style="stroke:#A80036;stroke-width:1.0;"/><polygon fill="#A80036" points="307.482,429.24,303.2036,438.1111,307.3263,434.2376,311.1997,438.3602,307.482,429.24" style="stroke:#A80036;stroke-width:1.0;"/><polygon fill="#000000" points="311.6553,462.5688,308.4368,471.5182,314.3118,471.7008,311.6553,462.5688" style="stroke:#000000;stroke-width:1.0;"/><text fill="#000000" font-family="sans-serif" font-size="13" lengthAdjust="spacing" textLength="78" x="320.5" y="472.0669">est fait pour</text><text fill="#000000" font-family="sans-serif" font-size="13" lengthAdjust="spacing" textLength="7" x="296.3424" y="539.4685">*</text><!--MD5=[8a6e51bfb12971110294edbb3fe46231]
link R to EL--><path codeLine="47" d="M296.834,630.556 C291.919,664.432 284.85,713.156 279.989,746.6671 " fill="none" id="R-to-EL" style="stroke:#A80036;stroke-width:1.0;"/><polygon fill="#A80036" points="279.228,751.9103,284.4788,743.5779,279.9459,746.9621,276.5617,742.4292,279.228,751.9103" style="stroke:#A80036;stroke-width:1.0;"/><text fill="#000000" font-family="sans-serif" font-size="13" lengthAdjust="spacing" textLength="49" x="287.5" y="718.0669">reserve</text><!--MD5=[4efe9c9b39f82859eed5318deb302426]
reverse link L to A--><path codeLine="48" d="M719.861,678.9 C744.021,707.683 769.096,737.5557 786.384,758.1523 " fill="none" id="L-backto-A" style="stroke:#A80036;stroke-width:1.0;"/><polygon fill="#A80036" points="716.613,675.03,719.3364,684.4948,719.828,678.8594,725.4634,679.3509,716.613,675.03" style="stroke:#A80036;stroke-width:1.0;"/><polygon fill="#000000" points="752.2854,709.7367,755.8496,718.5542,760.3517,714.7752,752.2854,709.7367" style="stroke:#000000;stroke-width:1.0;"/><text fill="#000000" font-family="sans-serif" font-size="13" lengthAdjust="spacing" textLength="85" x="764.5" y="718.0669">sont écrit par</text><text fill="#000000" font-family="sans-serif" font-size="13" lengthAdjust="spacing" textLength="7" x="715.5457" y="695.2912">*</text><!--MD5=[f5803f2053f33503bc3dc98b94cb0b90]
reverse link L to ME--><path codeLine="49" d="M651.562,680.31 C653.177,708.656 654.844,737.8919 655.998,758.1523 " fill="none" id="L-backto-ME" style="stroke:#A80036;stroke-width:1.0;"/><polygon fill="#A80036" points="651.261,675.03,647.7817,684.2438,651.5467,680.0218,655.7686,683.7868,651.261,675.03" style="stroke:#A80036;stroke-width:1.0;"/><polygon fill="#000000" points="658.2155,708.5745,655.796,717.7721,661.6643,717.4377,658.2155,708.5745" style="stroke:#000000;stroke-width:1.0;"/><text fill="#000000" font-family="sans-serif" font-size="13" lengthAdjust="spacing" textLength="32" x="667.5" y="718.0669">edite</text><text fill="#000000" font-family="sans-serif" font-size="13" lengthAdjust="spacing" textLength="7" x="644.3733" y="695.2912">*</text><!--MD5=[a693038997eff77a7e76722032805788]
link B to M--><path codeLine="50" d="M345.555,285.019 C335.449,293.782 326.283,303.787 319.5,315 C311.062,328.949 308.04,346.753 307.245,361.976 " fill="none" id="B-M" style="stroke:#A80036;stroke-width:1.0;"/><text fill="#000000" font-family="sans-serif" font-size="13" lengthAdjust="spacing" textLength="120" x="320.5" y="328.0669">offre des service à</text><text fill="#000000" font-family="sans-serif" font-size="13" lengthAdjust="spacing" textLength="7" x="299.3089" y="351.0047">*</text><!--MD5=[2f72b1242d99976546f42cf6d99c163c]
@startuml
class C as "ControleurReservation"{
  listLivres: List<:Livre>" {
  mapLivres: Map<nom, :Livre>" {
  demarrerRechercheLivre() 
  rechercherLivre(texte:string): list<Livre:json>
  selectionnerLivre(livre:string): string
  reserverExemplaire(code:string)
}
class M as "Membre" <<Role>>{
  nom: string
}

class B as "Bibliotheque" <<Conteneur>>{
  rechercherLivre(texte:string): [:Livre]
  selectionnerLivre(livre:string): [:Livre,[:Exemplaire]]
  getExemplaire(code:string): Exemplaire
}

class L as "Livre" << Description d'entité>>   {
  mapExemplaires: Map<code:string, :Exemplaire>
  titre: String
  <s>auteur: String</s>
  isbn: String
  <s>maisonEdition: String</s>
  noEdition: String
  annee: integer
  [Exemplaire] = getExemplaires()
  exemplaire = getExemplaire(code:string) 
} 
class ME as "MaisonEdition" <<Description d'entité>>
class A as "Auteur" <<Role>>
class EL as "ExemplaireLivre" <<Objet physique, contenue de Bibiliotheque, Produit ou service lié a un transaction>>{
  code: string
}
class R  as "Reservation" <<Transaction>> {
  noReservation:String
  create(m:Membre, exemplaire:Exemplaire)
}

C - ->"*\nlistLivres" L
C - -> "*\nmapLivres" L
L - -> "*" EL
C - -> B

B - - ->"*" L: permet la\nrecherche
M <- -"*" R: est fait pour <
R - -> EL:  reserve 
L "*"<- - A: sont écrit par <
L "*" <- - ME: edite <
B - - "*" M: offre des service à
@enduml

PlantUML version 1.2021.7(Sun May 23 12:40:07 UTC 2021)
(GPL source distribution)
Java Runtime: Java(TM) SE Runtime Environment
JVM: Java HotSpot(TM) 64-Bit Server VM
Default Encoding: UTF-8
Language: en
Country: US
--></g></svg>