<?xml version="1.0" encoding="UTF-8" standalone="no"?><svg xmlns="http://www.w3.org/2000/svg" xmlns:xlink="http://www.w3.org/1999/xlink" contentScriptType="application/ecmascript" contentStyleType="text/css" height="806px" preserveAspectRatio="none" style="width:825px;height:806px;" version="1.1" viewBox="0 0 825 806" width="825px" zoomAndPan="magnify"><defs><filter height="300%" id="fwbee3mbby3xc" width="300%" x="-1" y="-1"><feGaussianBlur result="blurOut" stdDeviation="2.0"/><feColorMatrix in="blurOut" result="blurOut2" type="matrix" values="0 0 0 0 0 0 0 0 0 0 0 0 0 0 0 0 0 0 .4 0"/><feOffset dx="4.0" dy="4.0" in="blurOut2" result="blurOut3"/><feBlend in="SourceGraphic" in2="blurOut3" mode="normal"/></filter></defs><g><!--MD5=[378b18254a1b2429f435e93f5e5cc50c]
class C--><rect codeLine="1" fill="#FEFECE" filter="url(#fwbee3mbby3xc)" height="99.2188" id="C" style="stroke:#A80036;stroke-width:1.5;" width="270" x="310.5" y="7"/><ellipse cx="374.25" cy="23" fill="#ADD1B2" rx="11" ry="11" style="stroke:#A80036;stroke-width:1.0;"/><path d="M376.5938,18.6719 C375.6563,18.2344 375.0625,18.0938 374.1875,18.0938 C371.5625,18.0938 369.5625,20.1719 369.5625,22.8906 L369.5625,24.0156 C369.5625,26.5938 371.6719,28.4844 374.5625,28.4844 C375.7813,28.4844 376.9375,28.1875 377.6875,27.6406 C378.2656,27.2344 378.5938,26.7813 378.5938,26.3906 C378.5938,25.9375 378.2031,25.5469 377.7344,25.5469 C377.5156,25.5469 377.3125,25.625 377.125,25.8125 C376.6719,26.2969 376.6719,26.2969 376.4844,26.3906 C376.0625,26.6563 375.375,26.7813 374.6094,26.7813 C372.5625,26.7813 371.2656,25.6875 371.2656,23.9844 L371.2656,22.8906 C371.2656,21.1094 372.5156,19.7969 374.25,19.7969 C374.8281,19.7969 375.4375,19.9531 375.9063,20.2031 C376.3906,20.4844 376.5625,20.7031 376.6563,21.1094 C376.7188,21.5156 376.75,21.6406 376.8906,21.7656 C377.0313,21.9063 377.2656,22.0156 377.4844,22.0156 C377.75,22.0156 378.0156,21.875 378.1875,21.6563 C378.2969,21.5 378.3281,21.3125 378.3281,20.8906 L378.3281,19.4688 C378.3281,19.0313 378.3125,18.9063 378.2188,18.75 C378.0625,18.4844 377.7813,18.3438 377.4844,18.3438 C377.1875,18.3438 376.9844,18.4375 376.7656,18.75 L376.5938,18.6719 Z " fill="#000000"/><text fill="#000000" font-family="sans-serif" font-size="12" lengthAdjust="spacing" textLength="134" x="394.75" y="27.1543">ControleurReservation</text><line style="stroke:#A80036;stroke-width:1.5;" x1="311.5" x2="579.5" y1="39" y2="39"/><line style="stroke:#A80036;stroke-width:1.5;" x1="311.5" x2="579.5" y1="47" y2="47"/><text fill="#000000" font-family="sans-serif" font-size="11" lengthAdjust="spacing" textLength="150" x="316.5" y="61.2104">demarrerRechercheLivre()</text><text fill="#000000" font-family="sans-serif" font-size="11" lengthAdjust="spacing" textLength="258" x="316.5" y="74.0151">rechercherLivre(texte:string): list&lt;Livre:json&gt;</text><text fill="#000000" font-family="sans-serif" font-size="11" lengthAdjust="spacing" textLength="204" x="316.5" y="86.8198">selectionnerLivre(livre:string): string</text><text fill="#000000" font-family="sans-serif" font-size="11" lengthAdjust="spacing" textLength="184" x="316.5" y="99.6245">reserverExemplaire(code:string)</text><!--MD5=[ca86e0a6a0e0c1496e70ac1078033fbc]
class M--><rect codeLine="7" fill="#FEFECE" filter="url(#fwbee3mbby3xc)" height="66.7422" id="M" style="stroke:#A80036;stroke-width:1.5;" width="82" x="98.5" y="380.5"/><ellipse cx="113.5" cy="399.4688" fill="#ADD1B2" rx="11" ry="11" style="stroke:#A80036;stroke-width:1.0;"/><path d="M115.8438,395.1406 C114.9063,394.7031 114.3125,394.5625 113.4375,394.5625 C110.8125,394.5625 108.8125,396.6406 108.8125,399.3594 L108.8125,400.4844 C108.8125,403.0625 110.9219,404.9531 113.8125,404.9531 C115.0313,404.9531 116.1875,404.6563 116.9375,404.1094 C117.5156,403.7031 117.8438,403.25 117.8438,402.8594 C117.8438,402.4063 117.4531,402.0156 116.9844,402.0156 C116.7656,402.0156 116.5625,402.0938 116.375,402.2813 C115.9219,402.7656 115.9219,402.7656 115.7344,402.8594 C115.3125,403.125 114.625,403.25 113.8594,403.25 C111.8125,403.25 110.5156,402.1563 110.5156,400.4531 L110.5156,399.3594 C110.5156,397.5781 111.7656,396.2656 113.5,396.2656 C114.0781,396.2656 114.6875,396.4219 115.1563,396.6719 C115.6406,396.9531 115.8125,397.1719 115.9063,397.5781 C115.9688,397.9844 116,398.1094 116.1406,398.2344 C116.2813,398.375 116.5156,398.4844 116.7344,398.4844 C117,398.4844 117.2656,398.3438 117.4375,398.125 C117.5469,397.9688 117.5781,397.7813 117.5781,397.3594 L117.5781,395.9375 C117.5781,395.5 117.5625,395.375 117.4688,395.2188 C117.3125,394.9531 117.0313,394.8125 116.7344,394.8125 C116.4375,394.8125 116.2344,394.9063 116.0156,395.2188 L115.8438,395.1406 Z " fill="#000000"/><text fill="#000000" font-family="sans-serif" font-size="12" font-style="italic" lengthAdjust="spacing" textLength="39" x="133" y="396.6387">«Role»</text><text fill="#000000" font-family="sans-serif" font-size="12" lengthAdjust="spacing" textLength="50" x="127.5" y="410.6074">Membre</text><line style="stroke:#A80036;stroke-width:1.5;" x1="99.5" x2="179.5" y1="418.4375" y2="418.4375"/><text fill="#000000" font-family="sans-serif" font-size="11" lengthAdjust="spacing" textLength="63" x="104.5" y="432.6479">nom: string</text><line style="stroke:#A80036;stroke-width:1.5;" x1="99.5" x2="179.5" y1="439.2422" y2="439.2422"/><!--MD5=[69c451c751c414e37549b782190fef46]
class B--><rect codeLine="11" fill="#FEFECE" filter="url(#fwbee3mbby3xc)" height="92.3516" id="B" style="stroke:#A80036;stroke-width:1.5;" width="303" x="18" y="167"/><ellipse cx="127.75" cy="185.9688" fill="#ADD1B2" rx="11" ry="11" style="stroke:#A80036;stroke-width:1.0;"/><path d="M130.0938,181.6406 C129.1563,181.2031 128.5625,181.0625 127.6875,181.0625 C125.0625,181.0625 123.0625,183.1406 123.0625,185.8594 L123.0625,186.9844 C123.0625,189.5625 125.1719,191.4531 128.0625,191.4531 C129.2813,191.4531 130.4375,191.1563 131.1875,190.6094 C131.7656,190.2031 132.0938,189.75 132.0938,189.3594 C132.0938,188.9063 131.7031,188.5156 131.2344,188.5156 C131.0156,188.5156 130.8125,188.5938 130.625,188.7813 C130.1719,189.2656 130.1719,189.2656 129.9844,189.3594 C129.5625,189.625 128.875,189.75 128.1094,189.75 C126.0625,189.75 124.7656,188.6563 124.7656,186.9531 L124.7656,185.8594 C124.7656,184.0781 126.0156,182.7656 127.75,182.7656 C128.3281,182.7656 128.9375,182.9219 129.4063,183.1719 C129.8906,183.4531 130.0625,183.6719 130.1563,184.0781 C130.2188,184.4844 130.25,184.6094 130.3906,184.7344 C130.5313,184.875 130.7656,184.9844 130.9844,184.9844 C131.25,184.9844 131.5156,184.8438 131.6875,184.625 C131.7969,184.4688 131.8281,184.2813 131.8281,183.8594 L131.8281,182.4375 C131.8281,182 131.8125,181.875 131.7188,181.7188 C131.5625,181.4531 131.2813,181.3125 130.9844,181.3125 C130.6875,181.3125 130.4844,181.4063 130.2656,181.7188 L130.0938,181.6406 Z " fill="#000000"/><text fill="#000000" font-family="sans-serif" font-size="12" font-style="italic" lengthAdjust="spacing" textLength="77" x="147.25" y="183.1387">«Conteneur»</text><text fill="#000000" font-family="sans-serif" font-size="12" lengthAdjust="spacing" textLength="75" x="148.25" y="197.1074">Bibliotheque</text><line style="stroke:#A80036;stroke-width:1.5;" x1="19" x2="320" y1="204.9375" y2="204.9375"/><line style="stroke:#A80036;stroke-width:1.5;" x1="19" x2="320" y1="212.9375" y2="212.9375"/><text fill="#000000" font-family="sans-serif" font-size="11" lengthAdjust="spacing" textLength="209" x="24" y="227.1479">rechercherLivre(texte:string): [:Livre]</text><text fill="#000000" font-family="sans-serif" font-size="11" lengthAdjust="spacing" textLength="291" x="24" y="239.9526">selectionnerLivre(livre:string): [:Livre,[:Exemplaire]]</text><text fill="#000000" font-family="sans-serif" font-size="11" lengthAdjust="spacing" textLength="226" x="24" y="252.7573">getExemplaire(code:string): Exemplaire</text><!--MD5=[8832394f0f955ca405dbc7ff727aede1]
class L--><rect codeLine="17" fill="#FEFECE" filter="url(#fwbee3mbby3xc)" height="156.375" id="L" style="stroke:#A80036;stroke-width:1.5;" width="249" x="406" y="336"/><ellipse cx="462.25" cy="354.9688" fill="#ADD1B2" rx="11" ry="11" style="stroke:#A80036;stroke-width:1.0;"/><path d="M464.5938,350.6406 C463.6563,350.2031 463.0625,350.0625 462.1875,350.0625 C459.5625,350.0625 457.5625,352.1406 457.5625,354.8594 L457.5625,355.9844 C457.5625,358.5625 459.6719,360.4531 462.5625,360.4531 C463.7813,360.4531 464.9375,360.1563 465.6875,359.6094 C466.2656,359.2031 466.5938,358.75 466.5938,358.3594 C466.5938,357.9063 466.2031,357.5156 465.7344,357.5156 C465.5156,357.5156 465.3125,357.5938 465.125,357.7813 C464.6719,358.2656 464.6719,358.2656 464.4844,358.3594 C464.0625,358.625 463.375,358.75 462.6094,358.75 C460.5625,358.75 459.2656,357.6563 459.2656,355.9531 L459.2656,354.8594 C459.2656,353.0781 460.5156,351.7656 462.25,351.7656 C462.8281,351.7656 463.4375,351.9219 463.9063,352.1719 C464.3906,352.4531 464.5625,352.6719 464.6563,353.0781 C464.7188,353.4844 464.75,353.6094 464.8906,353.7344 C465.0313,353.875 465.2656,353.9844 465.4844,353.9844 C465.75,353.9844 466.0156,353.8438 466.1875,353.625 C466.2969,353.4688 466.3281,353.2813 466.3281,352.8594 L466.3281,351.4375 C466.3281,351 466.3125,350.875 466.2188,350.7188 C466.0625,350.4531 465.7813,350.3125 465.4844,350.3125 C465.1875,350.3125 464.9844,350.4063 464.7656,350.7188 L464.5938,350.6406 Z " fill="#000000"/><text fill="#000000" font-family="sans-serif" font-size="12" font-style="italic" lengthAdjust="spacing" textLength="132" x="480.75" y="352.1387">«Description d'entité»</text><text fill="#000000" font-family="sans-serif" font-size="12" lengthAdjust="spacing" textLength="29" x="532.25" y="366.1074">Livre</text><line style="stroke:#A80036;stroke-width:1.5;" x1="407" x2="654" y1="373.9375" y2="373.9375"/><text fill="#000000" font-family="sans-serif" font-size="11" lengthAdjust="spacing" textLength="63" x="412" y="388.1479">titre: String</text><text fill="#000000" font-family="sans-serif" font-size="11" lengthAdjust="spacing" text-decoration="line-through" textLength="77" x="412" y="400.9526">auteur: String</text><text fill="#000000" font-family="sans-serif" font-size="11" lengthAdjust="spacing" textLength="63" x="412" y="413.7573">isbn: String</text><text fill="#000000" font-family="sans-serif" font-size="11" lengthAdjust="spacing" text-decoration="line-through" textLength="119" x="412" y="426.562">maisonEdition: String</text><text fill="#000000" font-family="sans-serif" font-size="11" lengthAdjust="spacing" textLength="92" x="412" y="439.3667">noEdition: String</text><text fill="#000000" font-family="sans-serif" font-size="11" lengthAdjust="spacing" textLength="85" x="412" y="452.1714">annee: integer</text><line style="stroke:#A80036;stroke-width:1.5;" x1="407" x2="654" y1="458.7656" y2="458.7656"/><text fill="#000000" font-family="sans-serif" font-size="11" lengthAdjust="spacing" textLength="188" x="412" y="472.9761">[Exemplaire] = getExemplaires()</text><text fill="#000000" font-family="sans-serif" font-size="11" lengthAdjust="spacing" textLength="237" x="412" y="485.7808">exemplaire = getExemplaire(code:string)</text><!--MD5=[5770339cf2a060176908a0b962164876]
class ME--><rect codeLine="27" fill="#FEFECE" filter="url(#fwbee3mbby3xc)" height="53.9375" id="ME" style="stroke:#A80036;stroke-width:1.5;" width="160" x="301.5" y="582"/><ellipse cx="316.5" cy="600.9688" fill="#ADD1B2" rx="11" ry="11" style="stroke:#A80036;stroke-width:1.0;"/><path d="M318.8438,596.6406 C317.9063,596.2031 317.3125,596.0625 316.4375,596.0625 C313.8125,596.0625 311.8125,598.1406 311.8125,600.8594 L311.8125,601.9844 C311.8125,604.5625 313.9219,606.4531 316.8125,606.4531 C318.0313,606.4531 319.1875,606.1563 319.9375,605.6094 C320.5156,605.2031 320.8438,604.75 320.8438,604.3594 C320.8438,603.9063 320.4531,603.5156 319.9844,603.5156 C319.7656,603.5156 319.5625,603.5938 319.375,603.7813 C318.9219,604.2656 318.9219,604.2656 318.7344,604.3594 C318.3125,604.625 317.625,604.75 316.8594,604.75 C314.8125,604.75 313.5156,603.6563 313.5156,601.9531 L313.5156,600.8594 C313.5156,599.0781 314.7656,597.7656 316.5,597.7656 C317.0781,597.7656 317.6875,597.9219 318.1563,598.1719 C318.6406,598.4531 318.8125,598.6719 318.9063,599.0781 C318.9688,599.4844 319,599.6094 319.1406,599.7344 C319.2813,599.875 319.5156,599.9844 319.7344,599.9844 C320,599.9844 320.2656,599.8438 320.4375,599.625 C320.5469,599.4688 320.5781,599.2813 320.5781,598.8594 L320.5781,597.4375 C320.5781,597 320.5625,596.875 320.4688,596.7188 C320.3125,596.4531 320.0313,596.3125 319.7344,596.3125 C319.4375,596.3125 319.2344,596.4063 319.0156,596.7188 L318.8438,596.6406 Z " fill="#000000"/><text fill="#000000" font-family="sans-serif" font-size="12" font-style="italic" lengthAdjust="spacing" textLength="132" x="328.5" y="598.1387">«Description d'entité»</text><text fill="#000000" font-family="sans-serif" font-size="12" lengthAdjust="spacing" textLength="82" x="353.5" y="612.1074">MaisonEdition</text><line style="stroke:#A80036;stroke-width:1.5;" x1="302.5" x2="460.5" y1="619.9375" y2="619.9375"/><line style="stroke:#A80036;stroke-width:1.5;" x1="302.5" x2="460.5" y1="627.9375" y2="627.9375"/><!--MD5=[a46ee5ce0ceb0380cf446a08a056dce4]
class A--><rect codeLine="28" fill="#FEFECE" filter="url(#fwbee3mbby3xc)" height="53.9375" id="A" style="stroke:#A80036;stroke-width:1.5;" width="71" x="497" y="582"/><ellipse cx="512" cy="600.9688" fill="#ADD1B2" rx="11" ry="11" style="stroke:#A80036;stroke-width:1.0;"/><path d="M514.3438,596.6406 C513.4063,596.2031 512.8125,596.0625 511.9375,596.0625 C509.3125,596.0625 507.3125,598.1406 507.3125,600.8594 L507.3125,601.9844 C507.3125,604.5625 509.4219,606.4531 512.3125,606.4531 C513.5313,606.4531 514.6875,606.1563 515.4375,605.6094 C516.0156,605.2031 516.3438,604.75 516.3438,604.3594 C516.3438,603.9063 515.9531,603.5156 515.4844,603.5156 C515.2656,603.5156 515.0625,603.5938 514.875,603.7813 C514.4219,604.2656 514.4219,604.2656 514.2344,604.3594 C513.8125,604.625 513.125,604.75 512.3594,604.75 C510.3125,604.75 509.0156,603.6563 509.0156,601.9531 L509.0156,600.8594 C509.0156,599.0781 510.2656,597.7656 512,597.7656 C512.5781,597.7656 513.1875,597.9219 513.6563,598.1719 C514.1406,598.4531 514.3125,598.6719 514.4063,599.0781 C514.4688,599.4844 514.5,599.6094 514.6406,599.7344 C514.7813,599.875 515.0156,599.9844 515.2344,599.9844 C515.5,599.9844 515.7656,599.8438 515.9375,599.625 C516.0469,599.4688 516.0781,599.2813 516.0781,598.8594 L516.0781,597.4375 C516.0781,597 516.0625,596.875 515.9688,596.7188 C515.8125,596.4531 515.5313,596.3125 515.2344,596.3125 C514.9375,596.3125 514.7344,596.4063 514.5156,596.7188 L514.3438,596.6406 Z " fill="#000000"/><text fill="#000000" font-family="sans-serif" font-size="12" font-style="italic" lengthAdjust="spacing" textLength="39" x="526" y="598.1387">«Role»</text><text fill="#000000" font-family="sans-serif" font-size="12" lengthAdjust="spacing" textLength="39" x="526" y="612.1074">Auteur</text><line style="stroke:#A80036;stroke-width:1.5;" x1="498" x2="567" y1="619.9375" y2="619.9375"/><line style="stroke:#A80036;stroke-width:1.5;" x1="498" x2="567" y1="627.9375" y2="627.9375"/><!--MD5=[21477f35ad8a308409b4785c1fd11580]
class EL--><rect codeLine="29" fill="#FEFECE" filter="url(#fwbee3mbby3xc)" height="66.7422" id="EL" style="stroke:#A80036;stroke-width:1.5;" width="535" x="216" y="726"/><ellipse cx="231" cy="744.9688" fill="#ADD1B2" rx="11" ry="11" style="stroke:#A80036;stroke-width:1.0;"/><path d="M233.3438,740.6406 C232.4063,740.2031 231.8125,740.0625 230.9375,740.0625 C228.3125,740.0625 226.3125,742.1406 226.3125,744.8594 L226.3125,745.9844 C226.3125,748.5625 228.4219,750.4531 231.3125,750.4531 C232.5313,750.4531 233.6875,750.1563 234.4375,749.6094 C235.0156,749.2031 235.3438,748.75 235.3438,748.3594 C235.3438,747.9063 234.9531,747.5156 234.4844,747.5156 C234.2656,747.5156 234.0625,747.5938 233.875,747.7813 C233.4219,748.2656 233.4219,748.2656 233.2344,748.3594 C232.8125,748.625 232.125,748.75 231.3594,748.75 C229.3125,748.75 228.0156,747.6563 228.0156,745.9531 L228.0156,744.8594 C228.0156,743.0781 229.2656,741.7656 231,741.7656 C231.5781,741.7656 232.1875,741.9219 232.6563,742.1719 C233.1406,742.4531 233.3125,742.6719 233.4063,743.0781 C233.4688,743.4844 233.5,743.6094 233.6406,743.7344 C233.7813,743.875 234.0156,743.9844 234.2344,743.9844 C234.5,743.9844 234.7656,743.8438 234.9375,743.625 C235.0469,743.4688 235.0781,743.2813 235.0781,742.8594 L235.0781,741.4375 C235.0781,741 235.0625,740.875 234.9688,740.7188 C234.8125,740.4531 234.5313,740.3125 234.2344,740.3125 C233.9375,740.3125 233.7344,740.4063 233.5156,740.7188 L233.3438,740.6406 Z " fill="#000000"/><text fill="#000000" font-family="sans-serif" font-size="12" font-style="italic" lengthAdjust="spacing" textLength="507" x="243" y="742.1387">«Objet physique, contenue de Bibiliotheque, Produit ou service lié a un transaction»</text><text fill="#000000" font-family="sans-serif" font-size="12" lengthAdjust="spacing" textLength="96" x="448.5" y="756.1074">ExemplaireLivre</text><line style="stroke:#A80036;stroke-width:1.5;" x1="217" x2="750" y1="763.9375" y2="763.9375"/><text fill="#000000" font-family="sans-serif" font-size="11" lengthAdjust="spacing" textLength="66" x="222" y="778.1479">code: string</text><line style="stroke:#A80036;stroke-width:1.5;" x1="217" x2="750" y1="784.7422" y2="784.7422"/><!--MD5=[c75e629d71444dd998043aef5ce1a035]
class R--><rect codeLine="32" fill="#FEFECE" filter="url(#fwbee3mbby3xc)" height="79.5469" id="R" style="stroke:#A80036;stroke-width:1.5;" width="259" x="7" y="569"/><ellipse cx="92.25" cy="587.9688" fill="#ADD1B2" rx="11" ry="11" style="stroke:#A80036;stroke-width:1.0;"/><path d="M94.5938,583.6406 C93.6563,583.2031 93.0625,583.0625 92.1875,583.0625 C89.5625,583.0625 87.5625,585.1406 87.5625,587.8594 L87.5625,588.9844 C87.5625,591.5625 89.6719,593.4531 92.5625,593.4531 C93.7813,593.4531 94.9375,593.1563 95.6875,592.6094 C96.2656,592.2031 96.5938,591.75 96.5938,591.3594 C96.5938,590.9063 96.2031,590.5156 95.7344,590.5156 C95.5156,590.5156 95.3125,590.5938 95.125,590.7813 C94.6719,591.2656 94.6719,591.2656 94.4844,591.3594 C94.0625,591.625 93.375,591.75 92.6094,591.75 C90.5625,591.75 89.2656,590.6563 89.2656,588.9531 L89.2656,587.8594 C89.2656,586.0781 90.5156,584.7656 92.25,584.7656 C92.8281,584.7656 93.4375,584.9219 93.9063,585.1719 C94.3906,585.4531 94.5625,585.6719 94.6563,586.0781 C94.7188,586.4844 94.75,586.6094 94.8906,586.7344 C95.0313,586.875 95.2656,586.9844 95.4844,586.9844 C95.75,586.9844 96.0156,586.8438 96.1875,586.625 C96.2969,586.4688 96.3281,586.2813 96.3281,585.8594 L96.3281,584.4375 C96.3281,584 96.3125,583.875 96.2188,583.7188 C96.0625,583.4531 95.7813,583.3125 95.4844,583.3125 C95.1875,583.3125 94.9844,583.4063 94.7656,583.7188 L94.5938,583.6406 Z " fill="#000000"/><text fill="#000000" font-family="sans-serif" font-size="12" font-style="italic" lengthAdjust="spacing" textLength="84" x="110.75" y="585.1387">«Transaction»</text><text fill="#000000" font-family="sans-serif" font-size="12" lengthAdjust="spacing" textLength="71" x="117.25" y="599.1074">Reservation</text><line style="stroke:#A80036;stroke-width:1.5;" x1="8" x2="265" y1="606.9375" y2="606.9375"/><text fill="#000000" font-family="sans-serif" font-size="11" lengthAdjust="spacing" textLength="118" x="13" y="621.1479">noReservation:String</text><line style="stroke:#A80036;stroke-width:1.5;" x1="8" x2="265" y1="627.7422" y2="627.7422"/><text fill="#000000" font-family="sans-serif" font-size="11" lengthAdjust="spacing" textLength="247" x="13" y="641.9526">create(m:Membre, exemplaire:Exemplaire)</text><!--MD5=[b3c4cffaebeb1ca91d3860615de3212f]
class LL--><rect codeLine="37" fill="#FEFECE" filter="url(#fwbee3mbby3xc)" height="60.8047" id="LL" style="stroke:#A80036;stroke-width:1.5;" width="178" x="356.5" y="182.5"/><ellipse cx="412.75" cy="198.5" fill="#ADD1B2" rx="11" ry="11" style="stroke:#A80036;stroke-width:1.0;"/><path d="M415.0938,194.1719 C414.1563,193.7344 413.5625,193.5938 412.6875,193.5938 C410.0625,193.5938 408.0625,195.6719 408.0625,198.3906 L408.0625,199.5156 C408.0625,202.0938 410.1719,203.9844 413.0625,203.9844 C414.2813,203.9844 415.4375,203.6875 416.1875,203.1406 C416.7656,202.7344 417.0938,202.2813 417.0938,201.8906 C417.0938,201.4375 416.7031,201.0469 416.2344,201.0469 C416.0156,201.0469 415.8125,201.125 415.625,201.3125 C415.1719,201.7969 415.1719,201.7969 414.9844,201.8906 C414.5625,202.1563 413.875,202.2813 413.1094,202.2813 C411.0625,202.2813 409.7656,201.1875 409.7656,199.4844 L409.7656,198.3906 C409.7656,196.6094 411.0156,195.2969 412.75,195.2969 C413.3281,195.2969 413.9375,195.4531 414.4063,195.7031 C414.8906,195.9844 415.0625,196.2031 415.1563,196.6094 C415.2188,197.0156 415.25,197.1406 415.3906,197.2656 C415.5313,197.4063 415.7656,197.5156 415.9844,197.5156 C416.25,197.5156 416.5156,197.375 416.6875,197.1563 C416.7969,197 416.8281,196.8125 416.8281,196.3906 L416.8281,194.9688 C416.8281,194.5313 416.8125,194.4063 416.7188,194.25 C416.5625,193.9844 416.2813,193.8438 415.9844,193.8438 C415.6875,193.8438 415.4844,193.9375 415.2656,194.25 L415.0938,194.1719 Z " fill="#000000"/><text fill="#000000" font-family="sans-serif" font-size="12" lengthAdjust="spacing" textLength="20" x="433.25" y="202.6543">List</text><rect fill="#FFFFFF" height="15.9688" style="stroke:#000000;stroke-width:1.0;stroke-dasharray:2.0,2.0;" width="35" x="502.5" y="179.5"/><text fill="#000000" font-family="sans-serif" font-size="12" font-style="italic" lengthAdjust="spacing" textLength="33" x="503.5" y="191.6387">:Livre</text><line style="stroke:#A80036;stroke-width:1.5;" x1="357.5" x2="533.5" y1="214.5" y2="214.5"/><line style="stroke:#A80036;stroke-width:1.5;" x1="357.5" x2="533.5" y1="222.5" y2="222.5"/><text fill="#000000" font-family="sans-serif" font-size="11" lengthAdjust="spacing" textLength="166" x="362.5" y="236.7104">find(texte:string): List&lt;Livre&gt;</text><!--MD5=[d556d8ff01f08f9305ef22d72ffdd3ee]
class ML--><rect codeLine="40" fill="#FEFECE" filter="url(#fwbee3mbby3xc)" height="60.8047" id="ML" style="stroke:#A80036;stroke-width:1.5;" width="135" x="570" y="182.5"/><ellipse cx="587.7" cy="198.5" fill="#ADD1B2" rx="11" ry="11" style="stroke:#A80036;stroke-width:1.0;"/><path d="M590.0438,194.1719 C589.1063,193.7344 588.5125,193.5938 587.6375,193.5938 C585.0125,193.5938 583.0125,195.6719 583.0125,198.3906 L583.0125,199.5156 C583.0125,202.0938 585.1219,203.9844 588.0125,203.9844 C589.2313,203.9844 590.3875,203.6875 591.1375,203.1406 C591.7156,202.7344 592.0438,202.2813 592.0438,201.8906 C592.0438,201.4375 591.6531,201.0469 591.1844,201.0469 C590.9656,201.0469 590.7625,201.125 590.575,201.3125 C590.1219,201.7969 590.1219,201.7969 589.9344,201.8906 C589.5125,202.1563 588.825,202.2813 588.0594,202.2813 C586.0125,202.2813 584.7156,201.1875 584.7156,199.4844 L584.7156,198.3906 C584.7156,196.6094 585.9656,195.2969 587.7,195.2969 C588.2781,195.2969 588.8875,195.4531 589.3563,195.7031 C589.8406,195.9844 590.0125,196.2031 590.1063,196.6094 C590.1688,197.0156 590.2,197.1406 590.3406,197.2656 C590.4813,197.4063 590.7156,197.5156 590.9344,197.5156 C591.2,197.5156 591.4656,197.375 591.6375,197.1563 C591.7469,197 591.7781,196.8125 591.7781,196.3906 L591.7781,194.9688 C591.7781,194.5313 591.7625,194.4063 591.6688,194.25 C591.5125,193.9844 591.2313,193.8438 590.9344,193.8438 C590.6375,193.8438 590.4344,193.9375 590.2156,194.25 L590.0438,194.1719 Z " fill="#000000"/><text fill="#000000" font-family="sans-serif" font-size="12" lengthAdjust="spacing" textLength="25" x="602.3" y="202.6543">Map</text><rect fill="#FFFFFF" height="15.9688" style="stroke:#000000;stroke-width:1.0;stroke-dasharray:2.0,2.0;" width="70" x="638" y="179.5"/><text fill="#000000" font-family="sans-serif" font-size="12" font-style="italic" lengthAdjust="spacing" textLength="68" x="639" y="191.6387">nom, :Livre</text><line style="stroke:#A80036;stroke-width:1.5;" x1="571" x2="704" y1="214.5" y2="214.5"/><line style="stroke:#A80036;stroke-width:1.5;" x1="571" x2="704" y1="222.5" y2="222.5"/><text fill="#000000" font-family="sans-serif" font-size="11" lengthAdjust="spacing" textLength="123" x="576" y="236.7104">get(nom:String): Livre</text><!--MD5=[014b049addf265e43c05ebc439f769d6]
class MX--><rect codeLine="43" fill="#FEFECE" filter="url(#fwbee3mbby3xc)" height="60.8047" id="MX" style="stroke:#A80036;stroke-width:1.5;" width="208" x="603.5" y="578.5"/><ellipse cx="618.5" cy="594.5" fill="#ADD1B2" rx="11" ry="11" style="stroke:#A80036;stroke-width:1.0;"/><path d="M620.8438,590.1719 C619.9063,589.7344 619.3125,589.5938 618.4375,589.5938 C615.8125,589.5938 613.8125,591.6719 613.8125,594.3906 L613.8125,595.5156 C613.8125,598.0938 615.9219,599.9844 618.8125,599.9844 C620.0313,599.9844 621.1875,599.6875 621.9375,599.1406 C622.5156,598.7344 622.8438,598.2813 622.8438,597.8906 C622.8438,597.4375 622.4531,597.0469 621.9844,597.0469 C621.7656,597.0469 621.5625,597.125 621.375,597.3125 C620.9219,597.7969 620.9219,597.7969 620.7344,597.8906 C620.3125,598.1563 619.625,598.2813 618.8594,598.2813 C616.8125,598.2813 615.5156,597.1875 615.5156,595.4844 L615.5156,594.3906 C615.5156,592.6094 616.7656,591.2969 618.5,591.2969 C619.0781,591.2969 619.6875,591.4531 620.1563,591.7031 C620.6406,591.9844 620.8125,592.2031 620.9063,592.6094 C620.9688,593.0156 621,593.1406 621.1406,593.2656 C621.2813,593.4063 621.5156,593.5156 621.7344,593.5156 C622,593.5156 622.2656,593.375 622.4375,593.1563 C622.5469,593 622.5781,592.8125 622.5781,592.3906 L622.5781,590.9688 C622.5781,590.5313 622.5625,590.4063 622.4688,590.25 C622.3125,589.9844 622.0313,589.8438 621.7344,589.8438 C621.4375,589.8438 621.2344,589.9375 621.0156,590.25 L620.8438,590.1719 Z " fill="#000000"/><text fill="#000000" font-family="sans-serif" font-size="12" lengthAdjust="spacing" textLength="25" x="632.5" y="598.6543">Map</text><rect fill="#FFFFFF" height="15.9688" style="stroke:#000000;stroke-width:1.0;stroke-dasharray:2.0,2.0;" width="149" x="665.5" y="575.5"/><text fill="#000000" font-family="sans-serif" font-size="12" font-style="italic" lengthAdjust="spacing" textLength="147" x="666.5" y="587.6387">code:string, :Exemplaire</text><line style="stroke:#A80036;stroke-width:1.5;" x1="604.5" x2="810.5" y1="610.5" y2="610.5"/><line style="stroke:#A80036;stroke-width:1.5;" x1="604.5" x2="810.5" y1="618.5" y2="618.5"/><text fill="#000000" font-family="sans-serif" font-size="11" lengthAdjust="spacing" textLength="161" x="609.5" y="632.7104">get(code:string): Exemplaire</text><!--MD5=[69e5cb2b0b928da724d0547372fd486e]
link C to LL--><path codeLine="48" d="M445.5,106.385 C445.5,129.367 445.5,156.24 445.5,177.127 " fill="none" id="C-to-LL" style="stroke:#A80036;stroke-width:1.0;"/><polygon fill="#A80036" points="445.5,182.302,449.5,173.302,445.5,177.302,441.5,173.302,445.5,182.302" style="stroke:#A80036;stroke-width:1.0;"/><!--MD5=[ed32296a9a5f1d83f46e6a3b4b2599b1]
link LL to L--><path codeLine="49" d="M465.522,243.796 C473.976,257.224 483.469,273.515 490.5,289 C496.55,302.323 502.096,316.831 507.007,331.073 " fill="none" id="LL-to-L" style="stroke:#A80036;stroke-width:1.0;"/><polygon fill="#A80036" points="508.648,335.891,509.5338,326.0821,507.0365,331.1578,501.9607,328.6605,508.648,335.891" style="stroke:#A80036;stroke-width:1.0;"/><text fill="#000000" font-family="sans-serif" font-size="13" lengthAdjust="spacing" textLength="7" x="499.3109" y="325.0547">*</text><!--MD5=[cfd2f26f5d3aa9a16472832cdbca72f0]
link C to ML--><path codeLine="50" d="M505.986,106.173 C535.514,129.933 570.26,157.893 596.62,179.104 " fill="none" id="C-to-ML" style="stroke:#A80036;stroke-width:1.0;"/><polygon fill="#A80036" points="600.776,182.449,596.2712,173.6908,596.8803,179.3147,591.2563,179.9239,600.776,182.449" style="stroke:#A80036;stroke-width:1.0;"/><!--MD5=[0038709800fd722036d6b0b07b283176]
link ML to L--><path codeLine="51" d="M621.481,243.792 C609.034,266.941 591.148,300.207 574.523,331.126 " fill="none" id="ML-to-L" style="stroke:#A80036;stroke-width:1.0;"/><polygon fill="#A80036" points="572.08,335.67,579.8656,329.6381,574.4482,331.2664,572.8199,325.849,572.08,335.67" style="stroke:#A80036;stroke-width:1.0;"/><text fill="#000000" font-family="sans-serif" font-size="13" lengthAdjust="spacing" textLength="7" x="568.5905" y="324.8133">*</text><!--MD5=[21d2523d70e74ba5c47de010fc336fef]
link L to MX--><path codeLine="52" d="M612.284,492.076 C621.999,501.951 631.611,512.078 640.5,522 C655.286,538.505 670.561,557.9 682.786,574.091 " fill="none" id="L-to-MX" style="stroke:#A80036;stroke-width:1.0;"/><polygon fill="#A80036" points="685.825,578.134,683.6151,568.5363,682.8209,574.1371,677.2201,573.3428,685.825,578.134" style="stroke:#A80036;stroke-width:1.0;"/><!--MD5=[22419f2c13454c8f5b876bc57002429d]
link MX to EL--><path codeLine="53" d="M662.977,639.516 C626.809,663.494 575.673,697.3943 537.231,722.8794 " fill="none" id="MX-to-EL" style="stroke:#A80036;stroke-width:1.0;"/><polygon fill="#A80036" points="532.607,725.9444,542.3185,724.3052,536.7744,723.1816,537.898,717.6375,532.607,725.9444" style="stroke:#A80036;stroke-width:1.0;"/><text fill="#000000" font-family="sans-serif" font-size="13" lengthAdjust="spacing" textLength="7" x="534.5859" y="714.9669">*</text><!--MD5=[a9a08eed061a1d2941776fe900dc520e]
link C to B--><path codeLine="54" d="M358.551,106.173 C325.282,124.796 287.406,145.998 254.337,164.51 " fill="none" id="C-to-B" style="stroke:#A80036;stroke-width:1.0;"/><polygon fill="#A80036" points="249.913,166.986,259.72,166.0792,254.2757,164.5432,255.8116,159.0989,249.913,166.986" style="stroke:#A80036;stroke-width:1.0;"/><!--MD5=[6809d0e1032577198481489005663320]
link B to L--><path codeLine="57" d="M251.416,259.156 C295.64,283.534 351.252,314.19 401.172,341.708 " fill="none" id="B-to-L" style="stroke:#A80036;stroke-width:1.0;"/><polygon fill="#A80036" points="405.676,344.191,399.7261,336.3425,401.2975,341.7767,395.8633,343.3482,405.676,344.191" style="stroke:#A80036;stroke-width:1.0;"/><text fill="#000000" font-family="sans-serif" font-size="13" lengthAdjust="spacing" textLength="130" x="329.5" y="302.0669">permet la recherche</text><text fill="#000000" font-family="sans-serif" font-size="13" lengthAdjust="spacing" textLength="7" x="390.8563" y="336.5395">*</text><!--MD5=[e421206e26d51baba452c60eb8654270]
reverse link M to R--><path codeLine="58" d="M138.91,452.974 C138.39,486.42 137.636,534.94 137.11,568.76 " fill="none" id="M-backto-R" style="stroke:#A80036;stroke-width:1.0;"/><polygon fill="#A80036" points="138.991,447.74,134.8526,456.6772,138.9139,452.7394,142.8517,456.8006,138.991,447.74" style="stroke:#A80036;stroke-width:1.0;"/><polygon fill="#000000" points="143.5777,525.567,140.4986,534.5653,146.3757,534.6567,143.5777,525.567" style="stroke:#000000;stroke-width:1.0;"/><text fill="#000000" font-family="sans-serif" font-size="13" lengthAdjust="spacing" textLength="78" x="152.5" y="535.0669">est fait pour</text><text fill="#000000" font-family="sans-serif" font-size="13" lengthAdjust="spacing" textLength="7" x="129.6313" y="557.9685">*</text><!--MD5=[8a6e51bfb12971110294edbb3fe46231]
link R to EL--><path codeLine="59" d="M227.67,649.017 C281.955,672.248 350.238,701.4699 402.602,723.8795 " fill="none" id="R-to-EL" style="stroke:#A80036;stroke-width:1.0;"/><polygon fill="#A80036" points="407.299,725.8895,400.5986,718.6712,402.7022,723.9223,397.4511,726.026,407.299,725.8895" style="stroke:#A80036;stroke-width:1.0;"/><text fill="#000000" font-family="sans-serif" font-size="13" lengthAdjust="spacing" textLength="49" x="332.5" y="692.0669">reserve</text><!--MD5=[4efe9c9b39f82859eed5318deb302426]
reverse link L to A--><path codeLine="60" d="M531.354,497.372 C531.669,527.808 532.004,560.162 532.23,581.965 " fill="none" id="L-backto-A" style="stroke:#A80036;stroke-width:1.0;"/><polygon fill="#A80036" points="531.299,492.111,527.3944,501.1528,531.3519,497.1107,535.3939,501.0682,531.299,492.111" style="stroke:#A80036;stroke-width:1.0;"/><polygon fill="#000000" points="537.4482,525.5667,534.6031,534.6417,540.4807,534.5808,537.4482,525.5667" style="stroke:#000000;stroke-width:1.0;"/><text fill="#000000" font-family="sans-serif" font-size="13" lengthAdjust="spacing" textLength="85" x="546.5" y="535.0669">sont écrit par</text><text fill="#000000" font-family="sans-serif" font-size="13" lengthAdjust="spacing" textLength="7" x="524.0416" y="512.3262">*</text><!--MD5=[f5803f2053f33503bc3dc98b94cb0b90]
reverse link L to ME--><path codeLine="61" d="M467.781,496.24 C444.03,527.005 418.641,559.891 401.6,581.965 " fill="none" id="L-backto-ME" style="stroke:#A80036;stroke-width:1.0;"/><polygon fill="#A80036" points="470.969,492.111,462.3032,496.7911,467.9138,496.069,468.6359,501.6795,470.969,492.111" style="stroke:#A80036;stroke-width:1.0;"/><polygon fill="#000000" points="455.5555,526.6086,447.7017,531.9724,452.3544,535.5643,455.5555,526.6086" style="stroke:#000000;stroke-width:1.0;"/><text fill="#000000" font-family="sans-serif" font-size="13" lengthAdjust="spacing" textLength="32" x="461.5" y="535.0669">edite</text><text fill="#000000" font-family="sans-serif" font-size="13" lengthAdjust="spacing" textLength="7" x="457.9614" y="512.3262">*</text><!--MD5=[a693038997eff77a7e76722032805788]
link B to M--><path codeLine="62" d="M162.693,259.156 C157.126,296.081 149.388,347.41 144.411,380.421 " fill="none" id="B-M" style="stroke:#A80036;stroke-width:1.0;"/><text fill="#000000" font-family="sans-serif" font-size="13" lengthAdjust="spacing" textLength="120" x="159.5" y="302.0669">offre des service à</text><text fill="#000000" font-family="sans-serif" font-size="13" lengthAdjust="spacing" textLength="7" x="137.6888" y="369.4389">*</text><!--MD5=[0a42c218f2d3557ad035e413105e296c]
@startuml
class C as "ControleurReservation"{
  demarrerRechercheLivre() 
 rechercherLivre(texte:string): list<Livre:json>
 selectionnerLivre(livre:string): string
 reserverExemplaire(code:string)
}
class M as "Membre" <<Role>>{
  nom: string
}

class B as "Bibliotheque" <<Conteneur>>{
  rechercherLivre(texte:string): [:Livre]
  selectionnerLivre(livre:string): [:Livre,[:Exemplaire]]
  getExemplaire(code:string): Exemplaire
}

class L as "Livre" << Description d'entité>>   {
  titre: String
  <s>auteur: String</s>
  isbn: String
  <s>maisonEdition: String</s>
  noEdition: String
  annee: integer
  [Exemplaire] = getExemplaires()
  exemplaire = getExemplaire(code:string) 
} 
class ME as "MaisonEdition" <<Description d'entité>>
class A as "Auteur" <<Role>>
class EL as "ExemplaireLivre" <<Objet physique, contenue de Bibiliotheque, Produit ou service lié a un transaction>>{
  code: string
}
class R  as "Reservation" <<Transaction>> {
  noReservation:String
  create(m:Membre, exemplaire:Exemplaire)
}

class LL as  "List<:Livre>" {
  find(texte:string): List<Livre>
}
class ML as "Map<nom, :Livre>" {
  get(nom:String): Livre
}
class MX as  "Map<code:string, :Exemplaire>" {
  get(code:string): Exemplaire
}


C - -> LL
LL - ->"*" L
C- ->ML
ML - -> "*" L
L - -> MX
MX - -> "*" EL
C - -> B


B - ->"*" L: permet la recherche
M <- -"*" R: est fait pour <
R - -> EL:  reserve 
L "*"<- - A: sont écrit par <
L "*" <- - ME: edite <
B - - "*" M: offre des service à
@enduml

PlantUML version 1.2021.01beta3(Unknown compile time)
(GPL source distribution)
Java Runtime: Java(TM) SE Runtime Environment
JVM: Java HotSpot(TM) 64-Bit Server VM
Default Encoding: UTF-8
Language: en
Country: US
--></g></svg>