<?xml version="1.0" encoding="UTF-8" standalone="no"?><svg xmlns="http://www.w3.org/2000/svg" xmlns:xlink="http://www.w3.org/1999/xlink" contentScriptType="application/ecmascript" contentStyleType="text/css" height="109px" preserveAspectRatio="none" style="width:334px;height:109px;background:#FFFFFF;" version="1.1" viewBox="0 0 334 109" width="334px" zoomAndPan="magnify"><defs><filter height="300%" id="fg0nlqothchb3" width="300%" x="-1" y="-1"><feGaussianBlur result="blurOut" stdDeviation="2.0"/><feColorMatrix in="blurOut" result="blurOut2" type="matrix" values="0 0 0 0 0 0 0 0 0 0 0 0 0 0 0 0 0 0 .4 0"/><feOffset dx="4.0" dy="4.0" in="blurOut2" result="blurOut3"/><feBlend in="SourceGraphic" in2="blurOut3" mode="normal"/></filter></defs><g><!--MD5=[b53f47c71cfface953cc9a1a088e5324]
cluster SystèmeBibliotheque--><polygon fill="#FFFFFF" filter="url(#fg0nlqothchb3)" points="85,6,262,6,269,28.2969,317,28.2969,317,102,85,102,85,6" style="stroke:#000000;stroke-width:1.5;"/><line style="stroke:#000000;stroke-width:1.5;" x1="85" x2="269" y1="28.2969" y2="28.2969"/><text fill="#000000" font-family="sans-serif" font-size="14" font-weight="bold" lengthAdjust="spacing" textLength="171" x="89" y="20.9951">SystèmeBibliotheque</text><ellipse cx="201.0203" cy="63.3041" fill="#FEFECE" filter="url(#fg0nlqothchb3)" rx="99.5203" ry="22.3041" style="stroke:#A80036;stroke-width:1.5;"/><text fill="#000000" font-family="sans-serif" font-size="14" lengthAdjust="spacing" textLength="163" x="119.5203" y="66.1507">CU01-Reserver un livre</text><!--MD5=[4e685823a75472c5a2e888916764e0ef]
entity Membre--><ellipse cx="36" cy="32.5" fill="#FEFECE" filter="url(#fg0nlqothchb3)" rx="8" ry="8" style="stroke:#A80036;stroke-width:1.5;"/><path d="M36,40.5 L36,67.5 M23,48.5 L49,48.5 M36,67.5 L23,82.5 M36,67.5 L49,82.5 " fill="none" filter="url(#fg0nlqothchb3)" style="stroke:#A80036;stroke-width:1.5;"/><text fill="#000000" font-family="sans-serif" font-size="14" lengthAdjust="spacing" textLength="60" x="6" y="100.9951">Membre</text><!--MD5=[264bc9b2fd256048f571615416814485]
link Membre to CU01--><path d="M66.293,63.5 C76.2257,63.5 86.1584,63.5 96.0911,63.5 " fill="none" id="Membre-to-CU01" style="stroke:#A80036;stroke-width:1.0;"/><polygon fill="#A80036" points="101.2852,63.5,92.2852,59.5,96.2852,63.5,92.2852,67.5,101.2852,63.5" style="stroke:#A80036;stroke-width:1.0;"/><!--MD5=[d329e373bce753b052b962870e9a4bc1]
@startuml
package SystèmeBibliotheque{
(CU01-Reserver un livre) as (CU01)  
}
Membre->(CU01)
@enduml

PlantUML version 1.2021.7(Sun May 23 12:40:07 UTC 2021)
(GPL source distribution)
Java Runtime: Java(TM) SE Runtime Environment
JVM: Java HotSpot(TM) 64-Bit Server VM
Default Encoding: UTF-8
Language: en
Country: US
--></g></svg>