<?xml version="1.0" encoding="UTF-8" standalone="no"?><svg xmlns="http://www.w3.org/2000/svg" xmlns:xlink="http://www.w3.org/1999/xlink" contentScriptType="application/ecmascript" contentStyleType="text/css" height="414px" preserveAspectRatio="none" style="width:457px;height:414px;" version="1.1" viewBox="0 0 457 414" width="457px" zoomAndPan="magnify"><defs/><g><text fill="#000000" font-family="sans-serif" font-size="18" lengthAdjust="spacing" textLength="322" x="67" y="28.708">Réserver un livre à la bibliothèque</text><line style="stroke:#A80036;stroke-width:1.0;stroke-dasharray:5.0,5.0;" x1="40" x2="40" y1="119.25" y2="407.4453"/><line style="stroke:#A80036;stroke-width:1.0;stroke-dasharray:5.0,5.0;" x1="414" x2="414" y1="119.25" y2="407.4453"/><text fill="#000000" font-family="sans-serif" font-size="14" lengthAdjust="spacing" textLength="65" x="5" y="115.9482">:Membre</text><ellipse cx="40.5" cy="49.9531" fill="#FEFECE" rx="8" ry="8" style="stroke:#A80036;stroke-width:2.0;"/><path d="M40.5,57.9531 L40.5,84.9531 M27.5,65.9531 L53.5,65.9531 M40.5,84.9531 L27.5,99.9531 M40.5,84.9531 L53.5,99.9531 " fill="none" style="stroke:#A80036;stroke-width:2.0;"/><rect fill="#FEFECE" height="30.2969" style="stroke:#A80036;stroke-width:1.5;" width="73" x="378" y="87.9531"/><text fill="#000000" font-family="sans-serif" font-size="14" lengthAdjust="spacing" textLength="59" x="385" y="107.9482">:System</text><polygon fill="#A80036" points="402.5,146.3828,412.5,150.3828,402.5,154.3828" style="stroke:#A80036;stroke-width:1.0;"/><line style="stroke:#A80036;stroke-width:1.0;" x1="40.5" x2="408.5" y1="150.3828" y2="150.3828"/><text fill="#000000" font-family="sans-serif" font-size="13" lengthAdjust="spacing" textLength="169" x="47.5" y="145.3169">demarrerRechercheLivre()</text><line style="stroke:#A80036;stroke-width:1.0;" x1="40.5" x2="50.5" y1="179.5156" y2="175.5156"/><line style="stroke:#A80036;stroke-width:1.0;" x1="40.5" x2="50.5" y1="179.5156" y2="183.5156"/><line style="stroke:#A80036;stroke-width:1.0;stroke-dasharray:2.0,2.0;" x1="40.5" x2="413.5" y1="179.5156" y2="179.5156"/><text fill="#000000" font-family="sans-serif" font-size="13" lengthAdjust="spacing" textLength="154" x="57.5" y="174.4497">formulaire de recherche</text><polygon fill="#A80036" points="402.5,204.6484,412.5,208.6484,402.5,212.6484" style="stroke:#A80036;stroke-width:1.0;"/><line style="stroke:#A80036;stroke-width:1.0;" x1="40.5" x2="408.5" y1="208.6484" y2="208.6484"/><text fill="#000000" font-family="sans-serif" font-size="13" lengthAdjust="spacing" textLength="185" x="47.5" y="203.5825">rechercherLivre(texte:string)</text><line style="stroke:#A80036;stroke-width:1.0;" x1="40.5" x2="50.5" y1="237.7813" y2="233.7813"/><line style="stroke:#A80036;stroke-width:1.0;" x1="40.5" x2="50.5" y1="237.7813" y2="241.7813"/><line style="stroke:#A80036;stroke-width:1.0;stroke-dasharray:2.0,2.0;" x1="40.5" x2="413.5" y1="237.7813" y2="237.7813"/><text fill="#000000" font-family="sans-serif" font-size="13" lengthAdjust="spacing" textLength="37" x="57.5" y="232.7153">[livre]</text><polygon fill="#A80036" points="402.5,262.9141,412.5,266.9141,402.5,270.9141" style="stroke:#A80036;stroke-width:1.0;"/><line style="stroke:#A80036;stroke-width:1.0;" x1="40.5" x2="408.5" y1="266.9141" y2="266.9141"/><text fill="#000000" font-family="sans-serif" font-size="13" lengthAdjust="spacing" textLength="187" x="47.5" y="261.8481">selectionnerLivre(livre:string)</text><path d="M6,279.9141 L6,304.9141 L409,304.9141 L409,289.9141 L399,279.9141 L6,279.9141 " fill="#FBFB77" style="stroke:#A80036;stroke-width:1.0;"/><path d="M399,279.9141 L399,289.9141 L409,289.9141 L399,279.9141 " fill="#FBFB77" style="stroke:#A80036;stroke-width:1.0;"/><text fill="#000000" font-family="sans-serif" font-size="13" lengthAdjust="spacing" textLength="382" x="12" y="296.981">livre =&gt; titre auteur, isbn, maison edition, no édition, année</text><line style="stroke:#A80036;stroke-width:1.0;" x1="40.5" x2="50.5" y1="331.1797" y2="327.1797"/><line style="stroke:#A80036;stroke-width:1.0;" x1="40.5" x2="50.5" y1="331.1797" y2="335.1797"/><line style="stroke:#A80036;stroke-width:1.0;stroke-dasharray:2.0,2.0;" x1="40.5" x2="413.5" y1="331.1797" y2="331.1797"/><text fill="#000000" font-family="sans-serif" font-size="13" lengthAdjust="spacing" textLength="113" x="57.5" y="326.1138">livre,[exemplaire]</text><polygon fill="#A80036" points="402.5,356.3125,412.5,360.3125,402.5,364.3125" style="stroke:#A80036;stroke-width:1.0;"/><line style="stroke:#A80036;stroke-width:1.0;" x1="40.5" x2="408.5" y1="360.3125" y2="360.3125"/><text fill="#000000" font-family="sans-serif" font-size="13" lengthAdjust="spacing" textLength="284" x="47.5" y="355.2466">reserverExemplaire(livre:string, code:string)</text><line style="stroke:#A80036;stroke-width:1.0;" x1="40.5" x2="50.5" y1="389.4453" y2="385.4453"/><line style="stroke:#A80036;stroke-width:1.0;" x1="40.5" x2="50.5" y1="389.4453" y2="393.4453"/><line style="stroke:#A80036;stroke-width:1.0;stroke-dasharray:2.0,2.0;" x1="40.5" x2="413.5" y1="389.4453" y2="389.4453"/><text fill="#000000" font-family="sans-serif" font-size="13" lengthAdjust="spacing" textLength="350" x="57.5" y="384.3794">noReservation, nom du membre, code de l'exemplaire</text><!--MD5=[d0597ae7bdd947150e307419b3a64193]
@startuml
title: Réserver un livre à la bibliothèque
skinparam style strictuml
Actor ":Membre" as M
participant ":System" as S
M -> S: demarrerRechercheLivre()
M <<- - S: formulaire de recherche

M -> S: rechercherLivre(texte:string)
M <<- - S: [livre]

M -> S: selectionnerLivre(livre:string)
note left of S: livre => titre auteur, isbn, maison edition, no édition, année
M <<- - S: livre,[exemplaire]

M -> S: reserverExemplaire(livre:string, code:string)
M <<- - S: noReservation, nom du membre, code de l'exemplaire
@enduml

PlantUML version 1.2021.01beta3(Unknown compile time)
(GPL source distribution)
Java Runtime: Java(TM) SE Runtime Environment
JVM: Java HotSpot(TM) 64-Bit Server VM
Default Encoding: UTF-8
Language: en
Country: US
--></g></svg>