<?xml version="1.0" encoding="UTF-8" standalone="no"?><svg xmlns="http://www.w3.org/2000/svg" xmlns:xlink="http://www.w3.org/1999/xlink" contentScriptType="application/ecmascript" contentStyleType="text/css" height="845px" preserveAspectRatio="none" style="width:734px;height:845px;" version="1.1" viewBox="0 0 734 845" width="734px" zoomAndPan="magnify"><defs><filter height="300%" id="f1guswuj0c5yxe" width="300%" x="-1" y="-1"><feGaussianBlur result="blurOut" stdDeviation="2.0"/><feColorMatrix in="blurOut" result="blurOut2" type="matrix" values="0 0 0 0 0 0 0 0 0 0 0 0 0 0 0 0 0 0 .4 0"/><feOffset dx="4.0" dy="4.0" in="blurOut2" result="blurOut3"/><feBlend in="SourceGraphic" in2="blurOut3" mode="normal"/></filter></defs><g><!--MD5=[ca86e0a6a0e0c1496e70ac1078033fbc]
class M--><rect codeLine="1" fill="#FEFECE" filter="url(#f1guswuj0c5yxe)" height="66.7422" id="M" style="stroke:#A80036;stroke-width:1.5;" width="82" x="315.5" y="138"/><ellipse cx="330.5" cy="156.9688" fill="#ADD1B2" rx="11" ry="11" style="stroke:#A80036;stroke-width:1.0;"/><path d="M332.8438,152.6406 C331.9063,152.2031 331.3125,152.0625 330.4375,152.0625 C327.8125,152.0625 325.8125,154.1406 325.8125,156.8594 L325.8125,157.9844 C325.8125,160.5625 327.9219,162.4531 330.8125,162.4531 C332.0313,162.4531 333.1875,162.1563 333.9375,161.6094 C334.5156,161.2031 334.8438,160.75 334.8438,160.3594 C334.8438,159.9063 334.4531,159.5156 333.9844,159.5156 C333.7656,159.5156 333.5625,159.5938 333.375,159.7813 C332.9219,160.2656 332.9219,160.2656 332.7344,160.3594 C332.3125,160.625 331.625,160.75 330.8594,160.75 C328.8125,160.75 327.5156,159.6563 327.5156,157.9531 L327.5156,156.8594 C327.5156,155.0781 328.7656,153.7656 330.5,153.7656 C331.0781,153.7656 331.6875,153.9219 332.1563,154.1719 C332.6406,154.4531 332.8125,154.6719 332.9063,155.0781 C332.9688,155.4844 333,155.6094 333.1406,155.7344 C333.2813,155.875 333.5156,155.9844 333.7344,155.9844 C334,155.9844 334.2656,155.8438 334.4375,155.625 C334.5469,155.4688 334.5781,155.2813 334.5781,154.8594 L334.5781,153.4375 C334.5781,153 334.5625,152.875 334.4688,152.7188 C334.3125,152.4531 334.0313,152.3125 333.7344,152.3125 C333.4375,152.3125 333.2344,152.4063 333.0156,152.7188 L332.8438,152.6406 Z " fill="#000000"/><text fill="#000000" font-family="sans-serif" font-size="12" font-style="italic" lengthAdjust="spacing" textLength="39" x="350" y="154.1387">«Role»</text><text fill="#000000" font-family="sans-serif" font-size="12" lengthAdjust="spacing" textLength="50" x="344.5" y="168.1074">Membre</text><line style="stroke:#A80036;stroke-width:1.5;" x1="316.5" x2="396.5" y1="175.9375" y2="175.9375"/><text fill="#000000" font-family="sans-serif" font-size="11" lengthAdjust="spacing" textLength="63" x="321.5" y="190.1479">nom: string</text><line style="stroke:#A80036;stroke-width:1.5;" x1="316.5" x2="396.5" y1="196.7422" y2="196.7422"/><!--MD5=[69c451c751c414e37549b782190fef46]
class B--><rect codeLine="5" fill="#FEFECE" filter="url(#f1guswuj0c5yxe)" height="53.9375" id="B" style="stroke:#A80036;stroke-width:1.5;" width="107" x="425" y="7"/><ellipse cx="440" cy="25.9688" fill="#ADD1B2" rx="11" ry="11" style="stroke:#A80036;stroke-width:1.0;"/><path d="M442.3438,21.6406 C441.4063,21.2031 440.8125,21.0625 439.9375,21.0625 C437.3125,21.0625 435.3125,23.1406 435.3125,25.8594 L435.3125,26.9844 C435.3125,29.5625 437.4219,31.4531 440.3125,31.4531 C441.5313,31.4531 442.6875,31.1563 443.4375,30.6094 C444.0156,30.2031 444.3438,29.75 444.3438,29.3594 C444.3438,28.9063 443.9531,28.5156 443.4844,28.5156 C443.2656,28.5156 443.0625,28.5938 442.875,28.7813 C442.4219,29.2656 442.4219,29.2656 442.2344,29.3594 C441.8125,29.625 441.125,29.75 440.3594,29.75 C438.3125,29.75 437.0156,28.6563 437.0156,26.9531 L437.0156,25.8594 C437.0156,24.0781 438.2656,22.7656 440,22.7656 C440.5781,22.7656 441.1875,22.9219 441.6563,23.1719 C442.1406,23.4531 442.3125,23.6719 442.4063,24.0781 C442.4688,24.4844 442.5,24.6094 442.6406,24.7344 C442.7813,24.875 443.0156,24.9844 443.2344,24.9844 C443.5,24.9844 443.7656,24.8438 443.9375,24.625 C444.0469,24.4688 444.0781,24.2813 444.0781,23.8594 L444.0781,22.4375 C444.0781,22 444.0625,21.875 443.9688,21.7188 C443.8125,21.4531 443.5313,21.3125 443.2344,21.3125 C442.9375,21.3125 442.7344,21.4063 442.5156,21.7188 L442.3438,21.6406 Z " fill="#000000"/><text fill="#000000" font-family="sans-serif" font-size="12" font-style="italic" lengthAdjust="spacing" textLength="77" x="453" y="23.1387">«Conteneur»</text><text fill="#000000" font-family="sans-serif" font-size="12" lengthAdjust="spacing" textLength="75" x="454" y="37.1074">Bibliotheque</text><line style="stroke:#A80036;stroke-width:1.5;" x1="426" x2="531" y1="44.9375" y2="44.9375"/><line style="stroke:#A80036;stroke-width:1.5;" x1="426" x2="531" y1="52.9375" y2="52.9375"/><!--MD5=[8832394f0f955ca405dbc7ff727aede1]
class L--><rect codeLine="6" fill="#FEFECE" filter="url(#f1guswuj0c5yxe)" height="130.7656" id="L" style="stroke:#A80036;stroke-width:1.5;" width="160" x="411.5" y="570"/><ellipse cx="426.5" cy="588.9688" fill="#ADD1B2" rx="11" ry="11" style="stroke:#A80036;stroke-width:1.0;"/><path d="M428.8438,584.6406 C427.9063,584.2031 427.3125,584.0625 426.4375,584.0625 C423.8125,584.0625 421.8125,586.1406 421.8125,588.8594 L421.8125,589.9844 C421.8125,592.5625 423.9219,594.4531 426.8125,594.4531 C428.0313,594.4531 429.1875,594.1563 429.9375,593.6094 C430.5156,593.2031 430.8438,592.75 430.8438,592.3594 C430.8438,591.9063 430.4531,591.5156 429.9844,591.5156 C429.7656,591.5156 429.5625,591.5938 429.375,591.7813 C428.9219,592.2656 428.9219,592.2656 428.7344,592.3594 C428.3125,592.625 427.625,592.75 426.8594,592.75 C424.8125,592.75 423.5156,591.6563 423.5156,589.9531 L423.5156,588.8594 C423.5156,587.0781 424.7656,585.7656 426.5,585.7656 C427.0781,585.7656 427.6875,585.9219 428.1563,586.1719 C428.6406,586.4531 428.8125,586.6719 428.9063,587.0781 C428.9688,587.4844 429,587.6094 429.1406,587.7344 C429.2813,587.875 429.5156,587.9844 429.7344,587.9844 C430,587.9844 430.2656,587.8438 430.4375,587.625 C430.5469,587.4688 430.5781,587.2813 430.5781,586.8594 L430.5781,585.4375 C430.5781,585 430.5625,584.875 430.4688,584.7188 C430.3125,584.4531 430.0313,584.3125 429.7344,584.3125 C429.4375,584.3125 429.2344,584.4063 429.0156,584.7188 L428.8438,584.6406 Z " fill="#000000"/><text fill="#000000" font-family="sans-serif" font-size="12" font-style="italic" lengthAdjust="spacing" textLength="132" x="438.5" y="586.1387">«Description d'entité»</text><text fill="#000000" font-family="sans-serif" font-size="12" lengthAdjust="spacing" textLength="29" x="490" y="600.1074">Livre</text><line style="stroke:#A80036;stroke-width:1.5;" x1="412.5" x2="570.5" y1="607.9375" y2="607.9375"/><text fill="#000000" font-family="sans-serif" font-size="11" lengthAdjust="spacing" textLength="63" x="417.5" y="622.1479">titre: String</text><text fill="#000000" font-family="sans-serif" font-size="11" lengthAdjust="spacing" text-decoration="line-through" textLength="77" x="417.5" y="634.9526">auteur: String</text><text fill="#000000" font-family="sans-serif" font-size="11" lengthAdjust="spacing" textLength="63" x="417.5" y="647.7573">isbn: String</text><text fill="#000000" font-family="sans-serif" font-size="11" lengthAdjust="spacing" text-decoration="line-through" textLength="119" x="417.5" y="660.562">maisonEdition: String</text><text fill="#000000" font-family="sans-serif" font-size="11" lengthAdjust="spacing" textLength="92" x="417.5" y="673.3667">noEdition: String</text><text fill="#000000" font-family="sans-serif" font-size="11" lengthAdjust="spacing" textLength="85" x="417.5" y="686.1714">annee: integer</text><line style="stroke:#A80036;stroke-width:1.5;" x1="412.5" x2="570.5" y1="692.7656" y2="692.7656"/><!--MD5=[5770339cf2a060176908a0b962164876]
class ME--><rect codeLine="14" fill="#FEFECE" filter="url(#f1guswuj0c5yxe)" height="53.9375" id="ME" style="stroke:#A80036;stroke-width:1.5;" width="160" x="333.5" y="778"/><ellipse cx="348.5" cy="796.9688" fill="#ADD1B2" rx="11" ry="11" style="stroke:#A80036;stroke-width:1.0;"/><path d="M350.8438,792.6406 C349.9063,792.2031 349.3125,792.0625 348.4375,792.0625 C345.8125,792.0625 343.8125,794.1406 343.8125,796.8594 L343.8125,797.9844 C343.8125,800.5625 345.9219,802.4531 348.8125,802.4531 C350.0313,802.4531 351.1875,802.1563 351.9375,801.6094 C352.5156,801.2031 352.8438,800.75 352.8438,800.3594 C352.8438,799.9063 352.4531,799.5156 351.9844,799.5156 C351.7656,799.5156 351.5625,799.5938 351.375,799.7813 C350.9219,800.2656 350.9219,800.2656 350.7344,800.3594 C350.3125,800.625 349.625,800.75 348.8594,800.75 C346.8125,800.75 345.5156,799.6563 345.5156,797.9531 L345.5156,796.8594 C345.5156,795.0781 346.7656,793.7656 348.5,793.7656 C349.0781,793.7656 349.6875,793.9219 350.1563,794.1719 C350.6406,794.4531 350.8125,794.6719 350.9063,795.0781 C350.9688,795.4844 351,795.6094 351.1406,795.7344 C351.2813,795.875 351.5156,795.9844 351.7344,795.9844 C352,795.9844 352.2656,795.8438 352.4375,795.625 C352.5469,795.4688 352.5781,795.2813 352.5781,794.8594 L352.5781,793.4375 C352.5781,793 352.5625,792.875 352.4688,792.7188 C352.3125,792.4531 352.0313,792.3125 351.7344,792.3125 C351.4375,792.3125 351.2344,792.4063 351.0156,792.7188 L350.8438,792.6406 Z " fill="#000000"/><text fill="#000000" font-family="sans-serif" font-size="12" font-style="italic" lengthAdjust="spacing" textLength="132" x="360.5" y="794.1387">«Description d'entité»</text><text fill="#000000" font-family="sans-serif" font-size="12" lengthAdjust="spacing" textLength="82" x="385.5" y="808.1074">MaisonEdition</text><line style="stroke:#A80036;stroke-width:1.5;" x1="334.5" x2="492.5" y1="815.9375" y2="815.9375"/><line style="stroke:#A80036;stroke-width:1.5;" x1="334.5" x2="492.5" y1="823.9375" y2="823.9375"/><!--MD5=[a46ee5ce0ceb0380cf446a08a056dce4]
class A--><rect codeLine="15" fill="#FEFECE" filter="url(#f1guswuj0c5yxe)" height="53.9375" id="A" style="stroke:#A80036;stroke-width:1.5;" width="71" x="534" y="778"/><ellipse cx="549" cy="796.9688" fill="#ADD1B2" rx="11" ry="11" style="stroke:#A80036;stroke-width:1.0;"/><path d="M551.3438,792.6406 C550.4063,792.2031 549.8125,792.0625 548.9375,792.0625 C546.3125,792.0625 544.3125,794.1406 544.3125,796.8594 L544.3125,797.9844 C544.3125,800.5625 546.4219,802.4531 549.3125,802.4531 C550.5313,802.4531 551.6875,802.1563 552.4375,801.6094 C553.0156,801.2031 553.3438,800.75 553.3438,800.3594 C553.3438,799.9063 552.9531,799.5156 552.4844,799.5156 C552.2656,799.5156 552.0625,799.5938 551.875,799.7813 C551.4219,800.2656 551.4219,800.2656 551.2344,800.3594 C550.8125,800.625 550.125,800.75 549.3594,800.75 C547.3125,800.75 546.0156,799.6563 546.0156,797.9531 L546.0156,796.8594 C546.0156,795.0781 547.2656,793.7656 549,793.7656 C549.5781,793.7656 550.1875,793.9219 550.6563,794.1719 C551.1406,794.4531 551.3125,794.6719 551.4063,795.0781 C551.4688,795.4844 551.5,795.6094 551.6406,795.7344 C551.7813,795.875 552.0156,795.9844 552.2344,795.9844 C552.5,795.9844 552.7656,795.8438 552.9375,795.625 C553.0469,795.4688 553.0781,795.2813 553.0781,794.8594 L553.0781,793.4375 C553.0781,793 553.0625,792.875 552.9688,792.7188 C552.8125,792.4531 552.5313,792.3125 552.2344,792.3125 C551.9375,792.3125 551.7344,792.4063 551.5156,792.7188 L551.3438,792.6406 Z " fill="#000000"/><text fill="#000000" font-family="sans-serif" font-size="12" font-style="italic" lengthAdjust="spacing" textLength="39" x="563" y="794.1387">«Role»</text><text fill="#000000" font-family="sans-serif" font-size="12" lengthAdjust="spacing" textLength="39" x="563" y="808.1074">Auteur</text><line style="stroke:#A80036;stroke-width:1.5;" x1="535" x2="604" y1="815.9375" y2="815.9375"/><line style="stroke:#A80036;stroke-width:1.5;" x1="535" x2="604" y1="823.9375" y2="823.9375"/><!--MD5=[21477f35ad8a308409b4785c1fd11580]
class EL--><rect codeLine="16" fill="#FEFECE" filter="url(#f1guswuj0c5yxe)" height="66.7422" id="EL" style="stroke:#A80036;stroke-width:1.5;" width="535" x="7" y="426"/><ellipse cx="22" cy="444.9688" fill="#ADD1B2" rx="11" ry="11" style="stroke:#A80036;stroke-width:1.0;"/><path d="M24.3438,440.6406 C23.4063,440.2031 22.8125,440.0625 21.9375,440.0625 C19.3125,440.0625 17.3125,442.1406 17.3125,444.8594 L17.3125,445.9844 C17.3125,448.5625 19.4219,450.4531 22.3125,450.4531 C23.5313,450.4531 24.6875,450.1563 25.4375,449.6094 C26.0156,449.2031 26.3438,448.75 26.3438,448.3594 C26.3438,447.9063 25.9531,447.5156 25.4844,447.5156 C25.2656,447.5156 25.0625,447.5938 24.875,447.7813 C24.4219,448.2656 24.4219,448.2656 24.2344,448.3594 C23.8125,448.625 23.125,448.75 22.3594,448.75 C20.3125,448.75 19.0156,447.6563 19.0156,445.9531 L19.0156,444.8594 C19.0156,443.0781 20.2656,441.7656 22,441.7656 C22.5781,441.7656 23.1875,441.9219 23.6563,442.1719 C24.1406,442.4531 24.3125,442.6719 24.4063,443.0781 C24.4688,443.4844 24.5,443.6094 24.6406,443.7344 C24.7813,443.875 25.0156,443.9844 25.2344,443.9844 C25.5,443.9844 25.7656,443.8438 25.9375,443.625 C26.0469,443.4688 26.0781,443.2813 26.0781,442.8594 L26.0781,441.4375 C26.0781,441 26.0625,440.875 25.9688,440.7188 C25.8125,440.4531 25.5313,440.3125 25.2344,440.3125 C24.9375,440.3125 24.7344,440.4063 24.5156,440.7188 L24.3438,440.6406 Z " fill="#000000"/><text fill="#000000" font-family="sans-serif" font-size="12" font-style="italic" lengthAdjust="spacing" textLength="507" x="34" y="442.1387">«Objet physique, contenue de Bibiliotheque, Produit ou service lié a un transaction»</text><text fill="#000000" font-family="sans-serif" font-size="12" lengthAdjust="spacing" textLength="96" x="239.5" y="456.1074">ExemplaireLivre</text><line style="stroke:#A80036;stroke-width:1.5;" x1="8" x2="541" y1="463.9375" y2="463.9375"/><text fill="#000000" font-family="sans-serif" font-size="11" lengthAdjust="spacing" textLength="66" x="13" y="478.1479">code: string</text><line style="stroke:#A80036;stroke-width:1.5;" x1="8" x2="541" y1="484.7422" y2="484.7422"/><!--MD5=[c75e629d71444dd998043aef5ce1a035]
class R--><rect codeLine="19" fill="#FEFECE" filter="url(#f1guswuj0c5yxe)" height="66.7422" id="R" style="stroke:#A80036;stroke-width:1.5;" width="130" x="225.5" y="282"/><ellipse cx="248.6" cy="300.9688" fill="#ADD1B2" rx="11" ry="11" style="stroke:#A80036;stroke-width:1.0;"/><path d="M250.9438,296.6406 C250.0063,296.2031 249.4125,296.0625 248.5375,296.0625 C245.9125,296.0625 243.9125,298.1406 243.9125,300.8594 L243.9125,301.9844 C243.9125,304.5625 246.0219,306.4531 248.9125,306.4531 C250.1313,306.4531 251.2875,306.1563 252.0375,305.6094 C252.6156,305.2031 252.9438,304.75 252.9438,304.3594 C252.9438,303.9063 252.5531,303.5156 252.0844,303.5156 C251.8656,303.5156 251.6625,303.5938 251.475,303.7813 C251.0219,304.2656 251.0219,304.2656 250.8344,304.3594 C250.4125,304.625 249.725,304.75 248.9594,304.75 C246.9125,304.75 245.6156,303.6563 245.6156,301.9531 L245.6156,300.8594 C245.6156,299.0781 246.8656,297.7656 248.6,297.7656 C249.1781,297.7656 249.7875,297.9219 250.2563,298.1719 C250.7406,298.4531 250.9125,298.6719 251.0063,299.0781 C251.0688,299.4844 251.1,299.6094 251.2406,299.7344 C251.3813,299.875 251.6156,299.9844 251.8344,299.9844 C252.1,299.9844 252.3656,299.8438 252.5375,299.625 C252.6469,299.4688 252.6781,299.2813 252.6781,298.8594 L252.6781,297.4375 C252.6781,297 252.6625,296.875 252.5688,296.7188 C252.4125,296.4531 252.1313,296.3125 251.8344,296.3125 C251.5375,296.3125 251.3344,296.4063 251.1156,296.7188 L250.9438,296.6406 Z " fill="#000000"/><text fill="#000000" font-family="sans-serif" font-size="12" font-style="italic" lengthAdjust="spacing" textLength="84" x="262.4" y="298.1387">«Transaction»</text><text fill="#000000" font-family="sans-serif" font-size="12" lengthAdjust="spacing" textLength="71" x="268.9" y="312.1074">Reservation</text><line style="stroke:#A80036;stroke-width:1.5;" x1="226.5" x2="354.5" y1="319.9375" y2="319.9375"/><text fill="#000000" font-family="sans-serif" font-size="11" lengthAdjust="spacing" textLength="118" x="231.5" y="334.1479">noReservation:String</text><line style="stroke:#A80036;stroke-width:1.5;" x1="226.5" x2="354.5" y1="340.7422" y2="340.7422"/><!--MD5=[6809d0e1032577198481489005663320]
link B to L--><path codeLine="23" d="M521.402,61 C554.794,84.859 595.5,123.569 595.5,170.5 C595.5,170.5 595.5,170.5 595.5,460.5 C595.5,500.444 575.057,539.172 552.298,569.91 " fill="none" id="B-L" style="stroke:#A80036;stroke-width:1.0;"/><text fill="#000000" font-family="sans-serif" font-size="13" lengthAdjust="spacing" textLength="130" x="596.5" y="320.0669">permet la recherche</text><text fill="#000000" font-family="sans-serif" font-size="13" lengthAdjust="spacing" textLength="7" x="551.565" y="559.0028">*</text><!--MD5=[09351d95883eeea595a6815d43efa653]
link M to R--><path codeLine="24" d="M341.358,205.078 C330.702,228.004 316.491,258.58 305.8,281.582 " fill="none" id="M-R" style="stroke:#A80036;stroke-width:1.0;"/><text fill="#000000" font-family="sans-serif" font-size="13" lengthAdjust="spacing" textLength="21" x="326.5" y="248.0669">fait</text><text fill="#000000" font-family="sans-serif" font-size="13" lengthAdjust="spacing" textLength="7" x="300.9756" y="271.0485">*</text><!--MD5=[8a6e51bfb12971110294edbb3fe46231]
link R to EL--><path codeLine="25" d="M286.829,349.078 C284.246,372.004 280.801,402.58 278.209,425.582 " fill="none" id="R-EL" style="stroke:#A80036;stroke-width:1.0;"/><text fill="#000000" font-family="sans-serif" font-size="13" lengthAdjust="spacing" textLength="53" x="284.5" y="392.0669">est pour</text><!--MD5=[c4e31cd9598a67b2cbf02cdd3b1ca23b]
link EL to L--><path codeLine="26" d="M315.061,493.024 C342.049,514.664 378.42,543.828 411.128,570.055 " fill="none" id="EL-L" style="stroke:#A80036;stroke-width:1.0;"/><text fill="#000000" font-family="sans-serif" font-size="13" lengthAdjust="spacing" textLength="68" x="371.5" y="536.0669">sont décrit</text><text fill="#000000" font-family="sans-serif" font-size="13" lengthAdjust="spacing" textLength="7" x="314.8941" y="512.6907">*</text><!--MD5=[4d2aebaf5aed7f4a5b0df6f6b17c5d35]
link L to A--><path codeLine="27" d="M521.657,701.26 C534.089,727.957 547.787,757.3721 557.328,777.8612 " fill="none" id="L-A" style="stroke:#A80036;stroke-width:1.0;"/><text fill="#000000" font-family="sans-serif" font-size="13" lengthAdjust="spacing" textLength="77" x="542.5" y="744.0669">est écrit par</text><!--MD5=[1bd18063968993dd76ac716574142cf7]
link L to ME--><path codeLine="28" d="M427.998,701.248 C421.7,710.637 416.257,720.648 412.5,731 C407.095,745.893 407.207,763.6466 408.736,777.9165 " fill="none" id="L-ME" style="stroke:#A80036;stroke-width:1.0;"/><text fill="#000000" font-family="sans-serif" font-size="13" lengthAdjust="spacing" textLength="114" x="413.5" y="744.0669">est éditer par une</text><!--MD5=[a693038997eff77a7e76722032805788]
link B to M--><path codeLine="29" d="M454.977,61.126 C435.313,82.966 407.164,114.23 385.994,137.742 " fill="none" id="B-M" style="stroke:#A80036;stroke-width:1.0;"/><text fill="#000000" font-family="sans-serif" font-size="13" lengthAdjust="spacing" textLength="120" x="426.5" y="104.0669">offre des service à</text><text fill="#000000" font-family="sans-serif" font-size="13" lengthAdjust="spacing" textLength="7" x="383.9491" y="126.9813">*</text><!--MD5=[344e754cfed966986a638ea96d8ec514]
@startuml
class M as "Membre" <<Role>>{
  nom: string
}

class B as "Bibliotheque" <<Conteneur>>
class L as "Livre" << Description d'entité>>   {
  titre: String
  <s>auteur: String</s>
  isbn: String
  <s>maisonEdition: String</s>
  noEdition: String
  annee: integer
} 
class ME as "MaisonEdition" <<Description d'entité>>
class A as "Auteur" <<Role>>
class EL as "ExemplaireLivre" <<Objet physique, contenue de Bibiliotheque, Produit ou service lié a un transaction>>{
  code: string
}
class R  as "Reservation" <<Transaction>> {
  noReservation:String
}

B - -"*" L: permet la recherche
M - -"*" R: fait
R - - EL: est pour
EL "*" - - L: sont décrit 
L - - A: est écrit par 
L - - ME: est éditer par une
B - - "*" M: offre des service à
@enduml

PlantUML version 1.2021.01beta3(Unknown compile time)
(GPL source distribution)
Java Runtime: Java(TM) SE Runtime Environment
JVM: Java HotSpot(TM) 64-Bit Server VM
Default Encoding: UTF-8
Language: en
Country: US
--></g></svg>