<?xml version="1.0" encoding="UTF-8" standalone="no"?><svg xmlns="http://www.w3.org/2000/svg" xmlns:xlink="http://www.w3.org/1999/xlink" contentScriptType="application/ecmascript" contentStyleType="text/css" height="350px" preserveAspectRatio="none" style="width:1025px;height:350px;background:#FFFFFF;" version="1.1" viewBox="0 0 1025 350" width="1025px" zoomAndPan="magnify"><defs/><g><line style="stroke:#A80036;stroke-width:1.0;stroke-dasharray:5.0,5.0;" x1="389" x2="389" y1="36.2969" y2="343.625"/><line style="stroke:#A80036;stroke-width:1.0;stroke-dasharray:5.0,5.0;" x1="716.5" x2="716.5" y1="36.2969" y2="343.625"/><line style="stroke:#A80036;stroke-width:1.0;stroke-dasharray:5.0,5.0;" x1="866.5" x2="866.5" y1="36.2969" y2="343.625"/><line style="stroke:#A80036;stroke-width:1.0;stroke-dasharray:5.0,5.0;" x1="990.5" x2="990.5" y1="36.2969" y2="343.625"/><rect fill="#FEFECE" height="30.2969" style="stroke:#A80036;stroke-width:1.5;" width="182" x="298" y="5"/><text fill="#000000" font-family="sans-serif" font-size="14" lengthAdjust="spacing" textLength="168" x="305" y="24.9951">:ControleurReservation</text><rect fill="#FEFECE" height="30.2969" style="stroke:#A80036;stroke-width:1.5;" width="111" x="661.5" y="5"/><text fill="#000000" font-family="sans-serif" font-size="14" lengthAdjust="spacing" textLength="97" x="668.5" y="24.9951">:Bibliotheque</text><rect fill="#FEFECE" height="30.2969" style="stroke:#A80036;stroke-width:1.5;" width="169" x="782.5" y="5"/><text fill="#000000" font-family="sans-serif" font-size="14" lengthAdjust="spacing" textLength="155" x="789.5" y="24.9951">ml:Map&lt;nom, :Livre&gt;</text><rect fill="#FEFECE" height="30.2969" style="stroke:#A80036;stroke-width:1.5;" width="58" x="961.5" y="5"/><text fill="#000000" font-family="sans-serif" font-size="14" lengthAdjust="spacing" textLength="44" x="968.5" y="24.9951">l:Livre</text><path d="M221,51.2969 L221,76.2969 L384,76.2969 L384,61.2969 L374,51.2969 L221,51.2969 " fill="#FBFB77" style="stroke:#A80036;stroke-width:1.0;"/><path d="M374,51.2969 L374,61.2969 L384,61.2969 L374,51.2969 " fill="#FBFB77" style="stroke:#A80036;stroke-width:1.0;"/><text fill="#000000" font-family="sans-serif" font-size="13" lengthAdjust="spacing" textLength="142" x="227" y="68.3638">Controlleur de session</text><polygon fill="#A80036" points="377,98.5625,387,102.5625,377,106.5625" style="stroke:#A80036;stroke-width:1.0;"/><line style="stroke:#A80036;stroke-width:1.0;" x1="0" x2="383" y1="102.5625" y2="102.5625"/><text fill="#000000" font-family="sans-serif" font-size="13" lengthAdjust="spacing" textLength="365" x="7" y="97.4966">livreEtExemplaires:string = selectionnerLivre(livre:string)</text><path d="M510,115.5625 L510,170.5625 L712,170.5625 L712,125.5625 L702,115.5625 L510,115.5625 " fill="#FBFB77" style="stroke:#A80036;stroke-width:1.0;"/><path d="M702,115.5625 L702,125.5625 L712,125.5625 L702,115.5625 " fill="#FBFB77" style="stroke:#A80036;stroke-width:1.0;"/><text fill="#000000" font-family="sans-serif" font-size="13" lengthAdjust="spacing" textLength="140" x="516" y="132.6294">Expert en information</text><text fill="#000000" font-family="sans-serif" font-size="13" lengthAdjust="spacing" textLength="168" x="516" y="147.7622">Controleur -&gt; Bibliotheque</text><text fill="#000000" font-family="sans-serif" font-size="13" lengthAdjust="spacing" textLength="181" x="516" y="162.895">Bibliotheque -&gt; map de livre</text><polygon fill="#A80036" points="705,193.0938,715,197.0938,705,201.0938" style="stroke:#A80036;stroke-width:1.0;"/><line style="stroke:#A80036;stroke-width:1.0;" x1="389" x2="711" y1="197.0938" y2="197.0938"/><text fill="#000000" font-family="sans-serif" font-size="13" lengthAdjust="spacing" textLength="304" x="396" y="192.0278">[l,[exemplaire]] = selectionnerLivre(livre:string)</text><path d="M701,210.0938 L701,235.0938 L862,235.0938 L862,220.0938 L852,210.0938 L701,210.0938 " fill="#FBFB77" style="stroke:#A80036;stroke-width:1.0;"/><path d="M852,210.0938 L852,220.0938 L862,220.0938 L852,210.0938 " fill="#FBFB77" style="stroke:#A80036;stroke-width:1.0;"/><text fill="#000000" font-family="sans-serif" font-size="13" lengthAdjust="spacing" textLength="140" x="707" y="227.1606">Expert en information</text><polygon fill="#A80036" points="855,257.3594,865,261.3594,855,265.3594" style="stroke:#A80036;stroke-width:1.0;"/><line style="stroke:#A80036;stroke-width:1.0;" x1="717" x2="861" y1="261.3594" y2="261.3594"/><text fill="#000000" font-family="sans-serif" font-size="13" lengthAdjust="spacing" textLength="122" x="724" y="256.2935">l = get(nom:string)</text><path d="M710,274.3594 L710,299.3594 L985,299.3594 L985,284.3594 L975,274.3594 L710,274.3594 " fill="#FBFB77" style="stroke:#A80036;stroke-width:1.0;"/><path d="M975,274.3594 L975,284.3594 L985,284.3594 L975,274.3594 " fill="#FBFB77" style="stroke:#A80036;stroke-width:1.0;"/><text fill="#000000" font-family="sans-serif" font-size="13" lengthAdjust="spacing" textLength="254" x="716" y="291.4263">Expert Livre décrit plusieurs exemplaire</text><polygon fill="#A80036" points="978.5,321.625,988.5,325.625,978.5,329.625" style="stroke:#A80036;stroke-width:1.0;"/><line style="stroke:#A80036;stroke-width:1.0;" x1="717" x2="984.5" y1="325.625" y2="325.625"/><text fill="#000000" font-family="sans-serif" font-size="13" lengthAdjust="spacing" textLength="210" x="724" y="320.5591">[exemplaire] = getExemplaires()</text><!--MD5=[9e51e7ffca4d08dbadd17dd194d9b63d]
@startuml
skinparam style strictuml
participant ":ControleurReservation" as S
note left of S: Controlleur de session
participant ":Bibliotheque" as B
participant "ml:Map<nom, :Livre>" as ML
participant "l:Livre" as L

 -> S: livreEtExemplaires:string = selectionnerLivre(livre:string)
 note left of B: Expert en information \nControleur -> Bibliotheque\nBibliotheque -> map de livre
 S->B: [l,[exemplaire]] = selectionnerLivre(livre:string)
 note left of ML: Expert en information
 B->ML: l = get(nom:string)

 note left of L: Expert Livre décrit plusieurs exemplaire
 B->L: [exemplaire] = getExemplaires()
@enduml

PlantUML version 1.2021.7(Sun May 23 12:40:07 UTC 2021)
(GPL source distribution)
Java Runtime: Java(TM) SE Runtime Environment
JVM: Java HotSpot(TM) 64-Bit Server VM
Default Encoding: UTF-8
Language: en
Country: US
--></g></svg>