<?xml version="1.0" encoding="UTF-8" standalone="no"?><svg xmlns="http://www.w3.org/2000/svg" xmlns:xlink="http://www.w3.org/1999/xlink" contentScriptType="application/ecmascript" contentStyleType="text/css" height="647px" preserveAspectRatio="none" style="width:1566px;height:647px;background:#FFFFFF;" version="1.1" viewBox="0 0 1566 647" width="1566px" zoomAndPan="magnify"><defs/><g><text fill="#000000" font-family="sans-serif" font-size="18" lengthAdjust="spacing" textLength="322" x="621.75" y="28.708">Réserver un livre à la bibliothèque</text><line style="stroke:#A80036;stroke-width:1.0;stroke-dasharray:5.0,5.0;" x1="463" x2="463" y1="71.25" y2="640.8047"/><line style="stroke:#A80036;stroke-width:1.0;stroke-dasharray:5.0,5.0;" x1="817" x2="817" y1="498.625" y2="640.8047"/><line style="stroke:#A80036;stroke-width:1.0;stroke-dasharray:5.0,5.0;" x1="960" x2="960" y1="71.25" y2="640.8047"/><line style="stroke:#A80036;stroke-width:1.0;stroke-dasharray:5.0,5.0;" x1="1109" x2="1109" y1="71.25" y2="640.8047"/><line style="stroke:#A80036;stroke-width:1.0;stroke-dasharray:5.0,5.0;" x1="1249.5" x2="1249.5" y1="71.25" y2="640.8047"/><line style="stroke:#A80036;stroke-width:1.0;stroke-dasharray:5.0,5.0;" x1="1425.5" x2="1425.5" y1="71.25" y2="640.8047"/><rect fill="#FEFECE" height="30.2969" style="stroke:#A80036;stroke-width:1.5;" width="182" x="372" y="39.9531"/><text fill="#000000" font-family="sans-serif" font-size="14" lengthAdjust="spacing" textLength="168" x="379" y="59.9482">:ControleurReservation</text><rect fill="#FEFECE" height="30.2969" style="stroke:#A80036;stroke-width:1.5;" width="111" x="905" y="39.9531"/><text fill="#000000" font-family="sans-serif" font-size="14" lengthAdjust="spacing" textLength="97" x="912" y="59.9482">:Bibliotheque</text><rect fill="#FEFECE" height="30.2969" style="stroke:#A80036;stroke-width:1.5;" width="167" x="1026" y="39.9531"/><text fill="#000000" font-family="sans-serif" font-size="14" lengthAdjust="spacing" textLength="153" x="1033" y="59.9482">ml:Map&lt;isbn, :Livre&gt;</text><rect fill="#FEFECE" height="30.2969" style="stroke:#A80036;stroke-width:1.5;" width="58" x="1220.5" y="39.9531"/><text fill="#000000" font-family="sans-serif" font-size="14" lengthAdjust="spacing" textLength="44" x="1227.5" y="59.9482">l:Livre</text><rect fill="#FEFECE" height="30.2969" style="stroke:#A80036;stroke-width:1.5;" width="270" x="1290.5" y="39.9531"/><text fill="#000000" font-family="sans-serif" font-size="14" lengthAdjust="spacing" textLength="256" x="1297.5" y="59.9482">me:Map&lt;code:string, :Exemplaire&gt;</text><path d="M295,86.25 L295,111.25 L458,111.25 L458,96.25 L448,86.25 L295,86.25 " fill="#FBFB77" style="stroke:#A80036;stroke-width:1.0;"/><path d="M448,86.25 L448,96.25 L458,96.25 L448,86.25 " fill="#FBFB77" style="stroke:#A80036;stroke-width:1.0;"/><text fill="#000000" font-family="sans-serif" font-size="13" lengthAdjust="spacing" textLength="142" x="301" y="103.3169">Controlleur de session</text><polygon fill="#A80036" points="451,133.5156,461,137.5156,451,141.5156" style="stroke:#A80036;stroke-width:1.0;"/><line style="stroke:#A80036;stroke-width:1.0;" x1="0" x2="457" y1="137.5156" y2="137.5156"/><text fill="#000000" font-family="sans-serif" font-size="13" lengthAdjust="spacing" textLength="439" x="7" y="132.4497">noconfirmation:string = reserverExemplaire(isbn:string, code:string)</text><path d="M468,150.5156 L468,190.5156 L767,190.5156 L767,160.5156 L757,150.5156 L468,150.5156 " fill="#FBFB77" style="stroke:#A80036;stroke-width:1.0;"/><path d="M757,150.5156 L757,160.5156 L767,160.5156 L757,150.5156 " fill="#FBFB77" style="stroke:#A80036;stroke-width:1.0;"/><text fill="#000000" font-family="sans-serif" font-size="13" lengthAdjust="spacing" textLength="134" x="474" y="167.5825">Createur par default,</text><text fill="#000000" font-family="sans-serif" font-size="13" lengthAdjust="spacing" textLength="278" x="474" y="182.7153">faible couplage avec parametre m:Membre</text><polygon fill="#A80036" points="948.5,212.9141,958.5,216.9141,948.5,220.9141" style="stroke:#A80036;stroke-width:1.0;"/><line style="stroke:#A80036;stroke-width:1.0;" x1="463" x2="954.5" y1="216.9141" y2="216.9141"/><text fill="#000000" font-family="sans-serif" font-size="13" lengthAdjust="spacing" textLength="344" x="470" y="211.8481">exemplaire =  getExemplaire(isbn:string, code:string)</text><polygon fill="#A80036" points="1097.5,242.0469,1107.5,246.0469,1097.5,250.0469" style="stroke:#A80036;stroke-width:1.0;"/><line style="stroke:#A80036;stroke-width:1.0;" x1="960.5" x2="1103.5" y1="246.0469" y2="246.0469"/><text fill="#000000" font-family="sans-serif" font-size="13" lengthAdjust="spacing" textLength="119" x="967.5" y="240.981">l = get(isbn:string)</text><path d="M994,259.0469 L994,299.0469 L1244,299.0469 L1244,269.0469 L1234,259.0469 L994,259.0469 " fill="#FBFB77" style="stroke:#A80036;stroke-width:1.0;"/><path d="M1234,259.0469 L1234,269.0469 L1244,269.0469 L1234,259.0469 " fill="#FBFB77" style="stroke:#A80036;stroke-width:1.0;"/><text fill="#000000" font-family="sans-serif" font-size="13" lengthAdjust="spacing" textLength="140" x="1000" y="276.1138">expert en information</text><text fill="#000000" font-family="sans-serif" font-size="13" lengthAdjust="spacing" textLength="229" x="1000" y="291.2466">l possède une map d'exemmplaires</text><polygon fill="#A80036" points="1237.5,321.4453,1247.5,325.4453,1237.5,329.4453" style="stroke:#A80036;stroke-width:1.0;"/><line style="stroke:#A80036;stroke-width:1.0;" x1="960.5" x2="1243.5" y1="325.4453" y2="325.4453"/><text fill="#000000" font-family="sans-serif" font-size="13" lengthAdjust="spacing" textLength="265" x="967.5" y="320.3794">exemplaire = getExemplaire(code:string)</text><path d="M1083,338.4453 L1083,363.4453 L1244,363.4453 L1244,348.4453 L1234,338.4453 L1083,338.4453 " fill="#FBFB77" style="stroke:#A80036;stroke-width:1.0;"/><path d="M1234,338.4453 L1234,348.4453 L1244,348.4453 L1234,338.4453 " fill="#FBFB77" style="stroke:#A80036;stroke-width:1.0;"/><text fill="#000000" font-family="sans-serif" font-size="13" lengthAdjust="spacing" textLength="140" x="1089" y="355.5122">expert en information</text><polygon fill="#A80036" points="1413.5,385.7109,1423.5,389.7109,1413.5,393.7109" style="stroke:#A80036;stroke-width:1.0;"/><line style="stroke:#A80036;stroke-width:1.0;" x1="1249.5" x2="1419.5" y1="389.7109" y2="389.7109"/><text fill="#000000" font-family="sans-serif" font-size="13" lengthAdjust="spacing" textLength="152" x="1256.5" y="384.645">exemplaire = get(code)</text><path d="M486,402.7109 L486,427.7109 L812,427.7109 L812,412.7109 L802,402.7109 L486,402.7109 " fill="#FBFB77" style="stroke:#A80036;stroke-width:1.0;"/><path d="M802,402.7109 L802,412.7109 L812,412.7109 L802,402.7109 " fill="#FBFB77" style="stroke:#A80036;stroke-width:1.0;"/><text fill="#000000" font-family="sans-serif" font-size="13" lengthAdjust="spacing" textLength="305" x="492" y="419.7778">createur par default, PUCE n'est pas application</text><path d="M540,437.8438 L540,462.8438 L812,462.8438 L812,447.8438 L802,437.8438 L540,437.8438 " fill="#FBFB77" style="stroke:#A80036;stroke-width:1.0;"/><path d="M802,437.8438 L802,447.8438 L812,447.8438 L802,437.8438 " fill="#FBFB77" style="stroke:#A80036;stroke-width:1.0;"/><text fill="#000000" font-family="sans-serif" font-size="13" lengthAdjust="spacing" textLength="251" x="546" y="454.9106">r.noConfirmation est devenu no unique</text><polygon fill="#A80036" points="753,485.1094,763,489.1094,753,493.1094" style="stroke:#A80036;stroke-width:1.0;"/><line style="stroke:#A80036;stroke-width:1.0;" x1="463" x2="759" y1="489.1094" y2="489.1094"/><text fill="#000000" font-family="sans-serif" font-size="13" lengthAdjust="spacing" textLength="278" x="470" y="484.0435">create(m:Membre, exemplaire:Exemplaire)</text><rect fill="#FEFECE" height="30.2969" style="stroke:#A80036;stroke-width:1.5;" width="105" x="765" y="467.9766"/><text fill="#000000" font-family="sans-serif" font-size="14" lengthAdjust="spacing" textLength="91" x="772" y="487.9717">:Reservation</text><line style="stroke:#A80036;stroke-width:1.0;" x1="817.5" x2="859.5" y1="530.4063" y2="530.4063"/><line style="stroke:#A80036;stroke-width:1.0;" x1="859.5" x2="859.5" y1="530.4063" y2="543.4063"/><line style="stroke:#A80036;stroke-width:1.0;" x1="818.5" x2="859.5" y1="543.4063" y2="543.4063"/><polygon fill="#A80036" points="828.5,539.4063,818.5,543.4063,828.5,547.4063" style="stroke:#A80036;stroke-width:1.0;"/><text fill="#000000" font-family="sans-serif" font-size="13" lengthAdjust="spacing" textLength="129" x="824.5" y="525.3403">initNoConfirmation()</text><path d="M374,556.4063 L374,596.4063 L812,596.4063 L812,566.4063 L802,556.4063 L374,556.4063 " fill="#FBFB77" style="stroke:#A80036;stroke-width:1.0;"/><path d="M802,556.4063 L802,566.4063 L812,566.4063 L802,556.4063 " fill="#FBFB77" style="stroke:#A80036;stroke-width:1.0;"/><text fill="#000000" font-family="sans-serif" font-size="13" lengthAdjust="spacing" textLength="413" x="380" y="573.4731">expert: Ctrl possède un référence à l'objet racine Bibliotheque et</text><text fill="#000000" font-family="sans-serif" font-size="13" lengthAdjust="spacing" textLength="170" x="380" y="588.606">r est le mutateur d'attribut</text><polygon fill="#A80036" points="805.5,618.8047,815.5,622.8047,805.5,626.8047" style="stroke:#A80036;stroke-width:1.0;"/><line style="stroke:#A80036;stroke-width:1.0;" x1="463" x2="811.5" y1="622.8047" y2="622.8047"/><text fill="#000000" font-family="sans-serif" font-size="13" lengthAdjust="spacing" textLength="289" x="470" y="617.7388">noConfirmation:string = getNoConfirmation()</text><!--MD5=[ff8046573a8374f925581fe6b892f72a]
@startuml
title: Réserver un livre à la bibliothèque
skinparam style strictuml
participant ":ControleurReservation" as S
note left of S: Controlleur de session
participant ":Reservation" as Reservation
participant ":Bibliotheque" as B
participant "ml:Map<isbn, :Livre>" as ML
participant "l:Livre" as L
participant "me:Map<code:string, :Exemplaire>" as ME

 -> S**: noconfirmation:string = reserverExemplaire(isbn:string, code:string)
note right of S: Createur par default, \nfaible couplage avec parametre m:Membre
S->B: exemplaire =  getExemplaire(isbn:string, code:string)
B -> ML: l = get(isbn:string)
note left of L: expert en information\nl possède une map d'exemmplaires
B -> L: exemplaire = getExemplaire(code:string) 
note left of L: expert en information 
L -> ME: exemplaire = get(code)

note left of Reservation: createur par default, PUCE n'est pas application
note left of Reservation: r.noConfirmation est devenu no unique
S -> Reservation**: create(m:Membre, exemplaire:Exemplaire)
Reservation ->Reservation: initNoConfirmation()

note left of Reservation: expert: Ctrl possède un référence à l'objet racine Bibliotheque et \nr est le mutateur d'attribut
S -> Reservation: noConfirmation:string = getNoConfirmation()
@enduml

PlantUML version 1.2021.7(Sun May 23 12:40:07 UTC 2021)
(GPL source distribution)
Java Runtime: Java(TM) SE Runtime Environment
JVM: Java HotSpot(TM) 64-Bit Server VM
Default Encoding: UTF-8
Language: en
Country: US
--></g></svg>