<?xml version="1.0" encoding="UTF-8" standalone="no"?><svg xmlns="http://www.w3.org/2000/svg" xmlns:xlink="http://www.w3.org/1999/xlink" contentScriptType="application/ecmascript" contentStyleType="text/css" height="321px" preserveAspectRatio="none" style="width:813px;height:321px;background:#FFFFFF;" version="1.1" viewBox="0 0 813 321" width="813px" zoomAndPan="magnify"><defs/><g><text fill="#000000" font-family="sans-serif" font-size="18" lengthAdjust="spacing" textLength="150" x="331.25" y="28.708">rechercherLivre</text><line style="stroke:#A80036;stroke-width:1.0;stroke-dasharray:5.0,5.0;" x1="302" x2="302" y1="71.25" y2="314.3125"/><line style="stroke:#A80036;stroke-width:1.0;stroke-dasharray:5.0,5.0;" x1="561.5" x2="561.5" y1="71.25" y2="314.3125"/><line style="stroke:#A80036;stroke-width:1.0;stroke-dasharray:5.0,5.0;" x1="749.5" x2="749.5" y1="71.25" y2="314.3125"/><rect fill="#FEFECE" height="30.2969" style="stroke:#A80036;stroke-width:1.5;" width="182" x="211" y="39.9531"/><text fill="#000000" font-family="sans-serif" font-size="14" lengthAdjust="spacing" textLength="168" x="218" y="59.9482">:ControleurReservation</text><rect fill="#FEFECE" height="30.2969" style="stroke:#A80036;stroke-width:1.5;" width="111" x="506.5" y="39.9531"/><text fill="#000000" font-family="sans-serif" font-size="14" lengthAdjust="spacing" textLength="97" x="513.5" y="59.9482">:Bibliotheque</text><rect fill="#FEFECE" height="30.2969" style="stroke:#A80036;stroke-width:1.5;" width="115" x="692.5" y="39.9531"/><text fill="#000000" font-family="sans-serif" font-size="14" lengthAdjust="spacing" textLength="101" x="699.5" y="59.9482">ll:List&lt;:Livre&gt;</text><path d="M134,86.25 L134,111.25 L297,111.25 L297,96.25 L287,86.25 L134,86.25 " fill="#FBFB77" style="stroke:#A80036;stroke-width:1.0;"/><path d="M287,86.25 L287,96.25 L297,96.25 L287,86.25 " fill="#FBFB77" style="stroke:#A80036;stroke-width:1.0;"/><text fill="#000000" font-family="sans-serif" font-size="13" lengthAdjust="spacing" textLength="142" x="140" y="103.3169">Controlleur de session</text><polygon fill="#A80036" points="290,133.5156,300,137.5156,290,141.5156" style="stroke:#A80036;stroke-width:1.0;"/><line style="stroke:#A80036;stroke-width:1.0;" x1="0" x2="296" y1="137.5156" y2="137.5156"/><text fill="#000000" font-family="sans-serif" font-size="13" lengthAdjust="spacing" textLength="278" x="7" y="132.4497">livres:string = rechercherLivre(texte:string)</text><path d="M304,150.5156 L304,205.5156 L557,205.5156 L557,160.5156 L547,150.5156 L304,150.5156 " fill="#FBFB77" style="stroke:#A80036;stroke-width:1.0;"/><path d="M547,150.5156 L547,160.5156 L557,160.5156 L547,150.5156 " fill="#FBFB77" style="stroke:#A80036;stroke-width:1.0;"/><text fill="#000000" font-family="sans-serif" font-size="13" lengthAdjust="spacing" textLength="144" x="310" y="167.5825">Expert en information,</text><text fill="#000000" font-family="sans-serif" font-size="13" lengthAdjust="spacing" textLength="224" x="310" y="182.7153">controleur possède la Bibliotheque,</text><text fill="#000000" font-family="sans-serif" font-size="13" lengthAdjust="spacing" textLength="232" x="310" y="197.8481">Bibliotheque possède la liste de livre</text><polygon fill="#A80036" points="550,228.0469,560,232.0469,550,236.0469" style="stroke:#A80036;stroke-width:1.0;"/><line style="stroke:#A80036;stroke-width:1.0;" x1="302" x2="556" y1="232.0469" y2="232.0469"/><text fill="#000000" font-family="sans-serif" font-size="13" lengthAdjust="spacing" textLength="236" x="309" y="226.981">[livre] =rechercherLivre(texte:string)</text><path d="M293,245.0469 L293,270.0469 L745,270.0469 L745,255.0469 L735,245.0469 L293,245.0469 " fill="#FBFB77" style="stroke:#A80036;stroke-width:1.0;"/><path d="M735,245.0469 L735,255.0469 L745,255.0469 L735,245.0469 " fill="#FBFB77" style="stroke:#A80036;stroke-width:1.0;"/><text fill="#000000" font-family="sans-serif" font-size="13" lengthAdjust="spacing" textLength="431" x="299" y="262.1138">List&lt;:Livre&gt; est l'expert pour trouver les livres en sachant un texte</text><polygon fill="#A80036" points="738,292.3125,748,296.3125,738,300.3125" style="stroke:#A80036;stroke-width:1.0;"/><line style="stroke:#A80036;stroke-width:1.0;" x1="562" x2="744" y1="296.3125" y2="296.3125"/><text fill="#000000" font-family="sans-serif" font-size="13" lengthAdjust="spacing" textLength="164" x="569" y="291.2466">[livre] = find(texte:string)</text><!--MD5=[27feaba53ad938c769b9ce512383bf24]
@startuml
title: rechercherLivre
skinparam style strictuml
participant ":ControleurReservation" as S
note left of S: Controlleur de session
participant ":Bibliotheque" as B
participant "ll:List<:Livre>" as LL

 -> S: livres:string = rechercherLivre(texte:string)
note left of B: Expert en information,\ncontroleur possède la Bibliotheque,\nBibliotheque possède la liste de livre
S -> B: [livre] =rechercherLivre(texte:string)
note left of LL: List<:Livre> est l'expert pour trouver les livres en sachant un texte
B -> LL: [livre] = find(texte:string)
@enduml

PlantUML version 1.2021.7(Sun May 23 12:40:07 UTC 2021)
(GPL source distribution)
Java Runtime: Java(TM) SE Runtime Environment
JVM: Java HotSpot(TM) 64-Bit Server VM
Default Encoding: UTF-8
Language: en
Country: US
--></g></svg>