<?xml version="1.0" encoding="UTF-8" standalone="no"?><svg xmlns="http://www.w3.org/2000/svg" xmlns:xlink="http://www.w3.org/1999/xlink" contentScriptType="application/ecmascript" contentStyleType="text/css" height="350px" preserveAspectRatio="none" style="width:847px;height:350px;" version="1.1" viewBox="0 0 847 350" width="847px" zoomAndPan="magnify"><defs/><g><line style="stroke:#A80036;stroke-width:1.0;stroke-dasharray:5.0,5.0;" x1="211" x2="211" y1="36.2969" y2="343.625"/><line style="stroke:#A80036;stroke-width:1.0;stroke-dasharray:5.0,5.0;" x1="538.5" x2="538.5" y1="36.2969" y2="343.625"/><line style="stroke:#A80036;stroke-width:1.0;stroke-dasharray:5.0,5.0;" x1="688.5" x2="688.5" y1="36.2969" y2="343.625"/><line style="stroke:#A80036;stroke-width:1.0;stroke-dasharray:5.0,5.0;" x1="812.5" x2="812.5" y1="36.2969" y2="343.625"/><rect fill="#FEFECE" height="30.2969" style="stroke:#A80036;stroke-width:1.5;" width="182" x="120" y="5"/><text fill="#000000" font-family="sans-serif" font-size="14" lengthAdjust="spacing" textLength="168" x="127" y="24.9951">:ControleurReservation</text><rect fill="#FEFECE" height="30.2969" style="stroke:#A80036;stroke-width:1.5;" width="111" x="483.5" y="5"/><text fill="#000000" font-family="sans-serif" font-size="14" lengthAdjust="spacing" textLength="97" x="490.5" y="24.9951">:Bibliotheque</text><rect fill="#FEFECE" height="30.2969" style="stroke:#A80036;stroke-width:1.5;" width="169" x="604.5" y="5"/><text fill="#000000" font-family="sans-serif" font-size="14" lengthAdjust="spacing" textLength="155" x="611.5" y="24.9951">ml:Map&lt;nom, :Livre&gt;</text><rect fill="#FEFECE" height="30.2969" style="stroke:#A80036;stroke-width:1.5;" width="58" x="783.5" y="5"/><text fill="#000000" font-family="sans-serif" font-size="14" lengthAdjust="spacing" textLength="44" x="790.5" y="24.9951">l:Livre</text><path d="M43,51.2969 L43,76.2969 L206,76.2969 L206,61.2969 L196,51.2969 L43,51.2969 " fill="#FBFB77" style="stroke:#A80036;stroke-width:1.0;"/><path d="M196,51.2969 L196,61.2969 L206,61.2969 L196,51.2969 " fill="#FBFB77" style="stroke:#A80036;stroke-width:1.0;"/><text fill="#000000" font-family="sans-serif" font-size="13" lengthAdjust="spacing" textLength="142" x="49" y="68.3638">Controlleur de session</text><polygon fill="#A80036" points="199,98.5625,209,102.5625,199,106.5625" style="stroke:#A80036;stroke-width:1.0;"/><line style="stroke:#A80036;stroke-width:1.0;" x1="0" x2="205" y1="102.5625" y2="102.5625"/><text fill="#000000" font-family="sans-serif" font-size="13" lengthAdjust="spacing" textLength="187" x="7" y="97.4966">selectionnerLivre(livre:string)</text><path d="M332,115.5625 L332,170.5625 L534,170.5625 L534,125.5625 L524,115.5625 L332,115.5625 " fill="#FBFB77" style="stroke:#A80036;stroke-width:1.0;"/><path d="M524,115.5625 L524,125.5625 L534,125.5625 L524,115.5625 " fill="#FBFB77" style="stroke:#A80036;stroke-width:1.0;"/><text fill="#000000" font-family="sans-serif" font-size="13" lengthAdjust="spacing" textLength="140" x="338" y="132.6294">Expert en information</text><text fill="#000000" font-family="sans-serif" font-size="13" lengthAdjust="spacing" textLength="168" x="338" y="147.7622">Controleur -&gt; Bibliotheque</text><text fill="#000000" font-family="sans-serif" font-size="13" lengthAdjust="spacing" textLength="181" x="338" y="162.895">Bibliotheque -&gt; map de livre</text><polygon fill="#A80036" points="527,193.0938,537,197.0938,527,201.0938" style="stroke:#A80036;stroke-width:1.0;"/><line style="stroke:#A80036;stroke-width:1.0;" x1="211" x2="533" y1="197.0938" y2="197.0938"/><text fill="#000000" font-family="sans-serif" font-size="13" lengthAdjust="spacing" textLength="304" x="218" y="192.0278">[l,[exemplaire]] = selectionnerLivre(livre:string)</text><path d="M523,210.0938 L523,235.0938 L684,235.0938 L684,220.0938 L674,210.0938 L523,210.0938 " fill="#FBFB77" style="stroke:#A80036;stroke-width:1.0;"/><path d="M674,210.0938 L674,220.0938 L684,220.0938 L674,210.0938 " fill="#FBFB77" style="stroke:#A80036;stroke-width:1.0;"/><text fill="#000000" font-family="sans-serif" font-size="13" lengthAdjust="spacing" textLength="140" x="529" y="227.1606">Expert en information</text><polygon fill="#A80036" points="677,257.3594,687,261.3594,677,265.3594" style="stroke:#A80036;stroke-width:1.0;"/><line style="stroke:#A80036;stroke-width:1.0;" x1="539" x2="683" y1="261.3594" y2="261.3594"/><text fill="#000000" font-family="sans-serif" font-size="13" lengthAdjust="spacing" textLength="122" x="546" y="256.2935">l = get(nom:string)</text><path d="M532,274.3594 L532,299.3594 L807,299.3594 L807,284.3594 L797,274.3594 L532,274.3594 " fill="#FBFB77" style="stroke:#A80036;stroke-width:1.0;"/><path d="M797,274.3594 L797,284.3594 L807,284.3594 L797,274.3594 " fill="#FBFB77" style="stroke:#A80036;stroke-width:1.0;"/><text fill="#000000" font-family="sans-serif" font-size="13" lengthAdjust="spacing" textLength="254" x="538" y="291.4263">Expert Livre décrit plusieurs exemplaire</text><polygon fill="#A80036" points="800.5,321.625,810.5,325.625,800.5,329.625" style="stroke:#A80036;stroke-width:1.0;"/><line style="stroke:#A80036;stroke-width:1.0;" x1="539" x2="806.5" y1="325.625" y2="325.625"/><text fill="#000000" font-family="sans-serif" font-size="13" lengthAdjust="spacing" textLength="210" x="546" y="320.5591">[exemplaire] = getExemplaires()</text><!--MD5=[a9ae72c2c2f02d308c93c41bdad647e6]
@startuml
skinparam style strictuml
participant ":ControleurReservation" as S
note left of S: Controlleur de session
participant ":Bibliotheque" as B
participant "ml:Map<nom, :Livre>" as ML
participant "l:Livre" as L

 -> S: selectionnerLivre(livre:string)
 note left of B: Expert en information \nControleur -> Bibliotheque\nBibliotheque -> map de livre
 S->B: [l,[exemplaire]] = selectionnerLivre(livre:string)
 note left of ML: Expert en information
 B->ML: l = get(nom:string)

 note left of L: Expert Livre décrit plusieurs exemplaire
 B->L: [exemplaire] = getExemplaires()
@enduml

PlantUML version 1.2021.01beta3(Unknown compile time)
(GPL source distribution)
Java Runtime: Java(TM) SE Runtime Environment
JVM: Java HotSpot(TM) 64-Bit Server VM
Default Encoding: UTF-8
Language: en
Country: US
--></g></svg>