<?xml version="1.0" encoding="UTF-8" standalone="no"?><svg xmlns="http://www.w3.org/2000/svg" xmlns:xlink="http://www.w3.org/1999/xlink" contentScriptType="application/ecmascript" contentStyleType="text/css" height="768px" preserveAspectRatio="none" style="width:673px;height:768px;" version="1.1" viewBox="0 0 673 768" width="673px" zoomAndPan="magnify"><defs/><g><text fill="#000000" font-family="sans-serif" font-size="18" lengthAdjust="spacing" text-decoration="underline" textLength="221" x="225.25" y="26.708">Retour de voiture louée</text><polygon fill="#000000" points="173.5552,72.0838,172.0894,74.0866,170.3556,77.0202,167.876,78.9972,165.2703,80.0783,163.1927,80.1721,160.5224,78.82,158.0029,77.9367,156.0905,76.1433,155.0873,74.0903,154.4924,72.4555,153.9096,70.3202,152.9636,68.4827,153.6906,66.6886,154.3275,64.7234,156.7175,63.1691,158.3991,61.1524,160.4804,60.4827,162.9547,59.906,166.1276,60.2486,167.8655,61.0682,169.8861,61.4397,172.3429,63.9568,173.1993,66.614,173.5714,68.4271,173.15,71.4149" style="stroke:none;stroke-width:1.0;"/><polygon fill="#FEFECE" points="121.5,99.6514,121.5,99.8615,132,99.237,142.5,99.8447,153,100.051,163.5,98.938,174,99.5737,184.5,99.2249,195,99.2679,205.5,99.6514,205.4913,99.6304,207.1796,100.1707,209.1062,101.2863,210.7229,101.654,212.5458,102.5194,214.3388,103.3125,214.4719,103.3676,215.0447,105.0694,215.8243,106.8568,216.5257,108.6118,217.3227,110.4064,218,112.1514,218.0797,112.1514,218.1952,113.9451,218.2237,115.7389,218.2264,117.5326,218.0849,119.3264,218,121.1201,218.1428,121.1793,217.484,122.9775,216.3134,124.5637,216.0123,126.51,214.9798,128.1534,214.3388,129.959,214.4069,130.1233,212.5079,130.5387,210.7946,131.4023,209.1301,132.384,207.2616,132.8729,205.5,133.6201,205.5,133.7254,195,133.9587,184.5,134.0363,174,133.6162,163.5,133.9073,153,133.0477,142.5,133.9045,132,134.1683,121.5,133.6201,121.5567,133.757,119.8104,133.0767,117.9028,132.0069,116.1135,131.2226,114.3497,130.4998,112.6612,129.959,112.643,129.9514,111.8684,128.1661,111.4065,126.5103,110.4107,124.6334,109.6266,122.8441,109,121.1201,109.0761,121.1201,108.7777,119.3264,108.827,117.5326,109.2163,115.7389,109.1452,113.9451,109,112.1514,109.2262,112.2451,109.6331,110.3426,110.5628,108.6566,111.3785,106.9234,111.7835,105.02,112.6612,103.3125,112.6489,103.283,114.445,102.6191,116.2798,102.0488,117.9639,101.1145,119.7912,100.5261,121.5,99.6514" style="stroke:#A80036;stroke-width:1.5;"/><text fill="#000000" font-family="sans-serif" font-size="12" lengthAdjust="spacing" textLength="89" x="119" y="120.79">Rendre voiture</text><polygon fill="#FEFECE" points="33.5,507.3506,33.5,507.5608,44.0714,506.9363,54.6429,507.5439,65.2143,507.7503,75.7857,506.6372,86.3571,507.2729,96.9286,506.9241,107.5,507.3506,107.4511,507.2325,109.2591,508.0618,110.9473,508.6021,112.8739,509.7178,114.4907,510.0854,116.3388,511.0118,116.2779,510.9865,117.2041,512.8346,117.7769,514.5363,118.5565,516.3238,119.2579,518.0787,120,519.8506,120.0595,519.8506,120.0797,521.6443,120.1952,523.4381,120.2237,525.2318,120.2264,527.0256,120,528.8193,120.0784,528.8518,119.4105,530.6462,118.7518,532.4444,117.5812,534.0306,117.28,535.977,116.3388,537.6582,116.301,537.5669,114.6392,538.5548,112.7402,538.9702,111.0268,539.8338,109.3624,540.8155,107.5,541.3193,107.5,541.2706,96.9286,541.4246,86.3571,541.658,75.7857,541.7356,65.2143,541.3154,54.6429,541.6065,44.0714,540.7469,33.5,541.3193,33.5363,541.4069,31.8022,540.7559,30.0212,539.9918,28.2749,539.3114,26.3673,538.2416,24.6612,537.6582,24.4603,537.575,23.7376,535.8111,23.1786,534.1151,22.4039,532.3298,21.9421,530.674,21,528.8193,20.9418,528.8193,20.8856,527.0256,21.0761,525.2318,20.7777,523.4381,20.827,521.6443,21,519.8506,21.1999,519.9334,21.8664,518.1384,22.6907,516.4087,23.0976,514.5062,24.0272,512.8202,24.6612,511.0118,24.7365,511.1936,26.3687,510.134,28.1845,509.5178,29.9805,508.8538,31.8154,508.2835,33.5,507.3506" style="stroke:#A80036;stroke-width:1.5;"/><text fill="#000000" font-family="sans-serif" font-size="12" lengthAdjust="spacing" textLength="79" x="31" y="528.4893">Payer facture</text><polygon fill="#FEFECE" points="58,576.3193,58,576.3894,63,576.1812,68,576.3838,73,576.4526,78,576.0815,83,576.3193,82.9901,576.2954,84.7134,576.9202,86.4866,577.6657,88.2946,578.495,89.9829,579.0354,91.8388,579.9805,92.0093,580.0511,92.377,581.6679,93.2424,583.4908,94.1686,585.3389,94.7414,587.0406,95.5,588.8193,95.5227,588.8193,95.4894,590.6131,95.5595,592.4068,95.5797,594.2006,95.6952,595.9943,95.5,597.7881,95.7067,597.8737,94.977,599.6425,94.1139,601.3561,93.4461,603.1505,92.7873,604.9487,91.8388,606.6269,91.7468,606.4048,90.1576,607.5681,88.2655,608.0001,86.6036,608.988,84.7046,609.4034,83,610.2881,83,610.2653,78,610.5353,73,610.2718,68,610.3232,63,610.401,58,610.2881,58.0531,610.4163,56.2317,609.5546,54.5011,608.9121,52.6237,607.9151,50.9652,607.4467,49.1612,606.6269,49.33,606.6968,48.5658,604.9159,47.8855,603.1696,46.8157,601.262,46.0314,599.4727,45.5,597.7881,45.2929,597.7881,45.4804,595.9943,45.4345,594.2006,45.7271,592.4068,45.4418,590.6131,45.5,588.8193,45.3944,588.7756,46.3025,587.0807,46.7591,585.1987,47.5368,583.4498,48.6288,581.831,49.1612,579.9805,49.2167,580.1147,51.0226,579.4745,52.6557,578.4169,54.5052,577.8821,56.3075,577.2334,58,576.3193" style="stroke:#A80036;stroke-width:1.5;"/><text fill="#000000" font-family="sans-serif" font-size="12" lengthAdjust="spacing" textLength="30" x="55.5" y="597.458">Partir</text><path d="M15,33.6982 L15.2802,33.6982 L14.4476,43.7409 L15.2577,53.7836 L15.5329,63.8263 L14.0488,73.869 L14.8964,83.9117 L14.4313,93.9544 L14.4887,103.9971 L14.9091,114.0398 L14.0782,124.0825 L15.7382,134.1252 L14.1596,144.1679 L14.7363,154.2106 L15.5759,164.2533 L14.8856,174.296 L15.091,184.3387 L14.9574,194.3814 L15.238,204.4241 L15.3188,214.4668 L15.7809,224.5095 L15.8947,234.5522 L15.9057,244.5949 L15.3395,254.6376 L15.6181,264.6803 L15.9363,274.723 L14.0384,284.7657 L15.9047,294.8084 L14.6047,304.8511 L15.7117,314.8938 L14.34,324.9365 L14.9087,334.9792 L15.9888,345.0219 L14.935,355.0646 L15.1404,365.1073 L15.4515,375.15 L15.555,385.1927 L14.9948,395.2354 L15.383,405.278 L14.2368,415.3207 L15.3792,425.3634 L15.7309,435.4061 L15.5927,445.4488 L15.8174,455.4915 L14.3559,465.5342 L14.1304,475.5769 L14.1715,485.6196 L14.9215,495.6623 L14.738,505.705 L15.9085,515.7477 L14.7671,525.7904 L14.5426,535.8331 L15.3044,545.8758 L14.1109,555.9185 L14.3078,565.9612 L15.8653,576.0039 L15.5809,586.0466 L15.9793,596.0893 L14.5709,606.132 L15.4256,616.1747 L15.7872,626.2174 L14.3701,636.2601 L14.8722,646.3028 L15.168,656.3455 L15.869,666.3882 L14.9944,676.4309 L15.6168,686.4736 L14.2616,696.5163 L14.097,706.559 L15.6715,716.6017 L14.0441,726.6444 L15.6786,736.6871 L15.2755,746.7298 L15,756.7725 " fill="none" style="stroke:#000000;stroke-width:2.0;"/><polygon fill="#FEFECE" points="337,153.6201,337,153.8303,346.8182,153.2058,356.6364,153.8134,366.4545,154.0198,376.2727,152.9067,386.0909,153.5424,395.9091,153.1936,405.7273,153.2366,415.5455,153.552,425.3636,152.9287,435.1818,154.1738,445,153.6201,444.7899,153.6201,444.9341,160.4139,445.144,167.2076,444.9714,174.0014,445.0227,180.7951,445,187.5889,445,187.5569,435.1818,187.7674,425.3636,187.828,415.5455,188.1746,405.7273,188.2599,395.9091,188.2681,386.0909,187.8435,376.2727,188.0525,366.4545,188.2911,356.6364,186.8677,346.8182,188.2674,337,187.5889,336.9012,187.5889,337.1779,180.7951,336.835,174.0014,336.9772,167.2076,337.2472,160.4139,337,153.6201" style="stroke:#A80036;stroke-width:1.5;"/><text fill="#000000" font-family="sans-serif" font-size="12" lengthAdjust="spacing" textLength="88" x="347" y="174.7588">Voiture et clés</text><polygon fill="#FEFECE" points="331,207.5889,331,207.799,341,207.1745,351,207.7822,361,207.9885,371,206.8755,381,207.5112,391,207.1624,401,207.2054,411,207.5207,421,206.8975,431,208.1425,441,206.9586,451,207.5889,450.9748,207.528,452.8229,208.4541,454.5246,209.0269,456.312,209.8066,458.067,210.508,459.8388,211.25,459.8938,211.2728,460.6447,213.0483,461.4837,214.8603,462.2422,216.6389,462.977,218.4077,463.5,220.0889,463.5849,220.0889,463.6545,224.6764,463.7341,229.2639,463.2596,233.8514,463.7262,238.4389,463.5,243.0264,463.4087,242.9885,462.9322,244.8622,461.8831,246.4988,461.2822,248.3209,460.7995,250.192,459.8388,251.8652,459.8326,251.8502,458.0845,252.6299,456.3465,253.434,454.5886,254.1901,452.7673,254.7929,451,255.5264,451,255.8136,441,254.9539,431,255.8108,421,256.0746,411,255.9709,401,256.1394,391,255.0433,381,254.8742,371,254.905,361,255.4675,351,255.3298,341,256.2078,331,255.5264,330.9777,255.4726,329.1885,254.6885,327.4936,254.1322,325.6116,253.1243,323.8627,252.4376,322.1612,251.8652,322.361,251.948,321.5631,250.153,320.9229,248.4234,319.8654,246.5209,319.3305,244.8349,318.5,243.0264,318.6968,243.0264,318.3425,238.4389,318.468,233.8514,318.542,229.2639,318.7173,224.6764,318.5,220.0889,318.4987,220.0883,319.3747,218.3801,319.7939,216.4827,320.4881,214.6992,321.584,213.082,322.1612,211.25,322.0697,211.0292,323.9939,210.6745,325.7231,209.8492,327.4303,208.9708,329.1871,208.2122,331,207.5889" style="stroke:#A80036;stroke-width:1.5;"/><text fill="#000000" font-family="sans-serif" font-size="12" lengthAdjust="spacing" textLength="125" x="328.5" y="228.7275">Noter kilomètrage et</text><text fill="#000000" font-family="sans-serif" font-size="12" lengthAdjust="spacing" textLength="106" x="328.5" y="242.6963">niveau d'essence</text><polygon fill="#000000" points="230.5,275.5264,230.5,275.7365,240.6042,275.112,250.7083,275.7197,260.8125,275.926,270.9167,274.813,281.0208,275.4487,291.125,275.0999,301.2292,275.1429,311.3333,275.4582,321.4375,274.835,331.5417,276.08,341.6458,274.8961,351.75,275.3286,361.8542,275.9583,371.9583,275.4406,382.0625,275.5946,392.1667,275.4944,402.2708,275.7049,412.375,275.7655,422.4792,276.1121,432.5833,276.1974,442.6875,276.2056,452.7917,275.781,462.8958,275.99,473,275.5264,473.0896,275.7426,473.2616,275.4507,473.7937,276.0282,474.0228,275.8744,474.4823,276.2765,474.7678,276.2586,474.6153,276.1955,474.8931,276.6034,475.289,277.0603,475.1921,277.313,475.386,277.6862,475.5,278.0264,475.6129,278.0264,475.6387,278.2264,475.4987,278.4264,475.5957,278.6264,475.3092,278.8264,475.5,279.0264,475.5876,279.0626,475.5224,279.4498,475.344,279.7902,475.2494,280.1652,474.7654,280.379,474.7678,280.7941,474.6846,280.5933,474.3349,280.7492,474.0531,281.0689,473.682,281.173,473.4405,281.5898,473,281.5264,473,281.3517,462.8958,281.1833,452.7917,281.7546,442.6875,280.8595,432.5833,281.0072,422.4792,282.1753,412.375,281.962,402.2708,282.2609,392.1667,281.2046,382.0625,281.8456,371.9583,282.1168,361.8542,281.054,351.75,281.4305,341.6458,281.6524,331.5417,282.1781,321.4375,281.5222,311.3333,281.9889,301.2292,280.9726,291.125,280.8491,281.0208,282.03,270.9167,280.8094,260.8125,282.0353,250.7083,281.733,240.6042,281.2585,230.5,281.5264,230.4549,281.4174,230.205,281.5212,229.7547,281.1413,229.5148,281.2693,229.0153,280.7704,228.7322,280.7941,228.9224,280.8729,228.7349,280.5024,228.5148,280.1183,228.3074,279.7395,228.3702,279.4726,228,279.0264,228.2045,279.0264,228.0564,278.8264,228.0894,278.6264,227.9566,278.4264,228.2388,278.2264,228,278.0264,228.0477,278.0461,228.1996,277.6948,228.1055,277.2417,228.3145,276.914,228.7492,276.6799,228.7322,276.2586,228.7871,276.3909,229.0803,276.0989,229.3982,275.8665,229.765,275.7518,230.0589,275.4615,230.5,275.5264" style="stroke:#000000;stroke-width:1.0;"/><polygon fill="#FEFECE" points="252.5,369.4131,252.5,369.6233,262.6111,368.9988,272.7222,369.6064,282.8333,369.8128,292.9444,368.6997,303.0556,369.3354,313.1667,368.9866,323.2778,369.0296,333.3889,369.3449,343.5,369.4131,343.4118,369.2002,345.3384,370.3158,346.9551,370.6835,348.7781,371.5489,350.6262,372.475,352.3388,373.0743,352.3124,373.0633,353.0921,374.8507,353.7935,376.6057,354.5905,378.4003,355.3414,380.1758,356,381.9131,356.1952,381.9131,356.2237,383.7068,356.2264,385.5006,356.0849,387.2943,356.1545,389.0881,356,390.8818,356.2163,390.9714,355.0457,392.5576,354.7445,394.5039,353.712,396.1473,353.2355,398.021,352.3388,399.7207,352.2757,399.5682,350.5623,400.4318,348.8979,401.4135,347.0293,401.9024,345.2812,402.682,343.5,403.3818,343.5,403.7205,333.3889,403.7981,323.2778,403.3779,313.1667,403.669,303.0556,402.8094,292.9444,403.6662,282.8333,403.93,272.7222,403.8264,262.6111,403.9949,252.5,403.3818,252.4384,403.2331,250.649,402.4488,248.8852,401.726,247.1892,401.167,245.4039,400.3924,243.6612,399.7207,243.871,399.8076,242.8751,397.9306,242.0911,396.1414,241.5348,394.4465,240.5269,392.5645,240,390.8818,239.827,390.8818,240.2163,389.0881,240.1452,387.2943,240.2448,385.5006,239.8927,383.7068,240,381.9131,240.0983,381.9538,240.9141,380.2206,241.319,378.3173,242.1672,376.5976,242.9677,374.8581,243.6612,373.0743,243.7443,373.275,245.4284,372.3407,247.2557,371.7522,248.8938,370.707,250.6458,369.9368,252.5,369.4131" style="stroke:#A80036;stroke-width:1.5;"/><text fill="#000000" font-family="sans-serif" font-size="12" lengthAdjust="spacing" textLength="96" x="250" y="390.5518">Générer facture</text><polygon fill="#FEFECE" points="265.5,438.3818,265.5,438.592,274.7857,437.9675,284.0714,438.5751,293.3571,438.7815,302.6429,437.6684,311.9286,438.3041,321.2143,437.9553,330.5,438.3818,330.3722,438.3818,330.4773,445.1756,330.2695,451.9693,330.6845,458.7631,330.2899,465.5568,330.5,472.3506,330.5,472.1528,321.2143,472.7825,311.9286,472.2648,302.6429,472.4188,293.3571,472.3186,284.0714,472.5291,274.7857,472.5897,265.5,472.3506,265.6952,472.3506,265.7237,465.5568,265.7264,458.7631,265.5849,451.9693,265.6545,445.1756,265.5,438.3818" style="stroke:#A80036;stroke-width:1.5;"/><text fill="#000000" font-family="sans-serif" font-size="12" lengthAdjust="spacing" textLength="45" x="275.5" y="459.5205">Facture</text><polygon fill="#FFFFFF" points="402.0608,748.4481,400.4484,750.6513,398.5412,753.8782,395.8136,756.0529,392.9474,757.2421,390.662,757.3453,387.7247,755.858,384.9532,754.8864,382.8495,752.9136,381.7461,750.6552,381.0917,748.857,380.4506,746.5082,379.41,744.4869,380.2096,742.5135,380.9102,740.3517,383.5393,738.6419,385.389,736.4236,387.6784,735.6869,390.4001,735.0525,393.8904,735.4294,395.8021,736.331,398.0247,736.7396,400.7272,739.5084,401.6693,742.4314,402.0786,744.4258,401.615,747.7123" style="stroke:#000000;stroke-width:1.0;"/><polygon fill="#000000" points="397.0331,747.2319,396.1536,748.4336,395.1134,750.1938,393.6256,751.3799,392.0622,752.0286,390.8156,752.0849,389.2135,751.2737,387.7017,750.7437,386.5543,749.6677,385.9524,748.4358,385.5955,747.4549,385.2458,746.1738,384.6782,745.0713,385.1143,743.9948,385.4965,742.8157,386.9305,741.8831,387.9394,740.6731,389.1882,740.2712,390.6728,739.9252,392.5766,740.1308,393.6193,740.6226,394.8317,740.8455,396.3057,742.3557,396.8196,743.9501,397.0429,745.0379,396.79,746.8306" style="stroke:#7F7F7F;stroke-width:1.0;"/><path d="M222,33.6982 L222.2802,33.6982 L221.4476,43.7409 L222.2577,53.7836 L222.5329,63.8263 L221.0488,73.869 L221.8964,83.9117 L221.4313,93.9544 L221.4887,103.9971 L221.9091,114.0398 L221.0782,124.0825 L222.7382,134.1252 L221.1596,144.1679 L221.7363,154.2106 L222.5759,164.2533 L221.8856,174.296 L222.091,184.3387 L221.9574,194.3814 L222.238,204.4241 L222.3188,214.4668 L222.7809,224.5095 L222.8947,234.5522 L222.9057,244.5949 L222.3395,254.6376 L222.6181,264.6803 L222.9363,274.723 L221.0384,284.7657 L222.9047,294.8084 L221.6047,304.8511 L222.7117,314.8938 L221.34,324.9365 L221.9087,334.9792 L222.9888,345.0219 L221.935,355.0646 L222.1404,365.1073 L222.4515,375.15 L222.555,385.1927 L221.9948,395.2354 L222.383,405.278 L221.2368,415.3207 L222.3792,425.3634 L222.7309,435.4061 L222.5927,445.4488 L222.8174,455.4915 L221.3559,465.5342 L221.1304,475.5769 L221.1715,485.6196 L221.9215,495.6623 L221.738,505.705 L222.9085,515.7477 L221.7671,525.7904 L221.5426,535.8331 L222.3044,545.8758 L221.1109,555.9185 L221.3078,565.9612 L222.8653,576.0039 L222.5809,586.0466 L222.9793,596.0893 L221.5709,606.132 L222.4256,616.1747 L222.7872,626.2174 L221.3701,636.2601 L221.8722,646.3028 L222.168,656.3455 L222.869,666.3882 L221.9944,676.4309 L222.6168,686.4736 L221.2616,696.5163 L221.097,706.559 L222.6715,716.6017 L221.0441,726.6444 L222.6786,736.6871 L222.2755,746.7298 L222,756.7725 " fill="none" style="stroke:#000000;stroke-width:2.0;"/><polygon fill="#FEFECE" points="511.5,301.5264,511.5,301.7365,521.3,301.112,531.1,301.7197,540.9,301.926,550.7,300.813,560.5,301.4487,570.3,301.0999,580.1,301.1429,589.9,301.4582,599.7,300.835,609.5,301.5264,609.5706,301.6969,611.1874,302.0645,613.0103,302.9299,614.8584,303.8561,616.5601,304.4289,618.3388,305.1875,618.3598,305.1962,619.0612,306.9512,619.8583,308.7458,620.6092,310.5213,621.4481,312.3333,622,314.0264,622.2237,314.0264,622.2264,315.8201,622.0849,317.6139,622.1545,319.4076,622.2341,321.2014,622,322.9951,621.7779,322.9031,621.4767,324.8494,620.4442,326.4928,619.9677,328.3665,618.9186,330.003,618.3388,331.834,618.3301,331.8129,616.6657,332.7946,614.7971,333.2834,613.049,334.0631,611.311,334.8672,609.5,335.4951,609.5,335.9113,599.7,335.4912,589.9,335.7823,580.1,334.9227,570.3,335.7795,560.5,336.0433,550.7,335.9397,540.9,336.1081,531.1,335.012,521.3,334.8429,511.5,335.4951,511.4207,335.3038,509.7247,334.7448,507.9394,333.9701,506.2836,333.5083,504.4067,332.5124,502.6612,331.834,502.5555,331.7902,501.9992,330.0953,500.9913,328.2134,500.3046,326.4644,499.9321,324.8457,499,322.9951,499.1452,322.9951,499.2448,321.2014,498.8927,319.4076,499.1064,317.6139,499.1968,315.8201,499,314.0264,498.8545,313.9661,499.7027,312.2464,500.5033,310.5069,501.3974,308.8062,501.9276,306.9548,502.6612,305.1875,502.7202,305.33,504.3583,304.2848,506.1103,303.5145,508.0287,303.1459,509.6408,302.0378,511.5,301.5264" style="stroke:#A80036;stroke-width:1.5;"/><text fill="#000000" font-family="sans-serif" font-size="12" lengthAdjust="spacing" textLength="103" x="509" y="322.665">Inspecter voiture</text><polygon fill="#FEFECE" points="523.5,403.8975,523.5,404.1076,534.0714,403.4831,544.6429,404.0907,555.2143,404.2971,565.7857,403.1841,576.3571,403.8197,586.9286,403.471,597.5,403.8975,597.4511,403.7794,599.2591,404.6087,600.9473,405.149,602.8739,406.2647,604.4907,406.6323,606.3388,407.5586,606.2779,407.5334,607.2041,409.3815,607.7769,411.0832,608.5565,412.8706,609.2579,414.6256,610,416.3975,610.0595,416.3975,610.0797,418.1912,610.1952,419.985,610.2237,421.7787,610.2264,423.5725,610,425.3662,610.0784,425.3987,609.4105,427.1931,608.7518,428.9913,607.5812,430.5775,607.28,432.5238,606.3388,434.205,606.301,434.1137,604.6392,435.1017,602.7402,435.5171,601.0268,436.3807,599.3624,437.3624,597.5,437.8662,597.5,437.8175,586.9286,437.9715,576.3571,438.2048,565.7857,438.2824,555.2143,437.8623,544.6429,438.1534,534.0714,437.2938,523.5,437.8662,523.5363,437.9538,521.8022,437.3028,520.0212,436.5386,518.2749,435.8583,516.3673,434.7885,514.6612,434.205,514.4603,434.1219,513.7376,432.358,513.1786,430.662,512.4039,428.8767,511.9421,427.2209,511,425.3662,510.9418,425.3662,510.8856,423.5725,511.0761,421.7787,510.7777,419.985,510.827,418.1912,511,416.3975,511.1999,416.4802,511.8664,414.6853,512.6907,412.9556,513.0976,411.0531,514.0272,409.3671,514.6612,407.5586,514.7365,407.7405,516.3687,406.6809,518.1845,406.0646,519.9805,405.4007,521.8154,404.8304,523.5,403.8975" style="stroke:#A80036;stroke-width:1.5;"/><text fill="#000000" font-family="sans-serif" font-size="12" lengthAdjust="spacing" textLength="79" x="521" y="425.0361">Laver voiture</text><polygon fill="#FEFECE" points="521.5,472.8662,521.5,473.0764,531.25,472.4519,541,473.0595,550.75,473.2659,560.5,472.1528,570.25,472.7885,580,472.4397,589.75,472.4827,599.5,472.8662,599.4913,472.8452,601.1796,473.3855,603.1062,474.5012,604.7229,474.8688,606.5458,475.7342,608.3388,476.5274,608.4719,476.5825,609.0447,478.2842,609.8243,480.0716,610.5257,481.8266,611.3227,483.6212,612,485.3662,612.0797,485.3662,612.1952,487.16,612.2237,488.9537,612.2264,490.7475,612.0849,492.5412,612,494.335,612.1428,494.3941,611.484,496.1923,610.3134,497.7785,610.0123,499.7248,608.9798,501.3682,608.3388,503.1738,608.4069,503.3382,606.5079,503.7536,604.7946,504.6172,603.1301,505.5989,601.2616,506.0877,599.5,506.835,599.5,506.9403,589.75,507.1736,580,507.2512,570.25,506.8311,560.5,507.1222,550.75,506.2625,541,507.1193,531.25,507.3832,521.5,506.835,521.5567,506.9719,519.8104,506.2915,517.9028,505.2217,516.1135,504.4374,514.3497,503.7147,512.6612,503.1738,512.643,503.1663,511.8684,501.381,511.4065,499.7252,510.4107,497.8482,509.6266,496.059,509,494.335,509.0761,494.335,508.7777,492.5412,508.827,490.7475,509.2163,488.9537,509.1452,487.16,509,485.3662,509.2262,485.4599,509.6331,483.5574,510.5628,481.8714,511.3785,480.1382,511.7835,478.2349,512.6612,476.5274,512.6489,476.4979,514.445,475.8339,516.2798,475.2636,517.9639,474.3294,519.7912,473.7409,521.5,472.8662" style="stroke:#A80036;stroke-width:1.5;"/><text fill="#000000" font-family="sans-serif" font-size="12" lengthAdjust="spacing" textLength="83" x="519" y="494.0049">Rincer voiture</text><polygon fill="#FEFECE" points="518.5,541.835,518.5,542.0451,529,541.4206,539.5,542.0282,550,542.2346,560.5,541.1216,571,541.7572,581.5,541.4085,592,541.4515,602.5,541.835,602.4913,541.814,604.1796,542.3543,606.1062,543.4699,607.7229,543.8376,609.5458,544.703,611.3388,545.4961,611.4719,545.5512,612.0447,547.253,612.8243,549.0404,613.5257,550.7954,614.3227,552.59,615,554.335,615.0797,554.335,615.1952,556.1287,615.2237,557.9225,615.2264,559.7162,615.0849,561.51,615,563.3037,615.1428,563.3628,614.484,565.1611,613.3134,566.7472,613.0123,568.6936,611.9798,570.337,611.3388,572.1425,611.4069,572.3069,609.5079,572.7223,607.7946,573.5859,606.1301,574.5676,604.2616,575.0565,602.5,575.8037,602.5,575.909,592,576.1423,581.5,576.2199,571,575.7998,560.5,576.0909,550,575.2313,539.5,576.0881,529,576.3519,518.5,575.8037,518.5567,575.9406,516.8104,575.2603,514.9028,574.1905,513.1135,573.4062,511.3497,572.6834,509.6612,572.1425,509.643,572.135,508.8684,570.3497,508.4065,568.6939,507.4107,566.817,506.6266,565.0277,506,563.3037,506.0761,563.3037,505.7777,561.51,505.827,559.7162,506.2163,557.9225,506.1452,556.1287,506,554.335,506.2262,554.4287,506.6331,552.5261,507.5628,550.8401,508.3785,549.107,508.7835,547.2036,509.6612,545.4961,509.6489,545.4666,511.445,544.8027,513.2798,544.2324,514.9639,543.2981,516.7912,542.7096,518.5,541.835" style="stroke:#A80036;stroke-width:1.5;"/><text fill="#000000" font-family="sans-serif" font-size="12" lengthAdjust="spacing" textLength="89" x="516" y="562.9736">Sécher voiture</text><polygon fill="#FEFECE" points="510,610.8037,510,611.0139,520.1,610.3894,530.2,610.997,540.3,611.2034,550.4,610.0903,560.5,610.726,570.6,610.3772,580.7,610.4202,590.8,610.7356,600.9,610.1123,611,610.8037,611.0706,610.9742,612.6874,611.3418,614.5103,612.2073,616.3584,613.1334,618.0601,613.7062,619.8388,614.4649,619.8598,614.4736,620.5612,616.2286,621.3583,618.0232,622.1092,619.7987,622.9481,621.6107,623.5,623.3037,623.7237,623.3037,623.7264,625.0975,623.5849,626.8912,623.6545,628.685,623.7341,630.4787,623.5,632.2725,623.2779,632.1805,622.9767,634.1268,621.9442,635.7702,621.4677,637.6439,620.4186,639.2804,619.8388,641.1113,619.8301,641.0902,618.1657,642.0719,616.2971,642.5608,614.549,643.3404,612.811,644.1445,611,644.7725,611,645.1887,600.9,644.7686,590.8,645.0597,580.7,644.2,570.6,645.0568,560.5,645.3207,550.4,645.217,540.3,645.3855,530.2,644.2894,520.1,644.1203,510,644.7725,509.9207,644.5811,508.2247,644.0221,506.4394,643.2475,504.7836,642.7856,502.9067,641.7897,501.1612,641.1113,501.0555,641.0675,500.4992,639.3726,499.4913,637.4907,498.8046,635.7418,498.4321,634.123,497.5,632.2725,497.6452,632.2725,497.7448,630.4787,497.3927,628.685,497.6064,626.8912,497.6968,625.0975,497.5,623.3037,497.3545,623.2435,498.2027,621.5237,499.0033,619.7842,499.8974,618.0835,500.4276,616.2321,501.1612,614.4649,501.2202,614.6073,502.8583,613.5621,504.6103,612.7918,506.5287,612.4233,508.1408,611.3152,510,610.8037" style="stroke:#A80036;stroke-width:1.5;"/><text fill="#000000" font-family="sans-serif" font-size="12" lengthAdjust="spacing" textLength="106" x="507.5" y="631.9424">Nettoyer intérieur</text><polygon fill="#FEFECE" points="539,355.4951,539,355.5652,547.6,355.357,556.2,355.5595,564.8,355.6283,573.4,355.2573,582,355.4951,581.9817,355.4768,584.2995,357.7946,586.7096,360.2047,589.1839,362.6791,591.437,364.9322,594,367.4951,594.1305,367.6256,591.4514,369.7466,589.1534,372.2485,586.9018,374.7969,584.3798,377.0749,582,379.4951,582,379.5179,573.4,379.4845,564.8,379.5546,556.2,379.5748,547.6,379.6903,539,379.4951,539.1582,379.6533,536.7601,377.2552,534.26,374.7551,531.9093,372.4044,529.5655,370.0606,527,367.4951,526.83,367.3251,529.5599,365.255,531.7301,362.6252,534.3258,360.4209,536.4833,357.7784,539,355.4951" style="stroke:#A80036;stroke-width:1.5;"/><text fill="#000000" font-family="sans-serif" font-size="11" lengthAdjust="spacing" textLength="21" x="564.5" y="389.7056">non</text><text fill="#000000" font-family="sans-serif" font-size="11" lengthAdjust="spacing" textLength="43" x="539" y="371.3032">propre?</text><text fill="#000000" font-family="sans-serif" font-size="11" lengthAdjust="spacing" textLength="17" x="594" y="364.9009">oui</text><polygon fill="#FEFECE" points="560.5,664.7725,560.5495,664.822,562.8023,667.0748,565.3456,669.618,567.7942,672.0667,569.9319,674.2043,572.5,676.7725,572.4817,676.7541,569.9995,679.0719,567.6096,681.4821,565.2839,683.9564,562.737,686.2095,560.5,688.7725,560.6305,688.903,557.9514,686.2239,555.6534,683.9258,553.4018,681.6743,550.8798,679.1522,548.5,676.7725,548.5161,676.7885,550.8925,674.3649,553.3421,672.0145,555.7564,669.6288,558.238,667.3105,560.5,664.7725" style="stroke:#A80036;stroke-width:1.5;"/><polygon fill="#000000" points="488,708.7725,488,708.9826,497.9375,708.3581,507.875,708.9657,517.8125,709.1721,527.75,708.0591,537.6875,708.6947,547.625,708.346,557.5625,708.389,567.5,708.7043,577.4375,708.0811,587.375,709.3261,597.3125,708.1422,607.25,708.5747,617.1875,709.2044,627.125,708.6867,637.0625,708.8407,647,708.7725,646.9959,708.7626,647.3763,708.9739,647.7376,709.139,648.1354,709.3922,648.4998,709.5649,648.7678,709.5047,648.977,709.5913,648.9926,709.8907,649.2034,710.2709,649.4234,710.6549,649.1315,710.8269,649.5,711.2725,649.7262,711.2725,649.4012,711.4725,649.6779,711.6725,649.335,711.8725,649.4772,712.0725,649.5,712.2725,649.7284,712.3671,649.3385,712.6198,649.2395,712.993,649.1649,713.3763,649.0424,713.7398,648.7678,714.0402,648.7673,714.039,648.4509,714.2751,647.9876,714.1568,647.7434,714.5671,647.4235,714.7948,647,714.7725,647,715.217,637.0625,715.3855,627.125,714.2894,617.1875,714.1203,607.25,714.1511,597.3125,714.7136,587.375,714.5759,577.4375,715.4539,567.5,714.5978,557.5625,714.4294,547.625,715.0007,537.6875,714.1056,527.75,714.2533,517.8125,715.4214,507.875,715.2081,497.9375,715.507,488,714.7725,487.959,714.6734,487.6872,714.7243,487.3682,714.6614,486.8791,714.1876,486.5736,714.1572,486.2322,714.0402,486.271,714.0563,486.2865,713.7698,485.938,713.3326,485.9353,713.0386,485.4759,712.5554,485.5,712.2725,485.2742,712.2725,485.6679,712.0725,485.261,711.8725,485.6697,711.6725,485.5689,711.4725,485.5,711.2725,485.4175,711.2383,485.5375,710.8738,485.9342,710.6239,485.8472,710.1736,486.2681,709.9337,486.2322,709.5047,486.1617,709.3345,486.6645,709.5484,487.0011,709.3609,487.3241,709.1408,487.6525,708.9334,488,708.7725" style="stroke:#000000;stroke-width:1.0;"/><path d="M479.5,33.6982 L479.7802,33.6982 L478.9476,43.7409 L479.7577,53.7836 L480.0329,63.8263 L478.5488,73.869 L479.3964,83.9117 L478.9313,93.9544 L478.9887,103.9971 L479.4091,114.0398 L478.5782,124.0825 L480.2382,134.1252 L478.6596,144.1679 L479.2363,154.2106 L480.0759,164.2533 L479.3856,174.296 L479.591,184.3387 L479.4574,194.3814 L479.738,204.4241 L479.8188,214.4668 L480.2809,224.5095 L480.3947,234.5522 L480.4057,244.5949 L479.8395,254.6376 L480.1181,264.6803 L480.4363,274.723 L478.5384,284.7657 L480.4047,294.8084 L479.1047,304.8511 L480.2117,314.8938 L478.84,324.9365 L479.4087,334.9792 L480.4888,345.0219 L479.435,355.0646 L479.6404,365.1073 L479.9515,375.15 L480.055,385.1927 L479.4948,395.2354 L479.883,405.278 L478.7368,415.3207 L479.8792,425.3634 L480.2309,435.4061 L480.0927,445.4488 L480.3174,455.4915 L478.8559,465.5342 L478.6304,475.5769 L478.6715,485.6196 L479.4215,495.6623 L479.238,505.705 L480.4085,515.7477 L479.2671,525.7904 L479.0426,535.8331 L479.8044,545.8758 L478.6109,555.9185 L478.8078,565.9612 L480.3653,576.0039 L480.0809,586.0466 L480.4793,596.0893 L479.0709,606.132 L479.9256,616.1747 L480.2872,626.2174 L478.8701,636.2601 L479.3722,646.3028 L479.668,656.3455 L480.369,666.3882 L479.4944,676.4309 L480.1168,686.4736 L478.7616,696.5163 L478.597,706.559 L480.1715,716.6017 L478.5441,726.6444 L480.1786,736.6871 L479.7755,746.7298 L479.5,756.7725 " fill="none" style="stroke:#000000;stroke-width:2.0;"/><path d="M653.5,33.6982 L653.7802,33.6982 L652.9476,43.7409 L653.7577,53.7836 L654.0329,63.8263 L652.5488,73.869 L653.3964,83.9117 L652.9313,93.9544 L652.9887,103.9971 L653.4091,114.0398 L652.5782,124.0825 L654.2382,134.1252 L652.6596,144.1679 L653.2363,154.2106 L654.0759,164.2533 L653.3856,174.296 L653.591,184.3387 L653.4574,194.3814 L653.738,204.4241 L653.8188,214.4668 L654.2809,224.5095 L654.3947,234.5522 L654.4057,244.5949 L653.8395,254.6376 L654.1181,264.6803 L654.4363,274.723 L652.5384,284.7657 L654.4047,294.8084 L653.1047,304.8511 L654.2117,314.8938 L652.84,324.9365 L653.4087,334.9792 L654.4888,345.0219 L653.435,355.0646 L653.6404,365.1073 L653.9515,375.15 L654.055,385.1927 L653.4948,395.2354 L653.883,405.278 L652.7368,415.3207 L653.8792,425.3634 L654.2309,435.4061 L654.0927,445.4488 L654.3174,455.4915 L652.8559,465.5342 L652.6304,475.5769 L652.6715,485.6196 L653.4215,495.6623 L653.238,505.705 L654.4085,515.7477 L653.2671,525.7904 L653.0426,535.8331 L653.8044,545.8758 L652.6109,555.9185 L652.8078,565.9612 L654.3653,576.0039 L654.0809,586.0466 L654.4793,596.0893 L653.0709,606.132 L653.9256,616.1747 L654.2872,626.2174 L652.8701,636.2601 L653.3722,646.3028 L653.668,656.3455 L654.369,666.3882 L653.4944,676.4309 L654.1168,686.4736 L652.7616,696.5163 L652.597,706.559 L654.1715,716.6017 L652.5441,726.6444 L654.1786,736.6871 L653.7755,746.7298 L653.5,756.7725 " fill="none" style="stroke:#000000;stroke-width:2.0;"/><path d="M163.5,79.6514 L163.5934,79.6514 L163.3159,83.6514 L163.5859,87.6514 L163.6776,91.6514 L163.1829,95.6514 L163.5,99.6514 " fill="#A80036" style="stroke:#A80036;stroke-width:1.5;"/><polygon fill="#A80036" points="159.5,89.6514,159.565,89.6774,160.1718,91.6001,161.1598,93.6753,162.0237,95.7008,162.4792,97.5631,163.5,99.6514,163.4759,99.6417,164.168,97.5986,164.9813,95.6039,165.8789,93.6429,166.486,91.5658,167.5,89.6514,167.6305,89.7819,166.5514,90.3028,165.8534,91.2048,165.2018,92.1532,164.2798,92.8311,163.5,93.6514,163.5161,93.6675,162.6925,92.8438,161.9421,92.0934,161.1564,91.3077,160.438,90.5894,159.5,89.6514" style="stroke:#A80036;stroke-width:1.0;"/><path d="M70.5,541.3193 L70.5934,541.3193 L70.3159,548.3193 L70.5859,555.3193 L70.6776,562.3193 L70.1829,569.3193 L70.5,576.3193 " fill="#A80036" style="stroke:#A80036;stroke-width:1.5;"/><polygon fill="#A80036" points="66.5,566.3193,66.565,566.3454,67.1718,568.268,68.1598,570.3433,69.0237,572.3688,69.4792,574.231,70.5,576.3193,70.4759,576.3097,71.168,574.2665,71.9813,572.2719,72.8789,570.3109,73.486,568.2337,74.5,566.3193,74.6305,566.4498,73.5514,566.9708,72.8534,567.8727,72.2018,568.8211,71.2798,569.4991,70.5,570.3193,70.5161,570.3354,69.6925,569.5118,68.9421,568.7614,68.1564,567.9757,67.438,567.2574,66.5,566.3193" style="stroke:#A80036;stroke-width:1.0;"/><path d="M391,187.5889 L391.0934,187.5889 L390.8159,191.5889 L391.0859,195.5889 L391.1776,199.5889 L390.6829,203.5889 L391,207.5889 " fill="#A80036" style="stroke:#A80036;stroke-width:1.5;"/><polygon fill="#A80036" points="387,197.5889,387.065,197.6149,387.6718,199.5376,388.6598,201.6128,389.5237,203.6383,389.9792,205.5006,391,207.5889,390.9759,207.5792,391.668,205.5361,392.4813,203.5414,393.3789,201.5804,393.986,199.5033,395,197.5889,395.1305,197.7194,394.0514,198.2403,393.3534,199.1423,392.7018,200.0907,391.7798,200.7686,391,201.5889,391.0161,201.605,390.1925,200.7813,389.4421,200.0309,388.6564,199.2452,387.938,198.5269,387,197.5889" style="stroke:#A80036;stroke-width:1.0;"/><path d="M298,403.3818 L298.0934,403.3818 L297.8159,410.3818 L298.0859,417.3818 L298.1776,424.3818 L297.6829,431.3818 L298,438.3818 " fill="#A80036" style="stroke:#A80036;stroke-width:1.5;"/><polygon fill="#A80036" points="294,428.3818,294.065,428.4079,294.6718,430.3305,295.6598,432.4058,296.5237,434.4313,296.9792,436.2935,298,438.3818,297.9759,438.3722,298.668,436.329,299.4813,434.3344,300.3789,432.3734,300.986,430.2962,302,428.3818,302.1305,428.5123,301.0514,429.0333,300.3534,429.9352,299.7018,430.8836,298.7798,431.5616,298,432.3818,298.0161,432.3979,297.1925,431.5743,296.4421,430.8239,295.6564,430.0382,294.938,429.3199,294,428.3818" style="stroke:#A80036;stroke-width:1.0;"/><path d="M298,281.5264 L298.2802,281.5264 L297.4476,291.2916 L298.2577,301.0567 L298.5329,310.8219 L297.0488,320.5871 L297.8964,330.3523 L297.4313,340.1175 L297.4887,349.8827 L297.9091,359.6479 L298,369.4131 " fill="#A80036" style="stroke:#A80036;stroke-width:1.5;"/><polygon fill="#A80036" points="294,359.4131,294.065,359.4391,294.6718,361.3618,295.6598,363.437,296.5237,365.4626,296.9792,367.3248,298,369.4131,297.9759,369.4035,298.668,367.3603,299.4813,365.3656,300.3789,363.4046,300.986,361.3275,302,359.4131,302.1305,359.5436,301.0514,360.0645,300.3534,360.9665,299.7018,361.9149,298.7798,362.5929,298,363.4131,298.0161,363.4292,297.1925,362.6056,296.4421,361.8552,295.6564,361.0695,294.938,360.3511,294,359.4131" style="stroke:#A80036;stroke-width:1.0;"/><path d="M391,255.5264 L391.0934,255.5264 L390.8159,259.5264 L391.0859,263.5264 L391.1776,267.5264 L390.6829,271.5264 L391,275.5264 " fill="#A80036" style="stroke:#A80036;stroke-width:1.5;"/><polygon fill="#A80036" points="387,265.5264,387.065,265.5524,387.6718,267.4751,388.6598,269.5503,389.5237,271.5758,389.9792,273.4381,391,275.5264,390.9759,275.5167,391.668,273.4736,392.4813,271.4789,393.3789,269.5179,393.986,267.4408,395,265.5264,395.1305,265.6569,394.0514,266.1778,393.3534,267.0798,392.7018,268.0282,391.7798,268.7061,391,269.5264,391.0161,269.5425,390.1925,268.7188,389.4421,267.9684,388.6564,267.1827,387.938,266.4644,387,265.5264" style="stroke:#A80036;stroke-width:1.0;"/><path d="M560.5,437.8662 L560.5934,437.8662 L560.3159,444.8662 L560.5859,451.8662 L560.6776,458.8662 L560.1829,465.8662 L560.5,472.8662 " fill="#A80036" style="stroke:#A80036;stroke-width:1.5;"/><polygon fill="#A80036" points="556.5,462.8662,556.565,462.8922,557.1718,464.8149,558.1598,466.8901,559.0237,468.9157,559.4792,470.7779,560.5,472.8662,560.4759,472.8566,561.168,470.8134,561.9813,468.8187,562.8789,466.8578,563.486,464.7806,564.5,462.8662,564.6305,462.9967,563.5514,463.5177,562.8534,464.4196,562.2018,465.368,561.2798,466.046,560.5,466.8662,560.5161,466.8823,559.6925,466.0587,558.9421,465.3083,558.1564,464.5226,557.438,463.8043,556.5,462.8662" style="stroke:#A80036;stroke-width:1.0;"/><path d="M560.5,506.835 L560.5934,506.835 L560.3159,513.835 L560.5859,520.835 L560.6776,527.835 L560.1829,534.835 L560.5,541.835 " fill="#A80036" style="stroke:#A80036;stroke-width:1.5;"/><polygon fill="#A80036" points="556.5,531.835,556.565,531.861,557.1718,533.7837,558.1598,535.8589,559.0237,537.8844,559.4792,539.7466,560.5,541.835,560.4759,541.8253,561.168,539.7822,561.9813,537.7875,562.8789,535.8265,563.486,533.7494,564.5,531.835,564.6305,531.9655,563.5514,532.4864,562.8534,533.3883,562.2018,534.3368,561.2798,535.0147,560.5,535.835,560.5161,535.851,559.6925,535.0274,558.9421,534.277,558.1564,533.4913,557.438,532.773,556.5,531.835" style="stroke:#A80036;stroke-width:1.0;"/><path d="M560.5,575.8037 L560.5934,575.8037 L560.3159,582.8037 L560.5859,589.8037 L560.6776,596.8037 L560.1829,603.8037 L560.5,610.8037 " fill="#A80036" style="stroke:#A80036;stroke-width:1.5;"/><polygon fill="#A80036" points="556.5,600.8037,556.565,600.8297,557.1718,602.7524,558.1598,604.8276,559.0237,606.8532,559.4792,608.7154,560.5,610.8037,560.4759,610.7941,561.168,608.7509,561.9813,606.7562,562.8789,604.7953,563.486,602.7181,564.5,600.8037,564.6305,600.9342,563.5514,601.4552,562.8534,602.3571,562.2018,603.3055,561.2798,603.9835,560.5,604.8037,560.5161,604.8198,559.6925,603.9962,558.9421,603.2458,558.1564,602.4601,557.438,601.7418,556.5,600.8037" style="stroke:#A80036;stroke-width:1.0;"/><path d="M560.5,379.4951 L560.5934,379.4951 L560.3159,384.3756 L560.5859,389.2561 L560.6776,394.1365 L560.1829,399.017 L560.5,403.8975 " fill="#A80036" style="stroke:#A80036;stroke-width:1.5;"/><polygon fill="#A80036" points="556.5,393.8975,556.565,393.9235,557.1718,395.8462,558.1598,397.9214,559.0237,399.9469,559.4792,401.8091,560.5,403.8975,560.4759,403.8878,561.168,401.8447,561.9813,399.85,562.8789,397.889,563.486,395.8119,564.5,393.8975,564.6305,394.028,563.5514,394.5489,562.8534,395.4508,562.2018,396.3993,561.2798,397.0772,560.5,397.8975,560.5161,397.9135,559.6925,397.0899,558.9421,396.3395,558.1564,395.5538,557.438,394.8355,556.5,393.8975" style="stroke:#A80036;stroke-width:1.0;"/><path d="M594,367.4951 L594,367.5885 L601.9,367.311 L609.8,367.581 L617.7,367.6728 L625.6,367.1781 L633.5,367.4951 " fill="#A80036" style="stroke:#A80036;stroke-width:1.5;"/><polygon fill="#A80036" points="629.5,514.335,629.565,514.361,630.1718,516.2837,631.1598,518.3589,632.0237,520.3844,632.4792,522.2466,633.5,524.335,633.4759,524.3253,634.168,522.2822,634.9813,520.2875,635.8789,518.3265,636.486,516.2494,637.5,514.335,637.6305,514.4655,636.5514,514.9864,635.8534,515.8883,635.2018,516.8368,634.2798,517.5147,633.5,518.335,633.5161,518.351,632.6925,517.5274,631.9421,516.777,631.1564,515.9913,630.438,515.273,629.5,514.335" style="stroke:#A80036;stroke-width:1.5;"/><path d="M633.5,367.4951 L633.7802,367.4951 L632.9476,377.4718 L633.7577,387.4485 L634.0329,397.4252 L632.5488,407.4019 L633.3964,417.3786 L632.9313,427.3552 L632.9887,437.3319 L633.4091,447.3086 L632.5782,457.2853 L634.2382,467.262 L632.6596,477.2387 L633.2363,487.2154 L634.0759,497.1921 L633.3856,507.1688 L633.591,517.1454 L633.4574,527.1221 L633.738,537.0988 L633.8188,547.0755 L634.2809,557.0522 L634.3947,567.0289 L634.4057,577.0056 L633.8395,586.9823 L634.1181,596.959 L634.4363,606.9356 L632.5384,616.9123 L634.4047,626.889 L633.1047,636.8657 L634.2117,646.8424 L632.84,656.8191 L633.4087,666.7958 L633.5,676.7725 " fill="#A80036" style="stroke:#A80036;stroke-width:1.5;"/><path d="M633.5,676.7725 L633.5,677.0527 L623.3333,676.22 L613.1667,677.0302 L603,677.3054 L592.8333,675.8213 L582.6667,676.6688 L572.5,676.7725 " fill="#A80036" style="stroke:#A80036;stroke-width:1.5;"/><polygon fill="#A80036" points="582.5,672.7725,582.526,672.8375,580.4487,673.4442,578.5239,674.4323,576.5495,675.2962,574.4117,675.7517,572.5,676.7725,572.4904,676.7484,574.4472,677.4405,576.4525,678.2538,578.4916,679.1514,580.4144,679.7585,582.5,680.7725,582.6305,680.903,581.5514,679.8239,580.8534,679.1258,580.2018,678.4743,579.2798,677.5522,578.5,676.7725,578.5161,676.7885,579.2925,675.9649,580.1421,675.2145,580.9564,674.4288,581.838,673.7105,582.5,672.7725" style="stroke:#A80036;stroke-width:1.0;"/><path d="M560.5,644.7725 L560.5934,644.7725 L560.3159,648.7725 L560.5859,652.7725 L560.6776,656.7725 L560.1829,660.7725 L560.5,664.7725 " fill="#A80036" style="stroke:#A80036;stroke-width:1.5;"/><polygon fill="#A80036" points="556.5,654.7725,556.565,654.7985,557.1718,656.7212,558.1598,658.7964,559.0237,660.8219,559.4792,662.6841,560.5,664.7725,560.4759,664.7628,561.168,662.7197,561.9813,660.725,562.8789,658.764,563.486,656.6869,564.5,654.7725,564.6305,654.903,563.5514,655.4239,562.8534,656.3258,562.2018,657.2743,561.2798,657.9522,560.5,658.7725,560.5161,658.7885,559.6925,657.9649,558.9421,657.2145,558.1564,656.4288,557.438,655.7105,556.5,654.7725" style="stroke:#A80036;stroke-width:1.0;"/><path d="M560.5,335.4951 L560.5934,335.4951 L560.3159,339.4951 L560.5859,343.4951 L560.6776,347.4951 L560.1829,351.4951 L560.5,355.4951 " fill="#A80036" style="stroke:#A80036;stroke-width:1.5;"/><polygon fill="#A80036" points="556.5,345.4951,556.565,345.5211,557.1718,347.4438,558.1598,349.519,559.0237,351.5446,559.4792,353.4068,560.5,355.4951,560.4759,355.4855,561.168,353.4423,561.9813,351.4476,562.8789,349.4867,563.486,347.4095,564.5,345.4951,564.6305,345.6256,563.5514,346.1466,562.8534,347.0485,562.2018,347.9969,561.2798,348.6749,560.5,349.4951,560.5161,349.5112,559.6925,348.6876,558.9421,347.9372,558.1564,347.1515,557.438,346.4332,556.5,345.4951" style="stroke:#A80036;stroke-width:1.0;"/><path d="M560.5,688.7725 L560.5934,688.7725 L560.3159,692.7725 L560.5859,696.7725 L560.6776,700.7725 L560.1829,704.7725 L560.5,708.7725 " fill="#A80036" style="stroke:#A80036;stroke-width:1.5;"/><polygon fill="#A80036" points="556.5,698.7725,556.565,698.7985,557.1718,700.7212,558.1598,702.7964,559.0237,704.8219,559.4792,706.6841,560.5,708.7725,560.4759,708.7628,561.168,706.7197,561.9813,704.725,562.8789,702.764,563.486,700.6869,564.5,698.7725,564.6305,698.903,563.5514,699.4239,562.8534,700.3258,562.2018,701.2743,561.2798,701.9522,560.5,702.7725,560.5161,702.7885,559.6925,701.9649,558.9421,701.2145,558.1564,700.4288,557.438,699.7105,556.5,698.7725" style="stroke:#A80036;stroke-width:1.0;"/><path d="M163.5,133.6201 L163.5934,133.6201 L163.3159,134.6201 L163.5859,135.6201 L163.6776,136.6201 L163.1829,137.6201 L163.5,138.6201 " fill="#A80036" style="stroke:#A80036;stroke-width:1.5;"/><path d="M163.5,138.6201 L163.5,138.9004 L173.3913,138.0677 L183.2826,138.8778 L193.1739,139.153 L203.0652,137.6689 L212.9565,138.5165 L222.8478,138.0515 L232.7391,138.1088 L242.6304,138.5292 L252.5217,137.6983 L262.413,139.3583 L272.3043,137.7797 L282.1957,138.3564 L292.087,139.196 L301.9783,138.5057 L311.8696,138.7111 L321.7609,138.5775 L331.6522,138.8582 L341.5435,138.939 L351.4348,139.401 L361.3261,139.5149 L371.2174,139.5258 L381.1087,138.9596 L391,138.6201 " fill="#A80036" style="stroke:#A80036;stroke-width:1.5;"/><path d="M391,138.6201 L391.0934,138.6201 L390.8159,141.6201 L391.0859,144.6201 L391.1776,147.6201 L390.6829,150.6201 L391,153.6201 " fill="#A80036" style="stroke:#A80036;stroke-width:1.5;"/><polygon fill="#A80036" points="387,143.6201,387.065,143.6461,387.6718,145.5688,388.6598,147.644,389.5237,149.6696,389.9792,151.5318,391,153.6201,390.9759,153.6105,391.668,151.5673,392.4813,149.5726,393.3789,147.6117,393.986,145.5345,395,143.6201,395.1305,143.7506,394.0514,144.2716,393.3534,145.1735,392.7018,146.1219,391.7798,146.7999,391,147.6201,391.0161,147.6362,390.1925,146.8126,389.4421,146.0622,388.6564,145.2765,387.938,144.5582,387,143.6201" style="stroke:#A80036;stroke-width:1.0;"/><path d="M298,472.3506 L298.0934,472.3506 L297.8159,475.8506 L298.0859,479.3506 L298.1776,482.8506 L297.6829,486.3506 L298,489.8506 " fill="#A80036" style="stroke:#A80036;stroke-width:1.5;"/><path d="M298,489.8506 L298,490.1308 L288.1087,489.2982 L278.2174,490.1083 L268.3261,490.3835 L258.4348,488.8994 L248.5435,489.747 L238.6522,489.2819 L228.7609,489.3393 L218.8696,489.7597 L208.9783,488.9288 L199.087,490.5888 L189.1957,489.0102 L179.3043,489.5869 L169.413,490.4265 L159.5217,489.7362 L149.6304,489.9416 L139.7391,489.808 L129.8478,490.0886 L119.9565,490.1694 L110.0652,490.6315 L100.1739,490.7453 L90.2826,490.7563 L80.3913,490.1901 L70.5,489.8506 " fill="#A80036" style="stroke:#A80036;stroke-width:1.5;"/><path d="M70.5,489.8506 L70.5934,489.8506 L70.3159,493.3506 L70.5859,496.8506 L70.6776,500.3506 L70.1829,503.8506 L70.5,507.3506 " fill="#A80036" style="stroke:#A80036;stroke-width:1.5;"/><polygon fill="#A80036" points="66.5,497.3506,66.565,497.3766,67.1718,499.2993,68.1598,501.3745,69.0237,503.4001,69.4792,505.2623,70.5,507.3506,70.4759,507.341,71.168,505.2978,71.9813,503.3031,72.8789,501.3421,73.486,499.265,74.5,497.3506,74.6305,497.4811,73.5514,498.002,72.8534,498.904,72.2018,499.8524,71.2798,500.5304,70.5,501.3506,70.5161,501.3667,69.6925,500.5431,68.9421,499.7927,68.1564,499.007,67.438,498.2886,66.5,497.3506" style="stroke:#A80036;stroke-width:1.0;"/><path d="M457,281.5264 L457.0934,281.5264 L456.8159,282.3264 L457.0859,283.1264 L457.1776,283.9264 L456.6829,284.7264 L457,285.5264 " fill="#A80036" style="stroke:#A80036;stroke-width:1.5;"/><path d="M457,285.5264 L457,285.8066 L467.35,284.9739 L477.7,285.7841 L488.05,286.0593 L498.4,284.5752 L508.75,285.4227 L519.1,284.9577 L529.45,285.015 L539.8,285.4355 L550.15,284.6045 L560.5,285.5264 " fill="#A80036" style="stroke:#A80036;stroke-width:1.5;"/><path d="M560.5,285.5264 L560.5934,285.5264 L560.3159,288.7264 L560.5859,291.9264 L560.6776,295.1264 L560.1829,298.3264 L560.5,301.5264 " fill="#A80036" style="stroke:#A80036;stroke-width:1.5;"/><polygon fill="#A80036" points="556.5,291.5264,556.565,291.5524,557.1718,293.4751,558.1598,295.5503,559.0237,297.5758,559.4792,299.4381,560.5,301.5264,560.4759,301.5167,561.168,299.4736,561.9813,297.4789,562.8789,295.5179,563.486,293.4408,564.5,291.5264,564.6305,291.6569,563.5514,292.1778,562.8534,293.0798,562.2018,294.0282,561.2798,294.7061,560.5,295.5264,560.5161,295.5425,559.6925,294.7188,558.9421,293.9684,558.1564,293.1827,557.438,292.4644,556.5,291.5264" style="stroke:#A80036;stroke-width:1.0;"/><path d="M70.5,610.2881 L70.7802,610.2881 L69.9476,620.8486 L70.7577,631.4092 L71.0329,641.9697 L69.5488,652.5303 L70.3964,663.0908 L69.9313,673.6514 L69.9887,684.2119 L70.5,694.7725 " fill="#A80036" style="stroke:#A80036;stroke-width:1.5;"/><path d="M70.5,694.7725 L70.5,695.0527 L80.5476,694.22 L90.5952,695.0302 L100.6429,695.3054 L110.6905,693.8213 L120.7381,694.6688 L130.7857,694.2038 L140.8333,694.2611 L150.881,694.6816 L160.9286,693.8506 L170.9762,695.5107 L181.0238,693.9321 L191.0714,694.5088 L201.119,695.3484 L211.1667,694.6581 L221.2143,694.8634 L231.2619,694.7299 L241.3095,695.0105 L251.3571,695.0913 L261.4048,695.5534 L271.4524,695.6672 L281.5,695.6781 L291.5476,695.112 L301.5952,695.3906 L311.6429,695.7088 L321.6905,693.8109 L331.7381,695.6771 L341.7857,694.3771 L351.8333,695.4842 L361.881,694.1124 L371.9286,694.6811 L381.9762,695.7613 L392.0238,694.7075 L402.0714,694.9129 L412.119,695.224 L422.1667,695.3274 L432.2143,694.7673 L442.2619,695.1554 L452.3095,694.0092 L462.3571,695.1516 L472.4048,695.5034 L482.4524,695.3652 L492.5,694.7725 " fill="#A80036" style="stroke:#A80036;stroke-width:1.5;"/><path d="M492.5,694.7725 L492.5934,694.7725 L492.3159,697.5725 L492.5859,700.3725 L492.6776,703.1725 L492.1829,705.9725 L492.5,708.7725 " fill="#A80036" style="stroke:#A80036;stroke-width:1.5;"/><polygon fill="#A80036" points="488.5,698.7725,488.565,698.7985,489.1718,700.7212,490.1598,702.7964,491.0237,704.8219,491.4792,706.6841,492.5,708.7725,492.4759,708.7628,493.168,706.7197,493.9813,704.725,494.8789,702.764,495.486,700.6869,496.5,698.7725,496.6305,698.903,495.5514,699.4239,494.8534,700.3258,494.2018,701.2743,493.2798,701.9522,492.5,702.7725,492.5161,702.7885,491.6925,701.9649,490.9421,701.2145,490.1564,700.4288,489.438,699.7105,488.5,698.7725" style="stroke:#A80036;stroke-width:1.0;"/><path d="M494.5,714.7725 L494.5934,714.7725 L494.3159,715.7725 L494.5859,716.7725 L494.6776,717.7725 L494.1829,718.7725 L494.5,719.7725 " fill="#A80036" style="stroke:#A80036;stroke-width:1.5;"/><path d="M494.5,719.7725 L494.5,720.0527 L484.15,719.22 L473.8,720.0302 L463.45,720.3054 L453.1,718.8213 L442.75,719.6688 L432.4,719.2038 L422.05,719.2611 L411.7,719.6816 L401.35,718.8506 L391,719.7725 " fill="#A80036" style="stroke:#A80036;stroke-width:1.5;"/><path d="M391,719.7725 L391.0934,719.7725 L390.8159,722.7725 L391.0859,725.7725 L391.1776,728.7725 L390.6829,731.7725 L391,734.7725 " fill="#A80036" style="stroke:#A80036;stroke-width:1.5;"/><polygon fill="#A80036" points="387,724.7725,387.065,724.7985,387.6718,726.7212,388.6598,728.7964,389.5237,730.8219,389.9792,732.6841,391,734.7725,390.9759,734.7628,391.668,732.7197,392.4813,730.725,393.3789,728.764,393.986,726.6869,395,724.7725,395.1305,724.903,394.0514,725.4239,393.3534,726.3258,392.7018,727.2743,391.7798,727.9522,391,728.7725,391.0161,728.7885,390.1925,727.9649,389.4421,727.2145,388.6564,726.4288,387.938,725.7105,387,724.7725" style="stroke:#A80036;stroke-width:1.0;"/><text fill="#000000" font-family="sans-serif" font-size="18" lengthAdjust="spacing" textLength="53" x="92" y="50.4063">Client</text><text fill="#000000" font-family="sans-serif" font-size="18" lengthAdjust="spacing" textLength="139" x="281.25" y="50.4063">Réceptionniste</text><text fill="#000000" font-family="sans-serif" font-size="18" lengthAdjust="spacing" textLength="54" x="539.5" y="50.4063">Agent</text><!--MD5=[12c3a11ec597455da71e59d4c70a1b90]
@startuml
skinparam style strictuml
skinparam handwritten true
title <u>Retour de voiture louée</u>
|Client|
start
:Rendre voiture;
|Réceptionniste|
:Voiture et clés]
:Noter kilomètrage et
niveau d'essence;
fork
:Générer facture;
:Facture]
|Client|
:Payer facture;
:Partir;
|Agent|
fork again
:Inspecter voiture;
if (propre?) then (oui)
else (non)
 :Laver voiture;
 :Rincer voiture;
 :Sécher voiture;
 :Nettoyer intérieur;
endif
end fork
|Réceptionniste|
stop
@enduml

PlantUML version 1.2021.3beta7(Unknown compile time)
(GPL source distribution)
Java Runtime: Java(TM) SE Runtime Environment
JVM: Java HotSpot(TM) 64-Bit Server VM
Default Encoding: UTF-8
Language: en
Country: US
--></g></svg>